<?xml version="1.0" encoding="utf-8"?>
<!-- Generator: Adobe Illustrator 20.0.0, SVG Export Plug-In . SVG Version: 6.00 Build 0)  -->
<svg version="1.1" id="Layer_1" xmlns="http://www.w3.org/2000/svg" xmlns:xlink="http://www.w3.org/1999/xlink" x="0px" y="0px"
	 viewBox="0 0 300 250" style="enable-background:new 0 0 300 250;" xml:space="preserve">
<style type="text/css">
	.st0{fill:#563819;}
	.st1{fill:#6D481D;}
	.st2{fill:#A56D3E;}
</style>
<g>
	<path class="st0" d="M63.8,131.6c4.4-5.6,14.2-5.3,22,0.8c7.8,6,10.5,15.5,6.1,21.1"/>
	<path class="st0" d="M91.9,153.5c-5.5,5.1-15,5.2-22.9-1.3c-7.9-6.6-8.6-16.7-4.2-22.4"/>
	
		<ellipse transform="matrix(0.6145 -0.7889 0.7889 0.6145 -80.7058 116.7022)" class="st1" cx="79.1" cy="140.9" rx="12.5" ry="18.2"/>
	<g>
		<path class="st2" d="M82.7,142.8c0,0,0.6-0.1,1.5-0.1c0.4,0,0.9,0,1.5,0c0.5,0,1.1,0,1.6-0.1c0.5,0,1.1-0.1,1.6-0.2
			c0.2-0.1,0.5-0.1,0.7-0.2c0.2-0.1,0.4-0.1,0.6-0.2c0.4-0.2,0.7-0.3,0.9-0.4c0.2-0.1,0.4-0.2,0.4-0.2s-0.1,0.1-0.2,0.3
			c-0.1,0.1-0.2,0.2-0.3,0.4c-0.1,0.1-0.3,0.3-0.5,0.4c-0.4,0.3-0.8,0.5-1.4,0.7c-0.3,0.1-0.6,0.2-0.9,0.2c-0.3,0.1-0.6,0.1-0.9,0.1
			c-0.6,0-1.2,0-1.7-0.1c-0.5-0.1-1.1-0.2-1.5-0.3C83.3,143,82.7,142.8,82.7,142.8z"/>
	</g>
	<g>
		<path class="st2" d="M73.9,135.2c0,0,0.4-0.1,1.1-0.2c0.6-0.1,1.4-0.1,2.2-0.1c0.8,0,1.5-0.2,2.1-0.4c0.3-0.1,0.5-0.2,0.7-0.3
			c0.2-0.1,0.3-0.1,0.3-0.1s0,0.1-0.1,0.3c-0.1,0.2-0.3,0.4-0.5,0.6c-0.3,0.2-0.6,0.4-1,0.6c-0.4,0.2-0.8,0.2-1.3,0.3
			c-0.9,0-1.7-0.1-2.3-0.3C74.3,135.4,73.9,135.2,73.9,135.2z"/>
	</g>
	<g>
		<path class="st2" d="M80.9,141.6c0,0,0.3,0.3,0.6,0.9c0.3,0.5,0.7,1.3,0.9,2.2c0.1,0.4,0.1,0.9,0.1,1.3c0,0.4-0.1,0.8-0.3,1.1
			c-0.1,0.3-0.3,0.5-0.5,0.7c-0.1,0.1-0.2,0.2-0.2,0.2s0-0.1,0-0.3c0-0.2,0.1-0.4,0.1-0.7c0-0.6,0-1.3-0.2-2.1
			c-0.2-0.8-0.4-1.6-0.5-2.2C80.9,142.1,80.9,141.6,80.9,141.6z"/>
	</g>
	<g>
		<path class="st2" d="M75.2,145.6c0,0,0-0.6,0.1-1.5c0.1-0.4,0.1-0.9,0.2-1.4c0.1-0.5,0.2-1.1,0.3-1.6c0.1-0.5,0.1-1.1,0.1-1.6
			c0-0.2,0-0.5,0-0.7c0-0.2,0-0.5-0.1-0.7c-0.1-0.4-0.2-0.8-0.3-1c-0.1-0.2-0.1-0.4-0.1-0.4s0.1,0.1,0.3,0.3
			c0.1,0.1,0.2,0.2,0.3,0.4c0.1,0.1,0.2,0.3,0.3,0.5c0.2,0.4,0.4,0.9,0.5,1.5c0,0.3,0.1,0.6,0.1,0.9c0,0.3,0,0.6-0.1,0.9
			c-0.1,0.6-0.2,1.2-0.4,1.7c-0.2,0.5-0.4,1-0.6,1.4C75.5,145.1,75.2,145.6,75.2,145.6z"/>
	</g>
	<path class="st2" d="M67.3,131c0,0,15.9,7.4,23.4,19.4"/>
</g>
</svg>
