<?xml version="1.0" encoding="utf-8"?>
<!-- Generator: Adobe Illustrator 20.0.0, SVG Export Plug-In . SVG Version: 6.00 Build 0)  -->
<svg version="1.1" id="Layer_1" xmlns="http://www.w3.org/2000/svg" xmlns:xlink="http://www.w3.org/1999/xlink" x="0px" y="0px"
	 viewBox="0 0 300 250" style="enable-background:new 0 0 300 250;" xml:space="preserve">
<style type="text/css">
	.st0{fill:#563819;}
	.st1{fill:#6D481D;}
	.st2{fill:#A56D3E;}
</style>
<g>
	<path class="st0" d="M16.8,148.9c-2.3-6.7,3.4-14.8,12.7-17.9c9.3-3.2,18.7-0.3,21,6.4"/>
	<path class="st0" d="M50.4,137.4c1.2,7.4-3.9,15.4-13.7,18.4c-9.8,3-18.7-2-21-8.7"/>
	<ellipse transform="matrix(0.9463 -0.3234 0.3234 0.9463 -43.9135 18.249)" class="st1" cx="33" cy="141.3" rx="18.2" ry="12.5"/>
	<g>
		<path class="st2" d="M36.5,139.2c0,0,0.2-0.6,0.7-1.3c0.2-0.4,0.5-0.8,0.8-1.2c0.3-0.5,0.6-0.9,0.8-1.4c0.3-0.5,0.5-1,0.7-1.4
			c0.1-0.2,0.2-0.5,0.2-0.7c0.1-0.2,0.1-0.4,0.2-0.6c0.1-0.4,0.1-0.8,0.1-1c0-0.3,0-0.4,0-0.4s0.1,0.1,0.2,0.4
			c0.1,0.1,0.1,0.3,0.1,0.5c0,0.2,0.1,0.4,0.1,0.6c0.1,0.5,0,1-0.1,1.6c-0.1,0.3-0.2,0.6-0.3,0.8c-0.1,0.3-0.3,0.5-0.4,0.8
			c-0.3,0.5-0.6,1-1,1.4c-0.4,0.4-0.7,0.8-1,1.1C37,138.9,36.5,139.2,36.5,139.2z"/>
	</g>
	<g>
		<path class="st2" d="M25.3,142.4c0,0,0.1-0.4,0.4-1c0.3-0.6,0.7-1.3,1.1-1.9c0.4-0.7,0.7-1.4,0.8-1.9c0.1-0.3,0.1-0.5,0.2-0.7
			c0-0.2,0.1-0.3,0.1-0.3s0.1,0.1,0.1,0.3c0.1,0.2,0.2,0.4,0.2,0.8c0.1,0.3,0,0.7-0.1,1.2c-0.1,0.4-0.3,0.8-0.5,1.2
			c-0.4,0.8-1,1.4-1.5,1.8C25.7,142.2,25.3,142.4,25.3,142.4z"/>
	</g>
	<g>
		<path class="st2" d="M34.6,140.1c0,0,0.4-0.1,1.1-0.1c0.6,0,1.5,0.1,2.3,0.4c0.4,0.2,0.8,0.4,1.1,0.7c0.3,0.3,0.6,0.6,0.8,0.9
			c0.2,0.3,0.3,0.6,0.3,0.7c0,0.2,0.1,0.3,0.1,0.3s-0.1-0.1-0.2-0.2c-0.1-0.1-0.3-0.3-0.6-0.5c-0.5-0.4-1.1-0.7-1.9-1
			c-0.7-0.3-1.5-0.6-2.1-0.8C34.9,140.4,34.6,140.1,34.6,140.1z"/>
	</g>
	<g>
		<path class="st2" d="M34.7,147.1c0,0-0.5-0.3-1.1-0.9c-0.3-0.3-0.7-0.6-1.1-1c-0.4-0.4-0.8-0.7-1.2-1.1c-0.4-0.4-0.8-0.7-1.3-1
			c-0.2-0.1-0.4-0.3-0.6-0.4c-0.2-0.1-0.4-0.2-0.6-0.3c-0.4-0.2-0.7-0.3-1-0.3c-0.2-0.1-0.4-0.1-0.4-0.1s0.1,0,0.4-0.1
			c0.1,0,0.3-0.1,0.5,0c0.2,0,0.4,0,0.6,0c0.5,0,1,0.2,1.5,0.4c0.3,0.1,0.5,0.3,0.8,0.4c0.3,0.2,0.5,0.4,0.7,0.5
			c0.4,0.4,0.9,0.8,1.2,1.3c0.3,0.4,0.6,0.9,0.9,1.2C34.5,146.5,34.7,147.1,34.7,147.1z"/>
	</g>
	<path class="st2" d="M18.2,145.6c0,0,14.9-9.2,29.1-8.9"/>
</g>
</svg>
