<?xml version="1.0" encoding="utf-8"?>
<!-- Generator: Adobe Illustrator 20.0.0, SVG Export Plug-In . SVG Version: 6.00 Build 0)  -->
<svg version="1.1" id="Layer_1" xmlns="http://www.w3.org/2000/svg" xmlns:xlink="http://www.w3.org/1999/xlink" x="0px" y="0px"
	 viewBox="0 0 300 249" style="enable-background:new 0 0 300 249;" xml:space="preserve">
<style type="text/css">
	.st0{fill:#895C44;}
	.st1{font-family:'Cookie-Regular';}
	.st2{font-size:37.0333px;}
	.st3{fill:#3A261E;}
</style>
<text transform="matrix(-8.850000e-03 1 -1 -8.850000e-03 229.2193 83.8672)" class="st0 st1 st2">Grown</text>
<polygon class="st3" points="182.4,104.6 182.4,249.4 187.4,249.4 186.7,104.6 "/>
<path class="st3" d="M185.9,108.7c0,0-22.4-7.1-32.8,22.9c0,0,25.9,8.4,28.3-20.8"/>
<path class="st3" d="M186.8,111c0,0-9-21.7-38.7-10.2c0,0,10.3,25.2,34.1,8.2"/>
<path class="st3" d="M181,103.8c0,0,6,22.7,36.9,15.3c0,0-6.8-26.4-32.7-12.7"/>
<path class="st3" d="M180.2,104.3c0,0,12.8,14.4,32.7-2.5c0,0-14.8-16.8-28.6,2.8"/>
<path class="st3" d="M176,104.6c0,0,27.5,8.2,39.4-28.8c0,0-31.9-9.6-34.1,26"/>
<path class="st3" d="M187.5,225.6c0,0-5,16,16.5,23.2c0,0,5.9-18.5-14.9-20.1"/>
<path class="st3" d="M186.8,225.6c0,0,2.3,13.5,20.6,10.9c0,0-2.6-15.7-18.3-9.1"/>
<path class="st3" d="M184.2,224.1c0,0,13.5,15.4,34.7-2.4c0,0-15.6-17.9-30.4,2.8"/>
<path class="st3" d="M179.8,219.2c0,0,4.7-23-26.3-30.1c0,0-5.6,26.7,23.7,25.9"/>
<path class="st3" d="M180.7,219.1c0,0-5.1-18.6-30.4-12.3c0,0,5.8,21.6,26.9,10.2"/>
<path class="st3" d="M184.6,220.8c0,0-21-19.5-48.1,8.3c0,0,24.3,22.8,42.1-8.2"/>
<path class="st3" d="M184.9,122.6c0,0-2,28.6,36.7,32.2c0,0,2.5-33.2-32.8-27.6"/>
<path class="st3" d="M174.9,176.4c0,0,20.5,20.1,48.3-7c0,0-23.7-23.4-42.3,7.1"/>
<path class="st3" d="M188,190.8c0,0-2.3-28.6-41.1-26.4c0,0,2.5,33.2,36.6,22.3"/>
<path class="st3" d="M194.1,131.8c0,0-25.6-13-44,21.2c0,0,29.6,15.2,38.2-19.5"/>
<path class="st3" d="M190.1,141.4c0,0-20.6-4.9-27.9,22.9c0,0,23.9,5.8,24-20.6"/>
<path class="st3" d="M184.2,111.6c0,0,12.1-26.6-23.5-43.8c0,0-14.2,30.8,21.5,38"/>
<path class="st3" d="M187.8,132.4c0,0-10.4,13.8,7.9,28.4c0,0,12.2-16-7.5-24.8"/>
<path class="st3" d="M187.9,174.7c0,0-14.1,18.7,10.8,38.5c0,0,16.5-21.7-10.2-33.5"/>
<path class="st3" d="M187.6,183.1c0,0-16.1-6.5-25.3,15c0,0,18.6,7.6,22-13.7"/>
<path class="st3" d="M182.8,179.8c0,0,7.8-15.4-12.8-26.5c0,0-9.2,17.9,11.7,23"/>
<g>
	<path class="st3" d="M185.9,113.8c0,0,0.5,0.5,1.4,1.3c0.5,0.4,1,0.9,1.7,1.4c0.6,0.5,1.4,1,2.2,1.6c0.8,0.6,1.8,1.2,2.8,1.8
		c1,0.6,2.1,1.2,3.2,1.7c1.1,0.6,2.3,1.1,3.5,1.6c1.2,0.5,2.5,0.9,3.8,1.4c1.3,0.4,2.6,0.8,3.9,1.1c1.3,0.3,2.6,0.6,3.8,0.9
		c1.2,0.2,2.5,0.4,3.6,0.6c1.1,0.2,2.2,0.2,3.3,0.4c1,0.1,1.9,0.2,2.8,0.2c0.8,0,1.5,0.1,2.1,0.1c1.2,0.1,1.9,0.1,1.9,0.1
		s-0.7,0-1.9,0.1c-0.6,0-1.3,0.1-2.2,0.1c-0.8,0.1-1.8,0-2.8,0c-1-0.1-2.1-0.1-3.3-0.2c-1.2-0.1-2.4-0.3-3.7-0.5
		c-1.3-0.3-2.6-0.5-3.9-0.8c-1.3-0.3-2.6-0.7-3.9-1.1c-1.3-0.5-2.6-0.9-3.8-1.5c-1.2-0.6-2.4-1.1-3.6-1.7c-1.2-0.6-2.2-1.3-3.2-1.9
		c-1-0.6-1.9-1.3-2.7-1.9c-0.8-0.6-1.5-1.2-2.1-1.8c-0.6-0.5-1.1-1.1-1.5-1.5C186.3,114.3,185.9,113.8,185.9,113.8z"/>
</g>
<circle class="st3" cx="206.9" cy="127.1" r="2.2"/>
<circle class="st3" cx="215.5" cy="126" r="2.2"/>
<circle class="st3" cx="217.7" cy="129.4" r="2.2"/>
<circle class="st3" cx="219.9" cy="126" r="2.2"/>
<circle class="st3" cx="220.8" cy="128.5" r="1.4"/>
<ellipse transform="matrix(0.9009 -0.4341 0.4341 0.9009 -32.5755 95.154)" class="st3" cx="192.1" cy="118.9" rx="2.2" ry="2.2"/>
<ellipse transform="matrix(0.9009 -0.4341 0.4341 0.9009 -32.0068 93.434)" class="st3" cx="188.6" cy="116.8" rx="2.2" ry="2.2"/>
<ellipse transform="matrix(0.9009 -0.4341 0.4341 0.9009 -33.8101 93.6068)" class="st3" cx="188" cy="120.8" rx="2.2" ry="2.2"/>
<ellipse transform="matrix(0.9009 -0.4341 0.4341 0.9009 -33.1622 92.6)" class="st3" cx="186.2" cy="118.9" rx="1.4" ry="1.4"/>
<circle class="st3" cx="208.8" cy="124.1" r="1.9"/>
<circle class="st3" cx="205.8" cy="123.7" r="1.9"/>
<circle class="st3" cx="210.7" cy="127.5" r="1.9"/>
<ellipse transform="matrix(0.8315 -0.5555 0.5555 0.8315 -33.494 130.6799)" class="st3" cx="198.7" cy="120.6" rx="2.2" ry="2.2"/>
<ellipse transform="matrix(0.8315 -0.5555 0.5555 0.8315 -35.4836 131.3734)" class="st3" cx="198.8" cy="124.2" rx="1.9" ry="1.9"/>
<ellipse transform="matrix(0.8315 -0.5555 0.5555 0.8315 -34.2554 132.6141)" class="st3" cx="201.5" cy="122.8" rx="1.9" ry="1.9"/>
<ellipse transform="matrix(0.8315 -0.5555 0.5555 0.8315 -35.0772 129.1479)" class="st3" cx="195.4" cy="122.4" rx="1.9" ry="1.9"/>
<g>
	<g>
		<path class="st3" d="M184.9,173.3c0,0-0.4,0.5-1.2,1.4c-0.4,0.4-0.9,1-1.5,1.5c-0.6,0.6-1.3,1.2-2.1,1.8c-0.8,0.6-1.7,1.3-2.7,1.9
			c-1,0.6-2,1.3-3.2,1.9c-1.1,0.6-2.3,1.2-3.6,1.7c-1.2,0.6-2.5,1-3.8,1.5c-1.3,0.4-2.6,0.8-3.9,1.1c-1.3,0.3-2.6,0.5-3.9,0.8
			c-1.3,0.2-2.5,0.3-3.7,0.5c-1.2,0.1-2.3,0.1-3.3,0.2c-1,0.1-2,0.1-2.8,0c-0.8,0-1.6-0.1-2.2-0.1c-1.2-0.1-1.9-0.1-1.9-0.1
			s0.7,0,1.9-0.1c0.6,0,1.3-0.1,2.1-0.1c0.8,0,1.8-0.1,2.8-0.2c1-0.1,2.1-0.2,3.3-0.4c1.1-0.2,2.4-0.4,3.6-0.6
			c1.2-0.3,2.5-0.6,3.8-0.9c1.3-0.4,2.6-0.7,3.9-1.1c1.3-0.5,2.5-0.9,3.8-1.4c1.2-0.5,2.4-1,3.5-1.6c1.1-0.5,2.2-1.1,3.2-1.7
			c1-0.6,1.9-1.2,2.8-1.8c0.8-0.6,1.6-1.1,2.2-1.6c0.7-0.5,1.2-1,1.7-1.4C184.4,173.8,184.9,173.3,184.9,173.3z"/>
	</g>
	<circle class="st3" cx="163.9" cy="186.7" r="2.2"/>
	<circle class="st3" cx="155.3" cy="185.5" r="2.2"/>
	<circle class="st3" cx="153.1" cy="188.9" r="2.2"/>
	<circle class="st3" cx="150.9" cy="185.5" r="2.2"/>
	<circle class="st3" cx="150" cy="188" r="1.4"/>
	
		<ellipse transform="matrix(0.4341 -0.9009 0.9009 0.4341 -59.598 261.9969)" class="st3" cx="178.7" cy="178.4" rx="2.2" ry="2.2"/>
	
		<ellipse transform="matrix(0.4341 -0.9009 0.9009 0.4341 -55.7314 263.9422)" class="st3" cx="182.2" cy="176.3" rx="2.2" ry="2.2"/>
	<ellipse transform="matrix(0.4341 -0.9009 0.9009 0.4341 -59.07 266.6968)" class="st3" cx="182.7" cy="180.4" rx="2.2" ry="2.2"/>
	
		<ellipse transform="matrix(0.4341 -0.9009 0.9009 0.4341 -56.2743 267.3033)" class="st3" cx="184.6" cy="178.4" rx="1.4" ry="1.4"/>
	<circle class="st3" cx="162" cy="183.6" r="1.9"/>
	<circle class="st3" cx="165" cy="183.3" r="1.9"/>
	<circle class="st3" cx="160.1" cy="187" r="1.9"/>
	
		<ellipse transform="matrix(0.5555 -0.8315 0.8315 0.5555 -73.243 223.1593)" class="st3" cx="172.1" cy="180.1" rx="2.2" ry="2.2"/>
	<ellipse transform="matrix(0.5555 -0.8315 0.8315 0.5555 -76.3246 224.6479)" class="st3" cx="172" cy="183.7" rx="1.9" ry="1.9"/>
	
		<ellipse transform="matrix(0.5555 -0.8315 0.8315 0.5555 -76.3389 221.8124)" class="st3" cx="169.3" cy="182.3" rx="1.9" ry="1.9"/>
	
		<ellipse transform="matrix(0.5555 -0.8315 0.8315 0.5555 -73.3018 226.737)" class="st3" cx="175.4" cy="181.9" rx="1.9" ry="1.9"/>
</g>
<g>
	<g>
		<path class="st3" d="M182.4,121.6c0,0-0.4,0.5-1.2,1.4c-0.4,0.4-0.9,1-1.5,1.5c-0.6,0.6-1.3,1.2-2.1,1.8c-0.8,0.6-1.7,1.3-2.7,1.9
			c-1,0.6-2,1.3-3.2,1.9c-1.1,0.6-2.3,1.2-3.6,1.7c-1.2,0.6-2.5,1-3.8,1.5c-1.3,0.4-2.6,0.8-3.9,1.1c-1.3,0.3-2.6,0.5-3.9,0.8
			c-1.3,0.2-2.5,0.3-3.7,0.5c-1.2,0.1-2.3,0.1-3.3,0.2c-1,0.1-2,0.1-2.8,0c-0.8,0-1.6-0.1-2.2-0.1c-1.2-0.1-1.9-0.1-1.9-0.1
			s0.7,0,1.9-0.1c0.6,0,1.3-0.1,2.1-0.1c0.8,0,1.8-0.1,2.8-0.2c1-0.1,2.1-0.2,3.3-0.4c1.1-0.2,2.4-0.4,3.6-0.6
			c1.2-0.3,2.5-0.6,3.8-0.9c1.3-0.4,2.6-0.7,3.9-1.1c1.3-0.5,2.5-0.9,3.8-1.4c1.2-0.5,2.4-1,3.5-1.6c1.1-0.5,2.2-1.1,3.2-1.7
			c1-0.6,1.9-1.2,2.8-1.8c0.8-0.6,1.6-1.1,2.2-1.6c0.7-0.5,1.2-1,1.7-1.4C181.9,122.1,182.4,121.6,182.4,121.6z"/>
	</g>
	<circle class="st3" cx="161.4" cy="135" r="2.2"/>
	<circle class="st3" cx="152.9" cy="133.8" r="2.2"/>
	<circle class="st3" cx="150.7" cy="137.2" r="2.2"/>
	<circle class="st3" cx="148.4" cy="133.8" r="2.2"/>
	<circle class="st3" cx="147.6" cy="136.3" r="1.4"/>
	
		<ellipse transform="matrix(0.4341 -0.9009 0.9009 0.4341 -14.4062 230.5237)" class="st3" cx="176.3" cy="126.7" rx="2.2" ry="2.2"/>
	
		<ellipse transform="matrix(0.4341 -0.9009 0.9009 0.4341 -10.5396 232.4689)" class="st3" cx="179.8" cy="124.6" rx="2.2" ry="2.2"/>
	
		<ellipse transform="matrix(0.4341 -0.9009 0.9009 0.4341 -13.8783 235.2236)" class="st3" cx="180.3" cy="128.7" rx="2.2" ry="2.2"/>
	<ellipse transform="matrix(0.4341 -0.9009 0.9009 0.4341 -11.0826 235.83)" class="st3" cx="182.2" cy="126.7" rx="1.4" ry="1.4"/>
	<circle class="st3" cx="159.5" cy="131.9" r="1.9"/>
	<circle class="st3" cx="162.5" cy="131.6" r="1.9"/>
	<circle class="st3" cx="157.6" cy="135.3" r="1.9"/>
	
		<ellipse transform="matrix(0.5555 -0.8315 0.8315 0.5555 -31.3397 198.135)" class="st3" cx="169.7" cy="128.4" rx="2.2" ry="2.2"/>
	<ellipse transform="matrix(0.5555 -0.8315 0.8315 0.5555 -34.4213 199.6235)" class="st3" cx="169.5" cy="132" rx="1.9" ry="1.9"/>
	
		<ellipse transform="matrix(0.5555 -0.8315 0.8315 0.5555 -34.4356 196.788)" class="st3" cx="166.8" cy="130.6" rx="1.9" ry="1.9"/>
	<ellipse transform="matrix(0.5555 -0.8315 0.8315 0.5555 -31.3985 201.7127)" class="st3" cx="173" cy="130.2" rx="1.9" ry="1.9"/>
</g>
<g>
	<g>
		<path class="st3" d="M189.1,191.4c0,0,0.3,0.6,0.8,1.7c0.3,0.5,0.6,1.2,1.1,1.9c0.4,0.7,0.9,1.5,1.5,2.3c0.6,0.8,1.2,1.7,2,2.6
			c0.7,0.9,1.5,1.8,2.4,2.7c0.8,1,1.8,1.8,2.7,2.8c0.9,0.9,2,1.8,3,2.7c1.1,0.8,2.1,1.6,3.2,2.4c1.1,0.7,2.2,1.5,3.3,2.2
			c1.1,0.6,2.2,1.2,3.2,1.8c1,0.6,2,1,2.9,1.5c0.9,0.4,1.7,0.9,2.5,1.2c0.8,0.3,1.4,0.6,2,0.8c1.1,0.5,1.7,0.8,1.7,0.8
			s-0.6-0.2-1.8-0.6c-0.6-0.2-1.3-0.4-2-0.7c-0.8-0.2-1.7-0.6-2.6-1c-0.9-0.4-2-0.8-3-1.3c-1-0.5-2.1-1.1-3.3-1.7
			c-1.1-0.7-2.2-1.4-3.3-2.1c-1.1-0.8-2.2-1.6-3.3-2.4c-1-0.9-2.1-1.8-3.1-2.7c-1-1-1.9-1.9-2.7-2.9c-0.9-0.9-1.6-2-2.3-2.9
			c-0.7-1-1.3-1.9-1.9-2.8c-0.5-0.9-1-1.7-1.4-2.4c-0.4-0.7-0.7-1.4-0.9-2C189.2,192.1,189.1,191.4,189.1,191.4z"/>
	</g>
	<ellipse transform="matrix(0.3543 -0.9351 0.9351 0.3543 -65.9684 327.2117)" class="st3" cx="204" cy="211.4" rx="2.2" ry="2.2"/>
	
		<ellipse transform="matrix(0.3543 -0.9351 0.9351 0.3543 -62.3405 336.2834)" class="st3" cx="212.3" cy="213.3" rx="2.2" ry="2.2"/>
	
		<ellipse transform="matrix(0.3543 -0.9351 0.9351 0.3543 -65.4942 339.6643)" class="st3" cx="213.2" cy="217.3" rx="2.2" ry="2.2"/>
	
		<ellipse transform="matrix(0.3543 -0.9351 0.9351 0.3543 -61.129 341.1878)" class="st3" cx="216.5" cy="214.9" rx="2.2" ry="2.2"/>
	
		<ellipse transform="matrix(0.3543 -0.9351 0.9351 0.3543 -63.7055 342.8308)" class="st3" cx="216.4" cy="217.5" rx="1.4" ry="1.4"/>
	
		<ellipse transform="matrix(0.9962 -8.676578e-02 8.676578e-02 0.9962 -16.4856 17.49)" class="st3" cx="193" cy="198.4" rx="2.2" ry="2.2"/>
	
		<ellipse transform="matrix(0.9962 -8.676578e-02 8.676578e-02 0.9962 -16.2173 17.2602)" class="st3" cx="190.4" cy="195.2" rx="2.2" ry="2.2"/>
	
		<ellipse transform="matrix(0.9962 -8.676578e-02 8.676578e-02 0.9962 -16.5358 17.1072)" class="st3" cx="188.5" cy="198.8" rx="2.2" ry="2.2"/>
	
		<ellipse transform="matrix(0.9962 -8.676578e-02 8.676578e-02 0.9962 -16.3261 17.0044)" class="st3" cx="187.4" cy="196.3" rx="1.4" ry="1.4"/>
	
		<ellipse transform="matrix(0.3543 -0.9351 0.9351 0.3543 -62.0351 328.4539)" class="st3" cx="206.8" cy="209.1" rx="1.9" ry="1.9"/>
	
		<ellipse transform="matrix(0.3543 -0.9351 0.9351 0.3543 -62.5088 325.0692)" class="st3" cx="204.1" cy="207.8" rx="1.9" ry="1.9"/>
	<ellipse transform="matrix(0.3543 -0.9351 0.9351 0.3543 -65.279 331.469)" class="st3" cx="207.4" cy="213" rx="1.9" ry="1.9"/>
	
		<ellipse transform="matrix(0.9744 -0.2249 0.2249 0.9744 -40.4047 49.8368)" class="st3" cx="198.6" cy="202.3" rx="2.2" ry="2.2"/>
	
		<ellipse transform="matrix(0.9744 -0.2249 0.2249 0.9744 -41.2086 49.6673)" class="st3" cx="197.4" cy="205.7" rx="1.9" ry="1.9"/>
	<ellipse transform="matrix(0.9744 -0.2249 0.2249 0.9744 -41.0487 50.329)" class="st3" cx="200.4" cy="205.4" rx="1.9" ry="1.9"/>
	
		<ellipse transform="matrix(0.9744 -0.2249 0.2249 0.9744 -40.6244 49.0064)" class="st3" cx="194.8" cy="202.8" rx="1.9" ry="1.9"/>
</g>
<g>
	<g>
		<path class="st3" d="M189.5,153.2c0,0,0.3,0.6,0.8,1.7c0.3,0.5,0.6,1.2,1.1,1.9c0.4,0.7,0.9,1.5,1.5,2.3c0.6,0.8,1.2,1.7,2,2.6
			c0.7,0.9,1.5,1.8,2.4,2.7c0.8,1,1.8,1.8,2.7,2.8c0.9,0.9,2,1.8,3,2.7c1.1,0.8,2.1,1.6,3.2,2.4c1.1,0.7,2.2,1.5,3.3,2.2
			c1.1,0.6,2.2,1.2,3.2,1.8c1,0.6,2,1,2.9,1.5c0.9,0.4,1.7,0.9,2.5,1.2c0.8,0.3,1.4,0.6,2,0.8c1.1,0.5,1.7,0.8,1.7,0.8
			s-0.6-0.2-1.8-0.6c-0.6-0.2-1.3-0.4-2-0.7c-0.8-0.2-1.7-0.6-2.6-1c-0.9-0.4-2-0.8-3-1.3c-1-0.5-2.1-1.1-3.3-1.7
			c-1.1-0.7-2.2-1.4-3.3-2.1c-1.1-0.8-2.2-1.6-3.3-2.4c-1-0.9-2.1-1.8-3.1-2.7c-1-1-1.9-1.9-2.7-2.9c-0.9-0.9-1.6-2-2.3-2.9
			c-0.7-1-1.3-1.9-1.9-2.8c-0.5-0.9-1-1.7-1.4-2.4c-0.4-0.7-0.7-1.4-0.9-2C189.7,153.9,189.5,153.2,189.5,153.2z"/>
	</g>
	
		<ellipse transform="matrix(0.3543 -0.9351 0.9351 0.3543 -29.9943 302.9918)" class="st3" cx="204.4" cy="173.2" rx="2.2" ry="2.2"/>
	
		<ellipse transform="matrix(0.3543 -0.9351 0.9351 0.3543 -26.3663 312.0634)" class="st3" cx="212.8" cy="175.1" rx="2.2" ry="2.2"/>
	<ellipse transform="matrix(0.3543 -0.9351 0.9351 0.3543 -29.52 315.4444)" class="st3" cx="213.7" cy="179.1" rx="2.2" ry="2.2"/>
	
		<ellipse transform="matrix(0.3543 -0.9351 0.9351 0.3543 -25.1548 316.9679)" class="st3" cx="216.9" cy="176.7" rx="2.2" ry="2.2"/>
	
		<ellipse transform="matrix(0.3543 -0.9351 0.9351 0.3543 -27.7313 318.6109)" class="st3" cx="216.8" cy="179.4" rx="1.4" ry="1.4"/>
	
		<ellipse transform="matrix(0.9962 -8.676578e-02 8.676578e-02 0.9962 -13.173 17.3851)" class="st3" cx="193.4" cy="160.2" rx="2.2" ry="2.2"/>
	
		<ellipse transform="matrix(0.9962 -8.676578e-02 8.676578e-02 0.9962 -12.9047 17.1553)" class="st3" cx="190.9" cy="157" rx="2.2" ry="2.2"/>
	
		<ellipse transform="matrix(0.9962 -8.676578e-02 8.676578e-02 0.9962 -13.2232 17.0023)" class="st3" cx="189" cy="160.6" rx="2.2" ry="2.2"/>
	
		<ellipse transform="matrix(0.9962 -8.676578e-02 8.676578e-02 0.9962 -13.0135 16.8995)" class="st3" cx="187.9" cy="158.2" rx="1.4" ry="1.4"/>
	<ellipse transform="matrix(0.3543 -0.9351 0.9351 0.3543 -26.0609 304.2339)" class="st3" cx="207.3" cy="171" rx="1.9" ry="1.9"/>
	
		<ellipse transform="matrix(0.3543 -0.9351 0.9351 0.3543 -26.5346 300.8493)" class="st3" cx="204.6" cy="169.6" rx="1.9" ry="1.9"/>
	
		<ellipse transform="matrix(0.3543 -0.9351 0.9351 0.3543 -29.3048 307.2491)" class="st3" cx="207.8" cy="174.8" rx="1.9" ry="1.9"/>
	<ellipse transform="matrix(0.9744 -0.2249 0.2249 0.9744 -31.8115 48.9603)" class="st3" cx="199" cy="164.1" rx="2.2" ry="2.2"/>
	
		<ellipse transform="matrix(0.9744 -0.2249 0.2249 0.9744 -32.6154 48.7908)" class="st3" cx="197.9" cy="167.6" rx="1.9" ry="1.9"/>
	
		<ellipse transform="matrix(0.9744 -0.2249 0.2249 0.9744 -32.4555 49.4525)" class="st3" cx="200.9" cy="167.2" rx="1.9" ry="1.9"/>
	
		<ellipse transform="matrix(0.9744 -0.2249 0.2249 0.9744 -32.0312 48.1299)" class="st3" cx="195.3" cy="164.7" rx="1.9" ry="1.9"/>
</g>
<g>
	<g>
		<path class="st3" d="M184.6,220.3c0,0-0.3,0.6-0.9,1.6c-0.3,0.5-0.7,1.1-1.2,1.8c-0.5,0.7-1.1,1.4-1.8,2.2
			c-0.7,0.8-1.5,1.6-2.3,2.4c-0.9,0.8-1.8,1.7-2.8,2.4c-1,0.8-2.1,1.6-3.2,2.4c-1.1,0.8-2.3,1.4-3.5,2.2c-1.2,0.6-2.4,1.3-3.7,1.8
			c-1.2,0.5-2.5,1-3.7,1.5c-1.2,0.4-2.4,0.8-3.5,1.1c-1.1,0.3-2.2,0.5-3.2,0.8c-1,0.2-1.9,0.5-2.7,0.6c-0.8,0.1-1.5,0.2-2.1,0.3
			c-1.2,0.2-1.9,0.3-1.9,0.3s0.7-0.2,1.8-0.4c0.6-0.1,1.3-0.3,2.1-0.5c0.8-0.2,1.7-0.5,2.7-0.7c1-0.3,2-0.6,3.1-1
			c1.1-0.4,2.2-0.8,3.4-1.3c1.2-0.5,2.4-1,3.6-1.6c1.2-0.6,2.4-1.2,3.6-1.8c1.1-0.7,2.3-1.3,3.4-2.1c1.1-0.8,2.2-1.4,3.2-2.2
			c1-0.8,2-1.5,2.8-2.3c0.9-0.8,1.7-1.5,2.4-2.2c0.7-0.7,1.4-1.4,1.9-2c0.6-0.6,1-1.2,1.4-1.6C184.2,220.9,184.6,220.3,184.6,220.3z
			"/>
	</g>
	
		<ellipse transform="matrix(0.9826 -0.1857 0.1857 0.9826 -41.1813 35.0206)" class="st3" cx="166.4" cy="237.4" rx="2.2" ry="2.2"/>
	<ellipse transform="matrix(0.9826 -0.1857 0.1857 0.9826 -41.408 33.4335)" class="st3" cx="157.8" cy="237.8" rx="2.2" ry="2.2"/>
	
		<ellipse transform="matrix(0.9826 -0.1857 0.1857 0.9826 -42.1332 33.2109)" class="st3" cx="156.3" cy="241.6" rx="2.2" ry="2.2"/>
	
		<ellipse transform="matrix(0.9826 -0.1857 0.1857 0.9826 -41.6372 32.6369)" class="st3" cx="153.4" cy="238.6" rx="2.2" ry="2.2"/>
	
		<ellipse transform="matrix(0.9826 -0.1857 0.1857 0.9826 -42.1381 32.6142)" class="st3" cx="153.1" cy="241.3" rx="1.4" ry="1.4"/>
	
		<ellipse transform="matrix(0.2593 -0.9658 0.9658 0.2593 -85.8254 341.1472)" class="st3" cx="179.5" cy="226.5" rx="2.2" ry="2.2"/>
	
		<ellipse transform="matrix(0.2593 -0.9658 0.9658 0.2593 -80.9589 342.063)" class="st3" cx="182.5" cy="223.8" rx="2.2" ry="2.2"/>
	
		<ellipse transform="matrix(0.2593 -0.9658 0.9658 0.2593 -83.7584 346.1476)" class="st3" cx="183.8" cy="227.7" rx="2.2" ry="2.2"/>
	
		<ellipse transform="matrix(0.2593 -0.9658 0.9658 0.2593 -80.4928 345.9302)" class="st3" cx="185.3" cy="225.4" rx="1.4" ry="1.4"/>
	<ellipse transform="matrix(0.9826 -0.1857 0.1857 0.9826 -40.7236 34.522)" class="st3" cx="164" cy="234.7" rx="1.9" ry="1.9"/>
	<ellipse transform="matrix(0.9826 -0.1857 0.1857 0.9826 -40.514 35.0421)" class="st3" cx="166.8" cy="233.8" rx="1.9" ry="1.9"/>
	
		<ellipse transform="matrix(0.9826 -0.1857 0.1857 0.9826 -41.4318 34.3587)" class="st3" cx="162.7" cy="238.4" rx="1.9" ry="1.9"/>
	
		<ellipse transform="matrix(0.3915 -0.9202 0.9202 0.3915 -105.6207 299.0443)" class="st3" cx="173.3" cy="229.4" rx="2.2" ry="2.2"/>
	<ellipse transform="matrix(0.3915 -0.9202 0.9202 0.3915 -108.6043 301.715)" class="st3" cx="173.8" cy="233" rx="1.9" ry="1.9"/>
	
		<ellipse transform="matrix(0.3915 -0.9202 0.9202 0.3915 -109.5376 298.5312)" class="st3" cx="170.9" cy="232.1" rx="1.9" ry="1.9"/>
	
		<ellipse transform="matrix(0.3915 -0.9202 0.9202 0.3915 -104.5296 303.0864)" class="st3" cx="176.9" cy="230.6" rx="1.9" ry="1.9"/>
</g>
<g>
	<g>
		<path class="st3" d="M180.8,193.8c0,0-0.3,0.6-0.9,1.6c-0.3,0.5-0.7,1.1-1.2,1.8c-0.5,0.7-1.1,1.4-1.8,2.2
			c-0.7,0.8-1.5,1.6-2.3,2.4c-0.9,0.8-1.8,1.7-2.8,2.4c-1,0.8-2.1,1.6-3.2,2.4c-1.1,0.8-2.3,1.4-3.5,2.2c-1.2,0.6-2.4,1.3-3.7,1.8
			c-1.2,0.5-2.5,1-3.7,1.5c-1.2,0.4-2.4,0.8-3.5,1.1c-1.1,0.3-2.2,0.5-3.2,0.8c-1,0.2-1.9,0.5-2.7,0.6c-0.8,0.1-1.5,0.2-2.1,0.3
			c-1.2,0.2-1.9,0.3-1.9,0.3s0.7-0.2,1.8-0.4c0.6-0.1,1.3-0.3,2.1-0.5c0.8-0.2,1.7-0.5,2.7-0.7c1-0.3,2-0.6,3.1-1
			c1.1-0.4,2.2-0.8,3.4-1.3c1.2-0.5,2.4-1,3.6-1.6c1.2-0.6,2.4-1.2,3.6-1.8c1.1-0.7,2.3-1.3,3.4-2.1c1.1-0.8,2.2-1.4,3.2-2.2
			c1-0.8,2-1.5,2.8-2.3c0.9-0.8,1.7-1.5,2.4-2.2c0.7-0.7,1.4-1.4,1.9-2c0.6-0.6,1-1.2,1.4-1.6C180.4,194.4,180.8,193.8,180.8,193.8z
			"/>
	</g>
	
		<ellipse transform="matrix(0.9826 -0.1857 0.1857 0.9826 -36.3222 33.8668)" class="st3" cx="162.7" cy="210.9" rx="2.2" ry="2.2"/>
	
		<ellipse transform="matrix(0.9826 -0.1857 0.1857 0.9826 -36.5488 32.2798)" class="st3" cx="154.1" cy="211.3" rx="2.2" ry="2.2"/>
	<ellipse transform="matrix(0.9826 -0.1857 0.1857 0.9826 -37.2741 32.0571)" class="st3" cx="152.5" cy="215" rx="2.2" ry="2.2"/>
	<ellipse transform="matrix(0.9826 -0.1857 0.1857 0.9826 -36.778 31.4831)" class="st3" cx="149.7" cy="212.1" rx="2.2" ry="2.2"/>
	
		<ellipse transform="matrix(0.9826 -0.1857 0.1857 0.9826 -37.2789 31.4604)" class="st3" cx="149.3" cy="214.8" rx="1.4" ry="1.4"/>
	<ellipse transform="matrix(0.2593 -0.9658 0.9658 0.2593 -62.974 317.8987)" class="st3" cx="175.8" cy="200" rx="2.2" ry="2.2"/>
	
		<ellipse transform="matrix(0.2593 -0.9658 0.9658 0.2593 -58.1075 318.8145)" class="st3" cx="178.8" cy="197.3" rx="2.2" ry="2.2"/>
	
		<ellipse transform="matrix(0.2593 -0.9658 0.9658 0.2593 -60.907 322.8991)" class="st3" cx="180.1" cy="201.2" rx="2.2" ry="2.2"/>
	
		<ellipse transform="matrix(0.2593 -0.9658 0.9658 0.2593 -57.6414 322.6817)" class="st3" cx="181.5" cy="198.9" rx="1.4" ry="1.4"/>
	
		<ellipse transform="matrix(0.9826 -0.1857 0.1857 0.9826 -35.8645 33.3682)" class="st3" cx="160.2" cy="208.2" rx="1.9" ry="1.9"/>
	
		<ellipse transform="matrix(0.9826 -0.1857 0.1857 0.9826 -35.6548 33.8883)" class="st3" cx="163.1" cy="207.3" rx="1.9" ry="1.9"/>
	<ellipse transform="matrix(0.9826 -0.1857 0.1857 0.9826 -36.5726 33.205)" class="st3" cx="159" cy="211.9" rx="1.9" ry="1.9"/>
	
		<ellipse transform="matrix(0.3915 -0.9202 0.9202 0.3915 -83.4858 279.4721)" class="st3" cx="169.6" cy="202.9" rx="2.2" ry="2.2"/>
	
		<ellipse transform="matrix(0.3915 -0.9202 0.9202 0.3915 -86.4694 282.1427)" class="st3" cx="170.1" cy="206.4" rx="1.9" ry="1.9"/>
	
		<ellipse transform="matrix(0.3915 -0.9202 0.9202 0.3915 -87.4028 278.959)" class="st3" cx="167.2" cy="205.6" rx="1.9" ry="1.9"/>
	
		<ellipse transform="matrix(0.3915 -0.9202 0.9202 0.3915 -82.3947 283.5141)" class="st3" cx="173.2" cy="204.1" rx="1.9" ry="1.9"/>
</g>
</svg>
