<?xml version="1.0" encoding="utf-8"?>
<!-- Generator: Adobe Illustrator 20.0.0, SVG Export Plug-In . SVG Version: 6.00 Build 0)  -->
<svg version="1.1" id="Layer_1" xmlns="http://www.w3.org/2000/svg" xmlns:xlink="http://www.w3.org/1999/xlink" x="0px" y="0px"
	 viewBox="0 0 300 250" style="enable-background:new 0 0 300 250;" xml:space="preserve">
<style type="text/css">
	.st0{fill:#FFFFFF;}
</style>
<g>
	<path class="st0" d="M76.4,61.3l0.7-1.1c0.3-0.3,0.6-0.3,0.8,0c0.4,0.5,0.6,1.1,0.5,1.9s-0.4,1.5-1,2c-0.6,0.6-1.3,0.7-2.2,0.5
		c-1.3-0.3-3.1-1.4-5.5-3c-1.2-0.8-2.2-1.4-3.1-1.8c-0.3,0.6-0.8,1.2-1.3,1.7c-0.5,0.5-1.1,0.9-1.7,1c-0.6,0.2-1.1,0.1-1.4-0.2
		c-0.8-0.9-0.5-1.9,0.8-3.2c0.6-0.6,1.6-1,2.8-1.1c0.3-1.9-0.3-3.6-1.7-5.1c-0.9-0.9-1.8-1.5-2.8-1.9c-1-0.4-2-0.5-2.9-0.3
		c-1.8,0.3-3.4,1.1-4.8,2.4c0.3,0.4,0.9,1.1,1.6,2.1c1.5,2,2.8,3.5,3.7,4.5l4,4.3c3.1,3.3,4.1,5.5,2.8,6.8c-0.8,0.8-1.6,0.8-2.2,0.1
		c-0.2-0.2-0.3-0.6-0.5-1.3s-0.5-1.3-0.9-2c-0.4-0.7-1.9-2.4-4.4-5.3c-2.5-2.9-4.4-5.2-5.7-7c-0.7,1.2-1.1,2.3-1.1,3.5
		c-0.1,1.1,0.3,2.1,1,2.8c0.4,0.4,0.6,0.9,0.7,1.3c0.1,0.5-0.1,0.8-0.4,1.1c-0.5,0.5-1,0.5-1.6-0.1c-1.2-1.3-1.7-2.8-1.5-4.6
		c0.2-1.8,0.9-3.6,2.1-5.4c-0.8-1.5-0.9-2.6-0.2-3.3c0.3-0.2,0.7-0.1,1.2,0.5c0.1,0.1,0.3,0.4,0.6,0.7c0.2-0.2,0.5-0.6,1.1-1.1
		s1.3-1.1,2.1-1.6s1.8-0.9,2.9-1.2c1.1-0.3,2.2-0.3,3.4,0.1c1.2,0.4,2.3,1.1,3.3,2.1c1,1,1.7,2.3,2,3.7c0.3,1.4,0.3,2.8,0,4.2
		c1.3,0.2,2.7,0.6,4.1,1.4c1.4,0.8,2.5,1.3,3.4,1.6C75.7,61.4,76.2,61.5,76.4,61.3z M63,61c0.1,0.1,0.4,0.1,0.7,0
		c0.4-0.1,0.7-0.3,1-0.6c0.3-0.3,0.5-0.6,0.6-0.9c-0.8-0.1-1.4,0.1-1.8,0.6C63,60.6,62.8,60.9,63,61z"/>
	<path class="st0" d="M80.6,46.5c0.6-0.8,1-1.5,1.2-1.9c0.2-0.4,0.3-0.7,0.4-1l0.2-0.5c0.1-0.1,0.1-0.2,0.2-0.3
		c0.2-0.1,0.3-0.1,0.4,0.1s0.1,0.7-0.2,1.6c-0.3,0.9-0.8,1.9-1.4,2.9c1.1,1.8,1.6,3.6,1.4,5.3c-0.2,1.7-1.1,3.2-2.8,4.5
		c-1.2,0.9-2.6,1.1-4,0.6c-1.4-0.5-2.6-1.4-3.5-2.8c-1-1.3-1.5-2.9-1.6-4.7c-0.1-1.8,0.5-3.1,1.8-4c0.3-0.8,0.8-1.5,1.6-2.1
		c0.8-0.6,1.8-0.7,3.1-0.3S79.6,45.2,80.6,46.5z M79.7,49.5l-1,0.9c-0.9,0.7-1.9,1-3,0.9c-1-0.1-1.8-0.5-2.3-1.1
		c-0.5-0.7-0.8-1.3-0.9-2c-0.4,1.3,0.2,3,1.6,5c0.7,1,1.6,1.7,2.6,2.3c1,0.6,2,0.6,2.9-0.1s1.3-1.5,1.2-2.6
		C80.8,51.7,80.4,50.6,79.7,49.5z M74.2,45.8c-0.3,0.2-0.5,0.6-0.4,1c0,0.4,0.2,0.8,0.4,1.1c0.5,0.7,1.2,1.2,2.1,1.3
		s1.6-0.1,2.3-0.6l0.4-0.3c-0.8-1-1.6-1.7-2.5-2.3C75.6,45.4,74.8,45.3,74.2,45.8z"/>
	<path class="st0" d="M95.6,47.2c-0.8,0.5-1.6,0.7-2.2,0.6c-0.2-0.1-0.5-0.4-0.9-1c-0.4-0.6-0.8-1.5-1.4-2.5
		c0.2,1.7,0.3,3.1,0.1,4.1s-0.7,1.7-1.5,2.2c-0.9,0.5-1.9,0.5-3,0.1c-1.1-0.4-2.2-1.5-3.2-3.3c-1-1.7-1.4-3.6-1.2-5.5
		c0.2-1.9,1.1-3.3,2.7-4.2c0.7-0.4,1.7-0.4,3.1,0c0-0.3,0.2-0.8,0.4-1.4c0.3-0.6,0.5-1,0.8-1.2s0.7,0.1,1.2,1
		c0.1,0.2,0.3,0.7,0.5,1.4c0.2,0.7,0.4,1.2,0.4,1.6c0.1,0.6,1,2.4,2.7,5.5c0.3,0.6,0.6,0.8,0.7,0.8c0.4-0.2,0.6-1,0.7-2.2
		c0.1-1.3,0.1-2.8,0-4.6c-0.2-1.8-0.2-2.7,0-2.8c0.1-0.1,0.3,0,0.4,0.1c0.3,0.6,0.6,1.7,0.7,3.4C97.2,43.9,96.8,46.5,95.6,47.2z
		 M85.7,39c-0.6,0.3-1,1.2-1.2,2.4c-0.2,1.3,0.1,2.5,0.8,3.7c0.7,1.2,1.4,2.1,2.2,2.7s1.5,0.7,2.1,0.4c0.7-0.4,0.7-2.8,0.1-7.2
		c-0.1-0.2-0.2-0.5-0.4-0.9s-0.4-0.8-0.5-1c-0.4-0.2-0.9-0.4-1.6-0.4C86.6,38.7,86.1,38.8,85.7,39z"/>
	<path class="st0" d="M98.8,32.7l-0.2-0.5c-0.2-0.4-0.5-0.5-1-0.3s-0.8,0.7-0.9,1.5c-0.2,0.8-0.1,1.4,0,1.8c0.2,0.4,0.3,0.7,0.5,0.9
		c0.1,0.2,0.3,0.4,0.4,0.5c0.1,0.1,0.3,0.3,0.5,0.4c0.2,0.1,0.4,0.2,0.5,0.3l0.6,0.3c0.3,0.2,0.4,0.2,0.5,0.3
		c0.7-1.5,1.6-3.2,2.7-5.2c0.1-0.1,0.1-0.2,0.3-0.2c0.2-0.1,0.4,0,0.5,0.2c0.1,0.2,0.1,0.5,0,0.7c-1,1.6-1.9,3.2-2.7,4.9
		c0.8,0.5,1.4,1.2,1.8,2c0.4,0.9,0.4,1.7,0,2.7s-1.1,1.6-2.1,2.1s-1.8,0.2-2.2-0.8c-0.3-0.7-0.1-2.1,0.8-4.3
		c-0.2-0.1-0.5-0.2-0.9-0.4s-0.8-0.3-1-0.4c-0.2-0.1-0.5-0.3-0.9-0.5c-0.6-0.4-1.1-0.9-1.4-1.6c-0.6-1.3-0.7-2.6-0.2-3.8
		c0.5-1.2,1.2-2.1,2.2-2.5c0.6-0.3,1.2-0.3,1.7-0.2c0.5,0.2,0.8,0.4,1,0.8c0.4,0.8,0.3,1.2,0,1.4C99,32.9,98.9,32.9,98.8,32.7z
		 M99.7,40.4c-0.5,1.3-0.6,2.3-0.4,2.8c0.3,0.6,0.7,0.7,1.2,0.4c0.3-0.2,0.6-0.4,0.7-0.8C101.4,42,100.9,41.2,99.7,40.4z"/>
	<path class="st0" d="M110.9,33.6c-0.3,4.6-1.1,7.2-2.4,7.7c-1.3,0.5-2.1,0.6-2.4,0.4c-0.3-0.2-0.8-1.2-1.5-2.9s-1.4-4.2-2.4-7.5
		c-1.3,0.2-2.1,0-2.4-0.7c-0.1-0.4,0-0.7,0.5-0.8c0.5-0.2,1-0.3,1.4-0.2c-0.4-1.8-0.8-3.5-1.2-5.4c-0.1-0.5,0-1,0.2-1.5
		c0.2-0.5,0.5-0.9,0.9-1c0.3-0.1,0.6,0.3,1,1.3c0.2,0.4,0.8,2.5,1.9,6.3c0.6-0.4,1.2-0.9,1.8-1.5c0.6-0.6,1-1,1.1-1
		c0.4-0.2,0.7-0.1,0.8,0.1c0.1,0.2-0.2,0.7-0.9,1.5c-0.7,0.7-1.6,1.4-2.5,2c1,3.5,1.9,6.1,2.6,7.9c0.4,0.9,0.7,1.3,1,1.2
		c0.4-0.2,0.8-0.9,1.1-2.1s0.5-2.7,0.6-4.5c0.1-1.8,0.2-2.7,0.4-2.8s0.3,0,0.3,0.2C111,30.8,111,31.9,110.9,33.6z"/>
	<path class="st0" d="M116.3,38.5c-1.3,0.4-2.5,0.2-3.6-0.6s-1.8-1.8-2.2-3.1c-0.8-2.6-0.8-4.7-0.1-6.4c0.7-1.7,1.9-2.8,3.7-3.3
		c0.8-0.2,1.5-0.2,2.2,0.1c0.7,0.3,1.1,0.8,1.3,1.6c0.4,1.4,0.2,2.8-0.7,4.1c-0.9,1.3-2.2,2.3-4,2.9c0.4,0.9,0.9,1.6,1.7,2.1
		s1.5,0.7,2.2,0.5c0.7-0.2,1.3-0.6,1.8-1.1c0.5-0.5,0.9-1.1,1.1-1.9c0.6-1.6,1-3.4,1.2-5.2c0.1-0.5,0.1-0.8,0.2-1.1
		c0-0.2,0.1-0.4,0.3-0.4c0.1,0,0.2,0,0.3,0.2c0.4,1.2,0.2,3.2-0.6,6C120.2,36,118.7,37.8,116.3,38.5z M112.6,32.9
		c1.3-0.7,2.2-1.4,2.7-2.3c0.5-0.9,0.5-1.8,0.2-2.9c-0.3-1.1-0.8-1.5-1.5-1.3c-0.8,0.3-1.4,1-1.6,2.4
		C112.1,30.2,112.2,31.5,112.6,32.9z"/>
	<path class="st0" d="M132.4,34.7c-0.8,0.2-1.5,0.1-2.1-0.2c-0.2-0.2-0.4-0.7-0.6-1.5c-0.2-0.8-0.3-1.9-0.5-3.3
		c-0.3,1.9-0.7,3.4-1.2,4.4c-0.5,1-1.3,1.7-2.3,1.9c-1,0.2-2-0.1-2.9-0.8c-0.9-0.8-1.5-2.1-1.9-4.1s-0.2-3.8,0.7-5.6
		c0.8-1.7,2.1-2.8,3.9-3.1c0.9-0.2,1.9,0,3,0.5c-0.5-4.8-0.7-7.6-0.5-8.3c0.1-0.3,0.4-0.8,0.8-1.4c0.5-0.6,0.9-1,1.2-1
		c0.4-0.1,0.7,0.5,0.9,1.6c0.3,1.3,0.4,2.5,0.3,3.6c-0.2,2.6-0.3,4.3-0.3,5c0.2,2.7,0.6,5.8,1.3,9.4c0.1,0.7,0.3,1,0.4,0.9
		c0.4-0.1,0.9-0.7,1.5-1.9c0.5-1.1,1-2.6,1.4-4.3c0.4-1.7,0.7-2.6,0.9-2.7c0.2,0,0.3,0.1,0.3,0.2c0.1,0.7,0,1.8-0.4,3.5
		C135,32,133.8,34.4,132.4,34.7z M125.5,23.7c-0.7,0.1-1.2,0.8-1.7,2s-0.6,2.5-0.3,3.8c0.3,1.4,0.7,2.5,1.2,3.3
		c0.5,0.8,1.1,1.2,1.6,1.1c1.1-0.2,1.9-2.7,2.5-7.3c-0.1-1.4-0.2-2.2-0.3-2.4C127.7,23.6,126.7,23.5,125.5,23.7z"/>
	<path class="st0" d="M137.6,34.1c-0.4-0.2-0.6-0.6-0.6-1.1c-0.1-0.5,0.1-1,0.6-1.4c0.5-0.4,0.9-0.6,1.3-0.6c0.4,0,0.8,0,1.1,0.2
		c0.3,0.2,0.5,0.5,0.5,0.8c0.2,1.4-0.4,2.1-1.8,2.3C138.3,34.4,137.9,34.3,137.6,34.1z"/>
	<path class="st0" d="M143.9,33.5c-0.4-0.2-0.6-0.6-0.6-1.1c0-0.5,0.2-1,0.7-1.3c0.5-0.3,0.9-0.5,1.4-0.6c0.4,0,0.8,0.1,1.1,0.3
		c0.3,0.2,0.5,0.5,0.5,0.9c0.1,1.4-0.5,2.1-1.9,2.2C144.7,33.8,144.3,33.7,143.9,33.5z"/>
	<path class="st0" d="M150.3,33.1c-0.4-0.2-0.5-0.6-0.5-1.2c0-0.5,0.2-1,0.7-1.3c0.5-0.3,1-0.5,1.4-0.5s0.8,0.1,1.1,0.3
		c0.3,0.2,0.4,0.5,0.4,0.9c0,1.4-0.6,2.1-2,2.1C151,33.5,150.7,33.4,150.3,33.1z"/>
	<path class="st0" d="M157.3,33c-0.4-0.2-0.5-0.6-0.5-1.2s0.2-1,0.7-1.3c0.5-0.3,0.9-0.5,1.4-0.5c0.4,0,0.8,0.1,1.1,0.3
		c0.3,0.2,0.4,0.5,0.4,0.9c0,1.4-0.6,2.1-2,2.1C158,33.4,157.6,33.3,157.3,33z"/>
</g>
</svg>
