<?xml version="1.0" encoding="utf-8"?>
<!-- Generator: Adobe Illustrator 20.0.0, SVG Export Plug-In . SVG Version: 6.00 Build 0)  -->
<svg version="1.1" id="Layer_1" xmlns="http://www.w3.org/2000/svg" xmlns:xlink="http://www.w3.org/1999/xlink" x="0px" y="0px"
	 viewBox="0 0 300 250" style="enable-background:new 0 0 300 250;" xml:space="preserve">
<style type="text/css">
	.st0{fill:#FFFFFF;}
	.st1{fill:none;}
</style>
<g>
	<path class="st0" d="M83.3,53.8l0.6-1.1c0.3-0.3,0.5-0.3,0.8,0c0.4,0.4,0.6,1.1,0.6,1.9c0,0.8-0.3,1.5-0.9,2
		c-0.5,0.6-1.2,0.8-2.1,0.6c-1.2-0.3-3.1-1.1-5.6-2.6c-1.2-0.7-2.2-1.2-3.1-1.6c-0.3,0.6-0.7,1.2-1.2,1.8c-0.5,0.5-1,0.9-1.6,1.1
		c-0.6,0.2-1,0.2-1.4-0.1c-0.8-0.8-0.6-1.8,0.6-3.1c0.6-0.6,1.5-1,2.7-1.3c0.2-1.9-0.5-3.5-2-4.9c-0.9-0.8-1.8-1.4-2.8-1.7
		c-1-0.3-2-0.3-2.9-0.1c-1.8,0.4-3.3,1.3-4.5,2.6c0.4,0.4,0.9,1,1.7,1.9c1.6,1.8,2.9,3.2,3.9,4.1l4.2,4c3.3,3,4.3,5.1,3.1,6.4
		c-0.8,0.8-1.5,0.9-2.2,0.3c-0.2-0.2-0.4-0.6-0.6-1.2c-0.2-0.6-0.5-1.3-1-1.9c-0.5-0.6-2-2.3-4.7-4.9c-2.6-2.6-4.6-4.8-6-6.4
		c-0.6,1.2-0.9,2.3-0.9,3.5c0,1.1,0.4,2,1.1,2.7c0.4,0.4,0.7,0.8,0.8,1.2c0.1,0.4,0,0.8-0.3,1.1c-0.5,0.5-1,0.5-1.5,0
		c-1.3-1.1-1.8-2.6-1.7-4.4c0.1-1.8,0.7-3.5,1.7-5.4c-0.9-1.5-1-2.5-0.4-3.1c0.2-0.3,0.6-0.1,1.2,0.4c0.1,0.1,0.3,0.3,0.6,0.7
		c0.1-0.2,0.5-0.6,1-1.2c0.5-0.6,1.2-1.1,2-1.7c0.8-0.6,1.7-1,2.7-1.4c1-0.4,2.1-0.4,3.3-0.1c1.2,0.3,2.3,0.9,3.3,1.8
		c1,0.9,1.8,2.1,2.2,3.5c0.4,1.4,0.5,2.7,0.2,4.1c1.3,0.1,2.7,0.4,4.1,1.1c1.4,0.6,2.5,1.1,3.4,1.3C82.6,54,83.1,54,83.3,53.8z
		 M70.2,54.4c0.1,0.1,0.4,0.1,0.7,0c0.3-0.2,0.6-0.4,0.9-0.6c0.3-0.3,0.4-0.6,0.6-0.9c-0.7,0-1.3,0.2-1.7,0.7
		C70.2,54,70,54.3,70.2,54.4z"/>
	<path class="st0" d="M86.6,39.4c0.6-0.8,0.9-1.5,1.1-1.9c0.2-0.4,0.3-0.7,0.3-0.9l0.2-0.5c0.1-0.1,0.1-0.2,0.2-0.3
		c0.2-0.1,0.3-0.1,0.4,0.1c0.1,0.2,0.1,0.7-0.2,1.6c-0.3,0.9-0.7,1.9-1.3,2.9c1.1,1.7,1.7,3.4,1.6,5.1c-0.1,1.7-0.9,3.2-2.6,4.4
		c-1.2,0.9-2.5,1.2-3.8,0.7c-1.4-0.4-2.6-1.3-3.6-2.6c-1-1.3-1.6-2.8-1.7-4.5c-0.1-1.7,0.4-3,1.6-4c0.2-0.8,0.7-1.5,1.4-2.1
		c0.7-0.6,1.7-0.7,3-0.4C84.4,37.4,85.6,38.1,86.6,39.4z M85.9,42.3l-1,0.9c-0.9,0.7-1.8,1-2.8,1c-1,0-1.8-0.4-2.3-1
		c-0.5-0.6-0.8-1.3-1-1.9c-0.3,1.3,0.3,2.9,1.8,4.8c0.7,0.9,1.6,1.6,2.6,2.2c1,0.5,2,0.5,2.8-0.2c0.8-0.6,1.2-1.5,1.1-2.6
		C87,44.4,86.6,43.4,85.9,42.3z M80.4,39c-0.3,0.2-0.4,0.6-0.4,1s0.2,0.8,0.5,1.1c0.6,0.7,1.3,1.1,2.1,1.1c0.8,0.1,1.6-0.2,2.2-0.7
		l0.3-0.3c-0.8-0.9-1.6-1.6-2.5-2.2C81.7,38.5,81,38.5,80.4,39z"/>
	<path class="st0" d="M101.3,39.6c-0.8,0.5-1.5,0.7-2.1,0.6c-0.2-0.1-0.5-0.4-0.9-1c-0.4-0.6-0.8-1.4-1.4-2.4c0.3,1.7,0.3,3,0.2,4
		c-0.1,1-0.6,1.7-1.4,2.2c-0.8,0.5-1.8,0.6-2.9,0.1c-1.1-0.4-2.1-1.4-3.2-3.1c-1-1.7-1.4-3.4-1.3-5.3c0.2-1.9,1-3.3,2.6-4.2
		c0.7-0.4,1.7-0.4,3,0c0-0.3,0.2-0.8,0.4-1.4c0.2-0.6,0.5-1,0.8-1.1c0.3-0.2,0.7,0.1,1.2,0.9c0.1,0.2,0.3,0.6,0.6,1.3
		c0.2,0.7,0.4,1.2,0.4,1.5c0.1,0.6,1,2.3,2.8,5.2c0.3,0.6,0.6,0.8,0.7,0.7c0.3-0.2,0.6-1,0.7-2.2c0.1-1.2,0.1-2.7-0.1-4.4
		c-0.2-1.7-0.2-2.6-0.1-2.7c0.1-0.1,0.3,0,0.4,0.1c0.4,0.6,0.6,1.7,0.8,3.3C102.7,36.3,102.4,38.9,101.3,39.6z M91.5,31.9
		c-0.6,0.4-0.9,1.2-1.1,2.4c-0.1,1.3,0.2,2.5,0.9,3.6c0.7,1.2,1.5,2,2.2,2.6c0.8,0.5,1.5,0.6,2,0.3c0.7-0.4,0.7-2.7-0.1-7
		c-0.1-0.2-0.2-0.5-0.4-0.9c-0.2-0.4-0.4-0.7-0.5-1c-0.4-0.2-0.9-0.3-1.6-0.4C92.3,31.6,91.8,31.7,91.5,31.9z"/>
	<path class="st0" d="M104.1,25.5l-0.2-0.5c-0.2-0.4-0.5-0.5-1-0.3c-0.4,0.2-0.7,0.7-0.9,1.5c-0.1,0.8-0.1,1.4,0.1,1.7
		c0.2,0.4,0.3,0.7,0.5,0.9c0.1,0.2,0.3,0.4,0.4,0.5c0.1,0.1,0.3,0.2,0.5,0.4c0.2,0.1,0.4,0.2,0.5,0.3l0.6,0.3
		c0.3,0.1,0.4,0.2,0.5,0.3c0.7-1.5,1.6-3.2,2.6-5.1c0.1-0.1,0.1-0.2,0.3-0.2c0.2-0.1,0.4,0,0.5,0.2c0.1,0.2,0.1,0.5,0,0.7
		c-1,1.6-1.8,3.2-2.6,4.8c0.8,0.5,1.4,1.1,1.8,2c0.4,0.8,0.4,1.7,0.1,2.6s-1,1.6-2,2c-1,0.5-1.7,0.2-2.2-0.7
		c-0.3-0.7-0.1-2.1,0.7-4.2c-0.2-0.1-0.5-0.2-0.9-0.4c-0.4-0.2-0.8-0.3-1-0.4c-0.2-0.1-0.5-0.3-0.8-0.4c-0.6-0.4-1.1-0.9-1.4-1.5
		c-0.6-1.3-0.7-2.5-0.2-3.7c0.5-1.2,1.2-2,2.1-2.5c0.6-0.3,1.1-0.3,1.6-0.2c0.5,0.2,0.8,0.4,1,0.7c0.4,0.7,0.4,1.2,0,1.4
		C104.4,25.7,104.2,25.7,104.1,25.5z M105.1,33c-0.5,1.3-0.6,2.2-0.3,2.7c0.3,0.5,0.7,0.7,1.2,0.4c0.3-0.2,0.5-0.4,0.6-0.8
		C106.8,34.5,106.3,33.7,105.1,33z"/>
	<path class="st0" d="M116,26.3c-0.3,4.5-1.1,7-2.3,7.5c-1.2,0.5-2,0.6-2.3,0.4c-0.3-0.2-0.8-1.1-1.5-2.8c-0.6-1.6-1.4-4.1-2.3-7.3
		c-1.2,0.2-2,0-2.3-0.7c-0.1-0.4,0-0.6,0.5-0.8c0.5-0.2,0.9-0.3,1.4-0.2c-0.4-1.7-0.8-3.4-1.2-5.2c-0.1-0.5,0-0.9,0.2-1.5
		c0.2-0.5,0.5-0.9,0.8-1c0.3-0.1,0.6,0.3,1,1.2c0.2,0.4,0.8,2.5,1.9,6.1c0.6-0.4,1.1-0.8,1.7-1.5c0.6-0.6,1-1,1.1-1
		c0.4-0.2,0.7-0.1,0.8,0.1c0.1,0.2-0.2,0.7-0.9,1.4c-0.7,0.7-1.5,1.4-2.4,2c1,3.4,1.9,6,2.5,7.6c0.4,0.9,0.7,1.3,0.9,1.2
		c0.4-0.2,0.8-0.9,1.1-2.1s0.5-2.7,0.6-4.4c0.1-1.7,0.2-2.6,0.3-2.7c0.1-0.1,0.3,0,0.3,0.2C116,23.5,116.1,24.6,116,26.3z"/>
	<path class="st0" d="M121.3,31.1c-1.3,0.4-2.5,0.2-3.5-0.5c-1.1-0.8-1.8-1.8-2.2-3c-0.8-2.5-0.8-4.6-0.1-6.2
		c0.7-1.6,1.9-2.7,3.6-3.2c0.8-0.2,1.5-0.2,2.1,0.1c0.6,0.3,1.1,0.8,1.3,1.5c0.4,1.4,0.2,2.7-0.7,4c-0.9,1.3-2.2,2.2-3.9,2.8
		c0.4,0.9,0.9,1.6,1.6,2.1c0.7,0.5,1.4,0.7,2.1,0.4c0.7-0.2,1.3-0.6,1.7-1.1c0.5-0.5,0.8-1.1,1.1-1.9c0.6-1.6,1-3.3,1.2-5.1
		c0.1-0.5,0.1-0.8,0.2-1c0-0.2,0.1-0.3,0.3-0.4c0.1,0,0.2,0,0.3,0.2c0.3,1.2,0.2,3.1-0.6,5.9C125.1,28.6,123.5,30.4,121.3,31.1z
		 M117.6,25.6c1.3-0.6,2.2-1.4,2.6-2.2c0.4-0.8,0.5-1.8,0.2-2.8c-0.3-1-0.8-1.5-1.5-1.3c-0.8,0.2-1.3,1-1.5,2.3
		C117.2,22.9,117.3,24.2,117.6,25.6z"/>
	<path class="st0" d="M136.9,27.5c-0.8,0.1-1.5,0.1-2-0.2c-0.2-0.2-0.4-0.6-0.6-1.5c-0.1-0.8-0.3-1.9-0.5-3.2
		c-0.3,1.8-0.8,3.3-1.3,4.3c-0.5,1-1.3,1.6-2.3,1.8c-1,0.2-2-0.1-2.8-0.9c-0.9-0.8-1.5-2.1-1.8-4c-0.3-1.9-0.1-3.7,0.7-5.4
		c0.8-1.7,2.1-2.7,3.9-3c0.9-0.2,1.8,0,2.9,0.5c-0.4-4.7-0.6-7.4-0.4-8.1c0.1-0.3,0.4-0.7,0.8-1.3c0.4-0.6,0.9-0.9,1.2-1
		c0.4-0.1,0.6,0.5,0.8,1.6c0.2,1.3,0.3,2.5,0.2,3.5c-0.2,2.6-0.3,4.2-0.4,4.9c0.1,2.6,0.5,5.7,1.1,9.2c0.1,0.6,0.2,1,0.4,0.9
		c0.4-0.1,0.9-0.7,1.5-1.8c0.5-1.1,1-2.5,1.5-4.2c0.4-1.7,0.7-2.5,0.9-2.6c0.2,0,0.3,0.1,0.3,0.2c0.1,0.7,0,1.8-0.5,3.4
		C139.4,24.9,138.2,27.2,136.9,27.5z M130.3,16.7c-0.6,0.1-1.2,0.7-1.7,1.9c-0.5,1.1-0.6,2.4-0.3,3.7c0.2,1.3,0.6,2.4,1.1,3.2
		c0.5,0.8,1,1.1,1.5,1.1c1.1-0.2,1.9-2.6,2.5-7.1c-0.1-1.3-0.2-2.1-0.2-2.4C132.4,16.6,131.5,16.5,130.3,16.7z"/>
	<path class="st0" d="M141.9,27c-0.4-0.2-0.6-0.6-0.6-1.1c0-0.5,0.2-1,0.6-1.3c0.5-0.3,0.9-0.5,1.3-0.6c0.4,0,0.8,0.1,1.1,0.3
		c0.3,0.2,0.5,0.5,0.5,0.8c0.1,1.3-0.5,2-1.8,2.2C142.6,27.3,142.2,27.2,141.9,27z"/>
	<path class="st0" d="M148,26.6c-0.3-0.2-0.5-0.6-0.5-1.1c0-0.5,0.2-1,0.7-1.3c0.5-0.3,0.9-0.5,1.3-0.5c0.4,0,0.8,0.1,1,0.3
		c0.3,0.2,0.4,0.5,0.4,0.8c0,1.3-0.6,2-1.9,2C148.7,27,148.4,26.9,148,26.6z"/>
	<path class="st0" d="M154.2,26.6c-0.3-0.2-0.5-0.6-0.5-1.2c0-0.5,0.3-0.9,0.8-1.2c0.5-0.3,1-0.4,1.4-0.4c0.4,0,0.8,0.1,1,0.4
		c0.3,0.2,0.4,0.5,0.4,0.9c-0.1,1.3-0.7,2-2,1.9C154.8,27,154.5,26.8,154.2,26.6z"/>
	<path class="st0" d="M160.3,26.9c-0.3-0.3-0.4-0.7-0.4-1.2c0.1-0.5,0.3-0.9,0.9-1.2s1-0.4,1.4-0.3c0.4,0,0.7,0.2,1,0.4
		c0.3,0.3,0.4,0.6,0.3,0.9c-0.1,1.3-0.9,1.9-2.2,1.8C161,27.4,160.6,27.2,160.3,26.9z"/>
</g>
<circle class="st1" cx="151.2" cy="129.1" r="100.8"/>
</svg>
