<?xml version="1.0" encoding="utf-8"?>
<!-- Generator: Adobe Illustrator 20.0.0, SVG Export Plug-In . SVG Version: 6.00 Build 0)  -->
<svg version="1.1" id="Layer_1" xmlns="http://www.w3.org/2000/svg" xmlns:xlink="http://www.w3.org/1999/xlink" x="0px" y="0px"
	 viewBox="0 0 300 250" style="enable-background:new 0 0 300 250;" xml:space="preserve">
<style type="text/css">
	.st0{fill:#FFFFFF;}
</style>
<g>
	<path class="st0" d="M99.6,26c0.2,0,0.4,0.1,0.7,0.2c0.3,0.1,0.5,0.2,0.7,0.4c0.2,0.2,0.3,0.3,0.3,0.5c0,0.2-0.1,0.3-0.2,0.3
		c-0.2,0-0.4-0.1-0.6-0.2c-0.2-0.1-0.4-0.2-0.6-0.2c-0.6,0-1.1,0.2-1.5,0.6c-0.5,0.4-0.8,1-1,1.6c-0.2,0.6-0.3,1.2-0.3,1.7
		c0,1,0.1,2,0.4,3.1c0.3,1.1,0.6,2,1,2.9c0.4,0.9,0.9,1.8,1.3,2.8l0.4,0.7c0.5,1.1,0.9,1.9,1.2,2.7c0.3,0.7,0.5,1.5,0.8,2.4
		c0.3,1.1,0.4,2.3,0.4,3.4c0,0.7-0.1,1.5-0.3,2.3c-0.2,0.8-0.5,1.5-0.8,2.2c-0.4,0.7-0.9,1.3-1.5,1.8c-0.6,0.5-1.3,0.7-2.1,0.7
		c-0.5,0-0.8,0-1,0c-0.2,0-0.5-0.1-0.8-0.3c-0.3-0.1-0.5-0.4-0.7-0.6c0-0.3,0.1-0.5,0.4-0.5c0.3,0,0.6,0.1,1.1,0.3
		c0.4,0.2,0.8,0.3,1,0.3c0.6,0,1.1-0.2,1.5-0.7c0.5-0.5,0.8-1.1,1.1-1.8c0.2-0.7,0.4-1.4,0.6-2c0.1-0.7,0.2-1.3,0.2-1.8
		c0-1.2-0.2-2.5-0.5-3.8c-0.3-1.3-0.8-2.5-1.4-3.6l-0.5-1c-0.6-1.2-1.1-2.1-1.5-3c-0.4-0.8-0.7-1.7-1-2.6c-0.4-1.2-0.6-2.4-0.6-3.7
		c0-0.8,0.1-1.6,0.4-2.4c0.3-0.8,0.7-1.4,1.3-2C98.1,26.3,98.8,26,99.6,26z"/>
	<path class="st0" d="M112.4,55l-0.4-0.3l0-1.4l0-1.4l0-0.7l0-0.7c0-0.3,0-0.6-0.1-0.9c0-2.1-0.1-5.2-0.4-9.4
		c-0.3-4.4-0.4-7.4-0.4-9.1c-1.6,0-2.7,0-3.2-0.1c-0.5-0.1-0.8-0.3-0.8-0.6c0.1-0.3,0.4-0.4,0.7-0.4c0.6,0,1.7,0.1,3.3,0.2
		c1.5,0.1,2.6,0.2,3.3,0.2l0.8,0l0.8,0c0.5,0,0.7,0.2,0.7,0.5c0,0.2-0.1,0.3-0.2,0.4c-0.2,0.1-0.4,0.1-0.6,0.1c-0.3,0-0.9,0-1.6-0.1
		c-0.8,0-1.3-0.1-1.6-0.1c-0.1,0-0.1,0-0.1,0.1c0,0.1,0,0.4,0,0.7c0,2.5,0.1,6.2,0.4,11.2c0.3,4.9,0.4,8.7,0.4,11.2
		c0,0.2-0.1,0.3-0.3,0.5C112.8,54.9,112.6,55,112.4,55z"/>
	<path class="st0" d="M123.4,49.3c-0.1,0-0.1,0-0.2,0c0,0-0.1,0.1-0.1,0.1c0,0,0,0,0,0.1c0,0,0,0,0,0.1l-0.1,0.8
		c-0.1,0.6-0.2,1.6-0.4,2.7c-0.1,0.6-0.3,1.2-0.4,1.6c-0.2,0.4-0.4,0.6-0.6,0.6c-0.2,0-0.3-0.1-0.5-0.2c-0.2-0.1-0.3-0.3-0.3-0.4
		l0-0.1l0-0.1c0.4-1.6,0.8-3.4,1.2-5.4l0.4-2.4c0.1-0.5,0.2-1,0.3-1.5l0.2-1.3l0.4-2.5c0.1-0.7,0.3-1.8,0.7-3.3
		c0.3-1.5,0.5-2.7,0.7-3.5l0.1-1.4l0.1-0.6c0.1-0.7,0.1-1.2,0.2-1.5c0.1-0.6,0.2-1,0.2-1.1l0.3,0c0.1,0,0.2,0,0.3,0
		c0.3,0,0.5-0.1,0.7-0.2c0.2,0,0.3,0.1,0.5,0.2c0.1,0.1,0.2,0.2,0.2,0.4c0,0.7,0,1.4,0.1,2c0,0.6,0.1,1.3,0.2,2.2l0.2,2
		c0.3,3.6,1,9.7,2.1,18.4V55c0,0.3-0.1,0.4-0.3,0.6c-0.3,0-0.5,0-0.6,0c-0.1,0-0.2-0.1-0.2-0.2c0-0.1-0.1-0.3-0.1-0.6l-0.6-5
		c-0.5-0.1-1.1-0.2-1.9-0.2c-0.3,0-0.7,0-1.4-0.1C124.1,49.4,123.7,49.3,123.4,49.3z M123.5,48.2c0,0.1,0.5,0.2,1.5,0.3
		c1,0.1,1.8,0.1,2.5,0.1h0.4c-0.2-2.7-0.7-8-1.4-16.2c-1.3,6.5-2,9.9-2.1,10.1C123.8,45.6,123.5,47.4,123.5,48.2z"/>
	<path class="st0" d="M141.9,55.8l-0.6-0.2c-0.3-0.3-0.6-1.2-1-2.6c-0.4-1.4-0.7-3-1-4.8c-0.2-1.5-0.5-2.9-0.9-4.3
		c-0.3-1.3-0.6-1.9-0.9-1.9h-0.1c-0.6,0-0.8,0.2-0.8,0.5c0,1.4,0.1,4.2,0.3,8.3c0.1,2.2,0.2,3.6,0.3,4l-0.3,0.6h-0.6l-0.3-0.3
		c-0.4-11-0.6-19-0.6-23.9c0-0.3,0-0.5,0-0.7c0-0.2,0.1-0.3,0.2-0.5c0.1-0.2,0.3-0.3,0.6-0.3c1.3,0,2.3,0.3,3.1,1
		c0.8,0.6,1.2,1.6,1.2,2.7v2.8c0,0.5-0.2,1.1-0.5,1.9c-0.3,0.8-0.6,1.6-1,2.3c-0.3,0.6-0.5,0.9-0.5,1c0,0.1,0.5,2.1,1.4,6.1
		c1,4,1.5,6,1.6,6.2c0,0,0,0.1,0.1,0.1c0,0.1,0.1,0.3,0.3,0.5c0.2,0.4,0.3,0.7,0.3,0.9C142.4,55.7,142.2,55.8,141.9,55.8z M136.9,41
		L136.9,41c0.5,0.1,1-0.2,1.4-0.7c0.4-0.5,0.7-1.1,0.9-1.8c0.2-0.7,0.3-1.4,0.5-2c0.1-0.7,0.2-1.2,0.2-1.7c0-0.6,0-1.1-0.1-1.4
		c-0.1-0.4-0.2-0.8-0.3-1.2c-0.2-0.4-0.4-0.8-0.8-1c-0.4-0.2-0.8-0.3-1.4-0.3c-0.1,0-0.2,0.1-0.3,0.3c-0.1,0.2-0.1,0.4-0.1,0.7
		c0,1.2,0,2.8,0.1,4.6C136.8,38.2,136.9,39.8,136.9,41z"/>
	<path class="st0" d="M147.8,54.8c0-0.3,0-0.7,0-1.2c0-0.8,0.1-2.1,0.2-4c0.1-1.7,0.2-3,0.2-4l0-1.7l0-1.7c0-1,0-2.5,0.1-4.5
		c0.1-2,0.1-3.5,0.1-4.5c0-0.8,0-1.5,0-2.2l-0.1-0.2v-0.2c0-0.3,0.1-0.6,0.2-0.7c0.1-0.2,0.3-0.2,0.6-0.2c0.2,0,0.6,0.1,1.2,0.2
		c0.6,0.1,1.1,0.3,1.5,0.5c0.5,0.2,0.7,0.4,0.7,0.5l0,0.1c0.5,0.7,0.8,1.4,0.9,2.2c0.2,0.7,0.3,1.7,0.3,2.8c0,1.9-0.2,3.4-0.6,4.5h0
		c-0.1,0.2-0.3,0.5-0.6,1c-0.3,0.4-0.5,0.7-0.5,0.8c0.5,0.3,0.8,0.9,1.1,1.6c0.3,0.7,0.5,1.4,0.6,2c0.1,0.7,0.1,1.3,0.1,2l0,1v0.5
		c0,2.4-0.8,4.2-2.3,5.4c-0.8,0.6-1.8,0.9-2.9,0.9c-0.2,0-0.4-0.1-0.5-0.2C147.8,55.2,147.8,55,147.8,54.8z M149.3,50.6
		c-0.1,0.3-0.2,0.9-0.2,1.8c0,0.4,0,0.7,0,1l0,0.7c0.6,0,1.2-0.2,1.7-0.6c0.5-0.4,0.9-0.9,1.3-1.6c0.3-0.6,0.5-1.3,0.5-1.9l0-0.1
		v-0.3v-0.4c0-0.6,0-1.1,0-1.5c0-0.4-0.1-0.9-0.2-1.5c-0.1-0.7-0.3-1.2-0.5-1.7s-0.5-0.8-0.9-1.2c-0.4-0.3-0.9-0.5-1.4-0.5
		c-0.1,1.8-0.2,3.5-0.2,5.2v0.9C149.1,49.6,149.2,50.2,149.3,50.6z M149.2,40.5V41l0.1,0.2l0.1,0.3h0.3c1.7,0,2.5-1.7,2.5-5.1
		c0-0.5,0-1-0.1-1.6l-0.1-0.7L152,34c-0.1-0.8-0.2-1.4-0.4-2c-0.1-0.4-0.3-0.6-0.6-0.9c-0.3-0.2-0.6-0.3-0.9-0.3
		c-0.6,0-0.8,1.7-0.8,5c0,0.6,0,1.1,0,1.3c0,0.2,0,0.5,0,0.7c0,0.5,0,0.9,0,1.3C149.2,39.6,149.2,40,149.2,40.5z"/>
	<path class="st0" d="M164.1,55.8c-0.4,0-0.8-0.1-1.3-0.4c-0.5-0.3-0.9-0.6-1.2-0.9c-0.3-0.4-0.6-1.7-0.8-3.8
		c-0.2-2.1-0.3-4.5-0.4-7.2l0-1.2c0-3.4-0.1-6-0.1-7.8c0-1.8-0.1-3-0.2-3.7l0.2-0.5c0.6,0.1,0.9,0.8,0.9,2.1l0.1,10.1
		c0,0.8,0.1,2.1,0.2,4c0.1,1.9,0.2,3.2,0.2,4c0,2.9,1,4.3,2.9,4.3c1.2,0,1.9-2.7,2.2-8l0.1-0.8c0.2-6.2,0.3-11.3,0.3-15.5l0-0.4
		l0-0.3c0-0.3,0.2-0.4,0.6-0.4c0.3,0,0.5,0.1,0.6,0.2c0.1,0.2,0.1,0.6,0.1,1.3c0,2-0.1,3.3-0.2,3.9c0,0.1,0,0.2,0,0.2
		c0,0.2,0,0.8-0.1,1.5c-0.1,0.8-0.1,1.3-0.1,1.5c0,0.1,0,0.3,0,0.4c0,0.1,0,0.2,0,0.4c0,0.5-0.1,1.3-0.1,2.6c0,2.5-0.1,4.6-0.2,6.3
		c-0.1,2.2-0.4,4.1-0.9,5.6c-0.3,0.8-0.6,1.4-1.1,1.8C165.2,55.6,164.7,55.8,164.1,55.8z"/>
	<path class="st0" d="M180.2,55.8H179c-0.2-0.1-0.5-0.2-0.9-0.3c-0.5-0.1-0.9-0.4-1.2-0.6c-0.3-0.3-0.7-0.7-1-1.3
		c-0.5-1-0.8-2.4-0.9-4.3c0-0.6-0.1-1.3-0.1-2.3v-4.3c0-1,0-1.8,0-2.3c0-0.6,0.1-1.4,0.1-2.4c0.1-1.2,0.2-2.1,0.3-2.9
		c0.2-0.8,0.4-1.6,0.7-2.3c0.3-0.8,0.7-1.4,1.2-1.7c0.2-0.2,0.6-0.4,1-0.5c0.4-0.1,0.7-0.3,0.9-0.4h1.5l0.1,0c0,0,0.1,0,0.1,0
		c0.1,0,0.2,0.1,0.2,0.1c0.1,0,0.2,0.1,0.2,0.1c0.1,0.1,0.1,0.1,0.1,0.1c0,0.1,0,0.2,0,0.2l-0.5,0.6h-1.6c-0.5,0-0.9,0.2-1.3,0.7
		c-0.4,0.5-0.7,1.1-0.9,1.8c-0.2,0.6-0.3,1.4-0.5,2.2c-0.1,0.9-0.2,1.6-0.2,2.3c0,0.6-0.1,1.1-0.1,1.7l-0.1,0.2c0,1,0,2.3-0.1,3.8
		c0,1.5-0.1,2.8-0.1,3.8c0,0.6,0,1.1,0,1.6c0,0.4,0.1,1,0.2,1.5c0.1,0.6,0.2,1,0.4,1.5c0.2,0.4,0.4,0.9,0.7,1.3
		c0.3,0.4,0.7,0.7,1.1,0.9c0.5,0.2,1,0.3,1.6,0.3c0.4,0,0.7-0.1,0.9-0.3c0.4,0,0.6,0.1,0.6,0.4c0,0.2-0.2,0.4-0.5,0.6
		C180.9,55.5,180.5,55.7,180.2,55.8z"/>
	<path class="st0" d="M191.5,40.4l-0.1-0.1l-0.6,1.2c-0.3,0.7-0.6,1.2-0.7,1.4c-0.1,0.3-0.2,0.6-0.3,1.1c-0.1,0.5-0.2,1-0.2,1.5
		c0,0.2,0,0.7-0.1,1.4c-0.1,0.7-0.1,1.1-0.1,1.4v4.9c0,0.3,0,0.6,0.1,1.1c0.1,0.4,0.1,0.8,0.1,1.1c0,0.1-0.1,0.2-0.2,0.3
		c-0.1,0.1-0.3,0.1-0.4,0.1c-0.3,0-0.6-0.1-0.7-0.2c-0.1-0.1-0.2-0.3-0.2-0.6v-7.1c0-0.6,0.1-1.4,0.2-2.4c0.1-1.1,0.2-1.9,0.2-2.4
		c0-0.9,0.1-2.1,0.2-3.7c0.1-1.6,0.2-2.8,0.2-3.7v-5.3c0.1-0.3,0.4-0.4,0.7-0.4c0.2,0,0.4,0.1,0.5,0.2s0.2,0.3,0.2,0.5
		c-0.2,0.4-0.3,1-0.3,1.8c0,1.1,0,2.4-0.1,4c0,1.6-0.1,2.9-0.1,4c0.2-0.1,1.2-1.8,3-5.3c1.7-3.4,2.7-5.1,2.8-5.1c0.6,0,1,0.2,1,0.6
		c-1.6,2.3-2.9,4.6-4.1,7l0,1.2l0,1.2c0,0.7,0.2,2,0.6,3.7c0.4,1.7,0.9,3.5,1.5,5.2c0.6,1.7,1,3,1.4,3.7c0.1,0.2,0.3,0.4,0.5,0.7
		c0.2,0.3,0.4,0.6,0.5,0.9c0.1,0.3,0.2,0.5,0.2,0.7c0,0.2-0.1,0.3-0.2,0.4c-0.1,0.1-0.3,0.2-0.5,0.2c-0.6,0-1.3-1.1-2.1-3.4
		c-0.5-1.4-1-3-1.5-4.6c-0.5-1.6-0.8-3.1-1.1-4.5C191.6,42,191.5,41,191.5,40.4z"/>
	<path class="st0" d="M202.4,54.7l0.2-0.3c0.2,0,0.4,0.1,0.7,0.1c0.3,0.1,0.5,0.1,0.7,0.1c0.6,0,1.1-0.2,1.5-0.7
		c0.4-0.4,0.7-1,1-1.7c0.4-1.3,0.6-2.5,0.6-3.7c0-0.9-0.1-1.9-0.4-2.9s-0.7-1.9-1.2-2.8l-0.4-0.8c-0.5-1-0.9-1.7-1.2-2.3
		s-0.6-1.3-0.8-2c-0.3-1-0.5-2-0.5-3c0-0.5,0.1-1,0.2-1.5c0.1-0.6,0.3-1.1,0.5-1.7c0.2-0.6,0.6-1.1,1-1.4c0.4-0.4,0.9-0.5,1.4-0.5
		c0.3,0,0.6,0.1,1,0.3c0.3,0.2,0.5,0.5,0.5,0.7c0,0.2-0.2,0.3-0.5,0.3c-0.1,0-0.2,0-0.4-0.1c-0.2-0.1-0.3-0.1-0.4-0.1
		c-0.4,0-0.7,0.2-1,0.5c-0.3,0.3-0.5,0.7-0.7,1.2c-0.3,0.9-0.5,1.8-0.5,2.6c0,0.5,0.1,1,0.2,1.5l0.1,0.6c0,0.1,0.1,0.4,0.2,0.8
		l0.2,0.7l0.3,0.7l0.7,1.2l0.3,0.5c0.3,0.6,0.6,1.1,0.9,1.5c0.2,0.4,0.5,0.9,0.7,1.4c0.2,0.5,0.4,1,0.6,1.5c0.1,0.5,0.2,1,0.3,1.7
		c0.1,0.6,0.1,1.3,0.1,2.1c0,1.3-0.2,2.4-0.5,3.4c-0.2,0.6-0.5,1.2-0.8,1.6c-0.3,0.4-0.7,0.8-1.2,1.1c-0.5,0.3-1.1,0.4-1.7,0.4
		l-0.2,0.1c-0.3,0-0.6-0.2-0.8-0.3C202.6,55.2,202.5,55,202.4,54.7z M206.6,30.8L206.6,30.8L206.6,30.8
		C206.7,30.8,206.7,30.8,206.6,30.8z"/>
	<path class="st0" d="M99.7,68.2c0.9-1.4,1.7-2.2,2.6-2.2c0.9,0,1.3,1.7,1.3,5.1c0,1-0.1,2.3-0.2,3.9c-0.2,1.6-0.3,2.8-0.3,3.5
		c0,1.9-0.1,3.6-0.2,5c-0.1,1.4-0.2,2.2-0.3,2.5c-0.1,0.3-0.2,0.5-0.3,0.9c-0.3,0.6-0.9,0.8-1.9,0.8c-0.6,0-0.8-0.6-0.8-1.8
		c0-1.2,0.2-3.4,0.7-6.7c0.5-3.2,0.7-5.7,0.7-7.4c0-1.7-0.1-2.6-0.3-2.6c-0.2,0-0.7,0.8-1.5,2.5c-0.8,1.7-1.5,2.9-1.8,3.9
		c-0.4,0.9-0.7,1.7-0.9,2.5s-0.4,1.3-0.5,1.7c-0.2,0.4-0.4,0.5-0.7,0.5c-0.5,0-0.7-0.3-0.7-0.8c0-0.5,0.6-2,1.7-4.5
		C97.2,72.6,98.4,70.3,99.7,68.2z"/>
	<path class="st0" d="M111.8,86.3c1.1,0,2-0.4,2.7-1.1c0.8-0.8,1.3-1.8,1.6-3c0.6-2.1,0.9-4.4,0.9-6.8c0-5.4-1.2-8.1-3.6-8.1
		c-1,0-2,0.6-2.8,1.7s-1.2,2.4-1.2,3.9c0,1.8,0.3,3.2,1,4.1c0.5,0.6,1.1,0.8,1.9,0.8c0.8,0,1.6-0.2,2.4-0.5c0.8-0.4,1.3-0.5,1.4-0.5
		s0.2,0.1,0.2,0.3c0,0.5-0.4,1-1.3,1.4c-0.9,0.5-2,0.7-3.4,0.7c-1.4,0-2.5-0.6-3.4-1.8c-0.8-1.2-1.2-2.5-1.2-4c0-2,0.7-3.7,2-5.2
		c1.3-1.5,2.9-2.2,4.7-2.2c1,0,1.9,0.2,2.6,0.6c0.8,0.4,1.4,0.9,1.8,1.4c0.4,0.6,0.8,1.3,1.1,2.1c0.5,1.4,0.7,2.9,0.7,4.7
		c0,8.6-3,12.9-8.9,12.9c-1.1,0-2.1-0.3-3-1c-0.9-0.6-1.3-1.4-1.3-2.2s0.2-1.2,0.7-1.2s0.9,0.2,1.3,0.5c0.4,0.3,0.6,0.6,0.8,1
		c0.2,0.4,0.5,0.7,0.8,1C110.9,86.2,111.3,86.3,111.8,86.3z"/>
	<path class="st0" d="M127.9,68.2c0.9-1.4,1.7-2.2,2.6-2.2c0.9,0,1.3,1.7,1.3,5.1c0,1-0.1,2.3-0.2,3.9c-0.2,1.6-0.3,2.8-0.3,3.5
		c0,1.9-0.1,3.6-0.2,5c-0.1,1.4-0.2,2.2-0.3,2.5c-0.1,0.3-0.2,0.5-0.3,0.9c-0.3,0.6-0.9,0.8-1.9,0.8c-0.6,0-0.8-0.6-0.8-1.8
		c0-1.2,0.2-3.4,0.7-6.7c0.5-3.2,0.7-5.7,0.7-7.4c0-1.7-0.1-2.6-0.3-2.6c-0.2,0-0.7,0.8-1.5,2.5c-0.8,1.7-1.5,2.9-1.8,3.9
		c-0.4,0.9-0.7,1.7-0.9,2.5s-0.4,1.3-0.5,1.7c-0.2,0.4-0.4,0.5-0.7,0.5c-0.5,0-0.7-0.3-0.7-0.8c0-0.5,0.6-2,1.7-4.5
		C125.5,72.6,126.7,70.3,127.9,68.2z"/>
	<path class="st0" d="M137.5,70c0,0.4,0.1,0.8,0.4,1.4c0.2,0.6,0.4,1,0.4,1.3c0,0.3-0.1,0.6-0.3,0.9c-0.2,0.3-0.5,0.5-0.9,0.5
		c-0.4,0-0.7-0.3-0.9-0.9c-0.2-0.6-0.4-1.2-0.4-1.8c0-1.6,0.6-2.9,1.9-4s2.7-1.5,4.2-1.5c1.5,0,2.8,0.4,3.9,1.3
		c1.1,0.8,1.7,2,1.7,3.3c0,1.4-0.3,2.6-0.8,3.6s-1.1,1.8-1.8,2.4c-0.7,0.6-1.7,1.5-3.1,2.7c-1.4,1.2-2.5,2.3-3.6,3.4
		c0.9,0.2,2.2,0.5,3.8,0.9c1.6,0.5,2.6,0.7,2.8,0.7c0.9,0,1.8-0.7,2.7-2.1c0.4-0.7,0.7-1.1,0.9-1.1c0.2,0,0.3,0.2,0.3,0.5
		c0,0.7-0.4,1.7-1.1,2.8c-0.7,1.2-1.4,2-2,2.4c-0.6,0.4-1.5,0.7-2.6,0.7c-0.4,0-1.3-0.4-2.8-1.3c-1.5-0.8-2.7-1.3-3.6-1.3
		c-0.7,1.5-1.4,2.3-1.9,2.3c-0.4,0-0.8-0.1-1-0.4s-0.4-0.7-0.4-1.2c0-0.6,0.3-1.2,0.9-1.9c0.6-0.7,1.3-1.2,2-1.3
		c0.9-0.9,1.8-1.9,2.9-2.9c1.1-1,1.9-1.8,2.3-2.3c0.5-0.5,1-1.1,1.4-1.7c0.5-0.7,0.8-1.3,1-1.9c0.2-0.6,0.2-1.4,0.2-2.4
		s-0.3-1.8-0.9-2.5c-0.6-0.7-1.4-1.1-2.3-1.1s-1.8,0.2-2.5,0.5C137.9,68.5,137.5,69.1,137.5,70z"/>
	<path class="st0" d="M167.9,65.3c0.2,0,0.6,0,1.2,0s1.5,0.1,2.4,0.4s1.9,0.6,2.8,1.2s1.6,1.3,2.2,2.4s0.8,2.3,0.8,3.8
		c0,2.4-0.9,4.3-2.8,5.8c-1.9,1.5-4.3,2.2-7.4,2.2c0,5-0.9,7.4-2.6,7.4c-1.2,0-1.8-0.5-1.8-1.5c0-0.3,0.2-0.7,0.5-1.3
		c0.3-0.5,0.5-1.1,0.6-1.8c0.1-0.7,0.2-1.8,0.3-3.3c-1-0.3-1.6-0.8-1.6-1.4c0-0.6,0.3-0.9,0.8-0.9c0.3,0,0.6,0,0.8,0.1
		c0.3-6.8,0.6-10.5,0.7-11.2c-1.4,0.4-2.6,0.9-3.6,1.8c-1,0.8-1.4,1.8-1.4,2.9c0,0.6-0.1,1.1-0.4,1.5c-0.3,0.4-0.6,0.5-1,0.5
		c-0.8,0-1.1-0.4-1.1-1.3c0-1.7,0.8-3.2,2.3-4.4c1.5-1.2,3.4-2.1,5.7-2.5c0.5-1.6,1.2-2.4,2-2.4C167.8,63.2,167.9,63.9,167.9,65.3z
		 M174.5,74c0-2.3-0.7-4-2-5.2c-1.3-1.2-2.9-1.8-4.7-1.9c-0.4,4.5-0.6,8.7-0.6,12.7c0.4,0.1,0.6,0.1,0.8,0.1c2.1,0,3.7-0.5,4.8-1.6
		C174,76.9,174.5,75.6,174.5,74z"/>
	<path class="st0" d="M180.4,87.5c-1,0-1.7-0.2-2.2-0.6c-0.2-0.2-0.3-0.8-0.3-1.9s0.1-2.9,0.2-5.5c0.2-2.6,0.3-3.9,0.4-4.1
		c0.1-0.2,0.5-0.6,1.2-1.1c0.7-0.6,1.2-0.8,1.5-0.8c0.4,0,0.6,0.5,0.6,1.4c0,0.3-0.1,0.8-0.2,1.5c-0.1,0.7-0.3,1.3-0.5,1.6
		c-0.3,0.8-0.5,3-0.5,6.6c0,0.7,0.1,1,0.2,1c0.4,0,1-0.6,1.8-1.6c0.8-1.1,1.5-2.4,2.3-4.1s1.2-2.5,1.4-2.5c0.2,0,0.2,0.1,0.2,0.3
		c0,0.7-0.4,1.8-1.1,3.4C183.5,85.4,181.8,87.5,180.4,87.5z M179.3,68.7c0-0.5,0.2-0.9,0.7-1.2c0.5-0.3,0.9-0.5,1.3-0.5
		c0.7,0,1,0.4,1,1.2s-0.2,1.5-0.6,2c-0.4,0.6-1,0.9-1.7,0.9C179.6,71.1,179.3,70.3,179.3,68.7z"/>
	<path class="st0" d="M196.9,88.7l1-0.1c0.2,0,0.3,0.1,0.3,0.3c0,0.4-0.2,0.6-0.7,0.8s-1,0.3-1.6,0.3c-1.1,0-2.1-0.5-2.9-1.4
		c-0.8-0.9-1.8-2.6-3.2-5.1c-0.3-0.5-0.5-0.9-0.5-1.2c0-0.4,0.5-0.8,1.6-1.3c1.7-0.9,2.6-2,2.6-3.4c0-0.4-0.1-0.7-0.4-1
		c-0.3-0.3-0.6-0.4-1-0.4c-0.6,0-1.3,0.7-2.2,2.2s-1.4,2.8-1.7,4c-0.3,1.3-0.4,2.6-0.4,4.1c0,0.7-0.2,1.1-0.6,1.1
		c-0.6,0-1.1-0.1-1.7-0.2c-0.5-0.2-0.8-0.4-0.8-0.6s0.1-1.5,0.3-3.6c0.2-2.1,0.3-3.7,0.3-4.6c0.1-5.2,0.4-9.1,0.9-11.9
		c0.1-0.2,0.4-0.6,1-1.2c0.6-0.6,1.1-0.8,1.5-0.8s0.6,0.5,0.6,1.4s-0.2,3-0.6,6.1c-0.4,3.1-0.7,6-0.8,8.6c0.5-1.6,1.2-3.2,2.2-4.6
		c1-1.4,2-2.2,3-2.2c1.7,0,2.6,0.8,2.6,2.5c0,1.1-0.3,2.1-1,3c-0.7,0.9-1.6,1.6-2.7,2.2c-0.2,0.1-0.3,0.2-0.3,0.3s0,0.3,0.1,0.4
		c1.6,2.8,3,4.8,4.1,5.9C196.2,88.5,196.5,88.7,196.9,88.7z"/>
	<path class="st0" d="M202.3,87.5c-1.4,0-2.6-0.5-3.4-1.6c-0.8-1.1-1.3-2.3-1.3-3.7c0-2.8,0.6-4.9,1.8-6.3c1.2-1.4,2.7-2.1,4.5-2.1
		c0.9,0,1.6,0.2,2.1,0.7c0.6,0.5,0.8,1.1,0.8,1.9c0,1.5-0.6,2.8-1.9,3.8c-1.3,1-2.9,1.6-4.7,1.6c0.1,1,0.4,1.8,1,2.6
		c0.6,0.7,1.2,1.1,2,1.1c0.8,0,1.4-0.2,2.1-0.5c0.6-0.4,1.2-0.9,1.7-1.5c1.1-1.4,2-3,2.7-4.8c0.2-0.5,0.4-0.8,0.5-1
		c0.1-0.2,0.2-0.3,0.4-0.3s0.2,0.1,0.2,0.3c0,1.3-0.8,3.2-2.3,5.7C206.8,86.2,204.8,87.5,202.3,87.5z M200.3,81
		c1.5-0.3,2.6-0.7,3.3-1.4c0.7-0.7,1-1.6,1-2.8s-0.4-1.7-1.1-1.7c-0.9,0-1.6,0.6-2.2,1.8C200.7,78.1,200.3,79.5,200.3,81z"/>
</g>
<g>
	<path class="st0" d="M91.3,197.2v6.7c0,0.2,0,0.3-0.1,0.4c-0.1,0.1-0.2,0.1-0.4,0.1c-0.1,0-0.2,0-0.3-0.1c-0.1-0.1-0.1-0.2-0.1-0.3
		v-0.1c0-1.4,0-3,0-5c0-2,0-3.6,0-5v-2.1c0-0.1,0-0.2,0.1-0.3c0.1-0.1,0.2-0.1,0.4-0.1c0.3,0,0.5,0.1,0.8,0.2
		c0.2,0.1,0.4,0.3,0.6,0.5c0.2,0.2,0.3,0.4,0.4,0.7s0.2,0.5,0.3,0.8c0,0.3,0.1,0.5,0.1,0.8c0,0.2,0,0.6-0.1,1c0,0.2-0.1,0.5-0.3,0.9
		l-0.2,0.5l-0.2,0.4c0,0.4,0.1,0.9,0.2,1.6c0.1,0.6,0.3,1.2,0.4,1.7c0.1,0.5,0.4,1.1,0.6,1.9l0.5,1.5v0c0,0.1,0,0.2,0,0.2
		c0,0.1,0,0.1,0,0.2c0,0.2-0.2,0.3-0.4,0.3c-0.2,0-0.4-0.2-0.6-0.5V204c0-0.6-0.1-1.3-0.3-2c-0.2-0.7-0.4-1.6-0.8-2.7
		C91.6,198.4,91.4,197.7,91.3,197.2z M91.8,195.8l0.3-1.5c0-0.1,0-0.2,0-0.2c0-0.3-0.1-0.7-0.2-1.1c-0.1-0.2-0.2-0.4-0.3-0.5
		s-0.2-0.2-0.3-0.2c0,0.3,0,0.8,0,1.7c0,0.8,0,1.4,0,1.8c0,0.3,0,0.5,0,0.8C91.5,196.3,91.6,196.1,91.8,195.8z"/>
	<path class="st0" d="M99.3,193.9c0,0.1,0,0.2-0.1,0.3c-0.1,0.1-0.2,0.2-0.4,0.2c-0.5-0.2-0.9-0.3-1.3-0.3c0,0.2,0,0.5,0,0.7
		c0,0.3,0,0.7,0,1.2c0,0.6,0,1,0,1.2l0.1,0.3l0.3,0c0.1,0,0.2,0,0.3,0c0.5,0,0.8,0.2,0.8,0.5c0,0.1-0.1,0.2-0.2,0.3
		c-0.1,0.1-0.2,0.1-0.4,0.1c-0.2,0-0.3,0-0.5,0h-0.4c0,0.4,0,0.9,0,1.3c0,0.4,0,0.9,0,1.5c0,0.8,0,1.3,0,1.5c0,0.6,0,1,0,1l0.6,0
		l0.7,0c0.4,0,0.6,0.1,0.6,0.4c0,0.2-0.1,0.3-0.2,0.4c-0.1,0.1-0.3,0.1-0.5,0.1h-1.4c-0.2,0-0.3-0.1-0.4-0.2s-0.2-0.2-0.2-0.4v-0.4
		c0-0.1,0-0.2,0-0.3l0-0.4c0-0.2,0-0.5,0-1.1c0-0.5,0-0.9,0-1.1c0-0.6,0-1.5,0.1-2.5c0-1,0.1-1.9,0.1-2.5c0-0.1,0-0.4,0-0.7
		c0-0.3,0-0.6,0-0.7c0-0.8,0.2-1.2,0.7-1.2c0.2,0,0.5,0,0.8,0.1s0.6,0.2,0.9,0.3C99.2,193.6,99.3,193.8,99.3,193.9z"/>
	<path class="st0" d="M105.1,202.2l-0.1-0.4l-1.7-0.2c-0.1,0.3-0.2,0.9-0.3,1.6c-0.1,0.6-0.2,0.9-0.3,1.1c-0.1,0.1-0.2,0.2-0.3,0.2
		c-0.1,0-0.3,0-0.4-0.1c-0.1-0.1-0.2-0.2-0.2-0.3c0,0,0,0,0-0.1l0-0.1c0.8-2.9,1.3-5.8,1.7-8.6c0-0.2,0-0.5,0.1-0.7
		c0-0.4,0.1-0.8,0.1-1s0.1-0.4,0.2-0.6h0.6c0.2,0,0.3,0,0.4,0.1c0.1,0.1,0.2,0.2,0.2,0.3c0,0.9,0.1,2.1,0.3,3.8
		c0.2,1.7,0.3,2.9,0.3,3.7c0,0.1,0,0.3,0.1,0.5c0.1,0.3,0.1,0.4,0.1,0.5c0,0.1,0.1,0.5,0.2,1c0.1,0.5,0.2,0.9,0.2,1.1v0
		c0,0.2-0.1,0.4-0.3,0.5c-0.3,0-0.4,0-0.6-0.1c-0.1-0.1-0.2-0.2-0.2-0.4C105.3,203.6,105.2,203,105.1,202.2z M104.9,201.3
		c0-0.2,0-0.4,0-0.6c0-0.5,0-1.1-0.1-1.7c0-0.6-0.1-1.3-0.2-2.2c-0.1-0.7-0.1-1.3-0.2-1.8c-0.5,2.8-0.8,4.9-1,6
		C103.6,201.1,104.1,201.2,104.9,201.3z"/>
	<path class="st0" d="M108.7,193.7c0-0.1,0.1-0.3,0.2-0.4c0.1-0.1,0.3-0.2,0.4-0.2c0.4,0,0.8,0.1,1.1,0.3s0.7,0.4,1,0.7
		s0.5,0.7,0.7,1c0.2,0.4,0.4,0.8,0.5,1.2c0.1,0.4,0.2,0.8,0.2,1.3l0,0.4l0,0.4v0.9c0,0.4,0,0.7,0,0.9c0,0.2,0,0.5-0.1,0.8
		c0,0.3-0.1,0.6-0.1,0.8c-0.1,0.2-0.1,0.5-0.3,0.7c-0.1,0.2-0.2,0.5-0.4,0.7s-0.3,0.4-0.6,0.6c-0.2,0.2-0.5,0.4-0.8,0.5h-1.2
		c-0.3,0-0.4-0.7-0.4-2.2c0-0.6,0-1.5,0-2.7c0-1.2,0-2.1,0-2.7c0-0.4,0-0.9-0.1-1.7C108.7,194.5,108.7,194,108.7,193.7z M110,203.2
		v0.4c0.2,0,0.4-0.1,0.6-0.2s0.4-0.3,0.5-0.5c0.1-0.2,0.2-0.4,0.3-0.7c0.1-0.3,0.2-0.5,0.2-0.8c0-0.2,0.1-0.5,0.1-0.8
		c0-0.3,0.1-0.5,0.1-0.8c0-0.1,0-0.3,0-0.6c0-3.4-0.7-5.2-2-5.4c-0.1,0.4-0.1,1-0.1,1.8c0,0.9,0,2.1,0.1,3.8
		C110,201.1,110,202.4,110,203.2z"/>
	<path class="st0" d="M124.3,202.2l-0.1-0.4l-1.7-0.2c-0.1,0.3-0.2,0.9-0.3,1.6c-0.1,0.6-0.2,0.9-0.3,1.1c-0.1,0.1-0.2,0.2-0.3,0.2
		c-0.1,0-0.3,0-0.4-0.1c-0.1-0.1-0.2-0.2-0.2-0.3c0,0,0,0,0-0.1l0-0.1c0.8-2.9,1.3-5.8,1.7-8.6c0-0.2,0-0.5,0.1-0.7
		c0-0.4,0.1-0.8,0.1-1s0.1-0.4,0.2-0.6h0.6c0.2,0,0.3,0,0.4,0.1c0.1,0.1,0.2,0.2,0.2,0.3c0,0.9,0.1,2.1,0.3,3.8
		c0.2,1.7,0.3,2.9,0.3,3.7c0,0.1,0,0.3,0.1,0.5c0.1,0.3,0.1,0.4,0.1,0.5c0,0.1,0.1,0.5,0.2,1c0.1,0.5,0.2,0.9,0.2,1.1v0
		c0,0.2-0.1,0.4-0.3,0.5c-0.3,0-0.4,0-0.6-0.1c-0.1-0.1-0.2-0.2-0.2-0.4C124.5,203.6,124.4,203,124.3,202.2z M124.1,201.3
		c0-0.2,0-0.4,0-0.6c0-0.5,0-1.1-0.1-1.7c0-0.6-0.1-1.3-0.2-2.2c-0.1-0.7-0.1-1.3-0.2-1.8c-0.5,2.8-0.8,4.9-1,6
		C122.8,201.1,123.3,201.2,124.1,201.3z"/>
	<path class="st0" d="M130.3,198.5c0.3,0.3,0.5,0.7,0.6,1.1c0.1,0.5,0.2,1,0.2,1.7s-0.1,1.3-0.4,1.8c-0.3,0.6-0.7,1-1.2,1.2
		c-0.3,0.1-0.6,0.2-1,0.2c-0.2,0-0.4-0.1-0.5-0.3c0-0.1-0.1-0.2-0.1-0.3c0-0.1,0-0.2,0-0.3c0-0.4,0-1,0.1-1.8s0.1-1.4,0.1-1.8
		c0-0.5,0-1.4,0-2.7c0-1.1,0-2,0-2.7c0-0.1,0-0.2,0-0.5l0-0.4v-0.1c0-0.3,0-0.4,0.1-0.6s0.2-0.2,0.4-0.2c0.4,0,0.7,0.1,1,0.2
		c0.3,0.2,0.5,0.4,0.7,0.7c0.3,0.6,0.5,1.2,0.5,2c0,0.6-0.1,1.1-0.2,1.5C130.7,197.8,130.5,198.2,130.3,198.5z M129,201.6
		c0,0.2,0,0.4,0,0.6c0,0.2,0,0.4,0,0.6c0,0,0,0,0,0c0,0,0,0,0,0v0.8c0.4-0.1,0.6-0.3,0.8-0.7s0.3-0.8,0.3-1.2c0-0.3,0-0.5,0-0.6
		c0-0.2,0-0.4-0.1-0.6c0-0.3-0.1-0.5-0.2-0.7c-0.1-0.2-0.2-0.4-0.3-0.5c-0.1-0.2-0.3-0.3-0.5-0.3C129.1,199.8,129,200.6,129,201.6z
		 M129.1,195.5v2.5c0.6,0,0.9-0.7,0.9-2.1c0-1.5-0.2-2.2-0.7-2.3C129.2,194,129.1,194.6,129.1,195.5z"/>
	<path class="st0" d="M138.1,197.8v0.1l0,1l0,1c0,3.3-0.8,4.9-2.3,4.9c-0.3,0-0.6-0.1-0.8-0.3c-0.2-0.2-0.4-0.4-0.6-0.8
		c-0.3-0.7-0.5-1.4-0.6-2.3c-0.1-0.8-0.1-1.5-0.1-2.2c0-0.1,0-0.3,0-0.3c0-0.1,0-0.2,0-0.3c0-0.1,0-0.1,0-0.1v-0.3
		c0-0.1,0-0.3,0-0.7c0-0.2,0-0.3,0-0.5c0-0.3,0-0.6,0-0.8s0.1-0.5,0.1-0.9c0-0.3,0.1-0.6,0.1-0.8c0.1-0.2,0.1-0.5,0.2-0.8
		c0.1-0.2,0.2-0.4,0.3-0.5s0.3-0.2,0.4-0.2c0.5,0,0.9,0.1,1.2,0.2s0.7,0.4,0.9,0.7c0.2,0.3,0.4,0.6,0.6,1c0.2,0.4,0.3,0.9,0.3,1.3
		C138,196.7,138.1,197.2,138.1,197.8z M135.6,193.8c-0.4,0-0.6,0.2-0.8,0.7c-0.1,0.2-0.1,0.4-0.1,0.6c0,0.2,0,0.5,0,0.7
		c0,0.2,0,0.4,0,0.5c0,0.1,0,0.3,0,0.5c0,0.1,0,0.4,0,0.8c0,0.4,0,0.6,0,0.8c0,0.4,0,1,0.1,1.8c0,0.9,0.2,1.7,0.3,2.5
		c0.1,0.4,0.2,0.7,0.3,0.9c0.1,0.2,0.3,0.3,0.5,0.3c0.2,0,0.4-0.1,0.6-0.2s0.3-0.4,0.4-0.7c0.2-0.6,0.3-1.2,0.4-1.9
		c0-0.6,0.1-1.1,0.1-1.5c0-0.5,0-1.1-0.1-2c-0.1-0.9-0.1-1.6-0.1-2v-0.3c0-0.3-0.1-0.5-0.2-0.8s-0.3-0.4-0.5-0.6
		S135.8,193.8,135.6,193.8z"/>
	<path class="st0" d="M143,204.6c-0.3,0-0.5-0.1-0.7-0.2c-0.2-0.1-0.4-0.3-0.5-0.5c-0.1-0.2-0.3-0.5-0.3-0.7
		c-0.1-0.3-0.2-0.5-0.2-0.9c-0.1-0.6-0.1-1.2-0.1-1.9c0-1.4,0-2.9,0-4.5c0-0.4,0-0.9,0-1.7l0-0.8c0.1-0.2,0.2-0.4,0.4-0.4
		c0.1,0,0.3,0.1,0.4,0.3c0.1,0.2,0.2,0.4,0.2,0.7v4.6c0,0.4,0,1,0.1,1.8c0.1,0.8,0.1,1.4,0.1,1.8c0,0.8,0.4,1.2,1.1,1.2
		c0.8,0,1.2-3,1.2-9.1v-1v-0.1c0,0,0-0.1,0-0.1c0-0.1,0-0.2,0.1-0.3s0.2-0.1,0.4-0.1c0.1,0,0.3,0,0.3,0.1s0.1,0.2,0.2,0.3
		c0,0.1,0,0.3,0,0.4c0,0.2,0,0.5-0.1,0.9s-0.1,0.6-0.1,0.8c0,0.2,0,0.4,0,0.7c0,0.3,0,0.6,0,0.7c0,0.1,0,0.1,0,0.1c0,0,0,0.1,0,0.1
		C145.2,202.1,144.5,204.6,143,204.6z"/>
	<path class="st0" d="M149.5,202.8l0-0.6c0-0.1-0.1-1.4-0.3-3.8s-0.2-3.9-0.2-4.5c-0.7,0-1.1-0.1-1.3-0.2c-0.1-0.1-0.2-0.2-0.2-0.3
		c0-0.1,0.1-0.2,0.2-0.3c0.1-0.1,0.2-0.1,0.4-0.1c0.3,0,0.6,0,1.2,0.1c0.5,0.1,0.9,0.1,1.2,0.1c0,0,0.1,0,0.1,0h0.1
		c0.4,0,0.5,0.1,0.5,0.4c0,0.1-0.1,0.2-0.2,0.3c-0.1,0.1-0.2,0.1-0.4,0.1c-0.1,0-0.3,0-0.4-0.1l-0.3-0.1l0,0.1l0,0.1
		c0,1.1,0.1,2.7,0.3,4.8c0.2,2.1,0.3,3.7,0.3,4.8c0,0.1-0.1,0.3-0.2,0.4s-0.3,0.2-0.4,0.2l-0.3-0.2l0-0.7L149.5,202.8z"/>
	<path class="st0" d="M164,197.8v0.1l0,1l0,1c0,3.3-0.8,4.9-2.3,4.9c-0.3,0-0.6-0.1-0.8-0.3c-0.2-0.2-0.4-0.4-0.6-0.8
		c-0.3-0.7-0.5-1.4-0.6-2.3c-0.1-0.8-0.1-1.5-0.1-2.2c0-0.1,0-0.3,0-0.3c0-0.1,0-0.2,0-0.3c0-0.1,0-0.1,0-0.1v-0.3
		c0-0.1,0-0.3,0-0.7c0-0.2,0-0.3,0-0.5c0-0.3,0-0.6,0-0.8s0.1-0.5,0.1-0.9c0-0.3,0.1-0.6,0.1-0.8c0.1-0.2,0.1-0.5,0.2-0.8
		c0.1-0.2,0.2-0.4,0.3-0.5s0.3-0.2,0.4-0.2c0.5,0,0.9,0.1,1.2,0.2s0.7,0.4,0.9,0.7c0.2,0.3,0.4,0.6,0.6,1c0.2,0.4,0.3,0.9,0.3,1.3
		C164,196.7,164,197.2,164,197.8z M161.5,193.8c-0.4,0-0.6,0.2-0.8,0.7c-0.1,0.2-0.1,0.4-0.1,0.6c0,0.2,0,0.5,0,0.7
		c0,0.2,0,0.4,0,0.5c0,0.1,0,0.3,0,0.5c0,0.1,0,0.4,0,0.8c0,0.4,0,0.6,0,0.8c0,0.4,0,1,0.1,1.8c0,0.9,0.2,1.7,0.3,2.5
		c0.1,0.4,0.2,0.7,0.3,0.9c0.1,0.2,0.3,0.3,0.5,0.3c0.2,0,0.4-0.1,0.6-0.2s0.3-0.4,0.4-0.7c0.2-0.6,0.3-1.2,0.4-1.9
		c0-0.6,0.1-1.1,0.1-1.5c0-0.5,0-1.1-0.1-2c-0.1-0.9-0.1-1.6-0.1-2v-0.3c0-0.3-0.1-0.5-0.2-0.8s-0.3-0.4-0.5-0.6
		S161.7,193.8,161.5,193.8z"/>
	<path class="st0" d="M168.9,204.6c-0.3,0-0.5-0.1-0.7-0.2c-0.2-0.1-0.4-0.3-0.5-0.5c-0.1-0.2-0.3-0.5-0.3-0.7
		c-0.1-0.3-0.2-0.5-0.2-0.9c-0.1-0.6-0.1-1.2-0.1-1.9c0-1.4,0-2.9,0-4.5c0-0.4,0-0.9,0-1.7l0-0.8c0.1-0.2,0.2-0.4,0.4-0.4
		c0.1,0,0.3,0.1,0.4,0.3c0.1,0.2,0.2,0.4,0.2,0.7v4.6c0,0.4,0,1,0.1,1.8c0.1,0.8,0.1,1.4,0.1,1.8c0,0.8,0.4,1.2,1.1,1.2
		c0.8,0,1.2-3,1.2-9.1v-1v-0.1c0,0,0-0.1,0-0.1c0-0.1,0-0.2,0.1-0.3s0.2-0.1,0.4-0.1c0.1,0,0.3,0,0.3,0.1s0.1,0.2,0.2,0.3
		c0,0.1,0,0.3,0,0.4c0,0.2,0,0.5-0.1,0.9s-0.1,0.6-0.1,0.8c0,0.2,0,0.4,0,0.7c0,0.3,0,0.6,0,0.7c0,0.1,0,0.1,0,0.1c0,0,0,0.1,0,0.1
		C171.1,202.1,170.4,204.6,168.9,204.6z"/>
	<path class="st0" d="M177.1,204.7c-0.2,0-0.5-0.3-0.7-0.8c-0.2-0.5-0.4-1.1-0.5-1.8l-0.1-0.6c-0.3-1.6-0.5-2.5-0.6-2.8h-0.2
		c0,0.3,0,0.6,0,0.9c0,0.3,0,0.6,0,0.9c0,1.5,0.1,2.7,0.3,3.5l-0.2,0.5h-0.5l-0.2-0.2l0-1.1c0-1,0-2.5-0.1-4.6
		c-0.1-2.1-0.1-3.6-0.1-4.6c0-0.5,0.2-0.8,0.6-0.8c0.4,0,0.8,0.1,1.1,0.2c0.3,0.1,0.6,0.3,0.8,0.6s0.3,0.6,0.3,1v1.2
		c0,0.2,0,0.3-0.1,0.6c-0.1,0.2-0.1,0.4-0.2,0.6l-0.3,0.6l-0.3,0.5l0.3,1.6c0.2,0.8,0.3,1.5,0.5,2.1s0.3,1.1,0.5,1.5l0.1,0.2
		c0.1,0.1,0.1,0.2,0.1,0.3s0,0.2,0,0.2c0,0.1,0,0.2-0.1,0.3S177.2,204.7,177.1,204.7z M175.9,195.3c0-0.2,0-0.4,0-0.5s0-0.3-0.1-0.5
		c-0.1-0.2-0.1-0.3-0.3-0.4s-0.3-0.1-0.5-0.2l0,0.1c0,0.1,0,0.1,0,0.1c0,0.6,0,1.2,0,2c0,0.8,0,1.4,0,1.9c0.2-0.1,0.3-0.3,0.5-0.6
		s0.2-0.6,0.3-1C175.9,195.9,175.9,195.5,175.9,195.3z"/>
	<path class="st0" d="M186.6,195.5c0,0.3,0,0.7,0.1,1c0.1,0.3,0.2,0.6,0.4,0.9c0.4,0.7,0.7,1.3,1,1.8c0.2,0.3,0.3,0.7,0.4,1.1
		s0.1,0.8,0.1,1.3c0,0.7-0.2,1.3-0.5,2c-0.2,0.3-0.4,0.6-0.7,0.8c-0.3,0.2-0.6,0.3-1,0.3v0c-0.2,0-0.4-0.1-0.5-0.2
		c-0.1-0.1-0.2-0.3-0.2-0.4l0.2-0.3c0.2,0,0.3,0.1,0.3,0.1c0.2,0,0.3,0.1,0.4,0.1c0.2,0,0.4-0.1,0.6-0.3c0.2-0.2,0.3-0.4,0.4-0.7
		c0.1-0.5,0.2-1,0.2-1.5c0-0.4-0.1-0.8-0.2-1.2c-0.1-0.4-0.3-0.8-0.5-1.2l-0.2-0.3c-0.2-0.4-0.4-0.7-0.6-1s-0.3-0.6-0.4-1
		c-0.1-0.4-0.2-0.9-0.2-1.3c0-0.5,0.1-1,0.3-1.6c0.1-0.3,0.3-0.5,0.5-0.7c0.2-0.2,0.4-0.2,0.7-0.2c0.2,0,0.4,0.1,0.6,0.2
		c0.2,0.1,0.3,0.3,0.3,0.5c0,0.1,0,0.2-0.1,0.2c-0.1,0.1-0.2,0.1-0.3,0.1c-0.1,0-0.2,0-0.4-0.1c-0.1,0-0.2,0.1-0.3,0.2
		s-0.2,0.3-0.2,0.5C186.7,194.8,186.6,195.2,186.6,195.5z"/>
	<path class="st0" d="M192.8,202.8l0-0.6c0-0.1-0.1-1.4-0.3-3.8s-0.2-3.9-0.2-4.5c-0.7,0-1.1-0.1-1.3-0.2c-0.1-0.1-0.2-0.2-0.2-0.3
		c0-0.1,0.1-0.2,0.2-0.3c0.1-0.1,0.2-0.1,0.4-0.1c0.3,0,0.6,0,1.2,0.1c0.5,0.1,0.9,0.1,1.2,0.1c0,0,0.1,0,0.1,0h0.1
		c0.4,0,0.5,0.1,0.5,0.4c0,0.1-0.1,0.2-0.2,0.3c-0.1,0.1-0.2,0.1-0.4,0.1c-0.1,0-0.3,0-0.4-0.1l-0.3-0.1l0,0.1l0,0.1
		c0,1.1,0.1,2.7,0.3,4.8c0.2,2.1,0.3,3.7,0.3,4.8c0,0.1-0.1,0.3-0.2,0.4s-0.3,0.2-0.4,0.2l-0.3-0.2l0-0.7L192.8,202.8z"/>
	<path class="st0" d="M201.5,197.8v0.1l0,1l0,1c0,3.3-0.8,4.9-2.3,4.9c-0.3,0-0.6-0.1-0.8-0.3c-0.2-0.2-0.4-0.4-0.6-0.8
		c-0.3-0.7-0.5-1.4-0.6-2.3c-0.1-0.8-0.1-1.5-0.1-2.2c0-0.1,0-0.3,0-0.3c0-0.1,0-0.2,0-0.3c0-0.1,0-0.1,0-0.1v-0.3
		c0-0.1,0-0.3,0-0.7c0-0.2,0-0.3,0-0.5c0-0.3,0-0.6,0-0.8s0.1-0.5,0.1-0.9c0-0.3,0.1-0.6,0.1-0.8c0.1-0.2,0.1-0.5,0.2-0.8
		c0.1-0.2,0.2-0.4,0.3-0.5s0.3-0.2,0.4-0.2c0.5,0,0.9,0.1,1.2,0.2s0.7,0.4,0.9,0.7c0.2,0.3,0.4,0.6,0.6,1c0.2,0.4,0.3,0.9,0.3,1.3
		C201.5,196.7,201.5,197.2,201.5,197.8z M199,193.8c-0.4,0-0.6,0.2-0.8,0.7c-0.1,0.2-0.1,0.4-0.1,0.6c0,0.2,0,0.5,0,0.7
		c0,0.2,0,0.4,0,0.5c0,0.1,0,0.3,0,0.5c0,0.1,0,0.4,0,0.8c0,0.4,0,0.6,0,0.8c0,0.4,0,1,0.1,1.8c0,0.9,0.2,1.7,0.3,2.5
		c0.1,0.4,0.2,0.7,0.3,0.9c0.1,0.2,0.3,0.3,0.5,0.3c0.2,0,0.4-0.1,0.6-0.2s0.3-0.4,0.4-0.7c0.2-0.6,0.3-1.2,0.4-1.9
		c0-0.6,0.1-1.1,0.1-1.5c0-0.5,0-1.1-0.1-2c-0.1-0.9-0.1-1.6-0.1-2v-0.3c0-0.3-0.1-0.5-0.2-0.8s-0.3-0.4-0.5-0.6
		S199.3,193.8,199,193.8z"/>
	<path class="st0" d="M207.5,204.7c-0.2,0-0.5-0.3-0.7-0.8c-0.2-0.5-0.4-1.1-0.5-1.8l-0.1-0.6c-0.3-1.6-0.5-2.5-0.6-2.8h-0.2
		c0,0.3,0,0.6,0,0.9c0,0.3,0,0.6,0,0.9c0,1.5,0.1,2.7,0.3,3.5l-0.2,0.5H205l-0.2-0.2l0-1.1c0-1,0-2.5-0.1-4.6
		c-0.1-2.1-0.1-3.6-0.1-4.6c0-0.5,0.2-0.8,0.6-0.8c0.4,0,0.8,0.1,1.1,0.2c0.3,0.1,0.6,0.3,0.8,0.6s0.3,0.6,0.3,1v1.2
		c0,0.2,0,0.3-0.1,0.6c-0.1,0.2-0.1,0.4-0.2,0.6l-0.3,0.6l-0.3,0.5l0.3,1.6c0.2,0.8,0.3,1.5,0.5,2.1s0.3,1.1,0.5,1.5l0.1,0.2
		c0.1,0.1,0.1,0.2,0.1,0.3s0,0.2,0,0.2c0,0.1,0,0.2-0.1,0.3S207.6,204.7,207.5,204.7z M206.3,195.3c0-0.2,0-0.4,0-0.5s0-0.3-0.1-0.5
		c-0.1-0.2-0.1-0.3-0.3-0.4s-0.3-0.1-0.5-0.2l0,0.1c0,0.1,0,0.1,0,0.1c0,0.6,0,1.2,0,2c0,0.8,0,1.4,0,1.9c0.2-0.1,0.3-0.3,0.5-0.6
		s0.2-0.6,0.3-1C206.3,195.9,206.3,195.5,206.3,195.3z"/>
	<path class="st0" d="M212.9,198.3v5.1c0,0.8-0.2,1.1-0.6,1.1c-0.2,0-0.4-0.1-0.5-0.4c0.1-0.3,0.2-1.2,0.2-2.9c0-0.3,0-0.7-0.1-1.3
		c-0.1-0.6-0.1-1-0.1-1.2v-0.4c-0.1-0.3-0.3-0.8-0.6-1.6s-0.5-1.4-0.7-1.9c-0.2-0.6-0.3-1-0.3-1.2v-0.1l0.4-0.3
		c0.2,0,0.4,0.3,0.6,0.7c0.1,0.3,0.3,0.7,0.4,1.1c0.1,0.5,0.3,0.9,0.4,1.2s0.2,0.6,0.2,0.7c0-0.1,0.1-0.6,0.3-1.3s0.3-1.3,0.5-1.9
		c0.2-0.6,0.4-0.8,0.6-0.8c0.1,0,0.2,0,0.3,0.1s0.1,0.2,0.1,0.3c0,0.6-0.2,1.4-0.5,2.5C213,197,212.9,197.8,212.9,198.3z"/>
</g>
<g>
	<path class="st0" d="M134,220.1c-0.5,0-0.9-0.1-1.2-0.3c-0.1-0.1-0.1-0.3-0.1-0.7c0-0.4,0-0.9,0-1.6c-0.4,0.9-0.7,1.5-1,2
		s-0.8,0.6-1.3,0.6c-0.5,0-1-0.3-1.4-0.8s-0.6-1.3-0.6-2.4c0-1.1,0.3-2.1,0.9-2.9c0.6-0.8,1.4-1.3,2.4-1.3c0.4,0,0.9,0.3,1.5,0.9
		c0.1-0.1,0.3-0.3,0.6-0.5c0.3-0.2,0.5-0.3,0.7-0.3c0.2,0,0.3,0.3,0.3,0.8c0,0.1,0,0.4-0.1,0.8c-0.1,0.4-0.2,0.7-0.3,0.9
		c-0.1,0.3-0.2,1.4-0.2,3.3c0,0.4,0,0.5,0.1,0.5c0.2,0,0.5-0.3,1-0.9s0.8-1.3,1.2-2.2c0.4-0.9,0.6-1.3,0.7-1.3s0.1,0.1,0.1,0.2
		c0,0.4-0.2,1-0.6,1.8C135.6,218.9,134.7,220.1,134,220.1z M131.5,213.6c-0.4,0-0.8,0.3-1.2,0.8c-0.4,0.6-0.6,1.2-0.6,2
		c0,0.8,0.1,1.4,0.3,1.9c0.2,0.5,0.5,0.7,0.9,0.7c0.4,0,1.1-1.1,2-3.4c0-0.1,0-0.3,0.1-0.6c0-0.3,0-0.5,0.1-0.6
		c-0.1-0.2-0.3-0.4-0.6-0.6C132,213.7,131.7,213.6,131.5,213.6z"/>
	<path class="st0" d="M137.6,218.9l0,0.6c0,0.4-0.1,0.6-0.3,0.6c-0.3,0-0.6,0-0.9-0.1c-0.3-0.1-0.4-0.2-0.4-0.4c0-0.2,0-0.7,0.1-1.6
		s0.1-1.6,0.1-2.1v-1.2c0-0.7,0.1-1,0.2-1.2c0.1-0.1,0.4-0.3,0.7-0.6c0.3-0.3,0.6-0.4,0.8-0.4s0.3,0,0.3,0.1c0,0.1,0.1,0.2,0.1,0.3
		c0,0.7-0.1,1.4-0.4,2c-0.1,0.8-0.1,1.3-0.1,1.6c0.1-0.1,0.3-0.5,0.9-1.4s1-1.5,1.3-1.8c0.4-0.4,0.7-0.6,1-0.6s0.5,0.1,0.8,0.3
		s0.3,0.4,0.3,0.7c0,0.6-0.1,1.5-0.2,2.6c-0.1,1.2-0.2,1.9-0.2,2.2s0,0.5,0.1,0.5c0.2,0,0.5-0.3,1-0.9s0.8-1.3,1.2-2.2
		c0.4-0.9,0.6-1.3,0.7-1.3s0.1,0.1,0.1,0.2c0,0.4-0.2,1-0.6,1.8c-1.1,2.3-2,3.4-2.7,3.4c-0.5,0-0.9-0.1-1.2-0.3
		c-0.1-0.1-0.1-0.3-0.1-0.7s0-1,0.1-2c0.1-0.9,0.1-1.6,0.1-2c0-0.4-0.1-0.7-0.2-0.7c-0.2,0-0.6,0.5-1.2,1.4c-0.7,0.9-1,1.5-1.1,1.8
		C137.7,218,137.6,218.5,137.6,218.9z"/>
	<path class="st0" d="M149.4,220.1c-0.5,0-0.8-0.1-1.1-0.3c-0.1-0.1-0.2-0.4-0.2-0.9c0-0.5,0-1.1,0.1-1.8c-0.4,1-0.7,1.7-1.1,2.2
		c-0.4,0.5-0.9,0.8-1.4,0.8c-0.6,0-1.1-0.2-1.5-0.8c-0.4-0.5-0.6-1.3-0.6-2.4c0-1.1,0.3-2.1,0.9-2.9c0.6-0.8,1.4-1.3,2.4-1.3
		c0.5,0,1,0.2,1.5,0.6c0.2-2.6,0.4-4.1,0.6-4.5c0.1-0.1,0.3-0.4,0.6-0.6c0.3-0.3,0.6-0.4,0.8-0.4s0.3,0.3,0.3,1
		c0,0.7-0.1,1.4-0.2,1.9c-0.4,1.4-0.6,2.3-0.7,2.7c-0.2,1.5-0.3,3.2-0.3,5.2c0,0.4,0,0.5,0.1,0.5c0.2,0,0.6-0.3,1-0.9
		c0.4-0.6,0.8-1.3,1.2-2.2c0.4-0.9,0.6-1.3,0.7-1.3s0.1,0.1,0.1,0.2c0,0.4-0.2,1-0.6,1.8C151,218.9,150.1,220.1,149.4,220.1z
		 M146.8,213.5c-0.4,0-0.7,0.3-1.1,0.9c-0.4,0.6-0.5,1.3-0.5,2c0,0.8,0.1,1.4,0.3,1.9c0.2,0.5,0.4,0.7,0.7,0.7
		c0.6,0,1.3-1.2,2.1-3.7c0.1-0.7,0.1-1.2,0.1-1.3C148,213.7,147.5,213.5,146.8,213.5z"/>
	<path class="st0" d="M157.3,218.9l0,0.6c0,0.4-0.1,0.6-0.3,0.6c-0.3,0-0.6,0-0.9-0.1c-0.3-0.1-0.4-0.2-0.4-0.4c0-0.2,0-0.7,0.1-1.6
		s0.1-1.6,0.1-2.1v-1.2c0-0.7,0.1-1,0.2-1.2c0.1-0.1,0.4-0.3,0.7-0.6c0.3-0.3,0.6-0.4,0.8-0.4s0.3,0,0.3,0.1c0,0.1,0.1,0.2,0.1,0.3
		c0,0.7-0.1,1.4-0.4,2c-0.1,0.8-0.1,1.3-0.1,1.6c0.7-1.3,1.2-2.2,1.5-2.6c0.5-0.8,1-1.2,1.4-1.2c0.3,0,0.5,0.1,0.7,0.3
		s0.3,0.5,0.3,0.8c0,0.3,0,0.6,0,0.8c0,0.3,0,0.5,0,0.6c0,0.1,0,0.2,0,0.3c0.1-0.1,0.3-0.4,0.7-0.9c0.4-0.5,0.7-0.8,0.8-1
		c0.1-0.1,0.3-0.3,0.5-0.4c0.3-0.3,0.6-0.5,0.8-0.5s0.5,0.1,0.7,0.3c0.2,0.2,0.3,0.4,0.3,0.7c0,0.6-0.1,1.5-0.2,2.6
		s-0.2,1.9-0.2,2.2s0,0.5,0.1,0.5c0.2,0,0.5-0.3,1-0.9s0.8-1.3,1.2-2.2c0.4-0.9,0.6-1.3,0.7-1.3c0.1,0,0.1,0.1,0.1,0.2
		c0,0.4-0.2,1-0.6,1.8c-1.1,2.3-2,3.4-2.7,3.4c-0.5,0-0.8-0.1-1.1-0.3c-0.1-0.1-0.1-0.3-0.1-0.7s0-1,0.1-2c0.1-0.9,0.1-1.6,0.1-2
		c0-0.4-0.1-0.7-0.2-0.7c-0.2,0-0.6,0.3-1.1,0.9c-0.6,0.6-0.9,1-0.9,1.3c-0.1,0.5-0.1,1.5-0.1,3c0,0.4-0.1,0.6-0.3,0.6
		c-0.3,0-0.6,0-0.9-0.1s-0.4-0.2-0.4-0.4c0-0.2,0-0.8,0.1-2c0.1-1.2,0.1-2,0.1-2.5s-0.1-0.7-0.2-0.7c-0.2,0-0.5,0.5-1.1,1.4
		s-0.9,1.6-1,1.9C157.3,218.1,157.3,218.5,157.3,218.9z"/>
	<path class="st0" d="M173,215.6c0.5-0.2,0.9-0.3,1.1-0.5c0.2-0.1,0.4-0.2,0.5-0.3l0.2-0.1c0.1,0,0.1-0.1,0.2-0.1
		c0.1,0,0.2,0.1,0.2,0.2s-0.2,0.3-0.6,0.6c-0.4,0.3-0.9,0.6-1.6,0.8c-0.1,1.1-0.5,2.1-1.1,2.8c-0.6,0.7-1.5,1.1-2.7,1.1
		c-0.8,0-1.5-0.3-1.9-1c-0.4-0.7-0.7-1.5-0.7-2.4s0.3-1.8,0.8-2.5c0.5-0.8,1.2-1.2,2.1-1.2c0.4-0.3,0.8-0.4,1.4-0.4s1,0.3,1.5,0.8
		C172.7,213.9,173,214.7,173,215.6z M171.7,216.6l-0.7,0c-0.6,0-1.2-0.2-1.6-0.6c-0.4-0.4-0.7-0.8-0.7-1.2c0-0.4,0.1-0.8,0.2-1.2
		c-0.6,0.5-0.9,1.4-0.9,2.7c0,0.7,0.1,1.3,0.4,1.9c0.3,0.6,0.7,0.9,1.3,0.9s1-0.2,1.4-0.7C171.4,217.9,171.6,217.3,171.7,216.6z
		 M170.4,213.2c-0.2,0-0.4,0.1-0.5,0.3c-0.1,0.2-0.2,0.4-0.2,0.6c0,0.5,0.2,0.9,0.5,1.2c0.3,0.3,0.7,0.5,1.2,0.5h0.2
		c0-0.7-0.1-1.3-0.3-1.8C171.2,213.5,170.8,213.2,170.4,213.2z"/>
	<path class="st0" d="M175.8,214.7l1.1-0.1c0.1,0,0.2,0.1,0.3,0.2c0.1,0.1,0.1,0.2,0.1,0.4s0,0.6-0.1,1.4c-0.1,0.8-0.1,1.4-0.1,1.9
		c0,0.5,0,0.7,0.1,0.7c0.2,0,0.5-0.3,1-0.9s0.8-1.3,1.2-2.2c0.4-0.9,0.6-1.3,0.7-1.3s0.1,0.1,0.1,0.2c0,0.4-0.2,1-0.6,1.8
		c-1.1,2.3-2,3.4-2.7,3.4c-0.5,0-0.9-0.1-1.2-0.3c-0.1-0.1-0.1-0.7-0.1-1.8c0-1.1,0.1-2,0.3-2.8c-0.8,0-1.3-0.2-1.6-0.8
		c-0.2-0.3-0.2-0.5-0.2-0.9s0.1-0.6,0.2-0.9s0.3-0.4,0.6-0.4c0.2,0,0.5,0.1,0.7,0.4c0.2,0.3,0.3,0.6,0.3,0.9s-0.1,0.7-0.3,1
		C175.6,214.6,175.7,214.7,175.8,214.7z"/>
	<path class="st0" d="M181.7,220.1c-0.8,0-1.4-0.3-1.8-0.9c-0.4-0.6-0.7-1.2-0.7-2c0-1.5,0.3-2.6,0.9-3.4s1.4-1.1,2.4-1.1
		c0.5,0,0.8,0.1,1.1,0.4c0.3,0.3,0.4,0.6,0.4,1c0,0.8-0.3,1.5-1,2c-0.7,0.5-1.5,0.8-2.5,0.9c0.1,0.5,0.2,1,0.5,1.4
		c0.3,0.4,0.7,0.6,1.1,0.6s0.8-0.1,1.1-0.3c0.3-0.2,0.6-0.5,0.9-0.8c0.6-0.7,1.1-1.6,1.5-2.5c0.1-0.2,0.2-0.4,0.3-0.5
		c0.1-0.1,0.1-0.2,0.2-0.2c0.1,0,0.1,0.1,0.1,0.2c0,0.7-0.4,1.7-1.2,3C184.1,219.3,183,220.1,181.7,220.1z M180.6,216.6
		c0.8-0.1,1.4-0.4,1.8-0.8c0.4-0.4,0.6-0.9,0.6-1.5c0-0.6-0.2-0.9-0.6-0.9c-0.5,0-0.9,0.3-1.2,1C180.8,215,180.6,215.8,180.6,216.6z
		"/>
</g>
<polygon class="st0" points="194.7,216.6 188.1,220.4 188.1,212.8 "/>
</svg>
