<?xml version="1.0" encoding="utf-8"?>
<!-- Generator: Adobe Illustrator 20.0.0, SVG Export Plug-In . SVG Version: 6.00 Build 0)  -->
<svg version="1.1" id="Layer_1" xmlns="http://www.w3.org/2000/svg" xmlns:xlink="http://www.w3.org/1999/xlink" x="0px" y="0px"
	 viewBox="0 0 300 250" style="enable-background:new 0 0 300 250;" xml:space="preserve">
<style type="text/css">
	.st0{fill:#47362A;}
	.st1{clip-path:url(#SVGID_2_);}
	.st2{fill:#684831;}
	.st3{fill:#895B37;}
	.st4{fill:#563B31;}
	.st5{clip-path:url(#SVGID_2_);fill:none;stroke:#604433;stroke-miterlimit:10;}
</style>
<rect x="-1.1" y="-0.9" class="st0" width="302.4" height="250.8"/>
<g>
	<defs>
		<rect id="SVGID_1_" x="-1.2" y="0.2" width="301.9" height="250.1"/>
	</defs>
	<clipPath id="SVGID_2_">
		<use xlink:href="#SVGID_1_"  style="overflow:visible;"/>
	</clipPath>
	<g class="st1">
		<path class="st2" d="M300.4,77.8c0,1.7,0,3.3,0,5c-12.5,0-25.1,0-36.7,0c-0.2,0,0.5-0.1,1.1-0.3c0,0,0-0.2,0,0.4
			c-4.8,0-9.6,0.1-14.3-0.1c-2-0.1-4.1-1-6.1-1c-7-0.1-13.9-0.1-20.9,0.1c-6.4,0.2-12.8,0.6-19.2,1c-4.6,0.3-9.1,1.1-13.7,0.9
			c-5.5-0.2-11-1.7-16.5-1.8c-6.5-0.1-13.1,0.8-19.6,0.9c-15.8,0.1-31.6,0-47.4,0c0,0.4-0.1,0.8-0.1,1.2c7.3,1.1,15.4-1.9,22,4.2
			c-9,0-17.8,0-26.7,0c0,0.4,0,0.8,0,1.1c1.4,0.1,2.9,0.1,4.3,0.2c0,0.3,0,0.6,0,0.9c-3.4,0-6.9,0-10.3,0c0,0.4,0,0.8,0,1.2
			c2.1,0.1,4.3,0.3,6.4,0.3c8.8,0.1,17.5,0.4,26.3,0.3c11.8-0.1,23.5-0.3,35.3-0.5c2.4,0,4.7-0.6,7.1-0.6c8.2,0.1,16.4,0.4,24.5,0.4
			c8.2,0,16.4-0.4,24.6-0.5c14-0.1,28.1,0,42.1,0.1c2.9,0,5.8,0.1,8.8,0.1c3.5,0,7.1-0.2,10.6-0.2c6.1,0,12.3,0,18.4-0.1
			c0,3.1,0,6.1,0,9.2c-3.4,1-6.8,2.7-10.2,2.8c-6.9,0.1-13.9-0.7-20.8-1.1c-2.2-0.1-4.5-0.8-6.6-0.5c-7.8,0.9-15.5,2.6-23.3,3
			c-9.2,0.5-18.4,0.1-27.6-0.1c-4.8-0.1-9.5-0.8-14.3-1.2c0-0.2,0-0.5,0-0.7c0.7-0.3,1.4-0.5,2.6-1c-8.8,0-17,0-25.3,0
			c-0.2,0.3-0.3,0.6-0.5,0.9c0.6,0.1,1.3,0.2,1.9,0.3c-0.2,0.3-0.3,0.5-0.5,0.8c-10.2-0.6-20.5-1.2-30.7-1.8c0,0.5-0.1,1-0.1,1.6
			c4,0.5,8,0.9,12,1.4c3.9,0.5,7.9,0.9,11.8,1.3c0.8,0.1,1.6,0.1,2.4,0.1c3-0.3,6-0.8,8.9-0.8c2.9,0,5.8,0.8,8.7,0.7
			c8.4-0.1,16.8-0.5,25.2-0.7c0,0.2,0,0.4,0,0.7c-3,0.4-6,0.7-9.1,1.1c0,0.1,0.1,0.3,0.1,0.4c21.8,0,43.7,0,65.5,0
			c0,0.4,0,0.8,0,1.2c-4.7,0-9.5,0-14.2,0c0,0.1,0,0.3,0.1,0.4c7.3,0,14.5,0,21.8,0c0-0.4,0.1-0.8,0.1-1.2c-0.8-0.4-1.7-0.7-3.4-1.5
			c2.4-0.3,3.7-0.6,5.1-0.6c6.8,0.2,13.6,0.4,20.4,0.6c0,0.3,0,0.6,0,0.8c-6.3,0-12.7,0-19,0c0,0.7,0,1.3,0.1,2
			c6.3-0.4,12.6-0.8,19-1.2c0,0.6,0,1.1,0,1.7c-5.4,0.8-10.8,1.6-16.2,2.4c-1.6,0.2-3.3,0.2-4.9,0.3c0,0.2,0,0.5,0,0.7
			c7,0,14.1,0,21.1,0c0,0.6,0,1.1,0,1.7c-9,0-18.1,0-27.1,0c0-0.3-0.1-0.6-0.1-0.9c0.8-0.4,1.5-0.8,2.8-1.4
			c-12.5-0.5-24.4-1-36.3-1.4c0,0.3,0,0.7,0,1c2,0.2,4,0.4,6,0.6c0,0.2,0,0.3,0,0.5c-6.3-0.4-12.6-0.8-18.9-1.3c0,0.4,0,0.7,0,1.1
			c6.5,0.5,13,1.4,19.6,1.5c6.4,0.1,12.7-0.6,19.1-1c0,0.6,0.1,1.2,0.1,1.8c-3,0.1-6.1,0.2-9.1,0.2c-7.8,0-15.7,0.9-23.3-0.3
			c-7.3-1.2-14.8,2.8-21.9-1.4c-1.6-0.9-4-0.3-6-0.6c-11.6-2.1-22.8,0.9-34.2,3c18,0.7,35.9,1.3,53.9,2c0-0.2,0-0.4,0.1-0.6
			c-0.9-0.2-1.7-0.4-2.6-0.5c3.3-0.2,6.5,0.8,9.7,0.9c14.8,0.2,29.5,0.2,44.3,0.2c2.6,0,2.8,0.3,3.2,2.9c-19.7,0-39.5,0-59.3,0
			c0.4,0.9,0.9,1.2,1.3,1.2c7.7-0.5,15,1.7,22.5,2.7c0.3,0,0.7,0.4,2.1,1.3c-2.8,0.5-4.6,0.8-6.3,1.2c-6.7,1.8-13.2-2.1-20.2,0.4
			c-4.6,1.7-10.2,0.6-15.4,0.5c-5.7,0-11.4-0.4-17.1-0.4c-0.8,0-1.6,1.2-3,2.3c-1.3,0-3.6,0-6.4,0c1.9-0.4,3.2-0.7,4.4-0.9
			c0-0.4-0.1-0.8-0.1-1.2c-11.5-0.6-23.1,3.5-34.7,0.9c0.5-0.9,0.8-1.5,0.9-1.8c-22.9,0.4-45.6,0.9-68.3,1.3
			c7.5,1.7,15.3,0.1,22.5,3.3c-2-0.1-4.1-0.3-6.1-0.4c0.2,0.4,0.3,0.8,0.5,1.3c-0.7,0.6-1.4,1.3-1.8,1.7c6.7,0,13.8,0,20.9,0
			c7.3,0,14.6,0,21.9,0c0,0.2,0,0.4,0,0.6c-0.5-0.1-1.1-0.3-1.6-0.4c0-0.2,0-0.4,0.1-0.7c4.4,0.3,8.8,0.7,13.2,1c0,0.5,0,1,0,1.5
			c-32.7,1.4-65.4,0.5-98.1,1.8c0,0.5,0,0.9,0.1,1.4c1.3,0,2.6,0,3.8,0c0,0.3,0,0.7,0,1c-8.4,1-16.8-1.8-25.2-1.3
			c0.9,0.2,1.9,0.3,2.8,0.5c0,0.3-0.1,0.6-0.1,0.9c-8.6,0-17.3,0-25.9,0c0-0.4,0-0.9,0-1.3c4.9,0,9.9,0,14.8,0c0-0.4,0-0.9,0-1.3
			c-13,0-25.9,0-38.9,0c0,0.1,0,0.1,0,0.2c3.9,0,7.7,0,11.6,0c-12.7,4.3-25.4,1.4-38-0.2c5,1.6,9.8,3.8,14.8,4.2
			c11.9,0.9,24,1.1,35.9,1.1c19.1,0.1,38.2-0.2,57.2-0.2c5.4,0,10.9,0.4,16.3,0.2c9.3-0.4,18.6-1.3,27.9-1.6
			c12.9-0.5,25.8-0.8,38.7-1c9.9-0.2,19.8-0.5,29.7,0.1c6.9,0.5,14-1.2,20.7,2.1c0.7,0.3,1.8-0.4,3.4-0.8c-1.3-0.6-1.7-0.8-2.2-1
			c0.1-0.3,0.2-0.5,0.3-0.8c2.1,0.5,4.1,1,6.8,1.6c3.9-0.4,8.9-0.8,13.8-1.2c0,0.5,0.1,1,0.1,1.5c-3-0.3-6-0.5-9-0.8
			c4.7,1.6,9.5,2.4,14.3,2.8c4.9,0.4,9.7,0.5,14.6,0.6c4.7,0.1,9.3,0,14,0c0,0.4,0,0.8,0,1.3c-8.2,0-16.5,0-24.7,0
			c0,0.5,0,1.1,0,1.6c10,0,20-0.3,30,0.1c5.9,0.2,11.3-2.8,17.7-0.9c5.7,1.7,12.3,0.3,18.6,0.3c0,0.5,0,0.9,0,1.4
			c-11.1,0-22.2,0-33.3,0c0,0.4,0,0.7,0,1.1c1.1,0.1,2.2,0.2,4,0.4c-59.2-0.7-117.7-1.4-176.2-2.1c0-0.4,0-0.8,0-1.2
			c2-0.2,3.9-0.5,5.9-0.7c0-0.3,0-0.7-0.1-1c-25.6,0.9-51.3,1.9-76.9,2.8c0,0.3,0,0.7,0,1c10.8,0,21.7,0,32.5,0c0,0.4,0,0.8,0,1.2
			c-7.2,0.6-14.3,1.2-21.5,1.7c0,0.3,0.1,0.5,0.1,0.8c8.7,0.5,17.4,1.1,26.1,1.6c0,0.2,0,0.5,0,0.7c-8.2,0-16.5,0-24.7,0
			c-8.2,0-16.4,0-24.6,0c0,0.6,0,1.2,0,1.8c2.7,0,5.3,0.1,8,0c17.8-0.4,35.6,2,53.4,1.6c9-0.2,18.1-0.4,27.1-0.2
			c9.4,0.3,18.8,1.2,28.2,1.6c4.2,0.2,8.5-0.2,12.7-0.4c0.5,0,1.3-0.2,1.6,0.1c4.9,4.3,8.8-1.5,13.3-0.6c0-0.6,0-1.2,0-1.8
			c-8.9,0-17.8,0-26.7,0c0-0.5,0-0.9,0-1.4c2.6-0.5,5.1-1.4,7.7-1.5c15.6-0.5,31.2-0.8,46.8-1.1c3.3-0.1,6.7,0.4,10,0.8
			c4.7,0.6,9.3,2,14-0.4c1-0.5,2.5-0.3,3.7-0.1c1.3,0.2,2.5,1.1,3.7,1.1c1.7,0,3.4-0.9,5.1-0.9c9.1,0,18.2,0.3,27.4,0.2
			c13.1-0.1,26.2-0.5,39.2-0.7c0.3,0,0.6-0.3,1.1-0.5c-1.3-0.6-2.2-1.1-4-2c7.8,0,14.6,0,21.4,0c0,4.7,0,9.5,0,14.2
			c-2.9-0.1-5.8-0.2-8.7-0.3c-9.6-0.3-19.2-0.7-28.8-0.9c-7.2-0.1-14.4,0.4-21.6,0.3c-10.8-0.2-21.6-1.4-32.4-0.9
			c-11.4,0.5-22.8-1.5-34.2,1.5c-4.7,1.2-10,0.1-15,0.1c-21.3,0-42.6,0-63.9,0c-11.3,0-22.6-0.2-33.9-0.1
			c-14.6,0.1-29.3,0.1-43.9,0.4C5.6,165.1-7,163-19.4,166.2c-1.3,0.3-2.8,0-4.2,0c0-0.3,0-0.7,0-1c1.6-0.1,3.2-0.3,4.8-0.4
			c0-0.3-0.1-0.6-0.1-0.9c-26.4,1-52.9,1.9-79.3,2.9c0.9,0.5,2,1,4.1,2.1c-4.2,0-7.1,0-10.1,0c0,0.3,0,0.6,0,0.9
			c4.5,0.8,9.1,1.5,14.5,2.4c-1.7,0.6-2.8,1-3.8,1.3c5.6,0.3,11.1,0.6,16.6,0.9c0,0.3,0,0.6-0.1,0.9c-1.4,0.1-2.7,0.3-4.1,0.4
			c0,0.5,0,0.9,0,1.4c7.8,0.3,15.7,0.6,23.5,1c1.8,0.1,3.5,0.4,5.3,0.7c-2.9,0.5-5.4,0.5-8,0.5c-8.9,0.2-17.8,0.6-26.6,0.4
			c-11-0.2-22-1-33-1.4c-1,0-2.1,0.6-3.1,0.9c-1.2,0.4-2.3,0.7-3.5,1c-0.1,0-0.3-0.1-0.3-0.2c0.5-0.3,1-0.5,1.4-0.8
			c-0.1-0.4-0.2-0.8-0.3-1.1c-2.3,0.5-4.5,1-6.8,1.4c-1.6,0.3-3.2,0.8-4.7,0.7c-3.1-0.2-6.2-1-9.3-1.1c-5.1-0.2-10.2-0.1-15.2-0.1
			c8.9-1.4,17.7-2.1,26.6-2.4c8.7-0.2,17.2-2,25.9-1.8c-2.5-1.2-5-1.5-7.5-1.8c-1.9-0.2-4.9,0.3-5.6-0.7c-1.4-2.3-3-1.3-4.6-1.3
			c-11.3,0.2-22.6,0.4-33.9,0.5c-3,0-5.9,0-8.9,0c0,0.3,0.1,0.6,0.1,0.9c1.4,0.3,2.9,0.7,4.3,1c-0.1,0.4-0.2,0.8-0.3,1.2
			c-1.8-0.3-4.5,0.1-5.4-1c-2.4-3-5.2-2.3-8.2-2.4c-2.9-0.1-5.9-0.5-8.8-0.7c0-0.3,0-0.5,0-0.8c8.6-0.5,17.2-0.9,25.8-1.4
			c0-0.3,0-0.7-0.1-1c-10.9,0-21.8,0-32.8,0c0,0.1,0,0.3,0,0.4c0.7,0.2,1.5,0.3,2.2,0.5c0,0.1,0,0.2-0.1,0.3c-2.8,0-5.6,0-8.3,0
			c0.7-1.3,1.7-2.1,2.8-2.2c6.5-0.4,13.1-0.6,19.6-1c1.3-0.1,2.6-0.4,4-0.7c-0.1-0.4-0.1-0.8-0.2-1.3c-9,0-18.1,0-27.2,0
			c0-2,0-3.5,0-5.8c59.9-0.6,119.5-1.1,179.2-1.7c0-0.4,0-0.8,0-1.2c-5.9,0-11.9,0-17.8,0c-12.4,0.1-24.8,0.4-37.2,0.2
			c-13.1-0.2-26.2-0.7-39.3-1.1c-3.5-0.1-7.1-0.2-10.5-0.6c-1-0.1-1.9-1.6-2.8-2.4l0,0c12.4,0.5,24.7,1.4,37.1,1.5
			c14.3,0.1,28.7-0.3,43-0.8c8.4-0.3,16.8-1.4,25.2-1.7c9.7-0.3,19.5-0.2,29.2,0c1.6,0,3.1,1.3,4.9,2.2c1.8-0.9,4.1-2.1,7.6-3.9
			c-23.4,0-45.8,0-68.2,0c0,0.1,0,0.2,0,0.4c0.9,0.2,1.7,0.3,2.6,0.5c0,0.2,0,0.3,0,0.5c-8.6,0-17.2,0-26.1,0
			c0.7-0.6,1.2-1.1,2.4-2.2c-8.8,0-16.5,0-24.3,0c0-0.4,0-0.9-0.1-1.3c1.3-0.1,2.6-0.4,3.9-0.4c3.5-0.1,7.1,0.4,10.4-0.3
			c4.2-0.9,8-1.7,12.6-1.1c8.9,1.2,18,0.3,26.7,0.3c-7.8-0.4-16-0.8-24.2-1.2c0-0.3,0-0.6,0-1c10.7,0,21.3,0,32,0c0-0.5,0-1.1,0-1.6
			c-6.1,2.4-11.7-0.7-17.7-0.5c-17.4,0.4-34.8-0.2-52.2-0.3c-0.4,0-0.8,0.1-1.2,0.2c-2.6,0.5-5.2,1-7.8,1.4
			c-1.9,0.3-3.9,0.3-5.7,0.5c1.2,3.9,3.4,3.4,6,2.4c0.6-0.2,1.8,0.9,2.7,1.4c-0.9,0.7-1.5,0.7-2,0.7c-8.4,0.1-16.5-2.5-25.1-2.4
			c-13.1,0.2-26.2,1-39.4-0.2c-5.8-0.5-11.7,0.1-17.5-0.2c-2.2-0.1-4.4-1.1-6.6-1.7c2.2-1,4.5-3.1,6.6-2.9c13.8,1,27.5-2.5,41.4,0.4
			c4.7,1,10-0.5,15-0.5c12.4-0.1,24.8,0,37.2,0c0-0.7,0-1.3,0.1-2c-10.9-1.8-22-0.1-33-0.4c-11.1-0.3-22.3-0.3-33.4-0.4
			c-11.2-0.1-22.4,0-33.5,0c-1.1-6.1,3-4.7,5.2-4.6c14.2,0.5,28.4,1.5,42.6,2c15.2,0.5,30.4,0.5,45.6,0.8c3.9,0.1,7.8,0,12.5,0
			c-1.9-0.9-3.5-1.2-3.8-2c-1.2-3.2-3.8-3.4-6.5-3.4c-9.6-0.1-19.2-0.2-28.8-0.1c-9.3,0.1-18.6,0.5-28,0.5c-12-0.1-24-0.4-35.9-0.8
			c-1.1,0-2.1-1-3.2-1.5c1-0.5,2-1.5,3-1.5c11.3-0.2,22.5-0.2,33.8-0.4c2.8,0,5.5-0.4,8.2-0.7c-3.5-0.9-7-1.4-10.4-1.4
			c-10.2,0.1-20.3,0.4-30.5,0.7c-2.8,0.1-4.7-0.2-4.2-3.8c0.4-2.7-0.8-6,4.3-5.5c3.8,0.4,8,1,11.5-1.8c0.5-0.4,1.6-0.3,2.4-0.3
			c8.8,0.5,17.7,1.2,26.5,1.4c10.4,0.2,20.9,0.1,32.7,0.1c-1.4,0.7-1.9,1-2.4,1.2c2.7,0,5.2-0.9,7.8-1.5c1.1-0.3,2.4-0.3,3.4,0.1
			c1.8,0.8,3.4,2,5,3.1c0.3-0.4,0.7-0.9,1-1.3c-1-1.1-1.8-2.8-3-3.1c-2.8-0.6-5.8-0.7-8.7-0.7c-5-0.1-10.1,0-15.1,0
			c0-0.1,0-0.1,0-0.2c2.1-0.1,4.1-0.3,6.2-0.4c0-0.4,0-0.8,0-1.1c-20.2,0-40.4,0-60.7,0c0-0.3,0-0.6,0-0.9c5.3-0.5,10.7-1.1,16-1.6
			c0-0.3,0-0.6,0-1c-8.9,0-17.8,0-26.7,0c0-2.6,0-4.2,0-6.2c7.1,0,13.8,0,21.6,0c-2.4-0.8-3.9-1.3-5.3-1.8c0.1-0.2,0.1-0.4,0.2-0.6
			c2.4,0.2,4.7,0.4,7.1,0.6c0-0.5,0.1-1,0.1-1.5c-7.9-0.5-15.8-1.1-23.7-1.6c0-0.5,0-0.9,0-1.4c1.4-0.1,2.9-0.2,4.3-0.4
			c1.4-0.2,2.7-0.4,4-0.6c0-0.2-0.1-0.4-0.1-0.6c-2.7-0.2-5.4-0.4-8.2-0.7c0-7.3,0-14.1,0-21.5c2.4,0,4.5-0.1,6.6,0
			c11.8,0.8,23.6,2,35.4,2.4c13.1,0.5,26.2,0.6,39.3,0.6c5.1,0,5.1-0.3,8.3-4c-29.7-0.6-59.6-1.3-90.7-1.9c0.9-3.7,1.8-7,2.7-10.2
			c1.3,0.3,2.7,0.8,4,0.9c5.2,0.2,10.5,0.3,15.7,0.4c7.2,0.1,14.3,0,21.5,0c0-0.5,0-1,0-1.4c-6.7,0-13.4,0-20,0
			c-7.1,0-14.1,0.1-21.2,0.2c-0.6-1.3-1.7-2.6-1.8-4c-0.1-7.9,0-15.8,0-23.8c0-2.5-0.9-5.8,0.3-7.3c1.3-1.5,4.7-1.3,7.1-1.9
			c0.1,0,0.1-0.2,0.3-0.7c-2.5,0-4.9,0-7.6,0c0-1.9,0-3.7,0-6.3c12.3,0,24.7,0,37,0c0-0.7,0.1-1.3,0.1-2c-2.4-0.1-4.9-0.4-7.3-0.4
			c-8.8,0.2-17.5,0.4-26.3,0.7c-3,0.1-4-1.2-3.9-3.9c0.1-2.7,0.3-5.5,0.4-8.4c11.4,1.2,22.5,2.5,33.6,3.7c0,0.1,0,0.3,0,0.4
			c-6.9,0-13.8,0-20.6,0c0,0.5,0,1,0.1,1.5c9.7-0.7,19.4-1.5,29.2-2.2c1.2-0.1,3-0.3,3.7,0.4c4,3.8,8.6,2.7,13.2,2.2
			c2.2-0.2,4.5-0.3,6.7-0.4c0,0.3,0,0.6,0.1,0.9c-1.9,0.4-3.9,0.8-5.8,1.2c0,0.2,0,0.4,0.1,0.6c5.3,0.3,10.5,0.7,15.8,1
			c0-0.3,0.1-0.5,0.1-0.8c-1.4-0.7-2.8-1.5-4-2.1c6.7-0.5,13.3-1.2,19.9-1.5c7.2-0.2,14.4-0.2,21.6,0c4.3,0.1,8.5,1.1,12.8,1.2
			c8.9,0.1,17.8-0.3,26.7-0.2C-36.9,5.5-25,5.9-13,6.1c3.2,0,6.4-0.6,9.6-0.9c0-0.4,0-0.8,0-1.2c-2.9-0.3-5.9-0.6-8.8-0.9
			c4.1-0.8,8.3-1,12.4-1.6c2.9-0.4,5.7-1.7,8.5-1.7c11.3,0,22.6,0.7,33.8,0.5C59.9,0.1,77.2-1,94.4-1.2c27.9-0.2,55.8,0,83.7,0
			c4.7,0,9.6-0.5,14.2,0.3c3.9,0.7,7.9,1.1,11.7,3.2c2.6,1.4,6.2,0.8,9.4,1.1c0,0.4,0,0.7,0,1.1c-12.1,0.9-24.2,1.7-36.3,2.6
			c0,0.4,0,0.8,0,1.2c11.4,0.3,22.7,1,34.1,1c9.4,0,18.8-0.8,28.2-1.3l0,0c6.9,2.5,13.8,4.8,21.3,4.1c6.8-0.6,13.5-2,20.6-1.4
			c6.2,0.6,12.7-1,19-1.6c0,13.1,0,26.2,0,39.3c-3.5-0.5-7.1-1.5-10.6-1.5c-13.9-0.1-27.8,0.2-41.7,0.3c-10.9,0.1-21.8,0-32.6,0.3
			c-2.5,0.1-5,1.4-7.5,2.1c0.1,0.5,0.2,1,0.3,1.5c11.3,0,22.5,0,33.8,0c11,0,22,0,32.9,2c-0.5,0.8-1,1.1-1.5,1
			c-8.9-1.1-17.7,1.4-26.6,0.2c-4.2-0.5-8.6,0.4-12.9,0c-5.5-0.4-10.9-1.7-16.3-2.1c-4.3-0.3-8.6,0.5-12.9,0.6
			c-4.8,0.1-9.7,0-14.5,0c0-0.6,0.1-1.3,0.1-1.9c4.4,0,8.9,0,13.3,0c-7.2-2.2-14.4-4.4-21.6-4.8c-7.2-0.4-14.6,1.1-21.9,1.4
			c-4,0.2-8-0.8-12-0.8c-11.7,0.1-23.4,0.5-35,0.8c-13,0.2-26,0.3-39,0.5c-16,0.2-32,0.4-48,0.6c-3.9,0-7.9,0-11.8,0
			c0-0.5-0.1-0.9-0.1-1.4c7.2-0.5,14.4-1,21.2-1.4c0.2,0.1-0.1-0.2-0.5-0.3c-7.9-1-15.9-2-23.9-2.9c-0.8-0.1-1.6,0.3-2.4,0.5
			c-1.2,0.3-2.3,0.9-3.5,0.9c-4.7,0-9.4-0.2-14-0.2c-12.5,0.1-25.1,0.4-37.6,0.3c-16.1-0.1-32.3-1.4-48.4,0.7
			c-0.8,0.1-1.6-0.2-2.5-0.3c-2.1-0.5-4.2-1.3-6.4-1.4c-6.5-0.3-13.1-0.2-19.6-0.3c-10.7-0.2-21.5-0.7-32.2-0.7
			c-1.9,0-3.8,1.8-5.8,2c-3.6,0.3-7.2,0.1-10.8,0.1c17.8,1.7,35.8-1,53.4,2.8c0,0.4,0,0.7,0,1.1c-10,0-20.1,0-30.1,0
			c0,0.5,0,1,0,1.5c23.2,1.1,46.3,1.5,69.6,0.2c-0.2,0.4-0.4,0.9-0.3,0.6c11.2,0,22.7,0,34.2,0l-0.1-0.1c6.2,0.3,12.5,0.7,18.7,0.8
			c9.5,0.1,19,0,27.7,0c-2.2-0.2-5.1-0.6-8.1-0.9c1.9-0.8,3.9-1.2,5.7-0.8c11.8,2.6,23.8,1.9,35.8,2.3c9.9,0.3,19.7,0.4,29.6,0.6
			c0,0.6,0,1.2,0,1.7c-8.4,0-16.9,0-25.3,0c0,0.6,0,1.2,0,1.8c5.7,0,11.3,0,17,0c3.6,0,7.3,0.7,10.8,0.3c13.5-1.7,26.9-1.1,40.4,0
			c8,0.6,16,1.1,24,1.6c-0.6-0.6-1.3-0.5-2-0.6c-0.7-0.1-1.3-0.3-2-0.5c0-0.3,0.1-0.5,0.1-0.8c13.7,1.1,27.4,2.2,41.1,3.3
			c0,0.5,0,0.9,0,1.4c-11.2,0-22.4,0-33.6,0c0,0.4,0,0.7,0,1.1c18,0.1,36,1.4,54-0.3c0-0.4,0-0.7,0-1.1c-4.3,0.3-8.6,0.5-12.9,0.8
			c0-0.4-0.1-0.8-0.1-1.2c7.2-2.2,14.8-2,22.2-2.7c-1.6-0.8-3.2-1-4.8-1.1c-1.5-0.1-3,0-4.4,0c0.1-0.5,0.2-1.1,0.3-1.6
			c6.4,1.4,12.7,2.8,19.1,4.2c0,0.4-0.1,0.7-0.1,1.1c-5.3,0.3-10.6,0.5-15.9,0.8c2.6,6.2,7.3,2.9,11.2,3.2c0.4,0,0.8,0,1.3,0.1
			c8.6,0.4,17.2,1,25.9,1.3c3,0.1,6.1-0.8,9.1-0.6c7.3,0.6,14.5,1.6,21.8,2.5c-12.5,0.8-24.9-0.7-37.3,1.5c2,0.3,4,0.5,6,0.8
			c-7.2,0.2-14.2-0.6-21.3-1c-3-0.1-6.1,1-9.1,1c-2.5,0-4.9-1.4-7.4-1.4c-2.9,0-5.7,1.5-8.6,1.4c-4.4-0.1-8.8-1.3-13.3-1.4
			c-12.9-0.3-25.9-0.2-38.8-0.3c-4,0-8,0-12,0c0,0.4,0,0.8,0,1.2c3.7,0,7.5,0,11.2,0c-6.7,0.7-13.4,0.9-20.1,0.6
			c-3.7-0.1-7.3-1.4-11-1.5c-4.7-0.1-9.4,0.5-14.1,0.8c-8.9,0.4-17.9,0.8-26.8,1.2c-0.4,0-0.9,0-1.2,0.1c-3.7,1.2-7.2,1.3-11.3,0.8
			c-9.5-1.1-19.2-0.8-28.7-1.1c-1.5-0.1-3-0.4-4.6-0.6c0-0.4,0.1-0.7,0.1-1.1c9.3,0,18.6,0,27.9,0c0-0.3,0-0.6,0-0.9
			c-15.5,0-31,0-46.5,0c0,0.3,0,0.5,0,0.8c3.7,0,7.5,0,11.5,0c-3,0.9-5.6,1.8-8.2,2.6c0.1,0.5,0.1,0.9,0.2,1.4c7.3,0,14.5,0,21.8,0
			c0,0.4,0,0.9,0.1,1.3c-3.3,0.3-6.6,0.6-9.9,1c0,0.5,0.1,0.9,0.1,1.4c2.4,0,4.9,0,7.3,0c19.3,0.1,38.6,0.4,57.9,0.3
			c14.5-0.1,28.9-0.9,43.4-1.3c10.7-0.3,21.4-0.1,32.1-0.4c7.4-0.2,14.8-0.7,22.2-1c9-0.3,18-0.5,27.1-0.7c0.9,0,1.7,0.2,2.6,0.3
			c0,0.2,0,0.4,0,0.7c-1.3,0.2-2.5,0.4-3,0.5c2.1,0.5,4.7,1.3,7.4,1.9c1.5,0.3,3.3,0.8,4.5,0.3c6-2.8,12.3-1.4,18.5-1.5
			c6.7-0.1,13.4,0.9,20.1,1c12.4,0.1,24.8-0.1,37.2-0.1c1.9,0,4.7-0.6,5.6,0.4C294.8,78.5,297.6,77.8,300.4,77.8z M226.2,102.4
			c4.2,0.6,8.5,1.2,12.7,1.7c0.1-0.6,0.2-1.2,0.3-1.8c-2.7-0.8-5.4-1.6-8.2-2.3c-0.1,0.3-0.2,0.6-0.3,0.9c0.8,0.3,1.5,0.7,2.3,1
			c0,0.2-0.1,0.4-0.1,0.6c-2.3,0-4.5,0-6.8,0c-0.4-0.6-0.8-1.8-1.2-1.8c-5.6,0.1-11.2,0.5-16.9,0.7c0,0.4,0,0.8,0,1.2
			c1.8,0,3.7,0,5.5,0C217.7,102.6,221.9,102.5,226.2,102.4z M-116.2,11.7c7.1,0.9,14.1,1.7,21.5,2.6c-1.4-4.9-4.9-3.8-7.6-3.7
			c-4.7,0.1-9.3,0.8-14,1.2c-0.9-0.2-1.8-0.7-2.7-0.7c-8.7,0.4-17.4,1.1-26.1,1.4c-2.9,0.1-5.7-1.1-8.6-1.4
			c-2.8-0.3-5.6-0.1-8.4-0.1c0,0.4,0,0.9,0,1.3c1.3,0.3,2.6,0.8,4,0.8c9.3,0.1,18.6,0.2,28-0.1C-125.6,13-120.9,12.2-116.2,11.7z
			 M-123.2,126.7c1.7,0.4,3.4,1.3,5.1,1.2c12.4-0.6,24.7-1.5,37.1-2.2c2.3-0.1,4.7,0.3,7,0.8c4.3,0.9,8.6,2,12.9,3.1
			c0.1-0.5,0.2-1,0.3-1.6c-3-0.3-6.5,0.2-8.9-1.2c-5.2-3-10.6-2.1-15.9-2.2c-9.2,0-18.3,0.4-27.5,0.8
			C-116.4,125.5-119.8,126.2-123.2,126.7c-5.7,0-11.4,0-17.1,0c0,0.4,0,0.8,0.1,1.2C-134.5,127.5-128.9,127.1-123.2,126.7z M20.1,7
			c-0.8,0-1.7,0-2.5,0.1C7.3,8.7-2.9,10.6-13.5,10C-23,9.4-32.7,9.4-42.3,9.3c-3.9,0-7.8,0.4-11.7,0.5c-12.9,0.5-25.8,1-38.6,1.5
			c-0.2,0-0.5,0.5-0.9,1c27.4,1.3,54.4,2.6,81.5,3.9c0-0.2,0-0.4,0-0.6c-1-0.3-1.9-0.6-2.9-0.8c0-0.3,0.1-0.5,0.1-0.8
			c31.7,0.8,63.5,1.6,95.2,2.4c0,0.2,0,0.5,0,0.7c-1.5,0.4-3,0.7-4.4,1.1c0.1,0.5,0.2,1.1,0.3,1.6c4.3-0.7,8.6-1.7,13-1.9
			c4.6-0.3,9.2,0.3,13.7,0.3c4.7,0,9.5-0.5,14.2-0.4c4.3,0.1,8.6,0.8,12.9,1.2c0,0.2-0.1,0.5-0.1,0.7c-2.7-0.2-5.5-0.4-8.2-0.6
			c0.2,1.2,0.5,1.7,0.7,1.6c9.3-0.3,18.7,0.5,27.7-2.9c1.1-0.4,2.4-0.6,3.6-0.6c7.9-0.2,15.9-0.3,23.8-0.6
			c13.7-0.4,27.6,0.2,41.2-2.6c0.7-0.1,1.6,0.7,2.4,1.2c4,2.4,10.8,0.5,12.3-4c-9.4,0-18.5-0.2-27.6,0.1c-6.3,0.1-12.6,0.8-18.9,1.2
			c-2.4,0.2-4.8,0.1-7.1,0.5c-2.6,0.5-5.1,1.3-7.6,2c-0.1-0.4-0.2-0.8-0.3-1.1c1.4-0.3,2.7-0.7,4.1-1c-0.1-0.4-0.2-0.9-0.3-1.3
			c-2.3,0.5-4.7,1.2-7,1.6c-1.9,0.4-4,1.2-5.6,0.6c-7.3-2.4-14.6-0.9-22-1.1c-1.3,0-2.6,0.3-3.9,0.4c0,0.3,0,0.5,0,0.8
			c3.4,0.5,6.8,1,10.2,1.5c0,0.4-0.1,0.8-0.1,1.2c-11.5,0-23,0-34.5,0c0-0.4,0-0.8,0-1.1c6.8-0.4,13.5-0.7,20-1.1
			c-3.2-1.3-6.4-2.6-9.7-3.8c-0.5-0.2-1.1-0.1-1.7-0.2C110.5,10,99.4,9.6,88.3,9.1C85.7,9,83,8.7,80.4,8.4c1.5-1.3,3.1-2.2,4.6-2.2
			c5.7-0.1,11.4,0.1,17.1,0.3c7.7,0.2,15.5,0.7,23.2,0.5c9.8-0.3,19.6-1.4,29.4-1.9c6.8-0.4,13.7-0.5,20.5-0.6
			c1.6,0,3.2,0.7,4.8,0.8c2.2,0.2,4.5,0.3,6.8,0.4c0-0.6,0.1-1.1,0.1-1.7c-3.5-0.4-7.1-1.6-10.6-1.2c-7.3,0.9-14.2,1.5-21.7-0.6
			c-6.6-1.9-13.9-1.1-20.9-1.2c-6.3-0.1-12.5,0.1-18.8,0.2c-1.6,0-3.1,0-4.7,0c0,0.5,0,1,0,1.5c4,0.2,8,0.4,11.9,0.6
			c0,0.5-0.1,0.9-0.1,1.4c-40.8,0-81.6,0-122.3,0c5.3,0.8,10.7,1,16.1,1.3C17.2,6,18.6,6.7,20.1,7L20.1,7z M217,122.4
			c-10-3.1-20.2-3.5-30.5-3.3c-10.2,0.2-20.4-0.4-30.6-0.7c0-0.4,0-0.7,0-1.1c3.6-0.3,7.2-0.6,10.8-1c0-0.3,0-0.7,0-1
			c-2.3-0.2-4.5-0.6-6.8-0.7c-4.7-0.2-9.5,0-14.2-0.6c-6.1-0.8-12.1-1.9-17.8,1.7c-0.5,0.3-1.7,0-2.4-0.3
			c-11.6-4.7-23.6-1.9-35.4-2.7c0,0.4,0,0.9-0.1,1.3c5.2,0,10.4,0,15.7,0c0,0.4,0.1,0.8,0.1,1.3c-1.4,0.3-2.8,0.8-4.3,0.8
			c-3.2,0.1-6.4-0.2-9.6,0c-10.7,0.6-21.4,1.3-32.1,2c-2.2,0.1-4.5,0.3-6.7,0.5c44.4,2.3,88.8,6.2,133.3,3.6
			c-0.5,2.5-2.5,2.2-4.7,1.9c-1.8-0.2-3.6,0-5.4,0c0,0.6,0,1.2,0,1.8c9.9-0.5,19.9-1,29.8-1.4c0-0.2,0-0.3,0-0.5
			c-2.3-0.2-4.5-0.5-6.8-0.7c0-0.3,0.1-0.5,0.1-0.8C205.4,122.4,211.2,122.4,217,122.4z M-34,104.5c0-0.5,0.1-1,0.1-1.5
			c-11.8-0.3-23.5-0.7-35.3-1c-3.7-0.1-7.5,0.1-11.2-0.3c-8.9-0.8-17.8-1.1-26.3,2.2c-0.2,0.1-0.2,0.5-0.3,0.8
			c0.5,0.4,1.1,0.7,1.6,1c-1.4,0.2-2.9,0.4-4.3,0.5c0,0.5,0,0.9,0,1.4c12.3,0.9,24.6,1.8,36.9,2.7c0,0.2,0,0.4-0.1,0.6
			c-1.7,0.2-3.5,0.4-5.2,0.6c3.3,0.4,6.4-0.1,9.5-0.5c4.5-0.6,9-1.5,13.5-1.4c6.7,0.1,13.4,1.2,20.1,1.5c3.3,0.2,6.7-0.7,10.1-0.7
			c18.5-0.1,37,0,55.6-0.1c2.3,0,4.6-0.5,6.8-0.8c-0.4-0.7-0.8-1-1.2-1c-13.2-0.2-26.5-0.5-39.7-0.7c-8.2-0.1-16.4,0.3-24.7-0.1
			c-2.8-0.1-5.5-1.8-8.2-2.7c-0.3-0.1-0.7-0.1-1.9-0.3C-36.2,104.7-35.1,104.6-34,104.5z M-106.9,70.4c0,0.7-0.1,1.4-0.1,2.2
			c24.8,0.3,49.6,2.5,75.6,0.1c-1.8,1-2.5,1.5-3.3,1.9c0.1,0.3,0.1,0.6,0.2,0.9c8.5,0,17.1,0,26.5,0c-5-0.6-9.8,0.5-12.7-4.1
			c5.1,0,9.9,0,14.7,0c-21-3.9-42.1-1.7-63.1-1.4c0.6-0.3,1.1-0.7,1.8-1.1C-80.7,69.4-93.8,69.9-106.9,70.4z M31.9,62
			c0,0.5,0,1.1,0,1.6c27.6,0,55.3,0,82.9,0c0-0.1,0.1-0.2,0.1-0.4c-1.7-0.3-3.4-0.6-5.1-0.9c0-0.3,0.1-0.6,0.1-0.9
			c6.4,0,12.9,0,19.3,0c0-0.4,0-0.8,0-1.2c-13.6,0-27.3,0-40.9,0c-4.8,0-9.7,0.2-14.5-0.1C59.8,59.5,45.7,57.1,31.9,62z
			 M-18.9,128.2c0,0.4,0,0.8,0,1.2c31.3,0.5,62.5,1,93.8,1.4c0-0.5,0.1-1,0.1-1.5c-3.7-0.5-7.3-1.2-11-1.4
			c-16.9-0.8-33.9-1.3-50.9-2C2.4,125.5-8.4,124.9-18.9,128.2z M52.3,43.6c23.8,0.3,47.7,2.3,71-3.1c-5.9-0.4-12.1-0.9-18.4-1.2
			c-3.1-0.2-6.3-0.1-9.4-0.2c-4.5-0.3-9.7-2.2-13.5-0.7c-6.6,2.7-12.8,1.5-19.3,1.5c-4.6,0-9.2,0-13.8,0c0,0.3,0,0.7,0,1
			c3,0.3,6,0.6,9,0.9c0,0.4,0,0.9,0,1.3C56.2,43.3,54.2,43.4,52.3,43.6z M-69.8,19.7c0-0.7-0.1-1.4-0.1-2c-41.8,0-83.6,0-126,0
			c14.1,4.4,27.8,1.6,41.5,2.1c-0.7,0.2-1.3,0.4-2,0.7c0-0.3,0.1-0.5,0.1-0.8C-127.5,19.7-98.6,19.7-69.8,19.7z M-70.4,114.9
			c0,0.4-0.1,0.7-0.1,1.1c1.2,0.1,2.4,0.1,3.6,0.2c9.9,0.1,19.7,0.1,29.6,0.4c13.8,0.4,27.5,1,41.3,1.3c2.2,0.1,4.5-0.8,6.8-1.3
			c-0.1-0.6-0.1-1.1-0.2-1.7C-16.4,114.9-43.4,114.9-70.4,114.9z M139.6,40.2c26.3,2.2,52.5,2.6,78.6,0
			C192,40.2,165.8,40.2,139.6,40.2z M-55.7,60.3c0,0.4,0,0.9,0.1,1.3c18.1,0,36.2,0,54.3,0C-19.4,60.6-37.5,57.9-55.7,60.3z
			 M175.2,99.6c-26.4,0-52.9,0-79.3,0c0,0.5,0,0.9,0,1.4C122.4,100.8,148.9,102.8,175.2,99.6z M7.8,84.2c0,0.4,0,0.9,0,1.3
			c16.5,0,33,0,49.4,0c0-0.4,0-0.9,0-1.3C40.8,84.2,24.3,84.2,7.8,84.2z M-142.7,88.7c-0.1,0.5-0.1,1.1-0.2,1.6
			c13.1,1,26.2-0.5,39.3-0.4c-6.7,0.3-12.7-4.9-20.3-3c1.1,0.8,1.4,1.1,2.3,1.8C-129.1,88.7-135.9,88.7-142.7,88.7z M92.7,91.1
			c-22.3,0-44.5,0-66.8,0c0,0.4,0,0.7,0,1.1C48.2,91.8,70.5,93.3,92.7,91.1z M-152.4,167.8c0,0.5,0,0.9,0,1.4c14.4,0,28.9,0,43.3,0
			c0-0.5,0-0.9,0-1.4C-123.6,167.8-138,167.8-152.4,167.8z M-19.2,40.4c0,0.3,0,0.7,0,1c5.9,0,11.8,0.1,17.7,0
			c6.9-0.2,13.9-0.6,20.8-0.8c1.3,0,3.7,0.2,3.9,0.8c0.9,3.4,3,1.9,4.6,1.9c-0.6-1.2-1.1-2.3-2.1-4.2C11.6,39.6-3.8,40-19.2,40.4z
			 M-42.5,129.1c-0.1,0.1-0.1,0.3-0.2,0.4c-4.7,0-9.4,0-14.1,0c-4.7,0-9.3,0-14,0c0,0.4,0,0.8,0.1,1.2c13.1,0.7,26.2,1.1,39.3-0.4
			c0.1-0.6,0.3-1.1,0.4-1.7c-1.7-0.7-3.5-1.3-5.2-2c-0.4,0.9-0.7,1.9-1,2.7c-3-0.4-6-0.9-9.1-1.3c0,0.1,0,0.3-0.1,0.4
			C-45,128.6-43.7,128.8-42.5,129.1z M39.9,114.8c0-0.5,0-1,0-1.5c-13,0-26,0-39,0c0,0.4,0,0.9,0,1.3
			C13.9,112.9,26.9,117.4,39.9,114.8z M70.1,30.1c0-0.3,0-0.6,0-0.9c-14.4,0-28.7,0-43.1,0c0,0.3,0,0.6,0,0.9
			C41.3,30.1,55.7,30.1,70.1,30.1z M16.9,20.8c0,0.3-0.1,0.7-0.1,1c12.9,0,25.8,0,38.6,0c0-0.3,0-0.7,0-1
			C42.6,20.8,29.7,20.8,16.9,20.8z M-92.6,98.8c0,0.4,0,0.8,0,1.1c11.2,0,22.3,0,33.5,0c0-0.4,0-0.8,0-1.1
			C-70.3,98.8-81.4,98.8-92.6,98.8z M-9.3,160c2.9-0.3,4.4-0.4,6-0.5c0-0.3,0-0.5-0.1-0.8c-7.1,0.4-14.2,0.8-21.4,1.1
			c0,0.5,0,1,0,1.5c6.3,0,12.6,0,18.2,0C-6.5,161.4-7.3,161-9.3,160z M4.7,85.5c0-0.4,0.1-0.9,0.1-1.3c-11.7,0-23.4,0-35.1,0
			c0,0.4,0,0.9,0,1.3C-18.6,85.5-6.9,85.5,4.7,85.5z M135.8,23.2c0,0.3,0,0.7,0,1c9.6,0,19.3,0,28.9,0c0-0.3,0-0.7,0-1
			C155.1,23.2,145.4,23.2,135.8,23.2z M-22.1,94.7c0,0.2,0,0.5,0.1,0.7c12.5,0,24.9,0,37.4,0c0-0.2,0-0.5,0-0.7
			C2.9,94.7-9.6,94.7-22.1,94.7z M187,76.1c0-0.4,0-0.7,0.1-1.1c-9.8,0-19.5,0-29.3,0c0,0.4,0,0.7,0,1.1
			C167.6,76.1,177.3,76.1,187,76.1z M77,110.8c-2.6-3.4-14.8-3.3-18.3,0C64.9,110.8,70.6,110.8,77,110.8z M-18,102.8
			c0,0.4,0,0.8,0,1.2c9.6,0,19.2,0,28.9,0c0-0.4,0-0.8,0-1.2C1.2,102.8-8.4,102.8-18,102.8z M-54.3,85.6c0,0.3,0,0.6,0,0.9
			c7,0,14,0,21,0c0-0.1,0-0.2-0.1-0.3c-5.7-1-11.4-2.1-17.1-3.1c-0.1,0.4-0.1,0.7-0.2,1.1c1.1,0.2,2.3,0.5,3.4,0.7
			c0,0.1,0,0.3-0.1,0.4C-49.7,85.3-52,85.5-54.3,85.6z M-74.5,130.5c-0.1-0.2-0.1-0.4-0.2-0.6c-7.8,0-15.6,0-23.4,0
			c0,0.2,0.1,0.4,0.1,0.6C-90.2,130.5-82.3,130.5-74.5,130.5z M-174.8,89.7c-6.7-0.8-13.4-2.8-20.1,0
			C-188.2,89.7-181.5,89.7-174.8,89.7z M-140.8,101.7c0,0.4,0,0.7,0,1.1c5.7,0,11.4,0,17.1,0c0-0.4,0-0.7,0-1.1
			C-129.4,101.7-135.1,101.7-140.8,101.7z M-173,7.1c0,0.2,0,0.5,0,0.7c7,0,14,0,20.9,0c0-0.2,0-0.5,0-0.7C-159,7.1-166,7.1-173,7.1
			z M127.3,109.1c0-0.2,0-0.3,0-0.5c-5.8,0-11.6,0-17.4,0c0,0.2,0,0.3,0,0.5C115.7,109.1,121.5,109.1,127.3,109.1z M-7.4,81.2
			c0-0.3,0-0.5,0-0.8c-8.8,0-17.7,0-26.5,0c0,0.3,0,0.5,0,0.8C-25.1,81.2-16.2,81.2-7.4,81.2z M-88.8,32.2c0,0.3,0,0.6,0,0.9
			c6.4,0,12.8,0,19.2,0c0-0.3,0-0.6,0-0.9C-76,32.2-82.4,32.2-88.8,32.2z M256.6,76.7c0,0.2,0,0.4,0,0.6c7.2,0,14.5,0,21.7,0
			c0-0.2,0-0.4,0-0.6C271.1,76.7,263.9,76.7,256.6,76.7z M13.9,61.1c0,0.4,0,0.8-0.1,1.2c4.5,0.3,8.9,0.7,13.4,1c0-0.3,0-0.6,0-0.9
			C22.8,62,18.3,61.5,13.9,61.1z M214,146.6c0,0.3-0.1,0.5-0.1,0.8c3.5,0,6.9,0,10.4,0c0-0.3,0-0.5,0-0.8
			C220.9,146.6,217.5,146.6,214,146.6z M-72.1,138.4c0,0.2,0,0.4,0,0.7c4.1,0,8.3,0,12.4,0c0-0.2,0-0.4,0-0.7
			C-63.8,138.4-67.9,138.4-72.1,138.4z M-161.7,164.6c0,0.2-0.1,0.4-0.1,0.7c5.3,0,10.7,0,16,0c0-0.2,0-0.4,0-0.7
			C-151.1,164.6-156.4,164.6-161.7,164.6z M22.2,30.3c0-0.5,0-1-0.1-1.5c-2.8,0.2-5.6,0.5-8.5,0.7c0,0.3,0,0.5,0,0.8
			C16.5,30.3,19.4,30.3,22.2,30.3z M-175.9,78.4c0-0.4,0-0.8,0-1.2c-4,0.2-8,0.4-12.1,0.7c0,0.4,0,0.7,0.1,1.1
			C-184,78.8-180,78.6-175.9,78.4z M78.5,21.6c0-0.2,0-0.5,0-0.7c-5.4,0-10.8,0-16.2,0c0,0.2,0,0.5,0,0.7
			C67.7,21.6,73.1,21.6,78.5,21.6z M121.2,42.9c0,0.2,0,0.4,0,0.6c4.7,0,9.4,0,14,0c0-0.2,0-0.4,0-0.6
			C130.5,42.9,125.9,42.9,121.2,42.9z M-100.6,114.9c0,0.3,0,0.5,0,0.8c3.7,0,7.4,0,11.1,0c0-0.3,0-0.5,0-0.8
			C-93.2,114.9-96.9,114.9-100.6,114.9z M167.3,146.3c0,0.4,0,0.9,0.1,1.3c3.5-0.3,6.9-0.5,10.4-0.8c0-0.4-0.1-0.9-0.1-1.3
			C174.2,145.8,170.7,146.1,167.3,146.3z M94.7,30.8c0-0.2,0-0.4,0-0.6c-5.3,0-10.7,0-16,0c0,0.2,0,0.4,0,0.6
			C84.1,30.8,89.4,30.8,94.7,30.8z M-43.6,160.1c-3.7,0.3-7.3,0.5-11,0.8C-50.9,160.3-47.1,163.5-43.6,160.1z"/>
		<path class="st2" d="M300.4,218.2c0,0.8,0,1.7,0,2.5c-3.8,0.4-7.5,0.8-11.3,1.2c0,0.4,0,0.9,0,1.3c3.7,0,7.5,0,11.2,0
			c0,6.1,0,12.3,0,18.4c-3.3-0.1-6.7-0.6-10-0.3c-3.7,0.3-7.3,1.6-11,1.8c-7.5,0.3-14.9,0.2-22.4,0c-1.8,0-3.7-0.9-5.2-2
			c-2.6-1.7-10.6-1.7-13.5,1.1c3.2,0.2,5.8,0.3,8.4,0.4c-2.1,0.6-4.2,0.8-6.2,0.9c-1.3,0-2.8,0.2-3.9-0.3c-2.8-1.4-5.4-4.2-8.3-4.7
			c-5.4-0.8-10.9-0.2-16.4-0.2c0,0.3,0,0.6,0,0.8c4.4,0,8.7,0,13.1,0c0,0.3,0,0.7,0,1c-5.4-0.3-11.2,0.6-15.9-1.2
			c-5.2-2-10.2-2.2-15.5-2.2c-10,0-20,0-30.2,0c0-0.7-0.1-1.7-0.2-3.6c-15.1,4.8-30.3,3-45.4,3.2c2.3,0.2,4.6,0.4,6.8,0.6
			c0,0.5-0.1,1-0.1,1.6c-9.2,0-18.4,0-28.2,0c2.5-0.6,4.4-1,6.2-1.4c-9.3-0.2-18.4-0.9-27.5-1.4c-7.9-0.4-15.8-0.7-23.7-0.8
			c-7.3-0.1-14.8-0.3-22,0.5c-3.1,0.3-5.8,0.6-8.7-0.4c-0.6-0.2-1.4-0.1-2.1,0c-16.2,0.3-32.5,0.6-48.7,1c-7.5,0.2-14.9,0.6-22.4,1
			c-0.4,0-0.8,0.5-1.2,0.8c0.1,0.4,0.1,0.9,0.2,1.3c12.1-0.7,24.2-1.4,36.4-2c1.4-0.1,2.8-0.1,4.1,0.1c5.7,0.8,11.3,3,17.2,1.2
			c1.2-0.4,2.5-0.3,3.7-0.3c16.9,0.6,33.7,1.2,50.6,1.7c6.9,0.2,13.9,0.3,20.8,0.4c2.4,0,4.8,0,7.2,0c0,0.6,0,1.3,0,1.9
			c-36.1,1.3-72.2-0.3-108.3-1c0,0.5,0,1,0,1.5c3.8,0,7.5,0,11.3,0c0,0.1,0,0.2,0,0.3c-4.2,0.8-8.5,1.7-13,2.6
			c8.4,1.6,16.2,3.1,24,4.7c-67.6,0-135.2,0-202.8,0c0-2.5,0-5,0-7.8c2.3-0.2,4.3-0.5,6.2-0.5c5.6,0.2,11.1,0.6,16.7,0.8
			c3.4,0.1,6.9,0,10.3,0c2.5,0,5.9-1.1,7.2,0.2c4.4,4,9.3,1.2,13.9,2c2.5,0.4,5,0.2,7.5,0.2c14.4-0.2,28.9-0.4,43.3-0.6
			c0.8,0,1.5-0.2,3.2-0.5c-5-0.9-9.1-1.7-13.1-2.3c-6.4-1-12.8-2.1-19.3-0.1c-1.3,0.4-2.8,0.1-4.2,0c-6.3-0.5-12.7-1.4-19-1.6
			c-12.2-0.4-24.5-0.5-36.7-0.7c-4.9-0.1-9.8,0-14.6,0c0-0.3,0-0.5,0-0.8c9.6-0.9,19.3-1.8,28.9-2.7c-2.4-0.8-4.9-1.4-7.3-1.1
			c-5.1,0.7-10.4-1.4-15.5,1.4c-1.6,0.9-6.5,2.5-7-1.3c-0.9-6.9-0.2-14-0.2-21.3c1.9,0,3.2,0,4.5,0c0-0.2,0.1-0.4,0.1-0.6
			c-1.2-0.3-2.4-0.5-3.5-0.8c0-0.3,0-0.5,0.1-0.8c16.9,0,33.8,0,50.6,0c0-0.5,0-1,0.1-1.5c-17.3-0.5-34.5-1-51.8-1.5
			c0-0.6,0-1.2,0-1.8c7-0.9,14.1-1.8,21.1-2.6c0.1,0.4,0.1,0.8,0.2,1.2c-0.8,0.3-1.7,0.6-2.5,0.9c5,0.2,9.9-0.2,14.9-0.3
			c15.6-0.3,31.2-0.6,46.8-0.7c2.6,0,6-0.1,7.6,1.4c2.5,2.3,4.4,2.2,7.4,1.2c-2-0.9-3.5-1.5-5.1-2.2c0.3-0.7,0.5-1.4,0.8-2.2
			c5.9,1.3,11.8,2.7,17.4,3.9c0.1,0.1-0.2-0.5-0.5-1.2c1.9-0.2,3.4-0.4,5.7-0.6c-2-0.8-3.1-1.2-4.3-1.6c0-0.4,0-0.8,0-1.3
			c5.4-0.7,10.9-1.4,16.3-2.2c0,0.3,0.1,0.6,0.1,0.9c-1.1,0.2-2.2,0.4-3.3,0.6c16.6,3,33.4,1.1,50,2.5c17.1,1.4,34.3,0.3,51.5,0.3
			c0-0.7,0-1.3,0-2c-9.2,0-18.4,0-27.6,0c0.1-0.7,0.1-1.4,0.2-2c5.1,0.5,10.1,1,15.8,1.6c-1.4-0.7-2.2-1.1-3.8-2
			c3.6-0.7,6.4-1.7,9.1-1.6c5.4,0.2,10.8,0.9,16.2,1.6c5,0.6,9.9,2,14.9,2.1c8.3,0.1,16.5-0.6,24.8-0.9c5.6-0.2,11.1-0.3,16.7-0.3
			c5.2-0.1,10.3,0,15.5,0c0-0.2,0-0.5,0.1-0.7c-1.8-0.3-3.7-0.6-5.5-0.8c0.1-0.3,0.1-0.6,0.2-0.8c4.9,0.2,9.7,0.4,14.6,0.7
			c0,0.1,0,0.3,0,0.4c-1.8,0.2-3.5,0.4-4.8,0.5c30.9,3.1,61.8-3.1,92.9-5.1c-12.8,0-25.7,0-39.3,0c1.5,0.9,2.2,1.4,2.9,1.8
			c-7.5,0.7-14.7,1-21.9,0.6c-6.2-0.4-12.6,0.3-18.7-2.3c-2.5-1.1-5.8-0.4-8.7-0.2c-0.7,0-1.4,1.1-1.8,1.4c-5.3-0.3-10.7-0.7-16-1
			c0-0.4,0-0.8,0-1.2c2.1-0.1,4.3-0.2,6.4-0.3c0,0.1,0,0.2,0,0.2c-15,0-30,0-44.9,0c0-0.4,0-0.7,0-1.1c2.4-0.4,4.8-0.8,7.3-1.2
			c0-0.3-0.1-0.6-0.1-0.9c-6.2-0.3-12.4-0.6-18.6-0.9c0-0.3-0.1-0.6-0.1-0.9c4.7-0.5,9.5-1,14.2-1.5c0-0.3-0.1-0.6-0.1-0.9
			c-16.1,0-32.1,0-48.2,0c0,0.2-0.1,0.5-0.1,0.7c1,0.5,1.9,1,2.9,1.5c-0.1,0.3-0.1,0.6-0.2,0.8c-3.4,0-6.8,0-10.2,0c0,0.5,0,1,0,1.4
			c13.7,1.7,27.6-0.8,41.3,1c-10.2,1.1-20.4,2.2-30.6,2.7c-10.1,0.5-20.3,0.7-30.5,0.6c-6.8-0.1-13.5-1.8-20.3,0.1
			c-2.5,0.7-5.3,0.1-8,0.1c0-0.3,0-0.7,0-1c1-0.2,2-0.4,3-0.6c0-0.4,0-0.8-0.1-1.3c-6.3,0-12.6,0-19.4,0c2.2,0.4,4,0.7,5.7,1.1
			c-3,1.2-5.9,1.7-8.8,1.9c-12.4,0.6-24.9,1.1-37.3,1.5c-1.3,0-2.7-0.7-4-1.2c-1.3-0.5-2.5-1-4.4-1.8c11.6-3.1,23.5,1.6,34.5-3.1
			c-8.4,0-16.6-0.5-24.8,0.2c-6,0.5-12.9-2.1-18,3.4c-0.2,0.2-0.5,0.1-0.8,0.2c-3.3,0.2-6.5,0.7-9.8,0.7c-7.8,0-15.5-0.2-23.3-0.5
			c-10.3-0.4-20.5-0.9-30.8-1.2c-3.4-0.1-6.9,0.2-10.3,0.6c-1,0.1-1.7,1.5-2.7,1.7c-0.9,0.2-1.9-0.5-3.3-0.9
			c1.2-0.9,1.9-1.4,2.6-1.9c-0.1-0.3-0.2-0.6-0.3-1c-2.3,0.4-4.6,0.8-7.5,1.3c-0.1-2-0.3-4.2-0.5-6.5c4,0,7.3,0,10.6,0
			c18.3,0.1,36.6,0.3,54.8,0.2c3.2,0,6.4-1.4,9.7-2.1l0,0c13.4-0.5,26.9-0.9,40.3-1.4c0-0.4,0-0.8,0-1.2c-8.6,0-17.2,0-25.7,0
			c0-0.6,0-1.2,0-1.8c4.2,0.1,8.5,0.2,12.7,0.2c12.7,0.1,25.3,0.3,38,0.4c5.8,0,12.4,1.3,17.3-1c5.4-2.5,10.2-2.1,15.4-1.9
			c-2.1,0.3-4.2,0.6-6.3,0.8c0,0.5,0,1,0.1,1.5c4.5,0,9,0,13.5,0c7.1,0,14.3,0.9,21.3-0.1c14.1-2.2,28.1-0.7,42.1-0.2
			c8.9,0.3,17.9,2.4,26.4-3.1c-5.7,0-11.3,0-17,0c0-0.5,0-1,0-1.4c6.2,0,12.5,0,18.7,0c12.2,0,24.5,0.2,36.7,0.1
			c8.2-0.1,16.4-0.8,24.5-1c2.7-0.1,5.4,0.4,8.1,0.7l0,0c-2.1,0.7-4.3,1.9-6.4,2c-5.1,0.2-10.3-0.3-15.5-0.2
			c-12.1,0.4-24.2,0.9-36.3,1.4c-2.4,0.1-4.7,0.6-7,0.8c-2.1,0.2-4.3,0.2-6.5,0.3c0,0.4,0.1,0.7,0.1,1.1c7.1,0.5,14.1,0.7,21.3-0.2
			c9.8-1.2,19.7-1.1,29.6-1.2c8.2,0,16.4,0.7,24.6,0.9c6.4,0.2,12.7,0,19.4,0c-0.3-0.5-0.6-0.9-0.9-1.3c13.5,0.4,27,0.8,40.5,1.3
			c0,0.2,0,0.4,0.1,0.7c-1.3,0.7-2.7,1.3-3.3,1.6c6.7,0.4,13.8,0.8,21,1.2c0,0.4,0,0.8,0.1,1.2c-2,0.2-4,0.4-6,0.6
			c1.2,0.9,2.3,0.7,3.4,0.7c4.5-0.3,9.1-0.8,13.6-0.7c8,0.2,16.1,1.1,24.1,1.3c10,0.3,20,0.2,30,0.3c3.8,0,7.5,0,11.3,0
			c0,0.7,0.1,1.3,0.1,2c-10.2,0.9-20.3,2.2-30.5,2.6c-8.6,0.3-17.3-0.6-25.9-0.4c-3.7,0-7.3,1.2-10.9,2c-4.4,0.9-8.7,2.1-13.2,2.9
			c-3.8,0.7-7.6,1.1-12.6,1.7c18.6,0,35.9,0,52.7,0c4.9,2.9,9.9-0.1,14.5,0.4c5.1,0.6,10.4,0.1,15.6,0.1c-0.3,0.9-0.8,1.1-1.2,1.3
			c-0.1,0-0.1,0.2-0.1,0.5c2.5,0.4,5,0.8,8.3,1.4c-4.4,0.4-7.9,1.1-11.3,1c-3.4-0.1-6.7-1.1-10.1-1.6c-0.4-0.1-0.8-0.1-1.2-0.1
			c-4,0.1-7.9,0.4-11.9,0.3c-10.1-0.3-20.2-0.9-30.3-1.2c-7.7-0.2-15.3,0-23,0c0,0.6,0,1.2,0,1.8c12.8,0,25.5,0,38.3,0
			c0,0.6,0,1.1,0,1.7c-16.9,0-33.7,0-50.6,0c18.2,5,36.7,1.3,55.1,1.9c0,0.5,0,1,0,1.5c-26.7,0.8-53.4,1.5-80.1,2.3
			c1.8,0.9,3.5,0.9,5.3,0.9c5.9-0.2,11.7-0.7,17.5-0.5c6.8,0.2,13.6-0.4,20.6,1.5c7.4,2.1,15.6,1.8,23.4,2.4
			c0.8,0.1,1.6-1.1,2.6-1.4c1.4-0.4,2.9-0.6,4.3-0.9c0.1,0,0.3,0.3,0.5,0.5c-0.8,0.3-1.7,0.6-2.5,0.9c0,0.3,0.1,0.5,0.1,0.8
			c7.7,0,15.4,0,23.1,0c0-0.1,0-0.3,0.1-0.4c-5.1-0.4-10.2-0.9-15.3-1.3c5.7-0.9,11.3-1,16.9-0.8c12.1,0.3,24.2,0.8,36.2,1.2
			c0,1.1,0,2.2,0,3.3c-6.8,0.5-13.5,0.9-20.2,1.5c-0.8,0.1-1.6,1.2-2.3,1.9c-5.7-2.8-11.8-3.1-18-2.4c-2.9,0.3-5.7,1.1-8.6,1.3
			c-9.4,0.5-18.8,0.8-28.2,1.1c0,0.2,0,0.4,0,0.7c0.9,0.3,1.9,0.7,3.2,1.2c-4.8,0.4-9,1.2-13.3,1.1c-4.4,0-8.7-1.3-13.1-1.3
			c-18.4,0.2-36.8,0.7-55.2,1c-11.3,0.1-22.5-0.1-33.8,0c-4.8,0-9.7,0.9-14.5,0.8c-10.1-0.1-20.2-0.6-30.3-0.9
			c-7.2-0.2-14.5-1-21.7-0.6c-6.1,0.4-12,0.7-18.1-0.1c-3.8-0.5-7.8,0.7-11.7,1.2c0,0.7,0.1,1.4,0.1,2.1c20.3,0.3,40.6,0.7,60.9,1
			c0,0.3,0,0.7,0,1c-2.4,0.2-4.9,0.3-7.3,0.5c0,0.4,0.1,0.8,0.1,1.3c5-0.5,10-1,15-1.4c0.8-0.1,1.6,0.1,2.3,0.3
			c2.4,0.6,4.7,1.9,7,1.9c8.7,0,17.5-0.5,26.2-0.8c3.7-0.1,7.4-0.5,11.1-0.7c0-0.2,0-0.4,0-0.6c-1.9-0.1-3.7-0.2-5.6-0.3
			c0-0.4,0-0.8,0-1.2c27.8,6.6,55.7-0.9,83.6,1.1c-0.8-0.4-1.6-0.9-3.4-1.8c6.9-0.3,12.6-0.7,18.3-0.8c13.2-0.2,26.4-0.2,39.6-0.3
			c4.3,0,8.6-0.2,12.9-0.5c2.9-0.2,5.8-0.9,8.6-1.4c-0.1-0.5-0.1-0.9-0.2-1.4c-1.3,0-2.5,0.1-3.8,0c-0.9-0.1-1.8-0.6-2.6-0.9
			c1.8-0.2,3.5-0.7,5.3-0.7C288.8,218.2,294.6,218.2,300.4,218.2z M52.9,209.8c1.4,0.7,2.7,1.8,4.1,1.9c5.1,0.4,10.3,0.5,15.4,0.5
			c11.4,0.1,22.7,0.2,34.1-0.1c11-0.2,22-0.9,32.9-1.2c8.3-0.2,16.5,0,24.8,0c0-0.6,0-1.1,0-1.7c-7-0.3-14-0.6-21.1-0.8
			c-5-0.1-10,0-15-0.2c-5.5-0.2-11.1-0.9-16.6-0.8c-7.9,0.2-15.7,1.5-23.6,1.5c-8.6,0.1-17.2-0.9-25.8-1
			C59.1,208,56,209.2,52.9,209.8c-5.2-1-10.4-2.6-15.6-2.8c-8.6-0.3-17.2,0.3-25.8,0.5c-0.5,0-1,0.3-1.5,0.5c0,0.3,0.1,0.6,0.1,0.9
			C24.3,209.1,38.6,209.5,52.9,209.8z M-130.9,219.6c0,0.4,0,0.7,0,1.1c28,1.9,56,2.1,84-0.3c-8.7-1-17.4-3.8-26.3-1.4
			c2.3,0.3,4.6,0.5,6.8,0.8c0-0.1-0.1-0.1-0.1-0.2c-10.6,0-21.3,0-31.9,0C-109.2,219.6-120,219.6-130.9,219.6z M-107.6,186.3
			c0,0.5,0,0.9,0,1.4c23.8,0,47.7,0,71.5,0c0-0.4,0-0.8,0-1.2C-59.9,186.6-83.8,183.7-107.6,186.3z M-61.5,210
			c6.5,1,13.5,3.9,19.3,2.3c6.9-1.9,13.3-0.4,19.8-0.9c6.6-0.6,13.4-0.1,20.1-0.1c0-0.5,0-1,0-1.5C-22.1,208-41.8,208-61.5,210z
			 M298.6,238.9c0-0.5,0-1,0-1.4c-18.3,0-36.6,0-54.9,0c0,0.5,0,1,0,1.4C262,238.9,280.3,238.9,298.6,238.9z M-171,227.7
			c0,0.4-0.1,0.7-0.1,1.1c1.8,0.1,3.5,0.2,5.3,0.2c12.5,0.2,25,0.4,37.5,0.5c3.2,0,6.4-0.5,9.6-0.8c0-0.3-0.1-0.6-0.1-1
			C-136.2,227.7-153.6,227.7-171,227.7z M-112.1,210.9c0,0.4,0.1,0.9,0.1,1.3c15.1,0,30.3,0,45.4,0c0-0.4,0-0.9,0-1.3
			C-81.8,210.9-96.9,210.9-112.1,210.9z M7.2,222.3c0-0.4,0-0.8,0-1.2c-15.6,0-31.2,0-46.8,0c0,0.4,0,0.8,0,1.2
			C-24,222.3-8.4,222.3,7.2,222.3z M110.1,189.1c0-0.4,0.1-0.8,0.1-1.2c-6.8-1.1-13.6-2.2-20.4-3.1c-2.6-0.3-5.3,0-7.9,0
			c-2.5,0.1-4.9,0.3-7.4,0.4c0,0.3,0,0.6,0,0.9C86.4,187.1,98.2,188.1,110.1,189.1z M-38.5,216.9c0.1,0.4,0.1,0.9,0.2,1.3
			c12.1,0,24.3,0,37.2,0C-14.1,216-26.3,215.6-38.5,216.9z M184.4,186.7c0-0.4,0-0.9-0.1-1.3c-1.3,0-2.6,0-3.9,0
			c-2.9,0-5.9,0.3-8.7-0.1c-2.9-0.3-5.7-1.3-8.5-2c0.1,0.5,0.2,1,0.4,1.5c-0.3,0.8-0.6,1.5-0.8,1.9
			C169.8,186.7,177.1,186.7,184.4,186.7z M213.9,216.9c0-0.6,0-1.2,0-1.8c-12.8,0.5-25.5,1-38.3,1.5c0,0.1,0,0.2,0,0.2
			C188.4,216.9,201.1,216.9,213.9,216.9z M132.5,194.3c0,0.3,0,0.7,0,1c8.9,0,17.7,0,26.6,0c0-0.3,0-0.7,0-1
			C150.2,194.3,141.3,194.3,132.5,194.3z M214.2,195.7c4-0.3,7.5-0.5,11-0.7c0-0.3,0-0.6,0-0.9c-1.8-0.1-3.7-0.3-5.5-0.4
			c1-1.1,2-1.7,3.1-2c1.1-0.3,2.3-0.3,3.5-0.4C216.1,190.6,214.8,191.1,214.2,195.7z M-85.6,207.5c0,0.3-0.1,0.7-0.1,1
			c8.2,0,16.3,0,24.5,0c0-0.3,0-0.7,0-1C-69.3,207.5-77.5,207.5-85.6,207.5z M-64.3,241.3c0-0.2,0-0.3,0-0.5
			c-2.3-0.2-4.9,0.3-6.9-0.7c-1.5-0.7-2.5-2.3-4.5-1.7c-2.9,0.9-5.8,1.8-9.4,2.9C-77.9,241.3-71.1,241.3-64.3,241.3z M219,215.8
			c0,0.3,0,0.7-0.1,1c4.9,0,9.7,0,14.6,0c0-0.3,0-0.7,0-1C228.7,215.8,223.8,215.8,219,215.8z M165.8,234.1c0,0.2,0,0.5,0.1,0.7
			c6.5,0,13,0,19.5,0c0-0.2,0-0.5,0-0.7C178.8,234.1,172.3,234.1,165.8,234.1z"/>
		<path class="st2" d="M121.9,244.5c6.2,0.6,12.3,1.6,18.5,1.6c10.1,0,20.3-0.8,30.4-1.2c0.3,0,0.6-0.3,0.8-0.2
			c10.5,2.9,21.1-0.7,31.9,1c10.5,1.7,21.4,0.4,32.1,0.2c8.6-0.1,17.2-0.7,25.8-0.9c3.1,0,6.2,0.8,9.3,1c5.8,0.4,11.7,0.6,17.5,0.9
			c0.8,2.9-1.1,2.5-2.9,2.5c-48.2,0-96.4,0-144.6,0c-7.1-0.2-14.1-0.6-21.2-0.7c-1.9,0-3.8,0.5-5.6,0.7c-1.7,0-3.4,0-5,0
			c-2.2-0.8-4.4-1.7-6.7-2.2c-1.4-0.3-2.9-0.1-4.4-1c5.6,0,11.2,0.2,16.7-0.1c2.5-0.1,5-1,7.5-1.6L121.9,244.5z"/>
		<path class="st2" d="M288.3,172.4c-2.2-0.2-4.4-0.5-6.6-0.6c-2.8-0.2-5.6-0.3-8.4-0.3c-4.6-0.1-9.1-0.2-13.7-0.1
			c-1.6,0-3.4,1.7-4.4-0.9c-0.1-0.2-0.8-0.3-1.2-0.3c-8.8,0-17.5,0.3-26.3,0.1c-5.8-0.1-11.5-0.9-17.3-1.4
			c14.8-1.6,29.4-3.2,44.3-1.7c11.1,1.1,22.3,0.8,33.4,1.1C288.3,169.6,288.3,171,288.3,172.4z"/>
		<path class="st2" d="M288.3,88c-25.8,0-51.6,0-77.4,0c0-0.5,0-1,0-1.5c6.2,0,12.5,0,18.7,0c8.5,0,17.2,1.2,25.3-0.4
			c5.7-1.1,10.6,0.5,15.9,0.2c5.8-0.3,11.6-0.6,17.4-0.9C288.3,86.3,288.3,87.1,288.3,88z"/>
		<path class="st2" d="M288.3,67.9c-6,0.2-11.9,0.6-17.9,0.6c-3.7,0-7.5-0.5-11.3-1.8c9.7-0.1,19.4-0.3,29.2-0.4
			C288.3,66.8,288.3,67.3,288.3,67.9z"/>
		<path class="st2" d="M288.3,183.3c-8.3-0.4-16.6-0.8-24.9-1.2c0-0.1,0-0.3,0-0.4c8.3-0.3,16.6-0.6,24.9-0.9
			C288.3,181.6,288.3,182.4,288.3,183.3z"/>
		<path class="st3" d="M30.2,249.3c9.3-0.8,18.5-1.6,27.8-2.4c0,0.3,0.1,0.7,0.1,1c-0.6,0.5-1.3,0.9-1.9,1.4
			C47.5,249.3,38.8,249.3,30.2,249.3z"/>
		<path class="st2" d="M126.8,175.1c0.5,0,1,0,1.5,0c0-0.5,0-0.9,0-1.4c-7-0.2-14-0.5-20.9-0.4c-6.6,0.1-13.3,0.8-19.9,0.4
			c3.7-0.5,7.4-1,11.1-1.5c0-0.1,0-0.2,0-0.3c-6.6-0.3-13.3-0.6-19.9-1c14.2-4.5,28.5,0,42.7-1.8c-2.6,0-5.1,0-7.7,0
			c0-0.5,0-0.9,0-1.4c12.6,0,25.2,0,37.9,0c-0.8,0.3-1.7,0.6-2.5,1c0,0.3,0,0.5,0,0.8c9.7,0.8,19.5,1.7,29.2,2.5c0,0.1,0,0.3,0,0.4
			c-3.3,0-6.6-0.2-9.9,0.1c-3.1,0.3-6.2,1.1-9.3,1.6c-1.1,0.2-2.1,0.5-3.2,0.6c-3.4,0.3-6.8,0.5-10.2,0.6c-1.4,0.1-2.7-0.2-4.1-0.2
			c-3.2,0-6.4,0-9.7,0C130.2,175.2,128.5,175.1,126.8,175.1C126.8,175.1,126.8,175.1,126.8,175.1z"/>
		<path class="st4" d="M-90.2,171.4c11.6-3.4,23.4-3.1,35.2-0.7c0-0.4,0.1-0.7,0.1-1.1c-1-0.3-2-0.6-3-1c0.1-0.5,0.1-0.9,0.2-1.4
			c9.6,0.7,19.3,1.3,28.9,2c0.1,0.4,0.1,0.8,0.2,1.2c-2.5,0.5-5,1-7.5,1.5c0,0.2,0,0.3,0.1,0.5c4.5-0.3,9-0.5,13.6-0.8
			c0,0.5,0,1,0.1,1.4c-7.4,0-14.7,0-22.7,0c0.5,1.3,0.7,1.9,0.9,2.5c-5.7,3.6-10.4-3-16-2c1.3-0.2,2.6-0.4,4-0.6
			c0,0.1-0.1,0.2-0.1,0.3C-67.6,172.6-78.9,172-90.2,171.4z"/>
		<path class="st2" d="M227.4,7.3c0.6-0.2,1.2-0.3,1.8-0.5c0-0.2,0-0.5-0.1-0.7c-5.9,0-11.8,0-17.7,0c4.1-1.8,8.1-2.6,12.7-2.4
			c9.7,0.4,19.4-0.4,29.2-0.8c0.5,0,1,0,2.5,0.1c-6.6,3.2-12.5,4.2-18.8,2.7c-0.8-0.2-1.9,1.6-2.9,1.7
			C231.8,7.8,229.6,7.4,227.4,7.3C227.3,7.3,227.4,7.3,227.4,7.3z"/>
		<path class="st3" d="M72,167.9c-12.9,1.6-25.9,1.2-38.8,0.2c0-0.4,0-0.9,0-1.3c13,0,25.9,0,38.9,0C72.1,167.2,72.1,167.5,72,167.9
			z"/>
		<path class="st4" d="M-11.6,175c11.7,1,23.5-3.8,35.2,0.3c0,0.4,0,0.8,0,1.2c-11.8,0-23.5,0-35.3,0C-11.6,176-11.6,175.5-11.6,175
			z"/>
		<path class="st2" d="M244.7,180.5c-4.4,0-9.2-1.1-13.3,0.2c-10.4,3.3-20.2-2.5-30.4-0.5c0-0.5,0-1,0-1.5c5.6,0,11.1,0,16.7,0
			c6.7,0,13.3-0.2,20-0.1c2.4,0,4.9,0.7,7.3,1C244.8,180,244.8,180.2,244.7,180.5z"/>
		<path class="st4" d="M-213.7,173.4c9.3,0,18.6,0,27.9,0.1c0.6,0,1.2,1,2.8,2.3c-11.1-1.1-21.1,0.8-30.9-1.2
			C-213.9,174.2-213.8,173.8-213.7,173.4z"/>
		<path class="st4" d="M-139.3,184.5c-10.7,0.1-21.4,0.1-32.1,0.2c-2.2,0-4.4,0-6.6,0c0-0.4,0-0.8,0-1.2c4.1,0,8.2,0,12.3,0
			c0.7,0,1.5,0.4,2,0.2C-155.4,179.8-147.4,183.9-139.3,184.5C-139.3,184.5-139.3,184.5-139.3,184.5z"/>
		<path class="st2" d="M161.6,168.1c12.2,0,24.4,0,36.6,0c0,0.4,0,0.7,0,1.1c-12.2,0-24.4,0-36.6,0
			C161.6,168.8,161.6,168.5,161.6,168.1z"/>
		<path class="st4" d="M-163.5,2.5c-0.6-0.8-1.2-1.7-2.3-3.3c5.3,1.4,10.9-2,15,3.3C-154.9,2.5-159,2.5-163.5,2.5z"/>
		<path class="st3" d="M76,165.9c9-0.4,18-0.8,26.9-1.2c0,0.5,0,1,0.1,1.5c-9.1,0-18.1,0-27.2,0C75.9,166.1,76,166,76,165.9z"/>
		<path class="st4" d="M-180.4,152.5c-7.8,0-15.6,0-23.4,0C-196,150.9-188.2,150.1-180.4,152.5z"/>
		<path class="st4" d="M-170.6,201.8c-6.6,0-13.3,0-19.9,0c0-0.3,0-0.5,0-0.8c6.6,0,13.2,0,19.9,0
			C-170.6,201.3-170.6,201.6-170.6,201.8z"/>
		<path class="st2" d="M197.8,165.1c-5.6,0-11.2,0-16.7,0c0-0.3,0-0.5,0-0.8c5.7,0,11.3,0,17,0C198,164.5,197.9,164.8,197.8,165.1z"
			/>
		<path class="st4" d="M-102.9,149.4c-5.3,0-10.7,0-16,0c0-0.3,0-0.5,0-0.8c5.4,0,10.7,0,16.1,0
			C-102.9,148.9-102.9,149.2-102.9,149.4z"/>
		<path class="st4" d="M-198.2,194.8c5.1,0.3,10.3,0.5,15.4,0.8c0,0.1,0,0.3-0.1,0.4c-5.1,0-10.3,0-15.4,0
			C-198.3,195.6-198.2,195.2-198.2,194.8z"/>
		<path class="st4" d="M-175.7-0.2c-4.1,0.3-8.1,0.5-12.2,0.8c0-0.5-0.1-0.9-0.1-1.4c4.1,0,8.2,0,12.4,0
			C-175.6-0.6-175.6-0.4-175.7-0.2z"/>
		<path class="st4" d="M-189.5,181c-4.6-0.4-9.2-0.9-13.9-1.3c0-0.2,0-0.5,0-0.7c4.6,0,9.2,0,13.9,0
			C-189.5,179.7-189.5,180.4-189.5,181z"/>
		<path class="st4" d="M-80.7,0c5.1,0.4,10.1,0.8,15.2,1.2c0,0.1,0,0.1,0,0.2c-5.1,0-10.1,0-15.2,0C-80.7,1-80.7,0.5-80.7,0z"/>
		<path class="st4" d="M-142.7,150.2c-2.5,0.4-4.9,0.8-7.4,1.3c-2.4,0.5-3.4-0.4-2.8-3.2c1.7-0.1,3.4-0.2,5.7-0.3
			c-0.6,0.7-0.9,1.1-1.5,1.8C-146.6,150-144.7,150.1-142.7,150.2C-142.8,150.2-142.7,150.2-142.7,150.2z"/>
		<path class="st2" d="M209,1.9c-1.5-0.1-2.9-0.2-4.2-0.2c2.2,0,4.6,0,7,0c0.1,0.5,0.1,0.9,0.2,1.4c-2.3,0.4-4.5,0.9-6.8,1.3
			C205.1,4,205,3.6,205,3.2c1.3-0.3,2.7-0.5,4-0.8C209,2.2,209,2,209,1.9z"/>
		<path class="st2" d="M181.9,176.7c4.6-0.3,9.3-0.6,13.9-0.9c0,0.3,0,0.6,0,0.9c-4.7,0.2-9.3,0.4-14,0.6
			C181.9,177.1,181.9,176.9,181.9,176.7z"/>
		<path class="st2" d="M162.2,175c4.2,0.3,8.4,0.6,12.6,0.9c0,0.1,0,0.3,0,0.4c-4.2,0-8.4,0-12.6,0
			C162.2,175.9,162.2,175.4,162.2,175z"/>
		<path class="st4" d="M-80.1,196.5c3.5,0.3,7,0.6,10.5,1c0,0.1,0,0.2-0.1,0.2c-3.5,0-7,0-10.5,0C-80.1,197.3-80.1,196.9-80.1,196.5
			z"/>
		<path class="st3" d="M46.9,195.8c-4.9-0.3-9.8-0.6-14.7-0.9c0-0.1,0-0.3,0-0.4c4.9,0,9.8,0,14.7,0C46.9,195,46.9,195.4,46.9,195.8
			z"/>
		<path class="st3" d="M68.8,197.5c-2.8-0.5-5.6-1.1-8.3-1.6c0-0.3,0.1-0.6,0.1-0.9c2.8,0.4,5.7,0.7,8.5,1.1
			C69,196.5,68.9,197,68.8,197.5z"/>
		<path class="st3" d="M133,128.6c-1.7,0.8-2.4,1.1-3.8,1.7c3.6,0.2,6.7,0.4,9.7,0.6c0,0.4-0.1,0.8-0.1,1.2
			c-9.7-0.8-19.3-1.5-29-2.3c0-0.4,0-0.8,0-1.2C117.1,128.6,124.5,128.6,133,128.6z"/>
		<path class="st2" d="M239.4,136.5c9.2-0.5,18.4-1,27.6-1.5c-8.8,4.7-18.4,0.5-27.4,2.6C239.6,137.2,239.5,136.8,239.4,136.5z"/>
		<path class="st2" d="M260,128.8c-7.8-0.5-15.6-1-23.4-1.5c0-0.1,0-0.2,0-0.3c7.8,0,15.6,0,23.4,0C260,127.6,260,128.2,260,128.8z"
			/>
		<path class="st2" d="M148,132.3c1.8,0,5.5-1.1,6.9,0.2c3.4,3.2,7.2,1.6,10.7,2.9c-3.6,0-7.3,0.4-10.8-0.1
			C152.2,134.9,149.8,133.2,148,132.3z"/>
		<path class="st2" d="M207.3,55.6c2.8,0.1,5.7,0.4,8.5,0.1c5.4-0.6,10.6-0.4,15.8,1.2c0,0.4,0,0.8,0,1.2c-10.5,0-21,0-31.5,0
			c-0.1-0.1-0.1-0.2-0.2-0.4c2.5-0.7,5.1-1.4,7.6-2.2L207.3,55.6z"/>
		<path class="st4" d="M-57.5,49.6c-0.7-0.5-1.3-0.9-2-1.4c10.5-0.7,20.9-1.4,31.4-1.8c1.1-0.1,2.3,1.4,3.3,2.9c-2.4,0-4.8,0-7.4,0
			c0.5-0.5,0.9-0.8,0.8-0.8c-8.5,0.3-17.4,0.7-26.2,1C-57.7,49.6-57.5,49.6-57.5,49.6z"/>
		<path class="st3" d="M140,51.3c-6.1,0.5-12.2,1-18.4,1.5c-0.1-0.3-0.1-0.6-0.2-0.9c3.1-0.6,6.1-1.5,9.2-1.7c3-0.2,6.1,0.3,9.1,0.6
			C139.9,50.9,140,51.1,140,51.3z"/>
		<path class="st2" d="M207.4,55.5c-3.1-0.6-6.3-1.1-9.4-1.7c0-0.2,0-0.4,0.1-0.6c4,0,8.1,0,13.3,0c-2,1.2-3,1.7-4.1,2.3
			C207.3,55.6,207.4,55.5,207.4,55.5z"/>
		<path class="st4" d="M31,71.3c-5.5,0-11.1,0-16.6,0c0-0.2,0-0.5,0-0.7c5.5,0,11,0,16.6,0C31,70.9,31,71.1,31,71.3z"/>
		<path class="st2" d="M256.7,57.1c-3.4-0.2-6.9-0.5-10.3-0.7c0-0.4,0-0.7,0.1-1.1c3.5,0.2,6.9,0.4,10.4,0.5
			C256.8,56.3,256.7,56.7,256.7,57.1z"/>
		<path class="st2" d="M256,73.8c-2.6-0.4-5.1-0.8-7.7-1.2c0.1-0.4,0.1-0.8,0.2-1.2c2.6,0.3,5.2,0.5,7.8,0.8
			C256.2,72.7,256.1,73.3,256,73.8z"/>
		<path class="st2" d="M128,243.1c-1.2-2.6,0.9-2.1,2.1-2.1c6.1-0.3,12.2-0.5,18.4-0.9c7.4-0.4,14.7-1.1,22-1.6
			c1-0.1,2.2-0.3,2.9,0.1c5.8,3.8,12.2,1.9,18.3,2.2c4.8,0.2,9.6,0,14.4,0c0,0.6,0,1.3,0,1.9c-15.6,0-31.2,0-46.8,0
			c0-0.1-0.1-0.3-0.1-0.4c2.1-0.3,4.2-0.5,6.3-0.8c0-0.4-0.1-0.8-0.1-1.1C152.9,241.4,140.4,242.3,128,243.1
			C127.9,243.1,128,243.1,128,243.1z"/>
		<path class="st3" d="M55.9,245.2c-14.7,1.7-29.3,0.8-44,0.4c0-0.6,0-1.2,0-1.7c14.7,0,29.3,0,44,0
			C55.9,244.3,55.9,244.8,55.9,245.2z"/>
		<path class="st3" d="M122,244.4c-2-0.5-4-1.1-6-1.6c0.1-0.4,0.1-0.8,0.2-1.2c3.9,0.5,7.8,1,11.8,1.4c0,0,0,0,0,0
			c-2,0.5-4,0.9-6,1.4C121.9,244.5,122,244.4,122,244.4z"/>
		<path class="st2" d="M193.1,85.7c3.3,0.4,6.7,0.7,10,1.1c0,0.3,0,0.5,0,0.8c-3.4-0.2-6.7-0.4-10.1-0.6
			C193.1,86.6,193.1,86.2,193.1,85.7z"/>
		<path class="st2" d="M178.5,86.2c-4.6,0-9.3,0-13.9,0c0-0.2,0-0.5,0-0.7c4.6,0,9.3,0,13.9,0C178.5,85.7,178.5,86,178.5,86.2z"/>
		<path class="st3" d="M7.9,6.4c6.2-0.5,12.4-1,18.7-1.5c0,0.3,0.1,0.5,0.1,0.8c-1.5,0.3-3.1,0.6-4.6,0.9c0,0.3,0,0.6,0,0.9
			c13.6,0,27.2,0,41.4,0c-1,1.2-1.4,1.8-2.1,2.7c1.4,0.3,2.5,0.5,3.6,0.8c0,0.3,0,0.6,0,0.8c-2.8,0-6,0.9-8.4-0.2
			c-7.6-3.3-15.5-0.8-23.1-2c-6.1-1-12.5,0.6-18.3-2.7C13.2,5.7,10.4,6.4,7.9,6.4C8,6.4,7.9,6.4,7.9,6.4z"/>
		<path class="st3" d="M60,13.1c3.6,0,7.2,0,10.8,0c0,0.2,0,0.5,0,0.7c-3.6,0-7.2,0-10.8,0C60.1,13.6,60,13.4,60,13.1z"/>
		<path class="st3" d="M77,12.5c3,0.3,6,0.7,8.9,1c-0.1,0.6-0.2,1.2-0.3,1.9c-3-0.5-5.9-1.1-8.9-1.6C76.9,13.3,77,12.9,77,12.5z"/>
		<path class="st3" d="M46.4,12.8c-3.5,2.1-7.3-1.5-10.8-0.6c3.6-0.3,7.1-0.7,10.7-1C46.3,11.7,46.3,12.2,46.4,12.8z"/>
		<path class="st4" d="M-76,105.6c-4.7-0.3-9.4-0.6-14-0.9c0-0.5,0.1-1,0.1-1.5c4.7,0.5,9.3,1,14,1.6C-76,105.1-76,105.3-76,105.6z"
			/>
		<path class="st2" d="M246.9,220.7c-7.3,0-14.7,0-22,0c0-0.2,0-0.4,0-0.7c7.4,0,14.8,0,22.1,0C247,220.2,247,220.5,246.9,220.7z"/>
		<path class="st3" d="M128.9,224.8c3.8,0,7.6,0,11.4,0c0,0.2,0,0.4,0,0.6c-3.8,0-7.6,0-11.4,0C129,225.2,128.9,225,128.9,224.8z"/>
	</g>
	<rect x="-2.2" y="0.2" class="st5" width="301.7" height="251"/>
	<rect x="-1.8" y="1" class="st5" width="302.2" height="253.3"/>
</g>
</svg>
