<?xml version="1.0" encoding="utf-8"?>
<!-- Generator: Adobe Illustrator 20.0.0, SVG Export Plug-In . SVG Version: 6.00 Build 0)  -->
<svg version="1.1" id="Layer_1" xmlns="http://www.w3.org/2000/svg" xmlns:xlink="http://www.w3.org/1999/xlink" x="0px" y="0px"
	 viewBox="0 0 300 250" style="enable-background:new 0 0 300 250;" xml:space="preserve">
<style type="text/css">
	.st0{fill:#3A261E;}
	.st1{fill:#563819;}
	.st2{fill:#6D481D;}
	.st3{fill:#A56D3E;}
</style>
<g>
	<path class="st0" d="M49.1,209.2"/>
</g>
<g>
	<path class="st0" d="M200.7,197.1"/>
</g>
<g>
	<path class="st1" d="M245.9,204.5c-0.7-2.7,1.8-5.6,5.5-6.5c3.7-0.9,7.2,0.5,7.9,3.2"/>
	<path class="st1" d="M259.3,201.2c0.2,2.9-2,5.8-5.9,6.7c-3.9,0.8-7.2-1.4-7.8-4.1"/>
	
		<ellipse transform="matrix(0.9709 -0.2394 0.2394 0.9709 -41.0408 66.3102)" class="st2" cx="252.4" cy="202.1" rx="7.1" ry="4.8"/>
	<g>
		<path class="st3" d="M253.8,201.4c0,0,0-0.3,0.2-0.6c0.1-0.3,0.4-0.7,0.6-1c0.2-0.3,0.4-0.6,0.6-0.9c0.2-0.3,0.3-0.5,0.3-0.5
			s0.2,0.2,0.3,0.6c0,0.2,0,0.4,0,0.7c-0.1,0.2-0.2,0.5-0.3,0.7c-0.3,0.4-0.7,0.7-1,0.8C254.1,201.3,253.8,201.4,253.8,201.4z"/>
	</g>
	<g>
		<path class="st3" d="M249.4,202.3c0,0,0-0.2,0.1-0.5c0.1-0.3,0.2-0.5,0.4-0.8c0.2-0.2,0.3-0.4,0.5-0.6c0.2-0.2,0.3-0.4,0.3-0.4
			s0.2,0.1,0.3,0.4c0.1,0.3,0,0.7-0.2,1.1c-0.2,0.3-0.5,0.5-0.8,0.6C249.6,202.3,249.4,202.3,249.4,202.3z"/>
	</g>
	<g>
		<path class="st3" d="M253,201.7c0,0,0.2-0.1,0.5-0.2c0.3,0,0.6,0,1,0.1c0.3,0.2,0.6,0.5,0.7,0.8c0.1,0.3,0,0.5,0,0.5
			s-0.2-0.1-0.4-0.2c-0.2-0.1-0.4-0.2-0.7-0.3c-0.2-0.1-0.5-0.3-0.7-0.5C253.2,201.9,253,201.7,253,201.7z"/>
	</g>
	<g>
		<path class="st3" d="M252.9,204.4c0,0-0.3-0.1-0.6-0.3c-0.3-0.2-0.6-0.5-0.9-0.8c-0.3-0.3-0.5-0.5-0.7-0.8
			c-0.2-0.2-0.5-0.4-0.5-0.4s0.2-0.2,0.6-0.2c0.2,0,0.4,0.1,0.7,0.2c0.2,0.1,0.4,0.3,0.6,0.4c0.3,0.4,0.6,0.8,0.6,1.1
			C252.9,204.1,252.9,204.4,252.9,204.4z"/>
	</g>
	<path class="st3" d="M246.5,203.3c0,0,6.1-3,11.5-2.5"/>
</g>
<g>
	<path class="st1" d="M259.4,210.7c-0.5-2.7,2.1-5.5,5.8-6.2c3.7-0.7,7.2,0.9,7.7,3.6"/>
	<path class="st1" d="M272.9,208.1c0.1,2.9-2.3,5.7-6.3,6.3c-3.9,0.6-7.1-1.8-7.6-4.5"/>
	<ellipse transform="matrix(0.9822 -0.1881 0.1881 0.9822 -34.4885 53.7542)" class="st2" cx="266" cy="208.6" rx="7.1" ry="4.8"/>
	<g>
		<path class="st3" d="M267.5,208c0,0,0-0.3,0.2-0.6c0.2-0.3,0.4-0.7,0.6-1c0.2-0.3,0.5-0.6,0.6-0.8c0.2-0.3,0.3-0.5,0.3-0.5
			s0.2,0.2,0.2,0.6c0,0.2,0,0.4-0.1,0.7c-0.1,0.2-0.2,0.5-0.3,0.7c-0.3,0.4-0.7,0.7-1,0.8C267.7,208,267.5,208,267.5,208z"/>
	</g>
	<g>
		<path class="st3" d="M263,208.6c0,0,0-0.2,0.1-0.5c0.1-0.3,0.2-0.5,0.4-0.7c0.2-0.2,0.3-0.4,0.5-0.5c0.2-0.2,0.3-0.3,0.3-0.3
			s0.2,0.1,0.3,0.5c0.1,0.3,0,0.7-0.3,1c-0.2,0.3-0.5,0.5-0.8,0.5C263.2,208.6,263,208.6,263,208.6z"/>
	</g>
	<g>
		<path class="st3" d="M266.7,208.2c0,0,0.2-0.1,0.5-0.1c0.3,0,0.6,0,1,0.2c0.3,0.2,0.6,0.5,0.6,0.9c0.1,0.3-0.1,0.5-0.1,0.5
			s-0.2-0.1-0.4-0.2c-0.2-0.1-0.4-0.2-0.7-0.3c-0.2-0.1-0.5-0.3-0.7-0.5C266.8,208.5,266.7,208.2,266.7,208.2z"/>
	</g>
	<g>
		<path class="st3" d="M266.4,210.9c0,0-0.3-0.1-0.5-0.3c-0.3-0.2-0.6-0.5-0.8-0.8c-0.3-0.3-0.5-0.6-0.7-0.8
			c-0.2-0.2-0.4-0.4-0.4-0.4s0.2-0.2,0.6-0.1c0.2,0,0.4,0.1,0.7,0.2c0.2,0.1,0.4,0.3,0.6,0.5c0.3,0.4,0.5,0.8,0.6,1.2
			C266.4,210.6,266.4,210.9,266.4,210.9z"/>
	</g>
	<path class="st3" d="M260.1,209.5c0,0,6.2-2.7,11.6-1.9"/>
</g>
<g>
	<path class="st1" d="M245.2,217.2c-2.1-1.8-1.7-5.6,0.8-8.5c2.5-2.9,6.2-3.7,8.3-1.9"/>
	<path class="st1" d="M254.3,206.8c1.8,2.2,1.7,5.9-1,8.8c-2.7,2.9-6.7,3-8.7,1.2"/>
	
		<ellipse transform="matrix(0.6578 -0.7532 0.7532 0.6578 -74.0154 260.0295)" class="st2" cx="249.2" cy="211.5" rx="7.1" ry="4.8"/>
	<g>
		<path class="st3" d="M250,210.1c0,0-0.1-0.2-0.2-0.6c-0.1-0.3-0.1-0.8-0.1-1.2c0-0.4,0-0.7,0-1.1c0-0.3-0.1-0.6-0.1-0.6
			s0.3,0,0.6,0.3c0.2,0.1,0.3,0.3,0.4,0.6c0.1,0.2,0.1,0.5,0.1,0.7c0,0.5-0.2,1-0.3,1.3C250.2,209.9,250,210.1,250,210.1z"/>
	</g>
	<g>
		<path class="st3" d="M246.8,213.3c0,0-0.1-0.2-0.2-0.4c-0.1-0.3-0.1-0.6-0.1-0.8c0-0.3,0-0.5,0.1-0.7c0-0.3,0-0.5,0-0.5
			s0.2,0,0.5,0.2c0.3,0.2,0.4,0.6,0.4,1c0,0.4-0.1,0.7-0.3,0.9C247,213.2,246.8,213.3,246.8,213.3z"/>
	</g>
	<g>
		<path class="st3" d="M249.5,210.8c0,0,0.1-0.2,0.3-0.4c0.2-0.2,0.5-0.4,0.9-0.4c0.4-0.1,0.8,0.1,1,0.3c0.2,0.2,0.3,0.4,0.3,0.4
			s-0.2,0-0.5,0.1c-0.2,0.1-0.4,0.1-0.7,0.2c-0.3,0-0.6,0-0.8,0C249.7,210.9,249.5,210.8,249.5,210.8z"/>
	</g>
	<g>
		<path class="st3" d="M250.9,213.1c0,0-0.3,0.1-0.6,0.1c-0.4,0-0.8-0.1-1.2-0.1c-0.4-0.1-0.7-0.2-1-0.2c-0.3,0-0.6-0.1-0.6-0.1
			s0.1-0.3,0.4-0.5c0.2-0.1,0.4-0.2,0.6-0.2c0.2,0,0.5,0,0.8,0c0.5,0.1,0.9,0.3,1.2,0.6C250.7,212.8,250.9,213.1,250.9,213.1z"/>
	</g>
	<path class="st3" d="M245.1,215.8c0,0,3.2-6,8-8.6"/>
</g>
<g>
	<path class="st1" d="M62.4,218.4c-0.7-2.7,1.8-5.6,5.5-6.5c3.7-0.9,7.2,0.5,7.9,3.2"/>
	<path class="st1" d="M75.8,215.1c0.2,2.9-2,5.8-5.9,6.7c-3.9,0.8-7.2-1.4-7.8-4.1"/>
	<ellipse transform="matrix(0.9709 -0.2394 0.2394 0.9709 -49.7177 22.7793)" class="st2" cx="68.9" cy="216" rx="7.1" ry="4.8"/>
	<g>
		<path class="st3" d="M70.3,215.3c0,0,0-0.3,0.2-0.6c0.1-0.3,0.4-0.7,0.6-1c0.2-0.3,0.4-0.6,0.6-0.9c0.2-0.3,0.3-0.5,0.3-0.5
			s0.2,0.2,0.3,0.6c0,0.2,0,0.4,0,0.7c-0.1,0.2-0.2,0.5-0.3,0.7c-0.3,0.4-0.7,0.7-1,0.8C70.6,215.3,70.3,215.3,70.3,215.3z"/>
	</g>
	<g>
		<path class="st3" d="M65.9,216.2c0,0,0-0.2,0.1-0.5c0.1-0.3,0.2-0.5,0.4-0.8c0.2-0.2,0.3-0.4,0.5-0.6c0.2-0.2,0.3-0.4,0.3-0.4
			s0.2,0.1,0.3,0.4c0.1,0.3,0,0.7-0.2,1.1c-0.2,0.3-0.5,0.5-0.8,0.6C66.1,216.2,65.9,216.2,65.9,216.2z"/>
	</g>
	<g>
		<path class="st3" d="M69.5,215.6c0,0,0.2-0.1,0.5-0.2c0.3,0,0.6,0,1,0.1c0.3,0.2,0.6,0.5,0.7,0.8c0.1,0.3,0,0.5,0,0.5
			s-0.2-0.1-0.4-0.2c-0.2-0.1-0.4-0.2-0.7-0.3c-0.2-0.1-0.5-0.3-0.7-0.5C69.7,215.8,69.5,215.6,69.5,215.6z"/>
	</g>
	<g>
		<path class="st3" d="M69.4,218.3c0,0-0.3-0.1-0.6-0.3c-0.3-0.2-0.6-0.5-0.9-0.8c-0.3-0.3-0.5-0.5-0.7-0.8
			c-0.2-0.2-0.5-0.4-0.5-0.4s0.2-0.2,0.6-0.2c0.2,0,0.4,0.1,0.7,0.2c0.2,0.1,0.4,0.3,0.6,0.4c0.3,0.4,0.6,0.8,0.6,1.1
			C69.4,218,69.4,218.3,69.4,218.3z"/>
	</g>
	<path class="st3" d="M63,217.2c0,0,6.1-3,11.5-2.5"/>
</g>
<g>
	<path class="st1" d="M47.2,219c0.3-2.7,3.7-4.6,7.5-4.1c3.8,0.5,6.6,3.1,6.2,5.8"/>
	<path class="st1" d="M60.8,220.8c-0.8,2.8-4,4.7-7.9,4.1c-3.9-0.6-6.2-3.9-5.8-6.6"/>
	
		<ellipse transform="matrix(0.1254 -0.9921 0.9921 0.1254 -170.1028 245.331)" class="st2" cx="54.1" cy="219.1" rx="4.8" ry="7.1"/>
	<g>
		<path class="st3" d="M55.7,219c0,0,0.1-0.2,0.4-0.5c0.2-0.3,0.6-0.5,0.9-0.7c0.3-0.2,0.6-0.4,0.9-0.6c0.2-0.2,0.5-0.4,0.5-0.4
			s0.1,0.3,0,0.7c0,0.2-0.1,0.4-0.3,0.6c-0.1,0.2-0.3,0.4-0.5,0.5c-0.4,0.3-0.9,0.4-1.2,0.4C55.9,219.1,55.7,219,55.7,219z"/>
	</g>
	<g>
		<path class="st3" d="M51.2,218.2c0,0,0.1-0.2,0.2-0.4c0.2-0.2,0.4-0.4,0.6-0.6c0.2-0.2,0.4-0.3,0.6-0.4c0.2-0.1,0.4-0.2,0.4-0.2
			s0.1,0.2,0.1,0.5c0,0.3-0.3,0.7-0.6,0.9c-0.3,0.2-0.7,0.3-0.9,0.3C51.4,218.3,51.2,218.2,51.2,218.2z"/>
	</g>
	<g>
		<path class="st3" d="M54.8,219c0,0,0.2,0,0.5,0c0.3,0.1,0.6,0.2,0.9,0.5c0.3,0.3,0.4,0.7,0.4,1c0,0.3-0.2,0.5-0.2,0.5
			s-0.1-0.1-0.3-0.3c-0.2-0.2-0.4-0.3-0.5-0.5c-0.2-0.2-0.4-0.5-0.5-0.7C54.9,219.2,54.8,219,54.8,219z"/>
	</g>
	<g>
		<path class="st3" d="M53.7,221.5c0,0-0.2-0.2-0.4-0.5c-0.2-0.3-0.4-0.7-0.5-1c-0.2-0.4-0.3-0.7-0.4-1c-0.1-0.3-0.3-0.5-0.3-0.5
			s0.3-0.1,0.7,0.1c0.2,0.1,0.4,0.2,0.6,0.4c0.2,0.2,0.3,0.4,0.4,0.6c0.2,0.5,0.2,0.9,0.2,1.3C53.8,221.2,53.7,221.5,53.7,221.5z"/>
	</g>
	<path class="st3" d="M48.2,218.1c0,0,6.8-0.7,11.6,1.8"/>
</g>
<g>
	<path class="st1" d="M35.1,220.2c1.7-2.2,5.5-2,8.5,0.3s4.1,6,2.4,8.2"/>
	<path class="st1" d="M46,228.7c-2.1,2-5.8,2-8.9-0.5c-3.1-2.6-3.3-6.5-1.6-8.7"/>
	<ellipse transform="matrix(0.6161 -0.7876 0.7876 0.6161 -160.5723 118.2535)" class="st2" cx="41" cy="223.9" rx="4.8" ry="7.1"/>
	<g>
		<path class="st3" d="M42.5,224.6c0,0,0.2-0.1,0.6-0.2c0.3-0.1,0.8-0.1,1.2-0.2c0.4,0,0.7,0,1.1-0.1c0.3,0,0.6-0.1,0.6-0.1
			s0,0.3-0.3,0.6c-0.1,0.2-0.3,0.3-0.6,0.4c-0.2,0.1-0.5,0.1-0.7,0.2c-0.5,0-1-0.1-1.3-0.3C42.7,224.8,42.5,224.6,42.5,224.6z"/>
	</g>
	<g>
		<path class="st3" d="M39,221.6c0,0,0.2-0.2,0.4-0.2c0.3-0.1,0.6-0.2,0.8-0.2c0.3,0,0.5,0,0.7,0c0.3,0,0.5,0,0.5,0s0,0.2-0.2,0.5
			c-0.2,0.3-0.6,0.5-1,0.5c-0.4,0-0.7-0.1-0.9-0.2C39.2,221.8,39,221.6,39,221.6z"/>
	</g>
	<g>
		<path class="st3" d="M41.7,224.1c0,0,0.2,0.1,0.4,0.3c0.2,0.2,0.4,0.5,0.5,0.8c0.1,0.4,0,0.8-0.2,1.1c-0.2,0.3-0.4,0.3-0.4,0.3
			s0-0.2-0.1-0.4c-0.1-0.2-0.2-0.4-0.2-0.7c-0.1-0.3-0.1-0.6,0-0.8C41.6,224.3,41.7,224.1,41.7,224.1z"/>
	</g>
	<g>
		<path class="st3" d="M39.5,225.7c0,0-0.1-0.3-0.1-0.6c0-0.4,0-0.8,0.1-1.2c0.1-0.4,0.1-0.7,0.1-1.1c0-0.3,0-0.6,0-0.6
			s0.3,0.1,0.5,0.4c0.1,0.2,0.2,0.4,0.3,0.6c0.1,0.2,0.1,0.5,0,0.8c-0.1,0.5-0.3,0.9-0.5,1.2C39.8,225.5,39.5,225.7,39.5,225.7z"/>
	</g>
	<path class="st3" d="M36.5,220c0,0,6.1,2.9,9.1,7.5"/>
</g>
<g>
	<path class="st1" d="M89.2,203.9c-0.5-2.7,2.1-5.5,5.8-6.2c3.7-0.7,7.2,0.9,7.7,3.6"/>
	<path class="st1" d="M102.7,201.4c0.1,2.9-2.3,5.7-6.3,6.3c-3.9,0.6-7.1-1.8-7.6-4.5"/>
	<ellipse transform="matrix(0.9822 -0.1881 0.1881 0.9822 -36.2616 21.6279)" class="st2" cx="95.8" cy="201.9" rx="7.1" ry="4.8"/>
	<g>
		<path class="st3" d="M97.3,201.3c0,0,0-0.3,0.2-0.6c0.2-0.3,0.4-0.7,0.6-1c0.2-0.3,0.5-0.6,0.6-0.8c0.2-0.3,0.3-0.5,0.3-0.5
			s0.2,0.2,0.2,0.6c0,0.2,0,0.4-0.1,0.7c-0.1,0.2-0.2,0.5-0.3,0.7c-0.3,0.4-0.7,0.7-1,0.8C97.6,201.2,97.3,201.3,97.3,201.3z"/>
	</g>
	<g>
		<path class="st3" d="M92.8,201.9c0,0,0-0.2,0.1-0.5c0.1-0.3,0.2-0.5,0.4-0.7c0.2-0.2,0.3-0.4,0.5-0.5c0.2-0.2,0.3-0.3,0.3-0.3
			s0.2,0.1,0.3,0.5c0.1,0.3,0,0.7-0.3,1c-0.2,0.3-0.5,0.5-0.8,0.5C93.1,201.9,92.8,201.9,92.8,201.9z"/>
	</g>
	<g>
		<path class="st3" d="M96.5,201.5c0,0,0.2-0.1,0.5-0.1c0.3,0,0.6,0,1,0.2c0.3,0.2,0.6,0.5,0.6,0.9c0.1,0.3-0.1,0.5-0.1,0.5
			s-0.2-0.1-0.4-0.2c-0.2-0.1-0.4-0.2-0.7-0.3c-0.2-0.1-0.5-0.3-0.7-0.5C96.6,201.7,96.5,201.5,96.5,201.5z"/>
	</g>
	<g>
		<path class="st3" d="M96.2,204.2c0,0-0.3-0.1-0.5-0.3c-0.3-0.2-0.6-0.5-0.8-0.8c-0.3-0.3-0.5-0.6-0.7-0.8
			c-0.2-0.2-0.4-0.4-0.4-0.4s0.2-0.2,0.6-0.1c0.2,0,0.4,0.1,0.7,0.2c0.2,0.1,0.4,0.3,0.6,0.5c0.3,0.4,0.5,0.8,0.6,1.2
			C96.2,203.9,96.2,204.2,96.2,204.2z"/>
	</g>
	<path class="st3" d="M89.9,202.8c0,0,6.2-2.7,11.6-1.9"/>
</g>
<g>
	<path class="st1" d="M61.7,231.1c-2.1-1.8-1.7-5.6,0.8-8.5c2.5-2.9,6.2-3.7,8.3-1.9"/>
	<path class="st1" d="M70.8,220.7c1.8,2.2,1.7,5.9-1,8.8c-2.7,2.9-6.7,3-8.7,1.2"/>
	
		<ellipse transform="matrix(0.6578 -0.7532 0.7532 0.6578 -147.3046 126.5984)" class="st2" cx="65.7" cy="225.4" rx="7.1" ry="4.8"/>
	<g>
		<path class="st3" d="M66.5,224c0,0-0.1-0.2-0.2-0.6c-0.1-0.3-0.1-0.8-0.1-1.2c0-0.4,0-0.7,0-1.1c0-0.3-0.1-0.6-0.1-0.6
			s0.3,0,0.6,0.3c0.2,0.1,0.3,0.3,0.4,0.6c0.1,0.2,0.1,0.5,0.1,0.7c0,0.5-0.2,1-0.3,1.3C66.7,223.9,66.5,224,66.5,224z"/>
	</g>
	<g>
		<path class="st3" d="M63.3,227.3c0,0-0.1-0.2-0.2-0.4c-0.1-0.3-0.1-0.6-0.1-0.8c0-0.3,0-0.5,0.1-0.7c0-0.3,0-0.5,0-0.5
			s0.2,0,0.5,0.2c0.3,0.2,0.4,0.6,0.4,1c0,0.4-0.1,0.7-0.3,0.9C63.5,227.2,63.3,227.3,63.3,227.3z"/>
	</g>
	<g>
		<path class="st3" d="M66,224.7c0,0,0.1-0.2,0.3-0.4c0.2-0.2,0.5-0.4,0.9-0.4c0.4-0.1,0.8,0.1,1,0.3c0.2,0.2,0.3,0.4,0.3,0.4
			s-0.2,0-0.5,0.1c-0.2,0.1-0.4,0.1-0.7,0.2c-0.3,0-0.6,0-0.8,0C66.2,224.8,66,224.7,66,224.7z"/>
	</g>
	<g>
		<path class="st3" d="M67.4,227c0,0-0.3,0.1-0.6,0.1c-0.4,0-0.8-0.1-1.2-0.1c-0.4-0.1-0.7-0.2-1-0.2c-0.3,0-0.6-0.1-0.6-0.1
			s0.1-0.3,0.4-0.5c0.2-0.1,0.4-0.2,0.6-0.2c0.2,0,0.5,0,0.8,0c0.5,0.1,0.9,0.3,1.2,0.6C67.2,226.8,67.4,227,67.4,227z"/>
	</g>
	<path class="st3" d="M61.6,229.7c0,0,3.2-6,8-8.6"/>
</g>
<g>
	<path class="st1" d="M201.4,219.7c-0.3-2.7,2.4-5.3,6.2-5.8c3.8-0.5,7.1,1.4,7.5,4.1"/>
	<path class="st1" d="M215.1,217.9c-0.1,2.9-2.7,5.6-6.6,5.9c-4,0.4-7-2.2-7.3-4.9"/>
	<ellipse transform="matrix(0.9921 -0.1256 0.1256 0.9921 -25.733 27.8679)" class="st2" cx="208.1" cy="218" rx="7.1" ry="4.8"/>
	<g>
		<path class="st3" d="M209.6,217.5c0,0,0.1-0.3,0.2-0.6c0.2-0.3,0.4-0.6,0.7-0.9c0.3-0.3,0.5-0.6,0.7-0.8c0.2-0.2,0.3-0.5,0.3-0.5
			s0.2,0.2,0.2,0.6c0,0.2,0,0.4-0.1,0.7c-0.1,0.2-0.2,0.4-0.4,0.6c-0.3,0.4-0.8,0.6-1.1,0.7C209.9,217.5,209.6,217.5,209.6,217.5z"
			/>
	</g>
	<g>
		<path class="st3" d="M205.2,217.9c0,0,0-0.2,0.1-0.5c0.1-0.3,0.3-0.5,0.5-0.7c0.2-0.2,0.4-0.4,0.5-0.5c0.2-0.2,0.3-0.3,0.3-0.3
			s0.2,0.2,0.2,0.5c0.1,0.3-0.1,0.7-0.3,1c-0.3,0.3-0.6,0.4-0.8,0.5C205.4,217.9,205.2,217.9,205.2,217.9z"/>
	</g>
	<g>
		<path class="st3" d="M208.8,217.7c0,0,0.2-0.1,0.5-0.1c0.3,0,0.6,0,0.9,0.3c0.3,0.2,0.6,0.6,0.6,0.9c0,0.3-0.1,0.5-0.1,0.5
			s-0.2-0.1-0.4-0.2c-0.2-0.1-0.4-0.2-0.6-0.4c-0.2-0.1-0.5-0.4-0.6-0.6C208.9,217.9,208.8,217.7,208.8,217.7z"/>
	</g>
	<g>
		<path class="st3" d="M208.4,220.4c0,0-0.3-0.1-0.5-0.4c-0.3-0.2-0.5-0.6-0.8-0.9c-0.2-0.3-0.4-0.6-0.7-0.8
			c-0.2-0.2-0.4-0.4-0.4-0.4s0.2-0.1,0.7-0.1c0.2,0,0.4,0.1,0.6,0.2c0.2,0.1,0.4,0.3,0.6,0.5c0.3,0.4,0.5,0.9,0.5,1.2
			C208.4,220.1,208.4,220.4,208.4,220.4z"/>
	</g>
	<path class="st3" d="M202.2,218.5c0,0,6.4-2.3,11.7-1.1"/>
</g>
<g>
	<path class="st1" d="M262.2,216.7c1.2-2.5,4.9-3.2,8.4-1.6c3.5,1.6,5.3,4.9,4.2,7.4"/>
	<path class="st1" d="M274.7,222.5c-1.6,2.4-5.2,3.3-8.8,1.5c-3.6-1.8-4.7-5.6-3.6-8.1"/>
	
		<ellipse transform="matrix(0.4204 -0.9073 0.9073 0.4204 -42.8036 370.7803)" class="st2" cx="268.8" cy="218.9" rx="4.8" ry="7.1"/>
	<g>
		<path class="st3" d="M270.4,219.3c0,0,0.2-0.2,0.5-0.4c0.3-0.2,0.7-0.3,1.1-0.4c0.4-0.1,0.7-0.2,1-0.3c0.3-0.1,0.5-0.2,0.5-0.2
			s0,0.3-0.2,0.6c-0.1,0.2-0.3,0.4-0.4,0.5c-0.2,0.2-0.4,0.3-0.7,0.3c-0.5,0.1-1,0.1-1.3,0C270.6,219.4,270.4,219.3,270.4,219.3z"/>
	</g>
	<g>
		<path class="st3" d="M266.4,217.2c0,0,0.1-0.2,0.4-0.3c0.2-0.2,0.5-0.3,0.8-0.4c0.3-0.1,0.5-0.1,0.7-0.2c0.3-0.1,0.5-0.1,0.5-0.1
			s0.1,0.2-0.1,0.5c-0.1,0.3-0.5,0.6-0.8,0.7c-0.4,0.1-0.7,0.1-1,0C266.5,217.3,266.4,217.2,266.4,217.2z"/>
	</g>
	<g>
		<path class="st3" d="M269.6,219c0,0,0.2,0,0.5,0.2c0.2,0.1,0.5,0.4,0.7,0.7c0.2,0.3,0.2,0.8,0,1.1c-0.1,0.3-0.4,0.4-0.4,0.4
			s-0.1-0.2-0.2-0.4c-0.1-0.2-0.2-0.4-0.4-0.6c-0.1-0.2-0.2-0.5-0.2-0.8C269.5,219.2,269.6,219,269.6,219z"/>
	</g>
	<g>
		<path class="st3" d="M267.8,221c0,0-0.2-0.2-0.2-0.6c-0.1-0.3-0.2-0.8-0.2-1.2c0-0.4-0.1-0.7-0.1-1.1c0-0.3-0.1-0.6-0.1-0.6
			s0.3,0,0.6,0.3c0.2,0.1,0.3,0.3,0.4,0.5c0.1,0.2,0.2,0.5,0.2,0.7c0,0.5-0.1,1-0.2,1.3C267.9,220.8,267.8,221,267.8,221z"/>
	</g>
	<path class="st3" d="M263.5,216.2c0,0,6.6,1.4,10.5,5.3"/>
</g>
<g>
	<path class="st1" d="M193.2,216.5c2.7-0.4,5.4,2.3,6,6c0.6,3.8-1.1,7.2-3.9,7.6"/>
	<path class="st1" d="M195.4,230.1c-2.9,0-5.6-2.5-6.1-6.5c-0.5-4,2-7,4.7-7.5"/>
	
		<ellipse transform="matrix(0.9877 -0.1564 0.1564 0.9877 -32.4916 33.2449)" class="st2" cx="195.1" cy="223.2" rx="4.8" ry="7.1"/>
	<g>
		<path class="st3" d="M195.6,224.6c0,0,0.3,0.1,0.6,0.2c0.3,0.2,0.7,0.4,1,0.7c0.3,0.3,0.6,0.5,0.8,0.7c0.3,0.2,0.5,0.3,0.5,0.3
			s-0.2,0.2-0.6,0.2c-0.2,0-0.4,0-0.7-0.1c-0.2-0.1-0.5-0.2-0.7-0.4c-0.4-0.3-0.6-0.7-0.8-1.1C195.7,224.9,195.6,224.6,195.6,224.6z
			"/>
	</g>
	<g>
		<path class="st3" d="M195.1,220.2c0,0,0.2,0,0.5,0.1c0.3,0.1,0.5,0.3,0.7,0.4c0.2,0.2,0.4,0.3,0.5,0.5c0.2,0.2,0.3,0.3,0.3,0.3
			s-0.1,0.2-0.5,0.2c-0.3,0.1-0.7-0.1-1-0.3c-0.3-0.2-0.5-0.6-0.5-0.8C195.1,220.4,195.1,220.2,195.1,220.2z"/>
	</g>
	<g>
		<path class="st3" d="M195.4,223.8c0,0,0.1,0.2,0.1,0.5c0,0.3,0,0.6-0.2,1c-0.2,0.3-0.6,0.6-0.9,0.6c-0.3,0.1-0.5-0.1-0.5-0.1
			s0.1-0.2,0.2-0.4c0.1-0.2,0.2-0.4,0.3-0.7c0.1-0.2,0.3-0.5,0.5-0.6C195.2,223.9,195.4,223.8,195.4,223.8z"/>
	</g>
	<g>
		<path class="st3" d="M192.8,223.4c0,0,0.1-0.3,0.3-0.5c0.2-0.3,0.5-0.6,0.8-0.8c0.3-0.2,0.6-0.5,0.8-0.7c0.2-0.2,0.4-0.4,0.4-0.4
			s0.2,0.2,0.1,0.6c0,0.2-0.1,0.4-0.2,0.6c-0.1,0.2-0.3,0.4-0.5,0.6c-0.4,0.3-0.8,0.5-1.2,0.5C193,223.5,192.8,223.4,192.8,223.4z"
			/>
	</g>
	<path class="st3" d="M194.4,217.2c0,0,2.5,6.3,1.5,11.7"/>
</g>
<g>
	<path class="st1" d="M157.2,195.6c-1.4-2.4,0.1-5.9,3.4-7.8c3.3-1.9,7.1-1.6,8.5,0.8"/>
	<path class="st1" d="M169.1,188.5c1,2.7-0.2,6.2-3.7,8.1c-3.5,1.9-7.3,0.7-8.7-1.6"/>
	<ellipse transform="matrix(0.8596 -0.511 0.511 0.8596 -74.9326 110.0374)" class="st2" cx="162.8" cy="191.4" rx="7.1" ry="4.8"/>
	<g>
		<path class="st3" d="M163.9,190.3c0,0,0-0.3,0-0.6c0-0.4,0.2-0.8,0.3-1.1c0.1-0.4,0.2-0.7,0.3-1c0.1-0.3,0.1-0.6,0.1-0.6
			s0.3,0.1,0.4,0.5c0.1,0.2,0.2,0.4,0.2,0.7c0,0.2,0,0.5-0.1,0.7c-0.2,0.5-0.4,0.9-0.7,1.1C164.2,190.2,163.9,190.3,163.9,190.3z"/>
	</g>
	<g>
		<path class="st3" d="M160,192.4c0,0-0.1-0.2-0.1-0.5c0-0.3,0.1-0.6,0.1-0.8c0.1-0.3,0.2-0.5,0.3-0.7c0.1-0.3,0.2-0.4,0.2-0.4
			s0.2,0.1,0.4,0.3c0.2,0.3,0.2,0.7,0.1,1.1c-0.1,0.4-0.4,0.6-0.6,0.8C160.2,192.4,160,192.4,160,192.4z"/>
	</g>
	<g>
		<path class="st3" d="M163.3,190.8c0,0,0.2-0.2,0.4-0.3c0.2-0.1,0.6-0.2,1-0.1c0.4,0.1,0.7,0.3,0.9,0.6c0.2,0.3,0.1,0.5,0.1,0.5
			s-0.2,0-0.5,0c-0.2,0-0.5,0-0.7-0.1c-0.3,0-0.6-0.1-0.8-0.3C163.4,191,163.3,190.8,163.3,190.8z"/>
	</g>
	<g>
		<path class="st3" d="M163.9,193.4c0,0-0.3,0-0.6-0.1c-0.3-0.1-0.7-0.3-1.1-0.5c-0.3-0.2-0.6-0.4-0.9-0.5c-0.3-0.1-0.5-0.2-0.5-0.2
			s0.2-0.2,0.6-0.3c0.2-0.1,0.4-0.1,0.7,0c0.2,0,0.5,0.1,0.7,0.2c0.4,0.2,0.8,0.6,0.9,0.9C163.8,193.2,163.9,193.4,163.9,193.4z"/>
	</g>
	<path class="st3" d="M157.5,194.2c0,0,4.9-4.7,10.3-5.7"/>
</g>
<g>
	<path class="st1" d="M166.7,197.6c-0.5-2.7,2.1-5.5,5.8-6.2c3.7-0.7,7.2,0.9,7.7,3.6"/>
	<path class="st1" d="M180.3,195c0.1,2.9-2.3,5.7-6.3,6.3c-3.9,0.6-7.1-1.8-7.6-4.5"/>
	<ellipse transform="matrix(0.9822 -0.1881 0.1881 0.9822 -33.693 36.0951)" class="st2" cx="173.3" cy="195.6" rx="7.1" ry="4.8"/>
	<g>
		<path class="st3" d="M174.8,195c0,0,0-0.3,0.2-0.6c0.2-0.3,0.4-0.7,0.6-1c0.2-0.3,0.5-0.6,0.6-0.8c0.2-0.3,0.3-0.5,0.3-0.5
			s0.2,0.2,0.2,0.6c0,0.2,0,0.4-0.1,0.7c-0.1,0.2-0.2,0.5-0.3,0.7c-0.3,0.4-0.7,0.7-1,0.8C175.1,194.9,174.8,195,174.8,195z"/>
	</g>
	<g>
		<path class="st3" d="M170.3,195.6c0,0,0-0.2,0.1-0.5c0.1-0.3,0.2-0.5,0.4-0.7c0.2-0.2,0.3-0.4,0.5-0.5c0.2-0.2,0.3-0.3,0.3-0.3
			s0.2,0.1,0.3,0.5c0.1,0.3,0,0.7-0.3,1c-0.2,0.3-0.5,0.5-0.8,0.5C170.6,195.6,170.3,195.6,170.3,195.6z"/>
	</g>
	<g>
		<path class="st3" d="M174,195.2c0,0,0.2-0.1,0.5-0.1c0.3,0,0.6,0,1,0.2c0.3,0.2,0.6,0.5,0.6,0.9c0.1,0.3-0.1,0.5-0.1,0.5
			s-0.2-0.1-0.4-0.2c-0.2-0.1-0.4-0.2-0.7-0.3c-0.2-0.1-0.5-0.3-0.7-0.5C174.1,195.4,174,195.2,174,195.2z"/>
	</g>
	<g>
		<path class="st3" d="M173.7,197.9c0,0-0.3-0.1-0.5-0.3c-0.3-0.2-0.6-0.5-0.8-0.8c-0.3-0.3-0.5-0.6-0.7-0.8
			c-0.2-0.2-0.4-0.4-0.4-0.4s0.2-0.2,0.6-0.1c0.2,0,0.4,0.1,0.7,0.2c0.2,0.1,0.4,0.3,0.6,0.5c0.3,0.4,0.5,0.8,0.6,1.2
			C173.7,197.6,173.7,197.9,173.7,197.9z"/>
	</g>
	<path class="st3" d="M167.4,196.5c0,0,6.2-2.7,11.6-1.9"/>
</g>
<g>
	<path class="st1" d="M150.8,208.1c-0.5-2.7,2.1-5.5,5.8-6.2c3.7-0.7,7.2,0.9,7.7,3.6"/>
	<path class="st1" d="M164.3,205.4c0.1,2.9-2.3,5.7-6.2,6.4c-3.9,0.6-7.1-1.7-7.6-4.4"/>
	<ellipse transform="matrix(0.981 -0.1941 0.1941 0.981 -36.9825 34.4675)" class="st2" cx="157.4" cy="206" rx="7.1" ry="4.8"/>
	<g>
		<path class="st3" d="M158.9,205.4c0,0,0-0.3,0.2-0.6c0.2-0.3,0.4-0.7,0.6-1c0.2-0.3,0.5-0.6,0.6-0.8c0.2-0.3,0.3-0.5,0.3-0.5
			s0.2,0.2,0.3,0.6c0,0.2,0,0.4-0.1,0.7c-0.1,0.2-0.2,0.5-0.3,0.7c-0.3,0.4-0.7,0.7-1,0.8C159.1,205.3,158.9,205.4,158.9,205.4z"/>
	</g>
	<g>
		<path class="st3" d="M154.4,206c0,0,0-0.2,0.1-0.5c0.1-0.3,0.2-0.5,0.4-0.7c0.2-0.2,0.3-0.4,0.5-0.5c0.2-0.2,0.3-0.3,0.3-0.3
			s0.2,0.1,0.3,0.5c0.1,0.3,0,0.7-0.3,1c-0.2,0.3-0.5,0.5-0.8,0.6C154.6,206,154.4,206,154.4,206z"/>
	</g>
	<g>
		<path class="st3" d="M158.1,205.6c0,0,0.2-0.1,0.5-0.1c0.3,0,0.6,0,1,0.2c0.3,0.2,0.6,0.5,0.7,0.9c0.1,0.3-0.1,0.5-0.1,0.5
			s-0.2-0.1-0.4-0.2c-0.2-0.1-0.4-0.2-0.7-0.3c-0.2-0.1-0.5-0.3-0.7-0.5C158.2,205.8,158.1,205.6,158.1,205.6z"/>
	</g>
	<g>
		<path class="st3" d="M157.8,208.3c0,0-0.3-0.1-0.5-0.3c-0.3-0.2-0.6-0.5-0.8-0.8c-0.3-0.3-0.5-0.6-0.7-0.8
			c-0.2-0.2-0.4-0.4-0.4-0.4s0.2-0.2,0.6-0.1c0.2,0,0.4,0.1,0.7,0.2c0.2,0.1,0.4,0.3,0.6,0.5c0.3,0.4,0.5,0.8,0.6,1.2
			C157.8,208,157.8,208.3,157.8,208.3z"/>
	</g>
	<path class="st3" d="M151.5,206.9c0,0,6.2-2.8,11.6-1.9"/>
</g>
</svg>
