<?xml version="1.0" encoding="utf-8"?>
<!-- Generator: Adobe Illustrator 20.0.0, SVG Export Plug-In . SVG Version: 6.00 Build 0)  -->
<svg version="1.1" id="Layer_1" xmlns="http://www.w3.org/2000/svg" xmlns:xlink="http://www.w3.org/1999/xlink" x="0px" y="0px"
	 viewBox="0 0 300 250" style="enable-background:new 0 0 300 250;" xml:space="preserve">
<style type="text/css">
	.st0{clip-path:url(#SVGID_2_);fill:#3A261E;}
	.st1{clip-path:url(#SVGID_2_);}
	.st2{fill:#4A3522;}
	.st3{fill:#302019;}
	.st4{fill:none;stroke:#4A3522;stroke-miterlimit:10;}
	.st5{fill:none;stroke:#000000;stroke-miterlimit:10;}
</style>
<g>
	<defs>
		<rect id="SVGID_1_" y="-0.3" width="300" height="250"/>
	</defs>
	<clipPath id="SVGID_2_">
		<use xlink:href="#SVGID_1_"  style="overflow:visible;"/>
	</clipPath>
	<rect x="-4.1" y="-2.8" class="st0" width="308.6" height="257.2"/>
	<g class="st1">
		<g>
			<path class="st2" d="M55.5,130.2c0.1,0,0.1,0,0.2,0c0,0,0,0,0,0H55.5z M55.5,130.2c0.1,0,0.1,0,0.2,0c0,0,0,0,0,0H55.5z
				 M55.5,130.2c0.1,0,0.1,0,0.2,0c0,0,0,0,0,0H55.5z M55.5,130.2c0.1,0,0.1,0,0.2,0c0,0,0,0,0,0H55.5z M1,145.6
				c-0.3,0.1-0.7,0.3-1,0.4v1.8c0.6,0,1.1,0,1.7,0c0.6,0,1.1,0,2.1-0.7C2.8,146.5,1.7,145.3,1,145.6z M298.5,58.5
				c0,0.4,0.1,0.8,0.1,1.2c0.5,0,0.9-0.1,1.4-0.1v-1.6C299.5,58.2,299,58.4,298.5,58.5z M253,66.4c13.3,0.1,26.6,0,39.8,0.3
				c2.4,0,4.8,0.4,7.1,0.8v-6.6c-14.5,0.5-29-0.4-43.6-0.4c0-0.4,0-0.7,0-1.1h34.5c0-0.5,0-1,0-1.5c-14.1-1.1-28.1-2.3-42.2-3.4
				c0,0.3-0.1,0.5-0.1,0.8c0.7,0.2,1.3,0.5,2,0.5c0.7,0.1,1.4,0,2,0.7c-8.2-0.5-16.5-1-24.7-1.6c-13.8-1.1-27.6-1.7-41.5,0
				c-3.6,0.4-7.4-0.3-11.1-0.3c-5.8-0.1-11.6,0-17.4,0c0-0.6,0-1.2,0-1.9h26c0-0.6,0-1.2,0-1.8c-10.1-0.2-20.3-0.3-30.4-0.6
				c-12.3-0.4-24.6,0.3-36.8-2.3c-1.9-0.4-3.9,0-5.9,0.8c3,0.3,6.1,0.7,8.3,0.9c-8.9,0-18.7,0.1-28.4,0c-6.4-0.1-12.8-0.6-19.2-0.9
				l0.1,0.1H36.7c0.1-0.1,0.2-0.4,0.3-0.6C24.7,48.8,12.3,49,0,48.9v19.3c1,0,2,0,3,0.1c-1.3,1.6-2.1,2.6-3,3.2v15.1
				c3.8,1,7.4,2.7,11.2,2.7c-3.7,0-7.5,0.1-11.2,0.3v22.5c0.8,0.1,1.7,0.2,2.5,0.4c1.2,0.3,2,2.1,3,3.2c-0.3,0.5-0.7,0.9-1,1.4
				c-1.5-0.9-2.9-2-4.5-2.8v11.8c0.8-0.1,1.5-0.1,2.3-0.2c9.4-0.4,18.8-0.8,28.2-0.8c5.5,0,11-0.9,16.3,2.2c2.5,1.4,6.1,0.9,9.2,1.2
				c-0.1,0.5-0.2,1-0.3,1.6h19c0.1-0.1,0.1-0.3,0.2-0.4c-1.3-0.2-2.6-0.5-4-0.7c0-0.1,0-0.3,0.1-0.4c3.1,0.5,6.2,0.9,9.3,1.4
				c0.3-0.8,0.7-1.8,1-2.8c1.8,0.7,3.6,1.4,5.3,2c-0.1,0.6-0.3,1.2-0.4,1.8c-13.4,1.6-26.8,1.2-40.3,0.4c0-0.4,0-0.8-0.1-1.2h9.7
				c-4.4-1.1-8.7-2.2-13.1-3.1c-2.3-0.5-4.8-0.9-7.2-0.8c-11.8,0.6-23.5,1.5-35.3,2.1v1.3c3.1,0,6.2,0.1,9.3,0.1
				c2.8,0,5.4,0.2,6.6,3.5c0.3,0.8,1.9,1.1,3.9,2c-4.9,0-8.9,0-12.9,0c-2.3,0-4.6-0.1-6.9-0.1v1.9c4.5,0,9.1,0.1,13.6,0.8
				c0,0.7,0,1.3-0.1,2c-4.5,0-9,0-13.5,0v2.8c0.2,0,0.4-0.1,0.7-0.1c2.7-0.4,5.3-0.9,8-1.4c0.4-0.1,0.8-0.2,1.2-0.2
				c17.9,0.2,35.8,0.8,53.6,0.4c6.2-0.1,11.9,3,18.2,0.5c0,0.6,0,1.1,0,1.7H48.8c0,0.3,0,0.7,0,1c8.4,0.4,16.8,0.8,24.9,1.2
				c-8.9,0-18.3,0.9-27.4-0.3c-4.8-0.6-8.6,0.2-13,1.1c-3.4,0.7-7.1,0.2-10.7,0.3c-1.3,0-2.7,0.3-4,0.4c0,0.5,0,0.9,0.1,1.3h25
				c-1.3,1.2-1.8,1.6-2.5,2.3H68c0-0.2,0-0.3,0-0.5c-0.9-0.2-1.8-0.3-2.7-0.5c0-0.1,0-0.2,0-0.4h70c-3.6,1.8-6,3.1-7.8,4
				c-1.9-0.9-3.5-2.2-5.1-2.3c-10-0.2-20-0.3-30,0c-8.7,0.3-17.3,1.5-25.9,1.8c-14.7,0.5-29.4,0.9-44.2,0.8
				c-7.5,0-14.9-0.4-22.4-0.8v2.5c12.8,0.4,25.6,0.9,38.4,1.1c12.8,0.1,25.5-0.1,38.2-0.2c6.1,0,12.2,0,18.3,0c0,0.4,0,0.9,0,1.3
				c-31.6,0.3-63.3,0.6-95,0.9v11.2h6.4c0,0.5,0,1,0,1.5H0v4.1c2.1,0.3,4.2,0.8,6.4,1.7c-2.1,0-4.2,0-6.4,0.2v3.5
				c9.8,0.4,19.5,1.1,29.3,1.2c9.1,0.2,18.2-0.3,27.4-0.5c2.7,0,5.3,0,8.2-0.5c-1.8-0.2-3.6-0.6-5.4-0.7c-8-0.4-16.1-0.7-24.2-1.1
				c0-0.5,0-0.9,0-1.4c1.4-0.1,2.8-0.3,4.2-0.4c0-0.3,0-0.6,0-0.9c-5.7-0.3-11.4-0.6-17.1-1c1-0.4,2.1-0.7,3.8-1.4
				c-5.5-0.9-10.2-1.7-14.8-2.5c0-0.3,0-0.6,0-0.9h10.4c-2.2-1.1-3.3-1.7-4.2-2.2c27.1-1,54.2-2,81.4-2.9c0,0.3,0,0.6,0.1,0.9
				c-1.6,0.1-3.3,0.3-4.9,0.4c0,0.3,0,0.7,0,1c1.4,0,2.9,0.3,4.3-0.1c12.7-3.3,25.6-1.1,38.5-1.4c15-0.4,30-0.4,45.1-0.5
				c11.6,0,23.2,0.1,34.8,0.1c21.9,0,43.8,0,65.7,0c5.1,0,10.6,1.1,15.4-0.2c0.7-0.2,1.4-0.3,2.1-0.5v-11.4c-15.3,0.2-30.7,0.6-46,1
				c-2.7,0.1-5.3,1-7.9,1.6c0,0.5,0,0.9,0,1.4h27.4c0,0.6,0,1.2,0,1.9c-4.6-0.9-8.6,5-13.7,0.6c-0.3-0.3-1.1-0.1-1.7-0.1
				c-4.3,0.1-8.7,0.6-13,0.4c-9.7-0.4-19.3-1.4-29-1.7c-9.3-0.3-18.6,0-27.9,0.2c-18.3,0.4-36.5-2.1-54.9-1.7c-2.7,0.1-5.5,0-8.2,0
				c0-0.6,0-1.2,0-1.8h50.6c0-0.2,0-0.5,0-0.7c-8.9-0.6-17.9-1.1-26.8-1.7c0-0.3-0.1-0.5-0.1-0.8c7.4-0.6,14.7-1.2,22.1-1.8
				c0-0.4,0-0.8,0-1.2h-33.4c0-0.3,0-0.7,0-1c26.3-1,52.7-1.9,79-2.9c0,0.3,0,0.7,0.1,1c-2,0.2-4,0.5-6,0.7c0,0.4,0,0.8,0,1.2
				c29.8,0.4,59.5,0.7,89.3,1.1v-2c-3.2,0.2-6.5,0.5-9.7,0.7c0-0.5,0-0.9-0.1-1.3c3.3-0.2,6.5-0.5,9.8-0.7v-5.1
				c-10-0.6-20.2-0.3-30.3-0.1c-13.2,0.2-26.5,0.5-39.7,1c-9.5,0.4-19.1,1.3-28.6,1.7c-5.6,0.2-11.2-0.2-16.8-0.2
				c-19.6,0-39.2,0.3-58.8,0.2c-12.3-0.1-24.6-0.3-36.9-1.2c-5.1-0.4-10.1-2.7-15.2-4.3c12.9,1.7,26,4.7,39,0.3h-11.9
				c0-0.1,0-0.1,0-0.2h39.9c0,0.5,0,0.9,0,1.4h-15.2v1.4h26.6c0-0.3,0.1-0.6,0.1-0.9c-0.9-0.2-1.9-0.3-2.8-0.5
				c8.7-0.5,17.2,2.3,25.9,1.3c0-0.4,0-0.7,0-1.1h-3.9c0-0.5,0-1,0-1.4c33.6-1.3,67.2-0.5,100.8-1.9c0-0.5,0-1,0-1.5
				c-4.5-0.3-9.1-0.7-13.6-1c0,0.2,0,0.4,0,0.6h-42.3c0.4-0.4,1.2-1.1,1.9-1.7c-0.2-0.4-0.3-0.9-0.5-1.3c2.1,0.1,4.2,0.3,6.3,0.4
				c-7.5-3.2-15.4-1.6-23.2-3.4c23.3-0.5,46.6-0.9,70.1-1.4c-0.1,0.3-0.4,0.9-0.9,1.8c10.1,2.3,20.2-0.4,30.2-0.9v-2.2
				c-0.1,0-0.2,0-0.3,0c0-0.6,0-1.2,0-1.8h0.4v-1.4c-42.4,1.6-84.6-1.9-126.9-4.2c2.3-0.2,4.6-0.3,6.9-0.5c11-0.7,21.9-1.4,32.9-2
				c3.3-0.2,6.6,0.1,9.9,0c1.5,0,2.9-0.6,4.4-0.9c0-0.4-0.1-0.9-0.1-1.3H211c0-0.5,0-0.9,0.1-1.4c12.1,0.9,24.5-2.1,36.3,2.8
				c0.8,0.3,1.9,0.6,2.5,0.3c5.8-3.7,12-2.5,18.3-1.7c4.8,0.6,9.7,0.4,14.6,0.7c2.3,0.1,4.6,0.5,6.9,0.7c0,0.3,0,0.7,0,1
				c-3.7,0.3-7.4,0.7-11.1,1c0,0.4,0,0.7,0,1.1c7.1,0.2,14.3,0.5,21.4,0.7v-3.1c-2-0.1-4-0.1-5.9-0.2c2-0.4,4-0.8,5.9-1.2v-9.8
				c-1.9,0.2-3.9,0.5-5.8,0.7c-0.8,0.1-1.6,0-2.4,0c-4-0.4-8.1-0.9-12.1-1.4c-4.1-0.5-8.2-1-12.3-1.4c0.1-0.5,0.1-1.1,0.1-1.6
				c10.5,0.6,21,1.2,31.5,1.9c0.2-0.3,0.3-0.5,0.5-0.8c-0.7-0.1-1.3-0.2-2-0.3c0.2-0.3,0.3-0.6,0.5-0.9h1.9V91
				c-1.8,0-3.6-0.1-5.5-0.1c-2.4,0-4.8,0.5-7.2,0.6c-12.1,0.2-24.2,0.5-36.3,0.5c-9,0-18-0.2-27-0.3c-2.2,0-4.4-0.2-6.6-0.3
				c0-0.4,0-0.8,0-1.2h10.6c0-0.3,0-0.6,0-1c-1.5-0.1-3-0.2-4.5-0.2c0-0.4,0-0.8,0-1.2H251c-6.7-6.3-15.1-3.1-22.6-4.3
				c0-0.4,0.1-0.8,0.1-1.2c16.2,0,32.4,0.1,48.7,0c6.7-0.1,13.4-1,20.1-0.9c0.9,0,1.8,0.1,2.8,0.2v-6.3h-19.4v-1.1H300V72
				c-1.5,0-2.9,0.1-4.4,0.1c-7.6,0.2-15.2,0.8-22.8,1c-11,0.2-22,0.1-33,0.4c-14.9,0.4-29.7,1.2-44.6,1.3
				c-19.8,0.2-39.7-0.2-59.5-0.3c-2.5,0-5,0-7.5,0c0-0.5-0.1-0.9-0.1-1.4c3.4-0.3,6.8-0.7,10.1-1c0-0.4,0-0.9-0.1-1.4h-22.4
				c-0.1-0.5-0.1-1-0.2-1.5c2.7-0.9,5.4-1.7,8.4-2.7h-11.8c0-0.3,0-0.5,0-0.8H160v0.9h-28.6c0,0.4-0.1,0.7-0.1,1.1
				c1.6,0.2,3.1,0.6,4.7,0.7c9.9,0.3,19.8,0,29.5,1.1c4.2,0.5,7.8,0.3,11.6-0.9c0.4-0.1,0.8-0.1,1.3-0.2c9.2-0.4,18.3-0.8,27.5-1.2
				c4.8-0.2,9.7-0.9,14.5-0.8c3.8,0.1,7.5,1.4,11.3,1.6c6.9,0.3,13.7,0.1,20.6-0.6h-11.5c0-0.4,0-0.8,0-1.2
				C244.8,66.4,248.9,66.3,253,66.4z M17.8,131.3c0-0.2,0-0.4-0.1-0.7h24c0.1,0.2,0.1,0.4,0.2,0.7H17.8z M44.4,140.1
				c0-0.2,0-0.5,0-0.7h12.8c0,0.2,0,0.5,0,0.7H44.4z M63.3,162.5c3.5-0.2,6.9-0.5,10.4-0.7C70.4,165,66.8,162.5,63.3,162.5z
				 M111.7,163H93.1v-1.6c7.3-0.4,14.6-0.8,21.9-1.2c0,0.3,0,0.5,0.1,0.8c-1.6,0.1-3.2,0.3-6.2,0.5C110.9,162.6,111.7,163,111.7,163
				z M249.2,109.2h-17.9c0-0.2,0-0.4,0-0.5h17.8C249.2,108.9,249.2,109.1,249.2,109.2z M298.3,99.4c-27,3.3-54.2,1.2-81.4,1.4
				c0-0.5,0-0.9,0-1.4H298.3z M26.5,116H15.1v-0.8h11.4V116z M38.3,111.8c1.8-0.2,3.6-0.4,5.4-0.6c0-0.2,0-0.4,0.1-0.6
				c-12.6-0.9-25.3-1.8-37.9-2.7c0-0.5,0-1,0-1.4c1.5-0.2,3-0.4,4.4-0.6c-0.5-0.3-1.1-0.7-1.6-1.1c0.1-0.3,0.2-0.7,0.3-0.8
				c8.8-3.4,17.9-3.1,27-2.3c3.8,0.3,7.6,0.2,11.5,0.3c12.1,0.3,24.2,0.7,36.2,1l-0.1,1.5c-1.1,0.1-2.2,0.2-4.3,0.4
				c1.3,0.2,1.7,0.2,2,0.3c2.8,1,5.6,2.7,8.5,2.8c8.4,0.3,16.9,0,25.3,0.1c13.6,0.1,27.2,0.4,40.8,0.7c0.4,0,0.8,0.2,1.2,1
				c-2.3,0.3-4.7,0.9-7,0.9c-19,0.1-38,0-57.1,0.1c-3.5,0-6.9,0.9-10.4,0.8c-6.9-0.3-13.7-1.4-20.6-1.6c-4.6-0.1-9.2,0.8-13.9,1.4
				C44.8,111.6,41.6,112.2,38.3,111.8z M23.4,99.8v-1.2h34.4v1.2H23.4z M66.3,83.5c0.1-0.4,0.1-0.8,0.2-1.1
				c5.9,1.1,11.7,2.1,17.6,3.2c0,0.1,0,0.2,0.1,0.4H62.6c0-0.3,0-0.6,0-0.9c2.4-0.1,4.7-0.2,7.1-0.3c0-0.2,0-0.3,0.1-0.4
				C68.6,84,67.5,83.7,66.3,83.5z M83.6,80.5v-0.8h27.2v0.8H83.6z M95.9,95.1c0-0.2,0-0.5-0.1-0.7h38.5c0,0.2,0,0.5,0,0.7H95.9z
				 M129.6,102.7c0,0.4,0,0.8,0,1.2H99.9c0-0.4,0-0.8,0-1.2H129.6z M159.4,113.6c0,0.5,0,1,0,1.5c-13.4,2.7-26.7-1.9-40.1-0.2
				c0-0.5,0-0.9,0-1.4H159.4z M80.2,116.9c-10.1-0.3-20.2-0.3-30.4-0.4c-1.2,0-2.5-0.1-3.7-0.2c0-0.4,0.1-0.8,0.1-1.2h83.1
				c0.1,0.6,0.1,1.1,0.2,1.7c-2.3,0.5-4.6,1.4-7,1.3C108.4,117.9,94.3,117.2,80.2,116.9z M184.2,128.7c3.8,0.2,7.5,0.9,11.3,1.4
				c0,0.5-0.1,1-0.1,1.5c-32.1-0.5-64.2-1-96.3-1.5v-1.2c10.8-3.4,21.8-2.9,32.9-2.4C149.4,127.3,166.8,127.9,184.2,128.7z
				 M178.8,111c3.6-3.3,16.1-3.5,18.8,0H178.8z M213.7,90.7c-22.8,2.2-45.7,0.7-68.6,1.1c0-0.4,0-0.7,0-1.1H213.7z M126.5,83.6h50.8
				c0,0.4,0,0.9,0,1.3h-50.8V83.6z M123.4,83.5c0,0.5-0.1,0.9-0.1,1.4H87.4c0-0.5,0-0.9,0-1.4H123.4z M112.4,70.4h-15
				c3,4.7,7.9,3.6,13.1,4.2H83.1c-0.1-0.3-0.1-0.6-0.2-1c0.8-0.4,1.5-0.9,3.4-2c-26.7,2.6-52.2,0.3-77.7,0c0-0.8,0.1-1.5,0.1-2.2
				c13.5-0.5,26.9-1.1,40.7-1.6c-0.7,0.4-1.3,0.8-1.9,1.1C69.2,68.6,90.8,66.4,112.4,70.4z M61.3,60.3c0-0.4,0-0.9-0.1-1.3
				c18.7-2.4,37.2,0.3,55.8,1.3H61.3z M146.4,62.1c-4.6-0.4-9.1-0.7-13.7-1c0-0.4,0-0.8,0.1-1.3c4.6,0.4,9.1,0.9,13.7,1.4
				C146.4,61.5,146.4,61.8,146.4,62.1z M231.3,60.3c0,0.3-0.1,0.6-0.1,0.9c1.7,0.3,3.5,0.6,5.2,0.9c0,0.1-0.1,0.2-0.1,0.4h-85.1
				l0-1.7c14.2-5.1,28.7-2.7,43.1-1.8c4.9,0.3,9.9,0.1,14.9,0.1c14,0,28,0,42,0c0,0.4,0,0.8,0,1.2H231.3z M55.5,130.2
				c0.1,0,0.1,0,0.2,0c0,0,0,0,0,0H55.5z M55.5,130.2c0.1,0,0.1,0,0.2,0c0,0,0,0,0,0H55.5z M281.1,0c5.6,1,11,0.6,16.6,0H281.1z
				 M298.4,1.5c-7,0.1-14,0.2-21,0.6c-10.1,0.5-20.1,1.6-30.2,1.9c-7.9,0.2-15.9-0.3-23.9-0.5c-5.8-0.1-11.7-0.3-17.5-0.3
				c-1.6,0-3.2,1-4.8,2.3c2.7,0.3,5.4,0.6,8.1,0.7c11.4,0.5,22.8,0.9,34.2,1.3c0.6,0,1.2,0,1.7,0.2c3.3,1.3,6.7,2.6,10,4
				c-6.6,0.4-13.6,0.7-20.5,1.1c0,0.4,0,0.8,0,1.2h35.4c0-0.4,0.1-0.8,0.1-1.2c-3.5-0.5-7-1-10.4-1.5c0-0.3,0-0.5,0-0.8
				c1.3-0.2,2.6-0.5,4-0.5c7.5,0.2,15.1-1.3,22.6,1.1c1.7,0.5,3.8-0.3,5.8-0.7c2.4-0.5,4.8-1.1,7.2-1.7c0.1,0.5,0.2,0.9,0.4,1.4
				c-1.4,0.3-2.8,0.7-4.2,1c0.1,0.4,0.2,0.8,0.3,1.2c1.5-0.4,3-0.9,4.5-1.3V1.6C299.5,1.5,299,1.5,298.4,1.5z M300,14.1
				c-7.8,0.2-15.6,0.3-23.3,0.5c-1.3,0-2.6,0.2-3.8,0.7c-9.2,3.5-18.9,2.8-28.4,3c-0.3,0-0.6-0.4-0.8-1.7c2.8,0.2,5.6,0.4,8.4,0.6
				c0-0.2,0.1-0.5,0.1-0.8c-4.4-0.4-8.9-1.1-13.3-1.2c-4.8-0.1-9.7,0.4-14.6,0.4c-4.7,0-9.4-0.5-14.1-0.3c-4.5,0.3-8.9,1.3-13.3,2
				c-0.1-0.5-0.2-1.1-0.3-1.6c1.5-0.4,3-0.8,4.6-1.2c0-0.2,0-0.5,0-0.8c-32.6-0.8-65.2-1.7-97.8-2.5c0,0.3-0.1,0.5-0.1,0.8
				c1,0.3,2,0.6,3,0.8c0,0.2,0,0.4,0,0.6c-27.8-1.3-55.6-2.7-83.7-4c0.4-0.5,0.7-1,0.9-1C36.6,8,49.8,7.6,63,7c4-0.2,8-0.6,12-0.5
				c9.9,0.1,19.7,0.1,29.6,0.7c10.8,0.7,21.3-1.3,31.9-2.9c0.8-0.1,1.5-0.1,2.3-0.1c-1.4-0.4-2.7-1-4.1-1.1
				c-5.5-0.4-11-0.5-16.5-1.4h125.6c0-0.5,0.1-0.9,0.1-1.4c-1.7-0.1-3.4-0.2-5.1-0.2H106.5c-0.2,0-0.4,0.1-0.6,0.1c3,0.3,6,0.6,9,1
				v1.2c-3.3,0.3-6.6,0.9-9.9,0.9C92.8,3,80.5,2.5,68.2,2.4C59.1,2.3,50,2.7,40.8,2.6c-4.4-0.1-8.8-1.1-13.2-1.2
				c-7.4-0.2-14.8-0.3-22.2,0C3.7,1.4,1.8,1.5,0,1.6V9c4.5-0.4,8.9-1,13.4-1.2c2.8-0.1,6.5-1.2,7.8,3.9C14,10.8,7,9.9,0,9.1v6h46.7
				c0,0.7,0.1,1.4,0.1,2.1H0v23.9c4,0,7.9,0.1,11.9,0.2c2.2,0.1,4.4,1,6.5,1.5c0.8,0.2,1.7,0.5,2.5,0.4c16.5-2.1,33.1-0.8,49.7-0.7
				c12.9,0.1,25.8-0.2,38.6-0.3c4.8,0,9.6,0.2,14.4,0.2c1.2,0,2.4-0.6,3.6-0.9c0.8-0.2,1.7-0.6,2.5-0.5c8.2,1,16.3,2,24.5,3
				c0.3,0,0.7,0.4,0.5,0.3c-7,0.5-14.4,1-21.7,1.5c0,0.5,0.1,1,0.1,1.5c4,0,8.1,0,12.1,0c16.4-0.2,32.9-0.4,49.3-0.7
				c13.3-0.2,26.7-0.3,40-0.5c12-0.2,24-0.7,36-0.8c4.1,0,8.2,1,12.3,0.8c5.7-0.2,11.4-1.2,17.1-1.5v-4.5
				c-12.7-0.1-25.5-0.8-38.2-1.8H300V14.1z M46.9,31H27.2c0-0.3,0-0.6,0-0.9h19.7V31z M199.3,27.9h16.4v0.7h-16.4V27.9z M182.4,18.4
				H199c0,0.2,0,0.5,0,0.7h-16.7V18.4z M135.8,18.3h39.5c0,0.3,0,0.7,0,1h-39.7C135.7,19,135.8,18.6,135.8,18.3z M141.2,26.6
				c0,0.5,0,1,0,1.5h-8.7c0-0.3,0-0.5,0-0.8C135.4,27,138.3,26.8,141.2,26.6z M142.4,39.6c-0.2-0.6-2.6-0.9-4-0.8
				c-7.1,0.2-14.2,0.6-21.4,0.8c-6.1,0.1-12.2,0-18.2,0c0-0.3,0-0.7,0-1c15.8-0.5,31.6-0.9,46.1-1.3c1,2,1.6,3.2,2.2,4.4
				C145.5,41.6,143.3,43.1,142.4,39.6z M146.2,27.9c0-0.3,0-0.6,0-0.9h44.3c0,0.3,0,0.6,0,0.9H146.2z M172.1,41.8c2-0.2,4-0.3,6-0.5
				c0-0.5,0-0.9,0-1.4c-3.1-0.3-6.2-0.6-9.3-0.9c0-0.3,0-0.7,0-1c4.7,0,9.4,0,14.1,0c6.6-0.1,13,1.2,19.8-1.6
				c3.9-1.6,9.2,0.4,13.8,0.7c3.2,0.2,6.4,0.1,9.6,0.2c6.4,0.4,12.8,0.8,18.8,1.2C221.2,44.1,196.6,42.1,172.1,41.8z M257.3,41.7
				h-14.4c0-0.2,0-0.4,0-0.6h14.4V41.7z M287.5,21.9h-29.7c0-0.4,0-0.7,0-1.1h29.7C287.6,21.2,287.6,21.5,287.5,21.9z M55.5,130.2
				c0.1,0,0.1,0,0.2,0c0,0,0,0,0,0H55.5z"/>
			<path class="st2" d="M300,199.9c-23.5,2.5-46.8,5.4-70.3,3c1.3-0.1,3.1-0.3,4.9-0.5c0-0.1,0-0.3,0-0.4c-5-0.2-10-0.5-15-0.7
				c-0.1,0.3-0.1,0.6-0.2,0.9c1.9,0.3,3.8,0.6,5.6,0.9c0,0.2,0,0.5-0.1,0.7c-5.3,0-10.6-0.1-15.9,0c-5.7,0.1-11.4,0.2-17.2,0.4
				c-8.5,0.3-17,1-25.5,0.9c-5.1-0.1-10.2-1.5-15.3-2.1c-5.5-0.7-11.1-1.4-16.7-1.6c-2.8-0.1-5.6,0.9-9.4,1.6
				c1.7,0.9,2.5,1.3,3.9,2.1c-5.8-0.6-11-1.1-16.2-1.6c-0.1,0.7-0.1,1.4-0.2,2.1h28.4c0,0.7,0,1.4,0,2.1c-17.6,0-35.4,1.1-52.9-0.3
				c-17.1-1.4-34.3,0.5-51.3-2.6c1.1-0.2,2.2-0.4,3.3-0.6c0-0.3-0.1-0.6-0.1-0.9c-5.6,0.7-11.2,1.5-16.8,2.2c0,0.4,0,0.9,0,1.3
				c1.2,0.5,2.3,0.9,4.4,1.7c-2.4,0.3-4,0.4-5.9,0.6c0.3,0.6,0.5,1.1,0.6,1.2c-5.7-1.3-11.8-2.7-17.8-4c-0.3,0.7-0.5,1.5-0.8,2.2
				c1.6,0.7,3.2,1.4,5.2,2.2c-3,1-5,1.1-7.6-1.3c-0.3-0.3-0.8-0.6-1.3-0.8V223h49c-1.9-0.2-3.8-0.5-5.7-0.7c9.1-2.4,18,0.5,27,1.5
				c-23.4,2.1-46.9,2.3-70.3,1.2v19.4c2.8,0.2,5.6,0.7,8.3,1.1c4.2,0.7,8.3,1.5,13.5,2.4c-1.7,0.3-2.5,0.5-3.3,0.5
				c-6.2,0.1-12.4,0.2-18.5,0.3v1.3h96.9c-0.9-0.2-1.8-0.4-2.7-0.5c4.6-0.9,9-1.8,13.3-2.6c0-0.1,0-0.2,0-0.3H95.9c0-0.5,0-1,0-1.5
				c37.1,0.7,74.2,2.3,111.2,1c0-0.7,0-1.3,0.1-2c-2.5,0-5,0-7.4,0c-7.1-0.1-14.3-0.2-21.4-0.4c-17.3-0.5-34.6-1.2-52-1.7
				c-1.3-0.1-2.6-0.1-3.8,0.3c-6.1,1.9-11.8-0.4-17.7-1.2c-1.4-0.2-2.8-0.2-4.2-0.1c-12.5,0.7-24.9,1.4-37.3,2.1
				c-0.1-0.4-0.1-0.9-0.2-1.3c0.4-0.3,0.8-0.8,1.2-0.8c7.6-0.4,15.3-0.8,23-1c16.7-0.4,33.4-0.7,50-1c0.7,0,1.5-0.2,2.1,0
				c3,1,5.8,0.8,9,0.5c7.5-0.8,15.1-0.6,22.6-0.5c8.1,0.1,16.3,0.4,24.4,0.9c9.4,0.5,18.8,1.3,28.3,1.5c-1.9,0.4-3.8,0.8-6.4,1.4h29
				c0-0.5,0.1-1.1,0.1-1.6c-2.3-0.2-4.7-0.4-7-0.7c15.5-0.3,31.1,1.7,46.6-3.3c0.1,2,0.2,3,0.2,3.7H300v-2h-11.2
				c0-0.2,0-0.5-0.1-0.7H300v-7.6c-17.8,1.2-35.7,2.6-53.5-1.7c0,0.4,0,0.9,0,1.3c1.9,0.1,3.8,0.2,5.8,0.3c0,0.2,0,0.4,0,0.6
				c-3.8,0.2-7.6,0.6-11.4,0.7c-9,0.4-18,0.8-26.9,0.8c-2.4,0-4.8-1.3-7.2-1.9c-0.8-0.2-1.6-0.3-2.4-0.3c-5.1,0.5-10.3,1-15.4,1.5
				c0-0.4-0.1-0.9-0.1-1.3c2.5-0.2,5-0.3,7.5-0.5c0-0.3,0-0.7,0-1c-20.8-0.3-41.7-0.7-62.5-1c0-0.7-0.1-1.5-0.1-2.2
				c4-0.5,8.1-1.7,12-1.2c6.2,0.8,12.3,0.5,18.5,0.1c7.4-0.5,14.9,0.4,22.3,0.6c10.4,0.3,20.7,0.8,31.1,0.9c5,0,10-0.8,14.9-0.8
				c11.6-0.1,23.1,0.2,34.7,0c11-0.1,21.9-0.4,32.9-0.6v-4.4h-1.2c0-0.1,0-0.2,0-0.2c0.4,0,0.8,0,1.2,0v-6.6c-1.3,0.1-2.6,0.1-4,0.2
				c-1.8,0-3.6,0-5.5-0.9c3.1-0.1,6.3-0.2,9.4-0.3V199.9z M31,245.3c3.7-1.1,6.7-2,9.7-2.9c2.1-0.7,3.1,1,4.6,1.7
				c2,1,4.7,0.5,7.1,0.7c0,0.2,0,0.3,0,0.5H31z M50.1,215.4H3.4c0-0.4-0.1-0.9-0.1-1.4h46.8V215.4z M30.4,211.6
				c0-0.4,0.1-0.7,0.1-1.1h25.1c0,0.4,0,0.7,0,1.1H30.4z M55.3,213.1c20.2-2.1,40.5-2,60.8-0.3c0,0.5,0,1.1,0,1.6
				c-6.9,0-13.8-0.5-20.6,0.1c-6.7,0.6-13.3-0.9-20.3,1C69.2,217.1,62,214.1,55.3,213.1z M117.3,221.5H79.1
				c-0.1-0.5-0.1-0.9-0.2-1.3C91.5,218.9,104,219.3,117.3,221.5z M125.9,225.8H77.8v-1.2h48.1V225.8z M287.2,214
				c-8.5,0-17-0.2-25.4,0c-11.3,0.3-22.6,1-33.8,1.2c-11.7,0.2-23.3,0.1-35,0.1c-5.3,0-10.6-0.2-15.9-0.5c-1.4-0.1-2.8-1.2-4.2-1.9
				c0,0,0,0,0,0c0,0-0.1,0-0.1,0c-14.6-0.3-29.3-0.6-43.9-1c0-0.3-0.1-0.6-0.1-0.9c0.5-0.2,1-0.5,1.6-0.5c8.8-0.2,17.7-0.8,26.5-0.5
				c5.3,0.2,10.6,1.8,16,2.8h0.1c0,0,0,0,0,0c3.2-0.6,6.4-1.8,9.5-1.8c8.8,0.1,17.6,1.1,26.5,1c8.1-0.1,16.2-1.3,24.3-1.6
				c5.7-0.2,11.4,0.6,17.1,0.8c5.1,0.2,10.3,0,15.4,0.2c7.2,0.2,14.4,0.5,21.6,0.8C287.2,212.8,287.2,213.4,287.2,214z M300,187.8
				v-5.6c-5.3-0.2-10.6-0.3-15.9-0.5c0.3,0.4,0.6,0.9,0.9,1.4c-6.9,0-13.4,0.1-20,0c-8.4-0.2-16.8-1-25.2-1c-10.1,0-20.3,0-30.4,1.2
				c-7.4,0.9-14.6,0.8-21.9,0.2c0-0.4-0.1-0.8-0.1-1.1c2.2-0.1,4.4-0.2,6.6-0.3c2.4-0.2,4.8-0.7,7.2-0.8c12.4-0.5,24.9-1.1,37.3-1.5
				c5.3-0.2,10.6,0.4,15.9,0.2c2.2-0.1,4.4-1.3,6.6-2c-1.8-0.2-3.5-0.5-5.3-0.6c0,0,0,0,0,0c0,0,0,0,0,0c0,0,0,0,0,0c0,0,0,0,0,0
				c0,0,0,0,0,0c0,0,0,0,0,0c0,0,0,0,0,0c0,0,0,0,0,0c0,0,0,0,0,0c0,0,0,0,0,0c0,0,0,0,0,0c0,0,0,0,0,0c0,0,0,0,0,0h0c0,0,0,0,0,0h0
				c0,0,0,0,0,0h0c0,0,0,0,0,0h0c0,0,0,0,0,0c-0.9-0.1-1.8-0.1-2.6-0.1c-0.6,0-1.2,0-1.8,0.1h-0.2c-7.8,0.3-15.5,0.9-23.2,1
				c-12.5,0.2-25.1,0-37.7-0.1c-6.4,0-12.8,0-19.2,0c0,0.5,0,1,0,1.5h17.4c-8.7,5.7-18,3.6-27.1,3.2c-14.4-0.5-28.7-2.1-43.2,0.2
				c-7.1,1.1-14.5,0.1-21.8,0.1c-4.6,0-9.2,0-13.8,0c0-0.5,0-1-0.1-1.5c2.2-0.3,4.3-0.6,6.4-0.9c-5.4-0.3-10.3-0.6-15.8,1.9
				c-5,2.3-11.8,1-17.8,1c-13,0-26-0.2-39-0.4c-4.3,0-8.7-0.2-13-0.3c0,0.6,0,1.2,0,1.9h26.4v1.2c-9.7,0.3-19.5,0.7-29.2,1v9.8
				c5.2-5.3,12.1-2.7,18.2-3.2c8.4-0.7,16.8-0.2,25.5-0.2c-11.3,4.8-23.5,0-35.4,3.2c1.9,0.8,3.2,1.4,4.5,1.9
				c1.3,0.5,2.8,1.2,4.1,1.2c12.8-0.4,25.5-1,38.3-1.6c3-0.1,5.9-0.7,9.1-1.9c-1.8-0.3-3.5-0.7-5.8-1.1h19.9c0,0.4,0,0.9,0.1,1.3
				c-1,0.2-2.1,0.4-3.1,0.7c0,0.3,0,0.7,0,1.1c2.7,0,5.7,0.6,8.2-0.1c7-2,13.9-0.2,20.8-0.1c10.4,0.2,20.9,0,31.3-0.6
				c10.5-0.6,21-1.7,31.4-2.8c-14.1-1.8-28.3,0.8-42.4-1c0-0.5,0-1,0-1.5h10.4c0-0.3,0.1-0.6,0.2-0.9c-1-0.5-2-1-3-1.5
				c0-0.2,0.1-0.5,0.1-0.8h49.5c0,0.3,0.1,0.6,0.1,0.9c-4.9,0.5-9.7,1-14.6,1.6c0,0.3,0.1,0.6,0.1,0.9l19.1,0.9
				c0.1,0.3,0.1,0.6,0.1,0.9c-2.5,0.4-5,0.8-7.5,1.2c0,0.4,0,0.8,0,1.1h41.3c-0.6,0-1.2,0.1-1.8,0.1c0,0.4,0,0.9,0,1.3
				c5.5,0.3,11,0.7,16.5,1c0.4-0.3,1.1-1.4,1.9-1.5c3-0.2,6.4-0.9,8.9,0.2c6.3,2.7,12.8,2,19.2,2.4c7.4,0.4,14.9,0.1,22.5-0.6
				c-0.7-0.5-1.5-0.9-3-1.8H300v-8.5h-14.5c0.2-0.4,0.5-1.2,0.8-1.9c-0.1-0.5-0.2-1-0.4-1.5c2.9,0.7,5.8,1.7,8.8,2.1
				C296.5,187.9,298.2,187.9,300,187.8z M81.4,190.1H7.9c0-0.5,0-1,0-1.4c24.5-2.7,49,0.3,73.4,0.2V190.1z M231.5,191.6
				c-12.2-1-24.4-2.1-36.6-3.1c0-0.3,0-0.6,0-0.9c2.5-0.1,5-0.4,7.6-0.4c2.7-0.1,5.5-0.4,8.1-0.1c7,0.9,14,2.1,21,3.2
				C231.6,190.7,231.5,191.1,231.5,191.6z M281.8,198h-27.3v-1.1h27.3V198z"/>
			<path class="st3" d="M243.6,248.6c4.4,0.4,8.8,1,13.2,1.4h-19.2c2-0.3,4.1-1,6.1-1.4C243.7,248.6,243.7,248.6,243.6,248.6
				C243.7,248.6,243.7,248.6,243.6,248.6L243.6,248.6z"/>
			<path class="st3" d="M300,249.7v0.3h-27c7-0.3,13.9-0.7,20.9-1c0.3,0,0.6-0.3,0.8-0.2C296.5,249.3,298.2,249.6,300,249.7z"/>
			<path class="st3" d="M248.7,177.2L248.7,177.2c0.7,0,1.4,0,2.1,0c0.1,0,0.1,0,0.2,0c1,0,2,0,2.9,0c0.5,0,1,0,1.5,0c0,0,0,0,0,0h0
				c0,0,0,0,0,0h0c0,0,0,0,0,0h0c0,0,0,0,0,0h0c0,0,0,0,0,0c0,0,0,0,0,0c0,0,0,0,0,0c0,0,0,0,0,0c0,0,0,0,0,0c0,0,0,0,0,0
				c0,0,0,0,0,0c0,0,0,0,0,0c0,0,0,0,0,0c0,0,0,0,0,0c0,0,0,0,0,0c0,0,0,0,0,0c0,0,0,0,0,0h0c2.7,0,5.3,0,8,0c1.4,0,2.8,0.2,4.2,0.2
				c3.5-0.2,7-0.4,10.5-0.7c1.1-0.1,2.2-0.4,3.3-0.6c3.2-0.6,6.4-1.4,9.6-1.7c2.8-0.2,5.7-0.1,8.5-0.1L248.7,177.2z"/>
			<path class="st3" d="M248.7,177.2c0.5,0,1,0,1.6,0c0-0.5,0-0.9,0-1.4c-7.2-0.2-14.3-0.6-21.5-0.4c-6.8,0.1-13.6,0.8-20.5,0.4
				c3.8-0.5,7.6-1.1,11.4-1.6c0-0.1,0-0.2,0-0.3c-6.8-0.3-13.6-0.7-20.5-1c14.6-4.6,29.3,0,43.9-1.9c-2.6,0-5.3,0-7.9,0
				c0-0.5,0-1,0-1.4c12.9,0,25.9,0,38.9,0c-0.8,0.3-1.7,0.7-2.6,1c0,0.3,0,0.5,0,0.8c9.5,0.8,19,1.6,28.5,2.5L248.7,177.2z"/>
			<path class="st3" d="M25.9,173.4c11.9-3.5,24-3.2,36.1-0.8c0-0.4,0.1-0.8,0.1-1.2c-1-0.3-2-0.7-3.1-1c0.1-0.5,0.1-0.9,0.2-1.4
				c9.9,0.7,19.8,1.3,29.7,2c0.1,0.4,0.1,0.8,0.2,1.2c-2.6,0.5-5.1,1-7.7,1.5c0,0.2,0,0.4,0.1,0.5c4.6-0.3,9.3-0.5,13.9-0.8
				c0,0.5,0,1,0.1,1.5c-7.6,0-15.1,0-23.4,0c0.5,1.4,0.7,2,0.9,2.6c-5.9,3.7-10.7-3.1-16.4-2.1c1.4-0.2,2.7-0.4,4.1-0.6
				c0,0.1-0.1,0.2-0.1,0.3C49,174.6,37.4,174,25.9,173.4z"/>
			<path class="st3" d="M192.4,169.8c-13.3,1.6-26.6,1.3-39.9,0.2c0-0.4,0-0.9,0-1.3c13.3,0,26.6,0,39.9,0
				C192.4,169,192.4,169.4,192.4,169.8z"/>
			<path class="st3" d="M106.5,177.1c12.1,1,24.2-3.9,36.2,0.3c0,0.4,0,0.8,0,1.2c-12.1,0-24.2,0-36.3,0
				C106.5,178.1,106.5,177.6,106.5,177.1z"/>
			<path class="st3" d="M300,170v1.1h-15.5c0-0.4,0-0.7,0-1.1H300z"/>
			<path class="st3" d="M196.5,167.7c9.2-0.4,18.4-0.8,27.7-1.2c0,0.5,0,1,0.1,1.5c-9.3,0-18.6,0-27.9,0
				C196.4,167.9,196.5,167.8,196.5,167.7z"/>
			<path class="st3" d="M0,150.8c4.3,0,8.5,0,12.8,0c0-0.3,0-0.5,0-0.8c-4.3,0-8.5,0-12.8,0V150.8z"/>
			<path class="st3" d="M285,177.1c4.3,0.3,8.7,0.6,13,1c0,0.1,0,0.3,0,0.4c-4.3,0-8.7,0-13,0C285,178,285,177.5,285,177.1z"/>
			<path class="st3" d="M36.2,199.3c3.6,0.3,7.2,0.7,10.8,1c0,0.1,0,0.2-0.1,0.2c-3.6,0-7.2,0-10.8,0
				C36.1,200.1,36.2,199.7,36.2,199.3z"/>
			<path class="st3" d="M166.6,198.5c-5-0.3-10.1-0.6-15.1-0.9c0-0.1,0-0.3,0-0.4c5,0,10.1,0,15.1,0
				C166.6,197.6,166.6,198.1,166.6,198.5z"/>
			<path class="st3" d="M189.1,200.2c-2.9-0.6-5.7-1.1-8.6-1.7c0.1-0.3,0.1-0.6,0.2-1c2.9,0.4,5.8,0.7,8.7,1.1
				C189.3,199.2,189.2,199.7,189.1,200.2z"/>
			<path class="st3" d="M255,129.3c-1.8,0.8-2.5,1.1-3.9,1.7c3.7,0.2,6.8,0.4,9.9,0.6c0,0.4-0.1,0.8-0.1,1.2
				c-9.9-0.8-19.8-1.5-29.8-2.3c0-0.4,0-0.8,0-1.2C238.7,129.3,246.3,129.3,255,129.3z"/>
			<path class="st3" d="M270.4,133.1c1.9,0,5.6-1.1,7.1,0.2c3.4,3.3,7.4,1.6,11,3c-3.7,0-7.5,0.4-11.1-0.1
				C274.7,135.8,272.3,134,270.4,133.1z"/>
			<path class="st3" d="M59.4,48c-0.7-0.5-1.3-0.9-2.1-1.4c10.8-0.7,21.5-1.4,32.2-1.9c1.2-0.1,2.4,1.4,3.3,2.9c-2.4,0-4.9,0-7.6,0
				c0.5-0.5,0.9-0.8,0.9-0.8c-8.8,0.3-17.8,0.7-26.9,1.1C59.2,47.9,59.4,48,59.4,48z"/>
			<path class="st3" d="M262.2,49.7c-6.3,0.5-12.6,1-18.9,1.5c-0.1-0.3-0.1-0.6-0.2-0.9c3.2-0.6,6.3-1.6,9.5-1.8
				c3.1-0.2,6.2,0.4,9.3,0.6C262.1,49.3,262.2,49.5,262.2,49.7z"/>
			<path class="st3" d="M150.3,70.3c-5.7,0-11.4,0-17,0c0-0.2,0-0.5,0-0.7c5.7,0,11.3,0,17,0C150.3,69.9,150.3,70.1,150.3,70.3z"/>
			<path class="st3" d="M249.8,247.2C249.8,247.2,249.8,247.2,249.8,247.2L249.8,247.2L249.8,247.2L249.8,247.2z"/>
			<path class="st3" d="M300,244.3v2.6h-18c0-0.1-0.1-0.3-0.1-0.4c2.2-0.3,4.3-0.5,6.5-0.8c0-0.4-0.1-0.8-0.1-1.2
				c-12.8,0.9-25.6,1.7-38.5,2.6c-1.2-2.6,1-2.1,2.2-2.2c6.3-0.3,12.6-0.5,18.9-0.9c7.5-0.5,15.1-1.1,22.6-1.6
				c1-0.1,2.2-0.3,2.9,0.2C297.6,243.4,298.8,244,300,244.3z"/>
			<path class="st3" d="M175.9,249.4c-15,1.8-30.1,0.8-45.2,0.4c0-0.6,0-1.2,0-1.8c15.1,0,30.1,0,45.2,0
				C175.8,248.5,175.8,248.9,175.9,249.4z"/>
			<path class="st3" d="M243.8,248.5c-2.1-0.5-4.1-1.1-6.2-1.6c0.1-0.4,0.1-0.8,0.2-1.2c4,0.5,8,1,12.1,1.5c0,0,0,0,0,0
				c-2,0.5-4.1,0.9-6.2,1.4C243.6,248.6,243.8,248.5,243.8,248.5z"/>
			<path class="st3" d="M300,85.7c-4.2,0-8.4,0-12.6,0c0-0.2,0-0.5,0-0.8c4.2,0,8.4,0,12.6,0V85.7z"/>
			<path class="st3" d="M126.6,3.5c6.4-0.5,12.8-1.1,19.2-1.6c0,0.3,0.1,0.5,0.1,0.8c-1.6,0.3-3.2,0.6-4.7,0.9c0,0.3,0,0.6,0,0.9
				c14,0,27.9,0,42.5,0c-1,1.2-1.5,1.8-2.2,2.8c1.5,0.3,2.6,0.6,3.7,0.8c0,0.3,0,0.6,0,0.9c-2.9,0-6.2,0.9-8.6-0.2
				c-7.8-3.4-15.9-0.8-23.7-2.1c-6.3-1-12.8,0.6-18.8-2.8C132.1,2.8,129.1,3.5,126.6,3.5C126.6,3.5,126.6,3.5,126.6,3.5z"/>
			<path class="st3" d="M180.1,10.4c3.7,0,7.4,0,11.1,0c0,0.3,0,0.5,0,0.8c-3.7,0-7.4,0-11.1,0C180.1,10.9,180.1,10.7,180.1,10.4z"
				/>
			<path class="st3" d="M197.6,9.8c3.1,0.3,6.1,0.7,9.2,1c-0.1,0.6-0.2,1.3-0.3,1.9c-3-0.6-6.1-1.1-9.1-1.7
				C197.4,10.6,197.5,10.2,197.6,9.8z"/>
			<path class="st3" d="M166.1,10.1c-3.6,2.2-7.5-1.6-11.1-0.6c3.7-0.4,7.3-0.7,11-1.1C166,8.9,166,9.5,166.1,10.1z"/>
			<path class="st3" d="M40.4,105.7c-4.8-0.3-9.6-0.6-14.4-0.9c0-0.5,0.1-1,0.1-1.6c4.8,0.5,9.6,1.1,14.3,1.6
				C40.4,105.1,40.4,105.4,40.4,105.7z"/>
			<path class="st3" d="M250.9,228.4c3.9,0,7.8,0,11.7,0c0,0.2,0,0.4,0,0.6c-3.9,0-7.8,0-11.7,0
				C250.9,228.8,250.9,228.6,250.9,228.4z"/>
			<rect class="st4" width="300" height="250"/>
		</g>
		<rect y="-0.5" class="st5" width="300" height="250"/>
	</g>
</g>
</svg>
