<?xml version="1.0" encoding="utf-8"?>
<!-- Generator: Adobe Illustrator 19.1.0, SVG Export Plug-In . SVG Version: 6.00 Build 0)  -->
<svg version="1.1" id="Layer_1" xmlns="http://www.w3.org/2000/svg" xmlns:xlink="http://www.w3.org/1999/xlink" x="0px" y="0px"
	 viewBox="0 0 300 250" style="enable-background:new 0 0 300 250;" xml:space="preserve">
<style type="text/css">
	.st0{fill:#FFFFFF;}
</style>
<g>
	<path class="st0" d="M34.5,58.2c0-0.6,0-1.9,0-4.2v-4.2c0-1.3,0-3.7-0.1-7.4c-0.1-3.7-0.1-6.1-0.1-7.5l0-1.3c0-0.5,0-1.5,0-3
		c0-3.3,0-5-0.1-5H29c-0.3,0-0.5-0.1-0.7-0.2c-0.2-0.1-0.3-0.3-0.3-0.5c0-0.2,0-0.4,0.1-0.5c0.1-0.1,0.3-0.2,0.7-0.3
		c0.5-0.1,1.1-0.1,1.9-0.1l4.7,0l5.1,0c0.4,0,0.6,0.1,0.8,0.2s0.2,0.3,0.2,0.6c0,0.5-0.3,0.7-0.9,0.7h-2.1l-2.1,0l-0.4,0h0l0,2.7
		v3.6v18.9l0,3.8l0,3.4v0.1c0,0.3,0,0.5,0,0.6S36,59,35.9,59.1c-0.1,0.1-0.3,0.2-0.5,0.2c-0.3,0-0.5-0.1-0.7-0.3
		C34.6,58.8,34.5,58.5,34.5,58.2z"/>
	<path class="st0" d="M49.1,51.9c-0.1,0-0.2,0-0.2,0c0,0-0.1,0.1-0.1,0.2c0,0,0,0.1,0,0.1s0,0.1,0,0.1l-0.1,0.9
		c-0.1,0.8-0.2,1.9-0.5,3.3c-0.2,0.8-0.3,1.4-0.5,2c-0.2,0.5-0.5,0.8-0.7,0.8c-0.2,0-0.4-0.1-0.6-0.3s-0.3-0.4-0.3-0.5l0-0.1l0-0.1
		c0.5-2,1-4.2,1.4-6.6l0.5-2.9c0.1-0.6,0.2-1.2,0.3-1.9l0.3-1.6l0.5-3.1c0.1-0.9,0.4-2.2,0.8-4.1c0.4-1.9,0.7-3.3,0.8-4.3l0.2-1.7
		l0.1-0.7c0.1-0.8,0.2-1.5,0.2-1.9c0.1-0.8,0.2-1.2,0.3-1.4l0.3,0c0.1,0,0.2,0,0.3,0c0.4,0,0.7-0.1,0.8-0.3c0.2,0,0.4,0.1,0.6,0.2
		c0.2,0.1,0.3,0.3,0.3,0.5c0,0.9,0,1.7,0.1,2.4c0.1,0.7,0.1,1.6,0.3,2.7l0.3,2.5c0.4,4.4,1.2,11.9,2.6,22.5v0.1
		c0,0.3-0.1,0.5-0.4,0.7c-0.3,0-0.6,0-0.7-0.1c-0.1,0-0.2-0.1-0.3-0.3c-0.1-0.1-0.1-0.4-0.2-0.7l-0.8-6.1c-0.6-0.2-1.3-0.2-2.3-0.2
		c-0.3,0-0.9,0-1.7-0.1C49.9,51.9,49.3,51.9,49.1,51.9z M49.1,50.5c0,0.2,0.6,0.3,1.8,0.4c1.2,0.1,2.2,0.2,3.1,0.2h0.5
		c-0.2-3.3-0.8-9.9-1.8-19.8c-1.6,8-2.4,12.1-2.5,12.4C49.5,47.3,49.1,49.5,49.1,50.5z"/>
	<path class="st0" d="M64,58.5l0.2-0.4c0.2,0,0.5,0.1,0.8,0.2c0.4,0.1,0.7,0.2,0.9,0.2c0.7,0,1.3-0.3,1.8-0.8
		c0.5-0.5,0.9-1.2,1.2-2.1c0.5-1.5,0.7-3.1,0.7-4.5c0-1.2-0.2-2.3-0.5-3.5s-0.8-2.3-1.4-3.4l-0.5-1c-0.7-1.2-1.2-2.1-1.5-2.9
		c-0.4-0.7-0.7-1.5-1-2.4c-0.4-1.2-0.6-2.5-0.6-3.7c0-0.6,0.1-1.2,0.2-1.9c0.1-0.7,0.4-1.4,0.6-2.1c0.3-0.7,0.7-1.3,1.2-1.8
		c0.5-0.4,1.1-0.7,1.7-0.7c0.4,0,0.8,0.1,1.2,0.4c0.4,0.3,0.6,0.6,0.6,0.9c0,0.2-0.2,0.4-0.6,0.4c-0.1,0-0.3,0-0.5-0.1
		c-0.2-0.1-0.4-0.1-0.5-0.1c-0.5,0-0.9,0.2-1.2,0.6c-0.4,0.4-0.6,0.9-0.8,1.5c-0.4,1.1-0.6,2.2-0.6,3.1c0,0.6,0.1,1.2,0.2,1.8
		l0.2,0.8c0,0.1,0.1,0.4,0.3,0.9l0.2,0.8l0.3,0.8l0.8,1.4l0.4,0.6c0.4,0.7,0.8,1.3,1.1,1.8c0.3,0.5,0.6,1.1,0.9,1.7
		c0.3,0.7,0.5,1.3,0.7,1.8s0.3,1.2,0.4,2.1c0.1,0.7,0.2,1.6,0.2,2.5c0,1.6-0.2,3-0.6,4.2c-0.3,0.8-0.6,1.4-1,2
		c-0.4,0.5-0.8,1-1.4,1.3c-0.6,0.4-1.3,0.5-2,0.5l-0.2,0.1c-0.4-0.1-0.7-0.2-1-0.4C64.2,59,64,58.8,64,58.5z M69.1,29.2L69.1,29.2
		L69.1,29.2C69.2,29.2,69.2,29.2,69.1,29.2z"/>
	<path class="st0" d="M83.3,58.8l-0.5-0.4l0-1.7l0-1.7l0-0.8l0-0.8c0-0.4-0.1-0.8-0.2-1.1c0-2.5-0.2-6.4-0.5-11.6
		c-0.3-5.3-0.5-9.1-0.5-11.1c-2,0-3.3-0.1-3.9-0.2c-0.6-0.1-1-0.4-1-0.7c0.1-0.3,0.4-0.5,0.9-0.5c0.7,0,2.1,0.1,4,0.2
		c1.9,0.2,3.2,0.2,4,0.2l1,0l1,0c0.6,0,0.8,0.2,0.8,0.6c0,0.2-0.1,0.3-0.3,0.5c-0.2,0.1-0.4,0.2-0.7,0.2c-0.4,0-1.1,0-2-0.1
		s-1.6-0.1-2-0.1c-0.1,0-0.2,0-0.2,0.1c0,0.2,0,0.4,0,0.9c0,3,0.2,7.6,0.5,13.7c0.4,6.1,0.5,10.6,0.5,13.7c0,0.2-0.1,0.4-0.4,0.6
		S83.5,58.8,83.3,58.8z"/>
	<path class="st0" d="M95,57.5l-0.2-0.2c0.2-0.6,0.3-1.3,0.3-1.9c0-0.5,0-1.6-0.1-3.1C95,50.8,95,49.8,95,49.3c0-1.8,0.1-4.1,0.2-7
		s0.2-5.2,0.2-7c0-0.8,0-1.7-0.1-2.8c-0.1-1.1-0.1-2-0.1-2.8c0-0.5,0.1-0.8,0.3-1c0.2-0.2,0.5-0.3,1-0.3c0.3,0,0.6,0.1,0.7,0.3
		c0.2,0,0.7,0.1,1.4,0.2c0.8,0.1,1.4,0.2,2,0.4c0.6,0.2,0.9,0.4,0.9,0.7c0,0.3-0.3,0.6-0.9,0.9c-1.7-0.6-3-0.9-3.8-0.9l-0.2,0.3
		c0,0.6,0,1.2,0,2c0,1,0,2.2-0.1,3.6c-0.1,1.4-0.1,2.6-0.1,3.6c0,0.9,0.2,1.3,0.7,1.3l0.8,0c0.5,0,0.7,0,0.8,0
		c1.2,0,1.8,0.3,1.8,0.8c0,0.3-0.1,0.6-0.2,0.9c-0.2,0.2-0.4,0.4-0.7,0.4c-0.5,0-0.9-0.1-1.1-0.4L97,42.2h-0.2l-0.2,0.2v0.1
		c0.1,0.7,0.1,1.9,0.1,3.7l0,3.3l0,3.3c0,1.2,0,2.4,0.1,3.7c0,0.7,0.2,1.2,0.5,1.4c0.3,0.2,0.8,0.4,1.5,0.4l0.8,0l0.9,0
		c0.9,0,1.4,0.2,1.4,0.6c0,0.6-0.7,0.8-2,0.8h-3.8c-0.6,0-0.9-0.3-0.9-1c0-0.2,0-0.4,0-0.6C95,57.9,95,57.7,95,57.5z"/>
	<path class="st0" d="M109.7,58c-0.1-2.6-0.2-5.3-0.2-8.1l0-5.5l0-5.5c0-3-0.1-6-0.2-8.7c-0.3-0.2-0.4-0.5-0.4-0.9
		c0-0.2,0.1-0.5,0.4-0.7c0.3-0.2,0.5-0.3,0.7-0.3c0.2,0,0.4,0.1,0.7,0.4c0.3,0.3,0.4,0.4,0.5,0.4c0.2,0.1,0.6,0.2,1.1,0.3
		c0.5,0.1,0.9,0.2,1.1,0.3c0.5,0.2,1.1,0.7,1.9,1.4c0.7,0.7,1.2,1.2,1.6,1.4l0,0.1c0,0.2,0.2,0.6,0.7,1.2c0.4,0.6,0.7,1,0.8,1.3
		c0.5,1.3,0.7,3.2,0.7,5.5c0,0.4,0,0.8,0,1.1c0,0.3,0,0.7,0,1.1v0.4c0,0.1,0,0.3,0,0.5c0,0.6,0.1,1.1,0.2,1.4
		c-0.2,1-0.4,2.9-0.7,5.6c-0.1,0.8-0.2,1.6-0.5,2.5c-0.2,0.9-0.5,1.7-0.8,2.3c-0.4,0.7-0.9,1.4-1.6,2.1c-0.7,0.7-1.5,1.3-2.5,1.8
		h-3.2C109.9,59.3,109.7,58.9,109.7,58z M111.4,57.2l0.2,0.1l0.1,0.6h1.4c0.2-0.3,0.4-0.5,0.6-0.6c0,0,0.1-0.1,0.1-0.1
		c0.1,0,0.1-0.1,0.2-0.1l0.4-0.3c2.2-2,3.3-5.7,3.3-11.2c0-0.3,0-0.6,0-0.9c0-0.2,0-0.5,0-0.8l-0.2-4.7c0-0.8-0.2-1.7-0.5-2.7
		c-0.3-1-0.7-1.9-1.1-2.9c-0.5-1-1.1-1.8-1.9-2.4c-0.8-0.6-1.6-0.9-2.5-0.9c-0.3,0-0.5,2.9-0.5,8.6c0,6.6,0.2,12.3,0.5,17.4
		L111.4,57.2z"/>
	<path class="st0" d="M140.3,44.5c-1.6-2.9-2.4-5.3-2.4-7.1s0.7-3.4,2-4.8c1.3-1.4,3-2.1,5.1-2.1s3.7,0.5,4.9,1.4s1.8,2.2,1.8,3.8
		s-0.7,3.1-2.1,4.4c-1.5,1.3-2.8,2.4-3.9,3.1s-1.8,1.1-1.9,1.2c2.1,3,4.7,5.9,7.8,8.6c0.5-1.1,0.8-2.1,0.8-3.1
		c0-0.9-0.2-1.7-0.6-2.2c-0.4-0.5-0.8-0.8-1.3-0.9c-0.5-0.1-0.7-0.3-0.7-0.6c0-0.4,0.2-0.8,0.7-1s1.1-0.4,1.9-0.4
		c0.9,0,1.6,0.3,2.1,1c0.6,0.7,0.9,1.5,0.9,2.5c0,2.2-0.7,4.2-2.1,6.1c2.2,1.7,4.2,2.9,6.1,3.6c0.4,0.1,0.7,0.2,0.9,0.3
		c0.2,0.1,0.4,0.2,0.6,0.3c0.4,0.2,0.6,0.4,0.6,0.7c0,0.3-0.3,0.6-1,1c-0.7,0.4-1.3,0.6-1.8,0.6c-2.4,0-5.2-1.2-8.3-3.7
		c-2.3,1.6-5,2.4-8,2.4s-5.2-0.6-6.6-1.9c-1.4-1.3-2.1-2.8-2.1-4.6c0-1.8,0.6-3.3,1.7-4.6C136.6,47.2,138.2,45.9,140.3,44.5z
		 M137.7,51.9c0,1.6,0.6,3,1.8,4.2c1.2,1.1,2.7,1.7,4.6,1.7c1.8,0,3.5-0.6,5.1-1.7c-3-2.8-5.7-6-8-9.8
		C138.9,47.9,137.7,49.8,137.7,51.9z M146.9,39.7c0.9-1,1.4-2.1,1.4-3.3s-0.3-2.2-1-2.9c-0.7-0.7-1.6-1.1-2.9-1.1
		c-1.2,0-2.1,0.4-2.7,1.3c-0.6,0.9-0.9,2-0.9,3.5c0,1.4,0.7,3.3,2,5.7C144.7,41.7,146,40.7,146.9,39.7z"/>
	<path class="st0" d="M182.1,43.9V36c-0.6-0.1-1.4-0.3-2.6-0.6c-1.1-0.3-2-0.5-2.6-0.6c-1.8-0.4-3.2-0.6-4.2-0.6
		c-2,0-2.9,0.5-2.9,1.6c0,1.2,0.4,2.2,1.2,3.1c0.8,0.8,1.6,1.3,2.2,1.3s1.2-0.2,1.7-0.5c0.5-0.3,1-0.5,1.4-0.5
		c0.5,0,0.8,0.3,0.8,0.8c0,0.5-0.2,1-0.7,1.3c-0.5,0.3-1.2,0.5-2.3,0.5c-1.6,0-3-0.7-4.2-2.1c-1.1-1.4-1.7-2.9-1.7-4.4
		s0.3-2.6,1-3.4c0.7-0.7,1.5-1.1,2.6-1.1c2.4,0,5.9,0.7,10.5,2.2c0.4-2,1.1-2.9,2.1-2.9c0.5,0,0.7,1.3,0.7,3.8
		c3,0.9,5.6,1.4,7.8,1.4c1.4,0,2.6-0.5,3.7-1.3c0.3-0.2,0.6-0.4,0.8-0.4s0.3,0.1,0.3,0.3c0,0.8-0.6,1.6-1.9,2.3s-2.7,1-4.5,1
		s-3.8-0.2-6.3-0.7c0.1,4.3,0.1,7.2,0.1,8.8c0,1.6-0.1,3-0.2,4.1c-0.1,1.1-0.3,2.3-0.7,3.6c-0.4,1.3-0.9,2.3-1.5,3.2
		c-0.6,0.9-1.4,1.6-2.5,2.1c-1.1,0.6-2.3,0.8-3.7,0.8c-1.4,0-2.7-0.3-3.8-1c-1.1-0.7-1.7-1.7-1.7-3c0-0.8,0.2-1.5,0.7-2.1
		s1-0.8,1.7-0.8c0.7,0,1.1,0.2,1.1,0.5c0,0.2-0.1,0.5-0.3,0.9c-0.2,0.5-0.3,0.9-0.3,1.3s0.3,0.9,0.9,1.5c0.6,0.5,1.4,0.8,2.5,0.8
		C180.5,57.4,182.1,52.9,182.1,43.9z"/>
	<path class="st0" d="M193,59.3c-1.7,0-3.1-0.7-4.1-2c-1-1.3-1.5-2.8-1.5-4.5c0-3.4,0.7-5.9,2.1-7.7c1.4-1.7,3.3-2.6,5.5-2.6
		c1.1,0,1.9,0.3,2.6,0.9c0.7,0.6,1,1.4,1,2.3c0,1.9-0.8,3.4-2.3,4.7c-1.6,1.3-3.5,1.9-5.7,2c0.1,1.2,0.5,2.3,1.2,3.1
		s1.5,1.3,2.4,1.3c0.9,0,1.8-0.2,2.5-0.7c0.7-0.4,1.4-1.1,2-1.9c1.3-1.7,2.4-3.6,3.3-5.8c0.2-0.6,0.4-1,0.6-1.2
		c0.1-0.2,0.3-0.4,0.5-0.4c0.2,0,0.3,0.1,0.3,0.4c0,1.6-0.9,3.9-2.8,7C198.6,57.6,196,59.3,193,59.3z M190.6,51.3
		c1.8-0.3,3.2-0.9,4-1.8c0.9-0.9,1.3-2,1.3-3.4c0-1.4-0.5-2.1-1.3-2.1c-1.1,0-2,0.8-2.7,2.3C191,47.8,190.6,49.5,190.6,51.3z"/>
	<path class="st0" d="M207.9,44.8l0.1-0.7c0-0.6-0.3-0.8-1-0.8s-1.2,0.4-1.8,1.2c-0.6,0.8-0.9,1.5-0.9,2c0,0.5,0,0.9,0.1,1.3
		c0.1,0.3,0.1,0.6,0.2,0.8c0.1,0.2,0.2,0.4,0.4,0.7c0.2,0.3,0.3,0.5,0.4,0.6l0.5,0.7c0.2,0.3,0.4,0.5,0.5,0.6
		c1.6-1.3,3.5-2.8,5.8-4.5c0.1-0.1,0.3-0.1,0.4-0.1c0.3,0,0.5,0.2,0.5,0.5c0,0.3-0.1,0.6-0.4,0.8c-2,1.3-3.9,2.7-5.6,4.1
		c0.7,1,1,2.1,1,3.3c0,1.2-0.4,2.2-1.3,3c-0.9,0.8-2,1.3-3.4,1.3s-2.1-0.7-2.1-2c0-1,1-2.4,3.1-4.4c-0.2-0.2-0.4-0.5-0.8-0.9
		c-0.4-0.4-0.7-0.8-0.9-1c-0.2-0.2-0.4-0.6-0.7-1c-0.5-0.8-0.7-1.6-0.7-2.5c0-1.8,0.6-3.3,1.8-4.4c1.2-1.1,2.4-1.7,3.8-1.7
		c0.8,0,1.5,0.2,2,0.7c0.5,0.5,0.7,0.9,0.7,1.4c0,1.1-0.2,1.6-0.7,1.6C208,45.2,207.9,45.1,207.9,44.8z M204.9,54
		c-1.2,1.2-1.9,2.2-1.9,3s0.4,1.1,1.2,1.1c0.5,0,0.9-0.2,1.2-0.6C206,56.6,205.9,55.5,204.9,54z"/>
	<path class="st0" d="M221.1,51.5c-2.5,5.2-4.5,7.8-6.2,7.8c-1.7,0-2.7-0.2-3-0.6c-0.3-0.4-0.4-1.7-0.4-4c0-2.3,0.2-5.5,0.7-9.8
		c-1.6-0.3-2.4-0.9-2.5-1.9c0-0.5,0.3-0.7,1-0.7s1.2,0.1,1.7,0.4c0.3-2.2,0.6-4.5,1-6.8c0.1-0.6,0.4-1.1,0.9-1.7
		c0.5-0.5,1-0.8,1.4-0.8c0.4,0,0.6,0.6,0.6,1.9c0,0.6-0.2,3.3-0.7,8.1c0.8-0.2,1.8-0.5,2.8-0.9c1-0.5,1.6-0.7,1.8-0.7
		c0.6,0,0.8,0.2,0.8,0.5c0,0.3-0.5,0.7-1.7,1.3c-1.2,0.5-2.5,1-3.8,1.2c-0.4,4.5-0.6,8-0.6,10.3c0,1.2,0.2,1.9,0.6,1.9
		c0.6,0,1.3-0.7,2.2-2c0.9-1.3,1.9-2.9,2.8-5c0.9-2,1.5-3,1.7-3c0.2,0,0.3,0.1,0.3,0.4C222.4,48.2,222,49.6,221.1,51.5z"/>
	<path class="st0" d="M225.7,59.3c-1.7,0-3.1-0.7-4.1-2c-1-1.3-1.5-2.8-1.5-4.5c0-3.4,0.7-5.9,2.1-7.7c1.4-1.7,3.3-2.6,5.5-2.6
		c1.1,0,1.9,0.3,2.6,0.9c0.7,0.6,1,1.4,1,2.3c0,1.9-0.8,3.4-2.3,4.7c-1.6,1.3-3.5,1.9-5.7,2c0.1,1.2,0.5,2.3,1.2,3.1
		s1.5,1.3,2.4,1.3c0.9,0,1.8-0.2,2.5-0.7c0.7-0.4,1.4-1.1,2-1.9c1.3-1.7,2.4-3.6,3.3-5.8c0.2-0.6,0.4-1,0.6-1.2
		c0.1-0.2,0.3-0.4,0.5-0.4c0.2,0,0.3,0.1,0.3,0.4c0,1.6-0.9,3.9-2.8,7C231.2,57.6,228.7,59.3,225.7,59.3z M223.2,51.3
		c1.8-0.3,3.2-0.9,4-1.8c0.9-0.9,1.3-2,1.3-3.4c0-1.4-0.5-2.1-1.3-2.1c-1.1,0-2,0.8-2.7,2.3C223.7,47.8,223.3,49.5,223.2,51.3z"/>
	<path class="st0" d="M246.9,59.3c-1.1,0-1.9-0.2-2.5-0.7c-0.2-0.2-0.4-0.9-0.4-2c0-1.1,0-2.4,0.1-4.1c-0.8,2.2-1.7,3.9-2.6,5.1
		c-0.9,1.1-2,1.7-3.3,1.7s-2.4-0.6-3.3-1.7c-0.9-1.1-1.4-3-1.4-5.5s0.7-4.7,2.1-6.7c1.4-1.9,3.3-2.9,5.6-2.9c1.1,0,2.3,0.4,3.5,1.3
		c0.5-6,0.9-9.5,1.3-10.2c0.2-0.3,0.6-0.8,1.3-1.5c0.7-0.7,1.3-1,1.7-1c0.5,0,0.7,0.7,0.7,2.2c0,1.7-0.2,3.2-0.5,4.4
		c-0.8,3.2-1.4,5.2-1.6,6.1c-0.4,3.3-0.7,7.3-0.7,11.8c0,0.8,0.1,1.3,0.3,1.3c0.6,0,1.3-0.7,2.2-2c0.9-1.3,1.9-2.9,2.8-5
		c0.9-2,1.5-3,1.7-3s0.3,0.1,0.3,0.4c0,0.9-0.5,2.2-1.3,4.1C250.7,56.7,248.6,59.3,246.9,59.3z M241,44.2c-0.8,0-1.7,0.7-2.5,2
		c-0.8,1.3-1.3,2.9-1.3,4.6c0,1.8,0.2,3.2,0.7,4.3c0.4,1.1,1,1.7,1.7,1.7c1.4,0,3-2.8,4.8-8.4c0.2-1.7,0.2-2.7,0.2-3
		C243.8,44.6,242.6,44.2,241,44.2z"/>
</g>
</svg>
