<?xml version="1.0" encoding="utf-8"?>
<!-- Generator: Adobe Illustrator 20.0.0, SVG Export Plug-In . SVG Version: 6.00 Build 0)  -->
<svg version="1.1" id="Layer_1" xmlns="http://www.w3.org/2000/svg" xmlns:xlink="http://www.w3.org/1999/xlink" x="0px" y="0px"
	 viewBox="0 0 300 250" style="enable-background:new 0 0 300 250;" xml:space="preserve">
<style type="text/css">
	.st0{fill:none;}
	.st1{enable-background:new    ;}
	.st2{fill:#CE945C;}
	.st3{font-family:'AmaticaSC-Bold';}
	.st4{font-size:32.2321px;}
</style>
<rect x="97.3" y="20.5" class="st0" width="112.9" height="35.1"/>
<g class="st1">
	<path class="st2" d="M107.3,36.3c0-0.1,0.1-0.5,0.1-1.1c0.1-1.4,0.2-2.6,0.4-3.5c0.1-0.6,0.2-1.1,0.4-1.5c0.2-0.4,0.4-0.6,0.6-0.6
		c0.4,0,0.7,0.1,0.7,0.3c0,1-0.2,2.4-0.6,4.3c-0.4,1.9-0.6,3.3-0.6,4.3c0,0.1,0,0.2,0,0.4c0,0.1,0,0.3,0,0.4v0.1v0.4
		c0,0.8,0,1.9,0.1,3.4c0,1.7,0.1,2.8,0.1,3.4c0,0.2,0,0.4,0,0.6c0,0.3,0,0.5,0,0.6v0.6c0,0.2-0.1,0.4-0.2,0.5
		c-0.2,0.1-0.4,0.2-0.6,0.2c-0.2,0-0.3-0.1-0.5-0.2c-0.1-0.1-0.2-0.3-0.2-0.4c0-0.4,0-1.2,0.1-2.5c0-1.2,0.1-2,0.1-2.5
		c0-0.5-0.1-1.3-0.2-2.2c-0.2-1-0.2-1.7-0.2-2.2c0-0.6-0.1-1.4-0.3-2.2s-0.4-1.6-0.7-2.4c-0.3-0.7-0.5-1.5-0.7-2.4
		c-0.2-0.8-0.3-1.6-0.3-2.2c0-0.1,0.1-0.2,0.2-0.3c0.1-0.1,0.3-0.1,0.4-0.1c0.2,0,0.3,0.2,0.5,0.6c0.2,0.3,0.3,0.8,0.4,1.3
		s0.3,1.2,0.5,2l0.3,1.8C107.2,35.8,107.3,36.1,107.3,36.3z"/>
	<path class="st2" d="M120,38.9V39l0,1.4l0,1.4c0,4.9-1.1,7.3-3.4,7.3c-0.5,0-0.9-0.1-1.2-0.4c-0.4-0.3-0.7-0.7-0.9-1.1
		c-0.5-1-0.8-2.1-0.9-3.4c-0.1-1.2-0.2-2.3-0.2-3.3c0-0.2,0-0.4,0-0.5s0-0.3,0-0.5c0-0.1,0-0.1,0-0.1v-0.5c0-0.1,0-0.5,0-1.1
		c0-0.3,0-0.5,0-0.7c0-0.5,0-0.9,0.1-1.2c0-0.4,0.1-0.8,0.1-1.4c0-0.5,0.1-0.9,0.2-1.2s0.2-0.7,0.4-1.1c0.1-0.3,0.3-0.6,0.5-0.8
		c0.2-0.2,0.4-0.3,0.6-0.3c0.7,0,1.3,0.1,1.8,0.4c0.5,0.2,1,0.6,1.4,1c0.3,0.4,0.6,0.9,0.9,1.6c0.2,0.6,0.4,1.3,0.5,2
		C119.9,37.3,120,38,120,38.9z M116.2,33c-0.6,0-1,0.3-1.2,1c-0.1,0.3-0.2,0.6-0.2,0.9s0,0.7,0,1.1c0,0.3,0,0.6,0,0.8s0,0.5,0,0.7
		c0,0.2,0,0.6-0.1,1.2c0,0.6-0.1,1-0.1,1.2c0,0.6,0,1.5,0.1,2.7c0.1,1.3,0.2,2.5,0.5,3.7c0.1,0.6,0.3,1.1,0.5,1.4
		c0.2,0.3,0.4,0.5,0.7,0.5c0.3,0,0.6-0.1,0.8-0.4s0.5-0.6,0.6-1c0.3-0.9,0.5-1.8,0.6-2.8c0.1-0.9,0.1-1.7,0.1-2.3
		c0-0.7-0.1-1.7-0.2-3c-0.1-1.4-0.2-2.4-0.2-3v-0.4c0-0.4-0.1-0.8-0.3-1.2c-0.2-0.4-0.4-0.7-0.7-0.9C117,33.1,116.6,33,116.2,33z"/>
	<path class="st2" d="M127.4,49.2c-0.4,0-0.8-0.1-1.1-0.3c-0.3-0.2-0.6-0.4-0.8-0.8c-0.2-0.3-0.4-0.7-0.5-1.1
		c-0.1-0.4-0.2-0.8-0.3-1.3c-0.1-0.9-0.2-1.8-0.2-2.8c0-2-0.1-4.3-0.1-6.7c0-0.6,0-1.4-0.1-2.5l0-1.2c0.2-0.4,0.3-0.5,0.5-0.5
		c0.2,0,0.4,0.2,0.5,0.5s0.2,0.6,0.2,1v6.9c0,0.6,0.1,1.5,0.2,2.7c0.1,1.2,0.2,2.1,0.2,2.7c0,1.2,0.5,1.9,1.6,1.9
		c1.2,0,1.8-4.6,1.8-13.7v-1.4v-0.2c0-0.1,0-0.1,0-0.2c0-0.2,0-0.4,0.1-0.5s0.3-0.1,0.5-0.1c0.2,0,0.4,0.1,0.5,0.2
		c0.1,0.1,0.2,0.3,0.2,0.4c0,0.2,0,0.4,0,0.6c0,0.3,0,0.8-0.1,1.3c-0.1,0.5-0.1,1-0.1,1.3c0,0.3,0,0.6,0,1.1c0,0.5-0.1,0.9-0.1,1.1
		c0,0.1,0,0.2,0,0.2c0,0.1,0,0.1,0,0.2C130.7,45.4,129.6,49.2,127.4,49.2z"/>
	<path class="st2" d="M139.7,49.2c-0.4,0-0.7-0.4-1-1.2c-0.3-0.8-0.6-1.7-0.8-2.7l-0.2-0.9c-0.5-2.4-0.8-3.8-0.9-4.2h-0.3
		c0,0.5,0,1,0,1.4c0,0.4,0,0.9,0,1.4c0,2.3,0.2,4,0.5,5.3l-0.3,0.7h-0.7l-0.3-0.4l0-1.7c0-1.4-0.1-3.8-0.2-7c-0.1-3.1-0.2-5.4-0.2-7
		c0-0.8,0.3-1.2,0.8-1.2c0.6,0,1.1,0.1,1.6,0.3c0.5,0.2,0.9,0.5,1.1,0.9c0.3,0.4,0.4,0.9,0.4,1.5v1.8c0,0.2,0,0.5-0.1,0.8
		c-0.1,0.3-0.2,0.6-0.3,0.8l-0.5,0.9l-0.4,0.7l0.5,2.4c0.2,1.3,0.5,2.3,0.7,3.1c0.2,0.8,0.5,1.6,0.8,2.3l0.2,0.3
		c0.1,0.2,0.2,0.3,0.2,0.4c0,0.1,0.1,0.2,0.1,0.4c0,0.2-0.1,0.3-0.2,0.5C140,49.2,139.8,49.2,139.7,49.2z M137.9,35.1
		c0-0.3,0-0.6,0-0.8c0-0.2-0.1-0.5-0.1-0.7c-0.1-0.3-0.2-0.5-0.4-0.6c-0.2-0.1-0.4-0.2-0.7-0.2l0,0.1c0,0.1,0,0.2,0,0.2
		c0,0.8,0,1.9,0,3c0,1.2,0,2.1,0,2.9c0.2-0.1,0.5-0.4,0.7-0.9c0.2-0.4,0.4-1,0.5-1.5S137.9,35.5,137.9,35.1z"/>
	<path class="st2" d="M158.8,46.7c0.2,0,0.5,0.1,0.7,0.4c0,0.3-0.1,0.6-0.2,0.8c-0.1,0.2-0.3,0.5-0.5,0.6c-0.2,0.1-0.5,0.3-0.7,0.4
		s-0.6,0.2-0.8,0.2c-0.3,0-0.6,0.1-0.8,0.1c-0.5,0-0.9-0.1-1.3-0.3s-0.7-0.5-1-0.9c-0.2-0.3-0.5-0.8-0.7-1.3
		c-0.2-0.6-0.4-1.1-0.5-1.7c-0.1-0.5-0.2-1.1-0.3-1.9c-0.1-0.7-0.1-1.4-0.1-2.1c0-0.6,0-1.3,0-2c0-0.6,0-1.2,0-1.6
		c0-0.5,0-0.9,0-1.4c0-0.9,0.1-1.7,0.2-2.4c0-0.3-0.1-0.5-0.1-0.8c0-0.7,0.2-1.3,0.5-1.8c0.4-0.5,0.8-0.9,1.5-1.2s1.3-0.4,2.1-0.4
		c0.3,0,0.5,0.1,0.8,0.2c0.3,0.1,0.5,0.3,0.7,0.4c0.2,0.2,0.3,0.4,0.3,0.6c0,0.2-0.1,0.3-0.2,0.4c-0.1,0.1-0.3,0.2-0.5,0.2
		c-0.2,0-0.4,0-0.5-0.1c-0.2-0.1-0.3-0.1-0.4-0.2v0h-0.3v-0.1c-0.6,0-1.2,0.1-1.6,0.4c-0.2,0.1-0.3,0.3-0.4,0.5
		c-0.1,0.2-0.2,0.4-0.3,0.6c-0.1,0.2-0.1,0.4-0.1,0.7c0,0.3-0.1,0.6-0.1,0.8c0,0.1,0,0.4,0,0.8c0,0.2,0,0.5,0,0.9c0,0.4,0,0.7,0,0.9
		s0,0.5-0.1,0.9c-0.1,0.4-0.1,0.7-0.1,0.9v0.6c0,0.9,0,1.8,0.1,2.7c0,0.5,0.1,1,0.1,1.4s0.1,0.9,0.2,1.5c0.1,0.5,0.2,0.9,0.3,1.3
		s0.3,0.7,0.5,1c0.4,0.6,1,0.9,1.7,0.9c0.3,0,0.7-0.2,1.1-0.5C158.3,46.9,158.6,46.7,158.8,46.7z"/>
	<path class="st2" d="M170.3,38.9V39l0,1.4l0,1.4c0,4.9-1.1,7.3-3.4,7.3c-0.5,0-0.9-0.1-1.2-0.4c-0.4-0.3-0.7-0.7-0.9-1.1
		c-0.5-1-0.8-2.1-0.9-3.4c-0.1-1.2-0.2-2.3-0.2-3.3c0-0.2,0-0.4,0-0.5c0-0.1,0-0.3,0-0.5c0-0.1,0-0.1,0-0.1v-0.5c0-0.1,0-0.5,0-1.1
		c0-0.3,0-0.5,0-0.7c0-0.5,0-0.9,0.1-1.2c0-0.4,0.1-0.8,0.1-1.4c0-0.5,0.1-0.9,0.2-1.2c0.1-0.4,0.2-0.7,0.4-1.1
		c0.1-0.3,0.3-0.6,0.5-0.8s0.4-0.3,0.6-0.3c0.7,0,1.3,0.1,1.8,0.4c0.5,0.2,1,0.6,1.4,1c0.3,0.4,0.6,0.9,0.9,1.6
		c0.2,0.6,0.4,1.3,0.5,2C170.3,37.3,170.3,38,170.3,38.9z M166.6,33c-0.6,0-1,0.3-1.2,1c-0.1,0.3-0.2,0.6-0.2,0.9s0,0.7,0,1.1
		c0,0.3,0,0.6,0,0.8c0,0.2,0,0.5,0,0.7c0,0.2,0,0.6-0.1,1.2c0,0.6-0.1,1-0.1,1.2c0,0.6,0,1.5,0.1,2.7c0.1,1.3,0.2,2.5,0.5,3.7
		c0.1,0.6,0.3,1.1,0.5,1.4c0.2,0.3,0.4,0.5,0.7,0.5c0.3,0,0.6-0.1,0.8-0.4c0.3-0.2,0.5-0.6,0.6-1c0.3-0.9,0.5-1.8,0.6-2.8
		c0.1-0.9,0.1-1.7,0.1-2.3c0-0.7-0.1-1.7-0.2-3c-0.1-1.4-0.2-2.4-0.2-3v-0.4c0-0.4-0.1-0.8-0.3-1.2c-0.2-0.4-0.4-0.7-0.7-0.9
		C167.3,33.1,167,33,166.6,33z"/>
	<path class="st2" d="M176.4,38.7v0.7l0.2,0h0.3c0.8,0,1.2,0.2,1.2,0.7c0,0.2-0.1,0.4-0.3,0.5c-0.2,0.1-0.4,0.2-0.6,0.2
		c-0.4,0-0.7-0.1-1-0.2v7.2c0,0.7-0.2,1.1-0.7,1.1c-0.3,0-0.6-0.1-0.9-0.4c0.1-1.6,0.2-3.8,0.3-6.5c0.1-2.7,0.1-4.5,0.2-5.5V36
		c0.1-1.3,0.1-2.5,0.1-3.5c0-0.2,0.1-0.4,0.3-0.6s0.4-0.2,0.7-0.2c0.6,0,1.2,0,1.9,0.1c0.4,0.1,0.8,0.2,1.1,0.3
		c0.3,0.2,0.4,0.3,0.4,0.6c0,0.5-0.4,0.7-1.3,0.7c-0.3-0.2-0.8-0.2-1.3-0.2h-0.3v0.3c0,0.5,0,1.4-0.1,2.5
		C176.4,37.2,176.4,38.1,176.4,38.7z M183.1,38.7v0.7l0.2,0h0.3c0.8,0,1.2,0.2,1.2,0.7c0,0.2-0.1,0.4-0.3,0.5
		c-0.2,0.1-0.4,0.2-0.6,0.2c-0.4,0-0.7-0.1-1-0.2v7.2c0,0.7-0.2,1.1-0.7,1.1c-0.3,0-0.6-0.1-0.9-0.4c0.1-1.6,0.2-3.8,0.3-6.5
		c0.1-2.7,0.1-4.5,0.2-5.5V36c0.1-1.3,0.1-2.5,0.1-3.5c0-0.2,0.1-0.4,0.3-0.6c0.2-0.1,0.4-0.2,0.7-0.2c0.6,0,1.2,0,1.9,0.1
		c0.4,0.1,0.8,0.2,1.1,0.3c0.3,0.2,0.4,0.3,0.4,0.6c0,0.5-0.4,0.7-1.3,0.7c-0.3-0.2-0.8-0.2-1.3-0.2h-0.3v0.3c0,0.5,0,1.4-0.1,2.5
		C183.1,37.2,183.1,38.1,183.1,38.7z"/>
	<path class="st2" d="M193.6,33.1c0,0.2-0.1,0.3-0.2,0.5c-0.1,0.1-0.3,0.2-0.5,0.3c-0.8-0.3-1.4-0.4-1.9-0.5c0,0.4,0,0.7,0,1.1
		c0,0.5,0,1.1,0,1.8c0,0.9-0.1,1.5-0.1,1.8l0.1,0.4l0.4,0c0.1,0,0.3,0,0.5,0c0.8,0,1.2,0.2,1.2,0.7c0,0.2-0.1,0.3-0.2,0.5
		s-0.3,0.2-0.6,0.2c-0.2,0-0.5,0-0.7,0h-0.6c0,0.6,0.1,1.3,0.1,1.9c0,0.6,0,1.4,0,2.3c0,1.1-0.1,1.9-0.1,2.3c0,1,0,1.4,0,1.4l0.8,0
		l1,0c0.6,0,1,0.2,1,0.6c0,0.2-0.1,0.4-0.3,0.5c-0.2,0.1-0.5,0.2-0.8,0.2h-2.2c-0.2,0-0.4-0.1-0.6-0.2c-0.2-0.2-0.3-0.3-0.3-0.6
		v-0.7c0-0.2,0-0.4,0-0.5l0-0.5c0-0.3,0-0.8-0.1-1.6c0-0.8-0.1-1.3-0.1-1.6c0-0.9,0-2.2,0.1-3.7c0.1-1.5,0.1-2.8,0.1-3.7
		c0-0.2,0-0.5-0.1-1.1c0-0.5-0.1-0.8-0.1-1.1c0-1.2,0.4-1.8,1.1-1.8c0.3,0,0.7,0.1,1.2,0.2c0.5,0.1,0.9,0.2,1.3,0.4
		S193.6,32.9,193.6,33.1z"/>
	<path class="st2" d="M202.3,33.1c0,0.2-0.1,0.3-0.2,0.5c-0.1,0.1-0.3,0.2-0.5,0.3c-0.8-0.3-1.4-0.4-1.9-0.5c0,0.4,0,0.7,0,1.1
		c0,0.5,0,1.1,0,1.8c0,0.9-0.1,1.5-0.1,1.8l0.1,0.4l0.4,0c0.1,0,0.3,0,0.5,0c0.8,0,1.2,0.2,1.2,0.7c0,0.2-0.1,0.3-0.2,0.5
		s-0.3,0.2-0.6,0.2c-0.2,0-0.5,0-0.7,0h-0.6c0,0.6,0.1,1.3,0.1,1.9c0,0.6,0,1.4,0,2.3c0,1.1-0.1,1.9-0.1,2.3c0,1,0,1.4,0,1.4l0.8,0
		l1,0c0.6,0,1,0.2,1,0.6c0,0.2-0.1,0.4-0.3,0.5c-0.2,0.1-0.5,0.2-0.8,0.2h-2.2c-0.2,0-0.4-0.1-0.6-0.2c-0.2-0.2-0.3-0.3-0.3-0.6
		v-0.7c0-0.2,0-0.4,0-0.5l0-0.5c0-0.3,0-0.8-0.1-1.6c0-0.8-0.1-1.3-0.1-1.6c0-0.9,0-2.2,0.1-3.7c0.1-1.5,0.1-2.8,0.1-3.7
		c0-0.2,0-0.5-0.1-1.1c0-0.5-0.1-0.8-0.1-1.1c0-1.2,0.4-1.8,1.1-1.8c0.3,0,0.7,0.1,1.2,0.2c0.5,0.1,0.9,0.2,1.3,0.4
		S202.3,32.9,202.3,33.1z"/>
</g>
<text transform="matrix(1 0 0 1 204.688 48.796)" class="st2 st3 st4"> </text>
</svg>
