<?xml version="1.0" encoding="utf-8"?>
<!-- Generator: Adobe Illustrator 20.0.0, SVG Export Plug-In . SVG Version: 6.00 Build 0)  -->
<svg version="1.1" id="Layer_1" xmlns="http://www.w3.org/2000/svg" xmlns:xlink="http://www.w3.org/1999/xlink" x="0px" y="0px"
	 viewBox="0 0 300 250" style="enable-background:new 0 0 300 250;" xml:space="preserve">
<style type="text/css">
	.st0{fill:none;}
	.st1{enable-background:new    ;}
	.st2{fill:#FFFFFF;}
</style>
<rect x="57.4" y="184.9" class="st0" width="242.8" height="34.7"/>
<g class="st1">
	<path class="st2" d="M66.6,193.1V188c-0.4-0.1-0.9-0.2-1.6-0.4c-0.7-0.2-1.3-0.3-1.6-0.4c-1.1-0.2-2-0.4-2.7-0.4
		c-1.3,0-1.9,0.4-1.9,1c0,0.8,0.3,1.4,0.8,2c0.5,0.5,1,0.8,1.4,0.8s0.8-0.1,1.1-0.3c0.3-0.2,0.6-0.3,0.9-0.3c0.3,0,0.5,0.2,0.5,0.5
		c0,0.4-0.2,0.6-0.5,0.9c-0.3,0.2-0.8,0.3-1.5,0.3c-1.1,0-2-0.5-2.7-1.4c-0.7-0.9-1.1-1.9-1.1-2.8s0.2-1.7,0.7-2.2
		c0.4-0.5,1-0.7,1.6-0.7c1.5,0,3.8,0.5,6.8,1.4c0.2-1.3,0.7-1.9,1.4-1.9c0.3,0,0.5,0.8,0.5,2.5c1.9,0.6,3.6,0.9,5,0.9
		c0.9,0,1.7-0.3,2.4-0.9c0.2-0.2,0.4-0.2,0.5-0.2s0.2,0.1,0.2,0.2c0,0.5-0.4,1-1.2,1.5c-0.8,0.4-1.8,0.6-2.9,0.6
		c-1.1,0-2.5-0.1-4-0.4c0,2.8,0.1,4.7,0.1,5.7s0,1.9-0.1,2.7c-0.1,0.7-0.2,1.5-0.5,2.3c-0.2,0.8-0.6,1.5-0.9,2
		c-0.4,0.5-0.9,1-1.6,1.4c-0.7,0.4-1.5,0.5-2.4,0.5c-0.9,0-1.7-0.2-2.5-0.6c-0.7-0.4-1.1-1.1-1.1-1.9c0-0.5,0.1-1,0.4-1.3
		c0.3-0.3,0.7-0.5,1.1-0.5c0.5,0,0.7,0.1,0.7,0.3c0,0.1-0.1,0.3-0.2,0.6c-0.1,0.3-0.2,0.6-0.2,0.9s0.2,0.6,0.6,0.9s0.9,0.5,1.6,0.5
		C65.6,201.8,66.6,198.9,66.6,193.1z"/>
	<path class="st2" d="M72.5,201.2l0,0.9c0,0.6-0.2,0.8-0.5,0.8c-0.5,0-0.9-0.1-1.4-0.2c-0.4-0.1-0.7-0.3-0.7-0.5
		c0-0.2,0.1-1,0.2-2.4c0.1-1.3,0.2-2.4,0.2-3v-1.7c0-5.1,0.9-8.4,2.7-9.8c0.4-0.3,0.8-0.5,1.3-0.5c0.2,0,0.4,0.2,0.6,0.7
		c0.2,0.4,0.3,1,0.3,1.7c0,1.7-0.3,3.3-0.9,4.8s-1.2,2.7-1.8,3.5c0,0.5,0,1.3,0,2.3c0.1-0.1,0.5-0.8,1.3-2c0.8-1.2,1.4-2.1,1.9-2.7
		c0.5-0.6,1-0.9,1.4-0.9c0.4,0,0.8,0.1,1.1,0.4c0.3,0.3,0.5,0.6,0.5,1.1c0,0.9-0.1,2.2-0.3,3.9c-0.2,1.7-0.3,2.8-0.3,3.2
		c0,0.4,0.1,0.7,0.2,0.7c0.3,0,0.8-0.4,1.4-1.3c0.6-0.8,1.2-1.9,1.8-3.2c0.6-1.3,0.9-2,1.1-2c0.1,0,0.2,0.1,0.2,0.2
		c0,0.6-0.3,1.5-0.9,2.7c-1.6,3.4-2.9,5-4,5c-0.8,0-1.4-0.2-1.8-0.5c-0.1-0.1-0.2-0.5-0.2-1.1s0.1-1.5,0.2-2.9
		c0.1-1.3,0.2-2.3,0.2-3s-0.1-1-0.3-1s-0.8,0.7-1.8,2.1c-1,1.4-1.5,2.2-1.6,2.6C72.5,200,72.5,200.6,72.5,201.2z M74.4,187.9
		c0-0.8-0.1-1.3-0.3-1.3c-0.4,0-0.7,1.1-1,3.3c-0.2,1.2-0.3,2.6-0.4,4.1C73.8,191.6,74.4,189.5,74.4,187.9z"/>
	<path class="st2" d="M90.5,196.3c0.8-0.3,1.4-0.5,1.7-0.7c0.3-0.2,0.5-0.3,0.7-0.4l0.4-0.2c0.1-0.1,0.2-0.1,0.2-0.1
		c0.2,0,0.2,0.1,0.2,0.3c0,0.2-0.3,0.5-0.9,0.9c-0.6,0.5-1.4,0.9-2.3,1.2c-0.1,1.7-0.7,3-1.6,4.1c-0.9,1-2.2,1.6-3.9,1.6
		c-1.2,0-2.2-0.5-2.8-1.5c-0.7-1-1-2.1-1-3.5c0-1.3,0.4-2.6,1.2-3.8c0.8-1.2,1.8-1.8,3-1.8c0.6-0.4,1.2-0.6,2-0.6
		c0.8,0,1.5,0.4,2.1,1.2C90.2,194,90.5,195,90.5,196.3z M88.6,197.9l-1.1,0.1c-0.9,0-1.7-0.3-2.3-0.8c-0.6-0.5-1-1.2-1-1.8
		c0-0.7,0.1-1.2,0.3-1.7c-0.9,0.7-1.3,2-1.3,4c0,1,0.2,1.9,0.6,2.7c0.4,0.9,1,1.3,1.9,1.3s1.5-0.4,2-1.1
		C88.2,199.8,88.5,198.9,88.6,197.9z M86.7,192.9c-0.3,0-0.6,0.1-0.8,0.4c-0.2,0.3-0.3,0.6-0.3,0.9c0,0.7,0.3,1.3,0.8,1.8
		c0.5,0.5,1.1,0.7,1.8,0.7h0.4c0-1-0.2-1.9-0.5-2.7C87.8,193.3,87.3,192.9,86.7,192.9z"/>
	<path class="st2" d="M92,200.2l0.2-3.4c0-2.1,0.1-3.3,0.3-3.5c0.2-0.2,0.6-0.5,1.1-0.9c0.5-0.4,0.9-0.6,1.1-0.6s0.4,0,0.4,0.1
		s0.1,0.2,0.1,0.5c0,0.9-0.2,1.7-0.6,2.6c-0.3,1.8-0.4,3.4-0.4,4.5c0,1.2,0.2,1.8,0.6,1.8c0.5,0,1-0.4,1.6-1.2
		c0.6-0.8,1.2-2,1.9-3.6c0.2-2,0.3-3.1,0.4-3.2c0.1-0.2,0.4-0.5,0.8-0.9c0.4-0.4,0.8-0.6,1.1-0.6c0.3,0,0.4,0.4,0.4,1.1
		c0,0.2-0.1,0.6-0.2,1.2c-0.1,0.6-0.2,1-0.4,1.3c-0.2,0.6-0.3,2.3-0.3,5.2c0,0.5,0.1,0.8,0.2,0.8c0.3,0,0.8-0.4,1.4-1.3
		c0.6-0.8,1.2-1.9,1.8-3.2s0.9-2,1.1-2c0.1,0,0.2,0.1,0.2,0.2c0,0.6-0.3,1.5-0.9,2.7c-1.6,3.4-2.9,5-4,5c-0.8,0-1.4-0.2-1.8-0.5
		c-0.1-0.1-0.2-0.6-0.2-1.3s0-1.5,0.1-2.4c-0.6,1.4-1.3,2.4-1.9,3.1S94.8,203,94,203s-1.3-0.2-1.6-0.6C92.2,202,92,201.2,92,200.2z"
		/>
	<path class="st2" d="M107.4,193.7l0.1-0.5c0-0.4-0.2-0.5-0.6-0.5s-0.8,0.3-1.2,0.8c-0.4,0.5-0.6,1-0.6,1.3c0,0.3,0,0.6,0.1,0.8
		s0.1,0.4,0.1,0.5c0,0.1,0.1,0.3,0.3,0.5c0.1,0.2,0.2,0.3,0.3,0.4l0.3,0.4c0.1,0.2,0.2,0.3,0.3,0.4c1-0.9,2.3-1.8,3.7-2.9
		c0.1-0.1,0.2-0.1,0.3-0.1c0.2,0,0.3,0.1,0.3,0.3c0,0.2-0.1,0.4-0.3,0.5c-1.3,0.8-2.5,1.7-3.6,2.7c0.4,0.6,0.7,1.3,0.7,2.1
		c0,0.8-0.3,1.4-0.9,2c-0.6,0.5-1.3,0.8-2.2,0.8s-1.4-0.4-1.4-1.3c0-0.6,0.7-1.6,2-2.8c-0.1-0.1-0.3-0.3-0.5-0.6
		c-0.3-0.3-0.5-0.5-0.6-0.6c-0.1-0.2-0.3-0.4-0.5-0.6c-0.3-0.5-0.5-1-0.5-1.6c0-1.2,0.4-2.1,1.1-2.9c0.8-0.7,1.6-1.1,2.4-1.1
		c0.5,0,1,0.1,1.3,0.4c0.3,0.3,0.4,0.6,0.4,0.9c0,0.7-0.2,1-0.5,1C107.6,193.9,107.4,193.8,107.4,193.7z M105.5,199.6
		c-0.8,0.8-1.2,1.4-1.2,1.9s0.2,0.7,0.8,0.7c0.3,0,0.5-0.1,0.8-0.4C106.3,201.3,106.2,200.5,105.5,199.6z"/>
	<path class="st2" d="M117.7,203c-0.8,0-1.4-0.2-1.8-0.5c-0.1-0.1-0.2-0.5-0.2-1.1c0-0.6,0-1.3,0.1-2.3c-0.5,1.3-1,2.3-1.5,2.9
		c-0.5,0.6-1.2,0.9-2,0.9c-0.8,0-1.5-0.4-2.1-1.1s-0.9-1.9-0.9-3.5c0-1.6,0.5-3,1.4-4.3c0.9-1.2,2.1-1.9,3.6-1.9
		c0.6,0,1.4,0.4,2.2,1.3c0.2-0.2,0.4-0.5,0.9-0.8c0.4-0.3,0.8-0.5,1.1-0.5c0.3,0,0.4,0.4,0.4,1.1c0,0.2-0.1,0.6-0.2,1.2
		c-0.1,0.6-0.2,1-0.4,1.3c-0.2,0.5-0.3,2.1-0.3,4.9c0,0.5,0.1,0.8,0.2,0.8c0.3,0,0.8-0.4,1.4-1.3c0.6-0.8,1.2-1.9,1.8-3.2
		c0.6-1.3,0.9-2,1.1-2c0.1,0,0.2,0.1,0.2,0.2c0,0.6-0.3,1.5-0.9,2.7C120.1,201.3,118.7,203,117.7,203z M114,193.4
		c-0.6,0-1.2,0.4-1.8,1.2c-0.6,0.8-0.9,1.8-0.9,2.9c0,1.1,0.2,2,0.5,2.8c0.3,0.7,0.8,1.1,1.3,1.1c0.7,0,1.6-1.6,2.9-4.9
		c0-0.2,0-0.4,0.1-0.8c0-0.4,0.1-0.7,0.1-0.9c-0.2-0.3-0.5-0.6-0.9-0.9C114.7,193.5,114.3,193.4,114,193.4z"/>
	<path class="st2" d="M123.1,201.2l0,0.9c0,0.6-0.2,0.8-0.5,0.8c-0.5,0-0.9-0.1-1.4-0.2s-0.7-0.3-0.7-0.5c0-0.2,0.1-1,0.2-2.4
		c0.1-1.3,0.2-2.4,0.2-3v-1.8c0-1,0.1-1.5,0.3-1.7c0.2-0.2,0.6-0.5,1.1-0.9c0.5-0.4,0.9-0.6,1.1-0.6s0.4,0,0.4,0.1s0.1,0.2,0.1,0.5
		c0,1.1-0.2,2.1-0.6,3c-0.1,1.1-0.1,1.9-0.1,2.4c0.1-0.1,0.5-0.8,1.3-2c0.8-1.2,1.4-2.1,1.9-2.7c0.5-0.6,1-0.9,1.4-0.9
		c0.4,0,0.8,0.1,1.1,0.4c0.3,0.3,0.5,0.6,0.5,1.1c0,0.9-0.1,2.2-0.3,3.9s-0.3,2.8-0.3,3.2c0,0.4,0.1,0.7,0.2,0.7
		c0.3,0,0.8-0.4,1.4-1.3c0.6-0.8,1.2-1.9,1.8-3.2c0.6-1.3,0.9-2,1.1-2c0.1,0,0.2,0.1,0.2,0.2c0,0.6-0.3,1.5-0.9,2.7
		c-1.6,3.4-2.9,5-4,5c-0.8,0-1.4-0.2-1.8-0.5c-0.1-0.1-0.2-0.5-0.2-1.1s0.1-1.5,0.2-2.9c0.1-1.3,0.2-2.3,0.2-3s-0.1-1-0.3-1
		c-0.2,0-0.8,0.7-1.8,2.1c-1,1.4-1.5,2.2-1.6,2.6C123.1,200,123.1,200.6,123.1,201.2z"/>
	<path class="st2" d="M140.4,203c-0.7,0-1.2-0.2-1.6-0.5c-0.2-0.2-0.2-0.6-0.2-1.3s0-1.6,0.1-2.7c-0.5,1.4-1.1,2.5-1.6,3.3
		c-0.6,0.7-1.3,1.1-2.1,1.1s-1.6-0.4-2.2-1.1c-0.6-0.7-0.9-1.9-0.9-3.5s0.5-3,1.4-4.3c0.9-1.2,2.1-1.9,3.6-1.9
		c0.7,0,1.5,0.3,2.2,0.8c0.3-3.9,0.6-6.1,0.9-6.6c0.1-0.2,0.4-0.5,0.9-1c0.5-0.4,0.8-0.6,1.1-0.6c0.3,0,0.5,0.5,0.5,1.4
		c0,1.1-0.1,2-0.3,2.8c-0.5,2.1-0.9,3.4-1,3.9c-0.3,2.2-0.4,4.7-0.4,7.6c0,0.5,0.1,0.8,0.2,0.8c0.4,0,0.8-0.4,1.4-1.3
		s1.2-1.9,1.8-3.2c0.6-1.3,0.9-2,1.1-2c0.1,0,0.2,0.1,0.2,0.2c0,0.6-0.3,1.5-0.9,2.7C142.8,201.3,141.5,203,140.4,203z M136.6,193.3
		c-0.5,0-1.1,0.4-1.6,1.3c-0.5,0.9-0.8,1.9-0.8,3s0.1,2.1,0.4,2.8c0.3,0.7,0.7,1.1,1.1,1.1c0.9,0,1.9-1.8,3.1-5.4
		c0.1-1.1,0.1-1.8,0.1-2C138.4,193.5,137.6,193.3,136.6,193.3z"/>
	<path class="st2" d="M148.1,193.7l0.1-0.5c0-0.4-0.2-0.5-0.6-0.5s-0.8,0.3-1.2,0.8c-0.4,0.5-0.6,1-0.6,1.3c0,0.3,0,0.6,0.1,0.8
		s0.1,0.4,0.1,0.5c0,0.1,0.1,0.3,0.3,0.5c0.1,0.2,0.2,0.3,0.3,0.4l0.3,0.4c0.1,0.2,0.2,0.3,0.3,0.4c1-0.9,2.3-1.8,3.7-2.9
		c0.1-0.1,0.2-0.1,0.3-0.1c0.2,0,0.3,0.1,0.3,0.3c0,0.2-0.1,0.4-0.3,0.5c-1.3,0.8-2.5,1.7-3.6,2.7c0.4,0.6,0.7,1.3,0.7,2.1
		c0,0.8-0.3,1.4-0.9,2c-0.6,0.5-1.3,0.8-2.2,0.8s-1.4-0.4-1.4-1.3c0-0.6,0.7-1.6,2-2.8c-0.1-0.1-0.3-0.3-0.5-0.6
		c-0.3-0.3-0.5-0.5-0.6-0.6c-0.1-0.2-0.3-0.4-0.5-0.6c-0.3-0.5-0.5-1-0.5-1.6c0-1.2,0.4-2.1,1.1-2.9c0.8-0.7,1.6-1.1,2.4-1.1
		c0.5,0,1,0.1,1.3,0.4c0.3,0.3,0.4,0.6,0.4,0.9c0,0.7-0.2,1-0.5,1C148.2,193.9,148.1,193.8,148.1,193.7z M146.2,199.6
		c-0.8,0.8-1.2,1.4-1.2,1.9s0.2,0.7,0.8,0.7c0.3,0,0.5-0.1,0.8-0.4C146.9,201.3,146.8,200.5,146.2,199.6z"/>
	<path class="st2" d="M165.3,196.3c0.8-0.3,1.4-0.5,1.7-0.7c0.3-0.2,0.5-0.3,0.7-0.4l0.4-0.2c0.1-0.1,0.2-0.1,0.2-0.1
		c0.2,0,0.2,0.1,0.2,0.3c0,0.2-0.3,0.5-0.9,0.9s-1.4,0.9-2.3,1.2c-0.1,1.7-0.7,3-1.6,4.1c-0.9,1-2.2,1.6-3.9,1.6
		c-1.2,0-2.2-0.5-2.8-1.5s-1-2.1-1-3.5c0-1.3,0.4-2.6,1.2-3.8c0.8-1.2,1.8-1.8,3-1.8c0.6-0.4,1.2-0.6,2-0.6c0.8,0,1.5,0.4,2.1,1.2
		S165.3,195,165.3,196.3z M163.3,197.9l-1.1,0.1c-0.9,0-1.7-0.3-2.3-0.8c-0.6-0.5-1-1.2-1-1.8c0-0.7,0.1-1.2,0.3-1.7
		c-0.9,0.7-1.3,2-1.3,4c0,1,0.2,1.9,0.6,2.7c0.4,0.9,1,1.3,1.9,1.3c0.9,0,1.5-0.4,2-1.1C163,199.8,163.2,198.9,163.3,197.9z
		 M161.5,192.9c-0.3,0-0.6,0.1-0.8,0.4c-0.2,0.3-0.3,0.6-0.3,0.9c0,0.7,0.3,1.3,0.8,1.8c0.5,0.5,1.1,0.7,1.8,0.7h0.4
		c0-1-0.2-1.9-0.5-2.7C162.6,193.3,162.1,192.9,161.5,192.9z"/>
	<path class="st2" d="M171.3,196.5c1.1-0.3,2-0.6,2.7-1c0.7-0.4,1.1-0.6,1.2-0.6c0.1,0,0.2,0.1,0.2,0.3c0,0.2-0.2,0.5-0.6,0.8
		c-0.8,0.6-1.9,1.2-3.1,1.6c0.5,2,0.8,4.1,0.8,6.3c0,1.9-0.2,3.6-0.6,5.3c-0.2,1-0.6,1.7-1.1,2.3c-0.5,0.6-1.1,0.9-1.9,0.9
		c-0.6,0-1.1-0.3-1.3-0.8c-0.3-0.7-0.5-1.3-0.5-1.9c-0.1-0.9-0.1-2.5-0.1-4.6c0-2.1,0.2-4.7,0.5-7.7c-0.7-0.5-1.1-1.2-1.1-1.9
		s0.2-1.3,0.5-1.7c0.3-0.4,0.7-0.7,1.2-0.8c0.3-1.7,0.6-3.2,0.8-4.5c0.3-1.3,0.7-2.3,1.2-3.1c0.6-0.8,1.1-1.2,1.7-1.2
		c0.6,0,1,0.7,1,2.1c0,2.2-0.8,4.8-2.5,7.6C170.5,194.5,170.9,195.4,171.3,196.5z M167.8,193.8c-0.3,0.1-0.5,0.3-0.5,0.7
		c0,0.4,0.1,0.7,0.2,0.9C167.6,194.7,167.7,194.1,167.8,193.8z M169.2,198c-0.2,2.5-0.3,5.3-0.3,8.5c0,3.2,0.2,4.8,0.5,4.8
		c0.6,0,1.1-0.8,1.5-2.4c0.4-1.6,0.6-3.3,0.6-5.3s-0.2-3.9-0.7-5.9C170.3,197.9,169.7,198,169.2,198z M169.6,194.7l-0.2,0.3
		l-0.2,1.5c0.3,0.1,0.5,0.1,0.7,0.1s0.4,0,0.5,0C170.3,195.9,170,195.2,169.6,194.7z M169.6,193.5c0.6-1,1.1-2.1,1.6-3.4
		c0.5-1.3,0.7-2.4,0.7-3.3s-0.1-1.3-0.3-1.3c-0.3,0-0.7,0.7-1,2.2C170.3,189.2,169.9,191.1,169.6,193.5z"/>
	<path class="st2" d="M182.1,201.2l0,0.9c0,0.6-0.2,0.8-0.5,0.8c-0.5,0-0.9-0.1-1.4-0.2c-0.4-0.1-0.7-0.3-0.7-0.5
		c0-0.2,0.1-1,0.2-2.4s0.2-2.4,0.2-3v-1.8c0-1,0.1-1.5,0.3-1.7s0.6-0.5,1.1-0.9s0.9-0.6,1.1-0.6c0.2,0,0.4,0,0.4,0.1
		s0.1,0.2,0.1,0.5c0,1.1-0.2,2.1-0.6,3c-0.1,1.1-0.2,1.9-0.2,2.4c1.1-2,1.8-3.3,2.2-3.9c0.7-1.2,1.4-1.7,2-1.7
		c0.4,0,0.7,0.2,1.1,0.5s0.5,0.7,0.5,1.1c0,0.4,0,0.9,0,1.2c0,0.4,0,0.7,0,0.9c0,0.2,0,0.4,0,0.4c0.1-0.2,0.4-0.6,1-1.4
		c0.6-0.7,1-1.2,1.2-1.4s0.4-0.4,0.7-0.7c0.5-0.5,0.9-0.7,1.2-0.7c0.4,0,0.7,0.1,1,0.4c0.3,0.3,0.5,0.6,0.5,1.1
		c0,0.9-0.1,2.2-0.3,3.9c-0.2,1.7-0.3,2.8-0.3,3.2c0,0.4,0.1,0.7,0.2,0.7c0.3,0,0.8-0.4,1.4-1.3c0.6-0.8,1.2-1.9,1.8-3.2s1-2,1.1-2
		s0.2,0.1,0.2,0.2c0,0.6-0.3,1.5-0.9,2.7c-1.6,3.4-2.9,5-4,5c-0.7,0-1.2-0.2-1.6-0.5c-0.1-0.1-0.2-0.5-0.2-1.1s0.1-1.5,0.2-2.9
		c0.1-1.3,0.2-2.3,0.2-3s-0.1-1-0.3-1c-0.3,0-0.8,0.4-1.7,1.3c-0.9,0.9-1.3,1.5-1.4,1.9c-0.1,0.7-0.2,2.1-0.2,4.4
		c0,0.6-0.2,0.8-0.5,0.8c-0.5,0-0.9-0.1-1.3-0.2c-0.4-0.1-0.6-0.3-0.6-0.5c0-0.2,0.1-1.2,0.2-3s0.2-3,0.2-3.7s-0.1-1.1-0.3-1.1
		c-0.2,0-0.8,0.7-1.7,2.1s-1.4,2.3-1.5,2.9S182.1,200.6,182.1,201.2z"/>
	<path class="st2" d="M197.8,203c-0.8,0-1.4-0.2-1.8-0.5c-0.1-0.1-0.2-0.6-0.2-1.5c0-0.9,0.1-2.3,0.2-4.3c0.1-2,0.2-3.1,0.3-3.3
		c0.1-0.2,0.4-0.5,0.9-0.9c0.5-0.4,0.9-0.7,1.2-0.7c0.3,0,0.4,0.4,0.4,1.1c0,0.2-0.1,0.6-0.2,1.2c-0.1,0.6-0.2,1-0.4,1.3
		c-0.3,0.7-0.4,2.4-0.4,5.2c0,0.5,0.1,0.8,0.2,0.8c0.3,0,0.8-0.4,1.4-1.3c0.6-0.8,1.2-1.9,1.8-3.2c0.6-1.3,0.9-2,1.1-2
		c0.1,0,0.2,0.1,0.2,0.2c0,0.6-0.3,1.5-0.9,2.7C200.2,201.3,198.9,203,197.8,203z M197,188.2c0-0.4,0.2-0.7,0.6-0.9
		c0.4-0.3,0.7-0.4,1-0.4c0.5,0,0.8,0.3,0.8,0.9s-0.2,1.2-0.5,1.6c-0.3,0.5-0.8,0.7-1.3,0.7C197.1,190.1,197,189.4,197,188.2z"/>
	<path class="st2" d="M203.3,203c-0.4,0-0.8-0.1-1.2-0.2c-0.4-0.1-0.6-0.2-0.7-0.3c-0.2-0.2-0.3-1.5-0.3-3.7s0.2-5.3,0.8-9.2
		c0.4-3.2,1.4-4.8,2.9-4.8c0.4,0,0.6,0.2,0.8,0.6c0.2,0.4,0.2,0.8,0.2,1.1c0,2.6-0.8,5.5-2.4,8.7c-0.1,1.7-0.1,3.1-0.1,4.3
		c0,1.2,0.1,1.8,0.3,1.8c0.3,0,0.8-0.4,1.4-1.3c0.6-0.8,1.2-1.9,1.8-3.2s0.9-2,1.1-2c0.1,0,0.2,0.1,0.2,0.2c0,0.6-0.3,1.5-0.9,2.7
		C205.7,201.3,204.4,203,203.3,203z M205.1,186.8c0-0.6-0.1-1-0.2-1c-0.6,0-1,2.5-1.3,7.5C204.5,190.6,205.1,188.4,205.1,186.8z"/>
	<path class="st2" d="M210,203c-1.1,0-2-0.4-2.7-1.3c-0.7-0.8-1-1.8-1-2.9c0-2.2,0.5-3.8,1.4-5s2.1-1.7,3.6-1.7
		c0.7,0,1.2,0.2,1.7,0.6c0.4,0.4,0.7,0.9,0.7,1.5c0,1.2-0.5,2.2-1.5,3c-1,0.8-2.2,1.2-3.7,1.3c0.1,0.8,0.3,1.5,0.8,2
		c0.4,0.6,1,0.9,1.6,0.9c0.6,0,1.1-0.1,1.6-0.4c0.5-0.3,0.9-0.7,1.3-1.2c0.8-1.1,1.6-2.3,2.2-3.8c0.2-0.4,0.3-0.6,0.4-0.8
		s0.2-0.2,0.3-0.2c0.1,0,0.2,0.1,0.2,0.2c0,1-0.6,2.5-1.8,4.5C213.6,201.9,211.9,203,210,203z M208.4,197.8c1.2-0.2,2-0.6,2.6-1.1
		c0.5-0.6,0.8-1.3,0.8-2.2c0-0.9-0.3-1.4-0.9-1.4c-0.7,0-1.3,0.5-1.8,1.5C208.7,195.6,208.5,196.7,208.4,197.8z"/>
	<path class="st2" d="M219.6,193.7l0.1-0.5c0-0.4-0.2-0.5-0.6-0.5s-0.8,0.3-1.2,0.8c-0.4,0.5-0.6,1-0.6,1.3c0,0.3,0,0.6,0.1,0.8
		s0.1,0.4,0.1,0.5c0,0.1,0.1,0.3,0.3,0.5c0.1,0.2,0.2,0.3,0.3,0.4l0.3,0.4c0.1,0.2,0.2,0.3,0.3,0.4c1-0.9,2.3-1.8,3.7-2.9
		c0.1-0.1,0.2-0.1,0.3-0.1c0.2,0,0.3,0.1,0.3,0.3c0,0.2-0.1,0.4-0.3,0.5c-1.3,0.8-2.5,1.7-3.6,2.7c0.4,0.6,0.7,1.3,0.7,2.1
		c0,0.8-0.3,1.4-0.9,2c-0.6,0.5-1.3,0.8-2.2,0.8c-0.9,0-1.3-0.4-1.3-1.3c0-0.6,0.7-1.6,2-2.8c-0.1-0.1-0.3-0.3-0.5-0.6
		c-0.3-0.3-0.5-0.5-0.6-0.6c-0.1-0.2-0.3-0.4-0.5-0.6c-0.3-0.5-0.5-1-0.5-1.6c0-1.2,0.4-2.1,1.1-2.9c0.8-0.7,1.6-1.1,2.4-1.1
		c0.5,0,1,0.1,1.3,0.4c0.3,0.3,0.4,0.6,0.4,0.9c0,0.7-0.2,1-0.5,1C219.7,193.9,219.6,193.8,219.6,193.7z M217.7,199.6
		c-0.8,0.8-1.2,1.4-1.2,1.9s0.2,0.7,0.8,0.7c0.3,0,0.5-0.1,0.8-0.4C218.4,201.3,218.3,200.5,217.7,199.6z"/>
	<path class="st2" d="M222.6,203.1c-0.3-0.2-0.4-0.5-0.4-0.9c0-0.4,0.2-0.8,0.6-1c0.4-0.2,0.8-0.4,1.1-0.4s0.6,0.1,0.9,0.3
		c0.2,0.2,0.3,0.4,0.3,0.7c0,1.1-0.5,1.7-1.6,1.7C223.2,203.4,222.9,203.3,222.6,203.1z"/>
	<path class="st2" d="M228,203.1c-0.3-0.2-0.4-0.5-0.4-0.9c0-0.4,0.2-0.8,0.6-1c0.4-0.2,0.8-0.4,1.1-0.4s0.6,0.1,0.9,0.3
		c0.2,0.2,0.3,0.4,0.3,0.7c0,1.1-0.5,1.7-1.6,1.7C228.5,203.4,228.3,203.3,228,203.1z"/>
	<path class="st2" d="M233.3,203.1c-0.3-0.2-0.4-0.5-0.4-0.9c0-0.4,0.2-0.8,0.6-1c0.4-0.2,0.8-0.4,1.1-0.4s0.6,0.1,0.9,0.3
		c0.2,0.2,0.3,0.4,0.3,0.7c0,1.1-0.5,1.7-1.6,1.7C233.9,203.4,233.6,203.3,233.3,203.1z"/>
</g>
</svg>
