<?xml version="1.0" encoding="utf-8"?>
<!-- Generator: Adobe Illustrator 20.0.0, SVG Export Plug-In . SVG Version: 6.00 Build 0)  -->
<svg version="1.1" id="Layer_1" xmlns="http://www.w3.org/2000/svg" xmlns:xlink="http://www.w3.org/1999/xlink" x="0px" y="0px"
	 viewBox="0 0 300 250" style="enable-background:new 0 0 300 250;" xml:space="preserve">
<style type="text/css">
	.st0{fill:none;}
	.st1{enable-background:new    ;}
	.st2{fill:#FFFFFF;}
</style>
<rect x="59.5" y="52.3" class="st0" width="197" height="43.5"/>
<g class="st1">
	<path class="st2" d="M67.1,70.3c0.3,0.5,0.5,1,0.5,1.3c0,0.3-0.1,0.6-0.2,0.9c-0.2,0.2-0.4,0.4-0.6,0.4c-0.5,0-0.9-0.4-1.2-1.2
		c-0.3-0.8-0.5-1.7-0.5-2.5c0-1.3,0.5-2.5,1.5-3.6c1-1.1,2.2-1.6,3.8-1.6c1,0,1.8,0.5,2.3,1.5c0.5,1,0.8,2.1,0.8,3.4s0,2.4-0.1,3.5
		c-0.1,1.1-0.1,1.9-0.2,2.5c-0.1,0.6-0.2,1.5-0.3,2.8s-0.3,2.2-0.3,2.7c2.2,0,4.6-1.1,7-3.4c0.3-4,0.8-7.1,1.4-9.4
		c0.6-2.3,1.2-3.9,1.8-4.8c0.6-0.9,1.3-1.4,2-1.4c0.7,0,1.3,0.3,1.7,1c0.5,0.6,0.7,1.4,0.7,2.3c0,3.3-1.5,6.8-4.4,10.6
		c-0.2,2.2-0.2,4.2-0.2,6.1c0,1.8,0.3,3.6,0.8,5.4c0.5,1.7,0.8,2.7,0.8,2.9S84,90,83.6,90.1c-0.3,0.1-0.6,0.2-1,0.2
		c-1,0-1.8-0.2-2.4-0.7c-0.3-0.2-0.6-1.1-0.7-2.5c-0.2-1.4-0.3-2.8-0.3-4.1c0-1.3,0-2.6,0.1-4.1c-2.5,2.1-4.8,3.2-7,3.3
		c0,0.4-0.1,1-0.1,1.9c0,0.9-0.1,1.6-0.1,2c-0.1,0.4-0.2,0.9-0.3,1.5c-0.3,1-0.9,1.5-2,1.5c-0.6,0-1-0.5-1-1.6c0-1.1,0.2-3,0.5-5.7
		c-1.2-0.5-1.9-1.5-1.9-2.8c0-1,0.2-1.8,0.7-2.5c0.5-0.7,1.1-1,1.8-1c0.2-2.6,0.4-4.5,0.4-5.9c0-2.5-0.4-3.7-1.2-3.7
		c-1.8,0-2.7,0.9-2.7,2.7C66.6,69.2,66.7,69.8,67.1,70.3z M69.9,76.8c-0.4,0.3-0.6,0.7-0.6,1.1c0,0.5,0.1,0.9,0.3,1.2L69.9,76.8z
		 M85.8,65.4c0-0.4-0.1-0.8-0.2-1.1c-0.1-0.3-0.3-0.5-0.5-0.5c-0.8,0-1.5,3-2.1,9C84.8,69.9,85.8,67.5,85.8,65.4z"/>
	<path class="st2" d="M98.4,89.1c-1.1,0-1.9-0.2-2.5-0.7c-0.2-0.2-0.3-0.7-0.3-1.5s0-1.9,0.1-3.2c-0.7,1.8-1.4,3.1-2.1,4
		c-0.7,0.9-1.6,1.3-2.7,1.3c-1.1,0-2.1-0.5-2.9-1.6c-0.8-1-1.2-2.7-1.2-4.9s0.6-4.2,1.9-5.9c1.3-1.7,2.9-2.6,5-2.6
		c0.9,0,1.9,0.6,3,1.7c0.2-0.3,0.6-0.7,1.2-1.1c0.6-0.4,1.1-0.6,1.5-0.6c0.4,0,0.6,0.5,0.6,1.6c0,0.3-0.1,0.8-0.2,1.6
		c-0.2,0.8-0.3,1.4-0.5,1.7c-0.2,0.6-0.4,2.9-0.4,6.8c0,0.7,0.1,1.1,0.2,1.1c0.5,0,1.1-0.6,2-1.8c0.8-1.2,1.7-2.6,2.5-4.4
		c0.8-1.8,1.3-2.7,1.5-2.7c0.2,0,0.3,0.1,0.3,0.3c0,0.8-0.4,2-1.2,3.7C101.7,86.8,99.9,89.1,98.4,89.1z M93.3,75.8
		c-0.8,0-1.6,0.6-2.5,1.7c-0.9,1.2-1.3,2.5-1.3,4.1s0.2,2.8,0.7,3.8s1.1,1.5,1.8,1.5c0.9,0,2.3-2.3,4-6.9c0-0.2,0.1-0.6,0.1-1.1
		c0-0.5,0.1-1,0.1-1.2c-0.2-0.4-0.7-0.9-1.3-1.3S93.8,75.8,93.3,75.8z"/>
	<path class="st2" d="M108.8,76.2l0.1-0.6c0-0.5-0.3-0.7-0.9-0.7c-0.6,0-1.1,0.4-1.6,1.1c-0.5,0.7-0.8,1.3-0.8,1.8
		c0,0.5,0,0.8,0.1,1.1s0.1,0.5,0.2,0.7c0.1,0.2,0.2,0.4,0.4,0.6s0.3,0.4,0.4,0.5l0.5,0.6c0.2,0.3,0.3,0.5,0.4,0.5
		c1.4-1.2,3.2-2.5,5.2-4c0.1-0.1,0.2-0.1,0.4-0.1c0.3,0,0.4,0.2,0.4,0.5s-0.1,0.5-0.4,0.7c-1.8,1.1-3.5,2.4-5,3.7
		c0.6,0.9,0.9,1.9,0.9,2.9c0,1.1-0.4,2-1.2,2.7c-0.8,0.8-1.8,1.1-3.1,1.1s-1.9-0.6-1.9-1.8c0-0.9,0.9-2.2,2.7-4
		c-0.1-0.2-0.4-0.4-0.7-0.8c-0.4-0.4-0.6-0.7-0.8-0.9c-0.2-0.2-0.4-0.5-0.6-0.9c-0.4-0.7-0.7-1.4-0.7-2.2c0-1.6,0.5-3,1.6-4
		c1.1-1,2.2-1.5,3.4-1.5c0.7,0,1.3,0.2,1.7,0.6c0.4,0.4,0.6,0.8,0.6,1.2c0,0.9-0.2,1.4-0.7,1.4C109,76.5,108.8,76.4,108.8,76.2z
		 M106.1,84.4c-1.1,1.1-1.7,2-1.7,2.7c0,0.7,0.3,1,1,1c0.4,0,0.8-0.2,1-0.5C107.2,86.8,107,85.7,106.1,84.4z"/>
	<path class="st2" d="M132.4,75.3v-7.1c-0.5-0.1-1.3-0.3-2.3-0.5c-1-0.2-1.8-0.4-2.3-0.5c-1.6-0.3-2.8-0.5-3.7-0.5
		c-1.7,0-2.6,0.5-2.6,1.5c0,1.1,0.4,2,1.1,2.7c0.7,0.7,1.4,1.1,2,1.1c0.6,0,1.1-0.2,1.6-0.5c0.5-0.3,0.9-0.5,1.2-0.5
		c0.5,0,0.7,0.2,0.7,0.7c0,0.5-0.2,0.9-0.6,1.2c-0.4,0.3-1.1,0.5-2,0.5c-1.5,0-2.7-0.6-3.7-1.9c-1-1.3-1.5-2.6-1.5-3.9
		c0-1.3,0.3-2.3,0.9-3c0.6-0.7,1.4-1,2.3-1c2.1,0,5.2,0.7,9.4,2c0.3-1.7,1-2.6,1.9-2.6c0.4,0,0.6,1.1,0.6,3.4c2.7,0.8,5,1.2,7,1.2
		c1.2,0,2.3-0.4,3.3-1.2c0.3-0.2,0.5-0.3,0.7-0.3s0.3,0.1,0.3,0.3c0,0.8-0.6,1.4-1.7,2c-1.1,0.6-2.4,0.9-4,0.9
		c-1.6,0-3.4-0.2-5.6-0.6c0.1,3.8,0.1,6.5,0.1,7.9s0,2.7-0.1,3.7c-0.1,1-0.3,2.1-0.6,3.2c-0.3,1.1-0.8,2.1-1.3,2.8
		c-0.5,0.8-1.3,1.4-2.2,1.9c-1,0.5-2.1,0.7-3.3,0.7c-1.3,0-2.4-0.3-3.4-0.9s-1.5-1.5-1.5-2.7c0-0.8,0.2-1.4,0.6-1.9
		c0.4-0.5,0.9-0.7,1.6-0.7c0.7,0,1,0.2,1,0.5c0,0.1-0.1,0.4-0.2,0.8s-0.2,0.8-0.2,1.2c0,0.4,0.3,0.8,0.8,1.3
		c0.5,0.5,1.3,0.7,2.2,0.7C131,87.5,132.4,83.4,132.4,75.3z"/>
	<path class="st2" d="M140.7,78.1l2.3-0.2c0.2,0,0.4,0.1,0.6,0.4s0.2,0.5,0.2,0.8s-0.1,1.2-0.3,2.8c-0.2,1.6-0.3,2.9-0.3,3.8
		s0.1,1.4,0.2,1.4c0.5,0,1.1-0.6,2-1.8c0.8-1.2,1.7-2.6,2.5-4.4c0.8-1.8,1.3-2.7,1.5-2.7c0.2,0,0.3,0.1,0.3,0.3c0,0.8-0.4,2-1.2,3.7
		c-2.2,4.7-4,7-5.5,7c-1.1,0-1.9-0.2-2.5-0.7c-0.2-0.2-0.3-1.4-0.3-3.6c0-2.2,0.2-4.1,0.7-5.7c-1.6,0-2.7-0.5-3.4-1.5
		c-0.3-0.5-0.5-1.1-0.5-1.8s0.1-1.2,0.4-1.7c0.3-0.5,0.7-0.7,1.2-0.7c0.5,0,1,0.3,1.4,0.8c0.4,0.5,0.6,1.1,0.6,1.8s-0.2,1.3-0.6,2
		C140.3,78,140.4,78.1,140.7,78.1z"/>
	<path class="st2" d="M159.4,89.1c-1.1,0-1.9-0.2-2.5-0.7c-0.2-0.2-0.3-0.7-0.3-1.5s0-1.9,0.1-3.2c-0.7,1.8-1.4,3.1-2.1,4
		c-0.7,0.9-1.6,1.3-2.7,1.3c-1.1,0-2.1-0.5-2.9-1.6c-0.8-1-1.2-2.7-1.2-4.9s0.6-4.2,1.9-5.9c1.3-1.7,2.9-2.6,5-2.6
		c0.9,0,1.9,0.6,3,1.7c0.2-0.3,0.6-0.7,1.2-1.1c0.6-0.4,1.1-0.6,1.5-0.6c0.4,0,0.6,0.5,0.6,1.6c0,0.3-0.1,0.8-0.2,1.6
		c-0.2,0.8-0.3,1.4-0.5,1.7c-0.2,0.6-0.4,2.9-0.4,6.8c0,0.7,0.1,1.1,0.2,1.1c0.5,0,1.1-0.6,2-1.8c0.8-1.2,1.7-2.6,2.5-4.4
		c0.8-1.8,1.3-2.7,1.5-2.7c0.2,0,0.3,0.1,0.3,0.3c0,0.8-0.4,2-1.2,3.7C162.7,86.8,160.9,89.1,159.4,89.1z M154.3,75.8
		c-0.8,0-1.6,0.6-2.5,1.7c-0.9,1.2-1.3,2.5-1.3,4.1s0.2,2.8,0.7,3.8s1.1,1.5,1.8,1.5c0.9,0,2.3-2.3,4-6.9c0-0.2,0.1-0.6,0.1-1.1
		c0-0.5,0.1-1,0.1-1.2c-0.2-0.4-0.7-0.9-1.3-1.3C155.3,76,154.8,75.8,154.3,75.8z"/>
	<path class="st2" d="M168.8,87.1c1,0,1.9-0.5,2.6-1.6c0.7-1,1.3-2.3,1.7-3.8c-1-0.3-1.8-0.8-2.3-1.6c-0.5-0.8-0.8-1.6-0.8-2.6
		s0.3-1.9,0.8-2.6c0.5-0.7,1.3-1.1,2.2-1.1c0.6,0,1,0.4,1.3,1.1c0.3,0.7,0.5,1.6,0.5,2.5s-0.1,1.8-0.2,2.7c0.4,0.2,0.9,0.2,1.3,0.2
		c1.1,0,2.1-0.5,3.1-1.5c0.5-0.5,0.8-0.7,1-0.7c0.2,0,0.3,0.1,0.3,0.4c0,0.3-0.2,0.6-0.5,1c-1.5,1.6-3.3,2.5-5.6,2.5
		c-0.5,2-1.3,3.7-2.5,5.1c-1.1,1.4-2.5,2.1-4.1,2.1c-0.9,0-1.7-0.4-2.3-1.2c-1-1.3-1.5-3.2-1.5-5.7c0-0.9,0.1-2,0.2-3.3
		c0.1-1.4,0.3-2.2,0.5-2.5c0.2-0.3,0.6-0.7,1.3-1.1c0.7-0.4,1.2-0.7,1.5-0.7c0.4,0,0.6,0.2,0.6,0.7c0,1.4-0.4,3-1.1,4.6
		c0,2,0.2,3.7,0.5,5.1C167.7,86.4,168.2,87.1,168.8,87.1z M172.6,75.3c-0.2,0-0.3,0.5-0.3,1.4s0.4,1.8,1.2,2.6
		c0.1-0.3,0.1-0.7,0.1-1C173.6,76.3,173.3,75.3,172.6,75.3z"/>
	<path class="st2" d="M183.3,89.1c-1.6,0-2.8-0.6-3.7-1.8c-0.9-1.2-1.4-2.5-1.4-4c0-3,0.6-5.3,1.9-6.9c1.3-1.6,2.9-2.3,5-2.3
		c0.9,0,1.7,0.3,2.3,0.8c0.6,0.5,0.9,1.2,0.9,2.1c0,1.7-0.7,3.1-2.1,4.2s-3.1,1.7-5.1,1.8c0.1,1.1,0.5,2,1.1,2.8
		c0.6,0.8,1.4,1.2,2.2,1.2c0.8,0,1.6-0.2,2.2-0.6c0.7-0.4,1.3-0.9,1.8-1.7c1.2-1.5,2.2-3.3,3-5.2c0.2-0.5,0.4-0.9,0.5-1.1
		s0.3-0.3,0.4-0.3s0.2,0.1,0.2,0.3c0,1.4-0.8,3.5-2.5,6.2C188.2,87.6,186,89.1,183.3,89.1z M181.1,82c1.6-0.3,2.8-0.8,3.6-1.6
		c0.8-0.8,1.1-1.8,1.1-3s-0.4-1.9-1.2-1.9c-1,0-1.8,0.7-2.5,2C181.5,78.8,181.1,80.3,181.1,82z"/>
	<path class="st2" d="M193.4,89.1c-0.6,0-1.2-0.1-1.7-0.2s-0.8-0.3-0.9-0.4c-0.3-0.3-0.4-2.1-0.4-5.2c0-3.1,0.3-7.4,1-12.7
		c0.6-4.4,1.9-6.6,4.1-6.6c0.5,0,0.9,0.3,1.1,0.8c0.2,0.5,0.3,1.1,0.3,1.6c0,3.6-1.1,7.6-3.3,12.1c-0.1,2.3-0.1,4.3-0.1,6
		s0.2,2.6,0.5,2.6c0.5,0,1.1-0.6,2-1.8c0.8-1.2,1.7-2.6,2.5-4.4c0.8-1.8,1.3-2.7,1.5-2.7s0.3,0.1,0.3,0.3c0,0.8-0.4,2-1.2,3.7
		C196.8,86.8,194.9,89.1,193.4,89.1z M195.9,66.7c0-0.9-0.1-1.3-0.3-1.3c-0.8,0-1.4,3.5-1.8,10.4C195.2,71.9,195.9,68.9,195.9,66.7z
		"/>
	<path class="st2" d="M202.8,89.1c-1.6,0-2.8-0.6-3.7-1.8c-0.9-1.2-1.4-2.5-1.4-4c0-3,0.6-5.3,1.9-6.9c1.3-1.6,2.9-2.3,5-2.3
		c0.9,0,1.7,0.3,2.3,0.8c0.6,0.5,0.9,1.2,0.9,2.1c0,1.7-0.7,3.1-2.1,4.2c-1.4,1.1-3.1,1.7-5.1,1.8c0.1,1.1,0.5,2,1.1,2.8
		c0.6,0.8,1.4,1.2,2.2,1.2c0.8,0,1.6-0.2,2.2-0.6c0.7-0.4,1.3-0.9,1.8-1.7c1.2-1.5,2.2-3.3,3-5.2c0.2-0.5,0.4-0.9,0.5-1.1
		s0.3-0.3,0.4-0.3c0.2,0,0.2,0.1,0.2,0.3c0,1.4-0.8,3.5-2.5,6.2C207.7,87.6,205.4,89.1,202.8,89.1z M200.5,82
		c1.6-0.3,2.8-0.8,3.6-1.6c0.8-0.8,1.1-1.8,1.1-3s-0.4-1.9-1.2-1.9c-1,0-1.8,0.7-2.5,2C201,78.8,200.6,80.3,200.5,82z"/>
	<path class="st2" d="M221.7,89.1c-0.9,0-1.7-0.2-2.2-0.6c-0.2-0.2-0.3-0.8-0.3-1.7c0-0.9,0-2.2,0.1-3.7c-0.8,2-1.5,3.5-2.3,4.5
		c-0.8,1-1.8,1.5-2.9,1.5s-2.2-0.5-3-1.5c-0.8-1-1.2-2.7-1.2-4.9s0.6-4.2,1.9-6c1.3-1.7,2.9-2.6,5-2.6c1,0,2,0.4,3.1,1.2
		c0.4-5.4,0.8-8.5,1.2-9.2c0.2-0.3,0.6-0.7,1.2-1.3c0.6-0.6,1.1-0.9,1.6-0.9s0.6,0.7,0.6,2c0,1.5-0.1,2.8-0.4,4
		c-0.7,2.9-1.2,4.7-1.4,5.5c-0.4,3-0.6,6.5-0.6,10.6c0,0.7,0.1,1.1,0.2,1.1c0.5,0,1.2-0.6,2-1.7c0.8-1.1,1.7-2.6,2.5-4.4
		c0.8-1.8,1.3-2.7,1.5-2.7s0.3,0.1,0.3,0.3c0,0.8-0.4,2-1.2,3.7C225.1,86.8,223.3,89.1,221.7,89.1z M216.5,75.6
		c-0.8,0-1.5,0.6-2.2,1.8c-0.8,1.2-1.1,2.6-1.1,4.1c0,1.6,0.2,2.9,0.6,3.9c0.4,1,0.9,1.5,1.5,1.5c1.2,0,2.7-2.5,4.3-7.5
		c0.1-1.5,0.2-2.4,0.2-2.7C218.9,76,217.9,75.6,216.5,75.6z"/>
</g>
<g class="st1">
	<path class="st2" d="M230.7,84.2c0.7,0,1.2,0.3,1.7,0.8c0.5,0.5,0.7,1.1,0.7,1.8c0,0.7-0.2,1.3-0.7,1.8c-0.5,0.5-1.1,0.7-1.8,0.7
		c-0.4,0-0.7-0.1-1-0.2s-0.6-0.3-0.8-0.5c-0.2-0.2-0.4-0.5-0.5-0.8c-0.1-0.3-0.2-0.6-0.2-1c0-0.7,0.2-1.3,0.7-1.8
		C229.3,84.4,229.9,84.2,230.7,84.2z"/>
	<path class="st2" d="M239.3,84.2c0.7,0,1.2,0.3,1.7,0.8c0.5,0.5,0.7,1.1,0.7,1.8c0,0.7-0.2,1.3-0.7,1.8c-0.5,0.5-1.1,0.7-1.8,0.7
		c-0.4,0-0.7-0.1-1-0.2s-0.6-0.3-0.8-0.5c-0.2-0.2-0.4-0.5-0.5-0.8c-0.1-0.3-0.2-0.6-0.2-1c0-0.7,0.2-1.3,0.7-1.8
		C237.9,84.4,238.6,84.2,239.3,84.2z"/>
	<path class="st2" d="M247.9,84.2c0.7,0,1.2,0.3,1.7,0.8c0.5,0.5,0.7,1.1,0.7,1.8c0,0.7-0.2,1.3-0.7,1.8c-0.5,0.5-1.1,0.7-1.8,0.7
		c-0.4,0-0.7-0.1-1-0.2c-0.3-0.1-0.6-0.3-0.8-0.5c-0.2-0.2-0.4-0.5-0.5-0.8c-0.1-0.3-0.2-0.6-0.2-1c0-0.7,0.2-1.3,0.7-1.8
		C246.6,84.4,247.2,84.2,247.9,84.2z"/>
</g>
</svg>
