<?xml version="1.0" encoding="utf-8"?>
<!-- Generator: Adobe Illustrator 20.0.0, SVG Export Plug-In . SVG Version: 6.00 Build 0)  -->
<svg version="1.1" id="Layer_1" xmlns="http://www.w3.org/2000/svg" xmlns:xlink="http://www.w3.org/1999/xlink" x="0px" y="0px"
	 viewBox="0 0 300 250" style="enable-background:new 0 0 300 250;" xml:space="preserve">
<style type="text/css">
	.st0{fill:#3A261E;stroke:#7D4C30;stroke-width:5;stroke-miterlimit:10;}
	.st1{fill:#563819;}
	.st2{fill:#6D481D;}
	.st3{fill:#A56D3E;}
	.st4{fill:none;stroke:#7D4C30;stroke-width:6;stroke-miterlimit:10;}
	.st5{fill:none;stroke:#663D29;stroke-width:4;stroke-miterlimit:10;}
	.st6{fill:#7D4C30;stroke:#7D4C30;stroke-width:4;stroke-miterlimit:10;}
	.st7{fill:#7D4C30;stroke:#7D4C30;stroke-width:6;stroke-miterlimit:10;}
	.st8{fill:#663D29;}
</style>
<g>
	
		<ellipse transform="matrix(0.8494 -0.5278 0.5278 0.8494 -51.3306 99.7887)" class="st0" cx="149.2" cy="139.8" rx="94.6" ry="94.6"/>
	<g>
		<path class="st1" d="M168.9,175.7c-3.2-2.7-2.9-8.4,0.8-12.9s9.3-5.9,12.5-3.2"/>
		<path class="st1" d="M182.2,159.6c2.9,3.3,2.8,8.9-1.2,13.4c-4,4.5-10,4.8-13.2,2.1"/>
		
			<ellipse transform="matrix(0.6369 -0.771 0.771 0.6369 -65.2845 195.2493)" class="st2" cx="174.6" cy="166.9" rx="10.7" ry="7.3"/>
		<g>
			<path class="st3" d="M175.8,164.8c0,0-0.1-0.4-0.2-0.9c-0.1-0.5-0.1-1.2-0.1-1.8c0-0.6-0.1-1.2-0.2-1.7c-0.1-0.2-0.1-0.4-0.2-0.6
				c-0.1-0.1-0.1-0.2-0.1-0.2s0.1,0,0.2,0.1c0.1,0.1,0.3,0.2,0.5,0.4c0.2,0.2,0.4,0.5,0.5,0.8c0.1,0.3,0.2,0.7,0.2,1.1
				c0,0.7-0.1,1.4-0.3,1.9C176,164.5,175.8,164.8,175.8,164.8z"/>
		</g>
		<g>
			<path class="st3" d="M171.2,169.9c0,0-0.1-0.3-0.2-0.6c-0.1-0.4-0.1-0.9-0.1-1.3c0-0.4,0-0.8-0.1-1.2c0-0.3-0.1-0.6-0.1-0.6
				s0.3,0,0.6,0.4c0.2,0.1,0.3,0.4,0.4,0.6c0.1,0.2,0.1,0.5,0.2,0.8c0,0.5-0.1,1-0.3,1.4C171.4,169.6,171.2,169.9,171.2,169.9z"/>
		</g>
		<g>
			<path class="st3" d="M175.1,165.9c0,0,0.2-0.2,0.5-0.5c0.3-0.2,0.8-0.5,1.3-0.6c0.3,0,0.6-0.1,0.8,0c0.3,0.1,0.5,0.1,0.7,0.3
				c0.4,0.2,0.5,0.5,0.5,0.5s-0.3,0-0.6,0c-0.3,0-0.7,0.1-1.2,0.2c-0.4,0.1-0.9,0.1-1.3,0.1C175.4,165.9,175.1,165.9,175.1,165.9z"
				/>
		</g>
		<g>
			<path class="st3" d="M177.3,169.3c0,0-0.4,0.1-0.9,0c-0.5,0-1.2-0.2-1.8-0.3c-0.6-0.1-1.2-0.2-1.7-0.1c-0.2,0-0.4,0-0.6,0.1
				c-0.2,0-0.2,0-0.2,0s0-0.1,0.2-0.2c0.1-0.1,0.3-0.3,0.5-0.4c0.2-0.2,0.6-0.3,0.9-0.3c0.4-0.1,0.7,0,1.1,0
				c0.7,0.1,1.4,0.4,1.8,0.7C177,169,177.3,169.3,177.3,169.3z"/>
		</g>
		<path class="st3" d="M168.6,173.6c0,0,4.6-9.2,11.8-13.4"/>
	</g>
	<g>
		<path class="st1" d="M190,168.6c-3.2-2.7-2.9-8.4,0.8-12.9c3.7-4.4,9.3-5.9,12.5-3.2"/>
		<path class="st1" d="M203.3,152.5c2.9,3.3,2.8,8.9-1.2,13.4c-4,4.5-10,4.8-13.2,2.1"/>
		
			<ellipse transform="matrix(0.6369 -0.771 0.771 0.6369 -52.1035 208.9594)" class="st2" cx="195.8" cy="159.8" rx="10.7" ry="7.3"/>
		<g>
			<path class="st3" d="M196.9,157.7c0,0-0.1-0.4-0.2-0.9c-0.1-0.5-0.1-1.2-0.1-1.8c0-0.6-0.1-1.2-0.2-1.7c-0.1-0.2-0.1-0.4-0.2-0.6
				c-0.1-0.1-0.1-0.2-0.1-0.2s0.1,0,0.2,0.1c0.1,0.1,0.3,0.2,0.5,0.4c0.2,0.2,0.4,0.5,0.5,0.8c0.1,0.3,0.2,0.7,0.2,1.1
				c0,0.7-0.1,1.4-0.3,1.9C197.1,157.4,196.9,157.7,196.9,157.7z"/>
		</g>
		<g>
			<path class="st3" d="M192.3,162.7c0,0-0.1-0.3-0.2-0.6c-0.1-0.4-0.1-0.9-0.1-1.3c0-0.4,0-0.8-0.1-1.2c0-0.3-0.1-0.6-0.1-0.6
				s0.3,0,0.6,0.4c0.2,0.1,0.3,0.4,0.4,0.6c0.1,0.2,0.1,0.5,0.2,0.8c0,0.5-0.1,1-0.3,1.4C192.5,162.5,192.3,162.7,192.3,162.7z"/>
		</g>
		<g>
			<path class="st3" d="M196.2,158.7c0,0,0.2-0.2,0.5-0.5c0.3-0.2,0.8-0.5,1.3-0.6c0.3,0,0.6-0.1,0.8,0c0.3,0.1,0.5,0.1,0.7,0.3
				c0.4,0.2,0.5,0.5,0.5,0.5s-0.3,0-0.6,0c-0.3,0-0.7,0.1-1.2,0.2c-0.4,0.1-0.9,0.1-1.3,0.1C196.5,158.8,196.2,158.7,196.2,158.7z"
				/>
		</g>
		<g>
			<path class="st3" d="M198.4,162.1c0,0-0.4,0.1-0.9,0c-0.5,0-1.2-0.2-1.8-0.3c-0.6-0.1-1.2-0.2-1.7-0.1c-0.2,0-0.4,0-0.6,0.1
				c-0.2,0-0.2,0-0.2,0s0-0.1,0.2-0.2c0.1-0.1,0.3-0.3,0.5-0.4c0.2-0.2,0.6-0.3,0.9-0.3c0.4-0.1,0.7,0,1.1,0
				c0.7,0.1,1.4,0.4,1.8,0.7C198.2,161.9,198.4,162.1,198.4,162.1z"/>
		</g>
		<path class="st3" d="M189.7,166.5c0,0,4.6-9.2,11.8-13.4"/>
	</g>
	<g>
		<path class="st1" d="M170.1,200c-4.1-0.8-6.5-6.1-5.3-11.8s5.4-9.5,9.5-8.7"/>
		<path class="st1" d="M174.4,179.6c4.1,1.6,6.7,6.6,5.2,12.4c-1.4,5.9-6.6,8.9-10.7,8"/>
		
			<ellipse transform="matrix(0.203 -0.9792 0.9792 0.203 -49.2707 318.6181)" class="st2" cx="171.1" cy="189.6" rx="10.7" ry="7.3"/>
		<g>
			<path class="st3" d="M171.1,187.2c0,0-0.3-0.3-0.6-0.7c-0.3-0.4-0.6-1-0.9-1.5c-0.3-0.5-0.6-1-1-1.4c-0.2-0.2-0.3-0.3-0.4-0.4
				c-0.1-0.1-0.2-0.2-0.2-0.2s0.1,0,0.3,0c0.2,0,0.4,0,0.7,0.1c0.3,0.1,0.6,0.3,0.8,0.5c0.3,0.2,0.5,0.5,0.7,0.9
				c0.4,0.6,0.5,1.3,0.6,1.8C171.1,186.8,171.1,187.2,171.1,187.2z"/>
		</g>
		<g>
			<path class="st3" d="M169.4,193.8c0,0-0.2-0.2-0.5-0.5c-0.2-0.3-0.5-0.7-0.7-1.1c-0.2-0.4-0.4-0.7-0.6-1
				c-0.2-0.3-0.4-0.5-0.4-0.5s0.3-0.1,0.7,0c0.2,0.1,0.4,0.2,0.6,0.4c0.2,0.2,0.4,0.4,0.5,0.6c0.3,0.5,0.4,1,0.4,1.4
				C169.5,193.5,169.4,193.8,169.4,193.8z"/>
		</g>
		<g>
			<path class="st3" d="M171,188.4c0,0,0-0.3,0.2-0.6c0.2-0.4,0.4-0.8,0.9-1.1c0.2-0.2,0.5-0.3,0.7-0.4c0.3-0.1,0.5-0.1,0.7-0.1
				c0.4,0,0.7,0.2,0.7,0.2s-0.3,0.1-0.6,0.3c-0.3,0.2-0.6,0.4-0.9,0.7c-0.3,0.3-0.7,0.5-1.1,0.7C171.3,188.4,171,188.4,171,188.4z"
				/>
		</g>
		<g>
			<path class="st3" d="M174.5,190.4c0,0-0.3,0.2-0.8,0.4c-0.5,0.2-1.1,0.4-1.7,0.6c-0.6,0.2-1.1,0.4-1.5,0.7
				c-0.2,0.1-0.4,0.2-0.5,0.3c-0.1,0.1-0.2,0.1-0.2,0.1s0-0.1,0-0.3c0-0.2,0.1-0.4,0.3-0.6c0.1-0.2,0.4-0.5,0.7-0.7
				c0.3-0.2,0.6-0.4,1-0.5c0.7-0.2,1.4-0.3,1.9-0.2C174.2,190.3,174.5,190.4,174.5,190.4z"/>
		</g>
		<path class="st3" d="M168.9,198.3c0,0-0.2-10.3,4.2-17.4"/>
	</g>
	<g>
		<path class="st1" d="M188,187.7c-4.2-0.4-7-5.4-6.4-11.2c0.6-5.7,4.4-10,8.6-9.6"/>
		<path class="st1" d="M190.1,166.9c4.2,1.2,7.3,5.9,6.5,11.8c-0.8,6-5.7,9.5-9.8,9.1"/>
		
			<ellipse transform="matrix(0.1035 -0.9946 0.9946 0.1035 -7.7547 345.7017)" class="st2" cx="187.9" cy="177.2" rx="10.7" ry="7.3"/>
		<g>
			<path class="st3" d="M187.7,174.8c0,0-0.3-0.2-0.6-0.6c-0.3-0.4-0.7-0.9-1.1-1.4c-0.4-0.5-0.7-1-1.1-1.3
				c-0.2-0.2-0.3-0.3-0.5-0.4c-0.1-0.1-0.2-0.2-0.2-0.2s0.1,0,0.3,0c0.2,0,0.4,0,0.7,0.1c0.3,0.1,0.6,0.2,0.9,0.4
				c0.3,0.2,0.5,0.5,0.8,0.8c0.4,0.6,0.7,1.3,0.8,1.8C187.7,174.4,187.7,174.8,187.7,174.8z"/>
		</g>
		<g>
			<path class="st3" d="M186.6,181.5c0,0-0.3-0.1-0.5-0.4c-0.3-0.3-0.6-0.6-0.8-1c-0.3-0.4-0.5-0.7-0.7-0.9
				c-0.2-0.3-0.4-0.5-0.4-0.5s0.3-0.1,0.7,0c0.2,0,0.5,0.1,0.7,0.3c0.2,0.1,0.4,0.4,0.6,0.6c0.3,0.4,0.5,0.9,0.5,1.3
				C186.7,181.2,186.6,181.5,186.6,181.5z"/>
		</g>
		<g>
			<path class="st3" d="M187.7,176c0,0,0-0.3,0.1-0.7c0.1-0.4,0.4-0.8,0.8-1.2c0.2-0.2,0.4-0.3,0.7-0.5c0.2-0.1,0.5-0.2,0.7-0.2
				c0.4,0,0.7,0.2,0.7,0.2s-0.2,0.2-0.5,0.4c-0.3,0.2-0.6,0.5-0.9,0.8c-0.3,0.3-0.7,0.6-1,0.8C188,175.9,187.7,176,187.7,176z"/>
		</g>
		<g>
			<path class="st3" d="M191.4,177.6c0,0-0.3,0.3-0.7,0.5c-0.5,0.3-1.1,0.5-1.6,0.8c-0.6,0.3-1.1,0.5-1.5,0.8
				c-0.2,0.1-0.4,0.3-0.5,0.4c-0.1,0.1-0.2,0.2-0.2,0.2s0-0.1,0-0.3c0-0.2,0.1-0.4,0.2-0.6c0.1-0.3,0.3-0.5,0.6-0.8
				c0.3-0.2,0.6-0.4,0.9-0.6c0.7-0.3,1.4-0.4,1.9-0.4C191,177.6,191.4,177.6,191.4,177.6z"/>
		</g>
		<path class="st3" d="M186.6,186.1c0,0-1.2-10.2,2.4-17.7"/>
	</g>
	<g>
		<path class="st1" d="M179.2,204.1c-3.2-2.7-2.9-8.4,0.8-12.9c3.7-4.4,9.3-5.9,12.5-3.2"/>
		<path class="st1" d="M192.5,188c2.9,3.3,2.8,8.9-1.2,13.4c-4,4.5-10,4.8-13.2,2.1"/>
		
			<ellipse transform="matrix(0.6369 -0.771 0.771 0.6369 -83.4429 213.5079)" class="st2" cx="184.9" cy="195.3" rx="10.7" ry="7.3"/>
		<g>
			<path class="st3" d="M186.1,193.2c0,0-0.1-0.4-0.2-0.9c-0.1-0.5-0.1-1.2-0.1-1.8c0-0.6-0.1-1.2-0.2-1.7c-0.1-0.2-0.1-0.4-0.2-0.6
				c-0.1-0.1-0.1-0.2-0.1-0.2s0.1,0,0.2,0.1c0.1,0.1,0.3,0.2,0.5,0.4c0.2,0.2,0.4,0.5,0.5,0.8c0.1,0.3,0.2,0.7,0.2,1.1
				c0,0.7-0.1,1.4-0.3,1.9C186.3,192.9,186.1,193.2,186.1,193.2z"/>
		</g>
		<g>
			<path class="st3" d="M181.5,198.3c0,0-0.1-0.3-0.2-0.6c-0.1-0.4-0.1-0.9-0.1-1.3c0-0.4,0-0.8-0.1-1.2c0-0.3-0.1-0.6-0.1-0.6
				s0.3,0,0.6,0.4c0.2,0.1,0.3,0.4,0.4,0.6c0.1,0.2,0.1,0.5,0.2,0.8c0,0.5-0.1,1-0.3,1.4C181.7,198,181.5,198.3,181.5,198.3z"/>
		</g>
		<g>
			<path class="st3" d="M185.4,194.3c0,0,0.2-0.2,0.5-0.5c0.3-0.2,0.8-0.5,1.3-0.6c0.3,0,0.6-0.1,0.8,0c0.3,0.1,0.5,0.1,0.7,0.3
				c0.4,0.2,0.5,0.5,0.5,0.5s-0.3,0-0.6,0c-0.3,0-0.7,0.1-1.2,0.2c-0.4,0.1-0.9,0.1-1.3,0.1C185.7,194.4,185.4,194.3,185.4,194.3z"
				/>
		</g>
		<g>
			<path class="st3" d="M187.6,197.7c0,0-0.4,0.1-0.9,0c-0.5,0-1.2-0.2-1.8-0.3c-0.6-0.1-1.2-0.2-1.7-0.1c-0.2,0-0.4,0-0.6,0.1
				c-0.2,0-0.2,0-0.2,0s0-0.1,0.2-0.2c0.1-0.1,0.3-0.3,0.5-0.4c0.2-0.2,0.6-0.3,0.9-0.3c0.4-0.1,0.7,0,1.1,0
				c0.7,0.1,1.4,0.4,1.8,0.7C187.3,197.4,187.6,197.7,187.6,197.7z"/>
		</g>
		<path class="st3" d="M178.9,202.1c0,0,4.6-9.2,11.8-13.4"/>
	</g>
	<g>
		<path class="st1" d="M199.2,182.9c-3.2-2.7-2.9-8.4,0.8-12.9s9.3-5.9,12.5-3.2"/>
		<path class="st1" d="M212.5,166.8c2.9,3.3,2.8,8.9-1.2,13.4c-4,4.5-10,4.8-13.2,2.1"/>
		
			<ellipse transform="matrix(0.6369 -0.771 0.771 0.6369 -59.8203 221.2366)" class="st2" cx="204.9" cy="174.1" rx="10.7" ry="7.3"/>
		<g>
			<path class="st3" d="M206.1,172c0,0-0.1-0.4-0.2-0.9c-0.1-0.5-0.1-1.2-0.1-1.8c0-0.6-0.1-1.2-0.2-1.7c-0.1-0.2-0.1-0.4-0.2-0.6
				c-0.1-0.1-0.1-0.2-0.1-0.2s0.1,0,0.2,0.1c0.1,0.1,0.3,0.2,0.5,0.4c0.2,0.2,0.4,0.5,0.5,0.8c0.1,0.3,0.2,0.7,0.2,1.1
				c0,0.7-0.1,1.4-0.3,1.9C206.3,171.7,206.1,172,206.1,172z"/>
		</g>
		<g>
			<path class="st3" d="M201.5,177.1c0,0-0.1-0.3-0.2-0.6c-0.1-0.4-0.1-0.9-0.1-1.3c0-0.4,0-0.8-0.1-1.2c0-0.3-0.1-0.6-0.1-0.6
				s0.3,0,0.6,0.4c0.2,0.1,0.3,0.4,0.4,0.6c0.1,0.2,0.1,0.5,0.2,0.8c0,0.5-0.1,1-0.3,1.4C201.7,176.8,201.5,177.1,201.5,177.1z"/>
		</g>
		<g>
			<path class="st3" d="M205.4,173.1c0,0,0.2-0.2,0.5-0.5c0.3-0.2,0.8-0.5,1.3-0.6c0.3,0,0.6-0.1,0.8,0c0.3,0.1,0.5,0.1,0.7,0.3
				c0.4,0.2,0.5,0.5,0.5,0.5s-0.3,0-0.6,0c-0.3,0-0.7,0.1-1.2,0.2c-0.4,0.1-0.9,0.1-1.3,0.1C205.7,173.1,205.4,173.1,205.4,173.1z"
				/>
		</g>
		<g>
			<path class="st3" d="M207.6,176.5c0,0-0.4,0.1-0.9,0c-0.5,0-1.2-0.2-1.8-0.3c-0.6-0.1-1.2-0.2-1.7-0.1c-0.2,0-0.4,0-0.6,0.1
				c-0.2,0-0.2,0-0.2,0s0-0.1,0.2-0.2c0.1-0.1,0.3-0.3,0.5-0.4c0.2-0.2,0.6-0.3,0.9-0.3c0.4-0.1,0.7,0,1.1,0
				c0.7,0.1,1.4,0.4,1.8,0.7C207.3,176.2,207.6,176.5,207.6,176.5z"/>
		</g>
		<path class="st3" d="M198.9,180.8c0,0,4.6-9.2,11.8-13.4"/>
	</g>
	<g>
		<path class="st1" d="M207.1,162.5c-1.7-3.8,1.1-8.8,6.4-11.2c5.2-2.4,10.9-1.2,12.6,2.6"/>
		<path class="st1" d="M226.1,153.9c1.1,4.2-1.4,9.2-6.9,11.6c-5.6,2.3-11.1-0.1-12.8-3.9"/>
		
			<ellipse transform="matrix(0.9104 -0.4137 0.4137 0.9104 -45.6511 103.4685)" class="st2" cx="216.1" cy="157.1" rx="10.7" ry="7.3"/>
		<g>
			<path class="st3" d="M218,155.7c0,0,0-0.4,0.2-0.9c0.2-0.5,0.5-1.1,0.7-1.7c0.3-0.6,0.5-1.1,0.6-1.6c0-0.2,0.1-0.4,0.1-0.6
				c0-0.2,0-0.2,0-0.2s0.1,0.1,0.2,0.2c0.1,0.1,0.2,0.3,0.3,0.6c0.1,0.3,0.1,0.6,0.1,1c0,0.4-0.2,0.7-0.3,1
				c-0.3,0.7-0.8,1.2-1.1,1.6C218.4,155.5,218,155.7,218,155.7z"/>
		</g>
		<g>
			<path class="st3" d="M211.7,158.3c0,0,0-0.3,0.1-0.7c0.1-0.4,0.3-0.8,0.4-1.2c0.2-0.4,0.3-0.8,0.4-1.1c0.1-0.3,0.2-0.6,0.2-0.6
				s0.3,0.2,0.4,0.6c0.1,0.2,0.1,0.5,0.1,0.7c0,0.3-0.1,0.5-0.2,0.8c-0.2,0.5-0.6,0.9-0.9,1.1C212,158.2,211.7,158.3,211.7,158.3z"
				/>
		</g>
		<g>
			<path class="st3" d="M217,156.4c0,0,0.3-0.1,0.6-0.2c0.4-0.1,0.9-0.1,1.4,0c0.3,0.1,0.5,0.2,0.7,0.4c0.2,0.2,0.4,0.3,0.5,0.5
				c0.2,0.4,0.2,0.7,0.2,0.7s-0.3-0.1-0.6-0.3c-0.3-0.1-0.7-0.2-1.1-0.4c-0.4-0.1-0.9-0.3-1.2-0.4C217.2,156.6,217,156.4,217,156.4z
				"/>
		</g>
		<g>
			<path class="st3" d="M217.5,160.4c0,0-0.4-0.1-0.8-0.4c-0.4-0.3-1-0.7-1.5-1c-0.5-0.4-1-0.7-1.4-0.9c-0.2-0.1-0.4-0.2-0.6-0.2
				c-0.1,0-0.2-0.1-0.2-0.1s0.1,0,0.2-0.1c0.1-0.1,0.4-0.1,0.7-0.2c0.3,0,0.6,0,1,0.1c0.3,0.1,0.7,0.3,1,0.5c0.6,0.4,1,1,1.3,1.4
				C217.3,160.1,217.5,160.4,217.5,160.4z"/>
		</g>
		<path class="st3" d="M207.7,160.5c0,0,8.2-6.2,16.5-6.9"/>
	</g>
	<g>
		<path class="st1" d="M224.8,181.8c-4.2,0.3-7.9-4-8.4-9.8c-0.5-5.7,2.5-10.7,6.7-11"/>
		<path class="st1" d="M223.1,161c4.4,0.4,8.2,4.4,8.5,10.4c0.3,6-3.8,10.4-8,10.7"/>
		
			<ellipse transform="matrix(0.9965 -8.330268e-02 8.330268e-02 0.9965 -13.5108 19.1563)" class="st2" cx="222.8" cy="171.5" rx="7.3" ry="10.7"/>
		<g>
			<path class="st3" d="M222.1,169.2c0,0-0.3-0.2-0.7-0.5c-0.4-0.3-0.9-0.8-1.3-1.2c-0.4-0.4-0.9-0.8-1.3-1.1
				c-0.2-0.1-0.4-0.2-0.5-0.3c-0.1-0.1-0.2-0.1-0.2-0.1s0.1,0,0.2-0.1c0.2,0,0.4-0.1,0.7-0.1c0.3,0,0.6,0.1,0.9,0.3
				c0.3,0.2,0.6,0.4,0.9,0.6c0.5,0.5,0.9,1.1,1.1,1.6C222.1,168.8,222.1,169.2,222.1,169.2z"/>
		</g>
		<g>
			<path class="st3" d="M222.4,176c0,0-0.3-0.1-0.6-0.3c-0.3-0.2-0.7-0.5-1-0.8c-0.3-0.3-0.6-0.6-0.9-0.8c-0.3-0.2-0.5-0.4-0.5-0.4
				s0.2-0.2,0.7-0.2c0.2,0,0.5,0.1,0.7,0.2c0.2,0.1,0.5,0.3,0.7,0.5c0.4,0.4,0.6,0.8,0.8,1.2C222.4,175.7,222.4,176,222.4,176z"/>
		</g>
		<g>
			<path class="st3" d="M222.4,170.4c0,0,0-0.3,0-0.7c0.1-0.4,0.2-0.9,0.5-1.3c0.2-0.2,0.4-0.4,0.6-0.6c0.2-0.1,0.5-0.3,0.7-0.3
				c0.4-0.1,0.7,0,0.7,0s-0.2,0.2-0.4,0.5c-0.2,0.3-0.5,0.6-0.7,0.9c-0.3,0.4-0.5,0.7-0.8,1C222.6,170.3,222.4,170.4,222.4,170.4z"
				/>
		</g>
		<g>
			<path class="st3" d="M226.3,171.3c0,0-0.2,0.3-0.6,0.6c-0.4,0.3-0.9,0.7-1.5,1.1c-0.5,0.4-1,0.7-1.3,1.1
				c-0.2,0.2-0.3,0.3-0.4,0.5c-0.1,0.1-0.2,0.2-0.2,0.2s0-0.1,0-0.3c0-0.2,0-0.4,0.1-0.7c0.1-0.3,0.2-0.6,0.4-0.9
				c0.2-0.3,0.5-0.5,0.8-0.8c0.6-0.4,1.3-0.7,1.8-0.8C226,171.3,226.3,171.3,226.3,171.3z"/>
		</g>
		<path class="st3" d="M223.2,180.5c0,0-3.1-9.8-0.9-17.8"/>
	</g>
	<g>
		<path class="st1" d="M210.3,196.2c-3.2-2.7-2.9-8.4,0.8-12.9c3.7-4.4,9.3-5.9,12.5-3.2"/>
		<path class="st1" d="M223.6,180.1c2.9,3.3,2.8,8.9-1.2,13.4c-4,4.5-10,4.8-13.2,2.1"/>
		<ellipse transform="matrix(0.6369 -0.771 0.771 0.6369 -66.016 234.5858)" class="st2" cx="216" cy="187.4" rx="10.7" ry="7.3"/>
		<g>
			<path class="st3" d="M217.1,185.3c0,0-0.1-0.4-0.2-0.9c-0.1-0.5-0.1-1.2-0.1-1.8c0-0.6-0.1-1.2-0.2-1.7c-0.1-0.2-0.1-0.4-0.2-0.6
				c-0.1-0.1-0.1-0.2-0.1-0.2s0.1,0,0.2,0.1c0.1,0.1,0.3,0.2,0.5,0.4c0.2,0.2,0.4,0.5,0.5,0.8c0.1,0.3,0.2,0.7,0.2,1.1
				c0,0.7-0.1,1.4-0.3,1.9C217.4,184.9,217.1,185.3,217.1,185.3z"/>
		</g>
		<g>
			<path class="st3" d="M212.6,190.3c0,0-0.1-0.3-0.2-0.6c-0.1-0.4-0.1-0.9-0.1-1.3c0-0.4,0-0.8-0.1-1.2c0-0.3-0.1-0.6-0.1-0.6
				s0.3,0,0.6,0.4c0.2,0.1,0.3,0.4,0.4,0.6c0.1,0.2,0.1,0.5,0.2,0.8c0,0.5-0.1,1-0.3,1.4C212.8,190.1,212.6,190.3,212.6,190.3z"/>
		</g>
		<g>
			<path class="st3" d="M216.5,186.3c0,0,0.2-0.2,0.5-0.5c0.3-0.2,0.8-0.5,1.3-0.6c0.3,0,0.6-0.1,0.8,0c0.3,0.1,0.5,0.1,0.7,0.3
				c0.4,0.2,0.5,0.5,0.5,0.5s-0.3,0-0.6,0c-0.3,0-0.7,0.1-1.2,0.2c-0.4,0.1-0.9,0.1-1.3,0.1C216.8,186.4,216.5,186.3,216.5,186.3z"
				/>
		</g>
		<g>
			<path class="st3" d="M218.7,189.7c0,0-0.4,0.1-0.9,0c-0.5,0-1.2-0.2-1.8-0.3c-0.6-0.1-1.2-0.2-1.7-0.1c-0.2,0-0.4,0-0.6,0.1
				c-0.2,0-0.2,0-0.2,0s0-0.1,0.2-0.2c0.1-0.1,0.3-0.3,0.5-0.4c0.2-0.2,0.6-0.3,0.9-0.3c0.4-0.1,0.7,0,1.1,0
				c0.7,0.1,1.4,0.4,1.8,0.7C218.4,189.5,218.7,189.7,218.7,189.7z"/>
		</g>
		<path class="st3" d="M210,194.1c0,0,4.6-9.2,11.8-13.4"/>
	</g>
	<g>
		<path class="st1" d="M191.8,193.6c-0.4-4.2,3.9-8,9.6-8.6s10.7,2.3,11.1,6.5"/>
		<path class="st1" d="M212.6,191.5c-0.3,4.4-4.3,8.3-10.3,8.7c-6,0.4-10.4-3.6-10.9-7.8"/>
		
			<ellipse transform="matrix(0.9951 -9.879231e-02 9.879231e-02 0.9951 -17.918 20.8977)" class="st2" cx="202.1" cy="191.4" rx="10.7" ry="7.3"/>
		<g>
			<path class="st3" d="M204.3,190.7c0,0,0.2-0.3,0.5-0.7c0.3-0.4,0.8-0.9,1.2-1.3c0.4-0.5,0.8-0.9,1-1.3c0.1-0.2,0.2-0.4,0.3-0.5
				c0.1-0.1,0.1-0.2,0.1-0.2s0,0.1,0.1,0.2c0,0.2,0.1,0.4,0.1,0.7c0,0.3-0.1,0.6-0.2,0.9c-0.1,0.3-0.4,0.6-0.6,0.9
				c-0.5,0.5-1.1,0.9-1.6,1.1C204.7,190.6,204.3,190.7,204.3,190.7z"/>
		</g>
		<g>
			<path class="st3" d="M197.5,191c0,0,0.1-0.3,0.3-0.6c0.2-0.3,0.5-0.7,0.8-1c0.3-0.3,0.6-0.6,0.8-0.9c0.2-0.3,0.4-0.5,0.4-0.5
				s0.2,0.2,0.2,0.7c0,0.2,0,0.5-0.1,0.7c-0.1,0.2-0.3,0.5-0.4,0.7c-0.4,0.4-0.8,0.6-1.2,0.8C197.8,191,197.5,191,197.5,191z"/>
		</g>
		<g>
			<path class="st3" d="M203.1,190.9c0,0,0.3,0,0.7,0c0.4,0,0.9,0.2,1.3,0.5c0.2,0.2,0.4,0.4,0.6,0.6c0.2,0.2,0.3,0.5,0.3,0.7
				c0.1,0.4,0,0.7,0,0.7s-0.2-0.2-0.5-0.4c-0.3-0.2-0.6-0.5-0.9-0.7c-0.4-0.2-0.7-0.5-1-0.8C203.3,191.2,203.1,190.9,203.1,190.9z"
				/>
		</g>
		<g>
			<path class="st3" d="M202.3,194.9c0,0-0.3-0.2-0.6-0.6c-0.3-0.4-0.7-0.9-1.1-1.4c-0.4-0.5-0.7-1-1.1-1.3
				c-0.2-0.2-0.3-0.3-0.5-0.4c-0.1-0.1-0.2-0.2-0.2-0.2s0.1,0,0.3,0c0.2,0,0.4,0,0.7,0.1c0.3,0.1,0.6,0.2,0.9,0.4
				c0.3,0.2,0.5,0.5,0.8,0.8c0.4,0.6,0.7,1.3,0.8,1.8C202.3,194.5,202.3,194.9,202.3,194.9z"/>
		</g>
		<path class="st3" d="M193,191.9c0,0,9.8-3.3,17.8-1.2"/>
	</g>
	<g>
		<path class="st1" d="M190.7,217.6c-4.1-1-6.3-6.3-5-11.9s5.7-9.4,9.7-8.4"/>
		<path class="st1" d="M195.5,197.3c4,1.7,6.5,6.7,4.9,12.6c-1.6,5.8-6.8,8.7-10.9,7.8"/>
		<ellipse transform="matrix(0.228 -0.9736 0.9736 0.228 -53.535 346.8478)" class="st2" cx="192" cy="207.2" rx="10.7" ry="7.3"/>
		<g>
			<path class="st3" d="M192,204.8c0,0-0.3-0.3-0.5-0.7c-0.3-0.4-0.6-1-0.9-1.6c-0.3-0.5-0.6-1-0.9-1.4c-0.2-0.2-0.3-0.3-0.4-0.4
				c-0.1-0.1-0.2-0.2-0.2-0.2s0.1,0,0.3,0c0.2,0,0.4,0,0.7,0.2c0.3,0.1,0.5,0.3,0.8,0.5c0.3,0.2,0.5,0.6,0.7,0.9
				c0.3,0.6,0.5,1.3,0.5,1.9C192.1,204.4,192,204.8,192,204.8z"/>
		</g>
		<g>
			<path class="st3" d="M190.2,211.4c0,0-0.2-0.2-0.5-0.5c-0.2-0.3-0.5-0.7-0.7-1.1c-0.2-0.4-0.4-0.7-0.6-1
				c-0.2-0.3-0.4-0.5-0.4-0.5s0.3-0.1,0.7,0c0.2,0.1,0.4,0.2,0.6,0.4c0.2,0.2,0.4,0.4,0.5,0.6c0.3,0.5,0.3,1,0.3,1.4
				C190.2,211.1,190.2,211.4,190.2,211.4z"/>
		</g>
		<g>
			<path class="st3" d="M191.9,206c0,0,0.1-0.3,0.2-0.6c0.2-0.4,0.5-0.8,0.9-1.1c0.2-0.2,0.5-0.3,0.7-0.4c0.3-0.1,0.5-0.1,0.7-0.1
				c0.4,0.1,0.7,0.3,0.7,0.3s-0.3,0.1-0.6,0.3c-0.3,0.2-0.6,0.4-1,0.7c-0.4,0.3-0.7,0.5-1.1,0.7C192.2,206,191.9,206,191.9,206z"/>
		</g>
		<g>
			<path class="st3" d="M195.4,208.1c0,0-0.3,0.2-0.8,0.4c-0.5,0.2-1.1,0.4-1.7,0.6c-0.6,0.2-1.1,0.4-1.6,0.6
				c-0.2,0.1-0.4,0.2-0.5,0.3c-0.1,0.1-0.2,0.1-0.2,0.1s0-0.1,0-0.2c0-0.2,0.1-0.4,0.3-0.6c0.1-0.2,0.4-0.5,0.7-0.7
				c0.3-0.2,0.6-0.4,1-0.5c0.7-0.2,1.4-0.2,1.9-0.2C195,208,195.4,208.1,195.4,208.1z"/>
		</g>
		<path class="st3" d="M189.5,215.9c0,0,0.1-10.3,4.6-17.2"/>
	</g>
	<g>
		<path class="st1" d="M167.2,223.6c-3.2-2.7-2.9-8.4,0.8-12.9c3.7-4.4,9.3-5.9,12.5-3.2"/>
		<path class="st1" d="M180.5,207.5c2.9,3.3,2.8,8.9-1.2,13.4c-4,4.5-10,4.8-13.2,2.1"/>
		
			<ellipse transform="matrix(0.6369 -0.771 0.771 0.6369 -102.8021 211.2921)" class="st2" cx="172.9" cy="214.8" rx="10.7" ry="7.3"/>
		<g>
			<path class="st3" d="M174,212.7c0,0-0.1-0.4-0.2-0.9c-0.1-0.5-0.1-1.2-0.1-1.8c0-0.6-0.1-1.2-0.2-1.7c-0.1-0.2-0.1-0.4-0.2-0.6
				c-0.1-0.1-0.1-0.2-0.1-0.2s0.1,0,0.2,0.1c0.1,0.1,0.3,0.2,0.5,0.4c0.2,0.2,0.4,0.5,0.5,0.8c0.1,0.3,0.2,0.7,0.2,1.1
				c0,0.7-0.1,1.4-0.3,1.9C174.2,212.3,174,212.7,174,212.7z"/>
		</g>
		<g>
			<path class="st3" d="M169.4,217.7c0,0-0.1-0.3-0.2-0.6c-0.1-0.4-0.1-0.9-0.1-1.3c0-0.4,0-0.8-0.1-1.2c0-0.3-0.1-0.6-0.1-0.6
				s0.3,0,0.6,0.4c0.2,0.1,0.3,0.4,0.4,0.6c0.1,0.2,0.1,0.5,0.2,0.8c0,0.5-0.1,1-0.3,1.4C169.6,217.5,169.4,217.7,169.4,217.7z"/>
		</g>
		<g>
			<path class="st3" d="M173.3,213.7c0,0,0.2-0.2,0.5-0.5c0.3-0.2,0.8-0.5,1.3-0.6c0.3,0,0.6-0.1,0.8,0c0.3,0.1,0.5,0.1,0.7,0.3
				c0.4,0.2,0.5,0.5,0.5,0.5s-0.3,0-0.6,0c-0.3,0-0.7,0.1-1.2,0.2c-0.4,0.1-0.9,0.1-1.3,0.1C173.6,213.8,173.3,213.7,173.3,213.7z"
				/>
		</g>
		<g>
			<path class="st3" d="M175.6,217.1c0,0-0.4,0.1-0.9,0c-0.5,0-1.2-0.2-1.8-0.3c-0.6-0.1-1.2-0.2-1.7-0.1c-0.2,0-0.4,0-0.6,0.1
				c-0.2,0-0.2,0-0.2,0s0-0.1,0.2-0.2c0.1-0.1,0.3-0.3,0.5-0.4c0.2-0.2,0.6-0.3,0.9-0.3c0.4-0.1,0.7,0,1.1,0
				c0.7,0.1,1.4,0.4,1.8,0.7C175.3,216.9,175.6,217.1,175.6,217.1z"/>
		</g>
		<path class="st3" d="M166.9,221.5c0,0,4.6-9.2,11.8-13.4"/>
	</g>
	<g>
		<path class="st1" d="M184.1,72.6c1.2-4,6.6-5.9,12.2-4.3c5.5,1.6,9,6.2,7.9,10.2"/>
		<path class="st1" d="M204.1,78.6c-1.9,3.9-7.1,6.1-12.8,4.2c-5.7-1.9-8.3-7.3-7.1-11.3"/>
		
			<ellipse transform="matrix(0.2841 -0.9588 0.9588 0.2841 67.788 239.7201)" class="st2" cx="194.4" cy="74.5" rx="7.3" ry="10.7"/>
		<g>
			<path class="st3" d="M196.8,74.7c0,0,0.3-0.3,0.7-0.5c0.5-0.3,1.1-0.5,1.6-0.8c0.6-0.3,1.1-0.5,1.5-0.8c0.2-0.1,0.4-0.3,0.5-0.4
				c0.1-0.1,0.2-0.2,0.2-0.2s0,0.1,0,0.3c0,0.2-0.1,0.4-0.2,0.6c-0.1,0.3-0.3,0.5-0.6,0.8c-0.3,0.2-0.6,0.4-0.9,0.6
				c-0.7,0.3-1.4,0.4-1.9,0.4C197.2,74.7,196.8,74.7,196.8,74.7z"/>
		</g>
		<g>
			<path class="st3" d="M190.4,72.4c0,0,0.2-0.2,0.5-0.4c0.3-0.2,0.7-0.4,1.1-0.6c0.4-0.2,0.8-0.3,1.1-0.5c0.3-0.2,0.5-0.3,0.5-0.3
				s0.1,0.3-0.1,0.7c-0.1,0.2-0.2,0.4-0.4,0.6c-0.2,0.2-0.4,0.3-0.7,0.5c-0.5,0.2-1,0.3-1.4,0.3C190.6,72.5,190.4,72.4,190.4,72.4z"
				/>
		</g>
		<g>
			<path class="st3" d="M195.6,74.5c0,0,0.3,0.1,0.6,0.3c0.3,0.2,0.7,0.5,1,1c0.1,0.2,0.3,0.5,0.3,0.7c0.1,0.3,0.1,0.5,0,0.7
				c-0.1,0.4-0.3,0.6-0.3,0.6s-0.1-0.3-0.3-0.6c-0.2-0.3-0.4-0.6-0.6-1c-0.2-0.4-0.5-0.8-0.6-1.1C195.6,74.8,195.6,74.5,195.6,74.5z
				"/>
		</g>
		<g>
			<path class="st3" d="M193.3,77.8c0,0-0.2-0.3-0.4-0.8c-0.2-0.5-0.3-1.1-0.5-1.7c-0.1-0.6-0.3-1.2-0.5-1.6
				c-0.1-0.2-0.2-0.4-0.3-0.5c-0.1-0.1-0.1-0.2-0.1-0.2s0.1,0,0.2,0.1c0.2,0,0.4,0.1,0.6,0.3c0.2,0.2,0.5,0.4,0.6,0.7
				c0.2,0.3,0.3,0.7,0.4,1c0.2,0.7,0.1,1.4,0.1,1.9C193.4,77.5,193.3,77.8,193.3,77.8z"/>
		</g>
		<path class="st3" d="M185.9,71.5c0,0,10.3,0.7,17,5.6"/>
	</g>
	<g>
		<path class="st1" d="M198.9,89.3c1.2-4,6.6-5.9,12.2-4.3c5.5,1.6,9,6.2,7.9,10.2"/>
		<path class="st1" d="M218.9,95.2c-1.9,3.9-7.1,6.1-12.8,4.2c-5.7-1.9-8.3-7.3-7.1-11.3"/>
		
			<ellipse transform="matrix(0.2841 -0.9588 0.9588 0.2841 62.443 265.8836)" class="st2" cx="209.3" cy="91.1" rx="7.3" ry="10.7"/>
		<g>
			<path class="st3" d="M211.7,91.3c0,0,0.3-0.3,0.7-0.5c0.5-0.3,1.1-0.5,1.6-0.8c0.6-0.3,1.1-0.5,1.5-0.8c0.2-0.1,0.4-0.3,0.5-0.4
				c0.1-0.1,0.2-0.2,0.2-0.2s0,0.1,0,0.3c0,0.2-0.1,0.4-0.2,0.6c-0.1,0.3-0.3,0.5-0.6,0.8c-0.3,0.2-0.6,0.4-0.9,0.6
				c-0.7,0.3-1.4,0.4-1.9,0.4C212,91.4,211.7,91.3,211.7,91.3z"/>
		</g>
		<g>
			<path class="st3" d="M205.2,89.1c0,0,0.2-0.2,0.5-0.4c0.3-0.2,0.7-0.4,1.1-0.6c0.4-0.2,0.8-0.3,1.1-0.5c0.3-0.2,0.5-0.3,0.5-0.3
				s0.1,0.3-0.1,0.7c-0.1,0.2-0.2,0.4-0.4,0.6c-0.2,0.2-0.4,0.3-0.7,0.5c-0.5,0.2-1,0.3-1.4,0.3C205.5,89.2,205.2,89.1,205.2,89.1z"
				/>
		</g>
		<g>
			<path class="st3" d="M210.4,91.1c0,0,0.3,0.1,0.6,0.3c0.3,0.2,0.7,0.5,1,1c0.1,0.2,0.3,0.5,0.3,0.7c0.1,0.3,0.1,0.5,0,0.7
				c-0.1,0.4-0.3,0.6-0.3,0.6s-0.1-0.3-0.3-0.6c-0.2-0.3-0.4-0.6-0.6-1c-0.2-0.4-0.5-0.8-0.6-1.1C210.5,91.4,210.4,91.1,210.4,91.1z
				"/>
		</g>
		<g>
			<path class="st3" d="M208.1,94.5c0,0-0.2-0.3-0.4-0.8c-0.2-0.5-0.3-1.1-0.5-1.7c-0.1-0.6-0.3-1.2-0.5-1.6
				c-0.1-0.2-0.2-0.4-0.3-0.5c-0.1-0.1-0.1-0.2-0.1-0.2s0.1,0,0.2,0.1c0.2,0,0.4,0.1,0.6,0.3c0.2,0.2,0.5,0.4,0.6,0.7
				c0.2,0.3,0.3,0.7,0.4,1c0.2,0.7,0.1,1.4,0.1,1.9C208.3,94.1,208.1,94.5,208.1,94.5z"/>
		</g>
		<path class="st3" d="M200.7,88.2c0,0,10.3,0.7,17,5.6"/>
	</g>
	<g>
		<path class="st1" d="M162.2,83.3c-0.8-4.1,3.1-8.3,8.7-9.5c5.7-1.1,10.9,1.3,11.7,5.4"/>
		<path class="st1" d="M182.7,79.2c0.1,4.4-3.4,8.7-9.4,9.7c-6,1-10.7-2.6-11.6-6.7"/>
		
			<ellipse transform="matrix(0.9805 -0.1967 0.1967 0.9805 -12.3855 35.4324)" class="st2" cx="172.2" cy="80.1" rx="10.7" ry="7.3"/>
		<g>
			<path class="st3" d="M174.4,79.1c0,0,0.1-0.4,0.4-0.8c0.3-0.4,0.7-1,1.1-1.5c0.4-0.5,0.7-1,0.9-1.4c0.1-0.2,0.2-0.4,0.2-0.6
				c0.1-0.1,0.1-0.2,0.1-0.2s0,0.1,0.1,0.2c0.1,0.1,0.1,0.4,0.1,0.7c0,0.3,0,0.6-0.1,1c-0.1,0.3-0.3,0.7-0.5,1c-0.4,0.6-1,1-1.5,1.3
				C174.8,79,174.4,79.1,174.4,79.1z"/>
		</g>
		<g>
			<path class="st3" d="M167.7,80.2c0,0,0.1-0.3,0.2-0.6c0.2-0.3,0.5-0.7,0.7-1.1c0.3-0.3,0.5-0.7,0.7-1c0.2-0.3,0.3-0.6,0.3-0.6
				s0.2,0.2,0.3,0.7c0,0.2,0,0.5-0.1,0.7c-0.1,0.3-0.2,0.5-0.4,0.7c-0.3,0.4-0.8,0.7-1.1,0.9C167.9,80.1,167.7,80.2,167.7,80.2z"/>
		</g>
		<g>
			<path class="st3" d="M173.2,79.5c0,0,0.3-0.1,0.7-0.1c0.4,0,0.9,0.1,1.4,0.4c0.2,0.1,0.5,0.3,0.6,0.5c0.2,0.2,0.3,0.4,0.4,0.6
				c0.1,0.4,0,0.7,0,0.7s-0.2-0.2-0.5-0.4c-0.3-0.2-0.6-0.4-1-0.6c-0.4-0.2-0.8-0.5-1.1-0.7C173.4,79.8,173.2,79.5,173.2,79.5z"/>
		</g>
		<g>
			<path class="st3" d="M172.8,83.6c0,0-0.3-0.2-0.7-0.6c-0.4-0.4-0.8-0.9-1.2-1.3c-0.4-0.5-0.8-0.9-1.2-1.2
				c-0.2-0.1-0.4-0.3-0.5-0.3c-0.1-0.1-0.2-0.1-0.2-0.1s0.1,0,0.2-0.1c0.2,0,0.4,0,0.7,0c0.3,0,0.6,0.2,0.9,0.3
				c0.3,0.2,0.6,0.4,0.8,0.7c0.5,0.6,0.8,1.2,1,1.7C172.7,83.2,172.8,83.6,172.8,83.6z"/>
		</g>
		<path class="st3" d="M163.3,81.5c0,0,9.4-4.2,17.6-3"/>
	</g>
	<g>
		<path class="st1" d="M180.6,94.9c-1.2-4,2.2-8.6,7.8-10.3s11,0.2,12.2,4.2"/>
		<path class="st1" d="M200.5,88.7c0.6,4.3-2.5,9-8.4,10.6c-5.8,1.6-11-1.5-12.2-5.5"/>
		
			<ellipse transform="matrix(0.9557 -0.2943 0.2943 0.9557 -18.2607 59.9871)" class="st2" cx="190.2" cy="90.7" rx="10.7" ry="7.3"/>
		<g>
			<path class="st3" d="M192.3,89.5c0,0,0.1-0.4,0.3-0.8c0.2-0.5,0.6-1,0.9-1.6c0.3-0.5,0.6-1,0.8-1.5c0.1-0.2,0.1-0.4,0.2-0.6
				c0-0.1,0.1-0.2,0.1-0.2s0.1,0.1,0.1,0.2c0.1,0.1,0.2,0.4,0.2,0.6c0.1,0.3,0,0.6-0.1,1c-0.1,0.3-0.2,0.7-0.4,1
				c-0.4,0.6-0.9,1.1-1.3,1.4C192.7,89.4,192.3,89.5,192.3,89.5z"/>
		</g>
		<g>
			<path class="st3" d="M185.7,91.2c0,0,0-0.3,0.2-0.6c0.1-0.4,0.4-0.8,0.6-1.1c0.2-0.4,0.4-0.7,0.6-1c0.1-0.3,0.3-0.6,0.3-0.6
				s0.2,0.2,0.3,0.6c0.1,0.2,0,0.5,0,0.7c0,0.3-0.2,0.5-0.3,0.8c-0.3,0.5-0.7,0.8-1,1C186,91.1,185.7,91.2,185.7,91.2z"/>
		</g>
		<g>
			<path class="st3" d="M191.2,90c0,0,0.3-0.1,0.7-0.1c0.4,0,0.9,0,1.4,0.2c0.2,0.1,0.5,0.3,0.7,0.4c0.2,0.2,0.3,0.4,0.4,0.6
				c0.2,0.4,0.1,0.7,0.1,0.7s-0.3-0.2-0.5-0.3c-0.3-0.2-0.7-0.3-1.1-0.5c-0.4-0.2-0.8-0.4-1.2-0.6C191.4,90.3,191.2,90,191.2,90z"/>
		</g>
		<g>
			<path class="st3" d="M191.1,94.1c0,0-0.3-0.2-0.7-0.5c-0.4-0.3-0.9-0.8-1.3-1.2c-0.5-0.4-0.9-0.8-1.3-1c-0.2-0.1-0.4-0.2-0.5-0.3
				C187,91,187,91,187,91s0.1,0,0.2-0.1c0.2-0.1,0.4-0.1,0.7-0.1c0.3,0,0.6,0.1,0.9,0.2c0.3,0.1,0.6,0.4,0.9,0.6
				c0.5,0.5,0.9,1.1,1.1,1.6C191.1,93.7,191.1,94.1,191.1,94.1z"/>
		</g>
		<path class="st3" d="M181.5,93c0,0,8.9-5.1,17.2-4.7"/>
	</g>
	<g>
		<path class="st1" d="M162,93.2c1.2-4,6.6-5.9,12.2-4.3c5.5,1.6,9,6.2,7.9,10.2"/>
		<path class="st1" d="M182,99.2c-1.9,3.9-7.1,6.1-12.8,4.2c-5.7-1.9-8.3-7.3-7.1-11.3"/>
		
			<ellipse transform="matrix(0.2841 -0.9588 0.9588 0.2841 32.2097 233.2792)" class="st2" cx="172.3" cy="95.1" rx="7.3" ry="10.7"/>
		<g>
			<path class="st3" d="M174.7,95.3c0,0,0.3-0.3,0.7-0.5c0.5-0.3,1.1-0.5,1.6-0.8c0.6-0.3,1.1-0.5,1.5-0.8c0.2-0.1,0.4-0.3,0.5-0.4
				c0.1-0.1,0.2-0.2,0.2-0.2s0,0.1,0,0.3c0,0.2-0.1,0.4-0.2,0.6c-0.1,0.3-0.3,0.5-0.6,0.8c-0.3,0.2-0.6,0.4-0.9,0.6
				c-0.7,0.3-1.4,0.4-1.9,0.4C175.1,95.3,174.7,95.3,174.7,95.3z"/>
		</g>
		<g>
			<path class="st3" d="M168.3,93c0,0,0.2-0.2,0.5-0.4c0.3-0.2,0.7-0.4,1.1-0.6c0.4-0.2,0.8-0.3,1.1-0.5c0.3-0.2,0.5-0.3,0.5-0.3
				s0.1,0.3-0.1,0.7c-0.1,0.2-0.2,0.4-0.4,0.6c-0.2,0.2-0.4,0.3-0.7,0.5c-0.5,0.2-1,0.3-1.4,0.3C168.5,93.1,168.3,93,168.3,93z"/>
		</g>
		<g>
			<path class="st3" d="M173.5,95.1c0,0,0.3,0.1,0.6,0.3c0.3,0.2,0.7,0.5,1,1c0.1,0.2,0.3,0.5,0.3,0.7c0.1,0.3,0.1,0.5,0,0.7
				c-0.1,0.4-0.3,0.6-0.3,0.6s-0.1-0.3-0.3-0.6c-0.2-0.3-0.4-0.6-0.6-1c-0.2-0.4-0.5-0.8-0.6-1.1C173.5,95.4,173.5,95.1,173.5,95.1z
				"/>
		</g>
		<g>
			<path class="st3" d="M171.2,98.4c0,0-0.2-0.3-0.4-0.8c-0.2-0.5-0.3-1.1-0.5-1.7c-0.1-0.6-0.3-1.2-0.5-1.6
				c-0.1-0.2-0.2-0.4-0.3-0.5c-0.1-0.1-0.1-0.2-0.1-0.2s0.1,0,0.2,0.1c0.2,0,0.4,0.1,0.6,0.3c0.2,0.2,0.5,0.4,0.6,0.7
				c0.2,0.3,0.3,0.7,0.4,1c0.2,0.7,0.1,1.4,0.1,1.9C171.3,98.1,171.2,98.4,171.2,98.4z"/>
		</g>
		<path class="st3" d="M163.8,92.1c0,0,10.3,0.7,17,5.6"/>
	</g>
	<g>
		<path class="st1" d="M189.3,103.3c1.2-4,6.6-5.9,12.2-4.3c5.5,1.6,9,6.2,7.9,10.2"/>
		<path class="st1" d="M209.4,109.3c-1.9,3.9-7.1,6.1-12.8,4.2c-5.7-1.9-8.3-7.3-7.1-11.3"/>
		
			<ellipse transform="matrix(0.2841 -0.9588 0.9588 0.2841 42.1005 266.7468)" class="st2" cx="199.7" cy="105.2" rx="7.3" ry="10.7"/>
		<g>
			<path class="st3" d="M202.1,105.4c0,0,0.3-0.3,0.7-0.5c0.5-0.3,1.1-0.5,1.6-0.8c0.6-0.3,1.1-0.5,1.5-0.8c0.2-0.1,0.4-0.3,0.5-0.4
				c0.1-0.1,0.2-0.2,0.2-0.2s0,0.1,0,0.3c0,0.2-0.1,0.4-0.2,0.6c-0.1,0.3-0.3,0.5-0.6,0.8c-0.3,0.2-0.6,0.4-0.9,0.6
				c-0.7,0.3-1.4,0.4-1.9,0.4C202.4,105.5,202.1,105.4,202.1,105.4z"/>
		</g>
		<g>
			<path class="st3" d="M195.6,103.1c0,0,0.2-0.2,0.5-0.4c0.3-0.2,0.7-0.4,1.1-0.6c0.4-0.2,0.8-0.3,1.1-0.5c0.3-0.2,0.5-0.3,0.5-0.3
				s0.1,0.3-0.1,0.7c-0.1,0.2-0.2,0.4-0.4,0.6c-0.2,0.2-0.4,0.3-0.7,0.5c-0.5,0.2-1,0.3-1.4,0.3
				C195.9,103.2,195.6,103.1,195.6,103.1z"/>
		</g>
		<g>
			<path class="st3" d="M200.8,105.2c0,0,0.3,0.1,0.6,0.3c0.3,0.2,0.7,0.5,1,1c0.1,0.2,0.3,0.5,0.3,0.7c0.1,0.3,0.1,0.5,0,0.7
				c-0.1,0.4-0.3,0.6-0.3,0.6s-0.1-0.3-0.3-0.6c-0.2-0.3-0.4-0.6-0.6-1c-0.2-0.4-0.5-0.8-0.6-1.1
				C200.9,105.5,200.8,105.2,200.8,105.2z"/>
		</g>
		<g>
			<path class="st3" d="M198.6,108.5c0,0-0.2-0.3-0.4-0.8c-0.2-0.5-0.3-1.1-0.5-1.7c-0.1-0.6-0.3-1.2-0.5-1.6
				c-0.1-0.2-0.2-0.4-0.3-0.5c-0.1-0.1-0.1-0.2-0.1-0.2s0.1,0,0.2,0.1c0.2,0,0.4,0.1,0.6,0.3c0.2,0.2,0.5,0.4,0.6,0.7
				c0.2,0.3,0.3,0.7,0.4,1c0.2,0.7,0.1,1.4,0.1,1.9C198.7,108.2,198.6,108.5,198.6,108.5z"/>
		</g>
		<path class="st3" d="M191.1,102.3c0,0,10.3,0.7,17,5.6"/>
	</g>
	<g>
		<path class="st1" d="M211.2,102.6c2.8-3.1,8.6-2.4,12.8,1.5c4.3,3.9,5.4,9.6,2.6,12.6"/>
		<path class="st1" d="M226.6,116.7c-3.5,2.7-9,2.4-13.3-1.9c-4.3-4.2-4.3-10.2-1.4-13.3"/>
		
			<ellipse transform="matrix(0.6757 -0.7372 0.7372 0.6757 -8.9655 197.2008)" class="st2" cx="219.7" cy="108.8" rx="7.3" ry="10.7"/>
		<g>
			<path class="st3" d="M221.7,110c0,0,0.4-0.1,0.9-0.1c0.5,0,1.2,0,1.8,0c0.6,0,1.2,0,1.7-0.1c0.2,0,0.4-0.1,0.6-0.1
				c0.1,0,0.2-0.1,0.2-0.1s0,0.1-0.1,0.2c-0.1,0.1-0.2,0.3-0.5,0.5c-0.2,0.2-0.5,0.3-0.9,0.4c-0.3,0.1-0.7,0.1-1.1,0.1
				c-0.7,0-1.4-0.2-1.9-0.4C222,110.2,221.7,110,221.7,110z"/>
		</g>
		<g>
			<path class="st3" d="M216.9,105.2c0,0,0.3-0.1,0.7-0.2c0.4-0.1,0.9-0.1,1.3-0.1c0.4,0,0.8,0,1.2,0c0.3,0,0.6-0.1,0.6-0.1
				s-0.1,0.3-0.4,0.6c-0.2,0.2-0.4,0.3-0.6,0.4c-0.3,0.1-0.5,0.1-0.8,0.1c-0.5,0-1-0.2-1.4-0.4C217.1,105.4,216.9,105.2,216.9,105.2
				z"/>
		</g>
		<g>
			<path class="st3" d="M220.7,109.3c0,0,0.2,0.2,0.4,0.5c0.2,0.3,0.4,0.8,0.5,1.3c0,0.3,0,0.6,0,0.8c-0.1,0.3-0.2,0.5-0.3,0.7
				c-0.3,0.4-0.5,0.4-0.5,0.4s0-0.3,0-0.6c0-0.3-0.1-0.7-0.1-1.2c-0.1-0.4-0.1-0.9-0.1-1.3C220.6,109.6,220.7,109.3,220.7,109.3z"/>
		</g>
		<g>
			<path class="st3" d="M217.2,111.3c0,0,0-0.4,0-0.9c0.1-0.5,0.2-1.2,0.3-1.8c0.1-0.6,0.2-1.2,0.2-1.7c0-0.2,0-0.5,0-0.6
				c0-0.2,0-0.3,0-0.3s0.1,0.1,0.2,0.2c0.1,0.1,0.3,0.3,0.4,0.5c0.1,0.2,0.2,0.6,0.3,0.9c0,0.4,0,0.7-0.1,1.1
				c-0.2,0.7-0.5,1.3-0.8,1.8C217.5,111.1,217.2,111.3,217.2,111.3z"/>
		</g>
		<path class="st3" d="M213.3,102.4c0,0,8.9,5.1,12.8,12.5"/>
	</g>
	<g>
		<path class="st1" d="M200.4,126.5c-1.9-3.7,0.6-8.9,5.7-11.6s10.8-1.9,12.8,1.8"/>
		<path class="st1" d="M218.9,116.7c1.4,4.2-0.8,9.3-6.2,11.9c-5.4,2.6-11,0.6-13-3.1"/>
		
			<ellipse transform="matrix(0.8843 -0.4669 0.4669 0.8843 -32.109 111.5721)" class="st2" cx="209.1" cy="120.6" rx="10.7" ry="7.3"/>
		<g>
			<path class="st3" d="M210.9,119.1c0,0,0-0.4,0.2-0.9c0.1-0.5,0.4-1.1,0.6-1.7c0.2-0.6,0.4-1.1,0.5-1.6c0-0.2,0.1-0.4,0.1-0.6
				c0-0.2,0-0.3,0-0.3s0.1,0.1,0.2,0.2c0.1,0.1,0.2,0.3,0.3,0.6c0.1,0.3,0.1,0.6,0.1,1c0,0.4-0.1,0.7-0.2,1.1
				c-0.3,0.7-0.7,1.3-1,1.6C211.3,118.8,210.9,119.1,210.9,119.1z"/>
		</g>
		<g>
			<path class="st3" d="M204.8,122c0,0,0-0.3,0.1-0.7c0.1-0.4,0.2-0.8,0.4-1.2c0.2-0.4,0.3-0.8,0.4-1.1c0.1-0.3,0.1-0.6,0.1-0.6
				s0.3,0.2,0.4,0.6c0.1,0.2,0.1,0.5,0.1,0.7c0,0.3-0.1,0.5-0.2,0.8c-0.2,0.5-0.5,0.9-0.8,1.2C205,121.8,204.8,122,204.8,122z"/>
		</g>
		<g>
			<path class="st3" d="M209.9,119.8c0,0,0.3-0.2,0.6-0.2c0.4-0.1,0.9-0.2,1.4,0c0.3,0.1,0.5,0.2,0.8,0.3c0.2,0.1,0.4,0.3,0.5,0.5
				c0.2,0.4,0.2,0.7,0.2,0.7s-0.3-0.1-0.6-0.2c-0.3-0.1-0.7-0.2-1.1-0.3c-0.4-0.1-0.9-0.2-1.2-0.4
				C210.1,120,209.9,119.8,209.9,119.8z"/>
		</g>
		<g>
			<path class="st3" d="M210.6,123.8c0,0-0.4-0.1-0.8-0.3c-0.5-0.2-1-0.6-1.5-0.9c-0.5-0.3-1-0.6-1.5-0.8c-0.2-0.1-0.4-0.1-0.6-0.2
				c-0.1,0-0.2-0.1-0.2-0.1s0.1-0.1,0.2-0.1c0.1-0.1,0.4-0.2,0.6-0.2c0.3,0,0.6,0,1,0.1c0.3,0.1,0.7,0.2,1,0.4
				c0.6,0.4,1.1,0.9,1.4,1.3C210.5,123.4,210.6,123.8,210.6,123.8z"/>
		</g>
		<path class="st3" d="M200.9,124.5c0,0,7.8-6.7,16-7.8"/>
	</g>
	<g>
		<path class="st1" d="M181.5,118.7c1.2-4,6.6-5.9,12.2-4.3c5.5,1.6,9,6.2,7.9,10.2"/>
		<path class="st1" d="M201.5,124.7c-1.9,3.9-7.1,6.1-12.8,4.2c-5.7-1.9-8.3-7.3-7.1-11.3"/>
		
			<ellipse transform="matrix(0.2841 -0.9588 0.9588 0.2841 21.7309 270.2226)" class="st2" cx="191.8" cy="120.6" rx="7.3" ry="10.7"/>
		<g>
			<path class="st3" d="M194.2,120.8c0,0,0.3-0.3,0.7-0.5c0.5-0.3,1.1-0.5,1.6-0.8c0.6-0.3,1.1-0.5,1.5-0.8c0.2-0.1,0.4-0.3,0.5-0.4
				c0.1-0.1,0.2-0.2,0.2-0.2s0,0.1,0,0.3c0,0.2-0.1,0.4-0.2,0.6c-0.1,0.3-0.3,0.5-0.6,0.8c-0.3,0.2-0.6,0.4-0.9,0.6
				c-0.7,0.3-1.4,0.4-1.9,0.4C194.6,120.8,194.2,120.8,194.2,120.8z"/>
		</g>
		<g>
			<path class="st3" d="M187.8,118.5c0,0,0.2-0.2,0.5-0.4c0.3-0.2,0.7-0.4,1.1-0.6c0.4-0.2,0.8-0.3,1.1-0.5c0.3-0.2,0.5-0.3,0.5-0.3
				s0.1,0.3-0.1,0.7c-0.1,0.2-0.2,0.4-0.4,0.6c-0.2,0.2-0.4,0.3-0.7,0.5c-0.5,0.2-1,0.3-1.4,0.3C188,118.6,187.8,118.5,187.8,118.5z
				"/>
		</g>
		<g>
			<path class="st3" d="M193,120.6c0,0,0.3,0.1,0.6,0.3c0.3,0.2,0.7,0.5,1,1c0.1,0.2,0.3,0.5,0.3,0.7c0.1,0.3,0.1,0.5,0,0.7
				c-0.1,0.4-0.3,0.6-0.3,0.6s-0.1-0.3-0.3-0.6c-0.2-0.3-0.4-0.6-0.6-1c-0.2-0.4-0.5-0.8-0.6-1.1C193,120.8,193,120.6,193,120.6z"/>
		</g>
		<g>
			<path class="st3" d="M190.7,123.9c0,0-0.2-0.3-0.4-0.8c-0.2-0.5-0.3-1.1-0.5-1.7c-0.1-0.6-0.3-1.2-0.5-1.6
				c-0.1-0.2-0.2-0.4-0.3-0.5c-0.1-0.1-0.1-0.2-0.1-0.2s0.1,0,0.2,0.1c0.2,0,0.4,0.1,0.6,0.3c0.2,0.2,0.5,0.4,0.6,0.7
				c0.2,0.3,0.3,0.7,0.4,1c0.2,0.7,0.1,1.4,0.1,1.9C190.8,123.6,190.7,123.9,190.7,123.9z"/>
		</g>
		<path class="st3" d="M183.3,117.6c0,0,10.3,0.7,17,5.6"/>
	</g>
	<g>
		<path class="st1" d="M176.6,100.7c3.7-2,8.9,0.5,11.6,5.5s2,10.8-1.6,12.8"/>
		<path class="st1" d="M186.7,119c-4.1,1.4-9.3-0.7-12-6.1c-2.7-5.4-0.7-11,2.9-13"/>
		
			<ellipse transform="matrix(0.8769 -0.4806 0.4806 0.8769 -30.0391 101.2334)" class="st2" cx="182.7" cy="109.3" rx="7.3" ry="10.7"/>
		<g>
			<path class="st3" d="M184.2,111.1c0,0,0.4,0,0.9,0.2c0.5,0.1,1.1,0.4,1.7,0.6c0.6,0.2,1.1,0.4,1.6,0.4c0.2,0,0.4,0.1,0.6,0.1
				c0.2,0,0.3,0,0.3,0s-0.1,0.1-0.2,0.2c-0.1,0.1-0.3,0.2-0.6,0.3c-0.3,0.1-0.6,0.1-1,0.1c-0.4,0-0.7-0.1-1.1-0.2
				c-0.7-0.3-1.3-0.7-1.6-1C184.4,111.4,184.2,111.1,184.2,111.1z"/>
		</g>
		<g>
			<path class="st3" d="M181.2,105c0,0,0.3,0,0.7,0c0.4,0.1,0.8,0.2,1.2,0.4c0.4,0.1,0.8,0.3,1.1,0.4c0.3,0.1,0.6,0.1,0.6,0.1
				s-0.2,0.3-0.6,0.4c-0.2,0.1-0.4,0.1-0.7,0.1c-0.3,0-0.5-0.1-0.8-0.1c-0.5-0.2-0.9-0.5-1.2-0.8C181.4,105.2,181.2,105,181.2,105z"
				/>
		</g>
		<g>
			<path class="st3" d="M183.5,110.1c0,0,0.2,0.3,0.3,0.6c0.1,0.4,0.2,0.9,0.1,1.4c-0.1,0.3-0.2,0.5-0.3,0.8
				c-0.1,0.2-0.3,0.4-0.5,0.5c-0.4,0.3-0.7,0.2-0.7,0.2s0.1-0.3,0.2-0.6c0.1-0.3,0.2-0.7,0.3-1.1c0.1-0.4,0.2-0.9,0.3-1.2
				C183.3,110.3,183.5,110.1,183.5,110.1z"/>
		</g>
		<g>
			<path class="st3" d="M179.5,110.9c0,0,0.1-0.4,0.3-0.8c0.2-0.5,0.6-1,0.9-1.6c0.3-0.5,0.6-1.1,0.7-1.5c0.1-0.2,0.1-0.4,0.2-0.6
				c0-0.1,0.1-0.2,0.1-0.2s0.1,0.1,0.1,0.2c0.1,0.1,0.2,0.4,0.2,0.6c0.1,0.3,0,0.6,0,1c-0.1,0.3-0.2,0.7-0.4,1
				c-0.4,0.6-0.9,1.1-1.3,1.4C179.8,110.7,179.5,110.9,179.5,110.9z"/>
		</g>
		<path class="st3" d="M178.7,101.2c0,0,6.8,7.7,8.1,15.9"/>
	</g>
	<g>
		<path class="st1" d="M153,110.7c-0.7-4.1,3.3-8.3,9-9.2c5.7-1,10.9,1.5,11.6,5.7"/>
		<path class="st1" d="M173.6,107.1c0,4.4-3.7,8.6-9.6,9.4c-6,0.8-10.7-2.9-11.4-7"/>
		
			<ellipse transform="matrix(0.9852 -0.1714 0.1714 0.9852 -16.0554 29.5549)" class="st2" cx="163.1" cy="107.7" rx="10.7" ry="7.3"/>
		<g>
			<path class="st3" d="M165.3,106.9c0,0,0.1-0.4,0.4-0.8c0.3-0.4,0.7-0.9,1.1-1.4c0.4-0.5,0.7-1,0.9-1.4c0.1-0.2,0.2-0.4,0.2-0.5
				c0.1-0.1,0.1-0.2,0.1-0.2s0,0.1,0.1,0.2c0.1,0.2,0.1,0.4,0.1,0.7c0,0.3-0.1,0.6-0.2,1c-0.1,0.3-0.3,0.7-0.5,0.9
				c-0.5,0.6-1,1-1.5,1.2C165.7,106.8,165.3,106.9,165.3,106.9z"/>
		</g>
		<g>
			<path class="st3" d="M158.5,107.7c0,0,0.1-0.3,0.3-0.6c0.2-0.3,0.5-0.7,0.7-1.1c0.3-0.3,0.5-0.6,0.7-0.9c0.2-0.3,0.3-0.5,0.3-0.5
				s0.2,0.2,0.2,0.7c0,0.2,0,0.5-0.1,0.7c-0.1,0.3-0.2,0.5-0.4,0.7c-0.3,0.4-0.8,0.7-1.1,0.9C158.8,107.7,158.5,107.7,158.5,107.7z"
				/>
		</g>
		<g>
			<path class="st3" d="M164.1,107.2c0,0,0.3-0.1,0.7,0c0.4,0,0.9,0.1,1.4,0.4c0.2,0.1,0.5,0.3,0.6,0.5c0.2,0.2,0.3,0.4,0.3,0.6
				c0.1,0.4,0,0.7,0,0.7s-0.2-0.2-0.5-0.4c-0.3-0.2-0.6-0.4-1-0.6c-0.4-0.2-0.8-0.5-1.1-0.7C164.3,107.5,164.1,107.2,164.1,107.2z"
				/>
		</g>
		<g>
			<path class="st3" d="M163.6,111.2c0,0-0.3-0.2-0.7-0.6c-0.4-0.4-0.8-0.9-1.2-1.4c-0.4-0.5-0.8-0.9-1.2-1.2
				c-0.2-0.1-0.4-0.3-0.5-0.3c-0.1-0.1-0.2-0.1-0.2-0.1s0.1,0,0.2-0.1c0.2,0,0.4,0,0.7,0c0.3,0,0.6,0.2,0.9,0.4
				c0.3,0.2,0.6,0.4,0.8,0.7c0.5,0.6,0.8,1.2,0.9,1.7C163.5,110.9,163.6,111.2,163.6,111.2z"/>
		</g>
		<path class="st3" d="M154.1,108.9c0,0,9.5-4,17.7-2.5"/>
	</g>
	<g>
		<path class="st1" d="M139.4,89.8c1.2-4,6.6-5.9,12.2-4.3c5.5,1.6,9,6.2,7.9,10.2"/>
		<path class="st1" d="M159.4,95.7c-1.9,3.9-7.1,6.1-12.8,4.2c-5.7-1.9-8.3-7.3-7.1-11.3"/>
		
			<ellipse transform="matrix(0.2841 -0.9588 0.9588 0.2841 19.3435 209.1336)" class="st2" cx="149.7" cy="91.6" rx="7.3" ry="10.7"/>
		<g>
			<path class="st3" d="M152.1,91.8c0,0,0.3-0.3,0.7-0.5c0.5-0.3,1.1-0.5,1.6-0.8c0.6-0.3,1.1-0.5,1.5-0.8c0.2-0.1,0.4-0.3,0.5-0.4
				c0.1-0.1,0.2-0.2,0.2-0.2s0,0.1,0,0.3c0,0.2-0.1,0.4-0.2,0.6c-0.1,0.3-0.3,0.5-0.6,0.8c-0.3,0.2-0.6,0.4-0.9,0.6
				c-0.7,0.3-1.4,0.4-1.9,0.4C152.5,91.9,152.1,91.8,152.1,91.8z"/>
		</g>
		<g>
			<path class="st3" d="M145.7,89.6c0,0,0.2-0.2,0.5-0.4c0.3-0.2,0.7-0.4,1.1-0.6c0.4-0.2,0.8-0.3,1.1-0.5c0.3-0.2,0.5-0.3,0.5-0.3
				s0.1,0.3-0.1,0.7c-0.1,0.2-0.2,0.4-0.4,0.6c-0.2,0.2-0.4,0.3-0.7,0.5c-0.5,0.2-1,0.3-1.4,0.3C145.9,89.7,145.7,89.6,145.7,89.6z"
				/>
		</g>
		<g>
			<path class="st3" d="M150.9,91.6c0,0,0.3,0.1,0.6,0.3c0.3,0.2,0.7,0.5,1,1c0.1,0.2,0.3,0.5,0.3,0.7c0.1,0.3,0.1,0.5,0,0.7
				c-0.1,0.4-0.3,0.6-0.3,0.6s-0.1-0.3-0.3-0.6c-0.2-0.3-0.4-0.6-0.6-1c-0.2-0.4-0.5-0.8-0.6-1.1C150.9,91.9,150.9,91.6,150.9,91.6z
				"/>
		</g>
		<g>
			<path class="st3" d="M148.6,95c0,0-0.2-0.3-0.4-0.8c-0.2-0.5-0.3-1.1-0.5-1.7c-0.1-0.6-0.3-1.2-0.5-1.6c-0.1-0.2-0.2-0.4-0.3-0.5
				c-0.1-0.1-0.1-0.2-0.1-0.2s0.1,0,0.2,0.1c0.2,0,0.4,0.1,0.6,0.3c0.2,0.2,0.5,0.4,0.6,0.7c0.2,0.3,0.3,0.7,0.4,1
				c0.2,0.7,0.1,1.4,0.1,1.9C148.7,94.6,148.6,95,148.6,95z"/>
		</g>
		<path class="st3" d="M141.2,88.7c0,0,10.3,0.7,17,5.6"/>
	</g>
	<g>
		<path class="st1" d="M77.5,179c-4.2-0.2-7.3-5.1-7-10.8c0.3-5.8,3.9-10.3,8.1-10"/>
		<path class="st1" d="M78.5,158.1c4.3,0.9,7.6,5.5,7.1,11.5c-0.5,6-5.1,9.8-9.3,9.6"/>
		
			<ellipse transform="matrix(5.070763e-02 -0.9987 0.9987 5.070763e-02 -95.3563 236.7045)" class="st2" cx="76.8" cy="168.5" rx="10.7" ry="7.3"/>
		<g>
			<path class="st3" d="M76.5,166.1c0,0-0.3-0.2-0.7-0.6c-0.4-0.4-0.8-0.9-1.1-1.4c-0.4-0.5-0.8-0.9-1.2-1.2
				c-0.2-0.1-0.4-0.3-0.5-0.4c-0.1-0.1-0.2-0.1-0.2-0.1s0.1,0,0.2,0c0.2,0,0.4,0,0.7,0c0.3,0,0.6,0.2,0.9,0.4
				c0.3,0.2,0.6,0.5,0.8,0.7c0.5,0.6,0.7,1.2,0.9,1.7C76.5,165.8,76.5,166.1,76.5,166.1z"/>
		</g>
		<g>
			<path class="st3" d="M75.8,172.9c0,0-0.3-0.1-0.5-0.4c-0.3-0.3-0.6-0.6-0.9-1c-0.3-0.3-0.5-0.7-0.8-0.9c-0.2-0.2-0.5-0.4-0.5-0.4
				s0.3-0.1,0.7-0.1c0.2,0,0.5,0.1,0.7,0.3c0.2,0.1,0.4,0.3,0.6,0.5c0.3,0.4,0.5,0.9,0.6,1.3C75.8,172.6,75.8,172.9,75.8,172.9z"/>
		</g>
		<g>
			<path class="st3" d="M76.6,167.4c0,0,0-0.3,0.1-0.7c0.1-0.4,0.3-0.8,0.7-1.2c0.2-0.2,0.4-0.4,0.7-0.5c0.2-0.1,0.5-0.2,0.7-0.2
				c0.4,0,0.7,0.1,0.7,0.1s-0.2,0.2-0.5,0.4c-0.3,0.2-0.5,0.5-0.8,0.8c-0.3,0.3-0.6,0.6-0.9,0.9C76.8,167.3,76.6,167.4,76.6,167.4z"
				/>
		</g>
		<g>
			<path class="st3" d="M80.4,168.8c0,0-0.3,0.3-0.7,0.5c-0.4,0.3-1,0.6-1.6,0.9c-0.6,0.3-1.1,0.6-1.4,0.9c-0.2,0.2-0.3,0.3-0.4,0.4
				c-0.1,0.1-0.2,0.2-0.2,0.2s0-0.1,0-0.3c0-0.2,0-0.4,0.2-0.7c0.1-0.3,0.3-0.5,0.5-0.8c0.2-0.3,0.6-0.5,0.9-0.6
				c0.7-0.3,1.3-0.5,1.9-0.5C80,168.8,80.4,168.8,80.4,168.8z"/>
		</g>
		<path class="st3" d="M76,177.5c0,0-1.8-10.1,1.5-17.8"/>
	</g>
	<g>
		<path class="st1" d="M87.1,151.7c-4.2-0.2-7.3-5.1-7-10.8c0.3-5.8,3.9-10.3,8.1-10"/>
		<path class="st1" d="M88.1,130.9c4.3,0.9,7.6,5.5,7.1,11.5c-0.5,6-5.1,9.8-9.3,9.6"/>
		
			<ellipse transform="matrix(5.070763e-02 -0.9987 0.9987 5.070763e-02 -59.0092 220.366)" class="st2" cx="86.4" cy="141.2" rx="10.7" ry="7.3"/>
		<g>
			<path class="st3" d="M86.1,138.9c0,0-0.3-0.2-0.7-0.6c-0.4-0.4-0.8-0.9-1.1-1.4c-0.4-0.5-0.8-0.9-1.2-1.2
				c-0.2-0.1-0.4-0.3-0.5-0.4c-0.1-0.1-0.2-0.1-0.2-0.1s0.1,0,0.2,0c0.2,0,0.4,0,0.7,0c0.3,0,0.6,0.2,0.9,0.4
				c0.3,0.2,0.6,0.5,0.8,0.7c0.5,0.6,0.7,1.2,0.9,1.7C86,138.5,86.1,138.9,86.1,138.9z"/>
		</g>
		<g>
			<path class="st3" d="M85.4,145.6c0,0-0.3-0.1-0.5-0.4c-0.3-0.3-0.6-0.6-0.9-1c-0.3-0.3-0.5-0.7-0.8-0.9c-0.2-0.2-0.5-0.4-0.5-0.4
				s0.3-0.1,0.7-0.1c0.2,0,0.5,0.1,0.7,0.3c0.2,0.1,0.4,0.3,0.6,0.5c0.3,0.4,0.5,0.9,0.6,1.3C85.4,145.4,85.4,145.6,85.4,145.6z"/>
		</g>
		<g>
			<path class="st3" d="M86.1,140.1c0,0,0-0.3,0.1-0.7c0.1-0.4,0.3-0.8,0.7-1.2c0.2-0.2,0.4-0.4,0.7-0.5c0.2-0.1,0.5-0.2,0.7-0.2
				c0.4,0,0.7,0.1,0.7,0.1s-0.2,0.2-0.5,0.4c-0.3,0.2-0.5,0.5-0.8,0.8c-0.3,0.3-0.6,0.6-0.9,0.9C86.4,140,86.1,140.1,86.1,140.1z"/>
		</g>
		<g>
			<path class="st3" d="M90,141.5c0,0-0.3,0.3-0.7,0.5c-0.4,0.3-1,0.6-1.6,0.9c-0.6,0.3-1.1,0.6-1.4,0.9c-0.2,0.2-0.3,0.3-0.4,0.4
				c-0.1,0.1-0.2,0.2-0.2,0.2s0-0.1,0-0.3c0-0.2,0-0.4,0.2-0.7c0.1-0.3,0.3-0.5,0.5-0.8c0.2-0.3,0.6-0.5,0.9-0.6
				c0.7-0.3,1.3-0.5,1.9-0.5C89.6,141.5,90,141.5,90,141.5z"/>
		</g>
		<path class="st3" d="M85.6,150.2c0,0-1.8-10.1,1.5-17.8"/>
	</g>
	<g>
		<path class="st1" d="M91.2,196.3c-3.8,1.8-8.8-1-11.3-6.3c-2.4-5.2-1.3-10.9,2.5-12.7"/>
		<path class="st1" d="M82.4,177.4c4.2-1.2,9.3,1.3,11.6,6.8c2.4,5.6,0,11.1-3.8,12.8"/>
		
			<ellipse transform="matrix(0.9067 -0.4217 0.4217 0.9067 -71.0117 53.6357)" class="st2" cx="85.8" cy="187.4" rx="7.3" ry="10.7"/>
		<g>
			<path class="st3" d="M84.3,185.4c0,0-0.4,0-0.9-0.2c-0.5-0.2-1.1-0.4-1.7-0.7c-0.6-0.3-1.1-0.5-1.6-0.5c-0.2,0-0.4-0.1-0.6-0.1
				c-0.2,0-0.2,0-0.2,0s0.1-0.1,0.2-0.2c0.1-0.1,0.3-0.2,0.6-0.3c0.3-0.1,0.6-0.1,1-0.1c0.4,0,0.7,0.1,1.1,0.3
				c0.7,0.3,1.2,0.7,1.6,1.1C84.1,185.1,84.3,185.4,84.3,185.4z"/>
		</g>
		<g>
			<path class="st3" d="M86.9,191.8c0,0-0.3,0-0.7-0.1c-0.4-0.1-0.8-0.3-1.2-0.4c-0.4-0.2-0.8-0.3-1.1-0.4c-0.3-0.1-0.6-0.2-0.6-0.2
				s0.2-0.3,0.6-0.4c0.2-0.1,0.5-0.1,0.7-0.1c0.3,0,0.5,0.1,0.8,0.2c0.5,0.2,0.9,0.6,1.1,0.9C86.8,191.5,86.9,191.8,86.9,191.8z"/>
		</g>
		<g>
			<path class="st3" d="M85,186.5c0,0-0.1-0.3-0.2-0.6c-0.1-0.4-0.1-0.9,0-1.4c0.1-0.3,0.2-0.5,0.3-0.7c0.2-0.2,0.3-0.4,0.5-0.5
				c0.4-0.2,0.7-0.2,0.7-0.2s-0.1,0.3-0.3,0.6c-0.1,0.3-0.2,0.7-0.3,1.1c-0.1,0.4-0.3,0.9-0.4,1.2C85.2,186.3,85,186.5,85,186.5z"/>
		</g>
		<g>
			<path class="st3" d="M89,186c0,0-0.1,0.4-0.4,0.8c-0.3,0.5-0.6,1-1,1.5c-0.4,0.5-0.7,1-0.8,1.5c-0.1,0.2-0.2,0.4-0.2,0.6
				c0,0.1-0.1,0.2-0.1,0.2s0-0.1-0.1-0.2c-0.1-0.1-0.1-0.4-0.2-0.7c0-0.3,0-0.6,0.1-1c0.1-0.3,0.3-0.7,0.5-1c0.4-0.6,1-1,1.4-1.3
				C88.7,186.1,89,186,89,186z"/>
		</g>
		<path class="st3" d="M89.2,195.7c0,0-6.3-8.1-7-16.4"/>
	</g>
	<g>
		<path class="st1" d="M96.8,168.2c-3.6,2.1-8.9-0.2-11.8-5.1c-2.9-5-2.4-10.7,1.2-12.8"/>
		<path class="st1" d="M86.1,150.3c4.1-1.6,9.3,0.4,12.2,5.6c2.9,5.3,1.1,11-2.5,13.1"/>
		
			<ellipse transform="matrix(0.8597 -0.5107 0.5107 0.8597 -68.9562 68.6191)" class="st2" cx="90.5" cy="159.9" rx="7.3" ry="10.7"/>
		<g>
			<path class="st3" d="M88.8,158.1c0,0-0.4,0-0.9-0.1c-0.5-0.1-1.1-0.3-1.7-0.5c-0.6-0.2-1.2-0.3-1.6-0.4c-0.2,0-0.4,0-0.6,0
				c-0.2,0-0.3,0-0.3,0s0.1-0.1,0.2-0.2c0.1-0.1,0.3-0.2,0.6-0.3c0.3-0.1,0.6-0.2,1-0.2c0.4,0,0.7,0.1,1.1,0.2
				c0.7,0.2,1.3,0.6,1.7,1C88.6,157.8,88.8,158.1,88.8,158.1z"/>
		</g>
		<g>
			<path class="st3" d="M92,164.1c0,0-0.3,0-0.7,0c-0.4-0.1-0.8-0.2-1.3-0.3c-0.4-0.1-0.8-0.3-1.1-0.3c-0.3-0.1-0.6-0.1-0.6-0.1
				s0.1-0.3,0.5-0.5c0.2-0.1,0.4-0.2,0.7-0.2c0.3,0,0.5,0,0.8,0.1c0.5,0.2,0.9,0.5,1.2,0.8C91.9,163.8,92,164.1,92,164.1z"/>
		</g>
		<g>
			<path class="st3" d="M89.6,159.1c0,0-0.2-0.2-0.3-0.6c-0.1-0.4-0.2-0.9-0.1-1.4c0.1-0.3,0.1-0.5,0.3-0.8c0.1-0.2,0.3-0.4,0.5-0.6
				c0.3-0.3,0.7-0.3,0.7-0.3s-0.1,0.3-0.2,0.6c-0.1,0.3-0.2,0.7-0.2,1.2c-0.1,0.4-0.2,0.9-0.3,1.3C89.8,158.8,89.6,159.1,89.6,159.1
				z"/>
		</g>
		<g>
			<path class="st3" d="M93.6,158.1c0,0-0.1,0.4-0.3,0.8c-0.2,0.5-0.5,1-0.8,1.6c-0.3,0.5-0.6,1.1-0.7,1.5c-0.1,0.2-0.1,0.4-0.2,0.6
				c0,0.2-0.1,0.2-0.1,0.2s-0.1-0.1-0.1-0.2c-0.1-0.1-0.2-0.4-0.2-0.6c-0.1-0.3-0.1-0.6,0-1c0.1-0.4,0.2-0.7,0.4-1
				c0.4-0.6,0.9-1.1,1.3-1.5C93.2,158.3,93.6,158.1,93.6,158.1z"/>
		</g>
		<path class="st3" d="M94.7,167.8c0,0-7.1-7.5-8.6-15.6"/>
	</g>
	<g>
		<path class="st1" d="M99.6,186.7c-4.2-0.2-7.3-5.1-7-10.8c0.3-5.8,3.9-10.3,8.1-10"/>
		<path class="st1" d="M100.6,165.8c4.3,0.9,7.6,5.5,7.1,11.5c-0.5,6-5.1,9.8-9.3,9.6"/>
		
			<ellipse transform="matrix(5.070763e-02 -0.9987 0.9987 5.070763e-02 -82.0658 266.083)" class="st2" cx="98.9" cy="176.2" rx="10.7" ry="7.3"/>
		<g>
			<path class="st3" d="M98.6,173.8c0,0-0.3-0.2-0.7-0.6c-0.4-0.4-0.8-0.9-1.1-1.4c-0.4-0.5-0.8-0.9-1.2-1.2
				c-0.2-0.1-0.4-0.3-0.5-0.4c-0.1-0.1-0.2-0.1-0.2-0.1s0.1,0,0.2,0c0.2,0,0.4,0,0.7,0c0.3,0,0.6,0.2,0.9,0.4
				c0.3,0.2,0.6,0.5,0.8,0.7c0.5,0.6,0.7,1.2,0.9,1.7C98.6,173.5,98.6,173.8,98.6,173.8z"/>
		</g>
		<g>
			<path class="st3" d="M97.9,180.6c0,0-0.3-0.1-0.5-0.4c-0.3-0.3-0.6-0.6-0.9-1c-0.3-0.3-0.5-0.7-0.8-0.9c-0.2-0.2-0.5-0.4-0.5-0.4
				s0.3-0.1,0.7-0.1c0.2,0,0.5,0.1,0.7,0.3c0.2,0.1,0.4,0.3,0.6,0.5c0.3,0.4,0.5,0.9,0.6,1.3C97.9,180.3,97.9,180.6,97.9,180.6z"/>
		</g>
		<g>
			<path class="st3" d="M98.7,175.1c0,0,0-0.3,0.1-0.7c0.1-0.4,0.3-0.8,0.7-1.2c0.2-0.2,0.4-0.4,0.7-0.5c0.2-0.1,0.5-0.2,0.7-0.2
				c0.4,0,0.7,0.1,0.7,0.1s-0.2,0.2-0.5,0.4c-0.3,0.2-0.5,0.5-0.8,0.8c-0.3,0.3-0.6,0.6-0.9,0.9C98.9,175,98.7,175.1,98.7,175.1z"/>
		</g>
		<g>
			<path class="st3" d="M102.5,176.5c0,0-0.3,0.3-0.7,0.5c-0.4,0.3-1,0.6-1.6,0.9c-0.6,0.3-1.1,0.6-1.4,0.9
				c-0.2,0.2-0.3,0.3-0.4,0.4c-0.1,0.1-0.2,0.2-0.2,0.2s0-0.1,0-0.3c0-0.2,0-0.4,0.2-0.7c0.1-0.3,0.3-0.5,0.5-0.8
				c0.2-0.3,0.6-0.5,0.9-0.6c0.7-0.3,1.3-0.5,1.9-0.5C102.1,176.5,102.5,176.5,102.5,176.5z"/>
		</g>
		<path class="st3" d="M98.1,185.2c0,0-1.8-10.1,1.5-17.8"/>
	</g>
	<g>
		<path class="st1" d="M103,157.7c-4.2-0.2-7.3-5.1-7-10.8c0.3-5.8,3.9-10.3,8.1-10"/>
		<path class="st1" d="M104,136.9c4.3,0.9,7.6,5.5,7.1,11.5c-0.5,6-5.1,9.8-9.3,9.6"/>
		
			<ellipse transform="matrix(5.070763e-02 -0.9987 0.9987 5.070763e-02 -49.9132 241.9756)" class="st2" cx="102.3" cy="147.2" rx="10.7" ry="7.3"/>
		<g>
			<path class="st3" d="M102,144.9c0,0-0.3-0.2-0.7-0.6c-0.4-0.4-0.8-0.9-1.1-1.4c-0.4-0.5-0.8-0.9-1.2-1.2
				c-0.2-0.1-0.4-0.3-0.5-0.4c-0.1-0.1-0.2-0.1-0.2-0.1s0.1,0,0.2,0c0.2,0,0.4,0,0.7,0c0.3,0,0.6,0.2,0.9,0.4
				c0.3,0.2,0.6,0.5,0.8,0.7c0.5,0.6,0.7,1.2,0.9,1.7C101.9,144.5,102,144.9,102,144.9z"/>
		</g>
		<g>
			<path class="st3" d="M101.3,151.7c0,0-0.3-0.1-0.5-0.4c-0.3-0.3-0.6-0.6-0.9-1c-0.3-0.3-0.5-0.7-0.8-0.9
				c-0.2-0.2-0.5-0.4-0.5-0.4s0.3-0.1,0.7-0.1c0.2,0,0.5,0.1,0.7,0.3c0.2,0.1,0.4,0.3,0.6,0.5c0.3,0.4,0.5,0.9,0.6,1.3
				C101.3,151.4,101.3,151.7,101.3,151.7z"/>
		</g>
		<g>
			<path class="st3" d="M102.1,146.1c0,0,0-0.3,0.1-0.7c0.1-0.4,0.3-0.8,0.7-1.2c0.2-0.2,0.4-0.4,0.7-0.5c0.2-0.1,0.5-0.2,0.7-0.2
				c0.4,0,0.7,0.1,0.7,0.1s-0.2,0.2-0.5,0.4c-0.3,0.2-0.5,0.5-0.8,0.8c-0.3,0.3-0.6,0.6-0.9,0.9C102.3,146,102.1,146.1,102.1,146.1z
				"/>
		</g>
		<g>
			<path class="st3" d="M105.9,147.5c0,0-0.3,0.3-0.7,0.5c-0.4,0.3-1,0.6-1.6,0.9c-0.6,0.3-1.1,0.6-1.4,0.9
				c-0.2,0.2-0.3,0.3-0.4,0.4c-0.1,0.1-0.2,0.2-0.2,0.2s0-0.1,0-0.3c0-0.2,0-0.4,0.2-0.7c0.1-0.3,0.3-0.5,0.5-0.8
				c0.2-0.3,0.6-0.5,0.9-0.6c0.7-0.3,1.3-0.5,1.9-0.5C105.5,147.5,105.9,147.5,105.9,147.5z"/>
		</g>
		<path class="st3" d="M101.5,156.2c0,0-1.8-10.1,1.5-17.8"/>
	</g>
	<g>
		<path class="st1" d="M97.1,136.7c-3.7-2-4.4-7.7-1.6-12.8c2.8-5,8-7.5,11.7-5.5"/>
		<path class="st1" d="M107.2,118.4c3.4,2.7,4.4,8.2,1.3,13.4c-3.1,5.2-8.9,6.5-12.6,4.5"/>
		
			<ellipse transform="matrix(0.4835 -0.8754 0.8754 0.4835 -58.9041 154.1199)" class="st2" cx="101.1" cy="127" rx="10.7" ry="7.3"/>
		<g>
			<path class="st3" d="M101.9,124.7c0,0-0.2-0.3-0.3-0.8c-0.2-0.5-0.3-1.1-0.4-1.7c-0.1-0.6-0.3-1.2-0.5-1.6
				c-0.1-0.2-0.2-0.4-0.3-0.5c-0.1-0.1-0.1-0.2-0.1-0.2s0.1,0,0.2,0.1c0.2,0,0.4,0.1,0.6,0.3c0.2,0.2,0.4,0.4,0.6,0.7
				c0.2,0.3,0.3,0.7,0.4,1c0.2,0.7,0.1,1.4,0,1.9C102,124.3,101.9,124.7,101.9,124.7z"/>
		</g>
		<g>
			<path class="st3" d="M98.3,130.5c0,0-0.2-0.2-0.3-0.6c-0.1-0.4-0.3-0.8-0.4-1.2c-0.1-0.4-0.2-0.8-0.3-1.1
				c-0.1-0.3-0.2-0.6-0.2-0.6s0.3,0,0.7,0.2c0.2,0.1,0.4,0.3,0.5,0.5c0.1,0.2,0.2,0.5,0.3,0.8c0.1,0.5,0.1,1.1,0,1.4
				C98.4,130.2,98.3,130.5,98.3,130.5z"/>
		</g>
		<g>
			<path class="st3" d="M101.4,125.8c0,0,0.1-0.3,0.4-0.6c0.3-0.3,0.7-0.6,1.2-0.8c0.3-0.1,0.5-0.2,0.8-0.2c0.3,0,0.5,0,0.7,0.1
				c0.4,0.2,0.6,0.4,0.6,0.4s-0.3,0.1-0.6,0.1c-0.3,0.1-0.7,0.2-1.1,0.4c-0.4,0.2-0.9,0.3-1.2,0.4
				C101.7,125.9,101.4,125.8,101.4,125.8z"/>
		</g>
		<g>
			<path class="st3" d="M104.2,128.8c0,0-0.4,0.1-0.9,0.2c-0.5,0.1-1.2,0.1-1.8,0.1c-0.6,0-1.2,0.1-1.7,0.2
				c-0.2,0.1-0.4,0.1-0.6,0.2c-0.1,0-0.2,0.1-0.2,0.1s0-0.1,0.1-0.2c0.1-0.1,0.2-0.3,0.4-0.5c0.2-0.2,0.5-0.4,0.8-0.5
				c0.3-0.1,0.7-0.2,1.1-0.2c0.7,0,1.4,0.2,1.9,0.4C103.9,128.6,104.2,128.8,104.2,128.8z"/>
		</g>
		<path class="st3" d="M96.4,134.7c0,0,2.9-9.9,9.1-15.4"/>
	</g>
	<g>
		<path class="st1" d="M121.9,147.1c-3.1,2.8-8.8,1.5-12.6-2.8s-4.4-10.1-1.2-12.8"/>
		<path class="st1" d="M108.1,131.5c3.7-2.3,9.2-1.4,13.1,3.3c3.8,4.7,3.2,10.6,0,13.4"/>
		
			<ellipse transform="matrix(0.7498 -0.6617 0.6617 0.7498 -64.1443 110.582)" class="st2" cx="114.1" cy="140.1" rx="7.3" ry="10.7"/>
		<g>
			<path class="st3" d="M112.2,138.7c0,0-0.4,0.1-0.9,0c-0.5,0-1.2-0.1-1.8-0.2c-0.6-0.1-1.2-0.1-1.7-0.1c-0.2,0-0.4,0-0.6,0.1
				c-0.2,0-0.2,0-0.2,0s0-0.1,0.1-0.2c0.1-0.1,0.3-0.3,0.5-0.4c0.2-0.2,0.6-0.3,0.9-0.4c0.3-0.1,0.7-0.1,1.1,0
				c0.7,0.1,1.4,0.4,1.8,0.6C111.9,138.4,112.2,138.7,112.2,138.7z"/>
		</g>
		<g>
			<path class="st3" d="M116.5,144c0,0-0.3,0.1-0.7,0.1c-0.4,0-0.9,0-1.3-0.1c-0.4-0.1-0.8-0.1-1.2-0.1c-0.3,0-0.6,0-0.6,0
				s0.1-0.3,0.4-0.5c0.2-0.1,0.4-0.2,0.7-0.3c0.3-0.1,0.5-0.1,0.8,0c0.5,0.1,1,0.3,1.3,0.5C116.3,143.8,116.5,144,116.5,144z"/>
		</g>
		<g>
			<path class="st3" d="M113.2,139.5c0,0-0.2-0.2-0.4-0.6c-0.2-0.3-0.4-0.8-0.4-1.4c0-0.3,0-0.6,0.1-0.8c0.1-0.3,0.2-0.5,0.4-0.6
				c0.3-0.3,0.6-0.4,0.6-0.4s0,0.3-0.1,0.6c0,0.3,0,0.7,0,1.2c0,0.4,0,0.9-0.1,1.3C113.3,139.2,113.2,139.5,113.2,139.5z"/>
		</g>
		<g>
			<path class="st3" d="M116.9,137.8c0,0,0,0.4-0.1,0.9c-0.1,0.5-0.3,1.1-0.5,1.7c-0.2,0.6-0.3,1.2-0.4,1.6c0,0.2,0,0.4,0,0.6
				c0,0.2,0,0.3,0,0.3s-0.1-0.1-0.2-0.2c-0.1-0.1-0.2-0.3-0.3-0.6c-0.1-0.3-0.2-0.6-0.2-1c0-0.4,0.1-0.7,0.2-1.1
				c0.2-0.7,0.6-1.3,1-1.7C116.6,138.1,116.9,137.8,116.9,137.8z"/>
		</g>
		<path class="st3" d="M119.8,147.1c0,0-8.3-6-11.4-13.7"/>
	</g>
	<g>
		<path class="st1" d="M123.8,172.2c-4.2-0.2-7.3-5.1-7-10.8s3.9-10.3,8.1-10"/>
		<path class="st1" d="M124.9,151.3c4.3,0.9,7.6,5.5,7.1,11.5c-0.5,6-5.1,9.8-9.3,9.6"/>
		
			<ellipse transform="matrix(5.070763e-02 -0.9987 0.9987 5.070763e-02 -44.577 276.4796)" class="st2" cx="123.1" cy="161.7" rx="10.7" ry="7.3"/>
		<g>
			<path class="st3" d="M122.8,159.3c0,0-0.3-0.2-0.7-0.6c-0.4-0.4-0.8-0.9-1.1-1.4c-0.4-0.5-0.8-0.9-1.2-1.2
				c-0.2-0.1-0.4-0.3-0.5-0.4c-0.1-0.1-0.2-0.1-0.2-0.1s0.1,0,0.2,0c0.2,0,0.4,0,0.7,0c0.3,0,0.6,0.2,0.9,0.4
				c0.3,0.2,0.6,0.5,0.8,0.7c0.5,0.6,0.7,1.2,0.9,1.7C122.8,158.9,122.8,159.3,122.8,159.3z"/>
		</g>
		<g>
			<path class="st3" d="M122.1,166.1c0,0-0.3-0.1-0.5-0.4c-0.3-0.3-0.6-0.6-0.9-1c-0.3-0.3-0.5-0.7-0.8-0.9
				c-0.2-0.2-0.5-0.4-0.5-0.4s0.3-0.1,0.7-0.1c0.2,0,0.5,0.1,0.7,0.3c0.2,0.1,0.4,0.3,0.6,0.5c0.3,0.4,0.5,0.9,0.6,1.3
				C122.1,165.8,122.1,166.1,122.1,166.1z"/>
		</g>
		<g>
			<path class="st3" d="M122.9,160.6c0,0,0-0.3,0.1-0.7c0.1-0.4,0.3-0.8,0.7-1.2c0.2-0.2,0.4-0.4,0.7-0.5c0.2-0.1,0.5-0.2,0.7-0.2
				c0.4,0,0.7,0.1,0.7,0.1s-0.2,0.2-0.5,0.4c-0.3,0.2-0.5,0.5-0.8,0.8c-0.3,0.3-0.6,0.6-0.9,0.9
				C123.1,160.5,122.9,160.6,122.9,160.6z"/>
		</g>
		<g>
			<path class="st3" d="M126.7,162c0,0-0.3,0.3-0.7,0.5c-0.4,0.3-1,0.6-1.6,0.9c-0.6,0.3-1.1,0.6-1.4,0.9c-0.2,0.2-0.3,0.3-0.4,0.4
				c-0.1,0.1-0.2,0.2-0.2,0.2s0-0.1,0-0.3c0-0.2,0-0.4,0.2-0.7c0.1-0.3,0.3-0.5,0.5-0.8c0.2-0.3,0.6-0.5,0.9-0.6
				c0.7-0.3,1.3-0.5,1.9-0.5C126.3,161.9,126.7,162,126.7,162z"/>
		</g>
		<path class="st3" d="M122.3,170.7c0,0-1.8-10.1,1.5-17.8"/>
	</g>
	<g>
		<path class="st1" d="M103.4,170.7c-2.8-3.1-1.6-8.7,2.6-12.6c4.3-3.9,10-4.5,12.8-1.4"/>
		<path class="st1" d="M118.8,156.7c2.4,3.7,1.5,9.2-3.1,13.1c-4.6,3.9-10.5,3.3-13.4,0.2"/>
		
			<ellipse transform="matrix(0.7394 -0.6733 0.6733 0.7394 -80.8715 116.7046)" class="st2" cx="110.3" cy="162.8" rx="10.7" ry="7.3"/>
		<g>
			<path class="st3" d="M111.7,160.9c0,0-0.1-0.4-0.1-0.9c0-0.5,0.1-1.2,0.2-1.8c0.1-0.6,0.1-1.2,0-1.7c0-0.2-0.1-0.4-0.1-0.6
				c0-0.2,0-0.2,0-0.2s0.1,0,0.2,0.1c0.1,0.1,0.3,0.3,0.5,0.5c0.2,0.2,0.3,0.5,0.4,0.9c0.1,0.3,0.1,0.7,0,1.1
				c-0.1,0.7-0.3,1.4-0.6,1.8C112,160.6,111.7,160.9,111.7,160.9z"/>
		</g>
		<g>
			<path class="st3" d="M106.5,165.2c0,0-0.1-0.3-0.1-0.7c0-0.4,0-0.9,0.1-1.3c0-0.4,0.1-0.8,0.1-1.2c0-0.3,0-0.6,0-0.6
				s0.3,0.1,0.6,0.4c0.1,0.2,0.2,0.4,0.3,0.7c0.1,0.3,0.1,0.5,0.1,0.8c-0.1,0.5-0.3,1-0.5,1.3C106.7,165,106.5,165.2,106.5,165.2z"
				/>
		</g>
		<g>
			<path class="st3" d="M110.9,161.8c0,0,0.2-0.2,0.5-0.4c0.3-0.2,0.8-0.4,1.4-0.4c0.3,0,0.6,0,0.8,0.1c0.3,0.1,0.5,0.2,0.6,0.4
				c0.3,0.3,0.4,0.6,0.4,0.6s-0.3,0-0.6-0.1c-0.3,0-0.7,0-1.2,0c-0.4,0-0.9,0-1.3,0C111.2,161.9,110.9,161.8,110.9,161.8z"/>
		</g>
		<g>
			<path class="st3" d="M112.6,165.5c0,0-0.4,0-0.9-0.1c-0.5-0.1-1.1-0.3-1.7-0.5c-0.6-0.2-1.2-0.3-1.6-0.4c-0.2,0-0.4,0-0.6,0
				c-0.2,0-0.3,0-0.3,0s0.1-0.1,0.2-0.2c0.1-0.1,0.3-0.2,0.6-0.3c0.3-0.1,0.6-0.2,0.9-0.2c0.4,0,0.7,0.1,1.1,0.2
				c0.7,0.2,1.3,0.6,1.7,0.9C112.4,165.2,112.6,165.5,112.6,165.5z"/>
		</g>
		<path class="st3" d="M103.4,168.6c0,0,5.9-8.4,13.6-11.6"/>
	</g>
	<g>
		<path class="st1" d="M118.7,191.3c-3.8,1.7-8.8-1.3-11.1-6.6c-2.3-5.3-1.1-10.9,2.8-12.6"/>
		<path class="st1" d="M110.3,172.2c4.3-1.1,9.2,1.5,11.4,7.1c2.2,5.6-0.3,11-4.1,12.7"/>
		
			<ellipse transform="matrix(0.9173 -0.3983 0.3983 0.9173 -63.1862 60.2442)" class="st2" cx="113.4" cy="182.2" rx="7.3" ry="10.7"/>
		<g>
			<path class="st3" d="M112,180.2c0,0-0.4-0.1-0.9-0.2c-0.5-0.2-1.1-0.5-1.6-0.7c-0.6-0.3-1.1-0.5-1.6-0.6
				c-0.2-0.1-0.4-0.1-0.6-0.1c-0.2,0-0.2,0-0.2,0s0.1-0.1,0.2-0.2c0.1-0.1,0.3-0.2,0.6-0.3c0.3-0.1,0.6-0.1,1-0.1
				c0.4,0,0.7,0.2,1,0.3c0.7,0.3,1.2,0.8,1.5,1.2C111.9,179.9,112,180.2,112,180.2z"/>
		</g>
		<g>
			<path class="st3" d="M114.5,186.6c0,0-0.3,0-0.7-0.1c-0.4-0.1-0.8-0.3-1.2-0.5c-0.4-0.2-0.8-0.4-1.1-0.5
				c-0.3-0.1-0.6-0.2-0.6-0.2s0.2-0.2,0.6-0.4c0.2-0.1,0.5-0.1,0.7-0.1c0.3,0,0.5,0.1,0.8,0.2c0.5,0.2,0.9,0.6,1.1,0.9
				C114.3,186.4,114.5,186.6,114.5,186.6z"/>
		</g>
		<g>
			<path class="st3" d="M112.7,181.3c0,0-0.1-0.3-0.2-0.6c-0.1-0.4-0.1-0.9,0.1-1.4c0.1-0.3,0.2-0.5,0.4-0.7
				c0.2-0.2,0.4-0.4,0.5-0.5c0.4-0.2,0.7-0.2,0.7-0.2s-0.1,0.3-0.3,0.6c-0.1,0.3-0.2,0.7-0.4,1.1c-0.1,0.4-0.3,0.9-0.5,1.2
				C112.9,181.1,112.7,181.3,112.7,181.3z"/>
		</g>
		<g>
			<path class="st3" d="M116.7,180.9c0,0-0.1,0.4-0.4,0.8c-0.3,0.4-0.7,1-1,1.5c-0.4,0.5-0.7,1-0.9,1.4c-0.1,0.2-0.2,0.4-0.2,0.6
				c0,0.1-0.1,0.2-0.1,0.2s0-0.1-0.1-0.2c-0.1-0.1-0.1-0.4-0.1-0.7c0-0.3,0-0.6,0.1-1c0.1-0.3,0.3-0.7,0.5-1c0.4-0.6,1-1,1.4-1.3
				C116.4,181,116.7,180.9,116.7,180.9z"/>
		</g>
		<path class="st3" d="M116.7,190.6c0,0-6.1-8.3-6.6-16.6"/>
	</g>
	<g>
		<path class="st1" d="M101.5,209.5c-4.2-0.2-7.3-5.1-7-10.8c0.3-5.8,3.9-10.3,8.1-10"/>
		<path class="st1" d="M102.6,188.6c4.3,0.9,7.6,5.5,7.1,11.5c-0.5,6-5.1,9.8-9.3,9.6"/>
		
			<ellipse transform="matrix(5.070763e-02 -0.9987 0.9987 5.070763e-02 -102.9628 289.6606)" class="st2" cx="100.9" cy="199" rx="10.7" ry="7.3"/>
		<g>
			<path class="st3" d="M100.5,196.6c0,0-0.3-0.2-0.7-0.6c-0.4-0.4-0.8-0.9-1.1-1.4c-0.4-0.5-0.8-0.9-1.2-1.2
				c-0.2-0.1-0.4-0.3-0.5-0.4c-0.1-0.1-0.2-0.1-0.2-0.1s0.1,0,0.2,0c0.2,0,0.4,0,0.7,0c0.3,0,0.6,0.2,0.9,0.4
				c0.3,0.2,0.6,0.5,0.8,0.7c0.5,0.6,0.7,1.2,0.9,1.7C100.5,196.2,100.5,196.6,100.5,196.6z"/>
		</g>
		<g>
			<path class="st3" d="M99.9,203.4c0,0-0.3-0.1-0.5-0.4c-0.3-0.3-0.6-0.6-0.9-1c-0.3-0.3-0.5-0.7-0.8-0.9c-0.2-0.2-0.5-0.4-0.5-0.4
				s0.3-0.1,0.7-0.1c0.2,0,0.5,0.1,0.7,0.3c0.2,0.1,0.4,0.3,0.6,0.5c0.3,0.4,0.5,0.9,0.6,1.3C99.9,203.1,99.9,203.4,99.9,203.4z"/>
		</g>
		<g>
			<path class="st3" d="M100.6,197.9c0,0,0-0.3,0.1-0.7c0.1-0.4,0.3-0.8,0.7-1.2c0.2-0.2,0.4-0.4,0.7-0.5c0.2-0.1,0.5-0.2,0.7-0.2
				c0.4,0,0.7,0.1,0.7,0.1s-0.2,0.2-0.5,0.4c-0.3,0.2-0.5,0.5-0.8,0.8c-0.3,0.3-0.6,0.6-0.9,0.9
				C100.9,197.8,100.6,197.9,100.6,197.9z"/>
		</g>
		<g>
			<path class="st3" d="M104.4,199.3c0,0-0.3,0.3-0.7,0.5c-0.4,0.3-1,0.6-1.6,0.9c-0.6,0.3-1.1,0.6-1.4,0.9
				c-0.2,0.2-0.3,0.3-0.4,0.4c-0.1,0.1-0.2,0.2-0.2,0.2s0-0.1,0-0.3c0-0.2,0-0.4,0.2-0.7c0.1-0.3,0.3-0.5,0.5-0.8
				c0.2-0.3,0.6-0.5,0.9-0.6c0.7-0.3,1.3-0.5,1.9-0.5C104.1,199.2,104.4,199.3,104.4,199.3z"/>
		</g>
		<path class="st3" d="M100.1,208c0,0-1.8-10.1,1.5-17.8"/>
	</g>
	
		<ellipse transform="matrix(0.8494 -0.5278 0.5278 0.8494 -51.0264 99.4535)" class="st4" cx="148.7" cy="139.1" rx="17.5" ry="17.5"/>
	
		<ellipse transform="matrix(0.8494 -0.5278 0.5278 0.8494 -51.0595 99.49)" class="st5" cx="148.8" cy="139.2" rx="14.3" ry="14.3"/>
	<polygon class="st6" points="95,63.6 138.5,122.6 104.3,57.8 	"/>
	<polygon class="st7" points="118.9,227.2 141.3,157.2 108.8,223.1 	"/>
	<polygon class="st7" points="242.5,129.4 165.5,139.6 243.2,140.3 	"/>
	<g>
		<path class="st8" d="M106.6,57.5c0,0,0.7,0.9,1.8,2.6c1.1,1.7,2.7,4.1,4.5,7c0.9,1.5,1.9,3,2.8,4.7c1,1.7,2,3.5,3.1,5.3
			c2.1,3.7,4.3,7.7,6.4,11.8c1,2,2.1,4.1,3.1,6.1c1,2,2,4,2.9,5.9c0.9,1.9,1.8,3.8,2.6,5.6c0.8,1.8,1.6,3.5,2.2,5.1
			c1.4,3.1,2.4,5.8,3.1,7.7c0.7,1.9,1.1,3,1.1,3s-0.7-0.9-1.8-2.6c-1.1-1.7-2.7-4.1-4.5-7c-0.9-1.5-1.9-3-2.8-4.7
			c-1-1.7-2-3.5-3.1-5.3c-1-1.9-2.1-3.8-3.2-5.8c-1.1-2-2.1-4-3.2-6c-2.1-4-4.1-8.1-5.9-12c-0.9-1.9-1.8-3.8-2.6-5.6
			c-0.8-1.8-1.6-3.5-2.2-5.1c-1.4-3.1-2.4-5.8-3.1-7.7C107,58.6,106.6,57.5,106.6,57.5z"/>
	</g>
	<g>
		<path class="st8" d="M167.3,142.3c0,0,1.2-0.2,3.2-0.4c2-0.2,4.9-0.5,8.4-0.7c1.7-0.1,3.6-0.2,5.6-0.3c2-0.1,4.1-0.2,6.3-0.2
			c4.3-0.1,9-0.1,13.6-0.1c2.3,0,4.6,0.1,6.9,0.1c2.3,0.1,4.5,0.1,6.7,0.2c2.2,0.1,4.3,0.2,6.3,0.4c2,0.1,3.9,0.3,5.6,0.4
			c3.5,0.3,6.4,0.6,8.4,0.8c2,0.2,3.2,0.4,3.2,0.4s-1.2,0.2-3.2,0.4c-2,0.2-4.9,0.5-8.4,0.7c-1.7,0.1-3.6,0.2-5.6,0.3
			c-2,0.1-4.1,0.2-6.3,0.2c-2.2,0-4.4,0.1-6.7,0.1c-2.3,0-4.6,0-6.9,0c-4.6-0.1-9.3-0.2-13.6-0.4c-2.2-0.1-4.3-0.2-6.3-0.4
			c-2-0.1-3.9-0.3-5.6-0.4c-3.5-0.3-6.4-0.6-8.4-0.8C168.5,142.5,167.3,142.3,167.3,142.3z"/>
	</g>
	<g>
		<path class="st8" d="M144.1,158.8c0,0-0.2,1.1-0.6,3.1c-0.4,1.9-1,4.7-1.9,8c-0.4,1.6-0.9,3.4-1.4,5.3c-0.5,1.9-1.1,3.8-1.7,5.9
			c-1.2,4.1-2.5,8.4-4,12.6c-0.7,2.1-1.4,4.3-2.2,6.4c-0.7,2.1-1.5,4.1-2.2,6.1c-0.7,2-1.5,3.9-2.2,5.7c-0.7,1.8-1.4,3.5-2.1,5.1
			c-1.3,3.1-2.5,5.7-3.3,7.5c-0.8,1.8-1.4,2.8-1.4,2.8s0.2-1.1,0.6-3.1c0.4-1.9,1-4.7,1.9-8c0.4-1.6,0.9-3.4,1.4-5.3
			c0.5-1.9,1.1-3.8,1.7-5.9c0.6-2,1.2-4.1,1.9-6.2c0.7-2.1,1.4-4.3,2.1-6.4c1.4-4.3,2.9-8.5,4.4-12.5c0.7-2,1.5-3.9,2.2-5.7
			c0.7-1.8,1.4-3.5,2.1-5.1c1.3-3.1,2.5-5.7,3.3-7.5C143.6,159.8,144.1,158.8,144.1,158.8z"/>
	</g>
</g>
</svg>
