<?xml version="1.0" encoding="utf-8"?>
<!-- Generator: Adobe Illustrator 19.1.0, SVG Export Plug-In . SVG Version: 6.00 Build 0)  -->
<svg version="1.1" id="Layer_1" xmlns="http://www.w3.org/2000/svg" xmlns:xlink="http://www.w3.org/1999/xlink" x="0px" y="0px"
	 viewBox="0 0 300 250" style="enable-background:new 0 0 300 250;" xml:space="preserve">
<style type="text/css">
	.st0{fill:#3A261E;stroke:#7D4C30;stroke-width:5;stroke-miterlimit:10;}
	.st1{fill:#563819;}
	.st2{fill:#6D481D;}
	.st3{fill:#A56D3E;}
	.st4{fill:none;stroke:#7D4C30;stroke-width:6;stroke-miterlimit:10;}
	.st5{fill:none;stroke:#663D29;stroke-width:4;stroke-miterlimit:10;}
	.st6{fill:#7D4C30;stroke:#7D4C30;stroke-width:4;stroke-miterlimit:10;}
	.st7{fill:#7D4C30;stroke:#7D4C30;stroke-width:6;stroke-miterlimit:10;}
	.st8{fill:#663D29;}
	.st9{fill:#FFFFFF;}
</style>
<g>
	<circle class="st0" cx="150" cy="139" r="94.6"/>
	<g>
		<path class="st1" d="M169.7,174.8c-3.2-2.7-2.9-8.4,0.8-12.9c3.7-4.4,9.3-5.9,12.5-3.2"/>
		<path class="st1" d="M183,158.7c2.9,3.3,2.8,8.9-1.2,13.4c-4,4.5-10,4.8-13.2,2.1"/>
		<ellipse transform="matrix(0.771 0.6369 -0.6369 0.771 145.9342 -73.7059)" class="st2" cx="175.4" cy="166" rx="7.3" ry="10.7"/>
		<g>
			<path class="st3" d="M176.6,163.9c0,0-0.1-0.4-0.2-0.9c-0.1-0.5-0.1-1.2-0.1-1.8c0-0.6-0.1-1.2-0.2-1.7c-0.1-0.2-0.1-0.4-0.2-0.6
				c-0.1-0.1-0.1-0.2-0.1-0.2s0.1,0,0.2,0.1c0.1,0.1,0.3,0.2,0.5,0.4c0.2,0.2,0.4,0.5,0.5,0.8c0.1,0.3,0.2,0.7,0.2,1.1
				c0,0.7-0.1,1.4-0.3,1.9C176.8,163.6,176.6,163.9,176.6,163.9z"/>
		</g>
		<g>
			<path class="st3" d="M172,169c0,0-0.1-0.3-0.2-0.6c-0.1-0.4-0.1-0.9-0.1-1.3c0-0.4,0-0.8-0.1-1.2c0-0.3-0.1-0.6-0.1-0.6
				s0.3,0,0.6,0.4c0.2,0.1,0.3,0.4,0.4,0.6c0.1,0.2,0.1,0.5,0.2,0.8c0,0.5-0.1,1-0.3,1.4C172.2,168.8,172,169,172,169z"/>
		</g>
		<g>
			<path class="st3" d="M175.9,165c0,0,0.2-0.2,0.5-0.5c0.3-0.2,0.8-0.5,1.3-0.6c0.3,0,0.6-0.1,0.8,0c0.3,0.1,0.5,0.1,0.7,0.3
				c0.4,0.2,0.5,0.5,0.5,0.5s-0.3,0-0.6,0c-0.3,0-0.7,0.1-1.2,0.2c-0.4,0.1-0.9,0.1-1.3,0.1C176.2,165.1,175.9,165,175.9,165z"/>
		</g>
		<g>
			<path class="st3" d="M178.1,168.4c0,0-0.4,0.1-0.9,0c-0.5,0-1.2-0.2-1.8-0.3c-0.6-0.1-1.2-0.2-1.7-0.1c-0.2,0-0.4,0-0.6,0.1
				c-0.2,0-0.2,0-0.2,0s0-0.1,0.2-0.2c0.1-0.1,0.3-0.3,0.5-0.4c0.2-0.2,0.6-0.3,0.9-0.3c0.4-0.1,0.7,0,1.1,0
				c0.7,0.1,1.4,0.4,1.8,0.7C177.8,168.1,178.1,168.4,178.1,168.4z"/>
		</g>
		<path class="st3" d="M169.4,172.8c0,0,4.6-9.2,11.8-13.4"/>
	</g>
	<g>
		<path class="st1" d="M190.8,167.7c-3.2-2.7-2.9-8.4,0.8-12.9c3.7-4.4,9.3-5.9,12.5-3.2"/>
		<path class="st1" d="M204.1,151.6c2.9,3.3,2.8,8.9-1.2,13.4c-4,4.5-10,4.8-13.2,2.1"/>
		
			<ellipse transform="matrix(0.771 0.6369 -0.6369 0.771 146.2313 -88.8071)" class="st2" cx="196.6" cy="158.9" rx="7.3" ry="10.7"/>
		<g>
			<path class="st3" d="M197.7,156.8c0,0-0.1-0.4-0.2-0.9c-0.1-0.5-0.1-1.2-0.1-1.8c0-0.6-0.1-1.2-0.2-1.7c-0.1-0.2-0.1-0.4-0.2-0.6
				c-0.1-0.1-0.1-0.2-0.1-0.2s0.1,0,0.2,0.1c0.1,0.1,0.3,0.2,0.5,0.4c0.2,0.2,0.4,0.5,0.5,0.8c0.1,0.3,0.2,0.7,0.2,1.1
				c0,0.7-0.1,1.4-0.3,1.9C197.9,156.5,197.7,156.8,197.7,156.8z"/>
		</g>
		<g>
			<path class="st3" d="M193.1,161.8c0,0-0.1-0.3-0.2-0.6c-0.1-0.4-0.1-0.9-0.1-1.3c0-0.4,0-0.8-0.1-1.2c0-0.3-0.1-0.6-0.1-0.6
				s0.3,0,0.6,0.4c0.2,0.1,0.3,0.4,0.4,0.6c0.1,0.2,0.1,0.5,0.2,0.8c0,0.5-0.1,1-0.3,1.4C193.3,161.6,193.1,161.8,193.1,161.8z"/>
		</g>
		<g>
			<path class="st3" d="M197,157.8c0,0,0.2-0.2,0.5-0.5c0.3-0.2,0.8-0.5,1.3-0.6c0.3,0,0.6-0.1,0.8,0c0.3,0.1,0.5,0.1,0.7,0.3
				c0.4,0.2,0.5,0.5,0.5,0.5s-0.3,0-0.6,0c-0.3,0-0.7,0.1-1.2,0.2c-0.4,0.1-0.9,0.1-1.3,0.1C197.3,157.9,197,157.8,197,157.8z"/>
		</g>
		<g>
			<path class="st3" d="M199.2,161.3c0,0-0.4,0.1-0.9,0c-0.5,0-1.2-0.2-1.8-0.3c-0.6-0.1-1.2-0.2-1.7-0.1c-0.2,0-0.4,0-0.6,0.1
				c-0.2,0-0.2,0-0.2,0s0-0.1,0.2-0.2c0.1-0.1,0.3-0.3,0.5-0.4c0.2-0.2,0.6-0.3,0.9-0.3c0.4-0.1,0.7,0,1.1,0
				c0.7,0.1,1.4,0.4,1.8,0.7C199,161,199.2,161.3,199.2,161.3z"/>
		</g>
		<path class="st3" d="M190.5,165.6c0,0,4.6-9.2,11.8-13.4"/>
	</g>
	<g>
		<path class="st1" d="M170.9,199.2c-4.1-0.8-6.5-6.1-5.3-11.8c1.2-5.6,5.4-9.5,9.5-8.7"/>
		<path class="st1" d="M175.2,178.7c4.1,1.6,6.7,6.6,5.2,12.4c-1.4,5.9-6.6,8.9-10.7,8"/>
		
			<ellipse transform="matrix(0.9792 0.203 -0.203 0.9792 41.8776 -30.9629)" class="st2" cx="171.9" cy="188.7" rx="7.3" ry="10.7"/>
		<g>
			<path class="st3" d="M171.9,186.3c0,0-0.3-0.3-0.6-0.7c-0.3-0.4-0.6-1-0.9-1.5c-0.3-0.5-0.6-1-1-1.4c-0.2-0.2-0.3-0.3-0.4-0.4
				c-0.1-0.1-0.2-0.2-0.2-0.2s0.1,0,0.3,0c0.2,0,0.4,0,0.7,0.1c0.3,0.1,0.6,0.3,0.8,0.5c0.3,0.2,0.5,0.5,0.7,0.9
				c0.4,0.6,0.5,1.3,0.6,1.8C171.9,185.9,171.9,186.3,171.9,186.3z"/>
		</g>
		<g>
			<path class="st3" d="M170.2,192.9c0,0-0.2-0.2-0.5-0.5c-0.2-0.3-0.5-0.7-0.7-1.1c-0.2-0.4-0.4-0.7-0.6-1
				c-0.2-0.3-0.4-0.5-0.4-0.5s0.3-0.1,0.7,0c0.2,0.1,0.4,0.2,0.6,0.4c0.2,0.2,0.4,0.4,0.5,0.6c0.3,0.5,0.4,1,0.4,1.4
				C170.3,192.6,170.2,192.9,170.2,192.9z"/>
		</g>
		<g>
			<path class="st3" d="M171.8,187.5c0,0,0-0.3,0.2-0.6c0.2-0.4,0.4-0.8,0.9-1.1c0.2-0.2,0.5-0.3,0.7-0.4c0.3-0.1,0.5-0.1,0.7-0.1
				c0.4,0,0.7,0.2,0.7,0.2s-0.3,0.1-0.6,0.3c-0.3,0.2-0.6,0.4-0.9,0.7c-0.3,0.3-0.7,0.5-1.1,0.7
				C172.1,187.5,171.8,187.5,171.8,187.5z"/>
		</g>
		<g>
			<path class="st3" d="M175.3,189.5c0,0-0.3,0.2-0.8,0.4c-0.5,0.2-1.1,0.4-1.7,0.6c-0.6,0.2-1.1,0.4-1.5,0.7
				c-0.2,0.1-0.4,0.2-0.5,0.3c-0.1,0.1-0.2,0.1-0.2,0.1s0-0.1,0-0.3c0-0.2,0.1-0.4,0.3-0.6c0.1-0.2,0.4-0.5,0.7-0.7
				c0.3-0.2,0.6-0.4,1-0.5c0.7-0.2,1.4-0.3,1.9-0.2C175,189.4,175.3,189.5,175.3,189.5z"/>
		</g>
		<path class="st3" d="M169.7,197.5c0,0-0.2-10.3,4.2-17.4"/>
	</g>
	<g>
		<path class="st1" d="M188.8,186.8c-4.2-0.4-7-5.4-6.4-11.2c0.6-5.7,4.4-10,8.6-9.6"/>
		<path class="st1" d="M191,166c4.2,1.2,7.3,5.9,6.5,11.8c-0.8,6-5.7,9.5-9.8,9.1"/>
		
			<ellipse transform="matrix(0.9946 0.1035 -0.1035 0.9946 19.2558 -18.583)" class="st2" cx="188.7" cy="176.3" rx="7.3" ry="10.7"/>
		<g>
			<path class="st3" d="M188.5,173.9c0,0-0.3-0.2-0.6-0.6c-0.3-0.4-0.7-0.9-1.1-1.4c-0.4-0.5-0.7-1-1.1-1.3
				c-0.2-0.2-0.3-0.3-0.5-0.4c-0.1-0.1-0.2-0.2-0.2-0.2s0.1,0,0.3,0c0.2,0,0.4,0,0.7,0.1c0.3,0.1,0.6,0.2,0.9,0.4
				c0.3,0.2,0.5,0.5,0.8,0.8c0.4,0.6,0.7,1.3,0.8,1.8C188.5,173.5,188.5,173.9,188.5,173.9z"/>
		</g>
		<g>
			<path class="st3" d="M187.4,180.6c0,0-0.3-0.1-0.5-0.4c-0.3-0.3-0.6-0.6-0.8-1c-0.3-0.4-0.5-0.7-0.7-0.9
				c-0.2-0.3-0.4-0.5-0.4-0.5s0.3-0.1,0.7,0c0.2,0,0.5,0.1,0.7,0.3c0.2,0.1,0.4,0.4,0.6,0.6c0.3,0.4,0.5,0.9,0.5,1.3
				C187.5,180.3,187.4,180.6,187.4,180.6z"/>
		</g>
		<g>
			<path class="st3" d="M188.5,175.1c0,0,0-0.3,0.1-0.7c0.1-0.4,0.4-0.8,0.8-1.2c0.2-0.2,0.4-0.3,0.7-0.5c0.2-0.1,0.5-0.2,0.7-0.2
				c0.4,0,0.7,0.2,0.7,0.2s-0.2,0.2-0.5,0.4c-0.3,0.2-0.6,0.5-0.9,0.8c-0.3,0.3-0.7,0.6-1,0.8C188.8,175,188.5,175.1,188.5,175.1z"
				/>
		</g>
		<g>
			<path class="st3" d="M192.2,176.8c0,0-0.3,0.3-0.7,0.5c-0.5,0.3-1.1,0.5-1.6,0.8c-0.6,0.3-1.1,0.5-1.5,0.8
				c-0.2,0.1-0.4,0.3-0.5,0.4c-0.1,0.1-0.2,0.2-0.2,0.2s0-0.1,0-0.3c0-0.2,0.1-0.4,0.2-0.6c0.1-0.3,0.3-0.5,0.6-0.8
				c0.3-0.2,0.6-0.4,0.9-0.6c0.7-0.3,1.4-0.4,1.9-0.4C191.9,176.7,192.2,176.8,192.2,176.8z"/>
		</g>
		<path class="st3" d="M187.4,185.2c0,0-1.2-10.2,2.4-17.7"/>
	</g>
	<g>
		<path class="st1" d="M180,203.3c-3.2-2.7-2.9-8.4,0.8-12.9s9.3-5.9,12.5-3.2"/>
		<path class="st1" d="M193.3,187.2c2.9,3.3,2.8,8.9-1.2,13.4c-4,4.5-10,4.8-13.2,2.1"/>
		
			<ellipse transform="matrix(0.771 0.6369 -0.6369 0.771 166.3849 -73.7622)" class="st2" cx="185.7" cy="194.5" rx="7.3" ry="10.7"/>
		<g>
			<path class="st3" d="M186.9,192.3c0,0-0.1-0.4-0.2-0.9c-0.1-0.5-0.1-1.2-0.1-1.8c0-0.6-0.1-1.2-0.2-1.7c-0.1-0.2-0.1-0.4-0.2-0.6
				c-0.1-0.1-0.1-0.2-0.1-0.2s0.1,0,0.2,0.1c0.1,0.1,0.3,0.2,0.5,0.4c0.2,0.2,0.4,0.5,0.5,0.8c0.1,0.3,0.2,0.7,0.2,1.1
				c0,0.7-0.1,1.4-0.3,1.9C187.1,192,186.9,192.3,186.9,192.3z"/>
		</g>
		<g>
			<path class="st3" d="M182.3,197.4c0,0-0.1-0.3-0.2-0.6c-0.1-0.4-0.1-0.9-0.1-1.3c0-0.4,0-0.8-0.1-1.2c0-0.3-0.1-0.6-0.1-0.6
				s0.3,0,0.6,0.4c0.2,0.1,0.3,0.4,0.4,0.6c0.1,0.2,0.1,0.5,0.2,0.8c0,0.5-0.1,1-0.3,1.4C182.5,197.2,182.3,197.4,182.3,197.4z"/>
		</g>
		<g>
			<path class="st3" d="M186.2,193.4c0,0,0.2-0.2,0.5-0.5c0.3-0.2,0.8-0.5,1.3-0.6c0.3,0,0.6-0.1,0.8,0c0.3,0.1,0.5,0.1,0.7,0.3
				c0.4,0.2,0.5,0.5,0.5,0.5s-0.3,0-0.6,0c-0.3,0-0.7,0.1-1.2,0.2c-0.4,0.1-0.9,0.1-1.3,0.1C186.5,193.5,186.2,193.4,186.2,193.4z"
				/>
		</g>
		<g>
			<path class="st3" d="M188.4,196.8c0,0-0.4,0.1-0.9,0c-0.5,0-1.2-0.2-1.8-0.3c-0.6-0.1-1.2-0.2-1.7-0.1c-0.2,0-0.4,0-0.6,0.1
				c-0.2,0-0.2,0-0.2,0s0-0.1,0.2-0.2c0.1-0.1,0.3-0.3,0.5-0.4c0.2-0.2,0.6-0.3,0.9-0.3c0.4-0.1,0.7,0,1.1,0
				c0.7,0.1,1.4,0.4,1.8,0.7C188.1,196.5,188.4,196.8,188.4,196.8z"/>
		</g>
		<path class="st3" d="M179.7,201.2c0,0,4.6-9.2,11.8-13.4"/>
	</g>
	<g>
		<path class="st1" d="M200,182c-3.2-2.7-2.9-8.4,0.8-12.9c3.7-4.4,9.3-5.9,12.5-3.2"/>
		<path class="st1" d="M213.3,165.9c2.9,3.3,2.8,8.9-1.2,13.4c-4,4.5-10,4.8-13.2,2.1"/>
		
			<ellipse transform="matrix(0.771 0.6369 -0.6369 0.771 157.4593 -91.3681)" class="st2" cx="205.8" cy="173.2" rx="7.3" ry="10.7"/>
		<g>
			<path class="st3" d="M206.9,171.1c0,0-0.1-0.4-0.2-0.9c-0.1-0.5-0.1-1.2-0.1-1.8c0-0.6-0.1-1.2-0.2-1.7c-0.1-0.2-0.1-0.4-0.2-0.6
				c-0.1-0.1-0.1-0.2-0.1-0.2s0.1,0,0.2,0.1c0.1,0.1,0.3,0.2,0.5,0.4c0.2,0.2,0.4,0.5,0.5,0.8c0.1,0.3,0.2,0.7,0.2,1.1
				c0,0.7-0.1,1.4-0.3,1.9C207.1,170.8,206.9,171.1,206.9,171.1z"/>
		</g>
		<g>
			<path class="st3" d="M202.3,176.2c0,0-0.1-0.3-0.2-0.6c-0.1-0.4-0.1-0.9-0.1-1.3c0-0.4,0-0.8-0.1-1.2c0-0.3-0.1-0.6-0.1-0.6
				s0.3,0,0.6,0.4c0.2,0.1,0.3,0.4,0.4,0.6c0.1,0.2,0.1,0.5,0.2,0.8c0,0.5-0.1,1-0.3,1.4C202.5,176,202.3,176.2,202.3,176.2z"/>
		</g>
		<g>
			<path class="st3" d="M206.2,172.2c0,0,0.2-0.2,0.5-0.5c0.3-0.2,0.8-0.5,1.3-0.6c0.3,0,0.6-0.1,0.8,0c0.3,0.1,0.5,0.1,0.7,0.3
				c0.4,0.2,0.5,0.5,0.5,0.5s-0.3,0-0.6,0c-0.3,0-0.7,0.1-1.2,0.2c-0.4,0.1-0.9,0.1-1.3,0.1C206.5,172.3,206.2,172.2,206.2,172.2z"
				/>
		</g>
		<g>
			<path class="st3" d="M208.4,175.6c0,0-0.4,0.1-0.9,0c-0.5,0-1.2-0.2-1.8-0.3c-0.6-0.1-1.2-0.2-1.7-0.1c-0.2,0-0.4,0-0.6,0.1
				c-0.2,0-0.2,0-0.2,0s0-0.1,0.2-0.2c0.1-0.1,0.3-0.3,0.5-0.4c0.2-0.2,0.6-0.3,0.9-0.3c0.4-0.1,0.7,0,1.1,0
				c0.7,0.1,1.4,0.4,1.8,0.7C208.2,175.3,208.4,175.6,208.4,175.6z"/>
		</g>
		<path class="st3" d="M199.7,180c0,0,4.6-9.2,11.8-13.4"/>
	</g>
	<g>
		<path class="st1" d="M207.9,161.7c-1.7-3.8,1.1-8.8,6.4-11.2c5.2-2.4,10.9-1.2,12.6,2.6"/>
		<path class="st1" d="M226.9,153c1.1,4.2-1.4,9.2-6.9,11.6c-5.6,2.3-11.1-0.1-12.8-3.9"/>
		
			<ellipse transform="matrix(0.4137 0.9104 -0.9104 0.4137 269.4516 -105.8576)" class="st2" cx="216.9" cy="156.3" rx="7.3" ry="10.7"/>
		<g>
			<path class="st3" d="M218.9,154.9c0,0,0-0.4,0.2-0.9c0.2-0.5,0.5-1.1,0.7-1.7c0.3-0.6,0.5-1.1,0.6-1.6c0-0.2,0.1-0.4,0.1-0.6
				c0-0.2,0-0.2,0-0.2s0.1,0.1,0.2,0.2c0.1,0.1,0.2,0.3,0.3,0.6c0.1,0.3,0.1,0.6,0.1,1c0,0.4-0.2,0.7-0.3,1
				c-0.3,0.7-0.8,1.2-1.1,1.6C219.2,154.7,218.9,154.9,218.9,154.9z"/>
		</g>
		<g>
			<path class="st3" d="M212.5,157.4c0,0,0-0.3,0.1-0.7c0.1-0.4,0.3-0.8,0.4-1.2c0.2-0.4,0.3-0.8,0.4-1.1c0.1-0.3,0.2-0.6,0.2-0.6
				s0.3,0.2,0.4,0.6c0.1,0.2,0.1,0.5,0.1,0.7c0,0.3-0.1,0.5-0.2,0.8c-0.2,0.5-0.6,0.9-0.9,1.1C212.8,157.3,212.5,157.4,212.5,157.4z
				"/>
		</g>
		<g>
			<path class="st3" d="M217.8,155.5c0,0,0.3-0.1,0.6-0.2c0.4-0.1,0.9-0.1,1.4,0c0.3,0.1,0.5,0.2,0.7,0.4c0.2,0.2,0.4,0.3,0.5,0.5
				c0.2,0.4,0.2,0.7,0.2,0.7s-0.3-0.1-0.6-0.3c-0.3-0.1-0.7-0.2-1.1-0.4c-0.4-0.1-0.9-0.3-1.2-0.4
				C218,155.7,217.8,155.5,217.8,155.5z"/>
		</g>
		<g>
			<path class="st3" d="M218.3,159.5c0,0-0.4-0.1-0.8-0.4c-0.4-0.3-1-0.7-1.5-1c-0.5-0.4-1-0.7-1.4-0.9c-0.2-0.1-0.4-0.2-0.6-0.2
				c-0.1,0-0.2-0.1-0.2-0.1s0.1,0,0.2-0.1c0.1-0.1,0.4-0.1,0.7-0.2c0.3,0,0.6,0,1,0.1c0.3,0.1,0.7,0.3,1,0.5c0.6,0.4,1,1,1.3,1.4
				C218.1,159.2,218.3,159.5,218.3,159.5z"/>
		</g>
		<path class="st3" d="M208.5,159.7c0,0,8.2-6.2,16.5-6.9"/>
	</g>
	<g>
		<path class="st1" d="M225.7,180.9c-4.2,0.3-7.9-4-8.4-9.8c-0.5-5.7,2.5-10.7,6.7-11"/>
		<path class="st1" d="M223.9,160.1c4.4,0.4,8.2,4.4,8.5,10.4c0.3,6-3.8,10.4-8,10.7"/>
		
			<ellipse transform="matrix(0.9965 -8.330268e-02 8.330268e-02 0.9965 -13.4347 19.2213)" class="st2" cx="223.6" cy="170.6" rx="7.3" ry="10.7"/>
		<g>
			<path class="st3" d="M222.9,168.3c0,0-0.3-0.2-0.7-0.5c-0.4-0.3-0.9-0.8-1.3-1.2c-0.4-0.4-0.9-0.8-1.3-1.1
				c-0.2-0.1-0.4-0.2-0.5-0.3c-0.1-0.1-0.2-0.1-0.2-0.1s0.1,0,0.2-0.1c0.2,0,0.4-0.1,0.7-0.1c0.3,0,0.6,0.1,0.9,0.3
				c0.3,0.2,0.6,0.4,0.9,0.6c0.5,0.5,0.9,1.1,1.1,1.6C222.9,167.9,222.9,168.3,222.9,168.3z"/>
		</g>
		<g>
			<path class="st3" d="M223.2,175.1c0,0-0.3-0.1-0.6-0.3c-0.3-0.2-0.7-0.5-1-0.8c-0.3-0.3-0.6-0.6-0.9-0.8
				c-0.3-0.2-0.5-0.4-0.5-0.4s0.2-0.2,0.7-0.2c0.2,0,0.5,0.1,0.7,0.2c0.2,0.1,0.5,0.3,0.7,0.5c0.4,0.4,0.6,0.8,0.8,1.2
				C223.2,174.8,223.2,175.1,223.2,175.1z"/>
		</g>
		<g>
			<path class="st3" d="M223.2,169.5c0,0,0-0.3,0-0.7c0.1-0.4,0.2-0.9,0.5-1.3c0.2-0.2,0.4-0.4,0.6-0.6c0.2-0.1,0.5-0.3,0.7-0.3
				c0.4-0.1,0.7,0,0.7,0s-0.2,0.2-0.4,0.5c-0.2,0.3-0.5,0.6-0.7,0.9c-0.3,0.4-0.5,0.7-0.8,1C223.5,169.4,223.2,169.5,223.2,169.5z"
				/>
		</g>
		<g>
			<path class="st3" d="M227.2,170.4c0,0-0.2,0.3-0.6,0.6c-0.4,0.3-0.9,0.7-1.5,1.1c-0.5,0.4-1,0.7-1.3,1.1
				c-0.2,0.2-0.3,0.3-0.4,0.5c-0.1,0.1-0.2,0.2-0.2,0.2s0-0.1,0-0.3c0-0.2,0-0.4,0.1-0.7c0.1-0.3,0.2-0.6,0.4-0.9
				c0.2-0.3,0.5-0.5,0.8-0.8c0.6-0.4,1.3-0.7,1.8-0.8C226.8,170.4,227.2,170.4,227.2,170.4z"/>
		</g>
		<path class="st3" d="M224,179.6c0,0-3.1-9.8-0.9-17.8"/>
	</g>
	<g>
		<path class="st1" d="M211.1,195.3c-3.2-2.7-2.9-8.4,0.8-12.9s9.3-5.9,12.5-3.2"/>
		<path class="st1" d="M224.4,179.2c2.9,3.3,2.8,8.9-1.2,13.4c-4,4.5-10,4.8-13.2,2.1"/>
		
			<ellipse transform="matrix(0.771 0.6369 -0.6369 0.771 168.4352 -95.3853)" class="st2" cx="216.8" cy="186.5" rx="7.3" ry="10.7"/>
		<g>
			<path class="st3" d="M218,184.4c0,0-0.1-0.4-0.2-0.9c-0.1-0.5-0.1-1.2-0.1-1.8c0-0.6-0.1-1.2-0.2-1.7c-0.1-0.2-0.1-0.4-0.2-0.6
				c-0.1-0.1-0.1-0.2-0.1-0.2s0.1,0,0.2,0.1c0.1,0.1,0.3,0.2,0.5,0.4c0.2,0.2,0.4,0.5,0.5,0.8c0.1,0.3,0.2,0.7,0.2,1.1
				c0,0.7-0.1,1.4-0.3,1.9C218.2,184.1,218,184.4,218,184.4z"/>
		</g>
		<g>
			<path class="st3" d="M213.4,189.4c0,0-0.1-0.3-0.2-0.6c-0.1-0.4-0.1-0.9-0.1-1.3c0-0.4,0-0.8-0.1-1.2c0-0.3-0.1-0.6-0.1-0.6
				s0.3,0,0.6,0.4c0.2,0.1,0.3,0.4,0.4,0.6c0.1,0.2,0.1,0.5,0.2,0.8c0,0.5-0.1,1-0.3,1.4C213.6,189.2,213.4,189.4,213.4,189.4z"/>
		</g>
		<g>
			<path class="st3" d="M217.3,185.4c0,0,0.2-0.2,0.5-0.5c0.3-0.2,0.8-0.5,1.3-0.6c0.3,0,0.6-0.1,0.8,0c0.3,0.1,0.5,0.1,0.7,0.3
				c0.4,0.2,0.5,0.5,0.5,0.5s-0.3,0-0.6,0c-0.3,0-0.7,0.1-1.2,0.2c-0.4,0.1-0.9,0.1-1.3,0.1C217.6,185.5,217.3,185.4,217.3,185.4z"
				/>
		</g>
		<g>
			<path class="st3" d="M219.5,188.8c0,0-0.4,0.1-0.9,0c-0.5,0-1.2-0.2-1.8-0.3c-0.6-0.1-1.2-0.2-1.7-0.1c-0.2,0-0.4,0-0.6,0.1
				c-0.2,0-0.2,0-0.2,0s0-0.1,0.2-0.2c0.1-0.1,0.3-0.3,0.5-0.4c0.2-0.2,0.6-0.3,0.9-0.3c0.4-0.1,0.7,0,1.1,0
				c0.7,0.1,1.4,0.4,1.8,0.7C219.2,188.6,219.5,188.8,219.5,188.8z"/>
		</g>
		<path class="st3" d="M210.8,193.2c0,0,4.6-9.2,11.8-13.4"/>
	</g>
	<g>
		<path class="st1" d="M192.6,192.7c-0.4-4.2,3.9-8,9.6-8.6c5.7-0.6,10.7,2.3,11.1,6.5"/>
		<path class="st1" d="M213.4,190.6c-0.3,4.4-4.3,8.3-10.3,8.7c-6,0.4-10.4-3.6-10.9-7.8"/>
		
			<ellipse transform="matrix(9.879231e-02 0.9951 -0.9951 9.879231e-02 372.3936 -30.2038)" class="st2" cx="202.9" cy="190.5" rx="7.3" ry="10.7"/>
		<g>
			<path class="st3" d="M205.2,189.8c0,0,0.2-0.3,0.5-0.7c0.3-0.4,0.8-0.9,1.2-1.3c0.4-0.5,0.8-0.9,1-1.3c0.1-0.2,0.2-0.4,0.3-0.5
				c0.1-0.1,0.1-0.2,0.1-0.2s0,0.1,0.1,0.2c0,0.2,0.1,0.4,0.1,0.7c0,0.3-0.1,0.6-0.2,0.9c-0.1,0.3-0.4,0.6-0.6,0.9
				c-0.5,0.5-1.1,0.9-1.6,1.1C205.5,189.7,205.2,189.8,205.2,189.8z"/>
		</g>
		<g>
			<path class="st3" d="M198.3,190.1c0,0,0.1-0.3,0.3-0.6c0.2-0.3,0.5-0.7,0.8-1c0.3-0.3,0.6-0.6,0.8-0.9c0.2-0.3,0.4-0.5,0.4-0.5
				s0.2,0.2,0.2,0.7c0,0.2,0,0.5-0.1,0.7c-0.1,0.2-0.3,0.5-0.4,0.7c-0.4,0.4-0.8,0.6-1.2,0.8C198.6,190.1,198.3,190.1,198.3,190.1z"
				/>
		</g>
		<g>
			<path class="st3" d="M203.9,190.1c0,0,0.3,0,0.7,0c0.4,0,0.9,0.2,1.3,0.5c0.2,0.2,0.4,0.4,0.6,0.6c0.2,0.2,0.3,0.5,0.3,0.7
				c0.1,0.4,0,0.7,0,0.7s-0.2-0.2-0.5-0.4c-0.3-0.2-0.6-0.5-0.9-0.7c-0.4-0.2-0.7-0.5-1-0.8C204.1,190.3,203.9,190.1,203.9,190.1z"
				/>
		</g>
		<g>
			<path class="st3" d="M203.1,194c0,0-0.3-0.2-0.6-0.6c-0.3-0.4-0.7-0.9-1.1-1.4c-0.4-0.5-0.7-1-1.1-1.3c-0.2-0.2-0.3-0.3-0.5-0.4
				c-0.1-0.1-0.2-0.2-0.2-0.2s0.1,0,0.3,0c0.2,0,0.4,0,0.7,0.1c0.3,0.1,0.6,0.2,0.9,0.4c0.3,0.2,0.5,0.5,0.8,0.8
				c0.4,0.6,0.7,1.3,0.8,1.8C203.1,193.7,203.1,194,203.1,194z"/>
		</g>
		<path class="st3" d="M193.8,191c0,0,9.8-3.3,17.8-1.2"/>
	</g>
	<g>
		<path class="st1" d="M191.6,216.7c-4.1-1-6.3-6.3-5-11.9c1.3-5.6,5.7-9.4,9.7-8.4"/>
		<path class="st1" d="M196.3,196.4c4,1.7,6.5,6.7,4.9,12.6c-1.6,5.8-6.8,8.7-10.9,7.8"/>
		
			<ellipse transform="matrix(0.9736 0.228 -0.228 0.9736 52.1273 -38.5282)" class="st2" cx="192.8" cy="206.3" rx="7.3" ry="10.7"/>
		<g>
			<path class="st3" d="M192.9,203.9c0,0-0.3-0.3-0.5-0.7c-0.3-0.4-0.6-1-0.9-1.6c-0.3-0.5-0.6-1-0.9-1.4c-0.2-0.2-0.3-0.3-0.4-0.4
				c-0.1-0.1-0.2-0.2-0.2-0.2s0.1,0,0.3,0c0.2,0,0.4,0,0.7,0.2c0.3,0.1,0.5,0.3,0.8,0.5c0.3,0.2,0.5,0.6,0.7,0.9
				c0.3,0.6,0.5,1.3,0.5,1.9C192.9,203.5,192.9,203.9,192.9,203.9z"/>
		</g>
		<g>
			<path class="st3" d="M191,210.5c0,0-0.2-0.2-0.5-0.5c-0.2-0.3-0.5-0.7-0.7-1.1c-0.2-0.4-0.4-0.7-0.6-1c-0.2-0.3-0.4-0.5-0.4-0.5
				s0.3-0.1,0.7,0c0.2,0.1,0.4,0.2,0.6,0.4c0.2,0.2,0.4,0.4,0.5,0.6c0.3,0.5,0.3,1,0.3,1.4C191.1,210.2,191,210.5,191,210.5z"/>
		</g>
		<g>
			<path class="st3" d="M192.7,205.2c0,0,0.1-0.3,0.2-0.6c0.2-0.4,0.5-0.8,0.9-1.1c0.2-0.2,0.5-0.3,0.7-0.4c0.3-0.1,0.5-0.1,0.7-0.1
				c0.4,0.1,0.7,0.3,0.7,0.3s-0.3,0.1-0.6,0.3c-0.3,0.2-0.6,0.4-1,0.7c-0.4,0.3-0.7,0.5-1.1,0.7C193,205.1,192.7,205.2,192.7,205.2z
				"/>
		</g>
		<g>
			<path class="st3" d="M196.2,207.2c0,0-0.3,0.2-0.8,0.4c-0.5,0.2-1.1,0.4-1.7,0.6c-0.6,0.2-1.1,0.4-1.6,0.6
				c-0.2,0.1-0.4,0.2-0.5,0.3c-0.1,0.1-0.2,0.1-0.2,0.1s0-0.1,0-0.2c0-0.2,0.1-0.4,0.3-0.6c0.1-0.2,0.4-0.5,0.7-0.7
				c0.3-0.2,0.6-0.4,1-0.5c0.7-0.2,1.4-0.2,1.9-0.2C195.9,207.1,196.2,207.2,196.2,207.2z"/>
		</g>
		<path class="st3" d="M190.4,215c0,0,0.1-10.3,4.6-17.2"/>
	</g>
	<g>
		<path class="st1" d="M168,222.7c-3.2-2.7-2.9-8.4,0.8-12.9c3.7-4.4,9.3-5.9,12.5-3.2"/>
		<path class="st1" d="M181.3,206.6c2.9,3.3,2.8,8.9-1.2,13.4c-4,4.5-10,4.8-13.2,2.1"/>
		
			<ellipse transform="matrix(0.771 0.6369 -0.6369 0.771 176.0121 -61.6464)" class="st2" cx="173.7" cy="213.9" rx="7.3" ry="10.7"/>
		<g>
			<path class="st3" d="M174.8,211.8c0,0-0.1-0.4-0.2-0.9c-0.1-0.5-0.1-1.2-0.1-1.8c0-0.6-0.1-1.2-0.2-1.7c-0.1-0.2-0.1-0.4-0.2-0.6
				c-0.1-0.1-0.1-0.2-0.1-0.2s0.1,0,0.2,0.1c0.1,0.1,0.3,0.2,0.5,0.4c0.2,0.2,0.4,0.5,0.5,0.8c0.1,0.3,0.2,0.7,0.2,1.1
				c0,0.7-0.1,1.4-0.3,1.9C175.1,211.5,174.8,211.8,174.8,211.8z"/>
		</g>
		<g>
			<path class="st3" d="M170.3,216.8c0,0-0.1-0.3-0.2-0.6c-0.1-0.4-0.1-0.9-0.1-1.3c0-0.4,0-0.8-0.1-1.2c0-0.3-0.1-0.6-0.1-0.6
				s0.3,0,0.6,0.4c0.2,0.1,0.3,0.4,0.4,0.6c0.1,0.2,0.1,0.5,0.2,0.8c0,0.5-0.1,1-0.3,1.4C170.4,216.6,170.3,216.8,170.3,216.8z"/>
		</g>
		<g>
			<path class="st3" d="M174.2,212.8c0,0,0.2-0.2,0.5-0.5c0.3-0.2,0.8-0.5,1.3-0.6c0.3,0,0.6-0.1,0.8,0c0.3,0.1,0.5,0.1,0.7,0.3
				c0.4,0.2,0.5,0.5,0.5,0.5s-0.3,0-0.6,0c-0.3,0-0.7,0.1-1.2,0.2c-0.4,0.1-0.9,0.1-1.3,0.1C174.4,212.9,174.2,212.8,174.2,212.8z"
				/>
		</g>
		<g>
			<path class="st3" d="M176.4,216.2c0,0-0.4,0.1-0.9,0c-0.5,0-1.2-0.2-1.8-0.3c-0.6-0.1-1.2-0.2-1.7-0.1c-0.2,0-0.4,0-0.6,0.1
				c-0.2,0-0.2,0-0.2,0s0-0.1,0.2-0.2c0.1-0.1,0.3-0.3,0.5-0.4c0.2-0.2,0.6-0.3,0.9-0.3c0.4-0.1,0.7,0,1.1,0
				c0.7,0.1,1.4,0.4,1.8,0.7C176.1,216,176.4,216.2,176.4,216.2z"/>
		</g>
		<path class="st3" d="M167.7,220.6c0,0,4.6-9.2,11.8-13.4"/>
	</g>
	<g>
		<path class="st1" d="M184.9,71.8c1.2-4,6.6-5.9,12.2-4.3c5.5,1.6,9,6.2,7.9,10.2"/>
		<path class="st1" d="M204.9,77.7c-1.9,3.9-7.1,6.1-12.8,4.2c-5.7-1.9-8.3-7.3-7.1-11.3"/>
		
			<ellipse transform="matrix(-0.2841 0.9588 -0.9588 -0.2841 321.259 -92.7008)" class="st2" cx="195.2" cy="73.6" rx="7.3" ry="10.7"/>
		<g>
			<path class="st3" d="M197.6,73.8c0,0,0.3-0.3,0.7-0.5c0.5-0.3,1.1-0.5,1.6-0.8c0.6-0.3,1.1-0.5,1.5-0.8c0.2-0.1,0.4-0.3,0.5-0.4
				c0.1-0.1,0.2-0.2,0.2-0.2s0,0.1,0,0.3c0,0.2-0.1,0.4-0.2,0.6c-0.1,0.3-0.3,0.5-0.6,0.8c-0.3,0.2-0.6,0.4-0.9,0.6
				c-0.7,0.3-1.4,0.4-1.9,0.4C198,73.9,197.6,73.8,197.6,73.8z"/>
		</g>
		<g>
			<path class="st3" d="M191.2,71.5c0,0,0.2-0.2,0.5-0.4c0.3-0.2,0.7-0.4,1.1-0.6c0.4-0.2,0.8-0.3,1.1-0.5c0.3-0.2,0.5-0.3,0.5-0.3
				s0.1,0.3-0.1,0.7c-0.1,0.2-0.2,0.4-0.4,0.6c-0.2,0.2-0.4,0.3-0.7,0.5c-0.5,0.2-1,0.3-1.4,0.3C191.5,71.6,191.2,71.5,191.2,71.5z"
				/>
		</g>
		<g>
			<path class="st3" d="M196.4,73.6c0,0,0.3,0.1,0.6,0.3c0.3,0.2,0.7,0.5,1,1c0.1,0.2,0.3,0.5,0.3,0.7c0.1,0.3,0.1,0.5,0,0.7
				c-0.1,0.4-0.3,0.6-0.3,0.6s-0.1-0.3-0.3-0.6c-0.2-0.3-0.4-0.6-0.6-1c-0.2-0.4-0.5-0.8-0.6-1.1C196.4,73.9,196.4,73.6,196.4,73.6z
				"/>
		</g>
		<g>
			<path class="st3" d="M194.1,77c0,0-0.2-0.3-0.4-0.8c-0.2-0.5-0.3-1.1-0.5-1.7c-0.1-0.6-0.3-1.2-0.5-1.6c-0.1-0.2-0.2-0.4-0.3-0.5
				c-0.1-0.1-0.1-0.2-0.1-0.2s0.1,0,0.2,0.1c0.2,0,0.4,0.1,0.6,0.3c0.2,0.2,0.5,0.4,0.6,0.7c0.2,0.3,0.3,0.7,0.4,1
				c0.2,0.7,0.1,1.4,0.1,1.9C194.3,76.6,194.1,77,194.1,77z"/>
		</g>
		<path class="st3" d="M186.7,70.7c0,0,10.3,0.7,17,5.6"/>
	</g>
	<g>
		<path class="st1" d="M199.7,88.4c1.2-4,6.6-5.9,12.2-4.3c5.5,1.6,9,6.2,7.9,10.2"/>
		<path class="st1" d="M219.8,94.3c-1.9,3.9-7.1,6.1-12.8,4.2c-5.7-1.9-8.3-7.3-7.1-11.3"/>
		
			<ellipse transform="matrix(-0.2841 0.9588 -0.9588 -0.2841 356.2993 -85.5423)" class="st2" cx="210.1" cy="90.2" rx="7.3" ry="10.7"/>
		<g>
			<path class="st3" d="M212.5,90.5c0,0,0.3-0.3,0.7-0.5c0.5-0.3,1.1-0.5,1.6-0.8c0.6-0.3,1.1-0.5,1.5-0.8c0.2-0.1,0.4-0.3,0.5-0.4
				c0.1-0.1,0.2-0.2,0.2-0.2s0,0.1,0,0.3c0,0.2-0.1,0.4-0.2,0.6c-0.1,0.3-0.3,0.5-0.6,0.8c-0.3,0.2-0.6,0.4-0.9,0.6
				c-0.7,0.3-1.4,0.4-1.9,0.4C212.8,90.5,212.5,90.5,212.5,90.5z"/>
		</g>
		<g>
			<path class="st3" d="M206,88.2c0,0,0.2-0.2,0.5-0.4c0.3-0.2,0.7-0.4,1.1-0.6c0.4-0.2,0.8-0.3,1.1-0.5c0.3-0.2,0.5-0.3,0.5-0.3
				s0.1,0.3-0.1,0.7c-0.1,0.2-0.2,0.4-0.4,0.6c-0.2,0.2-0.4,0.3-0.7,0.5c-0.5,0.2-1,0.3-1.4,0.3C206.3,88.3,206,88.2,206,88.2z"/>
		</g>
		<g>
			<path class="st3" d="M211.2,90.2c0,0,0.3,0.1,0.6,0.3c0.3,0.2,0.7,0.5,1,1c0.1,0.2,0.3,0.5,0.3,0.7c0.1,0.3,0.1,0.5,0,0.7
				c-0.1,0.4-0.3,0.6-0.3,0.6s-0.1-0.3-0.3-0.6c-0.2-0.3-0.4-0.6-0.6-1c-0.2-0.4-0.5-0.8-0.6-1.1C211.3,90.5,211.2,90.2,211.2,90.2z
				"/>
		</g>
		<g>
			<path class="st3" d="M209,93.6c0,0-0.2-0.3-0.4-0.8c-0.2-0.5-0.3-1.1-0.5-1.7c-0.1-0.6-0.3-1.2-0.5-1.6c-0.1-0.2-0.2-0.4-0.3-0.5
				c-0.1-0.1-0.1-0.2-0.1-0.2s0.1,0,0.2,0.1c0.2,0,0.4,0.1,0.6,0.3c0.2,0.2,0.5,0.4,0.6,0.7c0.2,0.3,0.3,0.7,0.4,1
				c0.2,0.7,0.1,1.4,0.1,1.9C209.1,93.3,209,93.6,209,93.6z"/>
		</g>
		<path class="st3" d="M201.5,87.3c0,0,10.3,0.7,17,5.6"/>
	</g>
	<g>
		<path class="st1" d="M163,82.4c-0.8-4.1,3.1-8.3,8.7-9.5s10.9,1.3,11.7,5.4"/>
		<path class="st1" d="M183.5,78.3c0.1,4.4-3.4,8.7-9.4,9.7c-6,1-10.7-2.6-11.6-6.7"/>
		
			<ellipse transform="matrix(0.1967 0.9805 -0.9805 0.1967 216.6281 -106.0163)" class="st2" cx="173" cy="79.2" rx="7.3" ry="10.7"/>
		<g>
			<path class="st3" d="M175.2,78.3c0,0,0.1-0.4,0.4-0.8c0.3-0.4,0.7-1,1.1-1.5c0.4-0.5,0.7-1,0.9-1.4c0.1-0.2,0.2-0.4,0.2-0.6
				c0.1-0.1,0.1-0.2,0.1-0.2s0,0.1,0.1,0.2c0.1,0.1,0.1,0.4,0.1,0.7c0,0.3,0,0.6-0.1,1c-0.1,0.3-0.3,0.7-0.5,1c-0.4,0.6-1,1-1.5,1.3
				C175.6,78.1,175.2,78.3,175.2,78.3z"/>
		</g>
		<g>
			<path class="st3" d="M168.5,79.3c0,0,0.1-0.3,0.2-0.6c0.2-0.3,0.5-0.7,0.7-1.1c0.3-0.3,0.5-0.7,0.7-1c0.2-0.3,0.3-0.6,0.3-0.6
				s0.2,0.2,0.3,0.7c0,0.2,0,0.5-0.1,0.7c-0.1,0.3-0.2,0.5-0.4,0.7c-0.3,0.4-0.8,0.7-1.1,0.9C168.8,79.2,168.5,79.3,168.5,79.3z"/>
		</g>
		<g>
			<path class="st3" d="M174,78.6c0,0,0.3-0.1,0.7-0.1c0.4,0,0.9,0.1,1.4,0.4c0.2,0.1,0.5,0.3,0.6,0.5c0.2,0.2,0.3,0.4,0.4,0.6
				c0.1,0.4,0,0.7,0,0.7s-0.2-0.2-0.5-0.4c-0.3-0.2-0.6-0.4-1-0.6c-0.4-0.2-0.8-0.5-1.1-0.7C174.2,78.9,174,78.6,174,78.6z"/>
		</g>
		<g>
			<path class="st3" d="M173.6,82.7c0,0-0.3-0.2-0.7-0.6c-0.4-0.4-0.8-0.9-1.2-1.3c-0.4-0.5-0.8-0.9-1.2-1.2
				c-0.2-0.1-0.4-0.3-0.5-0.3c-0.1-0.1-0.2-0.1-0.2-0.1s0.1,0,0.2-0.1c0.2,0,0.4,0,0.7,0c0.3,0,0.6,0.2,0.9,0.3
				c0.3,0.2,0.6,0.4,0.8,0.7c0.5,0.6,0.8,1.2,1,1.7C173.6,82.3,173.6,82.7,173.6,82.7z"/>
		</g>
		<path class="st3" d="M164.1,80.6c0,0,9.4-4.2,17.6-3"/>
	</g>
	<g>
		<path class="st1" d="M181.4,94c-1.2-4,2.2-8.6,7.8-10.3c5.5-1.7,11,0.2,12.2,4.2"/>
		<path class="st1" d="M201.3,87.8c0.6,4.3-2.5,9-8.4,10.6c-5.8,1.6-11-1.5-12.2-5.5"/>
		
			<ellipse transform="matrix(0.2943 0.9557 -0.9557 0.2943 220.6298 -119.1958)" class="st2" cx="191" cy="89.8" rx="7.3" ry="10.7"/>
		<g>
			<path class="st3" d="M193.1,88.6c0,0,0.1-0.4,0.3-0.8c0.2-0.5,0.6-1,0.9-1.6c0.3-0.5,0.6-1,0.8-1.5c0.1-0.2,0.1-0.4,0.2-0.6
				c0-0.1,0.1-0.2,0.1-0.2s0.1,0.1,0.1,0.2c0.1,0.1,0.2,0.4,0.2,0.6c0.1,0.3,0,0.6-0.1,1c-0.1,0.3-0.2,0.7-0.4,1
				c-0.4,0.6-0.9,1.1-1.3,1.4C193.5,88.5,193.1,88.6,193.1,88.6z"/>
		</g>
		<g>
			<path class="st3" d="M186.5,90.3c0,0,0-0.3,0.2-0.6c0.1-0.4,0.4-0.8,0.6-1.1c0.2-0.4,0.4-0.7,0.6-1c0.1-0.3,0.3-0.6,0.3-0.6
				s0.2,0.2,0.3,0.6c0.1,0.2,0,0.5,0,0.7c0,0.3-0.2,0.5-0.3,0.8c-0.3,0.5-0.7,0.8-1,1C186.8,90.3,186.5,90.3,186.5,90.3z"/>
		</g>
		<g>
			<path class="st3" d="M192,89.2c0,0,0.3-0.1,0.7-0.1c0.4,0,0.9,0,1.4,0.2c0.2,0.1,0.5,0.3,0.7,0.4c0.2,0.2,0.3,0.4,0.4,0.6
				c0.2,0.4,0.1,0.7,0.1,0.7s-0.3-0.2-0.5-0.3c-0.3-0.2-0.7-0.3-1.1-0.5c-0.4-0.2-0.8-0.4-1.2-0.6C192.2,89.4,192,89.2,192,89.2z"/>
		</g>
		<g>
			<path class="st3" d="M192,93.2c0,0-0.3-0.2-0.7-0.5c-0.4-0.3-0.9-0.8-1.3-1.2c-0.5-0.4-0.9-0.8-1.3-1c-0.2-0.1-0.4-0.2-0.5-0.3
				c-0.1-0.1-0.2-0.1-0.2-0.1s0.1,0,0.2-0.1c0.2-0.1,0.4-0.1,0.7-0.1c0.3,0,0.6,0.1,0.9,0.2c0.3,0.1,0.6,0.4,0.9,0.6
				c0.5,0.5,0.9,1.1,1.1,1.6C191.9,92.8,192,93.2,192,93.2z"/>
		</g>
		<path class="st3" d="M182.3,92.1c0,0,8.9-5.1,17.2-4.7"/>
	</g>
	<g>
		<path class="st1" d="M162.8,92.4c1.2-4,6.6-5.9,12.2-4.3c5.5,1.6,9,6.2,7.9,10.2"/>
		<path class="st1" d="M182.8,98.3c-1.9,3.9-7.1,6.1-12.8,4.2c-5.7-1.9-8.3-7.3-7.1-11.3"/>
		
			<ellipse transform="matrix(-0.2841 0.9588 -0.9588 -0.2841 312.6327 -45.0513)" class="st2" cx="173.1" cy="94.2" rx="7.3" ry="10.7"/>
		<g>
			<path class="st3" d="M175.5,94.4c0,0,0.3-0.3,0.7-0.5c0.5-0.3,1.1-0.5,1.6-0.8c0.6-0.3,1.1-0.5,1.5-0.8c0.2-0.1,0.4-0.3,0.5-0.4
				c0.1-0.1,0.2-0.2,0.2-0.2s0,0.1,0,0.3c0,0.2-0.1,0.4-0.2,0.6c-0.1,0.3-0.3,0.5-0.6,0.8c-0.3,0.2-0.6,0.4-0.9,0.6
				c-0.7,0.3-1.4,0.4-1.9,0.4C175.9,94.5,175.5,94.4,175.5,94.4z"/>
		</g>
		<g>
			<path class="st3" d="M169.1,92.2c0,0,0.2-0.2,0.5-0.4c0.3-0.2,0.7-0.4,1.1-0.6c0.4-0.2,0.8-0.3,1.1-0.5c0.3-0.2,0.5-0.3,0.5-0.3
				s0.1,0.3-0.1,0.7c-0.1,0.2-0.2,0.4-0.4,0.6c-0.2,0.2-0.4,0.3-0.7,0.5c-0.5,0.2-1,0.3-1.4,0.3C169.4,92.2,169.1,92.2,169.1,92.2z"
				/>
		</g>
		<g>
			<path class="st3" d="M174.3,94.2c0,0,0.3,0.1,0.6,0.3c0.3,0.2,0.7,0.5,1,1c0.1,0.2,0.3,0.5,0.3,0.7c0.1,0.3,0.1,0.5,0,0.7
				c-0.1,0.4-0.3,0.6-0.3,0.6s-0.1-0.3-0.3-0.6c-0.2-0.3-0.4-0.6-0.6-1c-0.2-0.4-0.5-0.8-0.6-1.1C174.3,94.5,174.3,94.2,174.3,94.2z
				"/>
		</g>
		<g>
			<path class="st3" d="M172,97.6c0,0-0.2-0.3-0.4-0.8c-0.2-0.5-0.3-1.1-0.5-1.7c-0.1-0.6-0.3-1.2-0.5-1.6c-0.1-0.2-0.2-0.4-0.3-0.5
				c-0.1-0.1-0.1-0.2-0.1-0.2s0.1,0,0.2,0.1c0.2,0,0.4,0.1,0.6,0.3c0.2,0.2,0.5,0.4,0.6,0.7c0.2,0.3,0.3,0.7,0.4,1
				c0.2,0.7,0.1,1.4,0.1,1.9C172.2,97.2,172,97.6,172,97.6z"/>
		</g>
		<path class="st3" d="M164.6,91.3c0,0,10.3,0.7,17,5.6"/>
	</g>
	<g>
		<path class="st1" d="M190.1,102.5c1.2-4,6.6-5.9,12.2-4.3c5.5,1.6,9,6.2,7.9,10.2"/>
		<path class="st1" d="M210.2,108.4c-1.9,3.9-7.1,6.1-12.8,4.2c-5.7-1.9-8.3-7.3-7.1-11.3"/>
		
			<ellipse transform="matrix(-0.2841 0.9588 -0.9588 -0.2841 357.4554 -58.2979)" class="st2" cx="200.5" cy="104.3" rx="7.3" ry="10.7"/>
		<g>
			<path class="st3" d="M202.9,104.5c0,0,0.3-0.3,0.7-0.5c0.5-0.3,1.1-0.5,1.6-0.8c0.6-0.3,1.1-0.5,1.5-0.8c0.2-0.1,0.4-0.3,0.5-0.4
				c0.1-0.1,0.2-0.2,0.2-0.2s0,0.1,0,0.3c0,0.2-0.1,0.4-0.2,0.6c-0.1,0.3-0.3,0.5-0.6,0.8c-0.3,0.2-0.6,0.4-0.9,0.6
				c-0.7,0.3-1.4,0.4-1.9,0.4C203.3,104.6,202.9,104.5,202.9,104.5z"/>
		</g>
		<g>
			<path class="st3" d="M196.4,102.3c0,0,0.2-0.2,0.5-0.4c0.3-0.2,0.7-0.4,1.1-0.6c0.4-0.2,0.8-0.3,1.1-0.5c0.3-0.2,0.5-0.3,0.5-0.3
				s0.1,0.3-0.1,0.7c-0.1,0.2-0.2,0.4-0.4,0.6c-0.2,0.2-0.4,0.3-0.7,0.5c-0.5,0.2-1,0.3-1.4,0.3
				C196.7,102.4,196.4,102.3,196.4,102.3z"/>
		</g>
		<g>
			<path class="st3" d="M201.6,104.3c0,0,0.3,0.1,0.6,0.3c0.3,0.2,0.7,0.5,1,1c0.1,0.2,0.3,0.5,0.3,0.7c0.1,0.3,0.1,0.5,0,0.7
				c-0.1,0.4-0.3,0.6-0.3,0.6s-0.1-0.3-0.3-0.6c-0.2-0.3-0.4-0.6-0.6-1c-0.2-0.4-0.5-0.8-0.6-1.1
				C201.7,104.6,201.6,104.3,201.6,104.3z"/>
		</g>
		<g>
			<path class="st3" d="M199.4,107.7c0,0-0.2-0.3-0.4-0.8c-0.2-0.5-0.3-1.1-0.5-1.7c-0.1-0.6-0.3-1.2-0.5-1.6
				c-0.1-0.2-0.2-0.4-0.3-0.5c-0.1-0.1-0.1-0.2-0.1-0.2s0.1,0,0.2,0.1c0.2,0,0.4,0.1,0.6,0.3c0.2,0.2,0.5,0.4,0.6,0.7
				c0.2,0.3,0.3,0.7,0.4,1c0.2,0.7,0.1,1.4,0.1,1.9C199.5,107.3,199.4,107.7,199.4,107.7z"/>
		</g>
		<path class="st3" d="M191.9,101.4c0,0,10.3,0.7,17,5.6"/>
	</g>
	<g>
		<path class="st1" d="M212,101.7c2.8-3.1,8.6-2.4,12.8,1.5s5.4,9.6,2.6,12.6"/>
		<path class="st1" d="M227.4,115.8c-3.5,2.7-9,2.4-13.3-1.9c-4.3-4.2-4.3-10.2-1.4-13.3"/>
		
			<ellipse transform="matrix(-0.6757 0.7372 -0.7372 -0.6757 449.0031 18.3039)" class="st2" cx="220.5" cy="107.9" rx="7.3" ry="10.7"/>
		<g>
			<path class="st3" d="M222.5,109.1c0,0,0.4-0.1,0.9-0.1c0.5,0,1.2,0,1.8,0c0.6,0,1.2,0,1.7-0.1c0.2,0,0.4-0.1,0.6-0.1
				c0.1,0,0.2-0.1,0.2-0.1s0,0.1-0.1,0.2c-0.1,0.1-0.2,0.3-0.5,0.5c-0.2,0.2-0.5,0.3-0.9,0.4c-0.3,0.1-0.7,0.1-1.1,0.1
				c-0.7,0-1.4-0.2-1.9-0.4C222.8,109.4,222.5,109.1,222.5,109.1z"/>
		</g>
		<g>
			<path class="st3" d="M217.7,104.3c0,0,0.3-0.1,0.7-0.2c0.4-0.1,0.9-0.1,1.3-0.1c0.4,0,0.8,0,1.2,0c0.3,0,0.6-0.1,0.6-0.1
				s-0.1,0.3-0.4,0.6c-0.2,0.2-0.4,0.3-0.6,0.4c-0.3,0.1-0.5,0.1-0.8,0.1c-0.5,0-1-0.2-1.4-0.4C217.9,104.5,217.7,104.3,217.7,104.3
				z"/>
		</g>
		<g>
			<path class="st3" d="M221.5,108.4c0,0,0.2,0.2,0.4,0.5c0.2,0.3,0.4,0.8,0.5,1.3c0,0.3,0,0.6,0,0.8c-0.1,0.3-0.2,0.5-0.3,0.7
				c-0.3,0.4-0.5,0.4-0.5,0.4s0-0.3,0-0.6c0-0.3-0.1-0.7-0.1-1.2c-0.1-0.4-0.1-0.9-0.1-1.3C221.4,108.7,221.5,108.4,221.5,108.4z"/>
		</g>
		<g>
			<path class="st3" d="M218,110.4c0,0,0-0.4,0-0.9c0.1-0.5,0.2-1.2,0.3-1.8c0.1-0.6,0.2-1.2,0.2-1.7c0-0.2,0-0.5,0-0.6
				c0-0.2,0-0.3,0-0.3s0.1,0.1,0.2,0.2c0.1,0.1,0.3,0.3,0.4,0.5c0.1,0.2,0.2,0.6,0.3,0.9c0,0.4,0,0.7-0.1,1.1
				c-0.2,0.7-0.5,1.3-0.8,1.8C218.3,110.2,218,110.4,218,110.4z"/>
		</g>
		<path class="st3" d="M214.1,101.5c0,0,8.9,5.1,12.8,12.5"/>
	</g>
	<g>
		<path class="st1" d="M201.2,125.6c-1.9-3.7,0.6-8.9,5.7-11.6c5.1-2.7,10.8-1.9,12.8,1.8"/>
		<path class="st1" d="M219.7,115.9c1.4,4.2-0.8,9.3-6.2,11.9c-5.4,2.6-11,0.6-13-3.1"/>
		
			<ellipse transform="matrix(0.4669 0.8843 -0.8843 0.4669 217.7595 -121.8134)" class="st2" cx="209.9" cy="119.7" rx="7.3" ry="10.7"/>
		<g>
			<path class="st3" d="M211.8,118.2c0,0,0-0.4,0.2-0.9c0.1-0.5,0.4-1.1,0.6-1.7c0.2-0.6,0.4-1.1,0.5-1.6c0-0.2,0.1-0.4,0.1-0.6
				c0-0.2,0-0.3,0-0.3s0.1,0.1,0.2,0.2c0.1,0.1,0.2,0.3,0.3,0.6c0.1,0.3,0.1,0.6,0.1,1c0,0.4-0.1,0.7-0.2,1.1
				c-0.3,0.7-0.7,1.3-1,1.6C212.1,118,211.8,118.2,211.8,118.2z"/>
		</g>
		<g>
			<path class="st3" d="M205.6,121.1c0,0,0-0.3,0.1-0.7c0.1-0.4,0.2-0.8,0.4-1.2c0.2-0.4,0.3-0.8,0.4-1.1c0.1-0.3,0.1-0.6,0.1-0.6
				s0.3,0.2,0.4,0.6c0.1,0.2,0.1,0.5,0.1,0.7c0,0.3-0.1,0.5-0.2,0.8c-0.2,0.5-0.5,0.9-0.8,1.2C205.9,120.9,205.6,121.1,205.6,121.1z
				"/>
		</g>
		<g>
			<path class="st3" d="M210.7,118.9c0,0,0.3-0.2,0.6-0.2c0.4-0.1,0.9-0.2,1.4,0c0.3,0.1,0.5,0.2,0.8,0.3c0.2,0.1,0.4,0.3,0.5,0.5
				c0.2,0.4,0.2,0.7,0.2,0.7s-0.3-0.1-0.6-0.2c-0.3-0.1-0.7-0.2-1.1-0.3c-0.4-0.1-0.9-0.2-1.2-0.4
				C211,119.1,210.7,118.9,210.7,118.9z"/>
		</g>
		<g>
			<path class="st3" d="M211.5,122.9c0,0-0.4-0.1-0.8-0.3c-0.5-0.2-1-0.6-1.5-0.9c-0.5-0.3-1-0.6-1.5-0.8c-0.2-0.1-0.4-0.1-0.6-0.2
				c-0.1,0-0.2-0.1-0.2-0.1s0.1-0.1,0.2-0.1c0.1-0.1,0.4-0.2,0.6-0.2c0.3,0,0.6,0,1,0.1c0.3,0.1,0.7,0.2,1,0.4
				c0.6,0.4,1.1,0.9,1.4,1.3C211.3,122.5,211.5,122.9,211.5,122.9z"/>
		</g>
		<path class="st3" d="M201.7,123.6c0,0,7.8-6.7,16-7.8"/>
	</g>
	<g>
		<path class="st1" d="M182.3,117.8c1.2-4,6.6-5.9,12.2-4.3c5.5,1.6,9,6.2,7.9,10.2"/>
		<path class="st1" d="M202.3,123.8c-1.9,3.9-7.1,6.1-12.8,4.2c-5.7-1.9-8.3-7.3-7.1-11.3"/>
		
			<ellipse transform="matrix(-0.2841 0.9588 -0.9588 -0.2841 362.1106 -31.0172)" class="st2" cx="192.6" cy="119.7" rx="7.3" ry="10.7"/>
		<g>
			<path class="st3" d="M195,119.9c0,0,0.3-0.3,0.7-0.5c0.5-0.3,1.1-0.5,1.6-0.8c0.6-0.3,1.1-0.5,1.5-0.8c0.2-0.1,0.4-0.3,0.5-0.4
				c0.1-0.1,0.2-0.2,0.2-0.2s0,0.1,0,0.3c0,0.2-0.1,0.4-0.2,0.6c-0.1,0.3-0.3,0.5-0.6,0.8c-0.3,0.2-0.6,0.4-0.9,0.6
				c-0.7,0.3-1.4,0.4-1.9,0.4C195.4,120,195,119.9,195,119.9z"/>
		</g>
		<g>
			<path class="st3" d="M188.6,117.6c0,0,0.2-0.2,0.5-0.4c0.3-0.2,0.7-0.4,1.1-0.6c0.4-0.2,0.8-0.3,1.1-0.5c0.3-0.2,0.5-0.3,0.5-0.3
				s0.1,0.3-0.1,0.7c-0.1,0.2-0.2,0.4-0.4,0.6c-0.2,0.2-0.4,0.3-0.7,0.5c-0.5,0.2-1,0.3-1.4,0.3
				C188.9,117.7,188.6,117.6,188.6,117.6z"/>
		</g>
		<g>
			<path class="st3" d="M193.8,119.7c0,0,0.3,0.1,0.6,0.3c0.3,0.2,0.7,0.5,1,1c0.1,0.2,0.3,0.5,0.3,0.7c0.1,0.3,0.1,0.5,0,0.7
				c-0.1,0.4-0.3,0.6-0.3,0.6s-0.1-0.3-0.3-0.6c-0.2-0.3-0.4-0.6-0.6-1c-0.2-0.4-0.5-0.8-0.6-1.1C193.8,120,193.8,119.7,193.8,119.7
				z"/>
		</g>
		<g>
			<path class="st3" d="M191.5,123c0,0-0.2-0.3-0.4-0.8c-0.2-0.5-0.3-1.1-0.5-1.7c-0.1-0.6-0.3-1.2-0.5-1.6
				c-0.1-0.2-0.2-0.4-0.3-0.5c-0.1-0.1-0.1-0.2-0.1-0.2s0.1,0,0.2,0.1c0.2,0,0.4,0.1,0.6,0.3c0.2,0.2,0.5,0.4,0.6,0.7
				c0.2,0.3,0.3,0.7,0.4,1c0.2,0.7,0.1,1.4,0.1,1.9C191.7,122.7,191.5,123,191.5,123z"/>
		</g>
		<path class="st3" d="M184.1,116.8c0,0,10.3,0.7,17,5.6"/>
	</g>
	<g>
		<path class="st1" d="M177.4,99.8c3.7-2,8.9,0.5,11.6,5.5c2.8,5.1,2,10.8-1.6,12.8"/>
		<path class="st1" d="M187.5,118.1c-4.1,1.4-9.3-0.7-12-6.1c-2.7-5.4-0.7-11,2.9-13"/>
		
			<ellipse transform="matrix(-0.8769 0.4806 -0.4806 -0.8769 396.483 115.2749)" class="st2" cx="183.5" cy="108.4" rx="7.3" ry="10.7"/>
		<g>
			<path class="st3" d="M185,110.2c0,0,0.4,0,0.9,0.2c0.5,0.1,1.1,0.4,1.7,0.6c0.6,0.2,1.1,0.4,1.6,0.4c0.2,0,0.4,0.1,0.6,0.1
				c0.2,0,0.3,0,0.3,0s-0.1,0.1-0.2,0.2c-0.1,0.1-0.3,0.2-0.6,0.3c-0.3,0.1-0.6,0.1-1,0.1c-0.4,0-0.7-0.1-1.1-0.2
				c-0.7-0.3-1.3-0.7-1.6-1C185.2,110.5,185,110.2,185,110.2z"/>
		</g>
		<g>
			<path class="st3" d="M182,104.1c0,0,0.3,0,0.7,0c0.4,0.1,0.8,0.2,1.2,0.4c0.4,0.1,0.8,0.3,1.1,0.4c0.3,0.1,0.6,0.1,0.6,0.1
				s-0.2,0.3-0.6,0.4c-0.2,0.1-0.4,0.1-0.7,0.1c-0.3,0-0.5-0.1-0.8-0.1c-0.5-0.2-0.9-0.5-1.2-0.8C182.2,104.4,182,104.1,182,104.1z"
				/>
		</g>
		<g>
			<path class="st3" d="M184.3,109.2c0,0,0.2,0.3,0.3,0.6c0.1,0.4,0.2,0.9,0.1,1.4c-0.1,0.3-0.2,0.5-0.3,0.8
				c-0.1,0.2-0.3,0.4-0.5,0.5c-0.4,0.3-0.7,0.2-0.7,0.2s0.1-0.3,0.2-0.6c0.1-0.3,0.2-0.7,0.3-1.1c0.1-0.4,0.2-0.9,0.3-1.2
				C184.1,109.4,184.3,109.2,184.3,109.2z"/>
		</g>
		<g>
			<path class="st3" d="M180.3,110c0,0,0.1-0.4,0.3-0.8c0.2-0.5,0.6-1,0.9-1.6c0.3-0.5,0.6-1.1,0.7-1.5c0.1-0.2,0.1-0.4,0.2-0.6
				c0-0.1,0.1-0.2,0.1-0.2s0.1,0.1,0.1,0.2c0.1,0.1,0.2,0.4,0.2,0.6c0.1,0.3,0,0.6,0,1c-0.1,0.3-0.2,0.7-0.4,1
				c-0.4,0.6-0.9,1.1-1.3,1.4C180.7,109.8,180.3,110,180.3,110z"/>
		</g>
		<path class="st3" d="M179.5,100.3c0,0,6.8,7.7,8.1,15.9"/>
	</g>
	<g>
		<path class="st1" d="M153.8,109.8c-0.7-4.1,3.3-8.3,9-9.2c5.7-1,10.9,1.5,11.6,5.7"/>
		<path class="st1" d="M174.4,106.2c0,4.4-3.7,8.6-9.6,9.4c-6,0.8-10.7-2.9-11.4-7"/>
		
			<ellipse transform="matrix(0.1714 0.9852 -0.9852 0.1714 241.0712 -72.9407)" class="st2" cx="163.9" cy="106.9" rx="7.3" ry="10.7"/>
		<g>
			<path class="st3" d="M166.1,106c0,0,0.1-0.4,0.4-0.8c0.3-0.4,0.7-0.9,1.1-1.4c0.4-0.5,0.7-1,0.9-1.4c0.1-0.2,0.2-0.4,0.2-0.5
				c0.1-0.1,0.1-0.2,0.1-0.2s0,0.1,0.1,0.2c0.1,0.2,0.1,0.4,0.1,0.7c0,0.3-0.1,0.6-0.2,1c-0.1,0.3-0.3,0.7-0.5,0.9
				c-0.5,0.6-1,1-1.5,1.2C166.5,105.9,166.1,106,166.1,106z"/>
		</g>
		<g>
			<path class="st3" d="M159.4,106.8c0,0,0.1-0.3,0.3-0.6c0.2-0.3,0.5-0.7,0.7-1.1c0.3-0.3,0.5-0.6,0.7-0.9c0.2-0.3,0.3-0.5,0.3-0.5
				s0.2,0.2,0.2,0.7c0,0.2,0,0.5-0.1,0.7c-0.1,0.3-0.2,0.5-0.4,0.7c-0.3,0.4-0.8,0.7-1.1,0.9C159.7,106.8,159.4,106.8,159.4,106.8z"
				/>
		</g>
		<g>
			<path class="st3" d="M164.9,106.3c0,0,0.3-0.1,0.7,0c0.4,0,0.9,0.1,1.4,0.4c0.2,0.1,0.5,0.3,0.6,0.5c0.2,0.2,0.3,0.4,0.3,0.6
				c0.1,0.4,0,0.7,0,0.7s-0.2-0.2-0.5-0.4c-0.3-0.2-0.6-0.4-1-0.6c-0.4-0.2-0.8-0.5-1.1-0.7C165.1,106.6,164.9,106.3,164.9,106.3z"
				/>
		</g>
		<g>
			<path class="st3" d="M164.4,110.4c0,0-0.3-0.2-0.7-0.6c-0.4-0.4-0.8-0.9-1.2-1.4c-0.4-0.5-0.8-0.9-1.2-1.2
				c-0.2-0.1-0.4-0.3-0.5-0.3c-0.1-0.1-0.2-0.1-0.2-0.1s0.1,0,0.2-0.1c0.2,0,0.4,0,0.7,0c0.3,0,0.6,0.2,0.9,0.4
				c0.3,0.2,0.6,0.4,0.8,0.7c0.5,0.6,0.8,1.2,0.9,1.7C164.4,110,164.4,110.4,164.4,110.4z"/>
		</g>
		<path class="st3" d="M154.9,108c0,0,9.5-4,17.7-2.5"/>
	</g>
	<g>
		<path class="st1" d="M140.2,88.9c1.2-4,6.6-5.9,12.2-4.3s9,6.2,7.9,10.2"/>
		<path class="st1" d="M160.2,94.8c-1.9,3.9-7.1,6.1-12.8,4.2c-5.7-1.9-8.3-7.3-7.1-11.3"/>
		
			<ellipse transform="matrix(-0.2841 0.9588 -0.9588 -0.2841 280.2949 -27.8197)" class="st2" cx="150.5" cy="90.7" rx="7.3" ry="10.7"/>
		<g>
			<path class="st3" d="M152.9,90.9c0,0,0.3-0.3,0.7-0.5c0.5-0.3,1.1-0.5,1.6-0.8c0.6-0.3,1.1-0.5,1.5-0.8c0.2-0.1,0.4-0.3,0.5-0.4
				c0.1-0.1,0.2-0.2,0.2-0.2s0,0.1,0,0.3c0,0.2-0.1,0.4-0.2,0.6c-0.1,0.3-0.3,0.5-0.6,0.8c-0.3,0.2-0.6,0.4-0.9,0.6
				c-0.7,0.3-1.4,0.4-1.9,0.4C153.3,91,152.9,90.9,152.9,90.9z"/>
		</g>
		<g>
			<path class="st3" d="M146.5,88.7c0,0,0.2-0.2,0.5-0.4c0.3-0.2,0.7-0.4,1.1-0.6c0.4-0.2,0.8-0.3,1.1-0.5c0.3-0.2,0.5-0.3,0.5-0.3
				s0.1,0.3-0.1,0.7c-0.1,0.2-0.2,0.4-0.4,0.6c-0.2,0.2-0.4,0.3-0.7,0.5c-0.5,0.2-1,0.3-1.4,0.3C146.8,88.8,146.5,88.7,146.5,88.7z"
				/>
		</g>
		<g>
			<path class="st3" d="M151.7,90.7c0,0,0.3,0.1,0.6,0.3c0.3,0.2,0.7,0.5,1,1c0.1,0.2,0.3,0.5,0.3,0.7c0.1,0.3,0.1,0.5,0,0.7
				c-0.1,0.4-0.3,0.6-0.3,0.6s-0.1-0.3-0.3-0.6c-0.2-0.3-0.4-0.6-0.6-1c-0.2-0.4-0.5-0.8-0.6-1.1C151.7,91,151.7,90.7,151.7,90.7z"
				/>
		</g>
		<g>
			<path class="st3" d="M149.4,94.1c0,0-0.2-0.3-0.4-0.8c-0.2-0.5-0.3-1.1-0.5-1.7c-0.1-0.6-0.3-1.2-0.5-1.6
				c-0.1-0.2-0.2-0.4-0.3-0.5c-0.1-0.1-0.1-0.2-0.1-0.2s0.1,0,0.2,0.1c0.2,0,0.4,0.1,0.6,0.3c0.2,0.2,0.5,0.4,0.6,0.7
				c0.2,0.3,0.3,0.7,0.4,1c0.2,0.7,0.1,1.4,0.1,1.9C149.6,93.8,149.4,94.1,149.4,94.1z"/>
		</g>
		<path class="st3" d="M142,87.8c0,0,10.3,0.7,17,5.6"/>
	</g>
	<g>
		<path class="st1" d="M78.3,178.1c-4.2-0.2-7.3-5.1-7-10.8c0.3-5.8,3.9-10.3,8.1-10"/>
		<path class="st1" d="M79.4,157.3c4.3,0.9,7.6,5.5,7.1,11.5c-0.5,6-5.1,9.8-9.3,9.6"/>
		
			<ellipse transform="matrix(0.9987 5.070763e-02 -5.070763e-02 0.9987 8.6001 -3.7219)" class="st2" cx="77.7" cy="167.6" rx="7.3" ry="10.7"/>
		<g>
			<path class="st3" d="M77.3,165.3c0,0-0.3-0.2-0.7-0.6c-0.4-0.4-0.8-0.9-1.1-1.4c-0.4-0.5-0.8-0.9-1.2-1.2
				c-0.2-0.1-0.4-0.3-0.5-0.4c-0.1-0.1-0.2-0.1-0.2-0.1s0.1,0,0.2,0c0.2,0,0.4,0,0.7,0c0.3,0,0.6,0.2,0.9,0.4
				c0.3,0.2,0.6,0.5,0.8,0.7c0.5,0.6,0.7,1.2,0.9,1.7C77.3,164.9,77.3,165.3,77.3,165.3z"/>
		</g>
		<g>
			<path class="st3" d="M76.6,172.1c0,0-0.3-0.1-0.5-0.4c-0.3-0.3-0.6-0.6-0.9-1c-0.3-0.3-0.5-0.7-0.8-0.9c-0.2-0.2-0.5-0.4-0.5-0.4
				s0.3-0.1,0.7-0.1c0.2,0,0.5,0.1,0.7,0.3c0.2,0.1,0.4,0.3,0.6,0.5c0.3,0.4,0.5,0.9,0.6,1.3C76.6,171.8,76.6,172.1,76.6,172.1z"/>
		</g>
		<g>
			<path class="st3" d="M77.4,166.5c0,0,0-0.3,0.1-0.7c0.1-0.4,0.3-0.8,0.7-1.2c0.2-0.2,0.4-0.4,0.7-0.5c0.2-0.1,0.5-0.2,0.7-0.2
				c0.4,0,0.7,0.1,0.7,0.1s-0.2,0.2-0.5,0.4c-0.3,0.2-0.5,0.5-0.8,0.8c-0.3,0.3-0.6,0.6-0.9,0.9C77.7,166.4,77.4,166.5,77.4,166.5z"
				/>
		</g>
		<g>
			<path class="st3" d="M81.2,167.9c0,0-0.3,0.3-0.7,0.5c-0.4,0.3-1,0.6-1.6,0.9c-0.6,0.3-1.1,0.6-1.4,0.9c-0.2,0.2-0.3,0.3-0.4,0.4
				c-0.1,0.1-0.2,0.2-0.2,0.2s0-0.1,0-0.3c0-0.2,0-0.4,0.2-0.7c0.1-0.3,0.3-0.5,0.5-0.8c0.2-0.3,0.6-0.5,0.9-0.6
				c0.7-0.3,1.3-0.5,1.9-0.5C80.8,167.9,81.2,167.9,81.2,167.9z"/>
		</g>
		<path class="st3" d="M76.8,176.6c0,0-1.8-10.1,1.5-17.8"/>
	</g>
	<g>
		<path class="st1" d="M87.9,150.8c-4.2-0.2-7.3-5.1-7-10.8c0.3-5.8,3.9-10.3,8.1-10"/>
		<path class="st1" d="M88.9,130c4.3,0.9,7.6,5.5,7.1,11.5c-0.5,6-5.1,9.8-9.3,9.6"/>
		
			<ellipse transform="matrix(0.9987 5.070763e-02 -5.070763e-02 0.9987 7.2287 -4.2428)" class="st2" cx="87.2" cy="140.3" rx="7.3" ry="10.7"/>
		<g>
			<path class="st3" d="M86.9,138c0,0-0.3-0.2-0.7-0.6c-0.4-0.4-0.8-0.9-1.1-1.4c-0.4-0.5-0.8-0.9-1.2-1.2c-0.2-0.1-0.4-0.3-0.5-0.4
				c-0.1-0.1-0.2-0.1-0.2-0.1s0.1,0,0.2,0c0.2,0,0.4,0,0.7,0c0.3,0,0.6,0.2,0.9,0.4c0.3,0.2,0.6,0.5,0.8,0.7
				c0.5,0.6,0.7,1.2,0.9,1.7C86.9,137.6,86.9,138,86.9,138z"/>
		</g>
		<g>
			<path class="st3" d="M86.2,144.8c0,0-0.3-0.1-0.5-0.4c-0.3-0.3-0.6-0.6-0.9-1c-0.3-0.3-0.5-0.7-0.8-0.9c-0.2-0.2-0.5-0.4-0.5-0.4
				s0.3-0.1,0.7-0.1c0.2,0,0.5,0.1,0.7,0.3c0.2,0.1,0.4,0.3,0.6,0.5c0.3,0.4,0.5,0.9,0.6,1.3C86.2,144.5,86.2,144.8,86.2,144.8z"/>
		</g>
		<g>
			<path class="st3" d="M87,139.2c0,0,0-0.3,0.1-0.7c0.1-0.4,0.3-0.8,0.7-1.2c0.2-0.2,0.4-0.4,0.7-0.5c0.2-0.1,0.5-0.2,0.7-0.2
				c0.4,0,0.7,0.1,0.7,0.1s-0.2,0.2-0.5,0.4c-0.3,0.2-0.5,0.5-0.8,0.8c-0.3,0.3-0.6,0.6-0.9,0.9C87.2,139.1,87,139.2,87,139.2z"/>
		</g>
		<g>
			<path class="st3" d="M90.8,140.6c0,0-0.3,0.3-0.7,0.5c-0.4,0.3-1,0.6-1.6,0.9c-0.6,0.3-1.1,0.6-1.4,0.9c-0.2,0.2-0.3,0.3-0.4,0.4
				c-0.1,0.1-0.2,0.2-0.2,0.2s0-0.1,0-0.3c0-0.2,0-0.4,0.2-0.7c0.1-0.3,0.3-0.5,0.5-0.8c0.2-0.3,0.6-0.5,0.9-0.6
				c0.7-0.3,1.3-0.5,1.9-0.5C90.4,140.6,90.8,140.6,90.8,140.6z"/>
		</g>
		<path class="st3" d="M86.4,149.3c0,0-1.8-10.1,1.5-17.8"/>
	</g>
	<g>
		<path class="st1" d="M92,195.5c-3.8,1.8-8.8-1-11.3-6.3c-2.4-5.2-1.3-10.9,2.5-12.7"/>
		<path class="st1" d="M83.2,176.5c4.2-1.2,9.3,1.3,11.6,6.8c2.4,5.6,0,11.1-3.8,12.8"/>
		
			<ellipse transform="matrix(0.9067 -0.4217 0.4217 0.9067 -70.5644 53.898)" class="st2" cx="86.6" cy="186.5" rx="7.3" ry="10.7"/>
		<g>
			<path class="st3" d="M85.1,184.6c0,0-0.4,0-0.9-0.2c-0.5-0.2-1.1-0.4-1.7-0.7c-0.6-0.3-1.1-0.5-1.6-0.5c-0.2,0-0.4-0.1-0.6-0.1
				c-0.2,0-0.2,0-0.2,0s0.1-0.1,0.2-0.2c0.1-0.1,0.3-0.2,0.6-0.3c0.3-0.1,0.6-0.1,1-0.1c0.4,0,0.7,0.1,1.1,0.3
				c0.7,0.3,1.2,0.7,1.6,1.1C85,184.2,85.1,184.6,85.1,184.6z"/>
		</g>
		<g>
			<path class="st3" d="M87.7,190.9c0,0-0.3,0-0.7-0.1c-0.4-0.1-0.8-0.3-1.2-0.4c-0.4-0.2-0.8-0.3-1.1-0.4c-0.3-0.1-0.6-0.2-0.6-0.2
				s0.2-0.3,0.6-0.4c0.2-0.1,0.5-0.1,0.7-0.1c0.3,0,0.5,0.1,0.8,0.2c0.5,0.2,0.9,0.6,1.1,0.9C87.6,190.6,87.7,190.9,87.7,190.9z"/>
		</g>
		<g>
			<path class="st3" d="M85.8,185.6c0,0-0.1-0.3-0.2-0.6c-0.1-0.4-0.1-0.9,0-1.4c0.1-0.3,0.2-0.5,0.3-0.7c0.2-0.2,0.3-0.4,0.5-0.5
				c0.4-0.2,0.7-0.2,0.7-0.2s-0.1,0.3-0.3,0.6c-0.1,0.3-0.2,0.7-0.3,1.1c-0.1,0.4-0.3,0.9-0.4,1.2C86,185.4,85.8,185.6,85.8,185.6z"
				/>
		</g>
		<g>
			<path class="st3" d="M89.8,185.1c0,0-0.1,0.4-0.4,0.8c-0.3,0.5-0.6,1-1,1.5c-0.4,0.5-0.7,1-0.8,1.5c-0.1,0.2-0.2,0.4-0.2,0.6
				c0,0.1-0.1,0.2-0.1,0.2s0-0.1-0.1-0.2c-0.1-0.1-0.1-0.4-0.2-0.7c0-0.3,0-0.6,0.1-1c0.1-0.3,0.3-0.7,0.5-1c0.4-0.6,1-1,1.4-1.3
				C89.5,185.2,89.8,185.1,89.8,185.1z"/>
		</g>
		<path class="st3" d="M90,194.8c0,0-6.3-8.1-7-16.4"/>
	</g>
	<g>
		<path class="st1" d="M97.6,167.4c-3.6,2.1-8.9-0.2-11.8-5.1c-2.9-5-2.4-10.7,1.2-12.8"/>
		<path class="st1" d="M87,149.4c4.1-1.6,9.3,0.4,12.2,5.6c2.9,5.3,1.1,11-2.5,13.1"/>
		<ellipse transform="matrix(0.8597 -0.5107 0.5107 0.8597 -68.3922 68.9129)" class="st2" cx="91.3" cy="159" rx="7.3" ry="10.7"/>
		<g>
			<path class="st3" d="M89.7,157.2c0,0-0.4,0-0.9-0.1c-0.5-0.1-1.1-0.3-1.7-0.5c-0.6-0.2-1.2-0.3-1.6-0.4c-0.2,0-0.4,0-0.6,0
				c-0.2,0-0.3,0-0.3,0s0.1-0.1,0.2-0.2c0.1-0.1,0.3-0.2,0.6-0.3c0.3-0.1,0.6-0.2,1-0.2c0.4,0,0.7,0.1,1.1,0.2
				c0.7,0.2,1.3,0.6,1.7,1C89.4,156.9,89.7,157.2,89.7,157.2z"/>
		</g>
		<g>
			<path class="st3" d="M92.9,163.2c0,0-0.3,0-0.7,0c-0.4-0.1-0.8-0.2-1.3-0.3c-0.4-0.1-0.8-0.3-1.1-0.3c-0.3-0.1-0.6-0.1-0.6-0.1
				s0.1-0.3,0.5-0.5c0.2-0.1,0.4-0.2,0.7-0.2c0.3,0,0.5,0,0.8,0.1c0.5,0.2,0.9,0.5,1.2,0.8C92.7,163,92.9,163.2,92.9,163.2z"/>
		</g>
		<g>
			<path class="st3" d="M90.4,158.2c0,0-0.2-0.2-0.3-0.6c-0.1-0.4-0.2-0.9-0.1-1.4c0.1-0.3,0.1-0.5,0.3-0.8c0.1-0.2,0.3-0.4,0.5-0.6
				c0.3-0.3,0.7-0.3,0.7-0.3s-0.1,0.3-0.2,0.6c-0.1,0.3-0.2,0.7-0.2,1.2c-0.1,0.4-0.2,0.9-0.3,1.3C90.6,158,90.4,158.2,90.4,158.2z"
				/>
		</g>
		<g>
			<path class="st3" d="M94.4,157.3c0,0-0.1,0.4-0.3,0.8c-0.2,0.5-0.5,1-0.8,1.6c-0.3,0.5-0.6,1.1-0.7,1.5c-0.1,0.2-0.1,0.4-0.2,0.6
				c0,0.2-0.1,0.2-0.1,0.2s-0.1-0.1-0.1-0.2c-0.1-0.1-0.2-0.4-0.2-0.6c-0.1-0.3-0.1-0.6,0-1c0.1-0.4,0.2-0.7,0.4-1
				c0.4-0.6,0.9-1.1,1.3-1.5C94,157.4,94.4,157.3,94.4,157.3z"/>
		</g>
		<path class="st3" d="M95.6,166.9c0,0-7.1-7.5-8.6-15.6"/>
	</g>
	<g>
		<path class="st1" d="M100.4,185.8c-4.2-0.2-7.3-5.1-7-10.8c0.3-5.8,3.9-10.3,8.1-10"/>
		<path class="st1" d="M101.5,165c4.3,0.9,7.6,5.5,7.1,11.5c-0.5,6-5.1,9.8-9.3,9.6"/>
		
			<ellipse transform="matrix(0.9987 5.070763e-02 -5.070763e-02 0.9987 9.0189 -4.8326)" class="st2" cx="99.8" cy="175.3" rx="7.3" ry="10.7"/>
		<g>
			<path class="st3" d="M99.4,173c0,0-0.3-0.2-0.7-0.6c-0.4-0.4-0.8-0.9-1.1-1.4c-0.4-0.5-0.8-0.9-1.2-1.2c-0.2-0.1-0.4-0.3-0.5-0.4
				c-0.1-0.1-0.2-0.1-0.2-0.1s0.1,0,0.2,0c0.2,0,0.4,0,0.7,0c0.3,0,0.6,0.2,0.9,0.4c0.3,0.2,0.6,0.5,0.8,0.7
				c0.5,0.6,0.7,1.2,0.9,1.7C99.4,172.6,99.4,173,99.4,173z"/>
		</g>
		<g>
			<path class="st3" d="M98.7,179.8c0,0-0.3-0.1-0.5-0.4c-0.3-0.3-0.6-0.6-0.9-1c-0.3-0.3-0.5-0.7-0.8-0.9c-0.2-0.2-0.5-0.4-0.5-0.4
				s0.3-0.1,0.7-0.1c0.2,0,0.5,0.1,0.7,0.3c0.2,0.1,0.4,0.3,0.6,0.5c0.3,0.4,0.5,0.9,0.6,1.3C98.7,179.5,98.7,179.8,98.7,179.8z"/>
		</g>
		<g>
			<path class="st3" d="M99.5,174.2c0,0,0-0.3,0.1-0.7c0.1-0.4,0.3-0.8,0.7-1.2c0.2-0.2,0.4-0.4,0.7-0.5c0.2-0.1,0.5-0.2,0.7-0.2
				c0.4,0,0.7,0.1,0.7,0.1s-0.2,0.2-0.5,0.4c-0.3,0.2-0.5,0.5-0.8,0.8c-0.3,0.3-0.6,0.6-0.9,0.9C99.8,174.1,99.5,174.2,99.5,174.2z"
				/>
		</g>
		<g>
			<path class="st3" d="M103.3,175.6c0,0-0.3,0.3-0.7,0.5c-0.4,0.3-1,0.6-1.6,0.9c-0.6,0.3-1.1,0.6-1.4,0.9
				c-0.2,0.2-0.3,0.3-0.4,0.4c-0.1,0.1-0.2,0.2-0.2,0.2s0-0.1,0-0.3c0-0.2,0-0.4,0.2-0.7c0.1-0.3,0.3-0.5,0.5-0.8
				c0.2-0.3,0.6-0.5,0.9-0.6c0.7-0.3,1.3-0.5,1.9-0.5C102.9,175.6,103.3,175.6,103.3,175.6z"/>
		</g>
		<path class="st3" d="M98.9,184.3c0,0-1.8-10.1,1.5-17.8"/>
	</g>
	<g>
		<path class="st1" d="M103.8,156.9c-4.2-0.2-7.3-5.1-7-10.8c0.3-5.8,3.9-10.3,8.1-10"/>
		<path class="st1" d="M104.9,136c4.3,0.9,7.6,5.5,7.1,11.5c-0.5,6-5.1,9.8-9.3,9.6"/>
		
			<ellipse transform="matrix(0.9987 5.070763e-02 -5.070763e-02 0.9987 7.5544 -5.042)" class="st2" cx="103.1" cy="146.4" rx="7.3" ry="10.7"/>
		<g>
			<path class="st3" d="M102.8,144c0,0-0.3-0.2-0.7-0.6c-0.4-0.4-0.8-0.9-1.1-1.4c-0.4-0.5-0.8-0.9-1.2-1.2
				c-0.2-0.1-0.4-0.3-0.5-0.4c-0.1-0.1-0.2-0.1-0.2-0.1s0.1,0,0.2,0c0.2,0,0.4,0,0.7,0c0.3,0,0.6,0.2,0.9,0.4
				c0.3,0.2,0.6,0.5,0.8,0.7c0.5,0.6,0.7,1.2,0.9,1.7C102.8,143.6,102.8,144,102.8,144z"/>
		</g>
		<g>
			<path class="st3" d="M102.1,150.8c0,0-0.3-0.1-0.5-0.4c-0.3-0.3-0.6-0.6-0.9-1c-0.3-0.3-0.5-0.7-0.8-0.9
				c-0.2-0.2-0.5-0.4-0.5-0.4s0.3-0.1,0.7-0.1c0.2,0,0.5,0.1,0.7,0.3c0.2,0.1,0.4,0.3,0.6,0.5c0.3,0.4,0.5,0.9,0.6,1.3
				C102.1,150.5,102.1,150.8,102.1,150.8z"/>
		</g>
		<g>
			<path class="st3" d="M102.9,145.2c0,0,0-0.3,0.1-0.7c0.1-0.4,0.3-0.8,0.7-1.2c0.2-0.2,0.4-0.4,0.7-0.5c0.2-0.1,0.5-0.2,0.7-0.2
				c0.4,0,0.7,0.1,0.7,0.1s-0.2,0.2-0.5,0.4c-0.3,0.2-0.5,0.5-0.8,0.8c-0.3,0.3-0.6,0.6-0.9,0.9
				C103.1,145.1,102.9,145.2,102.9,145.2z"/>
		</g>
		<g>
			<path class="st3" d="M106.7,146.7c0,0-0.3,0.3-0.7,0.5c-0.4,0.3-1,0.6-1.6,0.9c-0.6,0.3-1.1,0.6-1.4,0.9
				c-0.2,0.2-0.3,0.3-0.4,0.4c-0.1,0.1-0.2,0.2-0.2,0.2s0-0.1,0-0.3c0-0.2,0-0.4,0.2-0.7c0.1-0.3,0.3-0.5,0.5-0.8
				c0.2-0.3,0.6-0.5,0.9-0.6c0.7-0.3,1.3-0.5,1.9-0.5C106.3,146.6,106.7,146.7,106.7,146.7z"/>
		</g>
		<path class="st3" d="M102.3,155.4c0,0-1.8-10.1,1.5-17.8"/>
	</g>
	<g>
		<path class="st1" d="M97.9,135.8c-3.7-2-4.4-7.7-1.6-12.8s8-7.5,11.7-5.5"/>
		<path class="st1" d="M108,117.5c3.4,2.7,4.4,8.2,1.3,13.4c-3.1,5.2-8.9,6.5-12.6,4.5"/>
		
			<ellipse transform="matrix(0.8754 0.4835 -0.4835 0.8754 73.6683 -33.5769)" class="st2" cx="102" cy="126.1" rx="7.3" ry="10.7"/>
		<g>
			<path class="st3" d="M102.7,123.8c0,0-0.2-0.3-0.3-0.8c-0.2-0.5-0.3-1.1-0.4-1.7c-0.1-0.6-0.3-1.2-0.5-1.6
				c-0.1-0.2-0.2-0.4-0.3-0.5c-0.1-0.1-0.1-0.2-0.1-0.2s0.1,0,0.2,0.1c0.2,0,0.4,0.1,0.6,0.3c0.2,0.2,0.4,0.4,0.6,0.7
				c0.2,0.3,0.3,0.7,0.4,1c0.2,0.7,0.1,1.4,0,1.9C102.8,123.5,102.7,123.8,102.7,123.8z"/>
		</g>
		<g>
			<path class="st3" d="M99.1,129.6c0,0-0.2-0.2-0.3-0.6c-0.1-0.4-0.3-0.8-0.4-1.2c-0.1-0.4-0.2-0.8-0.3-1.1
				c-0.1-0.3-0.2-0.6-0.2-0.6s0.3,0,0.7,0.2c0.2,0.1,0.4,0.3,0.5,0.5c0.1,0.2,0.2,0.5,0.3,0.8c0.1,0.5,0.1,1.1,0,1.4
				C99.2,129.4,99.1,129.6,99.1,129.6z"/>
		</g>
		<g>
			<path class="st3" d="M102.2,125c0,0,0.1-0.3,0.4-0.6c0.3-0.3,0.7-0.6,1.2-0.8c0.3-0.1,0.5-0.2,0.8-0.2c0.3,0,0.5,0,0.7,0.1
				c0.4,0.2,0.6,0.4,0.6,0.4s-0.3,0.1-0.6,0.1c-0.3,0.1-0.7,0.2-1.1,0.4c-0.4,0.2-0.9,0.3-1.2,0.4C102.5,125,102.2,125,102.2,125z"
				/>
		</g>
		<g>
			<path class="st3" d="M105,127.9c0,0-0.4,0.1-0.9,0.2c-0.5,0.1-1.2,0.1-1.8,0.1c-0.6,0-1.2,0.1-1.7,0.2c-0.2,0.1-0.4,0.1-0.6,0.2
				c-0.1,0-0.2,0.1-0.2,0.1s0-0.1,0.1-0.2c0.1-0.1,0.2-0.3,0.4-0.5c0.2-0.2,0.5-0.4,0.8-0.5c0.3-0.1,0.7-0.2,1.1-0.2
				c0.7,0,1.4,0.2,1.9,0.4C104.7,127.7,105,127.9,105,127.9z"/>
		</g>
		<path class="st3" d="M97.3,133.8c0,0,2.9-9.9,9.1-15.4"/>
	</g>
	<g>
		<path class="st1" d="M122.7,146.3c-3.1,2.8-8.8,1.5-12.6-2.8s-4.4-10.1-1.2-12.8"/>
		<path class="st1" d="M108.9,130.6c3.7-2.3,9.2-1.4,13.1,3.3c3.8,4.7,3.2,10.6,0,13.4"/>
		
			<ellipse transform="matrix(0.7498 -0.6617 0.6617 0.7498 -63.3575 110.9023)" class="st2" cx="114.9" cy="139.2" rx="7.3" ry="10.7"/>
		<g>
			<path class="st3" d="M113,137.8c0,0-0.4,0.1-0.9,0c-0.5,0-1.2-0.1-1.8-0.2c-0.6-0.1-1.2-0.1-1.7-0.1c-0.2,0-0.4,0-0.6,0.1
				c-0.2,0-0.2,0-0.2,0s0-0.1,0.1-0.2c0.1-0.1,0.3-0.3,0.5-0.4c0.2-0.2,0.6-0.3,0.9-0.4c0.3-0.1,0.7-0.1,1.1,0
				c0.7,0.1,1.4,0.4,1.8,0.6C112.8,137.5,113,137.8,113,137.8z"/>
		</g>
		<g>
			<path class="st3" d="M117.3,143.1c0,0-0.3,0.1-0.7,0.1c-0.4,0-0.9,0-1.3-0.1c-0.4-0.1-0.8-0.1-1.2-0.1c-0.3,0-0.6,0-0.6,0
				s0.1-0.3,0.4-0.5c0.2-0.1,0.4-0.2,0.7-0.3c0.3-0.1,0.5-0.1,0.8,0c0.5,0.1,1,0.3,1.3,0.5C117.1,142.9,117.3,143.1,117.3,143.1z"/>
		</g>
		<g>
			<path class="st3" d="M114,138.6c0,0-0.2-0.2-0.4-0.6c-0.2-0.3-0.4-0.8-0.4-1.4c0-0.3,0-0.6,0.1-0.8c0.1-0.3,0.2-0.5,0.4-0.6
				c0.3-0.3,0.6-0.4,0.6-0.4s0,0.3-0.1,0.6c0,0.3,0,0.7,0,1.2c0,0.4,0,0.9-0.1,1.3C114.1,138.3,114,138.6,114,138.6z"/>
		</g>
		<g>
			<path class="st3" d="M117.7,137c0,0,0,0.4-0.1,0.9c-0.1,0.5-0.3,1.1-0.5,1.7c-0.2,0.6-0.3,1.2-0.4,1.6c0,0.2,0,0.4,0,0.6
				c0,0.2,0,0.3,0,0.3s-0.1-0.1-0.2-0.2c-0.1-0.1-0.2-0.3-0.3-0.6c-0.1-0.3-0.2-0.6-0.2-1c0-0.4,0.1-0.7,0.2-1.1
				c0.2-0.7,0.6-1.3,1-1.7C117.4,137.2,117.7,137,117.7,137z"/>
		</g>
		<path class="st3" d="M120.6,146.2c0,0-8.3-6-11.4-13.7"/>
	</g>
	<g>
		<path class="st1" d="M124.6,171.3c-4.2-0.2-7.3-5.1-7-10.8c0.3-5.8,3.9-10.3,8.1-10"/>
		<path class="st1" d="M125.7,150.4c4.3,0.9,7.6,5.5,7.1,11.5c-0.5,6-5.1,9.8-9.3,9.6"/>
		
			<ellipse transform="matrix(0.9987 5.070763e-02 -5.070763e-02 0.9987 8.3137 -6.0791)" class="st2" cx="124" cy="160.8" rx="7.3" ry="10.7"/>
		<g>
			<path class="st3" d="M123.6,158.4c0,0-0.3-0.2-0.7-0.6c-0.4-0.4-0.8-0.9-1.1-1.4c-0.4-0.5-0.8-0.9-1.2-1.2
				c-0.2-0.1-0.4-0.3-0.5-0.4c-0.1-0.1-0.2-0.1-0.2-0.1s0.1,0,0.2,0c0.2,0,0.4,0,0.7,0c0.3,0,0.6,0.2,0.9,0.4
				c0.3,0.2,0.6,0.5,0.8,0.7c0.5,0.6,0.7,1.2,0.9,1.7C123.6,158.1,123.6,158.4,123.6,158.4z"/>
		</g>
		<g>
			<path class="st3" d="M122.9,165.2c0,0-0.3-0.1-0.5-0.4c-0.3-0.3-0.6-0.6-0.9-1c-0.3-0.3-0.5-0.7-0.8-0.9
				c-0.2-0.2-0.5-0.4-0.5-0.4s0.3-0.1,0.7-0.1c0.2,0,0.5,0.1,0.7,0.3c0.2,0.1,0.4,0.3,0.6,0.5c0.3,0.4,0.5,0.9,0.6,1.3
				C123,164.9,122.9,165.2,122.9,165.2z"/>
		</g>
		<g>
			<path class="st3" d="M123.7,159.7c0,0,0-0.3,0.1-0.7c0.1-0.4,0.3-0.8,0.7-1.2c0.2-0.2,0.4-0.4,0.7-0.5c0.2-0.1,0.5-0.2,0.7-0.2
				c0.4,0,0.7,0.1,0.7,0.1s-0.2,0.2-0.5,0.4c-0.3,0.2-0.5,0.5-0.8,0.8c-0.3,0.3-0.6,0.6-0.9,0.9C124,159.6,123.7,159.7,123.7,159.7z
				"/>
		</g>
		<g>
			<path class="st3" d="M127.5,161.1c0,0-0.3,0.3-0.7,0.5c-0.4,0.3-1,0.6-1.6,0.9c-0.6,0.3-1.1,0.6-1.4,0.9
				c-0.2,0.2-0.3,0.3-0.4,0.4c-0.1,0.1-0.2,0.2-0.2,0.2s0-0.1,0-0.3c0-0.2,0-0.4,0.2-0.7c0.1-0.3,0.3-0.5,0.5-0.8
				c0.2-0.3,0.6-0.5,0.9-0.6c0.7-0.3,1.3-0.5,1.9-0.5C127.1,161.1,127.5,161.1,127.5,161.1z"/>
		</g>
		<path class="st3" d="M123.1,169.8c0,0-1.8-10.1,1.5-17.8"/>
	</g>
	<g>
		<path class="st1" d="M104.2,169.8c-2.8-3.1-1.6-8.7,2.6-12.6c4.3-3.9,10-4.5,12.8-1.4"/>
		<path class="st1" d="M119.6,155.8c2.4,3.7,1.5,9.2-3.1,13.1c-4.6,3.9-10.5,3.3-13.4,0.2"/>
		
			<ellipse transform="matrix(0.6733 0.7394 -0.7394 0.6733 156.0336 -29.2598)" class="st2" cx="111.1" cy="161.9" rx="7.3" ry="10.7"/>
		<g>
			<path class="st3" d="M112.5,160c0,0-0.1-0.4-0.1-0.9c0-0.5,0.1-1.2,0.2-1.8c0.1-0.6,0.1-1.2,0-1.7c0-0.2-0.1-0.4-0.1-0.6
				c0-0.2,0-0.2,0-0.2s0.1,0,0.2,0.1c0.1,0.1,0.3,0.3,0.5,0.5c0.2,0.2,0.3,0.5,0.4,0.9c0.1,0.3,0.1,0.7,0,1.1
				c-0.1,0.7-0.3,1.4-0.6,1.8C112.8,159.7,112.5,160,112.5,160z"/>
		</g>
		<g>
			<path class="st3" d="M107.3,164.3c0,0-0.1-0.3-0.1-0.7c0-0.4,0-0.9,0.1-1.3c0-0.4,0.1-0.8,0.1-1.2c0-0.3,0-0.6,0-0.6
				s0.3,0.1,0.6,0.4c0.1,0.2,0.2,0.4,0.3,0.7c0.1,0.3,0.1,0.5,0.1,0.8c-0.1,0.5-0.3,1-0.5,1.3C107.5,164.2,107.3,164.3,107.3,164.3z
				"/>
		</g>
		<g>
			<path class="st3" d="M111.7,160.9c0,0,0.2-0.2,0.5-0.4c0.3-0.2,0.8-0.4,1.4-0.4c0.3,0,0.6,0,0.8,0.1c0.3,0.1,0.5,0.2,0.6,0.4
				c0.3,0.3,0.4,0.6,0.4,0.6s-0.3,0-0.6-0.1c-0.3,0-0.7,0-1.2,0c-0.4,0-0.9,0-1.3,0C112,161.1,111.7,160.9,111.7,160.9z"/>
		</g>
		<g>
			<path class="st3" d="M113.4,164.6c0,0-0.4,0-0.9-0.1c-0.5-0.1-1.1-0.3-1.7-0.5c-0.6-0.2-1.2-0.3-1.6-0.4c-0.2,0-0.4,0-0.6,0
				c-0.2,0-0.3,0-0.3,0s0.1-0.1,0.2-0.2c0.1-0.1,0.3-0.2,0.6-0.3c0.3-0.1,0.6-0.2,0.9-0.2c0.4,0,0.7,0.1,1.1,0.2
				c0.7,0.2,1.3,0.6,1.7,0.9C113.2,164.3,113.4,164.6,113.4,164.6z"/>
		</g>
		<path class="st3" d="M104.2,167.7c0,0,5.9-8.4,13.6-11.6"/>
	</g>
	<g>
		<path class="st1" d="M119.5,190.4c-3.8,1.7-8.8-1.3-11.1-6.6c-2.3-5.3-1.1-10.9,2.8-12.6"/>
		<path class="st1" d="M111.2,171.3c4.3-1.1,9.2,1.5,11.4,7.1c2.2,5.6-0.3,11-4.1,12.7"/>
		
			<ellipse transform="matrix(0.9173 -0.3983 0.3983 0.9173 -62.7681 60.4967)" class="st2" cx="114.2" cy="181.3" rx="7.3" ry="10.7"/>
		<g>
			<path class="st3" d="M112.9,179.4c0,0-0.4-0.1-0.9-0.2c-0.5-0.2-1.1-0.5-1.6-0.7c-0.6-0.3-1.1-0.5-1.6-0.6
				c-0.2-0.1-0.4-0.1-0.6-0.1c-0.2,0-0.2,0-0.2,0s0.1-0.1,0.2-0.2c0.1-0.1,0.3-0.2,0.6-0.3c0.3-0.1,0.6-0.1,1-0.1
				c0.4,0,0.7,0.2,1,0.3c0.7,0.3,1.2,0.8,1.5,1.2C112.7,179,112.9,179.4,112.9,179.4z"/>
		</g>
		<g>
			<path class="st3" d="M115.3,185.7c0,0-0.3,0-0.7-0.1c-0.4-0.1-0.8-0.3-1.2-0.5c-0.4-0.2-0.8-0.4-1.1-0.5
				c-0.3-0.1-0.6-0.2-0.6-0.2s0.2-0.2,0.6-0.4c0.2-0.1,0.5-0.1,0.7-0.1c0.3,0,0.5,0.1,0.8,0.2c0.5,0.2,0.9,0.6,1.1,0.9
				C115.2,185.5,115.3,185.7,115.3,185.7z"/>
		</g>
		<g>
			<path class="st3" d="M113.5,180.5c0,0-0.1-0.3-0.2-0.6c-0.1-0.4-0.1-0.9,0.1-1.4c0.1-0.3,0.2-0.5,0.4-0.7
				c0.2-0.2,0.4-0.4,0.5-0.5c0.4-0.2,0.7-0.2,0.7-0.2s-0.1,0.3-0.3,0.6c-0.1,0.3-0.2,0.7-0.4,1.1c-0.1,0.4-0.3,0.9-0.5,1.2
				C113.7,180.2,113.5,180.5,113.5,180.5z"/>
		</g>
		<g>
			<path class="st3" d="M117.5,180c0,0-0.1,0.4-0.4,0.8c-0.3,0.4-0.7,1-1,1.5c-0.4,0.5-0.7,1-0.9,1.4c-0.1,0.2-0.2,0.4-0.2,0.6
				c0,0.1-0.1,0.2-0.1,0.2s0-0.1-0.1-0.2c-0.1-0.1-0.1-0.4-0.1-0.7c0-0.3,0-0.6,0.1-1c0.1-0.3,0.3-0.7,0.5-1c0.4-0.6,1-1,1.4-1.3
				C117.2,180.1,117.5,180,117.5,180z"/>
		</g>
		<path class="st3" d="M117.5,189.8c0,0-6.1-8.3-6.6-16.6"/>
	</g>
	<g>
		<path class="st1" d="M102.4,208.6c-4.2-0.2-7.3-5.1-7-10.8c0.3-5.8,3.9-10.3,8.1-10"/>
		<path class="st1" d="M103.4,187.7c4.3,0.9,7.6,5.5,7.1,11.5c-0.5,6-5.1,9.8-9.3,9.6"/>
		
			<ellipse transform="matrix(0.9987 5.070763e-02 -5.070763e-02 0.9987 10.1766 -4.9024)" class="st2" cx="101.7" cy="198.1" rx="7.3" ry="10.7"/>
		<g>
			<path class="st3" d="M101.3,195.7c0,0-0.3-0.2-0.7-0.6c-0.4-0.4-0.8-0.9-1.1-1.4c-0.4-0.5-0.8-0.9-1.2-1.2
				c-0.2-0.1-0.4-0.3-0.5-0.4c-0.1-0.1-0.2-0.1-0.2-0.1s0.1,0,0.2,0c0.2,0,0.4,0,0.7,0c0.3,0,0.6,0.2,0.9,0.4
				c0.3,0.2,0.6,0.5,0.8,0.7c0.5,0.6,0.7,1.2,0.9,1.7C101.3,195.4,101.3,195.7,101.3,195.7z"/>
		</g>
		<g>
			<path class="st3" d="M100.7,202.5c0,0-0.3-0.1-0.5-0.4c-0.3-0.3-0.6-0.6-0.9-1c-0.3-0.3-0.5-0.7-0.8-0.9
				c-0.2-0.2-0.5-0.4-0.5-0.4s0.3-0.1,0.7-0.1c0.2,0,0.5,0.1,0.7,0.3c0.2,0.1,0.4,0.3,0.6,0.5c0.3,0.4,0.5,0.9,0.6,1.3
				C100.7,202.2,100.7,202.5,100.7,202.5z"/>
		</g>
		<g>
			<path class="st3" d="M101.4,197c0,0,0-0.3,0.1-0.7c0.1-0.4,0.3-0.8,0.7-1.2c0.2-0.2,0.4-0.4,0.7-0.5c0.2-0.1,0.5-0.2,0.7-0.2
				c0.4,0,0.7,0.1,0.7,0.1s-0.2,0.2-0.5,0.4c-0.3,0.2-0.5,0.5-0.8,0.8c-0.3,0.3-0.6,0.6-0.9,0.9C101.7,196.9,101.4,197,101.4,197z"
				/>
		</g>
		<g>
			<path class="st3" d="M105.2,198.4c0,0-0.3,0.3-0.7,0.5c-0.4,0.3-1,0.6-1.6,0.9c-0.6,0.3-1.1,0.6-1.4,0.9
				c-0.2,0.2-0.3,0.3-0.4,0.4c-0.1,0.1-0.2,0.2-0.2,0.2s0-0.1,0-0.3c0-0.2,0-0.4,0.2-0.7c0.1-0.3,0.3-0.5,0.5-0.8
				c0.2-0.3,0.6-0.5,0.9-0.6c0.7-0.3,1.3-0.5,1.9-0.5C104.9,198.4,105.2,198.4,105.2,198.4z"/>
		</g>
		<path class="st3" d="M100.9,207.1c0,0-1.8-10.1,1.5-17.8"/>
	</g>
	<circle class="st4" cx="149.6" cy="138.3" r="17.5"/>
	<circle class="st5" cx="149.6" cy="138.3" r="14.3"/>
	<polygon class="st6" points="95.9,62.7 139.3,121.7 105.1,57 	"/>
	<polygon class="st7" points="119.8,226.3 142.1,156.4 109.6,222.2 	"/>
	<polygon class="st7" points="243.4,128.5 166.4,138.7 244,139.4 	"/>
	<g>
		<path class="st8" d="M106.7,55.4c0,0,0.7,0.9,1.8,2.6c1.1,1.7,2.7,4.1,4.5,7.1c0.9,1.5,1.9,3.1,2.9,4.8c1,1.7,2.1,3.5,3.1,5.4
			c2.1,3.8,4.3,7.9,6.5,12c1.1,2.1,2.1,4.1,3.1,6.2c1,2,2,4.1,2.9,6c0.9,2,1.8,3.9,2.6,5.7c0.8,1.8,1.6,3.5,2.3,5.1
			c1.4,3.2,2.5,5.9,3.2,7.8c0.7,1.9,1.1,3,1.1,3s-0.7-0.9-1.8-2.6c-1.1-1.7-2.7-4.1-4.5-7.1c-0.9-1.5-1.9-3.1-2.9-4.8
			c-1-1.7-2.1-3.5-3.1-5.4c-1.1-1.9-2.2-3.9-3.2-5.9c-1.1-2-2.2-4.1-3.2-6.1c-2.1-4.1-4.2-8.3-6.1-12.2c-0.9-2-1.8-3.9-2.6-5.7
			c-0.8-1.8-1.6-3.5-2.3-5.1c-1.4-3.2-2.5-5.9-3.2-7.8C107.1,56.5,106.7,55.4,106.7,55.4z"/>
	</g>
	<g>
		<path class="st8" d="M168.1,141.4c0,0,1.2-0.2,3.2-0.4c2-0.2,4.9-0.5,8.4-0.7c1.7-0.1,3.6-0.2,5.6-0.3c2-0.1,4.1-0.2,6.3-0.2
			c4.3-0.1,9-0.1,13.6-0.1c2.3,0,4.6,0.1,6.9,0.1c2.3,0.1,4.5,0.1,6.7,0.2c2.2,0.1,4.3,0.2,6.3,0.4c2,0.1,3.9,0.3,5.6,0.4
			c3.5,0.3,6.4,0.6,8.4,0.8c2,0.2,3.2,0.4,3.2,0.4s-1.2,0.2-3.2,0.4c-2,0.2-4.9,0.5-8.4,0.7c-1.7,0.1-3.6,0.2-5.6,0.3
			c-2,0.1-4.1,0.2-6.3,0.2c-2.2,0-4.4,0.1-6.7,0.1c-2.3,0-4.6,0-6.9,0c-4.6-0.1-9.3-0.2-13.6-0.4c-2.2-0.1-4.3-0.2-6.3-0.4
			c-2-0.1-3.9-0.3-5.6-0.4c-3.5-0.3-6.4-0.6-8.4-0.8C169.3,141.6,168.1,141.4,168.1,141.4z"/>
	</g>
	<g>
		<path class="st8" d="M144.9,157.9c0,0-0.2,1.1-0.6,3.1c-0.4,1.9-1,4.7-1.9,8c-0.4,1.6-0.9,3.4-1.4,5.3c-0.5,1.9-1.1,3.8-1.7,5.9
			c-1.2,4.1-2.5,8.4-4,12.6c-0.7,2.1-1.4,4.3-2.2,6.4c-0.7,2.1-1.5,4.1-2.2,6.1c-0.7,2-1.5,3.9-2.2,5.7c-0.7,1.8-1.4,3.5-2.1,5.1
			c-1.3,3.1-2.5,5.7-3.3,7.5c-0.8,1.8-1.4,2.8-1.4,2.8s0.2-1.1,0.6-3.1c0.4-1.9,1-4.7,1.9-8c0.4-1.6,0.9-3.4,1.4-5.3
			c0.5-1.9,1.1-3.8,1.7-5.9c0.6-2,1.2-4.1,1.9-6.2c0.7-2.1,1.4-4.3,2.1-6.4c1.4-4.3,2.9-8.5,4.4-12.5c0.7-2,1.5-3.9,2.2-5.7
			c0.7-1.8,1.4-3.5,2.1-5.1c1.3-3.1,2.5-5.7,3.3-7.5C144.4,158.9,144.9,157.9,144.9,157.9z"/>
	</g>
</g>
<g>
	<path class="st9" d="M76.7,61.1l0.7-1.1c0.3-0.3,0.6-0.3,0.8,0c0.4,0.5,0.6,1.1,0.5,1.9s-0.4,1.5-1,2c-0.6,0.6-1.3,0.7-2.2,0.5
		c-1.3-0.3-3.1-1.4-5.5-3c-1.2-0.8-2.2-1.4-3.1-1.8c-0.3,0.6-0.8,1.2-1.3,1.7c-0.5,0.5-1.1,0.9-1.7,1c-0.6,0.2-1.1,0.1-1.4-0.2
		c-0.8-0.9-0.5-1.9,0.8-3.2c0.6-0.6,1.6-1,2.8-1.1c0.3-1.9-0.3-3.6-1.7-5.1c-0.9-0.9-1.8-1.5-2.8-1.9c-1-0.4-2-0.5-2.9-0.3
		c-1.8,0.3-3.4,1.1-4.8,2.4c0.3,0.4,0.9,1.1,1.6,2.1c1.5,2,2.8,3.5,3.7,4.5l4,4.3c3.1,3.3,4.1,5.5,2.8,6.8c-0.8,0.8-1.6,0.8-2.2,0.1
		c-0.2-0.2-0.3-0.6-0.5-1.3s-0.5-1.3-0.9-2c-0.4-0.7-1.9-2.4-4.4-5.3c-2.5-2.9-4.4-5.2-5.7-7c-0.7,1.2-1.1,2.3-1.1,3.5
		c-0.1,1.1,0.3,2.1,1,2.8c0.4,0.4,0.6,0.9,0.7,1.3c0.1,0.5-0.1,0.8-0.4,1.1c-0.5,0.5-1,0.5-1.6-0.1c-1.2-1.3-1.7-2.8-1.5-4.6
		c0.2-1.8,0.9-3.6,2.1-5.4c-0.8-1.5-0.9-2.6-0.2-3.3c0.3-0.2,0.7-0.1,1.2,0.5c0.1,0.1,0.3,0.4,0.6,0.7c0.2-0.2,0.5-0.6,1.1-1.1
		s1.3-1.1,2.1-1.6s1.8-0.9,2.9-1.2c1.1-0.3,2.2-0.3,3.4,0.1c1.2,0.4,2.3,1.1,3.3,2.1c1,1,1.7,2.3,2,3.7c0.3,1.4,0.3,2.8,0,4.2
		c1.3,0.2,2.7,0.6,4.1,1.4c1.4,0.8,2.5,1.3,3.4,1.6C76,61.3,76.5,61.3,76.7,61.1z M63.2,60.8c0.1,0.1,0.4,0.1,0.7,0
		c0.4-0.1,0.7-0.3,1-0.6c0.3-0.3,0.5-0.6,0.6-0.9c-0.8-0.1-1.4,0.1-1.8,0.6C63.3,60.4,63.1,60.7,63.2,60.8z"/>
	<path class="st9" d="M80.8,46.3c0.6-0.8,1-1.5,1.2-1.9c0.2-0.4,0.3-0.7,0.4-1l0.2-0.5c0.1-0.1,0.1-0.2,0.2-0.3
		c0.2-0.1,0.3-0.1,0.4,0.1s0.1,0.7-0.2,1.6c-0.3,0.9-0.8,1.9-1.4,2.9c1.1,1.8,1.6,3.6,1.4,5.3c-0.2,1.7-1.1,3.2-2.8,4.5
		c-1.2,0.9-2.6,1.1-4,0.6c-1.4-0.5-2.6-1.4-3.5-2.8c-1-1.3-1.5-2.9-1.6-4.7c-0.1-1.8,0.5-3.1,1.8-4c0.3-0.8,0.8-1.5,1.6-2.1
		c0.8-0.6,1.8-0.7,3.1-0.3S79.9,45,80.8,46.3z M80,49.3l-1,0.9c-0.9,0.7-1.9,1-3,0.9c-1-0.1-1.8-0.5-2.3-1.1c-0.5-0.7-0.8-1.3-0.9-2
		c-0.4,1.3,0.2,3,1.6,5c0.7,1,1.6,1.7,2.6,2.3c1,0.6,2,0.6,2.9-0.1s1.3-1.5,1.2-2.6C81.1,51.5,80.7,50.4,80,49.3z M74.5,45.6
		c-0.3,0.2-0.5,0.6-0.4,1c0,0.4,0.2,0.8,0.4,1.1c0.5,0.7,1.2,1.2,2.1,1.3s1.6-0.1,2.3-0.6l0.4-0.3c-0.8-1-1.6-1.7-2.5-2.3
		C75.9,45.2,75.1,45.1,74.5,45.6z"/>
	<path class="st9" d="M95.9,47c-0.8,0.5-1.6,0.7-2.2,0.6c-0.2-0.1-0.5-0.4-0.9-1c-0.4-0.6-0.8-1.5-1.4-2.5c0.2,1.7,0.3,3.1,0.1,4.1
		s-0.7,1.7-1.5,2.2c-0.9,0.5-1.9,0.5-3,0.1c-1.1-0.4-2.2-1.5-3.2-3.3c-1-1.7-1.4-3.6-1.2-5.5c0.2-1.9,1.1-3.3,2.7-4.2
		c0.7-0.4,1.7-0.4,3.1,0c0-0.3,0.2-0.8,0.4-1.4c0.3-0.6,0.5-1,0.8-1.2s0.7,0.1,1.2,1c0.1,0.2,0.3,0.7,0.5,1.4
		c0.2,0.7,0.4,1.2,0.4,1.6c0.1,0.6,1,2.4,2.7,5.5c0.3,0.6,0.6,0.8,0.7,0.8c0.4-0.2,0.6-1,0.7-2.2c0.1-1.3,0.1-2.8,0-4.6
		c-0.2-1.8-0.2-2.7,0-2.8c0.1-0.1,0.3,0,0.4,0.1c0.3,0.6,0.6,1.7,0.7,3.4C97.5,43.7,97.1,46.3,95.9,47z M86,38.8
		c-0.6,0.3-1,1.2-1.2,2.4c-0.2,1.3,0.1,2.5,0.8,3.7c0.7,1.2,1.4,2.1,2.2,2.7s1.5,0.7,2.1,0.4c0.7-0.4,0.7-2.8,0.1-7.2
		c-0.1-0.2-0.2-0.5-0.4-0.9s-0.4-0.8-0.5-1c-0.4-0.2-0.9-0.4-1.6-0.4C86.9,38.5,86.4,38.6,86,38.8z"/>
	<path class="st9" d="M99,32.5L98.9,32c-0.2-0.4-0.5-0.5-1-0.3s-0.8,0.7-0.9,1.5c-0.2,0.8-0.1,1.4,0,1.8c0.2,0.4,0.3,0.7,0.5,0.9
		c0.1,0.2,0.3,0.4,0.4,0.5c0.1,0.1,0.3,0.3,0.5,0.4c0.2,0.1,0.4,0.2,0.5,0.3l0.6,0.3c0.3,0.2,0.4,0.2,0.5,0.3
		c0.7-1.5,1.6-3.2,2.7-5.2c0.1-0.1,0.1-0.2,0.3-0.2c0.2-0.1,0.4,0,0.5,0.2c0.1,0.2,0.1,0.5,0,0.7c-1,1.6-1.9,3.2-2.7,4.9
		c0.8,0.5,1.4,1.2,1.8,2c0.4,0.9,0.4,1.7,0,2.7s-1.1,1.6-2.1,2.1s-1.8,0.2-2.2-0.8c-0.3-0.7-0.1-2.1,0.8-4.3
		c-0.2-0.1-0.5-0.2-0.9-0.4s-0.8-0.3-1-0.4c-0.2-0.1-0.5-0.3-0.9-0.5c-0.6-0.4-1.1-0.9-1.4-1.6c-0.6-1.3-0.7-2.6-0.2-3.8
		c0.5-1.2,1.2-2.1,2.2-2.5c0.6-0.3,1.2-0.3,1.7-0.2c0.5,0.2,0.8,0.4,1,0.8c0.4,0.8,0.3,1.2,0,1.4C99.3,32.7,99.1,32.7,99,32.5z
		 M99.9,40.2c-0.5,1.3-0.6,2.3-0.4,2.8c0.3,0.6,0.7,0.7,1.2,0.4c0.3-0.2,0.6-0.4,0.7-0.8C101.7,41.8,101.2,41,99.9,40.2z"/>
	<path class="st9" d="M111.2,33.4c-0.3,4.6-1.1,7.2-2.4,7.7c-1.3,0.5-2.1,0.6-2.4,0.4c-0.3-0.2-0.8-1.2-1.5-2.9s-1.4-4.2-2.4-7.5
		c-1.3,0.2-2.1,0-2.4-0.7c-0.1-0.4,0-0.7,0.5-0.8c0.5-0.2,1-0.3,1.4-0.2c-0.4-1.8-0.8-3.5-1.2-5.4c-0.1-0.5,0-1,0.2-1.5
		c0.2-0.5,0.5-0.9,0.9-1c0.3-0.1,0.6,0.3,1,1.3c0.2,0.4,0.8,2.5,1.9,6.3c0.6-0.4,1.2-0.9,1.8-1.5c0.6-0.6,1-1,1.1-1
		c0.4-0.2,0.7-0.1,0.8,0.1c0.1,0.2-0.2,0.7-0.9,1.5c-0.7,0.7-1.6,1.4-2.5,2c1,3.5,1.9,6.1,2.6,7.9c0.4,0.9,0.7,1.3,1,1.2
		c0.4-0.2,0.8-0.9,1.1-2.1s0.5-2.7,0.6-4.5c0.1-1.8,0.2-2.7,0.4-2.8s0.3,0,0.3,0.2C111.2,30.6,111.3,31.7,111.2,33.4z"/>
	<path class="st9" d="M116.6,38.3c-1.3,0.4-2.5,0.2-3.6-0.6s-1.8-1.8-2.2-3.1c-0.8-2.6-0.8-4.7-0.1-6.4c0.7-1.7,1.9-2.8,3.7-3.3
		c0.8-0.2,1.5-0.2,2.2,0.1c0.7,0.3,1.1,0.8,1.3,1.6c0.4,1.4,0.2,2.8-0.7,4.1c-0.9,1.3-2.2,2.3-4,2.9c0.4,0.9,0.9,1.6,1.7,2.1
		s1.5,0.7,2.2,0.5c0.7-0.2,1.3-0.6,1.8-1.1c0.5-0.5,0.9-1.1,1.1-1.9c0.6-1.6,1-3.4,1.2-5.2c0.1-0.5,0.1-0.8,0.2-1.1
		c0-0.2,0.1-0.4,0.3-0.4c0.1,0,0.2,0,0.3,0.2c0.4,1.2,0.2,3.2-0.6,6C120.5,35.8,118.9,37.6,116.6,38.3z M112.9,32.8
		c1.3-0.7,2.2-1.4,2.7-2.3c0.5-0.9,0.5-1.8,0.2-2.9c-0.3-1.1-0.8-1.5-1.5-1.3c-0.8,0.3-1.4,1-1.6,2.4
		C112.4,30,112.5,31.3,112.9,32.8z"/>
	<path class="st9" d="M132.7,34.5c-0.8,0.2-1.5,0.1-2.1-0.2c-0.2-0.2-0.4-0.7-0.6-1.5c-0.2-0.8-0.3-1.9-0.5-3.3
		c-0.3,1.9-0.7,3.4-1.2,4.4c-0.5,1-1.3,1.7-2.3,1.9c-1,0.2-2-0.1-2.9-0.8c-0.9-0.8-1.5-2.1-1.9-4.1s-0.2-3.8,0.7-5.6
		c0.8-1.7,2.1-2.8,3.9-3.1c0.9-0.2,1.9,0,3,0.5c-0.5-4.8-0.7-7.6-0.5-8.3c0.1-0.3,0.4-0.8,0.8-1.4c0.5-0.6,0.9-1,1.2-1
		c0.4-0.1,0.7,0.5,0.9,1.6c0.3,1.3,0.4,2.5,0.3,3.6c-0.2,2.6-0.3,4.3-0.3,5c0.2,2.7,0.6,5.8,1.3,9.4c0.1,0.7,0.3,1,0.4,0.9
		c0.4-0.1,0.9-0.7,1.5-1.9c0.5-1.1,1-2.6,1.4-4.3c0.4-1.7,0.7-2.6,0.9-2.7c0.2,0,0.3,0.1,0.3,0.2c0.1,0.7,0,1.8-0.4,3.5
		C135.3,31.8,134,34.2,132.7,34.5z M125.8,23.5c-0.7,0.1-1.2,0.8-1.7,2s-0.6,2.5-0.3,3.8c0.3,1.4,0.7,2.5,1.2,3.3
		c0.5,0.8,1.1,1.2,1.6,1.1c1.1-0.2,1.9-2.7,2.5-7.3c-0.1-1.4-0.2-2.2-0.3-2.4C128,23.4,127,23.3,125.8,23.5z"/>
	<path class="st9" d="M137.9,33.9c-0.4-0.2-0.6-0.6-0.6-1.1c-0.1-0.5,0.1-1,0.6-1.4c0.5-0.4,0.9-0.6,1.3-0.6c0.4,0,0.8,0,1.1,0.2
		c0.3,0.2,0.5,0.5,0.5,0.8c0.2,1.4-0.4,2.1-1.8,2.3C138.6,34.2,138.2,34.1,137.9,33.9z"/>
	<path class="st9" d="M144.2,33.3c-0.4-0.2-0.6-0.6-0.6-1.1c0-0.5,0.2-1,0.7-1.3c0.5-0.3,0.9-0.5,1.4-0.6c0.4,0,0.8,0.1,1.1,0.3
		c0.3,0.2,0.5,0.5,0.5,0.9c0.1,1.4-0.5,2.1-1.9,2.2C145,33.6,144.6,33.5,144.2,33.3z"/>
	<path class="st9" d="M150.6,32.9c-0.4-0.2-0.5-0.6-0.5-1.2c0-0.5,0.2-1,0.7-1.3c0.5-0.3,1-0.5,1.4-0.5s0.8,0.1,1.1,0.3
		c0.3,0.2,0.4,0.5,0.4,0.9c0,1.4-0.6,2.1-2,2.1C151.3,33.3,151,33.2,150.6,32.9z"/>
	<path class="st9" d="M157.6,32.8c-0.4-0.2-0.5-0.6-0.5-1.2s0.2-1,0.7-1.3c0.5-0.3,0.9-0.5,1.4-0.5c0.4,0,0.8,0.1,1.1,0.3
		c0.3,0.2,0.4,0.5,0.4,0.9c0,1.4-0.6,2.1-2,2.1C158.3,33.2,157.9,33.1,157.6,32.8z"/>
</g>
</svg>
