<?xml version="1.0" encoding="utf-8"?>
<!-- Generator: Adobe Illustrator 20.0.0, SVG Export Plug-In . SVG Version: 6.00 Build 0)  -->
<svg version="1.1" id="Layer_1" xmlns="http://www.w3.org/2000/svg" xmlns:xlink="http://www.w3.org/1999/xlink" x="0px" y="0px"
	 viewBox="0 0 300 249" style="enable-background:new 0 0 300 249;" xml:space="preserve">
<style type="text/css">
	.st0{fill:#563819;}
	.st1{fill:#6D481D;}
	.st2{fill:#A56D3E;}
</style>
<g>
	<path class="st0" d="M17.1,146.6c-2.3-6.7,3.4-14.8,12.7-17.9s18.7-0.3,21,6.4"/>
	<path class="st0" d="M50.8,135.1c1.2,7.4-3.9,15.4-13.7,18.4c-9.8,3-18.7-2-21-8.7"/>
	
		<ellipse transform="matrix(0.9463 -0.3234 0.3234 0.9463 -43.1385 18.2324)" class="st1" cx="33.3" cy="138.9" rx="18.2" ry="12.5"/>
	<g>
		<path class="st2" d="M36.8,136.9c0,0,0.2-0.6,0.7-1.3c0.2-0.4,0.5-0.8,0.8-1.2c0.3-0.5,0.6-0.9,0.8-1.4c0.3-0.5,0.5-1,0.7-1.4
			c0.1-0.2,0.2-0.5,0.2-0.7c0.1-0.2,0.1-0.4,0.2-0.6c0.1-0.4,0.1-0.8,0.1-1c0-0.3,0-0.4,0-0.4s0.1,0.1,0.2,0.4
			c0.1,0.1,0.1,0.3,0.1,0.5c0,0.2,0.1,0.4,0.1,0.6c0.1,0.5,0,1-0.1,1.6c-0.1,0.3-0.2,0.6-0.3,0.8c-0.1,0.3-0.3,0.5-0.4,0.8
			c-0.3,0.5-0.6,1-1,1.4c-0.4,0.4-0.7,0.8-1,1.1C37.3,136.5,36.8,136.9,36.8,136.9z"/>
	</g>
	<g>
		<path class="st2" d="M25.7,140.1c0,0,0.1-0.4,0.4-1c0.3-0.6,0.7-1.3,1.1-1.9c0.4-0.7,0.7-1.4,0.8-1.9c0.1-0.3,0.1-0.5,0.2-0.7
			c0-0.2,0.1-0.3,0.1-0.3s0.1,0.1,0.1,0.3c0.1,0.2,0.2,0.4,0.2,0.8c0.1,0.3,0,0.7-0.1,1.2c-0.1,0.4-0.3,0.8-0.5,1.2
			c-0.4,0.8-1,1.4-1.5,1.8C26,139.9,25.7,140.1,25.7,140.1z"/>
	</g>
	<g>
		<path class="st2" d="M34.9,137.8c0,0,0.4-0.1,1.1-0.1c0.6,0,1.5,0.1,2.3,0.4c0.4,0.2,0.8,0.4,1.1,0.7c0.3,0.3,0.6,0.6,0.8,0.9
			c0.2,0.3,0.3,0.6,0.3,0.7c0,0.2,0.1,0.3,0.1,0.3s-0.1-0.1-0.2-0.2c-0.1-0.1-0.3-0.3-0.6-0.5c-0.5-0.4-1.1-0.7-1.9-1
			c-0.7-0.3-1.5-0.6-2.1-0.8C35.3,138,34.9,137.8,34.9,137.8z"/>
	</g>
	<g>
		<path class="st2" d="M35.1,144.7c0,0-0.5-0.3-1.1-0.9c-0.3-0.3-0.7-0.6-1.1-1c-0.4-0.4-0.8-0.7-1.2-1.1c-0.4-0.4-0.8-0.7-1.3-1
			c-0.2-0.1-0.4-0.3-0.6-0.4c-0.2-0.1-0.4-0.2-0.6-0.3c-0.4-0.2-0.7-0.3-1-0.3c-0.2-0.1-0.4-0.1-0.4-0.1s0.1,0,0.4-0.1
			c0.1,0,0.3-0.1,0.5,0c0.2,0,0.4,0,0.6,0c0.5,0,1,0.2,1.5,0.4c0.3,0.1,0.5,0.3,0.8,0.4c0.3,0.2,0.5,0.4,0.7,0.5
			c0.4,0.4,0.9,0.8,1.2,1.3c0.3,0.4,0.6,0.9,0.9,1.2C34.8,144.2,35.1,144.7,35.1,144.7z"/>
	</g>
	<path class="st2" d="M18.5,143.3c0,0,14.9-9.2,29.1-8.9"/>
</g>
<path class="st0" d="M113.3,149.1c-3.6-6.1,0.3-15.1,8.8-20.1c8.5-5,18.3-4.1,21.9,2.1"/>
<path class="st0" d="M144,131c2.7,7-0.7,15.9-9.7,20.8c-9,4.9-18.7,1.9-22.4-4.3"/>
<ellipse transform="matrix(0.8613 -0.5081 0.5081 0.8613 -52.5886 84.0271)" class="st1" cx="127.6" cy="138.3" rx="18.2" ry="12.5"/>
<g>
	<path class="st2" d="M130.6,135.6c0,0,0.1-0.6,0.4-1.4c0.1-0.4,0.3-0.9,0.5-1.4c0.2-0.5,0.4-1,0.5-1.5c0.2-0.5,0.3-1,0.4-1.5
		c0-0.2,0.1-0.5,0.1-0.7c0-0.2,0-0.5,0-0.7c0-0.4,0-0.8-0.1-1c0-0.3,0-0.4,0-0.4s0.1,0.1,0.2,0.3c0.1,0.1,0.2,0.2,0.2,0.4
		c0.1,0.2,0.2,0.4,0.2,0.6c0.1,0.4,0.2,1,0.2,1.6c0,0.3,0,0.6-0.1,0.9c-0.1,0.3-0.1,0.6-0.2,0.9c-0.2,0.6-0.4,1.1-0.7,1.6
		c-0.3,0.5-0.5,0.9-0.8,1.3C131.1,135.2,130.6,135.6,130.6,135.6z"/>
</g>
<g>
	<path class="st2" d="M118.8,141.6c0,0,0-0.4,0.2-1.1c0.2-0.6,0.5-1.4,0.7-2.1c0.2-0.7,0.4-1.5,0.4-2.1c0-0.3,0-0.6,0-0.7
		c0-0.2,0-0.3,0-0.3s0.1,0.1,0.2,0.2c0.1,0.2,0.3,0.4,0.4,0.7c0.1,0.3,0.2,0.7,0.2,1.2c0,0.4-0.1,0.9-0.2,1.3
		c-0.3,0.8-0.7,1.6-1.1,2.1C119.2,141.3,118.8,141.6,118.8,141.6z"/>
</g>
<g>
	<path class="st2" d="M128.9,136.9c0,0,0.4-0.2,1-0.3c0.6-0.1,1.5-0.2,2.4,0c0.4,0.1,0.9,0.2,1.3,0.4c0.4,0.2,0.7,0.4,0.9,0.7
		c0.2,0.2,0.4,0.5,0.5,0.7c0.1,0.2,0.1,0.3,0.1,0.3s-0.1-0.1-0.3-0.1c-0.2-0.1-0.4-0.2-0.7-0.3c-0.5-0.3-1.3-0.5-2-0.6
		c-0.8-0.1-1.6-0.2-2.2-0.4C129.4,137.1,128.9,136.9,128.9,136.9z"/>
</g>
<g>
	<path class="st2" d="M130.5,143.6c0,0-0.6-0.2-1.3-0.7c-0.4-0.2-0.8-0.5-1.3-0.8c-0.5-0.3-0.9-0.6-1.4-0.8c-0.5-0.3-1-0.5-1.4-0.7
		c-0.2-0.1-0.5-0.2-0.7-0.2c-0.2-0.1-0.4-0.1-0.6-0.2c-0.4-0.1-0.8-0.1-1-0.1c-0.3,0-0.4,0-0.4,0s0.1-0.1,0.4-0.2
		c0.1-0.1,0.3-0.1,0.5-0.1c0.2,0,0.4-0.1,0.6-0.1c0.5-0.1,1,0,1.6,0.1c0.3,0.1,0.6,0.1,0.8,0.3c0.3,0.1,0.5,0.2,0.8,0.4
		c0.5,0.3,1,0.6,1.4,1c0.4,0.4,0.8,0.7,1.1,1C130.2,143.2,130.5,143.6,130.5,143.6z"/>
</g>
<path class="st2" d="M114,145.6c0,0,12.7-12,26.7-14.6"/>
<path class="st0" d="M207.1,151.9c-4-5.9-0.6-15.1,7.5-20.6c8.1-5.5,18-5.2,22,0.7"/>
<path class="st0" d="M236.5,131.9c3.1,6.8,0.3,15.9-8.3,21.4c-8.7,5.5-18.6,3-22.6-2.8"/>
<ellipse transform="matrix(0.8275 -0.5614 0.5614 0.8275 -40.6805 148.09)" class="st1" cx="220.7" cy="140.3" rx="18.2" ry="12.5"/>
<g>
	<path class="st2" d="M223.5,137.3c0,0,0.1-0.6,0.3-1.4c0.1-0.4,0.3-0.9,0.4-1.4c0.1-0.5,0.3-1,0.4-1.6c0.1-0.5,0.2-1.1,0.3-1.6
		c0-0.2,0.1-0.5,0-0.7c0-0.2,0-0.5,0-0.7c0-0.4-0.1-0.8-0.1-1c0-0.3-0.1-0.4-0.1-0.4s0.1,0.1,0.3,0.3c0.1,0.1,0.2,0.2,0.3,0.4
		c0.1,0.2,0.2,0.3,0.3,0.6c0.2,0.4,0.3,1,0.3,1.5c0,0.3,0,0.6-0.1,0.9c0,0.3-0.1,0.6-0.2,0.9c-0.2,0.6-0.4,1.1-0.6,1.6
		c-0.2,0.5-0.5,0.9-0.7,1.3C223.9,136.9,223.5,137.3,223.5,137.3z"/>
</g>
<g>
	<path class="st2" d="M213.6,143.4c0,0,0-0.4,0.2-1.1c0.1-0.6,0.4-1.4,0.6-2.2c0.2-0.8,0.3-1.5,0.3-2.1c0-0.3,0-0.6,0-0.7
		c0-0.2,0-0.3,0-0.3s0.1,0.1,0.2,0.2c0.1,0.1,0.3,0.4,0.4,0.7c0.1,0.3,0.2,0.7,0.3,1.1c0,0.4,0,0.9-0.1,1.3c-0.2,0.9-0.6,1.6-1,2.1
		C213.9,143.1,213.6,143.4,213.6,143.4z"/>
</g>
<g>
	<path class="st2" d="M221.9,138.7c0,0,0.4-0.2,1-0.3c0.6-0.2,1.5-0.3,2.4-0.2c0.4,0.1,0.9,0.2,1.3,0.3c0.4,0.2,0.7,0.4,1,0.6
		c0.2,0.2,0.4,0.5,0.5,0.6c0.1,0.2,0.1,0.3,0.1,0.3s-0.1,0-0.3-0.1c-0.2-0.1-0.4-0.2-0.7-0.3c-0.5-0.2-1.3-0.4-2.1-0.5
		c-0.8-0.1-1.6-0.1-2.2-0.2C222.3,138.9,221.9,138.7,221.9,138.7z"/>
</g>
<g>
	<path class="st2" d="M223.9,145.4c0,0-0.6-0.2-1.3-0.6c-0.4-0.2-0.8-0.4-1.3-0.7c-0.5-0.2-1-0.5-1.5-0.7c-0.5-0.2-1-0.4-1.5-0.6
		c-0.2-0.1-0.5-0.2-0.7-0.2c-0.2,0-0.4-0.1-0.6-0.1c-0.4-0.1-0.8-0.1-1-0.1c-0.3,0-0.4,0-0.4,0s0.1-0.1,0.4-0.2
		c0.1-0.1,0.3-0.1,0.4-0.2c0.2-0.1,0.4-0.1,0.6-0.1c0.5-0.1,1-0.1,1.6,0c0.3,0.1,0.6,0.1,0.9,0.2c0.3,0.1,0.6,0.2,0.8,0.3
		c0.5,0.3,1.1,0.6,1.5,0.9c0.4,0.3,0.8,0.7,1.2,1C223.5,144.9,223.9,145.4,223.9,145.4z"/>
</g>
<path class="st2" d="M207.6,148.4c0,0,12-12.8,25.7-16.3"/>
</svg>
