<?xml version="1.0" encoding="utf-8"?>
<!-- Generator: Adobe Illustrator 20.0.0, SVG Export Plug-In . SVG Version: 6.00 Build 0)  -->
<svg version="1.1" id="Layer_1" xmlns="http://www.w3.org/2000/svg" xmlns:xlink="http://www.w3.org/1999/xlink" x="0px" y="0px"
	 viewBox="0 0 300 249" style="enable-background:new 0 0 300 249;" xml:space="preserve">
<style type="text/css">
	.st0{fill:#563819;}
	.st1{fill:#6D481D;}
	.st2{fill:#A56D3E;}
</style>
<g>
	<path class="st0" d="M64.1,129.7c4.4-5.6,14.2-5.3,22,0.8c7.8,6,10.5,15.5,6.1,21.1"/>
	<path class="st0" d="M92.2,151.6c-5.5,5.1-15,5.2-22.9-1.3c-7.9-6.6-8.6-16.7-4.2-22.4"/>
	
		<ellipse transform="matrix(0.6145 -0.7889 0.7889 0.6145 -79.1237 116.259)" class="st1" cx="79.4" cy="139.1" rx="12.5" ry="18.2"/>
	<g>
		<path class="st2" d="M83.1,140.9c0,0,0.6-0.1,1.5-0.1c0.4,0,0.9,0,1.5,0c0.5,0,1.1,0,1.6-0.1c0.5,0,1.1-0.1,1.6-0.2
			c0.2-0.1,0.5-0.1,0.7-0.2c0.2-0.1,0.4-0.1,0.6-0.2c0.4-0.2,0.7-0.3,0.9-0.4c0.2-0.1,0.4-0.2,0.4-0.2s-0.1,0.1-0.2,0.3
			c-0.1,0.1-0.2,0.2-0.3,0.4c-0.1,0.1-0.3,0.3-0.5,0.4c-0.4,0.3-0.8,0.5-1.4,0.7c-0.3,0.1-0.6,0.2-0.9,0.2c-0.3,0.1-0.6,0.1-0.9,0.1
			c-0.6,0-1.2,0-1.7-0.1c-0.5-0.1-1.1-0.2-1.5-0.3C83.6,141.1,83.1,140.9,83.1,140.9z"/>
	</g>
	<g>
		<path class="st2" d="M74.2,133.3c0,0,0.4-0.1,1.1-0.2c0.6-0.1,1.4-0.1,2.2-0.1c0.8,0,1.5-0.2,2.1-0.4c0.3-0.1,0.5-0.2,0.7-0.3
			c0.2-0.1,0.3-0.1,0.3-0.1s0,0.1-0.1,0.3c-0.1,0.2-0.3,0.4-0.5,0.6c-0.3,0.2-0.6,0.4-1,0.6c-0.4,0.2-0.8,0.2-1.3,0.3
			c-0.9,0-1.7-0.1-2.3-0.3C74.6,133.5,74.2,133.3,74.2,133.3z"/>
	</g>
	<g>
		<path class="st2" d="M81.2,139.8c0,0,0.3,0.3,0.6,0.9c0.3,0.5,0.7,1.3,0.9,2.2c0.1,0.4,0.1,0.9,0.1,1.3c0,0.4-0.1,0.8-0.3,1.1
			c-0.1,0.3-0.3,0.5-0.5,0.7c-0.1,0.1-0.2,0.2-0.2,0.2s0-0.1,0-0.3c0-0.2,0.1-0.4,0.1-0.7c0-0.6,0-1.3-0.2-2.1
			c-0.2-0.8-0.4-1.6-0.5-2.2C81.2,140.3,81.2,139.8,81.2,139.8z"/>
	</g>
	<g>
		<path class="st2" d="M75.5,143.7c0,0,0-0.6,0.1-1.5c0.1-0.4,0.1-0.9,0.2-1.4c0.1-0.5,0.2-1.1,0.3-1.6c0.1-0.5,0.1-1.1,0.1-1.6
			c0-0.2,0-0.5,0-0.7c0-0.2,0-0.5-0.1-0.7c-0.1-0.4-0.2-0.8-0.3-1c-0.1-0.2-0.1-0.4-0.1-0.4s0.1,0.1,0.3,0.3
			c0.1,0.1,0.2,0.2,0.3,0.4c0.1,0.1,0.2,0.3,0.3,0.5c0.2,0.4,0.4,0.9,0.5,1.5c0,0.3,0.1,0.6,0.1,0.9c0,0.3,0,0.6-0.1,0.9
			c-0.1,0.6-0.2,1.2-0.4,1.7c-0.2,0.5-0.4,1-0.6,1.4C75.9,143.2,75.5,143.7,75.5,143.7z"/>
	</g>
	<path class="st2" d="M67.7,129.1c0,0,15.9,7.4,23.4,19.4"/>
</g>
<path class="st0" d="M159.1,132.7c3.9-6,13.7-6.4,21.9-1.1c8.2,5.4,11.8,14.5,7.9,20.5"/>
<path class="st0" d="M188.9,152.1c-5.1,5.5-14.6,6.5-23,0.6c-8.4-5.9-10-16-6.1-21.9"/>
<ellipse transform="matrix(0.5461 -0.8377 0.8377 0.5461 -38.3706 210.5685)" class="st1" cx="175.1" cy="140.7" rx="12.5" ry="18.2"/>
<g>
	<path class="st2" d="M178.9,142.2c0,0,0.6-0.2,1.4-0.3c0.4-0.1,0.9-0.1,1.5-0.2c0.5-0.1,1.1-0.1,1.6-0.2c0.5-0.1,1.1-0.2,1.6-0.3
		c0.2-0.1,0.5-0.1,0.7-0.2c0.2-0.1,0.4-0.2,0.6-0.3c0.4-0.2,0.7-0.4,0.9-0.5c0.2-0.1,0.3-0.2,0.3-0.2s-0.1,0.1-0.2,0.4
		c-0.1,0.1-0.1,0.3-0.3,0.4c-0.1,0.1-0.2,0.3-0.4,0.5c-0.3,0.3-0.8,0.6-1.3,0.9c-0.3,0.1-0.5,0.2-0.8,0.3c-0.3,0.1-0.6,0.1-0.9,0.2
		c-0.6,0.1-1.2,0.1-1.7,0.1c-0.6,0-1.1-0.1-1.5-0.1C179.5,142.4,178.9,142.2,178.9,142.2z"/>
</g>
<g>
	<path class="st2" d="M169.5,135.4c0,0,0.4-0.2,1-0.3c0.6-0.1,1.4-0.2,2.2-0.3c0.8-0.1,1.5-0.3,2-0.5c0.3-0.1,0.5-0.2,0.7-0.3
		c0.2-0.1,0.3-0.1,0.3-0.1s0,0.1-0.1,0.3c-0.1,0.2-0.2,0.4-0.5,0.7c-0.2,0.3-0.6,0.5-1,0.7c-0.4,0.2-0.8,0.3-1.3,0.4
		c-0.9,0.1-1.7,0-2.4-0.1C169.9,135.6,169.5,135.4,169.5,135.4z"/>
</g>
<g>
	<path class="st2" d="M177,141.2c0,0,0.3,0.3,0.7,0.8c0.4,0.5,0.8,1.2,1.1,2.1c0.1,0.4,0.2,0.9,0.2,1.3c0,0.4-0.1,0.8-0.2,1.1
		c-0.1,0.3-0.3,0.6-0.4,0.7c-0.1,0.2-0.2,0.2-0.2,0.2s0-0.1,0-0.3c0-0.2,0-0.4,0-0.7c0-0.6-0.1-1.3-0.4-2.1
		c-0.2-0.7-0.5-1.5-0.6-2.1C177,141.7,177,141.2,177,141.2z"/>
</g>
<g>
	<path class="st2" d="M171.7,145.6c0,0,0-0.6,0-1.5c0-0.4,0.1-0.9,0.1-1.5c0-0.5,0.1-1.1,0.1-1.6c0-0.5,0-1.1,0-1.6
		c0-0.2,0-0.5-0.1-0.7c0-0.2-0.1-0.4-0.1-0.6c-0.1-0.4-0.2-0.7-0.3-1c-0.1-0.2-0.2-0.4-0.2-0.4s0.1,0.1,0.3,0.3
		c0.1,0.1,0.2,0.2,0.3,0.3c0.1,0.1,0.3,0.3,0.4,0.5c0.3,0.4,0.4,0.9,0.6,1.5c0,0.3,0.1,0.6,0.1,0.9c0,0.3,0,0.6,0,0.9
		c0,0.6-0.1,1.2-0.3,1.7c-0.1,0.5-0.3,1-0.4,1.4C171.9,145.1,171.7,145.6,171.7,145.6z"/>
</g>
<path class="st2" d="M162.6,131.8c0,0,16.4,6.1,25,17.4"/>
<path class="st0" d="M252.4,133.2c3.9-6,13.7-6.4,21.9-1.1c8.2,5.4,11.8,14.5,7.9,20.5"/>
<path class="st0" d="M282.2,152.6c-5.1,5.5-14.6,6.5-23,0.6c-8.4-5.9-10-16-6.1-21.9"/>
<ellipse transform="matrix(0.5461 -0.8377 0.8377 0.5461 3.5198 288.9034)" class="st1" cx="268.4" cy="141.2" rx="12.5" ry="18.2"/>
<g>
	<path class="st2" d="M272.2,142.7c0,0,0.6-0.2,1.4-0.3c0.4-0.1,0.9-0.1,1.5-0.2c0.5-0.1,1.1-0.1,1.6-0.2c0.5-0.1,1.1-0.2,1.6-0.3
		c0.2-0.1,0.5-0.1,0.7-0.2c0.2-0.1,0.4-0.2,0.6-0.3c0.4-0.2,0.7-0.4,0.9-0.5c0.2-0.1,0.3-0.2,0.3-0.2s-0.1,0.1-0.2,0.4
		c-0.1,0.1-0.1,0.3-0.3,0.4c-0.1,0.1-0.2,0.3-0.4,0.5c-0.3,0.3-0.8,0.6-1.3,0.9c-0.3,0.1-0.5,0.2-0.8,0.3c-0.3,0.1-0.6,0.1-0.9,0.2
		c-0.6,0.1-1.2,0.1-1.7,0.1c-0.6,0-1.1-0.1-1.5-0.1C272.7,142.9,272.2,142.7,272.2,142.7z"/>
</g>
<g>
	<path class="st2" d="M262.7,135.9c0,0,0.4-0.2,1-0.3c0.6-0.1,1.4-0.2,2.2-0.3c0.8-0.1,1.5-0.3,2-0.5c0.3-0.1,0.5-0.2,0.7-0.3
		c0.2-0.1,0.3-0.1,0.3-0.1s0,0.1-0.1,0.3c-0.1,0.2-0.2,0.4-0.5,0.7c-0.2,0.3-0.6,0.5-1,0.7c-0.4,0.2-0.8,0.3-1.3,0.4
		c-0.9,0.1-1.7,0-2.4-0.1C263.1,136.1,262.7,135.9,262.7,135.9z"/>
</g>
<g>
	<path class="st2" d="M270.2,141.8c0,0,0.3,0.3,0.7,0.8c0.4,0.5,0.8,1.2,1.1,2.1c0.1,0.4,0.2,0.9,0.2,1.3c0,0.4-0.1,0.8-0.2,1.1
		c-0.1,0.3-0.3,0.6-0.4,0.7c-0.1,0.2-0.2,0.2-0.2,0.2s0-0.1,0-0.3c0-0.2,0-0.4,0-0.7c0-0.6-0.1-1.3-0.4-2.1
		c-0.2-0.7-0.5-1.5-0.6-2.1C270.3,142.2,270.2,141.8,270.2,141.8z"/>
</g>
<g>
	<path class="st2" d="M264.9,146.2c0,0,0-0.6,0-1.5c0-0.4,0.1-0.9,0.1-1.5c0-0.5,0.1-1.1,0.1-1.6c0-0.5,0-1.1,0-1.6
		c0-0.2,0-0.5-0.1-0.7c0-0.2-0.1-0.4-0.1-0.6c-0.1-0.4-0.2-0.7-0.3-1c-0.1-0.2-0.2-0.4-0.2-0.4s0.1,0.1,0.3,0.3
		c0.1,0.1,0.2,0.2,0.3,0.3c0.1,0.1,0.3,0.3,0.4,0.5c0.3,0.4,0.4,0.9,0.6,1.5c0,0.3,0.1,0.6,0.1,0.9c0,0.3,0,0.6,0,0.9
		c0,0.6-0.1,1.2-0.3,1.7c-0.1,0.5-0.3,1-0.4,1.4C265.2,145.6,264.9,146.2,264.9,146.2z"/>
</g>
<path class="st2" d="M255.8,132.3c0,0,16.4,6.1,25,17.4"/>
</svg>
