<?xml version="1.0" encoding="utf-8"?>
<!-- Generator: Adobe Illustrator 20.0.0, SVG Export Plug-In . SVG Version: 6.00 Build 0)  -->
<svg version="1.1" id="Layer_1" xmlns="http://www.w3.org/2000/svg" xmlns:xlink="http://www.w3.org/1999/xlink" x="0px" y="0px"
	 viewBox="0 0 300 249" style="enable-background:new 0 0 300 249;" xml:space="preserve">
<style type="text/css">
	.st0{fill:#563819;}
	.st1{fill:#6D481D;}
	.st2{fill:#A56D3E;}
</style>
<g>
	<path class="st0" d="M64.1,131.1c4.4-5.6,14.2-5.3,22,0.8c7.8,6,10.5,15.5,6.1,21.1"/>
	<path class="st0" d="M92.2,152.9c-5.5,5.1-15,5.2-22.9-1.3c-7.9-6.6-8.6-16.7-4.2-22.4"/>
	
		<ellipse transform="matrix(0.6145 -0.7889 0.7889 0.6145 -80.1625 116.7666)" class="st1" cx="79.4" cy="140.4" rx="12.5" ry="18.2"/>
	<g>
		<path class="st2" d="M83.1,142.2c0,0,0.6-0.1,1.5-0.1c0.4,0,0.9,0,1.5,0c0.5,0,1.1,0,1.6-0.1c0.5,0,1.1-0.1,1.6-0.2
			c0.2-0.1,0.5-0.1,0.7-0.2c0.2-0.1,0.4-0.1,0.6-0.2c0.4-0.2,0.7-0.3,0.9-0.4c0.2-0.1,0.4-0.2,0.4-0.2s-0.1,0.1-0.2,0.3
			c-0.1,0.1-0.2,0.2-0.3,0.4c-0.1,0.1-0.3,0.3-0.5,0.4c-0.4,0.3-0.8,0.5-1.4,0.7c-0.3,0.1-0.6,0.2-0.9,0.2c-0.3,0.1-0.6,0.1-0.9,0.1
			c-0.6,0-1.2,0-1.7-0.1c-0.5-0.1-1.1-0.2-1.5-0.3C83.6,142.5,83.1,142.2,83.1,142.2z"/>
	</g>
	<g>
		<path class="st2" d="M74.2,134.7c0,0,0.4-0.1,1.1-0.2c0.6-0.1,1.4-0.1,2.2-0.1c0.8,0,1.5-0.2,2.1-0.4c0.3-0.1,0.5-0.2,0.7-0.3
			c0.2-0.1,0.3-0.1,0.3-0.1s0,0.1-0.1,0.3c-0.1,0.2-0.3,0.4-0.5,0.6c-0.3,0.2-0.6,0.4-1,0.6c-0.4,0.2-0.8,0.2-1.3,0.3
			c-0.9,0-1.7-0.1-2.3-0.3C74.6,134.9,74.2,134.7,74.2,134.7z"/>
	</g>
	<g>
		<path class="st2" d="M81.2,141.1c0,0,0.3,0.3,0.6,0.9c0.3,0.5,0.7,1.3,0.9,2.2c0.1,0.4,0.1,0.9,0.1,1.3c0,0.4-0.1,0.8-0.3,1.1
			c-0.1,0.3-0.3,0.5-0.5,0.7c-0.1,0.1-0.2,0.2-0.2,0.2s0-0.1,0-0.3c0-0.2,0.1-0.4,0.1-0.7c0-0.6,0-1.3-0.2-2.1
			c-0.2-0.8-0.4-1.6-0.5-2.2C81.2,141.6,81.2,141.1,81.2,141.1z"/>
	</g>
	<g>
		<path class="st2" d="M75.5,145.1c0,0,0-0.6,0.1-1.5c0.1-0.4,0.1-0.9,0.2-1.4c0.1-0.5,0.2-1.1,0.3-1.6c0.1-0.5,0.1-1.1,0.1-1.6
			c0-0.2,0-0.5,0-0.7c0-0.2,0-0.5-0.1-0.7c-0.1-0.4-0.2-0.8-0.3-1c-0.1-0.2-0.1-0.4-0.1-0.4s0.1,0.1,0.3,0.3
			c0.1,0.1,0.2,0.2,0.3,0.4c0.1,0.1,0.2,0.3,0.3,0.5c0.2,0.4,0.4,0.9,0.5,1.5c0,0.3,0.1,0.6,0.1,0.9c0,0.3,0,0.6-0.1,0.9
			c-0.1,0.6-0.2,1.2-0.4,1.7c-0.2,0.5-0.4,1-0.6,1.4C75.9,144.6,75.5,145.1,75.5,145.1z"/>
	</g>
	<path class="st2" d="M67.7,130.5c0,0,15.9,7.4,23.4,19.4"/>
</g>
<g>
	<path class="st0" d="M17.1,147.9c-2.3-6.7,3.4-14.8,12.7-17.9c9.3-3.2,18.7-0.3,21,6.4"/>
	<path class="st0" d="M50.8,136.4c1.2,7.4-3.9,15.4-13.7,18.4c-9.8,3-18.7-2-21-8.7"/>
	
		<ellipse transform="matrix(0.9463 -0.3234 0.3234 0.9463 -43.5643 18.3031)" class="st1" cx="33.3" cy="140.3" rx="18.2" ry="12.5"/>
	<g>
		<path class="st2" d="M36.8,138.2c0,0,0.2-0.6,0.7-1.3c0.2-0.4,0.5-0.8,0.8-1.2c0.3-0.5,0.6-0.9,0.8-1.4c0.3-0.5,0.5-1,0.7-1.4
			c0.1-0.2,0.2-0.5,0.2-0.7c0.1-0.2,0.1-0.4,0.2-0.6c0.1-0.4,0.1-0.8,0.1-1c0-0.3,0-0.4,0-0.4s0.1,0.1,0.2,0.4
			c0.1,0.1,0.1,0.3,0.1,0.5c0,0.2,0.1,0.4,0.1,0.6c0.1,0.5,0,1-0.1,1.6c-0.1,0.3-0.2,0.6-0.3,0.8c-0.1,0.3-0.3,0.5-0.4,0.8
			c-0.3,0.5-0.6,1-1,1.4c-0.4,0.4-0.7,0.8-1,1.1C37.3,137.8,36.8,138.2,36.8,138.2z"/>
	</g>
	<g>
		<path class="st2" d="M25.7,141.4c0,0,0.1-0.4,0.4-1c0.3-0.6,0.7-1.3,1.1-1.9c0.4-0.7,0.7-1.4,0.8-1.9c0.1-0.3,0.1-0.5,0.2-0.7
			c0-0.2,0.1-0.3,0.1-0.3s0.1,0.1,0.1,0.3c0.1,0.2,0.2,0.4,0.2,0.8c0.1,0.3,0,0.7-0.1,1.2c-0.1,0.4-0.3,0.8-0.5,1.2
			c-0.4,0.8-1,1.4-1.5,1.8C26,141.2,25.7,141.4,25.7,141.4z"/>
	</g>
	<g>
		<path class="st2" d="M34.9,139.1c0,0,0.4-0.1,1.1-0.1c0.6,0,1.5,0.1,2.3,0.4c0.4,0.2,0.8,0.4,1.1,0.7c0.3,0.3,0.6,0.6,0.8,0.9
			c0.2,0.3,0.3,0.6,0.3,0.7c0,0.2,0.1,0.3,0.1,0.3s-0.1-0.1-0.2-0.2c-0.1-0.1-0.3-0.3-0.6-0.5c-0.5-0.4-1.1-0.7-1.9-1
			c-0.7-0.3-1.5-0.6-2.1-0.8C35.3,139.4,34.9,139.1,34.9,139.1z"/>
	</g>
	<g>
		<path class="st2" d="M35.1,146c0,0-0.5-0.3-1.1-0.9c-0.3-0.3-0.7-0.6-1.1-1c-0.4-0.4-0.8-0.7-1.2-1.1c-0.4-0.4-0.8-0.7-1.3-1
			c-0.2-0.1-0.4-0.3-0.6-0.4c-0.2-0.1-0.4-0.2-0.6-0.3c-0.4-0.2-0.7-0.3-1-0.3c-0.2-0.1-0.4-0.1-0.4-0.1s0.1,0,0.4-0.1
			c0.1,0,0.3-0.1,0.5,0c0.2,0,0.4,0,0.6,0c0.5,0,1,0.2,1.5,0.4c0.3,0.1,0.5,0.3,0.8,0.4c0.3,0.2,0.5,0.4,0.7,0.5
			c0.4,0.4,0.9,0.8,1.2,1.3c0.3,0.4,0.6,0.9,0.9,1.2C34.8,145.5,35.1,146,35.1,146z"/>
	</g>
	<path class="st2" d="M18.5,144.6c0,0,14.9-9.2,29.1-8.9"/>
</g>
<path class="st0" d="M113.3,150.4c-3.6-6.1,0.3-15.1,8.8-20.1c8.5-5,18.3-4.1,21.9,2.1"/>
<path class="st0" d="M144,132.3c2.7,7-0.7,15.9-9.7,20.8c-9,4.9-18.7,1.9-22.4-4.3"/>
<ellipse transform="matrix(0.8613 -0.5081 0.5081 0.8613 -53.2577 84.2098)" class="st1" cx="127.6" cy="139.7" rx="18.2" ry="12.5"/>
<g>
	<path class="st2" d="M130.6,136.9c0,0,0.1-0.6,0.4-1.4c0.1-0.4,0.3-0.9,0.5-1.4c0.2-0.5,0.4-1,0.5-1.5c0.2-0.5,0.3-1,0.4-1.5
		c0-0.2,0.1-0.5,0.1-0.7c0-0.2,0-0.5,0-0.7c0-0.4,0-0.8-0.1-1c0-0.3,0-0.4,0-0.4s0.1,0.1,0.2,0.3c0.1,0.1,0.2,0.2,0.2,0.4
		c0.1,0.2,0.2,0.4,0.2,0.6c0.1,0.4,0.2,1,0.2,1.6c0,0.3,0,0.6-0.1,0.9c-0.1,0.3-0.1,0.6-0.2,0.9c-0.2,0.6-0.4,1.1-0.7,1.6
		c-0.3,0.5-0.5,0.9-0.8,1.3C131.1,136.5,130.6,136.9,130.6,136.9z"/>
</g>
<g>
	<path class="st2" d="M118.8,142.9c0,0,0-0.4,0.2-1.1c0.2-0.6,0.5-1.4,0.7-2.1c0.2-0.7,0.4-1.5,0.4-2.1c0-0.3,0-0.6,0-0.7
		c0-0.2,0-0.3,0-0.3s0.1,0.1,0.2,0.2c0.1,0.2,0.3,0.4,0.4,0.7c0.1,0.3,0.2,0.7,0.2,1.2c0,0.4-0.1,0.9-0.2,1.3
		c-0.3,0.8-0.7,1.6-1.1,2.1C119.2,142.6,118.8,142.9,118.8,142.9z"/>
</g>
<g>
	<path class="st2" d="M128.9,138.2c0,0,0.4-0.2,1-0.3c0.6-0.1,1.5-0.2,2.4,0c0.4,0.1,0.9,0.2,1.3,0.4c0.4,0.2,0.7,0.4,0.9,0.7
		c0.2,0.2,0.4,0.5,0.5,0.7c0.1,0.2,0.1,0.3,0.1,0.3s-0.1-0.1-0.3-0.1c-0.2-0.1-0.4-0.2-0.7-0.3c-0.5-0.3-1.3-0.5-2-0.6
		c-0.8-0.1-1.6-0.2-2.2-0.4C129.4,138.4,128.9,138.2,128.9,138.2z"/>
</g>
<g>
	<path class="st2" d="M130.5,145c0,0-0.6-0.2-1.3-0.7c-0.4-0.2-0.8-0.5-1.3-0.8c-0.5-0.3-0.9-0.6-1.4-0.8c-0.5-0.3-1-0.5-1.4-0.7
		c-0.2-0.1-0.5-0.2-0.7-0.2c-0.2-0.1-0.4-0.1-0.6-0.2c-0.4-0.1-0.8-0.1-1-0.1c-0.3,0-0.4,0-0.4,0s0.1-0.1,0.4-0.2
		c0.1-0.1,0.3-0.1,0.5-0.1c0.2,0,0.4-0.1,0.6-0.1c0.5-0.1,1,0,1.6,0.1c0.3,0.1,0.6,0.1,0.8,0.3c0.3,0.1,0.5,0.2,0.8,0.4
		c0.5,0.3,1,0.6,1.4,1c0.4,0.4,0.8,0.7,1.1,1C130.2,144.5,130.5,145,130.5,145z"/>
</g>
<path class="st2" d="M114,146.9c0,0,12.7-12,26.7-14.6"/>
<path class="st0" d="M159.1,134c3.9-6,13.7-6.4,21.9-1.1c8.2,5.4,11.8,14.5,7.9,20.5"/>
<path class="st0" d="M188.9,153.4c-5.1,5.5-14.6,6.5-23,0.6c-8.4-5.9-10-16-6.1-21.9"/>
<ellipse transform="matrix(0.5461 -0.8377 0.8377 0.5461 -39.4737 211.1662)" class="st1" cx="175.1" cy="142" rx="12.5" ry="18.2"/>
<g>
	<path class="st2" d="M178.9,143.5c0,0,0.6-0.2,1.4-0.3c0.4-0.1,0.9-0.1,1.5-0.2c0.5-0.1,1.1-0.1,1.6-0.2c0.5-0.1,1.1-0.2,1.6-0.3
		c0.2-0.1,0.5-0.1,0.7-0.2c0.2-0.1,0.4-0.2,0.6-0.3c0.4-0.2,0.7-0.4,0.9-0.5c0.2-0.1,0.3-0.2,0.3-0.2s-0.1,0.1-0.2,0.4
		c-0.1,0.1-0.1,0.3-0.3,0.4c-0.1,0.1-0.2,0.3-0.4,0.5c-0.3,0.3-0.8,0.6-1.3,0.9c-0.3,0.1-0.5,0.2-0.8,0.3c-0.3,0.1-0.6,0.1-0.9,0.2
		c-0.6,0.1-1.2,0.1-1.7,0.1c-0.6,0-1.1-0.1-1.5-0.1C179.5,143.7,178.9,143.5,178.9,143.5z"/>
</g>
<g>
	<path class="st2" d="M169.5,136.7c0,0,0.4-0.2,1-0.3c0.6-0.1,1.4-0.2,2.2-0.3c0.8-0.1,1.5-0.3,2-0.5c0.3-0.1,0.5-0.2,0.7-0.3
		c0.2-0.1,0.3-0.1,0.3-0.1s0,0.1-0.1,0.3c-0.1,0.2-0.2,0.4-0.5,0.7c-0.2,0.3-0.6,0.5-1,0.7c-0.4,0.2-0.8,0.3-1.3,0.4
		c-0.9,0.1-1.7,0-2.4-0.1C169.9,136.9,169.5,136.7,169.5,136.7z"/>
</g>
<g>
	<path class="st2" d="M177,142.6c0,0,0.3,0.3,0.7,0.8c0.4,0.5,0.8,1.2,1.1,2.1c0.1,0.4,0.2,0.9,0.2,1.3c0,0.4-0.1,0.8-0.2,1.1
		c-0.1,0.3-0.3,0.6-0.4,0.7c-0.1,0.2-0.2,0.2-0.2,0.2s0-0.1,0-0.3c0-0.2,0-0.4,0-0.7c0-0.6-0.1-1.3-0.4-2.1
		c-0.2-0.7-0.5-1.5-0.6-2.1C177,143,177,142.6,177,142.6z"/>
</g>
<g>
	<path class="st2" d="M171.7,147c0,0,0-0.6,0-1.5c0-0.4,0.1-0.9,0.1-1.5c0-0.5,0.1-1.1,0.1-1.6c0-0.5,0-1.1,0-1.6
		c0-0.2,0-0.5-0.1-0.7c0-0.2-0.1-0.4-0.1-0.6c-0.1-0.4-0.2-0.7-0.3-1c-0.1-0.2-0.2-0.4-0.2-0.4s0.1,0.1,0.3,0.3
		c0.1,0.1,0.2,0.2,0.3,0.3c0.1,0.1,0.3,0.3,0.4,0.5c0.3,0.4,0.4,0.9,0.6,1.5c0,0.3,0.1,0.6,0.1,0.9c0,0.3,0,0.6,0,0.9
		c0,0.6-0.1,1.2-0.3,1.7c-0.1,0.5-0.3,1-0.4,1.4C171.9,146.4,171.7,147,171.7,147z"/>
</g>
<path class="st2" d="M162.6,133.1c0,0,16.4,6.1,25,17.4"/>
<path class="st0" d="M252.4,134.5c3.9-6,13.7-6.4,21.9-1.1c8.2,5.4,11.8,14.5,7.9,20.5"/>
<path class="st0" d="M282.2,153.9c-5.1,5.5-14.6,6.5-23,0.6c-8.4-5.9-10-16-6.1-21.9"/>
<ellipse transform="matrix(0.5461 -0.8377 0.8377 0.5461 2.4167 289.5011)" class="st1" cx="268.4" cy="142.5" rx="12.5" ry="18.2"/>
<g>
	<path class="st2" d="M272.2,144c0,0,0.6-0.2,1.4-0.3c0.4-0.1,0.9-0.1,1.5-0.2c0.5-0.1,1.1-0.1,1.6-0.2c0.5-0.1,1.1-0.2,1.6-0.3
		c0.2-0.1,0.5-0.1,0.7-0.2c0.2-0.1,0.4-0.2,0.6-0.3c0.4-0.2,0.7-0.4,0.9-0.5c0.2-0.1,0.3-0.2,0.3-0.2s-0.1,0.1-0.2,0.4
		c-0.1,0.1-0.1,0.3-0.3,0.4c-0.1,0.1-0.2,0.3-0.4,0.5c-0.3,0.3-0.8,0.6-1.3,0.9c-0.3,0.1-0.5,0.2-0.8,0.3c-0.3,0.1-0.6,0.1-0.9,0.2
		c-0.6,0.1-1.2,0.1-1.7,0.1c-0.6,0-1.1-0.1-1.5-0.1C272.7,144.2,272.2,144,272.2,144z"/>
</g>
<g>
	<path class="st2" d="M262.7,137.2c0,0,0.4-0.2,1-0.3c0.6-0.1,1.4-0.2,2.2-0.3c0.8-0.1,1.5-0.3,2-0.5c0.3-0.1,0.5-0.2,0.7-0.3
		c0.2-0.1,0.3-0.1,0.3-0.1s0,0.1-0.1,0.3c-0.1,0.2-0.2,0.4-0.5,0.7c-0.2,0.3-0.6,0.5-1,0.7c-0.4,0.2-0.8,0.3-1.3,0.4
		c-0.9,0.1-1.7,0-2.4-0.1C263.1,137.4,262.7,137.2,262.7,137.2z"/>
</g>
<g>
	<path class="st2" d="M270.2,143.1c0,0,0.3,0.3,0.7,0.8c0.4,0.5,0.8,1.2,1.1,2.1c0.1,0.4,0.2,0.9,0.2,1.3c0,0.4-0.1,0.8-0.2,1.1
		c-0.1,0.3-0.3,0.6-0.4,0.7c-0.1,0.2-0.2,0.2-0.2,0.2s0-0.1,0-0.3c0-0.2,0-0.4,0-0.7c0-0.6-0.1-1.3-0.4-2.1
		c-0.2-0.7-0.5-1.5-0.6-2.1C270.3,143.5,270.2,143.1,270.2,143.1z"/>
</g>
<g>
	<path class="st2" d="M264.9,147.5c0,0,0-0.6,0-1.5c0-0.4,0.1-0.9,0.1-1.5c0-0.5,0.1-1.1,0.1-1.6c0-0.5,0-1.1,0-1.6
		c0-0.2,0-0.5-0.1-0.7c0-0.2-0.1-0.4-0.1-0.6c-0.1-0.4-0.2-0.7-0.3-1c-0.1-0.2-0.2-0.4-0.2-0.4s0.1,0.1,0.3,0.3
		c0.1,0.1,0.2,0.2,0.3,0.3c0.1,0.1,0.3,0.3,0.4,0.5c0.3,0.4,0.4,0.9,0.6,1.5c0,0.3,0.1,0.6,0.1,0.9c0,0.3,0,0.6,0,0.9
		c0,0.6-0.1,1.2-0.3,1.7c-0.1,0.5-0.3,1-0.4,1.4C265.2,146.9,264.9,147.5,264.9,147.5z"/>
</g>
<path class="st2" d="M255.8,133.6c0,0,16.4,6.1,25,17.4"/>
<path class="st0" d="M207.1,153.2c-4-5.9-0.6-15.1,7.5-20.6c8.1-5.5,18-5.2,22,0.7"/>
<path class="st0" d="M236.5,133.2c3.1,6.8,0.3,15.9-8.3,21.4c-8.7,5.5-18.6,3-22.6-2.8"/>
<ellipse transform="matrix(0.8275 -0.5614 0.5614 0.8275 -41.4198 148.3171)" class="st1" cx="220.7" cy="141.6" rx="18.2" ry="12.5"/>
<g>
	<path class="st2" d="M223.5,138.6c0,0,0.1-0.6,0.3-1.4c0.1-0.4,0.3-0.9,0.4-1.4c0.1-0.5,0.3-1,0.4-1.6c0.1-0.5,0.2-1.1,0.3-1.6
		c0-0.2,0.1-0.5,0-0.7c0-0.2,0-0.5,0-0.7c0-0.4-0.1-0.8-0.1-1c0-0.3-0.1-0.4-0.1-0.4s0.1,0.1,0.3,0.3c0.1,0.1,0.2,0.2,0.3,0.4
		c0.1,0.2,0.2,0.3,0.3,0.6c0.2,0.4,0.3,1,0.3,1.5c0,0.3,0,0.6-0.1,0.9c0,0.3-0.1,0.6-0.2,0.9c-0.2,0.6-0.4,1.1-0.6,1.6
		c-0.2,0.5-0.5,0.9-0.7,1.3C223.9,138.2,223.5,138.6,223.5,138.6z"/>
</g>
<g>
	<path class="st2" d="M213.6,144.7c0,0,0-0.4,0.2-1.1c0.1-0.6,0.4-1.4,0.6-2.2c0.2-0.8,0.3-1.5,0.3-2.1c0-0.3,0-0.6,0-0.7
		c0-0.2,0-0.3,0-0.3s0.1,0.1,0.2,0.2c0.1,0.1,0.3,0.4,0.4,0.7c0.1,0.3,0.2,0.7,0.3,1.1c0,0.4,0,0.9-0.1,1.3c-0.2,0.9-0.6,1.6-1,2.1
		C213.9,144.4,213.6,144.7,213.6,144.7z"/>
</g>
<g>
	<path class="st2" d="M221.9,140c0,0,0.4-0.2,1-0.3c0.6-0.2,1.5-0.3,2.4-0.2c0.4,0.1,0.9,0.2,1.3,0.3c0.4,0.2,0.7,0.4,1,0.6
		c0.2,0.2,0.4,0.5,0.5,0.6c0.1,0.2,0.1,0.3,0.1,0.3s-0.1,0-0.3-0.1c-0.2-0.1-0.4-0.2-0.7-0.3c-0.5-0.2-1.3-0.4-2.1-0.5
		c-0.8-0.1-1.6-0.1-2.2-0.2C222.3,140.2,221.9,140,221.9,140z"/>
</g>
<g>
	<path class="st2" d="M223.9,146.7c0,0-0.6-0.2-1.3-0.6c-0.4-0.2-0.8-0.4-1.3-0.7c-0.5-0.2-1-0.5-1.5-0.7c-0.5-0.2-1-0.4-1.5-0.6
		c-0.2-0.1-0.5-0.2-0.7-0.2c-0.2,0-0.4-0.1-0.6-0.1c-0.4-0.1-0.8-0.1-1-0.1c-0.3,0-0.4,0-0.4,0s0.1-0.1,0.4-0.2
		c0.1-0.1,0.3-0.1,0.4-0.2c0.2-0.1,0.4-0.1,0.6-0.1c0.5-0.1,1-0.1,1.6,0c0.3,0.1,0.6,0.1,0.9,0.2c0.3,0.1,0.6,0.2,0.8,0.3
		c0.5,0.3,1.1,0.6,1.5,0.9c0.4,0.3,0.8,0.7,1.2,1C223.5,146.2,223.9,146.7,223.9,146.7z"/>
</g>
<path class="st2" d="M207.6,149.7c0,0,12-12.8,25.7-16.3"/>
</svg>
