<?xml version="1.0" encoding="utf-8"?>
<!-- Generator: Adobe Illustrator 19.1.0, SVG Export Plug-In . SVG Version: 6.00 Build 0)  -->
<svg version="1.1" id="Layer_1" xmlns="http://www.w3.org/2000/svg" xmlns:xlink="http://www.w3.org/1999/xlink" x="0px" y="0px"
	 viewBox="0 0 300 250" style="enable-background:new 0 0 300 250;" xml:space="preserve">
<style type="text/css">
	.st0{fill:none;stroke:#FFFFFF;stroke-miterlimit:10;}
	.st1{fill:#563819;}
	.st2{fill:#674930;}
	.st3{fill:#A56D3E;}
	.st4{fill:#4A3522;}
	.st5{fill:#6D481D;}
	.st6{fill:#7C5D3D;}
</style>
<path class="st0" d="M120.3,139.1c0.1,3.9-19.4,11.7-44.4,11.8c-37.2,0.1-44.4-7.8-44.4-11.8c0-3.9,19.9-7.1,44.4-7.1
	S120.2,135.2,120.3,139.1z"/>
<g>
	<path class="st1" d="M234.2,165.1c-0.7-2.9,2-6.1,6-7c4-1,7.8,0.6,8.6,3.5"/>
	<path class="st1" d="M248.7,161.5c0.2,3.1-2.2,6.3-6.4,7.2c-4.2,0.9-7.8-1.5-8.5-4.4"/>
	
		<ellipse transform="matrix(0.2394 0.9709 -0.9709 0.2394 341.2477 -110.6261)" class="st2" cx="241.2" cy="162.5" rx="5.3" ry="7.7"/>
	<g>
		<path class="st3" d="M242.8,161.8c0,0,0-0.3,0.2-0.6c0.2-0.3,0.4-0.7,0.7-1.1c0.2-0.4,0.5-0.7,0.6-1c0.2-0.3,0.3-0.6,0.3-0.6
			s0.2,0.2,0.3,0.6c0,0.2,0,0.5,0,0.7c-0.1,0.3-0.2,0.5-0.3,0.7c-0.3,0.4-0.7,0.8-1.1,0.9C243.1,161.7,242.8,161.8,242.8,161.8z"/>
	</g>
	<g>
		<path class="st3" d="M238,162.7c0,0,0-0.2,0.1-0.5c0.1-0.3,0.3-0.6,0.4-0.8c0.2-0.2,0.3-0.4,0.5-0.6c0.2-0.2,0.3-0.4,0.3-0.4
			s0.2,0.1,0.3,0.5c0.1,0.3,0,0.8-0.2,1.1c-0.2,0.3-0.6,0.5-0.8,0.6C238.2,162.7,238,162.7,238,162.7z"/>
	</g>
	<g>
		<path class="st3" d="M241.9,162.1c0,0,0.2-0.1,0.5-0.1c0.3,0,0.7,0,1,0.2c0.4,0.2,0.7,0.5,0.8,0.9c0.1,0.3,0,0.6,0,0.6
			s-0.2-0.1-0.4-0.2c-0.2-0.1-0.5-0.2-0.7-0.3c-0.3-0.1-0.5-0.3-0.8-0.5C242.1,162.3,241.9,162.1,241.9,162.1z"/>
	</g>
	<g>
		<path class="st3" d="M241.8,165c0,0-0.3-0.1-0.6-0.3c-0.3-0.2-0.6-0.5-1-0.9c-0.3-0.3-0.6-0.6-0.8-0.8c-0.3-0.2-0.5-0.4-0.5-0.4
			s0.3-0.2,0.7-0.2c0.2,0,0.5,0.1,0.7,0.2c0.2,0.1,0.5,0.3,0.7,0.5c0.4,0.4,0.6,0.9,0.7,1.2C241.8,164.7,241.8,165,241.8,165z"/>
	</g>
	<path class="st3" d="M234.9,163.8c0,0,6.6-3.3,12.5-2.7"/>
</g>
<g>
	<path class="st1" d="M242.4,175.4c-0.6-2.9,2.3-5.9,6.3-6.7s7.8,1,8.4,3.9"/>
	<path class="st1" d="M257.1,172.6c0.1,3.1-2.5,6.2-6.8,6.9c-4.3,0.7-7.7-1.9-8.2-4.9"/>
	
		<ellipse transform="matrix(0.1881 0.9822 -0.9822 0.1881 372.7349 -104.514)" class="st2" cx="249.6" cy="173.2" rx="5.3" ry="7.7"/>
	<g>
		<path class="st3" d="M251.2,172.5c0,0,0.1-0.3,0.2-0.6c0.2-0.3,0.5-0.7,0.7-1.1c0.3-0.3,0.5-0.6,0.7-0.9c0.2-0.3,0.3-0.5,0.3-0.5
			s0.2,0.2,0.2,0.7c0,0.2,0,0.5-0.1,0.7c-0.1,0.3-0.2,0.5-0.4,0.7c-0.3,0.4-0.8,0.7-1.1,0.9C251.5,172.5,251.2,172.5,251.2,172.5z"
			/>
	</g>
	<g>
		<path class="st3" d="M246.3,173.2c0,0,0-0.2,0.1-0.5c0.1-0.3,0.3-0.6,0.5-0.8c0.2-0.2,0.4-0.4,0.5-0.6c0.2-0.2,0.3-0.4,0.3-0.4
			s0.2,0.2,0.3,0.5c0.1,0.3-0.1,0.8-0.3,1.1c-0.3,0.3-0.6,0.5-0.9,0.6C246.6,173.2,246.3,173.2,246.3,173.2z"/>
	</g>
	<g>
		<path class="st3" d="M250.3,172.8c0,0,0.2-0.1,0.5-0.1c0.3,0,0.7,0,1,0.2c0.4,0.2,0.6,0.6,0.7,0.9c0.1,0.3,0,0.6,0,0.6
			s-0.2-0.1-0.4-0.2c-0.2-0.1-0.5-0.2-0.7-0.4c-0.3-0.1-0.5-0.3-0.7-0.6C250.4,173,250.3,172.8,250.3,172.8z"/>
	</g>
	<g>
		<path class="st3" d="M250,175.7c0,0-0.3-0.1-0.6-0.4c-0.3-0.2-0.6-0.6-0.9-0.9c-0.3-0.3-0.5-0.6-0.8-0.9c-0.2-0.2-0.5-0.4-0.5-0.4
			s0.3-0.2,0.7-0.1c0.2,0,0.5,0.1,0.7,0.2c0.2,0.1,0.4,0.3,0.6,0.5c0.4,0.4,0.6,0.9,0.6,1.3C250,175.4,250,175.7,250,175.7z"/>
	</g>
	<path class="st3" d="M243.2,174.1c0,0,6.7-3,12.6-2"/>
</g>
<g>
	<path class="st1" d="M268.2,186.9c2.1-3.2,7.3-3.4,11.6-0.6c4.4,2.8,6.3,7.7,4.2,10.9"/>
	<path class="st1" d="M284,197.2c-2.7,2.9-7.7,3.5-12.2,0.3c-4.5-3.1-5.3-8.5-3.3-11.6"/>
	
		<ellipse transform="matrix(-0.5438 0.8392 -0.8392 -0.5438 587.5184 62.8979)" class="st4" cx="276.7" cy="191.1" rx="6.6" ry="9.7"/>
	<g>
		<path class="st3" d="M278.7,191.9c0,0,0.3-0.2,0.8-0.3c0.5-0.1,1-0.2,1.6-0.3c0.6-0.1,1.1-0.2,1.5-0.3c0.2-0.1,0.4-0.1,0.5-0.2
			c0.1-0.1,0.2-0.1,0.2-0.1s0,0.1-0.1,0.2c0,0.1-0.2,0.3-0.3,0.5c-0.2,0.2-0.4,0.4-0.7,0.5c-0.3,0.2-0.6,0.2-0.9,0.3
			c-0.7,0.1-1.3,0-1.8-0.1C279,192.1,278.7,191.9,278.7,191.9z"/>
	</g>
	<g>
		<path class="st3" d="M273.7,188.3c0,0,0.2-0.2,0.6-0.3c0.3-0.1,0.8-0.2,1.1-0.3c0.4-0.1,0.7-0.1,1-0.2c0.3-0.1,0.6-0.1,0.6-0.1
			s0,0.3-0.2,0.6c-0.1,0.2-0.3,0.3-0.5,0.4c-0.2,0.1-0.5,0.2-0.7,0.2c-0.5,0.1-1,0-1.3-0.1C273.9,188.5,273.7,188.3,273.7,188.3z"/>
	</g>
	<g>
		<path class="st3" d="M277.7,191.4c0,0,0.2,0.1,0.5,0.4c0.3,0.2,0.5,0.6,0.7,1.1c0.1,0.2,0.1,0.5,0.1,0.7c0,0.2-0.1,0.5-0.2,0.6
			c-0.2,0.4-0.4,0.5-0.4,0.5s0-0.3-0.1-0.6c-0.1-0.3-0.2-0.6-0.3-1c-0.1-0.4-0.2-0.8-0.2-1.1C277.6,191.7,277.7,191.4,277.7,191.4z"
			/>
	</g>
	<g>
		<path class="st3" d="M274.8,193.8c0,0-0.1-0.3-0.1-0.8c0-0.5,0-1.1,0-1.6c0-0.6,0-1.1,0-1.5c0-0.2-0.1-0.4-0.1-0.5
			c0-0.1,0-0.2,0-0.2s0.1,0,0.2,0.1c0.1,0.1,0.3,0.2,0.5,0.4c0.2,0.2,0.3,0.5,0.4,0.8c0.1,0.3,0.1,0.7,0.1,1c0,0.7-0.2,1.3-0.5,1.7
			C275.1,193.5,274.8,193.8,274.8,193.8z"/>
	</g>
	<path class="st3" d="M270,186.4c0,0,8.7,3.2,13.3,9.2"/>
</g>
<g>
	<path class="st1" d="M247.2,227.4c2.1-3.2,7.3-3.4,11.6-0.6c4.4,2.8,6.3,7.7,4.2,10.9"/>
	<path class="st1" d="M263,237.7c-2.7,2.9-7.7,3.5-12.2,0.3c-4.5-3.1-5.3-8.5-3.3-11.6"/>
	
		<ellipse transform="matrix(-0.5438 0.8392 -0.8392 -0.5438 589.0865 143.0455)" class="st4" cx="255.7" cy="231.6" rx="6.6" ry="9.7"/>
	<g>
		<path class="st3" d="M257.7,232.4c0,0,0.3-0.2,0.8-0.3c0.5-0.1,1-0.2,1.6-0.3c0.6-0.1,1.1-0.2,1.5-0.3c0.2-0.1,0.4-0.1,0.5-0.2
			c0.1-0.1,0.2-0.1,0.2-0.1s0,0.1-0.1,0.2c0,0.1-0.2,0.3-0.3,0.5c-0.2,0.2-0.4,0.4-0.7,0.5c-0.3,0.2-0.6,0.2-0.9,0.3
			c-0.7,0.1-1.3,0-1.8-0.1C258,232.6,257.7,232.4,257.7,232.4z"/>
	</g>
	<g>
		<path class="st3" d="M252.7,228.8c0,0,0.2-0.2,0.6-0.3c0.3-0.1,0.8-0.2,1.1-0.3c0.4-0.1,0.7-0.1,1-0.2c0.3-0.1,0.6-0.1,0.6-0.1
			s0,0.3-0.2,0.6c-0.1,0.2-0.3,0.3-0.5,0.4c-0.2,0.1-0.5,0.2-0.7,0.2c-0.5,0.1-1,0-1.3-0.1C252.9,229,252.7,228.8,252.7,228.8z"/>
	</g>
	<g>
		<path class="st3" d="M256.7,231.9c0,0,0.2,0.1,0.5,0.4c0.3,0.2,0.5,0.6,0.7,1.1c0.1,0.2,0.1,0.5,0.1,0.7c0,0.2-0.1,0.5-0.2,0.6
			c-0.2,0.4-0.4,0.5-0.4,0.5s0-0.3-0.1-0.6c-0.1-0.3-0.2-0.6-0.3-1c-0.1-0.4-0.2-0.8-0.2-1.1C256.6,232.2,256.7,231.9,256.7,231.9z"
			/>
	</g>
	<g>
		<path class="st3" d="M253.8,234.3c0,0-0.1-0.3-0.1-0.8c0-0.5,0-1.1,0-1.6c0-0.6,0-1.1,0-1.5c0-0.2-0.1-0.4-0.1-0.5
			c0-0.1,0-0.2,0-0.2s0.1,0,0.2,0.1c0.1,0.1,0.3,0.2,0.5,0.4c0.2,0.2,0.3,0.5,0.4,0.8c0.1,0.3,0.1,0.7,0.1,1c0,0.7-0.2,1.3-0.5,1.7
			C254.1,234,253.8,234.3,253.8,234.3z"/>
	</g>
	<path class="st3" d="M249,226.9c0,0,8.7,3.2,13.3,9.2"/>
</g>
<g>
	<path class="st1" d="M247.4,166.7c-0.6-2.9,2.3-5.9,6.3-6.7s7.8,1,8.4,3.9"/>
	<path class="st1" d="M262.1,163.9c0.1,3.1-2.5,6.2-6.8,6.9c-4.3,0.7-7.7-1.9-8.2-4.9"/>
	
		<ellipse transform="matrix(0.1881 0.9822 -0.9822 0.1881 368.263 -116.5508)" class="st2" cx="254.6" cy="164.5" rx="5.3" ry="7.7"/>
	<g>
		<path class="st3" d="M256.2,163.8c0,0,0.1-0.3,0.2-0.6c0.2-0.3,0.5-0.7,0.7-1.1c0.3-0.3,0.5-0.6,0.7-0.9c0.2-0.3,0.3-0.5,0.3-0.5
			s0.2,0.2,0.2,0.7c0,0.2,0,0.5-0.1,0.7c-0.1,0.3-0.2,0.5-0.4,0.7c-0.3,0.4-0.8,0.7-1.1,0.9C256.5,163.8,256.2,163.8,256.2,163.8z"
			/>
	</g>
	<g>
		<path class="st3" d="M251.4,164.5c0,0,0-0.2,0.1-0.5c0.1-0.3,0.3-0.6,0.5-0.8c0.2-0.2,0.4-0.4,0.5-0.6c0.2-0.2,0.3-0.4,0.3-0.4
			s0.2,0.2,0.3,0.5c0.1,0.3-0.1,0.8-0.3,1.1c-0.3,0.3-0.6,0.5-0.9,0.6C251.6,164.5,251.4,164.5,251.4,164.5z"/>
	</g>
	<g>
		<path class="st3" d="M255.4,164.1c0,0,0.2-0.1,0.5-0.1c0.3,0,0.7,0,1,0.2c0.4,0.2,0.6,0.6,0.7,0.9c0.1,0.3,0,0.6,0,0.6
			s-0.2-0.1-0.4-0.2c-0.2-0.1-0.5-0.2-0.7-0.4c-0.3-0.1-0.5-0.3-0.7-0.6C255.5,164.3,255.4,164.1,255.4,164.1z"/>
	</g>
	<g>
		<path class="st3" d="M255,167c0,0-0.3-0.1-0.6-0.4c-0.3-0.2-0.6-0.6-0.9-0.9c-0.3-0.3-0.5-0.6-0.8-0.9c-0.2-0.2-0.5-0.4-0.5-0.4
			s0.3-0.2,0.7-0.1c0.2,0,0.5,0.1,0.7,0.2c0.2,0.1,0.4,0.3,0.6,0.5c0.4,0.4,0.6,0.9,0.6,1.3C255,166.7,255,167,255,167z"/>
	</g>
	<path class="st3" d="M248.2,165.4c0,0,6.7-3,12.6-2"/>
</g>
<g>
	<path class="st1" d="M233.5,178.9c-2.3-2-1.9-6.1,0.8-9.2c2.7-3.1,6.7-4,9-2.1"/>
	<path class="st1" d="M243.3,167.6c2,2.4,1.8,6.4-1.1,9.6c-3,3.2-7.2,3.2-9.5,1.3"/>
	
		<ellipse transform="matrix(0.7532 0.6578 -0.6578 0.7532 172.2982 -113.7738)" class="st2" cx="237.8" cy="172.7" rx="5.3" ry="7.7"/>
	<g>
		<path class="st3" d="M238.6,171.2c0,0-0.1-0.3-0.2-0.6c-0.1-0.4-0.1-0.8-0.1-1.3c0-0.4,0-0.8,0-1.2c0-0.3-0.1-0.6-0.1-0.6
			s0.3,0.1,0.6,0.4c0.2,0.2,0.3,0.4,0.4,0.6c0.1,0.2,0.1,0.5,0.1,0.8c0,0.5-0.2,1-0.3,1.4C238.8,171,238.6,171.2,238.6,171.2z"/>
	</g>
	<g>
		<path class="st3" d="M235.2,174.7c0,0-0.1-0.2-0.2-0.5c-0.1-0.3-0.1-0.6-0.1-0.9c0-0.3,0-0.6,0-0.8c0-0.3,0-0.5,0-0.5
			s0.3,0,0.5,0.2c0.3,0.2,0.4,0.7,0.4,1.1c0,0.4-0.1,0.8-0.3,1C235.4,174.6,235.2,174.7,235.2,174.7z"/>
	</g>
	<g>
		<path class="st3" d="M238.1,172c0,0,0.1-0.2,0.3-0.4c0.2-0.2,0.5-0.4,0.9-0.5c0.4-0.1,0.9,0.1,1.1,0.3c0.3,0.2,0.3,0.5,0.3,0.5
			s-0.2,0-0.5,0.1c-0.2,0-0.5,0.1-0.8,0.2c-0.3,0-0.6,0.1-0.9,0C238.3,172.1,238.1,172,238.1,172z"/>
	</g>
	<g>
		<path class="st3" d="M239.6,174.4c0,0-0.3,0.1-0.7,0.1c-0.4,0-0.8-0.1-1.3-0.2c-0.4-0.1-0.8-0.2-1.1-0.2c-0.3,0-0.6,0-0.6,0
			s0.1-0.3,0.5-0.5c0.2-0.1,0.4-0.2,0.7-0.3c0.3,0,0.5,0,0.8,0c0.5,0.1,1,0.4,1.3,0.6C239.4,174.2,239.6,174.4,239.6,174.4z"/>
	</g>
	<path class="st3" d="M233.3,177.4c0,0,3.5-6.5,8.7-9.4"/>
</g>
<path class="st0" d="M213.4,118.9l11.2,57.2c0,0,17.6,14.5,40.1,1.2l11.6-58.4C276.3,118.9,247.3,131,213.4,118.9z"/>
<path class="st0" d="M277.3,117.6c0,2.9-9.9,9.3-33.2,9.3c-17.4,0-31.5-5.7-31.5-8.6c0-2.9,14.1-5.2,31.5-5.2
	S277.3,114.7,277.3,117.6z"/>
<path class="st0" d="M32.6,141.3l15.7,79.8c0,0,24.5,20.3,56,1.7l16-83.6C120.3,139.1,80,158.2,32.6,141.3z"/>
<g>
	<path class="st1" d="M58,203.3c-1-4.1,2.7-8.5,8.3-9.8s10.9,0.8,11.9,4.8"/>
	<path class="st1" d="M78.3,198.3c0.3,4.4-3.1,8.8-8.9,10.1c-5.9,1.2-10.8-2.1-11.8-6.2"/>
	<ellipse transform="matrix(0.2394 0.9709 -0.9709 0.2394 245.4622 85.928)" class="st5" cx="67.9" cy="199.6" rx="7.3" ry="10.7"/>
	<g>
		<path class="st3" d="M70.1,198.6c0,0,0.1-0.4,0.4-0.8c0.3-0.5,0.6-1,1-1.5c0.4-0.5,0.7-1,0.8-1.5c0.1-0.2,0.2-0.4,0.2-0.6
			c0-0.1,0.1-0.2,0.1-0.2s0,0.1,0.1,0.2c0.1,0.1,0.1,0.4,0.2,0.7c0,0.3,0,0.6-0.1,1c-0.1,0.3-0.3,0.7-0.5,1c-0.4,0.6-1,1-1.4,1.3
			C70.4,198.5,70.1,198.6,70.1,198.6z"/>
	</g>
	<g>
		<path class="st3" d="M63.4,199.9c0,0,0-0.3,0.2-0.6c0.2-0.4,0.4-0.7,0.7-1.1c0.2-0.4,0.5-0.7,0.6-1c0.2-0.3,0.3-0.6,0.3-0.6
			s0.2,0.2,0.3,0.6c0,0.2,0,0.5,0,0.7c-0.1,0.3-0.2,0.5-0.3,0.7c-0.3,0.4-0.7,0.8-1.1,0.9C63.6,199.9,63.4,199.9,63.4,199.9z"/>
	</g>
	<g>
		<path class="st3" d="M68.9,199.1c0,0,0.3-0.1,0.7-0.1c0.4,0,0.9,0.1,1.4,0.3c0.2,0.1,0.5,0.3,0.7,0.5c0.2,0.2,0.3,0.4,0.4,0.6
			c0.2,0.4,0.1,0.7,0.1,0.7s-0.2-0.2-0.5-0.4c-0.3-0.2-0.6-0.4-1-0.6c-0.4-0.2-0.8-0.4-1.1-0.7C69.1,199.3,68.9,199.1,68.9,199.1z"
			/>
	</g>
	<g>
		<path class="st3" d="M68.6,203.1c0,0-0.3-0.2-0.7-0.5c-0.4-0.3-0.8-0.8-1.3-1.3c-0.4-0.4-0.9-0.8-1.3-1.1
			c-0.2-0.1-0.4-0.2-0.5-0.3c-0.1-0.1-0.2-0.1-0.2-0.1s0.1,0,0.2-0.1c0.2,0,0.4-0.1,0.7,0c0.3,0,0.6,0.1,0.9,0.3
			c0.3,0.2,0.6,0.4,0.9,0.7c0.5,0.5,0.8,1.1,1,1.6C68.6,202.7,68.6,203.1,68.6,203.1z"/>
	</g>
	<path class="st3" d="M59,201.4c0,0,9.2-4.6,17.4-3.7"/>
</g>
<g>
	<path class="st1" d="M69.5,217.9c-0.8-4.1,3.2-8.3,8.8-9.4c5.7-1.1,10.9,1.4,11.7,5.5"/>
	<path class="st1" d="M90,214c0.1,4.4-3.5,8.7-9.5,9.6c-6,0.9-10.7-2.7-11.5-6.8"/>
	
		<ellipse transform="matrix(0.1881 0.9822 -0.9822 0.1881 275.5231 96.2688)" class="st5" cx="79.5" cy="214.8" rx="7.3" ry="10.7"/>
	<g>
		<path class="st3" d="M81.8,213.9c0,0,0.1-0.4,0.4-0.8c0.3-0.4,0.7-1,1.1-1.4c0.4-0.5,0.7-1,0.9-1.4c0.1-0.2,0.2-0.4,0.2-0.6
			c0.1-0.1,0.1-0.2,0.1-0.2s0,0.1,0.1,0.2c0.1,0.2,0.1,0.4,0.1,0.7c0,0.3,0,0.6-0.2,1c-0.1,0.3-0.3,0.7-0.5,1c-0.5,0.6-1,1-1.5,1.3
			C82.1,213.8,81.8,213.9,81.8,213.9z"/>
	</g>
	<g>
		<path class="st3" d="M75,214.8c0,0,0.1-0.3,0.3-0.6c0.2-0.3,0.5-0.7,0.7-1.1c0.3-0.3,0.5-0.7,0.7-0.9c0.2-0.3,0.3-0.6,0.3-0.6
			s0.2,0.2,0.2,0.7c0,0.2,0,0.5-0.1,0.7c-0.1,0.3-0.2,0.5-0.4,0.7c-0.3,0.4-0.8,0.7-1.1,0.9C75.3,214.8,75,214.8,75,214.8z"/>
	</g>
	<g>
		<path class="st3" d="M80.6,214.2c0,0,0.3-0.1,0.7-0.1c0.4,0,0.9,0.1,1.4,0.4c0.2,0.1,0.5,0.3,0.6,0.5c0.2,0.2,0.3,0.4,0.4,0.6
			c0.1,0.4,0,0.7,0,0.7s-0.2-0.2-0.5-0.4c-0.3-0.2-0.6-0.4-1-0.6c-0.4-0.2-0.8-0.5-1.1-0.7C80.7,214.5,80.6,214.2,80.6,214.2z"/>
	</g>
	<g>
		<path class="st3" d="M80.1,218.3c0,0-0.3-0.2-0.7-0.6c-0.4-0.4-0.8-0.9-1.2-1.3c-0.4-0.5-0.8-0.9-1.2-1.2
			c-0.2-0.1-0.4-0.3-0.5-0.3c-0.1-0.1-0.2-0.1-0.2-0.1s0.1,0,0.2-0.1c0.2,0,0.4,0,0.7,0c0.3,0,0.6,0.2,0.9,0.3
			c0.3,0.2,0.6,0.4,0.8,0.7c0.5,0.6,0.8,1.2,0.9,1.7C80,217.9,80.1,218.3,80.1,218.3z"/>
	</g>
	<path class="st3" d="M70.6,216.1c0,0,9.4-4.1,17.6-2.8"/>
</g>
<g>
	<path class="st1" d="M81.6,202.2c1.9-3.7,7.6-4.6,12.7-2c5.1,2.6,7.8,7.7,5.9,11.5"/>
	<path class="st1" d="M100.2,211.6c-2.6,3.5-8.1,4.7-13.3,1.8c-5.3-2.9-6.8-8.7-5-12.4"/>
	
		<ellipse transform="matrix(-0.4516 0.8922 -0.8922 -0.4516 316.4169 217.1801)" class="st5" cx="91.5" cy="205.8" rx="7.3" ry="10.7"/>
	<g>
		<path class="st3" d="M93.8,206.5c0,0,0.3-0.2,0.8-0.4c0.5-0.2,1.1-0.3,1.7-0.5c0.6-0.2,1.2-0.3,1.6-0.6c0.2-0.1,0.4-0.2,0.5-0.3
			c0.1-0.1,0.2-0.1,0.2-0.1s0,0.1-0.1,0.2c0,0.2-0.1,0.4-0.3,0.6c-0.2,0.2-0.4,0.5-0.7,0.7c-0.3,0.2-0.6,0.3-1,0.4
			c-0.7,0.2-1.4,0.2-1.9,0.1C94.1,206.6,93.8,206.5,93.8,206.5z"/>
	</g>
	<g>
		<path class="st3" d="M87.8,203.1c0,0,0.2-0.2,0.6-0.3c0.4-0.2,0.8-0.3,1.2-0.4c0.4-0.1,0.8-0.2,1.1-0.3c0.3-0.1,0.6-0.2,0.6-0.2
			s0,0.3-0.2,0.7c-0.1,0.2-0.3,0.4-0.5,0.5c-0.2,0.2-0.5,0.3-0.7,0.3c-0.5,0.1-1,0.1-1.4,0C88.1,203.2,87.8,203.1,87.8,203.1z"/>
	</g>
	<g>
		<path class="st3" d="M92.6,206c0,0,0.3,0.1,0.6,0.4c0.3,0.2,0.6,0.6,0.9,1.1c0.1,0.3,0.2,0.5,0.2,0.8c0,0.3,0,0.5-0.1,0.7
			c-0.2,0.4-0.4,0.6-0.4,0.6s-0.1-0.3-0.2-0.6c-0.1-0.3-0.3-0.7-0.4-1.1c-0.2-0.4-0.3-0.8-0.4-1.2C92.6,206.3,92.6,206,92.6,206z"/>
	</g>
	<g>
		<path class="st3" d="M89.8,208.9c0,0-0.1-0.4-0.2-0.9c-0.1-0.5-0.1-1.2-0.1-1.8c0-0.6-0.1-1.2-0.2-1.7c-0.1-0.2-0.1-0.4-0.2-0.6
			c-0.1-0.1-0.1-0.2-0.1-0.2s0.1,0,0.2,0.1c0.1,0.1,0.3,0.2,0.5,0.4c0.2,0.2,0.4,0.5,0.5,0.8c0.1,0.3,0.2,0.7,0.2,1.1
			c0,0.7-0.1,1.4-0.3,1.9C90,208.6,89.8,208.9,89.8,208.9z"/>
	</g>
	<path class="st3" d="M83.6,201.4c0,0,10,2.5,15.7,8.5"/>
</g>
<g>
	<path class="st1" d="M203.5,220.4c2.3-3.1,7.6-3,11.9,0.2s5.8,8.3,3.5,11.3"/>
	<path class="st1" d="M218.8,232c-2.9,2.8-8.1,2.9-12.4-0.6c-4.3-3.5-4.8-9-2.5-12"/>
	
		<ellipse transform="matrix(-0.6032 0.7976 -0.7976 -0.6032 519.2451 192.2802)" class="st5" cx="211.8" cy="225.3" rx="6.7" ry="9.8"/>
	<g>
		<path class="st3" d="M213.8,226.3c0,0,0.3-0.1,0.8-0.2c0.5-0.1,1.1-0.1,1.6-0.2c0.6,0,1.1-0.1,1.5-0.2c0.2-0.1,0.4-0.1,0.5-0.2
			c0.1,0,0.2-0.1,0.2-0.1s0,0.1-0.1,0.2c-0.1,0.1-0.2,0.3-0.4,0.5c-0.2,0.2-0.4,0.4-0.8,0.5c-0.3,0.1-0.6,0.2-1,0.2
			c-0.7,0-1.3-0.1-1.8-0.3C214.1,226.4,213.8,226.3,213.8,226.3z"/>
	</g>
	<g>
		<path class="st3" d="M209,222.2c0,0,0.2-0.1,0.6-0.2c0.3-0.1,0.8-0.2,1.2-0.2c0.4,0,0.8,0,1.1-0.1c0.3,0,0.6-0.1,0.6-0.1
			s0,0.3-0.3,0.6c-0.1,0.2-0.3,0.3-0.5,0.4c-0.2,0.1-0.5,0.2-0.7,0.2c-0.5,0-1-0.1-1.3-0.2C209.2,222.4,209,222.2,209,222.2z"/>
	</g>
	<g>
		<path class="st3" d="M212.8,225.7c0,0,0.2,0.1,0.5,0.4c0.2,0.3,0.5,0.7,0.6,1.2c0,0.2,0.1,0.5,0,0.8c0,0.2-0.1,0.5-0.2,0.6
			c-0.2,0.3-0.5,0.4-0.5,0.4s0-0.3-0.1-0.6c0-0.3-0.1-0.7-0.2-1c-0.1-0.4-0.2-0.8-0.2-1.2C212.7,225.9,212.8,225.7,212.8,225.7z"/>
	</g>
	<g>
		<path class="st3" d="M209.7,227.8c0,0-0.1-0.3-0.1-0.8c0-0.5,0.1-1.1,0.1-1.6c0.1-0.6,0.1-1.1,0.1-1.5c0-0.2,0-0.4-0.1-0.6
			c0-0.1,0-0.2,0-0.2s0.1,0,0.2,0.1c0.1,0.1,0.3,0.2,0.4,0.5c0.2,0.2,0.3,0.5,0.3,0.8c0.1,0.3,0.1,0.7,0,1c-0.1,0.7-0.3,1.3-0.6,1.7
			C210,227.6,209.7,227.8,209.7,227.8z"/>
	</g>
	<path class="st3" d="M205.4,220c0,0,8.6,3.9,12.8,10.3"/>
</g>
<g>
	<path class="st1" d="M253.6,224.1c-1.3-3.6,1.7-8,6.7-9.8c5-1.8,10.1-0.3,11.4,3.3"/>
	<path class="st1" d="M271.7,217.7c0.7,4-2,8.4-7.3,10c-5.3,1.7-10.1-0.9-11.4-4.6"/>
	
		<ellipse transform="matrix(0.3339 0.9426 -0.9426 0.3339 381.9343 -100.7912)" class="st5" cx="262.3" cy="219.8" rx="6.7" ry="9.8"/>
	<g>
		<path class="st3" d="M264.2,218.7c0,0,0.1-0.3,0.3-0.8c0.2-0.4,0.5-1,0.8-1.5c0.3-0.5,0.5-1,0.6-1.4c0.1-0.2,0.1-0.4,0.2-0.5
			c0-0.1,0.1-0.2,0.1-0.2s0.1,0.1,0.1,0.2c0.1,0.1,0.2,0.3,0.2,0.6c0.1,0.3,0.1,0.6,0,0.9c-0.1,0.3-0.2,0.6-0.3,0.9
			c-0.3,0.6-0.8,1-1.2,1.3C264.5,218.6,264.2,218.7,264.2,218.7z"/>
	</g>
	<g>
		<path class="st3" d="M258.2,220.5c0,0,0-0.3,0.1-0.6c0.1-0.3,0.3-0.7,0.5-1.1c0.2-0.3,0.4-0.7,0.5-0.9c0.1-0.3,0.2-0.5,0.2-0.5
			s0.2,0.2,0.3,0.6c0.1,0.2,0.1,0.4,0,0.7c0,0.2-0.1,0.5-0.2,0.7c-0.3,0.4-0.6,0.8-0.9,0.9C258.4,220.4,258.2,220.5,258.2,220.5z"/>
	</g>
	<g>
		<path class="st3" d="M263.1,219.2c0,0,0.3-0.1,0.6-0.2c0.4-0.1,0.8,0,1.3,0.1c0.2,0.1,0.5,0.2,0.6,0.4c0.2,0.2,0.3,0.4,0.4,0.5
			c0.2,0.4,0.1,0.7,0.1,0.7s-0.3-0.1-0.5-0.3c-0.3-0.1-0.6-0.3-1-0.4c-0.4-0.1-0.8-0.3-1.1-0.5C263.3,219.4,263.1,219.2,263.1,219.2
			z"/>
	</g>
	<g>
		<path class="st3" d="M263.3,222.9c0,0-0.3-0.1-0.7-0.4c-0.4-0.3-0.9-0.7-1.3-1c-0.4-0.4-0.9-0.7-1.2-0.9c-0.2-0.1-0.4-0.2-0.5-0.3
			c-0.1-0.1-0.2-0.1-0.2-0.1s0.1,0,0.2-0.1c0.1-0.1,0.4-0.1,0.6-0.1c0.3,0,0.6,0.1,0.9,0.2c0.3,0.1,0.6,0.3,0.9,0.5
			c0.5,0.4,0.9,1,1.1,1.4C263.2,222.6,263.3,222.9,263.3,222.9z"/>
	</g>
	<path class="st3" d="M254.3,222.3c0,0,8-5.1,15.6-5"/>
</g>
<g>
	<path class="st1" d="M57,222.4c-3.1-2.7-2.6-8.5,1.2-12.8c3.8-4.3,9.4-5.6,12.6-2.9"/>
	<path class="st1" d="M70.8,206.6c2.8,3.4,2.6,9-1.5,13.4c-4.1,4.4-10.1,4.5-13.2,1.7"/>
	<ellipse transform="matrix(0.7532 0.6578 -0.6578 0.7532 156.1503 11.2949)" class="st5" cx="63" cy="213.7" rx="7.3" ry="10.7"/>
	<g>
		<path class="st3" d="M64.2,211.6c0,0-0.1-0.4-0.2-0.9c0-0.5,0-1.2,0-1.8c0-0.6,0-1.2-0.1-1.7c-0.1-0.2-0.1-0.4-0.2-0.6
			c0-0.1-0.1-0.2-0.1-0.2s0.1,0,0.2,0.1c0.1,0.1,0.3,0.2,0.5,0.4c0.2,0.2,0.3,0.5,0.5,0.8c0.1,0.3,0.2,0.7,0.2,1.1
			c0,0.7-0.2,1.4-0.4,1.9C64.4,211.3,64.2,211.6,64.2,211.6z"/>
	</g>
	<g>
		<path class="st3" d="M59.5,216.6c0,0-0.1-0.3-0.2-0.6c-0.1-0.4-0.1-0.9-0.1-1.3c0-0.4,0-0.8,0-1.2c0-0.3-0.1-0.6-0.1-0.6
			s0.3,0.1,0.6,0.4c0.2,0.2,0.3,0.4,0.4,0.6c0.1,0.3,0.1,0.5,0.1,0.8c0,0.5-0.2,1-0.3,1.4C59.7,216.3,59.5,216.6,59.5,216.6z"/>
	</g>
	<g>
		<path class="st3" d="M63.5,212.7c0,0,0.2-0.2,0.5-0.5c0.3-0.2,0.8-0.5,1.3-0.6c0.3,0,0.6,0,0.8,0c0.3,0.1,0.5,0.2,0.7,0.3
			c0.4,0.2,0.5,0.5,0.5,0.5s-0.3,0-0.6,0c-0.3,0-0.7,0.1-1.2,0.1c-0.4,0.1-0.9,0.1-1.3,0.1C63.8,212.8,63.5,212.7,63.5,212.7z"/>
	</g>
	<g>
		<path class="st3" d="M65.6,216.1c0,0-0.4,0-0.9,0c-0.5-0.1-1.2-0.2-1.8-0.3c-0.6-0.1-1.2-0.2-1.7-0.2c-0.2,0-0.5,0-0.6,0
			c-0.2,0-0.2,0-0.2,0s0.1-0.1,0.2-0.2c0.1-0.1,0.3-0.3,0.5-0.4c0.2-0.1,0.6-0.2,0.9-0.3c0.4,0,0.7,0,1.1,0c0.7,0.1,1.3,0.5,1.8,0.7
			C65.4,215.9,65.6,216.1,65.6,216.1z"/>
	</g>
	<path class="st3" d="M56.8,220.3c0,0,4.9-9,12.1-13.1"/>
</g>
<g>
	<path class="st1" d="M154,183.8c-0.9-3.5,2.4-7.4,7.2-8.6c4.9-1.2,9.5,0.7,10.4,4.2"/>
	<path class="st1" d="M171.6,179.4c0.3,3.8-2.7,7.7-7.8,8.8c-5.1,1.1-9.4-1.8-10.3-5.4"/>
	
		<ellipse transform="matrix(0.2394 0.9709 -0.9709 0.2394 298.9644 -20.4457)" class="st6" cx="162.5" cy="180.6" rx="6.4" ry="9.3"/>
	<g>
		<path class="st3" d="M164.4,179.7c0,0,0.1-0.3,0.3-0.7c0.2-0.4,0.5-0.9,0.8-1.3c0.3-0.4,0.6-0.9,0.7-1.2c0.1-0.2,0.2-0.4,0.2-0.5
			c0-0.1,0.1-0.2,0.1-0.2s0,0.1,0.1,0.2c0.1,0.1,0.1,0.3,0.2,0.6c0,0.3,0,0.5-0.1,0.9c-0.1,0.3-0.2,0.6-0.4,0.9
			c-0.4,0.5-0.9,0.9-1.3,1.1C164.7,179.6,164.4,179.7,164.4,179.7z"/>
	</g>
	<g>
		<path class="st3" d="M158.6,180.9c0,0,0-0.3,0.2-0.6c0.1-0.3,0.3-0.7,0.6-1c0.2-0.3,0.4-0.6,0.6-0.8c0.2-0.3,0.3-0.5,0.3-0.5
			s0.2,0.2,0.3,0.6c0,0.2,0,0.4,0,0.7c-0.1,0.2-0.2,0.5-0.3,0.7c-0.3,0.4-0.7,0.7-1,0.8C158.9,180.8,158.6,180.9,158.6,180.9z"/>
	</g>
	<g>
		<path class="st3" d="M163.4,180.1c0,0,0.3-0.1,0.6-0.1c0.3,0,0.8,0,1.2,0.2c0.2,0.1,0.4,0.3,0.6,0.4c0.2,0.2,0.3,0.4,0.3,0.6
			c0.1,0.4,0,0.6,0,0.6s-0.2-0.1-0.5-0.3c-0.3-0.1-0.6-0.3-0.9-0.4c-0.3-0.2-0.7-0.4-1-0.6C163.5,180.3,163.4,180.1,163.4,180.1z"/>
	</g>
	<g>
		<path class="st3" d="M163.2,183.6c0,0-0.3-0.1-0.7-0.4c-0.4-0.3-0.8-0.7-1.1-1.1c-0.4-0.4-0.7-0.7-1.1-1c-0.2-0.1-0.3-0.2-0.4-0.3
			c-0.1-0.1-0.2-0.1-0.2-0.1s0.1,0,0.2-0.1c0.1,0,0.3-0.1,0.6-0.1c0.3,0,0.5,0.1,0.8,0.2c0.3,0.1,0.5,0.4,0.8,0.6
			c0.4,0.5,0.7,1,0.9,1.4C163.1,183.3,163.2,183.6,163.2,183.6z"/>
	</g>
	<path class="st3" d="M154.8,182.2c0,0,8-4,15.2-3.3"/>
</g>
<g>
	<path class="st1" d="M163.9,196.3c-0.7-3.6,2.8-7.2,7.7-8.2s9.5,1.2,10.2,4.8"/>
	<path class="st1" d="M181.8,192.9c0.1,3.8-3.1,7.5-8.2,8.4c-5.2,0.8-9.3-2.3-10-5.9"/>
	
		<ellipse transform="matrix(0.1881 0.9822 -0.9822 0.1881 330.3418 -12.4159)" class="st6" cx="172.7" cy="193.6" rx="6.4" ry="9.3"/>
	<g>
		<path class="st3" d="M174.6,192.8c0,0,0.1-0.3,0.3-0.7c0.2-0.4,0.6-0.8,0.9-1.3c0.3-0.4,0.6-0.8,0.8-1.2c0.1-0.2,0.2-0.3,0.2-0.5
			c0.1-0.1,0.1-0.2,0.1-0.2s0,0.1,0.1,0.2c0.1,0.1,0.1,0.3,0.1,0.6c0,0.3,0,0.5-0.1,0.8c-0.1,0.3-0.3,0.6-0.5,0.8
			c-0.4,0.5-0.9,0.9-1.3,1.1C174.9,192.7,174.6,192.8,174.6,192.8z"/>
	</g>
	<g>
		<path class="st3" d="M168.7,193.6c0,0,0-0.3,0.2-0.6c0.1-0.3,0.4-0.6,0.6-0.9c0.2-0.3,0.4-0.5,0.6-0.8c0.2-0.3,0.3-0.5,0.3-0.5
			s0.2,0.2,0.3,0.6c0,0.2,0,0.4-0.1,0.7c-0.1,0.2-0.2,0.4-0.3,0.6c-0.3,0.4-0.7,0.6-1,0.8C169,193.6,168.7,193.6,168.7,193.6z"/>
	</g>
	<g>
		<path class="st3" d="M173.6,193.1c0,0,0.3-0.1,0.6-0.1c0.3,0,0.8,0.1,1.2,0.3c0.2,0.1,0.4,0.3,0.6,0.5c0.1,0.2,0.3,0.4,0.3,0.6
			c0.1,0.4,0,0.6,0,0.6s-0.2-0.1-0.5-0.3c-0.3-0.2-0.6-0.3-0.9-0.5c-0.3-0.2-0.7-0.4-0.9-0.6C173.7,193.4,173.6,193.1,173.6,193.1z"
			/>
	</g>
	<g>
		<path class="st3" d="M173.2,196.6c0,0-0.3-0.2-0.6-0.5c-0.3-0.3-0.7-0.7-1.1-1.1c-0.3-0.4-0.7-0.8-1-1c-0.2-0.1-0.3-0.2-0.4-0.3
			c-0.1-0.1-0.2-0.1-0.2-0.1s0.1,0,0.2-0.1c0.1,0,0.4-0.1,0.6,0c0.3,0,0.5,0.1,0.8,0.3c0.3,0.2,0.5,0.4,0.7,0.6
			c0.4,0.5,0.7,1.1,0.8,1.5C173.1,196.3,173.2,196.6,173.2,196.6z"/>
	</g>
	<path class="st3" d="M164.9,194.8c0,0,8.2-3.6,15.3-2.4"/>
</g>
<g>
	<path class="st1" d="M170.1,185.7c-0.7-3.6,2.8-7.2,7.7-8.2c4.9-0.9,9.5,1.2,10.2,4.8"/>
	<path class="st1" d="M187.9,182.3c0.1,3.8-3.1,7.5-8.2,8.4c-5.2,0.8-9.3-2.3-10-5.9"/>
	<ellipse transform="matrix(0.1881 0.9822 -0.9822 0.1881 324.9048 -27.0506)" class="st6" cx="178.8" cy="183" rx="6.4" ry="9.3"/>
	<g>
		<path class="st3" d="M180.7,182.2c0,0,0.1-0.3,0.3-0.7c0.2-0.4,0.6-0.8,0.9-1.3c0.3-0.4,0.6-0.8,0.8-1.2c0.1-0.2,0.2-0.3,0.2-0.5
			c0.1-0.1,0.1-0.2,0.1-0.2s0,0.1,0.1,0.2c0.1,0.1,0.1,0.3,0.1,0.6c0,0.3,0,0.5-0.1,0.8c-0.1,0.3-0.3,0.6-0.5,0.8
			c-0.4,0.5-0.9,0.9-1.3,1.1C181.1,182.1,180.7,182.2,180.7,182.2z"/>
	</g>
	<g>
		<path class="st3" d="M174.9,183c0,0,0-0.3,0.2-0.6c0.1-0.3,0.4-0.6,0.6-0.9c0.2-0.3,0.4-0.5,0.6-0.8c0.2-0.3,0.3-0.5,0.3-0.5
			s0.2,0.2,0.3,0.6c0,0.2,0,0.4-0.1,0.7c-0.1,0.2-0.2,0.4-0.3,0.6c-0.3,0.4-0.7,0.6-1,0.8C175.1,183,174.9,183,174.9,183z"/>
	</g>
	<g>
		<path class="st3" d="M179.7,182.5c0,0,0.3-0.1,0.6-0.1c0.3,0,0.8,0.1,1.2,0.3c0.2,0.1,0.4,0.3,0.6,0.5c0.1,0.2,0.3,0.4,0.3,0.6
			c0.1,0.4,0,0.6,0,0.6s-0.2-0.1-0.5-0.3c-0.3-0.2-0.6-0.3-0.9-0.5c-0.3-0.2-0.7-0.4-0.9-0.6C179.8,182.8,179.7,182.5,179.7,182.5z"
			/>
	</g>
	<g>
		<path class="st3" d="M179.3,186c0,0-0.3-0.2-0.6-0.5c-0.3-0.3-0.7-0.7-1.1-1.1c-0.3-0.4-0.7-0.8-1-1c-0.2-0.1-0.3-0.2-0.4-0.3
			C176,183,176,183,176,183s0.1,0,0.2-0.1c0.1,0,0.4-0.1,0.6,0c0.3,0,0.5,0.1,0.8,0.3c0.3,0.2,0.5,0.4,0.7,0.6
			c0.4,0.5,0.7,1.1,0.8,1.5C179.3,185.7,179.3,186,179.3,186z"/>
	</g>
	<path class="st3" d="M171,184.1c0,0,8.2-3.6,15.3-2.4"/>
</g>
<g>
	<path class="st1" d="M181.7,223.7c0.6-3.6,5.1-5.9,10-5.1s8.5,4.4,7.9,7.9"/>
	<path class="st1" d="M199.6,226.5c-1.2,3.6-5.5,6-10.6,5c-5.2-1-8-5.4-7.4-9"/>
	
		<ellipse transform="matrix(-0.1593 0.9872 -0.9872 -0.1593 442.4036 71.4306)" class="st6" cx="190.8" cy="224.1" rx="6.4" ry="9.3"/>
	<g>
		<path class="st3" d="M192.9,224c0,0,0.2-0.3,0.6-0.6c0.4-0.3,0.8-0.6,1.3-0.9c0.5-0.3,0.9-0.6,1.2-0.8c0.2-0.1,0.3-0.3,0.4-0.4
			c0.1-0.1,0.2-0.2,0.2-0.2s0,0.1,0,0.2c0,0.1,0,0.4-0.1,0.6c-0.1,0.2-0.2,0.5-0.4,0.8c-0.2,0.2-0.5,0.5-0.7,0.6
			c-0.5,0.3-1.1,0.5-1.6,0.6C193.2,224,192.9,224,192.9,224z"/>
	</g>
	<g>
		<path class="st3" d="M187.1,222.8c0,0,0.1-0.2,0.4-0.5c0.2-0.2,0.6-0.5,0.9-0.7c0.3-0.2,0.6-0.4,0.9-0.5c0.3-0.2,0.5-0.3,0.5-0.3
			s0.1,0.3,0,0.6c0,0.2-0.1,0.4-0.3,0.6c-0.1,0.2-0.3,0.4-0.5,0.5c-0.4,0.3-0.9,0.4-1.2,0.4C187.3,222.8,187.1,222.8,187.1,222.8z"
			/>
	</g>
	<g>
		<path class="st3" d="M191.8,224c0,0,0.3,0,0.6,0.1c0.3,0.1,0.7,0.3,1,0.7c0.1,0.2,0.3,0.4,0.4,0.6c0.1,0.2,0.1,0.5,0.1,0.6
			c0,0.4-0.2,0.6-0.2,0.6s-0.1-0.2-0.3-0.5c-0.2-0.2-0.4-0.5-0.7-0.8c-0.2-0.3-0.5-0.6-0.6-0.9C191.8,224.2,191.8,224,191.8,224z"/>
	</g>
	<g>
		<path class="st3" d="M190.2,227.1c0,0-0.2-0.3-0.4-0.7c-0.2-0.4-0.4-0.9-0.6-1.4c-0.2-0.5-0.4-1-0.6-1.3c-0.1-0.2-0.2-0.3-0.3-0.4
			c-0.1-0.1-0.1-0.2-0.1-0.2s0.1,0,0.2,0c0.1,0,0.3,0.1,0.6,0.2c0.2,0.1,0.5,0.3,0.7,0.5c0.2,0.2,0.4,0.5,0.5,0.8
			c0.2,0.6,0.3,1.2,0.2,1.7C190.3,226.8,190.2,227.1,190.2,227.1z"/>
	</g>
	<path class="st3" d="M183.1,222.5c0,0,8.9-0.6,15.3,2.9"/>
</g>
<g>
	<path class="st1" d="M263.7,228.2c0.6-3.6,5.1-5.9,10-5.1c5,0.8,8.5,4.4,7.9,7.9"/>
	<path class="st1" d="M281.6,231c-1.2,3.6-5.5,6-10.6,5c-5.2-1-8-5.4-7.4-9"/>
	
		<ellipse transform="matrix(-0.1593 0.9872 -0.9872 -0.1593 541.9082 -4.3055)" class="st6" cx="272.8" cy="228.6" rx="6.4" ry="9.3"/>
	<g>
		<path class="st3" d="M274.9,228.5c0,0,0.2-0.3,0.6-0.6c0.4-0.3,0.8-0.6,1.3-0.9c0.5-0.3,0.9-0.6,1.2-0.8c0.2-0.1,0.3-0.3,0.4-0.4
			c0.1-0.1,0.2-0.2,0.2-0.2s0,0.1,0,0.2c0,0.1,0,0.4-0.1,0.6c-0.1,0.2-0.2,0.5-0.4,0.8c-0.2,0.2-0.5,0.5-0.7,0.6
			c-0.5,0.3-1.1,0.5-1.6,0.6C275.2,228.5,274.9,228.5,274.9,228.5z"/>
	</g>
	<g>
		<path class="st3" d="M269.1,227.3c0,0,0.1-0.2,0.4-0.5c0.2-0.2,0.6-0.5,0.9-0.7c0.3-0.2,0.6-0.4,0.9-0.5c0.3-0.2,0.5-0.3,0.5-0.3
			s0.1,0.3,0,0.6c0,0.2-0.1,0.4-0.3,0.6c-0.1,0.2-0.3,0.4-0.5,0.5c-0.4,0.3-0.9,0.4-1.2,0.4C269.3,227.3,269.1,227.3,269.1,227.3z"
			/>
	</g>
	<g>
		<path class="st3" d="M273.8,228.5c0,0,0.3,0,0.6,0.1c0.3,0.1,0.7,0.3,1,0.7c0.1,0.2,0.3,0.4,0.4,0.6c0.1,0.2,0.1,0.5,0.1,0.6
			c0,0.4-0.2,0.6-0.2,0.6s-0.1-0.2-0.3-0.5c-0.2-0.2-0.4-0.5-0.7-0.8c-0.2-0.3-0.5-0.6-0.6-0.9C273.8,228.7,273.8,228.5,273.8,228.5
			z"/>
	</g>
	<g>
		<path class="st3" d="M272.2,231.6c0,0-0.2-0.3-0.4-0.7c-0.2-0.4-0.4-0.9-0.6-1.4c-0.2-0.5-0.4-1-0.6-1.3c-0.1-0.2-0.2-0.3-0.3-0.4
			c-0.1-0.1-0.1-0.2-0.1-0.2s0.1,0,0.2,0c0.1,0,0.3,0.1,0.6,0.2c0.2,0.1,0.5,0.3,0.7,0.5c0.2,0.2,0.4,0.5,0.5,0.8
			c0.2,0.6,0.3,1.2,0.2,1.7C272.3,231.3,272.2,231.6,272.2,231.6z"/>
	</g>
	<path class="st3" d="M265.1,227c0,0,8.9-0.6,15.3,2.9"/>
</g>
<g>
	<path class="st1" d="M153.1,200.5c-2.7-2.4-2.3-7.4,1-11.2c3.3-3.8,8.2-4.9,10.9-2.5"/>
	<path class="st1" d="M165.1,186.8c2.4,3,2.2,7.8-1.3,11.7c-3.6,3.8-8.8,3.9-11.5,1.5"/>
	<ellipse transform="matrix(0.7532 0.6578 -0.6578 0.7532 166.0415 -56.4939)" class="st6" cx="158.3" cy="193" rx="6.4" ry="9.3"/>
	<g>
		<path class="st3" d="M159.3,191.2c0,0-0.1-0.3-0.2-0.8c-0.1-0.5-0.1-1-0.1-1.6c0-0.5,0-1-0.1-1.4c0-0.2-0.1-0.4-0.1-0.5
			c0-0.1-0.1-0.2-0.1-0.2s0.1,0,0.2,0.1c0.1,0.1,0.3,0.2,0.5,0.4c0.2,0.2,0.3,0.4,0.4,0.7c0.1,0.3,0.1,0.6,0.2,0.9
			c0,0.6-0.2,1.2-0.4,1.7C159.5,190.9,159.3,191.2,159.3,191.2z"/>
	</g>
	<g>
		<path class="st3" d="M155.2,195.5c0,0-0.1-0.2-0.2-0.6c-0.1-0.3-0.1-0.7-0.1-1.1c0-0.4,0-0.7,0-1c0-0.3,0-0.6,0-0.6s0.3,0,0.6,0.3
			c0.1,0.1,0.3,0.3,0.4,0.5c0.1,0.2,0.1,0.5,0.1,0.7c0,0.5-0.2,0.9-0.3,1.2C155.4,195.3,155.2,195.5,155.2,195.5z"/>
	</g>
	<g>
		<path class="st3" d="M158.7,192.1c0,0,0.2-0.2,0.4-0.4c0.3-0.2,0.7-0.4,1.1-0.5c0.2,0,0.5,0,0.7,0c0.2,0.1,0.4,0.1,0.6,0.3
			c0.3,0.2,0.4,0.5,0.4,0.5s-0.2,0-0.6,0c-0.3,0-0.6,0.1-1,0.2c-0.4,0.1-0.8,0.1-1.1,0.1C159,192.2,158.7,192.1,158.7,192.1z"/>
	</g>
	<g>
		<path class="st3" d="M160.6,195.1c0,0-0.3,0.1-0.8,0c-0.5,0-1-0.1-1.5-0.2c-0.5-0.1-1-0.2-1.4-0.2c-0.2,0-0.4,0-0.5,0
			c-0.1,0-0.2,0-0.2,0s0-0.1,0.1-0.2c0.1-0.1,0.2-0.3,0.5-0.4c0.2-0.1,0.5-0.2,0.8-0.3c0.3,0,0.6,0,1,0c0.6,0.1,1.2,0.4,1.6,0.7
			C160.3,194.9,160.6,195.1,160.6,195.1z"/>
	</g>
	<path class="st3" d="M152.9,198.7c0,0,4.2-7.9,10.6-11.4"/>
</g>
<path class="st0" d="M127.7,128.6l13.7,69.6c0,0,21.4,17.7,48.8,1.5l14.1-71C204.3,128.6,169,143.3,127.7,128.6z"/>
<path class="st0" d="M205.8,126.9c0,3.6-7.7,10.5-40.4,10.2c-33-0.3-38.9-7.1-38.9-10.6c0-3.6,17.4-6.5,38.9-6.5
	S205.8,123.3,205.8,126.9z"/>
</svg>
