<?xml version="1.0" encoding="utf-8"?>
<!-- Generator: Adobe Illustrator 19.1.0, SVG Export Plug-In . SVG Version: 6.00 Build 0)  -->
<svg version="1.1" id="Layer_1" xmlns="http://www.w3.org/2000/svg" xmlns:xlink="http://www.w3.org/1999/xlink" x="0px" y="0px"
	 viewBox="0 0 300 250" style="enable-background:new 0 0 300 250;" xml:space="preserve">
<style type="text/css">
	.st0{fill:#674730;}
	.st1{clip-path:url(#SVGID_2_);}
	.st2{fill:#3C2514;}
	.st3{fill:#3A261E;}
</style>
<polygon class="st0" points="304.6,253.7 -2.6,253.7 -2.6,209.8 304.6,119.7 "/>
<g>
	<defs>
		<polygon id="SVGID_1_" points="302.6,251.8 302,116.6 -4.6,207.9 -4.6,251.8 		"/>
	</defs>
	<clipPath id="SVGID_2_">
		<use xlink:href="#SVGID_1_"  style="overflow:visible;"/>
	</clipPath>
	<g class="st1">
		<path class="st2" d="M400.6,65.6c0,10.2,0,20.4,0,30.6c-4.3-0.4-8.6-1.2-13-1.2c-17-0.1-34,0.1-51,0.2c-13.3,0.1-26.6,0-39.9,0.3
			c-3.1,0.1-6.1,1.1-9.2,1.6c0.1,0.4,0.3,0.8,0.4,1.2c13.8,0,27.5,0,41.3,0c13.5,0,26.9,0,40.2,1.6c-0.6,0.6-1.2,0.8-1.8,0.8
			c-10.8-0.9-21.6,1.1-32.5,0.2c-5.2-0.4-10.5,0.3-15.7,0c-6.7-0.3-13.3-1.3-19.9-1.6c-5.2-0.2-10.5,0.4-15.8,0.4
			c-5.9,0.1-11.8,0-17.7,0c0-0.5,0.1-1,0.1-1.5c5.4,0,10.8,0,16.3,0c-8.8-1.7-17.5-3.4-26.4-3.7c-8.8-0.3-17.8,0.9-26.7,1.1
			c-4.9,0.1-9.8-0.6-14.7-0.6c-14.3,0.1-28.5,0.4-42.8,0.6c-15.9,0.2-31.8,0.3-47.6,0.4c-19.5,0.2-39.1,0.3-58.6,0.5
			c-4.8,0-9.6,0-14.4,0c0-0.4-0.1-0.7-0.1-1.1c8.8-0.4,17.6-0.8,25.8-1.1c0.2,0.1-0.2-0.2-0.6-0.2c-9.7-0.8-19.4-1.6-29.1-2.3
			c-0.9-0.1-2,0.2-3,0.4c-1.4,0.2-2.8,0.7-4.2,0.7c-5.7,0-11.4-0.1-17.2-0.1c-15.3,0-30.6,0.3-45.9,0.2c-19.7-0.1-39.4-1.1-59.1,0.5
			c-1,0.1-2-0.1-3-0.3c-2.6-0.4-5.2-1-7.8-1.1c-8-0.2-16-0.2-24-0.3c-13.1-0.2-26.2-0.5-39.4-0.6c-2.4,0-4.7,1.4-7.1,1.5
			c-4.4,0.3-8.8,0.1-13.2,0.1c21.7,1.3,43.7-0.8,65.2,2.2c0,0.3,0,0.6,0,0.8c-12.3,0-24.5,0-36.8,0c0,0.4,0,0.8,0,1.2
			c28.3,0.8,56.6,1.2,85,0.1c-0.3,0.3-0.6,0.7-0.3,0.4c13.7,0,27.7,0,41.7,0l-0.2-0.1c7.6,0.2,15.3,0.6,22.9,0.7
			c11.6,0.1,23.2,0,33.8,0c-2.6-0.2-6.2-0.4-9.9-0.7c2.4-0.6,4.8-0.9,7-0.6c14.5,2,29.1,1.5,43.7,1.8c12,0.2,24.1,0.3,36.1,0.5
			c0,0.5,0,0.9,0,1.4c-10.3,0-20.6,0-31,0c0,0.5,0,0.9,0,1.4c6.9,0,13.8,0,20.7,0c4.4,0,8.9,0.6,13.2,0.2c16.5-1.3,32.9-0.8,49.3,0
			c9.8,0.5,19.6,0.8,29.4,1.2c-0.8-0.5-1.6-0.4-2.4-0.5c-0.8-0.1-1.6-0.3-2.4-0.4c0.1-0.2,0.1-0.4,0.2-0.6
			c16.7,0.9,33.5,1.7,50.2,2.6c0,0.4,0,0.7-0.1,1.1c-13.7,0-27.4,0-41.1,0c0,0.3,0,0.5,0,0.8c22,0.1,44,1.1,66-0.2
			c0-0.3,0-0.6,0-0.8c-5.3,0.2-10.5,0.4-15.8,0.6c-0.1-0.3-0.1-0.6-0.2-0.9c8.8-1.7,18-1.6,27.2-2.1c-2-0.6-3.9-0.8-5.9-0.9
			c-1.8-0.1-3.6,0-5.4,0c0.1-0.4,0.2-0.8,0.4-1.3c7.8,1.1,15.6,2.2,23.3,3.3c0,0.3-0.1,0.6-0.1,0.9c-6.5,0.2-13,0.4-20.6,0.6
			c2.8,1.4,4.4,2.7,6.3,2.9c2.8,0.3,5.7-0.3,8.6-0.4c0.5,0,1,0,1.5,0c10.5,0.3,21,0.8,31.6,1c3.7,0.1,7.4-0.7,11.1-0.5
			c8.9,0.5,17.8,1.3,26.6,2c-15.2,0.6-30.5-0.5-45.6,1.1c2.4,0.2,4.9,0.4,7.3,0.6c-8.8,0.1-17.4-0.5-26-0.8
			c-3.7-0.1-7.4,0.8-11.1,0.8c-3,0-6-1.1-9-1.1c-3.5,0-7,1.1-10.5,1.1c-5.4-0.1-10.8-1-16.2-1.1c-15.8-0.2-31.6-0.2-47.4-0.2
			c-4.9,0-9.8,0-14.7,0c0,0.3,0,0.6,0,0.9c4.6,0,9.1,0,13.7,0c-8.2,0.5-16.4,0.7-24.5,0.5c-4.5-0.1-9-1.1-13.5-1.2
			c-5.7-0.1-11.5,0.4-17.2,0.6c-10.9,0.3-21.8,0.6-32.7,0.9c-0.5,0-1,0-1.5,0.1c-4.5,0.9-8.8,1-13.8,0.7
			c-11.6-0.8-23.4-0.6-35.1-0.9c-1.9,0-3.7-0.3-5.6-0.5c0-0.3,0.1-0.6,0.1-0.8c11.3,0,22.7,0,34,0c0-0.2,0-0.5,0-0.7
			c-18.9,0-37.9,0-56.8,0c0,0.2,0,0.4,0,0.6c4.6,0,9.1,0,14,0c-3.6,0.7-6.8,1.4-10,2c0.1,0.4,0.2,0.7,0.3,1.1c8.9,0,17.7,0,26.6,0
			c0,0.3,0.1,0.7,0.1,1c-4,0.3-8,0.5-12.1,0.8c0.1,0.4,0.1,0.7,0.2,1.1c3,0,6,0,9,0c23.6,0.1,47.2,0.3,70.8,0.2
			c17.7-0.1,35.4-0.7,53-1c13.1-0.2,26.2-0.1,39.2-0.3c9.1-0.1,18.1-0.6,27.1-0.7c11-0.2,22-0.4,33.1-0.5c1,0,2.1,0.2,3.1,0.2
			c0,0.2,0,0.3,0,0.5c-1.5,0.1-3.1,0.3-3.7,0.4c2.6,0.4,5.8,1,9,1.4c1.8,0.2,4,0.7,5.5,0.2c7.4-2.2,15.1-1.1,22.6-1.2
			c8.2-0.1,16.3,0.7,24.5,0.8c15.2,0.1,30.3,0,45.5-0.1c2.4,0,5.8-0.5,6.8,0.3c3,2.1,6.4,1.5,9.8,1.6c0,1.3,0,2.6,0,3.9
			c-15.3,0-30.6,0-44.9,0c-0.3,0,0.6-0.1,1.4-0.2c0,0,0-0.1,0,0.3c-5.8,0-11.7,0.1-17.5,0c-2.5-0.1-5-0.8-7.5-0.8
			c-8.5-0.1-17,0-25.5,0.1c-7.8,0.1-15.6,0.5-23.4,0.8c-5.6,0.2-11.2,0.8-16.7,0.7c-6.7-0.2-13.4-1.3-20.1-1.4
			c-8-0.1-15.9,0.6-23.9,0.7c-19.3,0.1-38.6,0-57.9,0c0,0.3-0.1,0.6-0.1,0.9c8.9,0.9,18.9-1.5,26.9,3.2c-10.9,0-21.8,0-32.6,0
			c0,0.3,0,0.6,0,0.9c1.8,0.1,3.5,0.1,5.3,0.2c0,0.2,0,0.5,0,0.7c-4.2,0-8.4,0-12.6,0c0,0.3,0,0.6,0,0.9c2.6,0.1,5.2,0.2,7.8,0.2
			c10.7,0.1,21.4,0.3,32.1,0.2c14.4,0,28.8-0.2,43.1-0.4c2.9,0,5.8-0.5,8.6-0.5c10,0,20,0.3,30,0.3c10,0,20-0.3,30-0.4
			c17.1,0,34.3,0,51.4,0.1c3.6,0,7.1,0.1,10.7,0.1c4.3,0,8.6-0.1,12.9-0.2c7.5,0,15,0,22.5,0c0,2.4,0,4.8,0,7.2
			c-4.2,0.8-8.3,2.1-12.5,2.2c-8.5,0.1-17-0.5-25.4-0.9c-2.7-0.1-5.5-0.6-8.1-0.4c-9.5,0.7-18.9,2-28.4,2.3
			c-11.2,0.4-22.5,0.1-33.7-0.1c-5.8-0.1-11.6-0.6-17.4-0.9c0-0.2,0-0.4,0-0.6c0.9-0.2,1.7-0.4,3.2-0.8c-10.7,0-20.8,0-30.9,0
			c-0.2,0.2-0.4,0.4-0.6,0.7c0.8,0.1,1.6,0.1,2.3,0.2c-0.2,0.2-0.4,0.4-0.6,0.6c-12.5-0.5-25-0.9-37.5-1.4c-0.1,0.4-0.1,0.8-0.2,1.2
			c4.9,0.4,9.8,0.7,14.6,1.1c4.8,0.4,9.6,0.7,14.4,1c1,0.1,1.9,0.1,2.9,0c3.6-0.2,7.3-0.6,10.9-0.6c3.5,0,7.1,0.6,10.6,0.6
			c10.3-0.1,20.5-0.4,30.8-0.6c0,0.2,0,0.3,0,0.5c-3.7,0.3-7.4,0.5-11.1,0.8c0,0.1,0.1,0.2,0.1,0.3c26.7,0,53.4,0,80,0
			c0,0.3,0,0.6,0,0.9c-5.8,0-11.6,0-17.3,0c0,0.1,0.1,0.2,0.1,0.3c8.9,0,17.7,0,26.6,0c0.1-0.3,0.1-0.6,0.2-0.9
			c-1-0.3-2-0.6-4.2-1.2c2.9-0.2,4.6-0.5,6.2-0.5c8.3,0.1,16.6,0.3,24.9,0.5c0,0.2,0,0.4,0,0.7c-7.7,0-15.5,0-23.2,0
			c0,0.5,0.1,1,0.1,1.6c7.7-0.3,15.4-0.6,23.2-0.9c0,0.4,0,0.9,0,1.3c-6.6,0.6-13.2,1.3-19.8,1.9c-2,0.2-4,0.1-6,0.2
			c0,0.2,0,0.4,0,0.5c8.6,0,17.2,0,25.8,0c0,0.4,0,0.9,0,1.3c-11,0-22.1,0-33.1,0c0-0.2-0.1-0.5-0.1-0.7c0.9-0.3,1.8-0.6,3.4-1.1
			c-15.2-0.4-29.8-0.8-44.3-1.1c0,0.3,0,0.5,0,0.8c2.5,0.2,4.9,0.3,7.4,0.5c0,0.1,0,0.2-0.1,0.4c-7.7-0.3-15.4-0.7-23-1
			c0,0.3,0,0.6-0.1,0.9c8,0.4,15.9,1.1,23.9,1.2c7.8,0.1,15.6-0.5,23.3-0.8c0,0.5,0.1,0.9,0.1,1.4c-3.7,0.1-7.4,0.2-11.1,0.2
			c-9.5,0-19.2,0.7-28.4-0.2c-9-0.9-18.1,2.2-26.8-1.1c-1.9-0.7-4.9-0.2-7.3-0.5c-14.2-1.6-27.9,0.7-41.8,2.3
			c21.9,0.5,43.9,1,65.8,1.6c0-0.2,0-0.3,0.1-0.5c-1.1-0.1-2.1-0.3-3.2-0.4c4.1-0.2,7.9,0.6,11.8,0.7c18,0.2,36.1,0.1,54.1,0.2
			c3.2,0,3.5,0.2,3.9,2.3c-24.1,0-48.3,0-72.4,0c0.5,0.7,1,1,1.6,0.9c9.4-0.4,18.3,1.3,27.5,2.1c0.4,0,0.8,0.3,2.6,1
			c-3.4,0.4-5.6,0.6-7.7,1c-8.1,1.4-16.2-1.6-24.7,0.3c-5.6,1.3-12.5,0.4-18.8,0.4c-7,0-13.9-0.3-20.9-0.3c-1,0-1.9,0.9-3.6,1.8
			c-1.6,0-4.4,0-7.8,0c2.3-0.3,3.9-0.5,5.4-0.7c-0.1-0.3-0.1-0.6-0.2-0.9c-14.1-0.4-28.2,2.7-42.4,0.7c0.6-0.7,0.9-1.2,1.1-1.4
			c-28,0.3-55.7,0.7-83.4,1c9.2,1.3,18.7,0.1,27.5,2.5c-2.5-0.1-5-0.2-7.5-0.3c0.2,0.3,0.4,0.7,0.6,1c-0.9,0.5-1.7,1-2.3,1.3
			c8.2,0,16.9,0,25.5,0c8.9,0,17.8,0,26.7,0c0,0.1,0,0.3,0,0.4c-0.6-0.1-1.3-0.2-1.9-0.3c0-0.2,0-0.3,0.1-0.5
			c5.4,0.3,10.8,0.5,16.2,0.8c0,0.4,0,0.8,0,1.2c-39.9,1.1-79.9,0.4-119.9,1.4c0,0.4,0,0.7,0.1,1.1c1.6,0,3.1,0,4.7,0
			c0,0.3,0,0.5,0,0.8c-10.3,0.8-20.5-1.4-30.8-1c1.1,0.1,2.3,0.3,3.4,0.4c0,0.2-0.1,0.5-0.1,0.7c-10.5,0-21.1,0-31.6,0
			c0-0.3,0-0.7,0-1c6,0,12.1,0,18.1,0c0-0.3,0-0.7,0-1c-15.8,0-31.7,0-47.5,0c0,0.1,0,0.1,0,0.2c4.7,0,9.4,0,14.2,0
			c-15.6,3.3-31,1.1-46.4-0.2c6.1,1.2,12,3,18.1,3.2c14.6,0.7,29.3,0.8,43.9,0.9c23.3,0.1,46.6-0.1,69.9-0.2
			c6.6,0,13.3,0.3,19.9,0.2c11.4-0.3,22.7-1,34.1-1.3c15.8-0.4,31.5-0.6,47.3-0.8c12.1-0.1,24.2-0.4,36.3,0.1
			c8.4,0.4,17.1-0.9,25.3,1.6c0.8,0.2,2.2-0.3,4.1-0.6c-1.5-0.4-2.1-0.6-2.7-0.8c0.1-0.2,0.3-0.4,0.4-0.6c2.5,0.4,5.1,0.8,8.3,1.2
			c4.8-0.3,10.8-0.6,16.8-1c0,0.4,0.1,0.8,0.1,1.1c-3.7-0.2-7.4-0.4-11-0.6c5.7,1.2,11.6,1.9,17.4,2.2c5.9,0.3,11.9,0.4,17.9,0.5
			c5.7,0.1,11.4,0,17.1,0c0,0.3,0,0.7,0,1c-10.1,0-20.1,0-30.2,0c0,0.4,0,0.8,0,1.3c12.2,0,24.5-0.2,36.6,0.1
			c7.2,0.2,13.8-2.2,21.6-0.7c7,1.3,15.1,0.3,22.7,0.3c0,0.4,0,0.7,0,1.1c-13.6,0-27.1,0-40.7,0c0,0.3,0,0.6,0,0.9
			c1.3,0.1,2.7,0.2,4.9,0.3c-72.4-0.6-143.8-1.1-215.2-1.7c0-0.3,0-0.6,0-0.9c2.4-0.2,4.8-0.4,7.2-0.6c0-0.3,0-0.5-0.1-0.8
			c-31.3,0.7-62.7,1.4-94,2.2c0,0.3,0,0.5,0,0.8c13.2,0,26.5,0,39.7,0c0,0.3,0,0.6,0,0.9c-8.7,0.5-17.5,0.9-26.2,1.4
			c0,0.2,0.1,0.4,0.1,0.6c10.6,0.4,21.2,0.8,31.9,1.3c0,0.2,0,0.4,0,0.5c-10.1,0-20.1,0-30.2,0c-10,0-20.1,0-30.1,0
			c0,0.5,0,0.9,0,1.4c3.3,0,6.5,0,9.8,0c21.8-0.3,43.5,1.6,65.3,1.3c11.1-0.1,22.1-0.3,33.2-0.1c11.5,0.2,23,0.9,34.5,1.3
			c5.1,0.1,10.3-0.2,15.5-0.3c0.7,0,1.6-0.2,2,0.1c6,3.4,10.7-1.1,16.2-0.4c0-0.5,0-0.9,0-1.4c-10.9,0-21.7,0-32.6,0
			c0-0.4,0-0.7,0-1.1c3.1-0.4,6.2-1.1,9.4-1.2c19-0.4,38.1-0.6,57.1-0.8c4.1,0,8.1,0.3,12.2,0.7c5.7,0.4,11.4,1.6,17.1-0.3
			c1.2-0.4,3.1-0.2,4.5-0.1c1.6,0.2,3,0.9,4.5,0.9c2.1,0,4.2-0.7,6.3-0.7c11.1,0,22.3,0.2,33.4,0.2c16-0.1,31.9-0.4,47.9-0.6
			c0.4,0,0.8-0.2,1.4-0.4c-1.5-0.5-2.7-0.8-4.9-1.5c9.5,0,17.8,0,26.2,0c0,3.7,0,7.4,0,11.1c-3.5-0.1-7.1-0.1-10.6-0.2
			c-11.7-0.2-23.4-0.6-35.2-0.7c-8.8-0.1-17.6,0.3-26.3,0.2c-13.2-0.1-26.4-1.1-39.6-0.7c-13.9,0.4-27.9-1.1-41.8,1.1
			c-5.7,0.9-12.2,0.1-18.3,0.1c-26,0-52.1,0-78.1,0c-13.8,0-27.6-0.1-41.4-0.1c-17.9,0-35.7,0.1-53.6,0.3
			c-15.2,0.2-30.6-1.4-45.8,1.1c-1.6,0.3-3.4,0-5.1,0c0-0.3,0-0.5,0-0.8c1.9-0.1,3.9-0.2,5.8-0.3c0-0.2-0.1-0.5-0.1-0.7
			c-32.3,0.7-64.6,1.5-96.8,2.2c1.1,0.4,2.4,0.8,5,1.6c-5.1,0-8.7,0-12.3,0c0,0.2,0,0.5,0,0.7c5.6,0.6,11.1,1.2,17.7,1.9
			c-2.1,0.5-3.4,0.8-4.6,1c6.8,0.2,13.6,0.5,20.3,0.7c0,0.2,0,0.5-0.1,0.7c-1.7,0.1-3.3,0.2-5,0.3c0,0.4,0,0.7,0,1.1
			c9.6,0.3,19.2,0.5,28.7,0.8c2.2,0.1,4.3,0.3,6.4,0.5c-3.5,0.4-6.7,0.4-9.8,0.4c-10.9,0.1-21.7,0.5-32.6,0.3
			c-13.4-0.2-26.9-0.8-40.3-1.1c-1.3,0-2.5,0.5-3.8,0.7c-1.4,0.3-2.9,0.5-4.3,0.8c-0.1,0-0.3-0.1-0.4-0.1c0.6-0.2,1.2-0.4,1.7-0.6
			c-0.1-0.3-0.2-0.6-0.3-0.9c-2.8,0.4-5.5,0.7-8.3,1.1c-1.9,0.2-3.9,0.6-5.8,0.5c-3.8-0.2-7.6-0.8-11.4-0.8c-6.2-0.1-12.4,0-18.6,0
			c10.8-1.1,21.6-1.6,32.5-1.8c10.6-0.2,21-1.5,31.7-1.4c-3-0.9-6.1-1.2-9.2-1.4c-2.3-0.2-6,0.2-6.8-0.5c-1.7-1.8-3.6-1-5.6-1
			c-13.8,0.1-27.6,0.3-41.4,0.4c-3.6,0-7.2,0-10.8,0c0,0.2,0.1,0.5,0.1,0.7c1.8,0.3,3.5,0.5,5.3,0.8c-0.1,0.3-0.2,0.6-0.3,0.9
			c-2.3-0.2-5.5,0-6.6-0.8c-2.9-2.3-6.4-1.8-10-1.9c-3.6-0.1-7.2-0.4-10.8-0.5c0-0.2,0-0.4,0-0.6c10.5-0.4,21-0.7,31.5-1.1
			c0-0.3-0.1-0.5-0.1-0.8c-13.3,0-26.7,0-40,0c0,0.1,0,0.2,0,0.3c0.9,0.1,1.8,0.3,2.7,0.4c0,0.1-0.1,0.2-0.1,0.3
			c-3.4,0-6.8,0-10.2,0c0.9-1,2.1-1.6,3.4-1.7c8-0.3,16-0.5,23.9-0.8c1.6-0.1,3.2-0.3,4.8-0.5c-0.1-0.3-0.2-0.7-0.2-1
			c-11,0-22.1,0-33.2,0c0-1.6,0-2.7,0-4.5c73.1-0.4,146-0.9,218.9-1.3c0-0.3,0-0.6,0-1c-7.3,0-14.5,0-21.8,0
			c-15.2,0.1-30.3,0.3-45.5,0.2c-16-0.1-32-0.5-48-0.9c-4.3-0.1-8.6-0.1-12.9-0.5c-1.3-0.1-2.3-1.2-3.5-1.9l0,0
			c15.1,0.4,30.2,1.1,45.3,1.1c17.5,0.1,35-0.2,52.5-0.6c10.3-0.2,20.5-1.1,30.8-1.3c11.9-0.2,23.8-0.1,35.7,0c1.9,0,3.8,1,6,1.7
			c2.2-0.7,5-1.6,9.3-3c-28.6,0-56,0-83.3,0c0,0.1,0,0.2,0,0.3c1.1,0.1,2.1,0.3,3.2,0.4c0,0.1,0,0.3-0.1,0.4c-10.5,0-21.1,0-31.9,0
			c0.9-0.5,1.4-0.8,3-1.7c-10.7,0-20.2,0-29.7,0c0-0.3-0.1-0.7-0.1-1c1.6-0.1,3.2-0.3,4.8-0.3c4.2-0.1,8.6,0.3,12.7-0.2
			c5.2-0.7,9.8-1.3,15.4-0.8c10.8,0.9,22,0.3,32.6,0.3c-9.6-0.3-19.6-0.6-29.6-0.9c0-0.2,0-0.5,0-0.7c13,0,26,0,39,0
			c0-0.4,0-0.7,0-1.1c-7.4,1.5-14.2-0.7-21.6-0.6c-21.3,0.3-42.5-0.1-63.8-0.3c-0.5,0-1,0.1-1.5,0.2c-3.2,0.4-6.3,0.8-9.5,1.1
			c-2.3,0.2-4.7,0.3-6.9,0.4c1.5,3,4.2,2.6,7.3,1.8c0.8-0.2,2.2,0.7,3.3,1.1c-1.1,0.5-1.8,0.5-2.5,0.5c-10.3,0.1-20.1-2-30.7-1.8
			c-16,0.2-32.1,0.8-48.1-0.2c-7.1-0.4-14.3,0-21.4-0.2c-2.7-0.1-5.3-0.9-8-1.3c2.7-0.8,5.5-2.4,8-2.3c16.8,0.8,33.6-2,50.5,0.3
			c5.8,0.8,12.2-0.4,18.3-0.4c15.2-0.1,30.3,0,45.5,0c0-0.6,0-1.2,0-1.8c-20.2-0.7-40.5,0.4-60.7,0.2c-20.5-0.1-41-0.6-61.4-0.9
			c-1.2-4.4,3.8-3.3,6.5-3.2c17.3,0.4,34.7,1.2,52,1.6c18.6,0.4,37.1,0.4,55.7,0.6c4.7,0,9.5,0,15.3,0c-2.3-0.7-4.3-0.9-4.6-1.5
			c-1.5-2.5-4.6-2.7-7.9-2.7c-11.7-0.1-23.5-0.1-35.2-0.1c-11.4,0.1-22.8,0.4-34.2,0.4c-14.6-0.1-29.3-0.3-43.9-0.6
			c-1.3,0-2.6-0.8-3.9-1.2c1.2-0.4,2.4-1.2,3.6-1.2c13.8-0.2,27.5-0.2,41.3-0.3c3.4,0,6.7-0.3,10.1-0.5c-4.3-0.7-8.5-1.1-12.7-1.1
			c-12.4,0.1-24.8,0.3-37.2,0.6c-3.4,0.1-5.8-0.1-5.1-2.9c0.5-2.1-1-4.7,5.2-4.3c4.7,0.3,9.8,0.8,14.1-1.4c0.7-0.3,2-0.3,3-0.2
			c10.8,0.4,21.6,0.9,32.4,1.1c12.8,0.2,25.5,0,39.9,0c-1.7,0.6-2.3,0.8-2.9,1c3.4,0,6.4-0.7,9.5-1.2c1.3-0.2,3-0.2,4.2,0.1
			c2.2,0.6,4.1,1.6,6.1,2.4c0.4-0.3,0.8-0.7,1.2-1c-1.2-0.8-2.2-2.2-3.6-2.4c-3.4-0.5-7.1-0.5-10.6-0.6c-6.2-0.1-12.3,0-18.5,0
			c0,0,0-0.1,0-0.1c2.5-0.1,5-0.2,7.5-0.3c0-0.3,0-0.6,0-0.9c-24.7,0-49.4,0-74.1,0c0-0.2,0-0.4,0-0.7c6.5-0.4,13-0.8,19.6-1.2
			c0-0.2,0-0.5,0-0.7c-10.9,0-21.7,0-32.6,0c0-2,0-3.3,0-4.8c8.6,0,16.9,0,26.3,0c-2.9-0.6-4.7-1-6.5-1.4c0.1-0.2,0.1-0.3,0.2-0.5
			c2.9,0.2,5.8,0.3,8.7,0.5c0.1-0.4,0.1-0.8,0.2-1.2c-9.7-0.4-19.3-0.8-29-1.2c0-0.4,0-0.7,0-1.1c1.8-0.1,3.5-0.2,5.3-0.3
			c1.7-0.1,3.3-0.3,4.9-0.5c-0.1-0.2-0.1-0.3-0.2-0.5c-3.3-0.2-6.6-0.3-10-0.5c0-5.7,0-11,0-16.7c3,0,5.5-0.1,8,0
			c14.4,0.6,28.8,1.5,43.2,1.9c16,0.4,32,0.5,48,0.5c6.3,0,6.3-0.2,10.1-3.1c-36.3-0.5-72.8-1-110.7-1.5c1.1-2.8,2.2-5.4,3.2-8
			c1.6,0.2,3.3,0.6,4.9,0.7c6.4,0.2,12.8,0.3,19.2,0.3c8.8,0,17.5,0,26.3,0c0-0.4,0-0.7,0-1.1c-8.2,0-16.3,0-24.5,0
			c-8.6,0-17.3,0.1-25.9,0.2c-0.8-1-2.1-2-2.2-3.1c-0.2-6.2,0-12.3,0-18.5c0-1.9-1.1-4.5,0.4-5.7c1.6-1.2,5.7-1,8.7-1.5
			c0.1,0,0.1-0.2,0.4-0.5c-3.1,0-6,0-9.2,0c0-1.5,0-2.8,0-4.9c15.1,0,30.2,0,45.3,0c0-0.5,0.1-1,0.1-1.5c-3-0.1-5.9-0.3-8.9-0.3
			c-10.7,0.1-21.4,0.3-32.1,0.6c-3.7,0.1-5-0.9-4.8-3c0.2-2.1,0.4-4.3,0.6-6.6c13.9,1,27.5,1.9,41,2.8c0,0.1,0,0.2,0,0.3
			c-8.4,0-16.8,0-25.2,0c3.4,0.6,6.8,0.7,10.1,0.6c8.7-0.3,17.4-0.8,26.1-1.2c1.5-0.1,3.6-0.1,4.4,0.4c4.2,2.8,9.2,1.9,14.1,1.8
			c3.3-0.1,6.5-0.3,9.7-0.5c0.1,0.3,0.1,0.5,0.2,0.8c-2.4,0.3-4.8,0.6-7.2,0.9c0.1,0.2,0.2,0.3,0.3,0.5c6.4,0.2,12.7,0.5,19.1,0.7
			c0-0.2,0.1-0.4,0.1-0.6c-1.7-0.6-3.4-1.1-5-1.7c8.4-0.4,16.7-1,24.9-1.1c9-0.2,18-0.1,26.9,0c4.9,0.1,9.8,0.9,14.6,0.9
			c10.9,0.1,21.7-0.2,32.6-0.1C-11.6,62.7,3,63,17.6,63.1c3.9,0,7.9-0.4,11.8-0.6c0-0.3,0-0.6,0-0.9c-3.6-0.2-7.1-0.5-10.7-0.7
			c5-0.6,10.6-0.1,14.9-1.4c7.7-2.4,15.3-0.6,22.8-1.1c2.8-0.2,5.7,0.3,8.6,0.3c16-0.2,32-0.5,48-0.8c9.8-0.2,19.7-0.5,29.5-0.8
			c3.4,0,6.8,0,10.2,0c2,0.1,4,0.4,6,0.4c16,0.1,32,0.2,48,0.1c8.6,0,17.2-0.3,25.8-0.5c8.2,0,16.4,0,24.6,0
			c8.9,1.1,17.8,2.2,26.7,3.3c3.4,0.4,6.9,0.5,10.4,0.8c0,0.3-0.1,0.5-0.1,0.8c-14.7,0.7-29.5,1.3-44.2,2c0,0.3,0,0.6,0,0.9
			c13.9,0.3,27.7,0.7,41.6,0.7c11.5,0,23-0.6,34.4-1l0,0c8.4,1.9,16.8,3.7,26,3.2c8.4-0.5,16.5-1.6,25.2-1.1
			C384.9,67.3,392.8,66.1,400.6,65.6z M309.8,138.1c5.2,0.5,10.3,0.9,15.5,1.4c0.1-0.5,0.3-1,0.4-1.4c-3.3-0.6-6.7-1.2-10-1.8
			c-0.1,0.2-0.2,0.5-0.4,0.7c0.9,0.3,1.8,0.5,2.8,0.8c0,0.1-0.1,0.3-0.1,0.4c-2.8,0-5.5,0-8.3,0c-0.5-0.5-1-1.4-1.5-1.4
			c-6.9,0.1-13.7,0.4-20.6,0.6c0,0.3,0,0.6,0,1c2.2,0,4.5,0,6.7,0C299.5,138.2,304.6,138.2,309.8,138.1z M-108.3,67.5
			c8.6,0.7,17.3,1.3,26.4,2c-1.9-2.6-4.7-3.3-9.4-3c-5.7,0.4-11.4,0.7-17.1,1c-1.1-0.2-2.3-0.6-3.4-0.5c-10.6,0.3-21.2,0.9-31.9,1.1
			c-3.5,0.1-7-0.9-10.5-1.1c-3.4-0.2-6.8,0-10.2,0c0,0.3,0,0.7,0,1c1.6,0.2,3.2,0.6,4.8,0.6c11.4,0,22.8,0.1,34.1-0.1
			C-119.8,68.5-114.1,67.9-108.3,67.5z M-116.9,157c2.1,0.3,4.1,1,6.2,0.9c15.1-0.5,30.2-1.2,45.3-1.7c2.8-0.1,5.7,0.2,8.5,0.6
			c5.3,0.7,10.5,1.6,15.8,2.4c0.1-0.4,0.2-0.8,0.4-1.2c-3.7-0.3-8,0.2-10.9-0.9c-6.3-2.3-12.9-1.7-19.4-1.7
			c-11.2,0-22.4,0.3-33.6,0.6C-108.7,156.1-112.7,156.6-116.9,157c-6.9,0-13.9,0-20.9,0c0,0.3,0.1,0.6,0.1,0.9
			C-130.8,157.6-123.8,157.3-116.9,157z M58.1,63.9c-1,0-2,0-3,0.1c-12.6,1.2-25.1,2.7-38,2.2c-11.7-0.5-23.4-0.4-35.2-0.5
			c-4.8,0-9.5,0.3-14.3,0.4c-15.7,0.4-31.5,0.7-47.2,1.1c-0.3,0-0.6,0.4-1.1,0.8c33.4,1,66.5,2,99.5,3c0-0.2,0-0.3,0-0.5
			c-1.2-0.2-2.3-0.4-3.5-0.6c0-0.2,0.1-0.4,0.1-0.6c38.8,0.6,77.6,1.3,116.3,1.9c0,0.2,0,0.4,0,0.6c-1.8,0.3-3.6,0.6-5.4,0.9
			c0.1,0.4,0.2,0.8,0.4,1.2c5.3-0.5,10.6-1.3,15.9-1.5c5.6-0.2,11.2,0.2,16.8,0.2c5.8,0,11.6-0.4,17.3-0.3
			c5.3,0.1,10.5,0.6,15.8,0.9c0,0.2-0.1,0.4-0.1,0.6c-3.3-0.2-6.7-0.3-10-0.5c0.2,1,0.6,1.3,0.9,1.3c11.4-0.2,22.9,0.4,33.8-2.3
			c1.4-0.3,3-0.5,4.5-0.5c9.7-0.2,19.4-0.3,29.1-0.4c16.8-0.3,33.7,0.1,50.3-2c0.8-0.1,2,0.5,2.9,0.9c4.9,1.9,13.2,0.4,15-3.1
			c-11.4,0-22.6-0.1-33.7,0c-7.7,0.1-15.4,0.6-23.1,0.9c-2.9,0.1-5.8,0.1-8.6,0.4c-3.2,0.4-6.2,1-9.3,1.6c-0.1-0.3-0.2-0.6-0.3-0.9
			c1.7-0.3,3.4-0.5,5-0.8c-0.1-0.3-0.3-0.7-0.4-1c-2.9,0.4-5.7,0.9-8.6,1.3c-2.3,0.3-4.9,0.9-6.9,0.5c-8.9-1.9-17.9-0.7-26.8-0.8
			c-1.6,0-3.1,0.2-4.7,0.3c0,0.2,0,0.4,0,0.6c4.1,0.4,8.3,0.8,12.4,1.1c0,0.3-0.1,0.6-0.1,0.9c-14,0-28.1,0-42.1,0
			c0-0.3,0-0.6,0-0.9c8.3-0.3,16.5-0.6,24.4-0.8c-3.9-1-7.9-2-11.9-3c-0.6-0.1-1.3-0.1-2-0.1c-13.6-0.3-27.1-0.6-40.7-1
			c-3.2-0.1-6.4-0.4-9.6-0.6c1.9-1,3.8-1.7,5.7-1.7c6.9-0.1,13.9,0.1,20.8,0.2c9.5,0.1,18.9,0.6,28.4,0.4c12-0.2,24-1.1,36-1.5
			c8.3-0.3,16.7-0.4,25-0.4c2,0,3.9,0.5,5.9,0.6c2.7,0.2,5.5,0.2,8.3,0.3c0-0.4,0.1-0.9,0.1-1.3c-4.3-0.3-8.7-1.2-12.9-0.9
			c-8.9,0.7-17.4,1.2-26.5-0.5c-8-1.4-17-0.9-25.6-1c-7.6-0.1-15.3,0.1-22.9,0.1c-1.9,0-3.8,0-5.8,0c0,0.4,0,0.8,0,1.2
			c4.9,0.2,9.7,0.3,14.6,0.5c0,0.4-0.1,0.7-0.1,1.1c-49.8,0-99.6,0-149.5,0c6.5,0.6,13.1,0.8,19.6,1C54.6,63.1,56.3,63.6,58.1,63.9
			L58.1,63.9z M98.6,150.7c54.4,1.8,108.5,4.8,162.9,2.8c-2.8,3.8-9.4-0.5-13.5,2.9c13.1-0.4,25.3-0.8,37.5-1.2c0-0.1,0-0.3,0-0.4
			c-2.7-0.2-5.4-0.4-8.1-0.6c0-0.2,0.1-0.4,0.1-0.7c7.1,0,14.1,0,21.2,0c-24.6-4.3-49.8-1.2-74.6-3.8c4.4-0.3,8.8-0.5,13.2-0.8
			c0-0.3,0-0.6,0-0.9c-11.8-0.5-23.6-1-35.3-1.4c-7.5-0.3-14.8,2.8-22.6,0.3c-2.1-0.7-5-0.8-7.5-0.8c-9.4-0.1-18.9,0-28.3,0
			c0,0.3,0,0.7-0.1,1c6.4,0,12.8,0,19.2,0c0,0.4,0,0.8,0,1.1C141.4,149.1,120,149.9,98.6,150.7z M-7.8,139.7c0-0.1,0-0.3,0-0.4
			c-6-0.5-12-1.3-18-1.4c-19-0.4-38-0.6-57.1-0.6c-4.8,0-9.6,1.4-15.2,2.3c1.5,0.6,2.1,0.9,2.9,1.2c-1.9,0.1-3.6,0.2-5.2,0.3
			c0,0.4,0,0.8-0.1,1.1c15.1,0.7,30.2,1.4,45.2,2.1c0,0.1,0,0.3-0.1,0.4c-2.2,0.1-4.4,0.3-6.6,0.4c4,0.3,7.7-0.1,11.6-0.4
			c5.7-0.4,11.3-1.2,17-1.1c8,0.1,16,0.9,24,1.2c4.3,0.1,8.6-0.6,12.9-0.6c22.6-0.1,45.2,0,67.9-0.1c2.6,0,5.2-0.4,7.8-0.7
			c-0.1-0.4-0.1-0.8-0.2-1.2c-16.2,0-32.3-0.1-48.5,0c-8.7,0-17.4,0.7-26.1,0.3C-1,142.5-6.5,141-12.7,140
			C-10.6,139.8-9.2,139.8-7.8,139.7z M-48.5,112c-16.4,0.4-32.4,0.9-48.5,1.3c0,0.6,0,1.1,0,1.7c30.3,0.3,60.6,1.9,91.1,0.5
			c-0.9,0.3-1.8,0.6-2.7,0.9c0.1,0.2,0.1,0.5,0.2,0.7c10.4,0,20.8,0,30.3,0c-10.2-0.6-10.2-0.6-13-3.1c5.8,0,11.7,0,17.6,0
			c0-0.3,0-0.6,0-0.8c-12.8-0.4-25.6-1.2-38.4-1.1c-12.9,0.1-25.8,1-38.6,1.6c-0.1-0.3-0.1-0.5-0.2-0.8
			C-50.1,112.6-49.4,112.3-48.5,112z M192.8,106.4c-1.6-0.3-2.1-0.5-2.6-0.5c-15.8-0.2-31.7-0.4-47.5-0.6
			c-14.5-0.2-29.1-0.2-43.6-0.7c-9.2-0.3-18.1-0.1-26.6,2.6c33.8,1.8,67.5,1.4,101.3,1.3c0-0.3,0-0.6,0.1-0.9
			c-2.1-0.2-4.1-0.3-6.2-0.5c0-0.2,0-0.4,0-0.7C175.7,106.4,183.6,106.4,192.8,106.4z M10.5,158.2c0,0.3,0,0.6,0,0.9
			c38.2,0.4,76.4,0.8,114.6,1.1c0.1-0.4,0.1-0.8,0.2-1.2c-4.6-0.4-9.2-0.9-13.9-1.1c-19.7-0.6-39.4-0.9-59.1-1.5
			C38.2,156.1,24.2,155.5,10.5,158.2z M184,89.9c-5.1-0.3-10.7-0.6-16.3-0.8c-10.9-0.4-21.8-0.7-32.7-1.1c-0.8,0-1.6,0.1-2.4,0.2
			c-3.9,0.5-7.8,1.3-11.7,1.4c-7.5,0.2-15-0.1-22.5-0.2c-1.6,0-3.3,0.2-4.9,0.3c0.1,0.2,0.1,0.3,0.2,0.5c3.6,0.2,7.2,0.5,10.8,0.7
			c0,0.3,0,0.7,0,1c-2.4,0.1-4.7,0.3-7.1,0.4C126.6,92.6,155.8,94.1,184,89.9z M-205.5,72.1c17,3.5,33.8,1.2,50.5,1.7
			c-0.8,0.2-1.6,0.3-2.4,0.5c0-0.2,0-0.5,0.1-0.7c35.2,0,70.4,0,105.6,0c0-0.5,0-1,0-1.5C-102.8,72.1-153.9,72.1-205.5,72.1z
			 M46.7,149.1c-0.1-0.5-0.1-1-0.2-1.4c-11.1,0-22.2,0-33.3,0c-11,0-22.1,0-33.1,0c-10.8,0-21.7,0-32.5,0c0,0.3,0,0.6,0,0.9
			c6.2,0,12.5-0.1,18.7,0c23.9,0.5,47.8,1.1,71.8,1.5C41,150.1,43.9,149.5,46.7,149.1z M299.8,89.7c-31.9,0-63.9,0-95.8,0
			C236,91.4,268.1,91.7,299.8,89.7z M31.1,106.3c-21.3-0.8-43.4-2.8-65.6-0.9c0,0.3,0,0.6,0,0.9C-12.4,106.3,9.7,106.3,31.1,106.3z
			 M247.6,135.9c-32.3,0-64.6,0-96.8,0c0,0.4,0,0.7,0,1.1C183.1,136.8,215.4,138.4,247.6,135.9z M43.1,124c0,0.3,0,0.6,0.1,0.9
			c20.1,0,40.2,0,60.3,0c0-0.3,0-0.6,0-0.9C83.4,124,63.2,124,43.1,124z M-141,127.4c0,0.4-0.1,0.9-0.1,1.3
			c16,0.7,32.1-0.4,48.1-0.4c-7.9-1-15.9-2-23.8-3c-0.1,0.3-0.2,0.7-0.3,1c0.6,0.3,1.1,0.6,2.1,1.1
			C-124,127.4-132.5,127.4-141,127.4z M146.8,129.3c-27.2,0-54.4,0-81.6,0c0,0.3,0,0.6,0,0.8C92.5,129.8,119.7,131,146.8,129.3z
			 M-99.8,190.1c0-0.3,0.1-0.6,0.1-0.9c-17.6,0.1-35.3-1.6-52.9,0.1c0,0.3,0,0.5,0,0.8C-135,190.1-117.4,190.1-99.8,190.1z
			 M10.1,89.9c0,0.2,0,0.4,0,0.7c5.7,0.2,11.4,0.6,17.1,0.5c10-0.2,20-0.7,30-1c1.8,0,3.7,0.3,5.3,0.8c1.7,0.5,3.2,1.3,4.8,2
			c0.1-0.2,0.2-0.5,0.4-0.7c-0.7-0.9-1.4-1.9-2.4-3.3C47.5,89.2,28.8,89.6,10.1,89.9z M-18.3,158.8c0,0.2-0.1,0.5-0.1,0.7
			c-11.5,0-22.9,0-34.4,0c16.1,1,32.1,1.5,48.2-0.6c-1.9-1.2-3.9-1.7-6-2c-0.3,0-1.1,1.4-1.5,2c-3.8-0.3-7.4-0.7-11-1
			c0,0.1-0.1,0.2-0.1,0.3C-21.5,158.4-19.9,158.6-18.3,158.8z M82.3,146.5c-15.9,0-31.7,0-48.8,0C39.4,148.1,78.1,148.5,82.3,146.5z
			 M119.2,81.9c0-0.3,0-0.5,0-0.8c-17.5,0-35.1,0-52.6,0c0,0.3,0,0.5,0,0.8C84.1,81.9,101.6,81.9,119.2,81.9z M101.3,75.5
			c0-0.2,0-0.5,0-0.7c-5.4,0-10.7,0.1-16.1,0c-5.3-0.1-10.5-0.5-15.8-0.6c-5.1-0.1-10.2,0-15.3,0c0,0.5,0,0.9,0,1.4
			C69.9,75.5,85.6,75.5,101.3,75.5z M-38.7,136.1c0.1-0.2,0.2-0.5,0.2-0.7c-13.7,0-27.4,0-41.1,0c0,0.2,0,0.5,0,0.7
			C-65.9,136.1-52.3,136.1-38.7,136.1z M3.5,182.7c0,0.4-0.1,0.9-0.1,1.3c7.7,0,15.4,0,22.3,0c-0.2-0.1-1.2-0.4-2.9-1.1
			c2.9-0.2,4.9-0.3,6.9-0.4c0-0.2,0-0.4-0.1-0.5C20.9,182.2,12.2,182.5,3.5,182.7z M-3.4,123.9c0,0.3,0,0.6,0,0.9
			c14.3,0,28.6,0,42.9,0c0-0.3,0-0.6,0-0.9C25.2,123.9,10.9,123.9-3.4,123.9z M234.7,77.2c0-0.2,0-0.5,0-0.7c-11.8,0-23.5,0-35.3,0
			c0,0.2,0,0.5,0,0.7C211.2,77.2,222.9,77.2,234.7,77.2z M6.6,132.1c0,0.2,0.1,0.4,0.1,0.6c15.2,0,30.5,0,45.7,0c0-0.2,0-0.4,0-0.6
			C37.1,132.1,21.8,132.1,6.6,132.1z M226.5,116.8c0,0.3,0,0.5,0,0.8c11.9,0,23.8,0,35.7,0c0-0.3,0-0.5,0-0.8
			C250.3,116.8,238.4,116.8,226.5,116.8z M127.7,144.7c-3.2-2.8-18.7-2.5-22.1,0C112.9,144.7,119.9,144.7,127.7,144.7z M46.9,139.3
			c0-0.3,0-0.7,0-1c-11.7,0-23.5,0-35.2,0c0,0.3,0,0.7,0,1C23.3,139.3,35.1,139.3,46.9,139.3z M-7.4,125.7c-5-0.8-10-1.7-15.1-2.4
			c-1.6-0.2-3.3,0-5,0c-0.3,0-0.7,0.3-1.2,0.5c1.6,0.2,3,0.4,4.3,0.6c0,0.1-0.1,0.2-0.1,0.3c-2.8,0.1-5.6,0.2-8.4,0.3
			c0,0.2,0.1,0.4,0.1,0.6C-24.3,125.7-15.8,125.7-7.4,125.7z M-57.4,160c0-0.2-0.1-0.4-0.1-0.6c-9.6,0-19.1,0-28.7,0
			c0,0.2,0.1,0.4,0.1,0.6C-76.5,160-67,160-57.4,160z M-204.5,127.4c0,0.3,0,0.5,0.1,0.8c8.2,0,16.4,0,24.6,0c0-0.3,0-0.5,0-0.8
			C-188.1,127.4-196.3,127.4-204.5,127.4z M-138.5,137.6c0,0.3,0,0.5,0,0.8c7,0,14,0,21,0c0-0.3,0-0.5,0-0.8
			C-124.5,137.6-131.5,137.6-138.5,137.6z M-152.3,64.5c0-0.2,0-0.4-0.1-0.6c-8.5,0-16.9,0-25.4,0c0,0.2,0,0.4,0,0.6
			C-169.2,64.5-160.8,64.5-152.3,64.5z M189.1,143.2c0-0.1,0-0.3,0-0.4c-7.1,0-14.2,0-21.3,0c0,0.1,0,0.3,0,0.4
			C174.9,143.2,182,143.2,189.1,143.2z M-7.7,121c0,0.2-0.1,0.4-0.1,0.6c10.8,0,21.7,0,32.5,0c0-0.2,0-0.4,0-0.6
			C13.9,121,3.1,121-7.7,121z M-51.5,84.3c0-0.3,0-0.5,0-0.8c-7.8,0-15.6,0-23.4,0c0,0.3,0,0.5,0,0.8
			C-67.1,84.3-59.3,84.3-51.5,84.3z M347,118.2c0,0.2,0,0.3,0,0.5c8.9,0,17.7,0,26.6,0c0-0.2,0-0.3,0-0.5
			C364.7,118.2,355.9,118.2,347,118.2z M50.6,106c0,0.3-0.1,0.6-0.1,0.9c5.4,0.3,10.9,0.6,16.3,0.8c0-0.2,0.1-0.5,0.1-0.7
			C61.4,106.7,56,106.3,50.6,106z M-54.5,166.1c0,0.2,0,0.4,0,0.6c5.1,0,10.2,0,15.3,0c0-0.2,0-0.4,0-0.6
			C-44.3,166.1-49.4,166.1-54.5,166.1z M295,172.6c0,0.2-0.1,0.4-0.1,0.6c4.2,0,8.5,0,12.7,0c0-0.2,0-0.4,0-0.6
			C303.4,172.6,299.2,172.6,295,172.6z M50.3,81.4c0,0.2,0,0.4,0,0.6c3.4,0,6.9,0,10.3,0c0-0.4,0-0.7-0.1-1.1
			C57.2,81,53.8,81.2,50.3,81.4z M-164,186.5c0,0.2,0.1,0.4,0.1,0.5c6.5,0,12.9,0,19.4,0c0-0.2,0-0.4,0-0.5
			C-151,186.5-157.5,186.5-164,186.5z M-196.1,119.1c0,0.3,0.1,0.6,0.1,0.9c4.9-0.2,9.8-0.3,14.7-0.5c0-0.3-0.1-0.6-0.1-0.9
			C-186.4,118.7-191.2,118.9-196.1,119.1z M129.5,75.2c-0.1-0.2-0.1-0.3-0.2-0.5c-6.6,0-13.2,0-19.8,0c0,0.2,0,0.3,0,0.5
			C116.3,75.2,122.9,75.2,129.5,75.2z M-89.2,147.8c0,0.2,0,0.4,0,0.6c4.5,0,8.9,0,13.4,0c0-0.2,0-0.4,0-0.6
			C-80.3,147.8-84.8,147.8-89.2,147.8z M198.8,92.3c0-0.1,0-0.3,0-0.4c-5.7,0-11.4,0-17.1,0c0,0.1,0,0.3,0,0.4
			C187.4,92.3,193.1,92.3,198.8,92.3z M237.8,172.3c0,0.3,0.1,0.6,0.1,0.9c4.2-0.2,8.5-0.4,12.7-0.5c0-0.3-0.1-0.7-0.1-1
			C246.3,171.9,242.1,172.1,237.8,172.3z M148.9,82.3c0.2-0.1,0.3-0.3,0.5-0.4c-6.6,0-13.1,0-19.7,0c0,0.1,0,0.3,0,0.4
			C136.2,82.3,142.5,82.3,148.9,82.3z M-19.6,184.3c0-0.4-0.1-0.9-0.1-1.3c-4.4,0.2-8.8,0.4-13.2,0.6c0,0.1,0,0.2,0.1,0.3
			C-28.5,184-24.1,184.2-19.6,184.3z"/>
		<path class="st2" d="M34,256.8c-82.6,0-165.2,0-247.8,0c0-1.9,0-3.9,0-6c2.9-0.2,5.2-0.4,7.5-0.4c6.8,0.1,13.6,0.4,20.3,0.6
			c4.2,0.1,8.4,0,12.6,0c3,0,7.2-0.8,8.8,0.1c5.4,3.1,11.4,1,17,1.6c3,0.3,6.1,0.2,9.2,0.2c17.6-0.1,35.3-0.3,52.9-0.5
			c0.9,0,1.9-0.2,3.9-0.4c-6.2-0.7-11.1-1.3-16-1.8c-7.8-0.8-15.6-1.6-23.5-0.1c-1.5,0.3-3.4,0.1-5.1,0c-7.8-0.4-15.5-1.1-23.3-1.3
			c-14.9-0.3-29.9-0.4-44.8-0.5c-6-0.1-11.9,0-17.9,0c0-0.2,0-0.4,0-0.6c11.8-0.7,23.5-1.4,35.3-2.1c-3-0.7-6-1.1-8.9-0.8
			c-6.2,0.6-12.6-1.1-18.9,1.1c-2,0.7-8,1.9-8.5-1c-1-5.4-0.3-10.9-0.3-16.5c2.3,0,3.9,0,5.5,0c0-0.2,0.1-0.3,0.1-0.5
			c-1.4-0.2-2.9-0.4-4.3-0.6c0-0.2,0-0.4,0.1-0.6c20.6,0,41.2,0,61.8,0c0-0.4,0-0.8,0.1-1.1c-21.1-0.4-42.2-0.8-63.3-1.2
			c0-0.5,0-0.9,0-1.4c8.6-0.7,17.2-1.4,25.8-2.1c0.1,0.3,0.2,0.6,0.2,0.9c-1,0.2-2,0.5-3,0.7c6.1,0.2,12.1-0.1,18.2-0.2
			c19.1-0.3,38.1-0.5,57.2-0.6c3.2,0,7.3-0.1,9.3,1.1c3,1.8,5.4,1.7,9,1c-2.4-0.7-4.3-1.2-6.2-1.7c0.3-0.6,0.6-1.1,1-1.7
			c7.2,1,14.4,2.1,21.2,3.1c0.1,0.1-0.3-0.4-0.7-0.9c2.3-0.2,4.2-0.3,7-0.5c-2.4-0.6-3.8-0.9-5.2-1.3c0-0.3,0-0.7,0-1
			c6.7-0.6,13.3-1.1,20-1.7c0,0.2,0.1,0.5,0.1,0.7c-1.3,0.2-2.7,0.3-4,0.5c20.3,2.3,40.7,0.9,61.1,1.9c20.8,1.1,42,0.2,62.9,0.2
			c0-0.5,0-1,0-1.6c-11.3,0-22.5,0-33.8,0c0.1-0.5,0.1-1.1,0.2-1.6c6.2,0.4,12.4,0.8,19.3,1.2c-1.7-0.6-2.6-0.9-4.6-1.6
			c4.4-0.5,7.8-1.3,11.1-1.2c6.6,0.1,13.2,0.7,19.8,1.2c6.1,0.5,12.1,1.6,18.2,1.6c10.1,0.1,20.2-0.5,30.3-0.7
			c6.8-0.1,13.6-0.2,20.4-0.3c6.3,0,12.6,0,18.9,0c0-0.2,0-0.4,0.1-0.5c-2.2-0.2-4.5-0.4-6.7-0.7c0.1-0.2,0.2-0.4,0.2-0.7
			c5.9,0.2,11.9,0.3,17.8,0.5c0,0.1,0,0.2,0,0.3c-2.2,0.1-4.3,0.3-6.2,0.4c38.1,2.4,75.8-2.4,113.8-4c-15.7,0-31.4,0-48,0
			c1.8,0.7,2.7,1.1,3.6,1.4c-9.1,0.5-18,0.8-26.8,0.5c-7.6-0.3-15.4,0.3-22.8-1.8c-3-0.8-7.1-0.3-10.6-0.2c-0.9,0-1.8,0.9-2.2,1.1
			c-6.5-0.3-13-0.5-19.6-0.8c0-0.3,0-0.6,0-1c2.6-0.1,5.2-0.2,7.9-0.3c0,0.1,0,0.1,0,0.2c-18.3,0-36.6,0-54.9,0c0-0.3,0-0.6,0-0.9
			c3-0.3,5.9-0.6,8.9-0.9c-0.1-0.2-0.1-0.5-0.2-0.7c-7.6-0.2-15.2-0.5-22.7-0.7c0-0.2-0.1-0.5-0.1-0.7c5.8-0.4,11.6-0.8,17.4-1.2
			c0-0.2-0.1-0.4-0.1-0.7c-19.6,0-39.2,0-58.8,0c0,0.2-0.1,0.4-0.1,0.6c1.2,0.4,2.4,0.8,3.6,1.2c-0.1,0.2-0.1,0.4-0.2,0.6
			c-4.1,0-8.3,0-12.4,0c0,0.4,0,0.7,0,1.1c16.7,1.3,33.7-0.6,50.5,0.7c-12.5,0.8-24.9,1.7-37.4,2.1c-12.4,0.4-24.8,0.6-37.2,0.4
			c-8.3-0.1-16.4-1.4-24.8,0.1c-3,0.5-6.5,0.1-9.7,0.1c0-0.3,0-0.5,0-0.8c1.2-0.2,2.4-0.3,3.7-0.5c0-0.3-0.1-0.7-0.1-1
			c-7.7,0-15.4,0-23.7,0c2.8,0.3,4.9,0.6,7,0.8c-3.7,1-7.2,1.4-10.8,1.5c-15.2,0.5-30.4,0.9-45.5,1.2c-1.6,0-3.3-0.5-4.9-0.9
			c-1.6-0.4-3.1-0.8-5.4-1.4c14.2-2.4,28.7,1.2,42.1-2.4c-10.2,0-20.3-0.4-30.3,0.1c-7.4,0.4-15.7-1.6-22,2.7
			c-0.2,0.1-0.6,0.1-1,0.1c-4,0.2-8,0.5-11.9,0.5c-9.5,0-19-0.2-28.5-0.4c-12.5-0.3-25.1-0.7-37.6-1c-4.2-0.1-8.4,0.2-12.6,0.5
			c-1.2,0.1-2.1,1.2-3.3,1.4c-1.1,0.1-2.3-0.4-4-0.7c1.5-0.7,2.3-1.1,3.1-1.5c-0.1-0.2-0.3-0.5-0.4-0.7c-2.8,0.3-5.6,0.6-9.1,1
			c-0.2-1.5-0.4-3.2-0.6-5c4.9,0,9,0,13,0c22.3,0.1,44.7,0.3,67,0.2c3.9,0,7.9-1.1,11.8-1.6l0,0c16.4-0.4,32.8-0.7,49.3-1.1
			c0-0.3,0-0.6,0-0.9c-10.5,0-21,0-31.4,0c0-0.5,0-0.9,0-1.4c5.2,0.1,10.3,0.2,15.5,0.2c15.5,0.1,30.9,0.3,46.4,0.3
			c7.1,0,15.2,1,21.2-0.7c6.6-1.9,12.5-1.6,18.8-1.4c-2.6,0.2-5.1,0.4-7.7,0.6c0,0.4,0.1,0.8,0.1,1.2c5.5,0,11,0,16.5,0
			c8.7,0,17.5,0.7,26-0.1c17.2-1.7,34.3-0.5,51.4-0.1c10.9,0.3,21.8,1.8,32.2-2.4c-6.9,0-13.8,0-20.7,0c0-0.4,0-0.7,0-1.1
			c7.6,0,15.2,0,22.8,0c14.9,0,29.9,0.2,44.8,0.1c10-0.1,20-0.6,30-0.8c3.3-0.1,6.6,0.3,9.9,0.5l0,0c-2.6,0.5-5.2,1.5-7.9,1.5
			c-6.3,0.2-12.6-0.3-18.9-0.1c-14.8,0.3-29.6,0.7-44.4,1.1c-2.9,0.1-5.7,0.4-8.6,0.6c-2.6,0.1-5.3,0.2-7.9,0.3
			c0,0.3,0.1,0.6,0.1,0.8c8.7,0.4,17.2,0.5,26.1-0.1c11.9-0.9,24.1-0.9,36.1-0.9c10,0,20,0.6,30,0.7c7.8,0.1,15.6,0,23.8,0
			c-0.4-0.3-0.7-0.7-1.1-1c16.5,0.3,33,0.7,49.5,1c0,0.2,0.1,0.4,0.1,0.5c-1.6,0.5-3.3,1-4.1,1.3c8.2,0.3,16.9,0.6,25.7,0.9
			c0,0.3,0.1,0.6,0.1,0.9c-2.4,0.2-4.9,0.3-7.3,0.5c1.5,0.7,2.8,0.6,4.2,0.5c5.5-0.2,11.1-0.6,16.6-0.5c9.8,0.2,19.6,0.8,29.5,1
			c12.2,0.2,24.4,0.2,36.6,0.2c4.6,0,9.2,0,13.8,0c0,0.5,0.1,1,0.1,1.6c-12.4,0.7-24.8,1.7-37.3,2c-10.5,0.3-21.1-0.4-31.6-0.3
			c-4.5,0-8.9,1-13.4,1.6c-5.4,0.7-10.7,1.6-16.1,2.3c-4.6,0.5-9.3,0.8-15.4,1.3c22.7,0,43.8,0,64.3,0c6,2.2,12.1-0.1,17.7,0.3
			c6.3,0.4,12.7,0.1,19.1,0.1c-0.4,0.7-1,0.9-1.5,1c-0.1,0-0.1,0.2-0.1,0.4c3,0.3,6.1,0.6,9.1,0.9c-8.4-0.4-16.9,2.9-25.1-0.4
			c-0.4-0.1-1-0.1-1.5-0.1c-4.8,0.1-9.7,0.3-14.5,0.3c-12.3-0.2-24.6-0.7-37-0.9c-9.4-0.2-18.7,0-28.1,0c0,0.5,0,0.9,0,1.4
			c15.6,0,31.2,0,46.8,0c0,0.4,0,0.9,0,1.3c-20.6,0-41.2,0-61.8,0c22.3,3.9,44.8,1,67.3,1.5c0,0.4,0,0.8,0,1.1
			c-32.6,0.6-65.2,1.2-97.8,1.8c2.2,0.7,4.3,0.7,6.5,0.7c7.1-0.1,14.3-0.5,21.4-0.4c8.4,0.2,16.6-0.3,25.1,1.2
			c9.1,1.6,19,1.4,28.6,1.9c1,0,2-0.9,3.1-1.1c1.7-0.3,3.5-0.5,5.3-0.7c0.1,0,0.4,0.2,0.6,0.4c-1,0.2-2,0.5-3,0.7
			c0,0.2,0.1,0.4,0.1,0.6c9.4,0,18.8,0,28.2,0c0-0.1,0-0.2,0.1-0.3c-6.2-0.3-12.5-0.7-18.7-1c6.9-0.7,13.8-0.8,20.6-0.7
			c14.8,0.2,29.5,0.6,44.3,0.9c0,0.9,0,1.7,0,2.6c-8.2,0.4-16.5,0.7-24.7,1.2c-1,0.1-1.9,0.9-2.9,1.5c-7-2.2-14.4-2.4-21.9-1.9
			c-3.5,0.3-7,0.9-10.5,1c-11.5,0.4-22.9,0.6-34.4,0.9c0,0.2,0,0.3,0,0.5c1.1,0.3,2.3,0.5,3.9,0.9c-5.8,0.3-11,0.9-16.2,0.9
			c-5.3,0-10.7-1-16-1c-22.5,0.1-44.9,0.6-67.4,0.8c-13.7,0.1-27.5-0.1-41.3,0c-5.9,0-11.8,0.7-17.8,0.6c-12.3-0.1-24.7-0.4-37-0.7
			c-8.8-0.2-17.7-0.8-26.5-0.5c-7.4,0.3-14.6,0.5-22.1-0.1c-4.6-0.4-9.5,0.6-14.3,0.9c0.1,0.6,0.1,1.1,0.2,1.7
			c24.8,0.3,49.6,0.5,74.4,0.8c0,0.3,0,0.5,0,0.8c-3,0.1-6,0.3-8.9,0.4c0.1,0.3,0.1,0.7,0.2,1c6.1-0.4,12.2-0.8,18.3-1.1
			c0.9-0.1,1.9,0.1,2.9,0.2c2.9,0.5,5.7,1.5,8.6,1.5c10.7,0,21.4-0.4,32-0.6c4.5-0.1,9.1-0.4,13.6-0.5c0-0.2,0-0.3,0-0.5
			c-2.3-0.1-4.6-0.1-6.8-0.2c0-0.3,0-0.6,0-1c34,5.2,68.1-0.7,102.1,0.8c-1-0.3-2-0.7-4.2-1.4c8.4-0.2,15.4-0.5,22.3-0.6
			c16.1-0.1,32.3-0.1,48.4-0.2c5.3,0,10.5-0.1,15.8-0.4c3.5-0.2,7-0.7,10.5-1.1c-0.1-0.4-0.1-0.7-0.2-1.1c-1.5,0-3.1,0.1-4.6,0
			c-1.1-0.1-2.1-0.4-3.2-0.7c2.2-0.2,4.3-0.5,6.5-0.5c7.1-0.1,14.2,0,21.3-0.1c0,0.7,0,1.3,0,2c-4.6,0.3-9.2,0.6-13.8,0.9
			c0,0.3,0,0.7,0.1,1c4.6,0,9.2,0,13.7,0c0,4.8,0,9.5,0,14.3c-4.1-0.1-8.1-0.4-12.2-0.2c-4.5,0.2-8.9,1.3-13.4,1.4
			c-9.1,0.2-18.2,0.2-27.3,0c-2.2,0-4.5-0.7-6.4-1.5c-3.1-1.4-12.9-1.3-16.5,0.8c3.9,0.1,7.1,0.2,10.2,0.3c-2.6,0.5-5.1,0.6-7.6,0.7
			c-1.6,0-3.5,0.2-4.8-0.2c-3.5-1.1-6.5-3.3-10.1-3.6c-6.6-0.6-13.3-0.2-20-0.2c0,0.2,0,0.4,0,0.7c5.3,0,10.7,0,16,0
			c0,0.3,0,0.5,0,0.8c-6.5-0.2-13.7,0.5-19.5-1c-6.4-1.6-12.5-1.7-18.9-1.7c-12.2,0-24.5,0-36.9,0c0-0.5-0.1-1.3-0.2-2.8
			c-18.5,3.8-37,2.3-55.4,2.5c2.8,0.2,5.6,0.3,8.4,0.5c0,0.4-0.1,0.8-0.1,1.2c-11.2,0-22.4,0-34.5,0c3.1-0.4,5.3-0.8,7.6-1.1
			c-11.3-0.1-22.5-0.7-33.6-1.1c-9.7-0.3-19.3-0.6-29-0.7c-9-0.1-18-0.2-26.9,0.4c-3.8,0.3-7.1,0.4-10.7-0.3c-0.8-0.2-1.7,0-2.5,0
			c-19.8,0.3-39.7,0.5-59.5,0.8c-9.1,0.1-18.2,0.5-27.3,0.7c-0.5,0-1,0.4-1.4,0.6c0.1,0.3,0.2,0.7,0.3,1c14.8-0.5,29.6-1.1,44.4-1.6
			c1.7-0.1,3.4-0.1,5,0.1c7,0.6,13.8,2.4,21.1,0.9c1.4-0.3,3-0.2,4.6-0.2c20.6,0.4,41.2,0.9,61.8,1.3c8.5,0.2,17,0.2,25.4,0.3
			c2.9,0,5.9,0,8.8,0c0,0.5,0,1-0.1,1.5c-44.1,1-88.2-0.2-132.3-0.8c0,0.4,0,0.8,0,1.2c4.6,0,9.2,0,13.8,0c0,0.1,0,0.2-0.1,0.2
			c-5.2,0.7-10.4,1.3-15.8,2C15,254.4,24.5,255.6,34,256.8z M99.2,219c1.7,0.5,3.3,1.4,5,1.5c6.3,0.3,12.6,0.4,18.9,0.4
			c13.9,0,27.8,0.1,41.7-0.1c13.4-0.2,26.8-0.7,40.2-0.9c10.1-0.2,20.2,0,30.3,0c0-0.4,0-0.9,0-1.3c-8.6-0.2-17.1-0.4-25.7-0.6
			c-6.1-0.1-12.2,0-18.4-0.1c-6.8-0.1-13.6-0.7-20.3-0.6c-9.6,0.2-19.2,1.1-28.9,1.2c-10.5,0.1-21-0.7-31.5-0.8
			C106.8,217.6,103,218.5,99.2,219c-6.4-0.7-12.7-2-19.1-2.1c-10.5-0.3-21,0.2-31.5,0.4c-0.6,0-1.2,0.2-1.9,0.4
			c0,0.2,0.1,0.5,0.1,0.7C64.3,218.5,81.7,218.8,99.2,219z M-46.3,226.8c0,0.1-0.1,0.1-0.1,0.2c-26.3,0-52.6,0-78.9,0
			c19.5,2.5,89.6,2,103.9,0c-12-0.7-22.7-1.3-33.4-1.9c-0.1,0.4-0.1,0.7-0.2,1.1C-52.1,226.3-49.2,226.5-46.3,226.8z M-9.7,202
			c-0.1-0.9-0.1-1.2-0.1-1.2c-29,0.4-58-2.2-87,0c0,0.4,0,0.8,0,1.2C-67.8,202-38.8,202-9.7,202z M-40.8,219.1
			c8.3,0.7,17,3,24.1,1.8c8.4-1.5,16.2-0.2,24.2-0.7c8-0.5,16.1-0.1,24.2-0.1c0-0.4,0-0.8-0.1-1.2C7.6,217.6-16.5,217.6-40.8,219.1z
			 M332.3,240.6c0,0.4,0,0.7-0.1,1.1c22.4,0,44.7,0,67.1,0c0-0.4,0-0.7,0-1.1C377,240.6,354.7,240.6,332.3,240.6z M-174.3,232.9
			c0,0.4,0,0.7,0,1.1c2.1,0,4.3,0,6.4,0c15.3,0.1,30.5,0.3,45.8,0.4c3.9,0,7.8-0.4,11.7-0.7c0-0.2-0.1-0.5-0.1-0.7
			C-131.8,232.9-153,232.9-174.3,232.9z M-102.4,219.9c0,0.3,0,0.6,0,1c18.5,0,37.1,0,55.6,0c0-0.3,0-0.6,0-1
			C-65.3,219.9-83.8,219.9-102.4,219.9z M-13.7,227.8c0,0.3,0,0.6,0,0.9c19.1,0,38.1,0,57.2,0c0-0.3,0-0.6,0-0.9
			C24.4,227.8,5.3,227.8-13.7,227.8z M124.6,199.6c5.6,0.9,10.3,1.9,15,2.3c5,0.5,10.2,0.5,15.2,0.6c4.7,0.1,9.4,0,14.2,0
			c0-0.4,0-0.7,0-1.1c-5.9-0.2-11.8-0.2-17.7-0.6c-3-0.2-6-1.1-9-1.2C136.7,199.4,131.1,199.6,124.6,199.6z M-12.5,224.5
			c0,0.3,0,0.6,0,0.8c14.9,0,29.7,0,44.6,0c0-0.3,0-0.6,0-0.8C17.2,224.5,2.4,224.5-12.5,224.5z M295.8,224.3c0-0.3,0-0.7,0-1
			c-15.5,0.4-31,0.8-46.6,1.2c7.8,0.7,15.6,0.8,23.5,0.7C280.3,224.9,288,224.5,295.8,224.3z M259.8,201.1c0-0.4,0.1-0.7,0.1-1.1
			c-1.6,0-3.2,0-4.7,0c-3.6,0-7.2,0.3-10.7,0c-3.6-0.3-7-1.1-9.8-1.5c-0.8,1.5-1.1,2.2-1.4,2.6C241.9,201.1,250.9,201.1,259.8,201.1
			z M228.9,207.8c0-0.3,0-0.5,0-0.8c-10.8,0-21.6,0-32.5,0c0,0.3,0,0.5,0,0.8C207.2,207.8,218.1,207.8,228.9,207.8z M309.7,207.6
			c0-0.3,0-0.5,0-0.8c-2.3-0.1-4.5-0.2-6.8-0.3c-0.1-0.2-0.1-0.5-0.2-0.7c2.8-0.5,5.5-0.9,8.5-1.4c-13.1-0.3-14.9,0.2-14.5,3.6
			C301.1,207.9,305.4,207.7,309.7,207.6z M-40.1,218.1c0-0.3,0-0.5,0-0.8c-10,0-20,0-29.9,0c0,0.3,0,0.5,0,0.8
			C-60.1,218.1-50.1,218.1-40.1,218.1z M-69.5,243.5c8.9,0,17.1,0,25.4,0c-2.8-0.5-5.8-0.3-8.4-0.9c-1.8-0.4-2.8-2-5.5-1.4
			C-61.5,242.1-65.1,242.7-69.5,243.5z M302,223.8c0,0.2,0,0.4,0,0.6c5.9,0,11.8,0,17.7,0c0-0.2,0-0.4,0-0.6
			C313.8,223.8,307.9,223.8,302,223.8z M261.1,238.6c-0.1-0.2-0.1-0.3-0.2-0.5c-7.9,0-15.8,0-23.8,0c0,0.2,0,0.3,0,0.5
			C245.1,238.6,253.1,238.6,261.1,238.6z"/>
		<path class="st2" d="M197.2,249.2c7.7,0.4,15.4,1.2,23.1,1.2c12.2,0,24.4-0.6,36.6-1c0.3,0,0.7-0.2,1-0.2
			c12.7,2.4,25.5-0.6,38.4,0.7c12.8,1.3,26.1,0.3,39.3,0.2c10.7-0.1,21.4-0.5,32.1-0.6c3.8,0,7.6,0.6,11.4,0.7
			c7.1,0.3,14.3,0.5,21.4,0.7c0.9,2.2-1.4,2-3.6,2c-58.9,0-117.7,0-176.6,0c-8.6-0.2-17.2-0.4-25.9-0.5c-2.3,0-4.6,0.4-6.9,0.5
			c-2,0-4.1,0-6.1,0c-2.7-0.6-5.4-1.3-8.1-1.7c-1.7-0.3-3.6,0-5.4-0.8c6.8,0,13.6,0.1,20.3-0.1c3.1-0.1,6.1-0.8,9.1-1.2
			C197.4,249.1,197.2,249.2,197.2,249.2z"/>
		<path class="st2" d="M400.6,193.1c-2.7-0.2-5.4-0.4-8.1-0.5c-3.4-0.1-6.8-0.2-10.2-0.3c-5.6-0.1-11.1-0.1-16.7-0.1
			c-1.9,0-4.1,1.4-5.3-0.7c-0.1-0.2-0.9-0.2-1.4-0.2c-10.7,0-21.4,0.2-32.1,0.1c-7-0.1-14-0.7-21.1-1.1c18-1.3,35.9-2.5,54.1-1.3
			c13.5,0.9,27.2,0.6,40.8,0.9C400.6,190.9,400.6,192,400.6,193.1z"/>
		<path class="st2" d="M400.6,127.4c-31.5,0-63,0-94.5,0c0-0.4,0-0.8,0-1.2c7.6,0,15.2,0,22.9,0c10.3,0,21,0.9,31-0.3
			c6.9-0.8,13,0.4,19.4,0.2c7.1-0.2,14.2-0.5,21.3-0.7C400.6,126.1,400.6,126.7,400.6,127.4z"/>
		<path class="st2" d="M400.6,111.8c-7.3,0.2-14.6,0.4-21.9,0.4c-4.6,0-9.2-0.4-13.8-1.4c11.9-0.1,23.8-0.2,35.6-0.3
			C400.6,110.9,400.6,111.3,400.6,111.8z"/>
		<path class="st2" d="M400.6,201.5c-10.1-0.3-20.3-0.6-30.4-0.9c0-0.1,0-0.2,0-0.3c10.1-0.2,20.3-0.5,30.4-0.7
			C400.6,200.2,400.6,200.9,400.6,201.5z"/>
		<path class="st2" d="M85.2,252.9c11.3-0.6,22.6-1.2,34-1.8c0,0.3,0.1,0.5,0.1,0.8c-0.8,0.4-1.6,0.7-2.3,1.1
			C106.4,252.9,95.8,252.9,85.2,252.9z"/>
		<path class="st2" d="M203.3,195.2c0.6,0,1.2,0,1.9,0c0-0.4,0-0.7,0-1.1c-8.5-0.1-17-0.4-25.6-0.3c-8.1,0.1-16.2,0.6-24.4,0.3
			c4.5-0.4,9-0.8,13.5-1.2c0-0.1,0-0.2,0-0.2c-8.1-0.2-16.2-0.5-24.3-0.7c17.3-3.5,34.8,0,52.2-1.4c-3.1,0-6.3,0-9.4,0
			c0-0.4,0-0.7,0-1.1c15.4,0,30.8,0,46.3,0c-1,0.2-2,0.5-3.1,0.8c0,0.2,0,0.4,0,0.6c11.9,0.7,23.8,1.3,35.7,2c0,0.1,0,0.2,0.1,0.3
			c-4,0-8.1-0.2-12.1,0c-3.8,0.2-7.6,0.8-11.4,1.3c-1.3,0.2-2.6,0.4-3.9,0.4c-4.2,0.2-8.3,0.4-12.5,0.5c-1.7,0-3.3-0.1-5-0.1
			c-3.9,0-7.9,0-11.8,0C207.4,195.2,205.4,195.2,203.3,195.2C203.3,195.2,203.3,195.2,203.3,195.2z"/>
		<path class="st2" d="M-24.8,193.8c1.2,0,2.7-0.1,3.4-0.1c-6.1,0-13.1,0.2-20-0.1c-6.8-0.3-13.5-1.2-21.1-1.8
			c14.8-2.2,29.2-1.7,43.7,0c0-0.3,0-0.6,0.1-0.9c-1.2-0.2-2.3-0.4-3.5-0.6c-0.1-1.4,26.3-0.7,35.6,1.3c-2.9,0.4-5.9,0.7-8.8,1.1
			c0,0.1,0,0.3,0,0.4c5.5-0.2,11-0.3,16.4-0.5c0.1,0.3,0.1,0.6,0.2,0.9c-2.7,0.3-5.3,0.7-8,0.7c-5.4,0-10.8-0.2-16.3-0.2
			c-1.4,0-4.5-0.7-2.7,1.6c-3,0.1-6.1,0.6-8.9,0.3C-18.2,195.5-21.5,194.5-24.8,193.8z"/>
		<path class="st2" d="M136.5,189.5c-15.8,1.4-31.7,1-47.6,0.2c0-0.3,0-0.7,0-1c15.9,0,31.7,0,47.6,0
			C136.5,189,136.5,189.2,136.5,189.5z"/>
		<path class="st2" d="M77.3,196.2c-14.4,0-28.8,0-43.1,0c0-0.3,0-0.7,0-1c14.4,0.6,28.7-3.1,43.1,0.2
			C77.3,195.6,77.3,195.9,77.3,196.2z"/>
		<path class="st2" d="M293.9,198.7c6.8-1.3,50.8-0.5,54,1c-4.8-0.2-9.5-1.3-13.2-0.5C320.9,202.1,307.5,198.3,293.9,198.7z"/>
		<path class="st2" d="M-212.8,194.1c12.1,0.3,24.3-1.4,36.1,0.9C-188.8,194.7-201,196.5-212.8,194.1z"/>
		<path class="st2" d="M-121.8,202.5c-13.1,0.1-26.1,0.1-39.2,0.2c-2.7,0-5.3,0-8,0c0-0.3,0-0.6,0-0.9c5,0,10,0,15,0
			c0.8,0,1.8,0.3,2.5,0.1C-141.4,198.8-131.7,202-121.8,202.5C-121.8,202.5-121.8,202.5-121.8,202.5z"/>
		<path class="st2" d="M290.6,190.6c-14.9,0-29.9,0-44.8,0c0-0.3,0-0.6,0-0.9c14.9,0,29.9,0,44.8,0
			C290.6,190,290.6,190.3,290.6,190.6z"/>
		<path class="st2" d="M-151.3,60.9c-0.6-0.5-1.5-1.3-2.9-2.5c6.5,1.1,13.3-1.6,18.6,2.5C-140.9,60.9-146,60.9-151.3,60.9z"/>
		<path class="st2" d="M174.4,188.2c-11.1,0-22.3,0-33.4,0c0-0.1,0-0.2,0-0.2c11.1-0.3,22.3-0.6,33.4-0.9
			C174.4,187.4,174.4,187.8,174.4,188.2z"/>
		<path class="st2" d="M-200.9,176.8c9.6,0,19.3,0,28.9,0c0,0.3,0,0.5,0,0.8c-9.6,0-19.3,0-28.9,0
			C-200.9,177.3-200.9,177.1-200.9,176.8z"/>
		<path class="st2" d="M-184.3,215.4c8.1,0,16.2,0,24.2,0c0,0.2,0,0.4,0,0.6c-8.1,0-16.2,0-24.2,0
			C-184.3,215.8-184.3,215.6-184.3,215.4z"/>
		<path class="st2" d="M-96.6,174.5c6.4,0,12.8,0,19.3,0c0,0.2,0,0.4,0,0.6c-6.5,0-13.1,0-19.6,0C-96.9,174.9-96.7,174.7-96.6,174.5
			z"/>
		<path class="st2" d="M269.5,186.6c6.9,0,13.7,0,20.6,0c0,0.2,0,0.4,0,0.6c-6.8,0-13.7,0-20.5,0
			C269.6,187.1,269.5,186.9,269.5,186.6z"/>
		<path class="st2" d="M-175.2,212c-6.2-0.2-12.4-0.4-18.7-0.5c0-0.3,0.1-0.6,0.1-0.9c6.2,0.2,12.5,0.4,18.7,0.6
			C-175.1,211.4-175.2,211.7-175.2,212z"/>
		<path class="st2" d="M-181.3,58.3c5.1,0,10.1,0,15.2,0c0,0.2,0,0.3,0,0.5c-5.1,0.2-10.1,0.4-15.2,0.6
			C-181.2,59-181.3,58.7-181.3,58.3z"/>
		<path class="st2" d="M-50.1,58.9c6.2,0.3,12.3,0.7,18,1c-5.7,0-11.9,0-18.1,0C-50.2,59.6-50.2,59.3-50.1,58.9z"/>
		<path class="st2" d="M-199.8,198.2c5.5,0,11.1,0,16.6,0c0,0.5,0,1,0,1.5c-5.6-0.3-11.2-0.6-16.8-0.9
			C-200,198.6-199.9,198.4-199.8,198.2z"/>
		<path class="st2" d="M-126,175.8c-3,0.3-6,0.6-9,1c-3,0.4-4.1-0.3-3.4-2.5c2-0.1,4.2-0.1,6.9-0.2c-0.7,0.6-1.1,0.8-1.9,1.4
			C-130.7,175.6-128.4,175.7-126,175.8C-126,175.8-126,175.8-126,175.8z"/>
		<path class="st2" d="M246.6,195c5.2,0.3,10.4,0.6,15.5,0.8c0,0.1,0,0.1,0,0.2c-5.2,0-10.5,0-15.7,0
			C246.5,195.7,246.5,195.4,246.6,195z"/>
		<path class="st2" d="M270.5,196.4c5.8-0.2,11.6-0.4,17.4-0.7c0,0.2,0,0.4,0,0.7C282.2,196.4,276.4,196.4,270.5,196.4z"/>
		<path class="st2" d="M105.7,211.2c-6.1-0.2-12.1-0.4-18.2-0.7c0-0.1,0-0.2,0-0.2c6.1,0,12.2,0,18.2,0
			C105.7,210.6,105.7,210.9,105.7,211.2z"/>
		<path class="st2" d="M-49.4,211.8c4.3,0.3,8.5,0.5,12.8,0.8c0,0.1,0,0.2-0.1,0.3c-4.3,0-8.6,0-12.8,0
			C-49.5,212.6-49.4,212.2-49.4,211.8z"/>
		<path class="st2" d="M122.4,210.6c3.4,0.3,6.9,0.6,10.3,0.8c-0.1,0.4-0.1,0.7-0.2,1.1c-3.4-0.4-6.8-0.7-10.2-1.1
			C122.4,211.1,122.4,210.8,122.4,210.6z"/>
		<path class="st2" d="M217.8,161.7c-11.8-0.6-23.6-1.2-35.4-1.7c0-0.3,0-0.6,0-0.9c9,0,17.9,0,27.7,0c-1.5,0.5-2.3,0.8-3.9,1.3
			c4.3,0.1,7.9,0.3,11.6,0.4C217.9,161.1,217.9,161.4,217.8,161.7z"/>
		<path class="st2" d="M376.1,163.9c-12.3,4-24.1,0.3-35.2,2.2c0-0.3-0.1-0.6-0.1-0.9C352.1,164.7,363.3,164.3,376.1,163.9z"/>
		<path class="st2" d="M366,159.1c-9.4-0.4-18.8-0.8-28.3-1.1c0-0.1,0-0.2,0-0.3c9.4,0,18.8,0,28.1,0
			C365.9,158.1,365.9,158.6,366,159.1z"/>
		<path class="st2" d="M229.3,161.9c2.1,0,6.9-0.9,8.5,0.2c4,2.6,8.6,1.1,12.8,2.2c-4.3,0-8.7,0.3-13-0.1
			C234.4,163.9,231.5,162.5,229.3,161.9z"/>
		<path class="st2" d="M301.6,102.2c3.5,0,7,0.3,10.4,0.1c6.6-0.5,13-0.3,19.3,0.9c0,0.3,0,0.6,0,0.9c-12.8,0-25.7,0-38.5,0
			c-0.1-0.1-0.2-0.2-0.3-0.3c3.1-0.6,6.2-1.1,9.3-1.7L301.6,102.2z"/>
		<path class="st2" d="M-21.9,97.6c-0.8-0.4-1.6-0.7-2.4-1.1C-11.5,96,1.2,95.4,14,95.1c1.4,0,2.9,1.1,4,2.2c-2.9,0-5.8,0-9,0
			c0.6-0.4,1.1-0.6,1-0.6c-10.4,0.3-21.2,0.5-32,0.8C-22.1,97.5-21.9,97.6-21.9,97.6z"/>
		<path class="st2" d="M196.9,98.9c7.4-0.3,14.8-0.6,21.8-0.9c-2.3,1.5-4.1,1.6-10.3,1.4c-3.7-0.1-7.5,0.4-11.3,0.6
			C197,99.6,197,99.2,196.9,98.9z"/>
		<path class="st2" d="M301.8,102.2c-3.8-0.4-7.7-0.9-11.5-1.3c0-0.2,0-0.3,0.1-0.5c4.9,0,9.9,0,16.3,0c-2.5,0.9-3.7,1.4-5,1.8
			C301.6,102.2,301.8,102.2,301.8,102.2z"/>
		<path class="st2" d="M86.1,114.4c-6.7,0-13.5,0-20.2,0c0-0.2,0-0.3,0-0.5c6.8,0,13.7,0,20.5,0C86.3,114.1,86.2,114.3,86.1,114.4z"
			/>
		<path class="st2" d="M361.2,116.3c-3.1-0.3-6.3-0.6-9.4-0.9c0.1-0.3,0.1-0.6,0.2-1c3.2,0.2,6.3,0.4,9.5,0.5
			C361.3,115.5,361.2,115.9,361.2,116.3z"/>
		<path class="st2" d="M349.3,102c4.2,0.1,8.4,0.3,12.7,0.4c0,0.3-0.1,0.6-0.1,1c-4.2-0.2-8.4-0.4-12.7-0.5
			C349.2,102.5,349.3,102.2,349.3,102z"/>
		<path class="st2" d="M204.6,248c-1.4-2,1.2-1.6,2.6-1.6c6.8-0.3,13.6-0.4,20.3-0.7c9.8-0.4,19.6-0.9,29.4-1.3c1,0,2.3-0.2,3,0.1
			c7.6,3,15.8,1.5,23.9,1.7c5.5,0.1,11,0.4,16.4,0.6c0,0.4,0,0.7-0.1,1.1c-19.1,0-38.2,0-57.3,0c-0.1-0.1-0.1-0.2-0.2-0.3
			c2.6-0.2,5.1-0.5,7.7-0.7c0-0.3-0.1-0.5-0.1-0.8C235.1,246.7,219.8,247.4,204.6,248L204.6,248z"/>
		<path class="st2" d="M63.1,248.6c17.8,0,35.7,0,53.7,0C113.2,251,71.6,251.5,63.1,248.6z"/>
		<path class="st2" d="M204.6,248c-2.4,0.4-4.9,0.8-7.3,1.1c0,0,0.1,0,0.1,0c-2.4-0.4-4.8-0.8-7.2-1.3c0-0.3,0.1-0.6,0.1-0.9
			C195,247.3,199.8,247.7,204.6,248C204.6,248,204.6,248,204.6,248z"/>
		<path class="st2" d="M266.3,126c-5.7,0-11.4,0-17,0c0-0.2,0-0.4,0-0.6c5.6,0,11.3,0,16.9,0C266.2,125.6,266.3,125.8,266.3,126z"/>
		<path class="st2" d="M284.2,125.7c4.2,0.3,8.3,0.5,12.5,0.8c0,0.2,0,0.5,0,0.7c-4.2-0.2-8.4-0.4-12.6-0.6
			C284.2,126.3,284.2,126,284.2,125.7z"/>
		<path class="st2" d="M326.1,64.6c0.7-0.1,1.5-0.2,2.2-0.4c0-0.2-0.1-0.4-0.1-0.5c-7.2,0-14.4,0-21.6,0c5-1.4,9.9-2,15.5-1.8
			c11.8,0.3,23.8-0.3,35.6-0.6c0.6,0,1.2,0,3,0.1c-8.1,2.5-15.3,3.2-23,2.1c-1-0.1-2.3,1.3-3.6,1.4C331.6,65,328.8,64.7,326.1,64.6
			C326.1,64.6,326.1,64.6,326.1,64.6z"/>
		<path class="st2" d="M298.8,61.4c1.6-0.1,3.2-0.3,4.7-0.4c0-0.2,0-0.3,0-0.5c-1.7-0.1-3.4-0.2-5.1-0.3c0-0.1,0-0.2,0-0.3
			c2.9,0.1,5.8,0.2,8.7,0.3c0,0.4,0.1,0.7,0.1,1.1c-2.7,0.4-5.5,0.7-8.2,1.1C299,62,298.9,61.7,298.8,61.4z"/>
		<path class="st2" d="M58,63.9c7.6-0.4,15.2-0.8,22.8-1.2c0,0.2,0.1,0.4,0.1,0.6c-1.9,0.2-3.8,0.4-5.6,0.7c0,0.2,0,0.5,0,0.7
			c16.6,0,33.2,0,50.6,0c-1.2,0.9-1.7,1.4-2.6,2.1c1.8,0.2,3.1,0.4,4.5,0.6c0,0.2,0,0.4-0.1,0.7c-3.5,0-7.4,0.7-10.3-0.1
			c-9.3-2.5-18.9-0.6-28.2-1.6c-7.4-0.7-15.2,0.4-22.4-2.1c-2.3-0.8-5.8-0.3-8.7-0.3C58.1,63.9,58,63.9,58,63.9z"/>
		<path class="st2" d="M142.5,68.7c3.6,0.3,7.3,0.5,10.9,0.8c-0.1,0.5-0.2,1-0.3,1.4c-3.6-0.4-7.2-0.8-10.8-1.2
			C142.4,69.3,142.4,69,142.5,68.7z"/>
		<path class="st2" d="M135,69.8c-4.4,0-8.8,0-13.3,0c0-0.2,0-0.4,0-0.6c4.4,0,8.8,0,13.3,0C135,69.4,135,69.6,135,69.8z"/>
		<path class="st2" d="M91.7,68.4c4.4-0.3,8.8-0.5,13.2-0.8c0,0.4,0.1,0.9,0.1,1.3C100.7,70.2,96.1,68.1,91.7,68.4z"/>
		<path class="st2" d="M-61.5,139.2c5.7,0.4,11.3,0.9,17,1.3c0,0.2,0,0.4-0.1,0.6c-5.7-0.2-11.4-0.5-17.1-0.7
			C-61.6,140-61.5,139.6-61.5,139.2z"/>
		<path class="st2" d="M323.1,230.1c9,0,18.1,0,27.1,0c0,0.2,0,0.3,0,0.5c-9,0-18.1,0-27.1,0C323.1,230.4,323.1,230.3,323.1,230.1z"
			/>
		<path class="st2" d="M219.9,234.3c-4.6,0-9.1,0-13.7,0c0-0.1,0-0.3,0-0.4c4.6,0,9.1,0,13.7,0C219.9,234.1,219.9,234.2,219.9,234.3
			z"/>
	</g>
</g>
<polygon class="st3" points="303.3,119.9 -3.9,210.1 -3.9,-3.7 303.3,-3.7 "/>
</svg>
