<?xml version="1.0" encoding="utf-8"?>
<!-- Generator: Adobe Illustrator 20.0.0, SVG Export Plug-In . SVG Version: 6.00 Build 0)  -->
<svg version="1.1" id="Layer_1" xmlns="http://www.w3.org/2000/svg" xmlns:xlink="http://www.w3.org/1999/xlink" x="0px" y="0px"
	 viewBox="0 0 300 250" style="enable-background:new 0 0 300 250;" xml:space="preserve">
<style type="text/css">
	.st0{fill:#674730;}
	.st1{clip-path:url(#SVGID_2_);}
	.st2{fill:#3C2514;}
	.st3{fill:none;stroke:#FFFFFF;stroke-miterlimit:10;}
	.st4{fill:#563819;}
	.st5{fill:#674930;}
	.st6{fill:#A56D3E;}
	.st7{fill:#4A3522;}
	.st8{fill:#6D481D;}
	.st9{fill:#7C5D3D;}
</style>
<polygon class="st0" points="301.7,252 -1.5,252 -1.5,208.7 301.7,119.7 "/>
<g>
	<defs>
		<polygon id="SVGID_1_" points="301.7,253.1 301.1,119.7 -1.5,209.9 -1.5,253.1 		"/>
	</defs>
	<clipPath id="SVGID_2_">
		<use xlink:href="#SVGID_1_"  style="overflow:visible;"/>
	</clipPath>
	<g class="st1">
		<path class="st2" d="M398.4,69.4c0,10.1,0,20.1,0,30.2c-4.3-0.4-8.5-1.2-12.8-1.2c-16.8-0.1-33.5,0.1-50.3,0.2
			c-13.1,0.1-26.2,0-39.4,0.3c-3,0.1-6,1-9.1,1.6c0.1,0.4,0.3,0.8,0.4,1.2c13.6,0,27.2,0,40.7,0c13.3,0,26.6,0,39.7,1.5
			c-0.6,0.6-1.2,0.8-1.8,0.8c-10.7-0.9-21.4,1-32.1,0.2c-5.1-0.4-10.4,0.3-15.5,0c-6.6-0.3-13.1-1.3-19.7-1.6
			c-5.2-0.2-10.4,0.4-15.6,0.4c-5.8,0.1-11.6,0-17.5,0c0-0.5,0.1-1,0.1-1.4c5.4,0,10.7,0,16.1,0c-8.7-1.7-17.3-3.4-26-3.7
			c-8.7-0.3-17.6,0.9-26.4,1.1c-4.8,0.1-9.6-0.6-14.5-0.6c-14.1,0.1-28.2,0.4-42.2,0.6c-15.7,0.2-31.4,0.3-47,0.4
			c-19.3,0.2-38.6,0.3-57.9,0.5c-4.8,0-9.5,0-14.3,0c0-0.4-0.1-0.7-0.1-1.1c8.7-0.4,17.3-0.8,25.5-1.1c0.2,0.1-0.2-0.2-0.6-0.2
			c-9.6-0.8-19.2-1.5-28.8-2.3c-0.9-0.1-2,0.2-2.9,0.4c-1.4,0.2-2.8,0.7-4.2,0.7c-5.6,0-11.3-0.1-16.9-0.1
			c-15.1,0-30.2,0.3-45.4,0.2c-19.5-0.1-38.9-1.1-58.4,0.5c-1,0.1-2-0.1-3-0.3c-2.6-0.4-5.1-1-7.7-1.1c-7.9-0.2-15.8-0.2-23.7-0.3
			c-12.9-0.2-25.9-0.5-38.8-0.6c-2.3,0-4.6,1.4-7,1.5c-4.3,0.3-8.7,0.1-13,0.1c21.5,1.3,43.1-0.8,64.4,2.2c0,0.3,0,0.6,0,0.8
			c-12.1,0-24.2,0-36.3,0c0,0.4,0,0.8,0,1.2c27.9,0.8,55.9,1.2,83.9,0.1c-0.3,0.3-0.5,0.7-0.3,0.4c13.5,0,27.3,0,41.2,0l-0.2-0.1
			c7.5,0.2,15.1,0.6,22.6,0.6c11.4,0.1,22.9,0,33.3,0c-2.6-0.2-6.2-0.4-9.7-0.7c2.3-0.6,4.7-0.9,6.9-0.6c14.3,2,28.8,1.5,43.2,1.7
			c11.9,0.2,23.8,0.3,35.7,0.5c0,0.4,0,0.9,0,1.3c-10.2,0-20.4,0-30.6,0c0,0.5,0,0.9,0,1.4c6.8,0,13.6,0,20.4,0
			c4.3,0,8.8,0.6,13,0.2c16.2-1.3,32.4-0.8,48.7,0c9.7,0.5,19.3,0.8,29,1.2c-0.8-0.5-1.6-0.4-2.4-0.5c-0.8-0.1-1.6-0.3-2.4-0.4
			c0.1-0.2,0.1-0.4,0.2-0.6c16.5,0.9,33.1,1.7,49.6,2.6c0,0.4,0,0.7-0.1,1.1c-13.5,0-27,0-40.5,0c0,0.3,0,0.5,0,0.8
			c21.7,0.1,43.4,1.1,65.1-0.2c0-0.3,0-0.6,0-0.8c-5.2,0.2-10.4,0.4-15.6,0.6c-0.1-0.3-0.1-0.6-0.2-0.9c8.7-1.7,17.8-1.5,26.8-2.1
			c-2-0.6-3.9-0.8-5.8-0.8c-1.8-0.1-3.6,0-5.4,0c0.1-0.4,0.2-0.8,0.4-1.2c7.7,1.1,15.4,2.2,23,3.2c0,0.3-0.1,0.6-0.1,0.9
			c-6.4,0.2-12.8,0.4-20.4,0.6c2.8,1.3,4.3,2.6,6.2,2.8c2.7,0.3,5.7-0.3,8.5-0.4c0.5,0,1,0,1.5,0c10.4,0.3,20.8,0.7,31.2,1
			c3.6,0.1,7.3-0.6,10.9-0.4c8.8,0.5,17.5,1.3,26.3,1.9c-15,0.6-30.1-0.5-45,1.1c2.4,0.2,4.8,0.4,7.2,0.6
			c-8.7,0.1-17.1-0.5-25.6-0.8c-3.6-0.1-7.3,0.8-11,0.8c-3,0-6-1.1-8.9-1.1c-3.5,0-6.9,1.1-10.4,1.1c-5.3-0.1-10.7-1-16-1.1
			c-15.6-0.2-31.2-0.2-46.8-0.2c-4.8,0-9.7,0-14.5,0c0,0.3,0,0.6,0,0.9c4.5,0,9,0,13.5,0c-8.1,0.5-16.1,0.7-24.2,0.5
			c-4.4-0.1-8.8-1.1-13.3-1.2c-5.7-0.1-11.3,0.4-17,0.6c-10.8,0.3-21.5,0.6-32.3,0.9c-0.5,0-1,0-1.5,0.1c-4.5,0.9-8.7,1-13.6,0.7
			c-11.5-0.8-23.1-0.6-34.7-0.8c-1.8,0-3.7-0.3-5.5-0.5c0-0.3,0.1-0.5,0.1-0.8c11.2,0,22.4,0,33.6,0c0-0.2,0-0.5,0-0.7
			c-18.7,0-37.4,0-56.1,0c0,0.2,0,0.4,0,0.6c4.5,0,9,0,13.8,0c-3.6,0.7-6.7,1.4-9.9,2c0.1,0.4,0.2,0.7,0.3,1.1c8.8,0,17.5,0,26.3,0
			c0,0.3,0.1,0.7,0.1,1c-4,0.2-7.9,0.5-11.9,0.7c0.1,0.4,0.1,0.7,0.2,1.1c2.9,0,5.9,0,8.8,0c23.3,0.1,46.6,0.3,69.9,0.2
			c17.5-0.1,34.9-0.7,52.4-1c12.9-0.2,25.8-0.1,38.7-0.3c8.9-0.1,17.9-0.5,26.8-0.7c10.9-0.2,21.8-0.4,32.6-0.5c1,0,2.1,0.2,3.1,0.2
			c0,0.2,0,0.3,0,0.5c-1.5,0.1-3,0.3-3.7,0.3c2.5,0.4,5.7,1,8.9,1.4c1.8,0.2,4,0.6,5.4,0.2c7.3-2.1,14.9-1.1,22.3-1.2
			c8.1-0.1,16.1,0.7,24.2,0.8c15,0.1,29.9,0,44.9-0.1c2.3,0,5.7-0.5,6.8,0.3c2.9,2.1,6.3,1.5,9.7,1.5c0,1.3,0,2.6,0,3.9
			c-15.1,0-30.2,0-44.3,0c-0.2,0,0.6-0.1,1.4-0.2c0,0,0-0.1,0,0.3c-5.7,0-11.5,0.1-17.3,0c-2.5-0.1-4.9-0.8-7.4-0.8
			c-8.4-0.1-16.8,0-25.2,0.1c-7.7,0.1-15.4,0.5-23.1,0.8c-5.5,0.2-11,0.8-16.5,0.7c-6.6-0.2-13.2-1.3-19.9-1.4
			c-7.9-0.1-15.7,0.6-23.6,0.7c-19,0.1-38.1,0-57.1,0c0,0.3-0.1,0.6-0.1,0.9c8.8,0.9,18.6-1.5,26.5,3.2c-10.8,0-21.5,0-32.2,0
			c0,0.3,0,0.6,0,0.9c1.7,0.1,3.5,0.1,5.2,0.2c0,0.2,0,0.5,0,0.7c-4.1,0-8.3,0-12.4,0c0,0.3,0,0.6,0,0.9c2.6,0.1,5.1,0.2,7.7,0.2
			c10.6,0.1,21.1,0.3,31.7,0.2c14.2,0,28.4-0.2,42.6-0.4c2.8,0,5.7-0.5,8.5-0.4c9.9,0,19.7,0.3,29.6,0.3c9.9,0,19.7-0.3,29.6-0.4
			c16.9,0,33.8,0,50.8,0.1c3.5,0,7,0.1,10.6,0.1c4.3,0,8.5-0.1,12.8-0.2c7.4,0,14.8,0,22.2,0c0,2.4,0,4.7,0,7.1
			c-4.1,0.8-8.2,2.1-12.3,2.1c-8.4,0.1-16.7-0.5-25.1-0.9c-2.7-0.1-5.4-0.6-8-0.4c-9.4,0.7-18.7,2-28.1,2.3
			c-11.1,0.4-22.2,0.1-33.3-0.1c-5.7-0.1-11.5-0.6-17.2-0.9c0-0.2,0-0.4,0-0.6c0.9-0.2,1.7-0.4,3.2-0.7c-10.6,0-20.6,0-30.5,0
			c-0.2,0.2-0.4,0.4-0.6,0.7c0.8,0.1,1.5,0.1,2.3,0.2c-0.2,0.2-0.4,0.4-0.6,0.6c-12.3-0.5-24.7-0.9-37-1.4c-0.1,0.4-0.1,0.8-0.2,1.2
			c4.8,0.4,9.6,0.7,14.4,1.1c4.7,0.3,9.5,0.7,14.2,1c0.9,0.1,1.9,0.1,2.9,0c3.6-0.2,7.2-0.6,10.8-0.6c3.5,0,7,0.6,10.5,0.6
			c10.1-0.1,20.3-0.4,30.4-0.6c0,0.2,0,0.3,0,0.5c-3.6,0.3-7.3,0.5-10.9,0.8c0,0.1,0.1,0.2,0.1,0.3c26.3,0,52.7,0,79,0
			c0,0.3,0,0.6,0,0.9c-5.7,0-11.4,0-17.1,0c0,0.1,0.1,0.2,0.1,0.3c8.7,0,17.5,0,26.2,0c0.1-0.3,0.1-0.6,0.2-0.9
			c-1-0.3-2-0.6-4.2-1.1c2.9-0.2,4.5-0.5,6.1-0.5c8.2,0.1,16.4,0.3,24.6,0.5c0,0.2,0,0.4,0,0.6c-7.6,0-15.3,0-22.9,0
			c0,0.5,0.1,1,0.1,1.5c7.6-0.3,15.2-0.6,22.9-0.9c0,0.4,0,0.9,0,1.3c-6.5,0.6-13,1.3-19.6,1.8c-1.9,0.2-3.9,0.1-5.9,0.2
			c0,0.2,0,0.4,0,0.5c8.5,0,17,0,25.5,0c0,0.4,0,0.9,0,1.3c-10.9,0-21.8,0-32.7,0c0-0.2-0.1-0.4-0.1-0.7c0.9-0.3,1.8-0.6,3.3-1.1
			c-15-0.4-29.4-0.7-43.7-1.1c0,0.3,0,0.5,0,0.8c2.4,0.2,4.8,0.3,7.3,0.5c0,0.1,0,0.2-0.1,0.4c-7.6-0.3-15.2-0.7-22.7-1
			c0,0.3,0,0.6-0.1,0.9c7.9,0.4,15.7,1.1,23.6,1.1c7.7,0.1,15.4-0.5,23-0.7c0,0.4,0.1,0.9,0.1,1.3c-3.7,0.1-7.3,0.2-11,0.2
			c-9.4,0-18.9,0.7-28-0.2c-8.8-0.9-17.9,2.2-26.5-1.1c-1.9-0.7-4.8-0.2-7.2-0.5c-14-1.6-27.5,0.7-41.2,2.3c21.7,0.5,43.3,1,65,1.5
			c0-0.2,0-0.3,0.1-0.5c-1-0.1-2.1-0.3-3.1-0.4c4-0.2,7.8,0.6,11.6,0.7c17.8,0.2,35.6,0.1,53.4,0.2c3.2,0,3.4,0.2,3.8,2.3
			c-23.8,0-47.6,0-71.5,0c0.5,0.7,1,1,1.6,0.9c9.2-0.4,18.1,1.3,27.1,2.1c0.4,0,0.8,0.3,2.6,1c-3.3,0.4-5.5,0.6-7.6,1
			c-8,1.3-16-1.6-24.4,0.3c-5.5,1.3-12.3,0.4-18.5,0.4c-6.9,0-13.7-0.3-20.6-0.3c-1,0-1.9,0.9-3.6,1.8c-1.6,0-4.3,0-7.7,0
			c2.3-0.3,3.8-0.5,5.4-0.7c-0.1-0.3-0.1-0.6-0.2-0.9c-13.9-0.4-27.8,2.7-41.8,0.7c0.6-0.7,0.9-1.2,1.1-1.4c-27.6,0.3-55,0.7-82.3,1
			c9.1,1.3,18.4,0.1,27.2,2.5c-2.5-0.1-4.9-0.2-7.4-0.3c0.2,0.3,0.4,0.6,0.6,1c-0.9,0.5-1.7,1-2.2,1.3c8.1,0,16.6,0,25.2,0
			c8.8,0,17.6,0,26.4,0c0,0.1,0,0.3,0,0.4c-0.6-0.1-1.3-0.2-1.9-0.3c0-0.2,0-0.3,0.1-0.5c5.3,0.3,10.6,0.5,16,0.8c0,0.4,0,0.8,0,1.2
			c-39.4,1.1-78.9,0.4-118.3,1.4c0,0.4,0,0.7,0.1,1.1c1.5,0,3.1,0,4.6,0c0,0.3,0,0.5,0,0.8c-10.2,0.7-20.2-1.4-30.4-1
			c1.1,0.1,2.2,0.3,3.3,0.4c0,0.2-0.1,0.4-0.1,0.7c-10.4,0-20.8,0-31.2,0c0-0.3,0-0.7,0-1c6,0,11.9,0,17.9,0c0-0.3,0-0.7,0-1
			c-15.6,0-31.2,0-46.9,0c0,0,0,0.1,0,0.1c4.7,0,9.3,0,14,0c-15.4,3.3-30.6,1.1-45.8-0.2c6,1.2,11.9,2.9,17.9,3.2
			c14.4,0.7,28.9,0.8,43.3,0.9c23,0.1,46-0.1,69-0.2c6.6,0,13.1,0.3,19.7,0.2c11.2-0.3,22.4-1,33.6-1.2c15.5-0.4,31.1-0.6,46.7-0.8
			c11.9-0.1,23.9-0.4,35.8,0.1c8.3,0.4,16.9-0.9,24.9,1.6c0.8,0.2,2.2-0.3,4.1-0.6c-1.5-0.4-2.1-0.6-2.6-0.8
			c0.1-0.2,0.3-0.4,0.4-0.6c2.5,0.4,5,0.7,8.2,1.2c4.8-0.3,10.7-0.6,16.6-0.9c0,0.4,0.1,0.8,0.1,1.1c-3.6-0.2-7.3-0.4-10.9-0.6
			c5.7,1.2,11.4,1.9,17.2,2.2c5.9,0.3,11.7,0.4,17.6,0.4c5.6,0.1,11.2,0,16.8,0c0,0.3,0,0.6,0,1c-9.9,0-19.9,0-29.8,0
			c0,0.4,0,0.8,0,1.3c12.1,0,24.1-0.2,36.2,0.1c7.1,0.2,13.6-2.1,21.3-0.7c6.9,1.3,14.9,0.3,22.4,0.3c0,0.4,0,0.7,0,1.1
			c-13.4,0-26.8,0-40.1,0c0,0.3,0,0.6,0,0.9c1.3,0.1,2.7,0.2,4.9,0.3c-71.4-0.6-141.9-1.1-212.4-1.7c0-0.3,0-0.6,0-0.9
			c2.4-0.2,4.7-0.4,7.1-0.5c0-0.3,0-0.5-0.1-0.8c-30.9,0.7-61.8,1.4-92.8,2.1c0,0.3,0,0.5,0,0.8c13.1,0,26.1,0,39.2,0
			c0,0.3,0,0.6,0,0.9c-8.6,0.4-17.3,0.9-25.9,1.3c0,0.2,0.1,0.4,0.1,0.6c10.5,0.4,21,0.8,31.5,1.3c0,0.2,0,0.4,0,0.5
			c-9.9,0-19.8,0-29.8,0c-9.9,0-19.8,0-29.7,0c0,0.5,0,0.9,0,1.4c3.2,0,6.4,0,9.7,0c21.5-0.3,42.9,1.5,64.4,1.2
			c10.9-0.1,21.8-0.3,32.7-0.1c11.3,0.2,22.7,0.9,34,1.2c5.1,0.1,10.2-0.2,15.3-0.3c0.7,0,1.6-0.2,2,0.1c5.9,3.3,10.6-1.1,16-0.4
			c0-0.5,0-0.9,0-1.4c-10.7,0-21.4,0-32.1,0c0-0.3,0-0.7,0-1c3.1-0.4,6.2-1.1,9.3-1.2c18.8-0.4,37.6-0.6,56.4-0.8c4,0,8,0.3,12,0.6
			c5.7,0.4,11.3,1.6,16.9-0.3c1.2-0.4,3-0.2,4.5-0.1c1.5,0.2,3,0.9,4.5,0.8c2.1,0,4.1-0.7,6.2-0.7c11,0,22,0.2,33,0.2
			c15.8-0.1,31.5-0.4,47.3-0.6c0.4,0,0.7-0.2,1.4-0.4c-1.5-0.5-2.7-0.8-4.9-1.5c9.4,0,17.6,0,25.8,0c0,3.6,0,7.3,0,10.9
			c-3.5-0.1-7-0.1-10.5-0.2c-11.6-0.2-23.1-0.6-34.7-0.7c-8.7-0.1-17.3,0.3-26,0.2c-13-0.1-26.1-1.1-39.1-0.7
			c-13.7,0.4-27.5-1.1-41.3,1.1c-5.7,0.9-12,0.1-18,0.1c-25.7,0-51.4,0-77.1,0c-13.6,0-27.2-0.1-40.8-0.1c-17.6,0-35.3,0.1-52.9,0.3
			c-15.1,0.2-30.2-1.4-45.2,1c-1.6,0.3-3.3,0-5,0c0-0.3,0-0.5,0-0.8c1.9-0.1,3.8-0.2,5.8-0.3c0-0.2-0.1-0.5-0.1-0.7
			c-31.9,0.7-63.8,1.5-95.6,2.2c1.1,0.4,2.4,0.8,4.9,1.6c-5,0-8.6,0-12.2,0c0,0.2,0,0.5,0,0.7c5.5,0.6,11,1.2,17.4,1.8
			c-2.1,0.5-3.3,0.7-4.5,1c6.7,0.2,13.4,0.5,20,0.7c0,0.2,0,0.5-0.1,0.7c-1.6,0.1-3.3,0.2-4.9,0.3c0,0.4,0,0.7,0,1.1
			c9.5,0.3,18.9,0.5,28.4,0.8c2.1,0.1,4.2,0.3,6.3,0.5c-3.5,0.4-6.6,0.4-9.7,0.4c-10.7,0.1-21.4,0.5-32.1,0.3
			c-13.3-0.2-26.5-0.8-39.8-1.1c-1.2,0-2.5,0.5-3.8,0.7c-1.4,0.3-2.8,0.5-4.2,0.8c-0.1,0-0.3-0.1-0.4-0.1c0.6-0.2,1.1-0.4,1.7-0.6
			c-0.1-0.3-0.2-0.6-0.3-0.9c-2.7,0.4-5.4,0.7-8.1,1.1c-1.9,0.2-3.8,0.6-5.7,0.5c-3.8-0.2-7.5-0.7-11.2-0.8c-6.1-0.1-12.2,0-18.4,0
			c10.7-1.1,21.4-1.6,32-1.8c10.4-0.2,20.7-1.5,31.3-1.4c-3-0.9-6-1.2-9-1.4c-2.3-0.2-6,0.2-6.7-0.5c-1.7-1.8-3.6-1-5.6-1
			c-13.6,0.1-27.2,0.3-40.8,0.4c-3.6,0-7.1,0-10.7,0c0,0.2,0.1,0.5,0.1,0.7c1.7,0.3,3.5,0.5,5.2,0.8c-0.1,0.3-0.2,0.6-0.3,0.9
			c-2.2-0.2-5.5,0-6.5-0.8c-2.8-2.3-6.3-1.8-9.9-1.9c-3.6-0.1-7.1-0.3-10.6-0.5c0-0.2,0-0.4,0-0.6c10.4-0.4,20.7-0.7,31.1-1.1
			c0-0.3-0.1-0.5-0.1-0.8c-13.2,0-26.3,0-39.5,0c0,0.1,0,0.2,0,0.3c0.9,0.1,1.8,0.2,2.6,0.4c0,0.1-0.1,0.2-0.1,0.3
			c-3.3,0-6.7,0-10,0c0.9-1,2.1-1.6,3.3-1.7c7.9-0.3,15.8-0.5,23.6-0.7c1.6-0.1,3.2-0.3,4.8-0.5c-0.1-0.3-0.2-0.6-0.2-1
			c-10.9,0-21.8,0-32.7,0c0-1.6,0-2.7,0-4.5c72.2-0.4,144.1-0.9,216.1-1.3c0-0.3,0-0.6,0-1c-7.2,0-14.3,0-21.5,0
			c-15,0.1-29.9,0.3-44.9,0.2c-15.8-0.1-31.6-0.5-47.4-0.8c-4.2-0.1-8.5-0.1-12.7-0.5c-1.3-0.1-2.3-1.2-3.4-1.9l0,0
			c14.9,0.4,29.8,1.1,44.7,1.1c17.3,0.1,34.6-0.2,51.9-0.6c10.2-0.2,20.3-1.1,30.4-1.3c11.7-0.2,23.5-0.1,35.3,0c1.9,0,3.7,1,6,1.7
			c2.2-0.7,5-1.6,9.2-3c-28.2,0-55.2,0-82.2,0c0,0.1,0,0.2,0,0.3c1.1,0.1,2.1,0.3,3.2,0.4c0,0.1,0,0.3-0.1,0.4
			c-10.4,0-20.8,0-31.5,0c0.8-0.5,1.4-0.8,2.9-1.7c-10.6,0-19.9,0-29.3,0c0-0.3-0.1-0.7-0.1-1c1.6-0.1,3.2-0.3,4.7-0.3
			c4.2-0.1,8.5,0.3,12.5-0.2c5.1-0.7,9.6-1.3,15.2-0.8c10.7,0.9,21.7,0.3,32.2,0.3c-9.5-0.3-19.3-0.6-29.2-0.9c0-0.2,0-0.5,0-0.7
			c12.8,0,25.7,0,38.5,0c0-0.4,0-0.7,0-1.1c-7.3,1.5-14.1-0.7-21.3-0.6c-21,0.3-42-0.1-63-0.3c-0.5,0-1,0.1-1.5,0.2
			c-3.1,0.4-6.2,0.8-9.4,1c-2.3,0.2-4.7,0.3-6.8,0.4c1.5,3,4.1,2.6,7.3,1.8c0.7-0.2,2.1,0.7,3.2,1.1c-1.1,0.5-1.8,0.5-2.4,0.5
			c-10.2,0.1-19.9-1.9-30.3-1.8c-15.8,0.2-31.6,0.8-47.5-0.2c-7-0.4-14.1,0-21.2-0.2c-2.7-0.1-5.3-0.9-7.9-1.3
			c2.7-0.8,5.4-2.4,7.9-2.2c16.6,0.8,33.2-1.9,49.9,0.3c5.7,0.8,12-0.4,18-0.4c15-0.1,29.9,0,44.9,0c0-0.6,0-1.2,0-1.8
			c-19.9-0.7-39.9,0.4-59.9,0.2c-20.2-0.1-40.5-0.6-60.6-0.9c-1.2-4.3,3.7-3.2,6.4-3.2c17.1,0.4,34.2,1.2,51.3,1.5
			c18.3,0.4,36.7,0.4,55,0.6c4.7,0,9.4,0,15.1,0c-2.3-0.7-4.2-0.9-4.6-1.5c-1.4-2.5-4.5-2.6-7.8-2.6c-11.6-0.1-23.2-0.1-34.7-0.1
			c-11.2,0.1-22.5,0.4-33.7,0.4c-14.4-0.1-28.9-0.3-43.3-0.6c-1.3,0-2.6-0.8-3.9-1.2c1.2-0.4,2.4-1.1,3.6-1.2
			c13.6-0.2,27.2-0.2,40.7-0.3c3.3,0,6.6-0.3,9.9-0.5c-4.2-0.7-8.4-1.1-12.6-1.1c-12.2,0.1-24.5,0.3-36.7,0.6
			c-3.3,0.1-5.7-0.1-5-2.9c0.5-2.1-1-4.6,5.2-4.2c4.6,0.3,9.6,0.7,13.9-1.4c0.7-0.3,1.9-0.2,2.9-0.2c10.7,0.4,21.3,0.9,32,1.1
			c12.6,0.2,25.2,0,39.4,0c-1.6,0.5-2.2,0.7-2.8,1c3.3,0,6.3-0.7,9.4-1.1c1.3-0.2,2.9-0.2,4.1,0.1c2.1,0.6,4,1.6,6.1,2.4
			c0.4-0.3,0.8-0.7,1.2-1c-1.2-0.8-2.2-2.2-3.6-2.4c-3.4-0.5-7-0.5-10.5-0.6c-6.1-0.1-12.2,0-18.3,0c0,0,0-0.1,0-0.1
			c2.5-0.1,5-0.2,7.4-0.3c0-0.3,0-0.6,0-0.9c-24.4,0-48.8,0-73.2,0c0-0.2,0-0.4,0-0.7c6.4-0.4,12.9-0.8,19.3-1.2c0-0.2,0-0.5,0-0.7
			c-10.7,0-21.5,0-32.2,0c0-2,0-3.2,0-4.8c8.5,0,16.7,0,26,0c-2.9-0.6-4.7-1-6.4-1.4c0.1-0.2,0.1-0.3,0.2-0.5
			c2.9,0.2,5.7,0.3,8.6,0.5c0.1-0.4,0.1-0.8,0.2-1.1c-9.5-0.4-19.1-0.8-28.6-1.2c0-0.3,0-0.7,0-1c1.7-0.1,3.5-0.2,5.2-0.3
			c1.6-0.1,3.2-0.3,4.9-0.5c-0.1-0.2-0.1-0.3-0.2-0.5c-3.3-0.2-6.6-0.3-9.9-0.5c0-5.6,0-10.9,0-16.5c2.9,0,5.4-0.1,7.9,0
			c14.2,0.6,28.4,1.5,42.7,1.9c15.8,0.4,31.6,0.5,47.4,0.5c6.2,0,6.2-0.2,10-3.1c-35.8-0.5-71.9-1-109.3-1.5
			c1.1-2.8,2.2-5.3,3.2-7.9c1.6,0.2,3.2,0.6,4.8,0.7c6.3,0.2,12.6,0.3,18.9,0.3c8.6,0,17.3,0,25.9,0c0-0.4,0-0.7,0-1.1
			c-8.1,0-16.1,0-24.2,0c-8.5,0-17,0.1-25.5,0.2c-0.7-1-2.1-2-2.1-3c-0.2-6.1,0-12.2,0-18.2c0-1.9-1.1-4.4,0.4-5.6
			c1.5-1.2,5.6-1,8.6-1.5c0.1,0,0.1-0.2,0.4-0.5c-3,0-5.9,0-9.1,0c0-1.5,0-2.8,0-4.8c14.9,0,29.8,0,44.7,0c0-0.5,0.1-1,0.1-1.5
			c-2.9-0.1-5.9-0.3-8.8-0.3c-10.6,0.1-21.2,0.3-31.7,0.6c-3.6,0.1-4.9-0.9-4.7-3c0.2-2.1,0.4-4.2,0.5-6.5c13.7,1,27.1,1.9,40.5,2.8
			c0,0.1,0,0.2,0,0.3c-8.3,0-16.6,0-24.9,0c3.3,0.6,6.7,0.7,10,0.6c8.6-0.3,17.1-0.8,25.7-1.1c1.5-0.1,3.6-0.1,4.4,0.4
			c4.1,2.8,9.1,1.9,14,1.7c3.2-0.1,6.4-0.3,9.6-0.5c0.1,0.3,0.1,0.5,0.2,0.8c-2.4,0.3-4.7,0.6-7.1,0.9c0.1,0.2,0.2,0.3,0.3,0.5
			c6.3,0.2,12.5,0.5,18.8,0.7c0-0.2,0.1-0.4,0.1-0.6c-1.7-0.6-3.3-1.1-5-1.6c8.3-0.4,16.4-1,24.6-1.1c8.8-0.2,17.7-0.1,26.6,0
			c4.8,0.1,9.6,0.9,14.5,0.9c10.7,0.1,21.4-0.2,32.2-0.1c14.4,0.1,28.8,0.4,43.3,0.6c3.9,0,7.8-0.4,11.7-0.6c0-0.3,0-0.6,0-0.9
			c-3.5-0.2-7.1-0.5-10.6-0.7c4.9-0.6,10.5-0.1,14.7-1.3c7.6-2.4,15.1-0.6,22.5-1.1c2.8-0.2,5.7,0.3,8.5,0.3
			c15.8-0.2,31.6-0.5,47.4-0.8c9.7-0.2,19.4-0.5,29.1-0.8c3.4,0,6.7,0,10.1,0c2,0.1,4,0.4,5.9,0.4c15.8,0.1,31.6,0.2,47.4,0.1
			c8.5,0,17-0.3,25.5-0.5c8.1,0,16.2,0,24.3,0c8.8,1.1,17.6,2.2,26.4,3.2c3.4,0.4,6.8,0.5,10.3,0.8c0,0.3-0.1,0.5-0.1,0.8
			c-14.5,0.7-29.1,1.3-43.6,2c0,0.3,0,0.6,0,0.9c13.7,0.3,27.4,0.7,41.1,0.7c11.3,0,22.7-0.6,34-1l0,0c8.3,1.9,16.6,3.7,25.7,3.2
			c8.3-0.5,16.3-1.5,24.8-1C382.9,71,390.7,69.8,398.4,69.4z M308.8,140.9c5.1,0.4,10.2,0.9,15.3,1.3c0.1-0.5,0.3-0.9,0.4-1.4
			c-3.3-0.6-6.6-1.2-9.9-1.8c-0.1,0.2-0.2,0.5-0.4,0.7c0.9,0.3,1.8,0.5,2.7,0.8c0,0.1-0.1,0.3-0.1,0.4c-2.7,0-5.5,0-8.2,0
			c-0.5-0.5-1-1.4-1.5-1.4c-6.8,0.1-13.6,0.4-20.3,0.6c0,0.3,0,0.6,0,1c2.2,0,4.4,0,6.6,0C298.6,141.1,303.7,141,308.8,140.9z
			 M-103.9,71.3c8.5,0.7,17.1,1.3,26,2c-1.8-2.6-4.6-3.3-9.3-3c-5.6,0.4-11.3,0.7-16.9,1c-1.1-0.2-2.2-0.6-3.3-0.5
			c-10.5,0.3-21,0.9-31.5,1.1c-3.4,0.1-6.9-0.9-10.4-1.1c-3.3-0.2-6.7,0-10.1,0c0,0.3,0,0.7,0,1c1.6,0.2,3.2,0.6,4.8,0.6
			c11.2,0,22.5,0.1,33.7-0.1C-115.2,72.3-109.6,71.7-103.9,71.3z M-112.4,159.5c2,0.3,4.1,1,6.1,0.9c14.9-0.5,29.8-1.2,44.8-1.7
			c2.8-0.1,5.7,0.2,8.4,0.6c5.2,0.7,10.4,1.6,15.6,2.4c0.1-0.4,0.2-0.8,0.3-1.2c-3.6-0.3-7.9,0.2-10.8-0.9
			c-6.2-2.3-12.7-1.7-19.1-1.7c-11,0-22.1,0.3-33.1,0.6C-104.3,158.6-108.3,159.2-112.4,159.5c-6.9,0-13.7,0-20.6,0
			c0,0.3,0.1,0.6,0.1,0.9C-126.1,160.2-119.2,159.8-112.4,159.5z M60.4,67.7c-1,0-2,0-3,0.1C45,69,32.6,70.4,19.9,69.9
			c-11.5-0.5-23.1-0.4-34.7-0.5c-4.7,0-9.4,0.3-14.1,0.4c-15.5,0.4-31.1,0.7-46.6,1.1c-0.3,0-0.6,0.4-1.1,0.8c33,1,65.6,2,98.3,3
			c0-0.2,0-0.3,0-0.5c-1.2-0.2-2.3-0.4-3.5-0.6c0-0.2,0.1-0.4,0.1-0.6c38.3,0.6,76.6,1.2,114.8,1.9c0,0.2,0,0.4,0,0.6
			c-1.8,0.3-3.6,0.6-5.4,0.9c0.1,0.4,0.2,0.8,0.4,1.2c5.2-0.5,10.4-1.3,15.7-1.5c5.5-0.2,11,0.2,16.6,0.2c5.7,0,11.4-0.4,17.1-0.3
			c5.2,0.1,10.4,0.6,15.6,0.9c0,0.2-0.1,0.4-0.1,0.6c-3.3-0.1-6.6-0.3-9.9-0.4c0.2,0.9,0.6,1.3,0.9,1.3c11.2-0.2,22.6,0.4,33.4-2.3
			c1.4-0.3,2.9-0.5,4.4-0.5c9.6-0.2,19.2-0.3,28.7-0.4c16.6-0.3,33.2,0.1,49.6-2c0.8-0.1,1.9,0.5,2.9,0.9c4.8,1.9,13,0.4,14.8-3.1
			c-11.3,0-22.3-0.1-33.3,0c-7.6,0.1-15.2,0.6-22.8,0.9c-2.8,0.1-5.7,0.1-8.5,0.4c-3.1,0.3-6.1,1-9.2,1.5c-0.1-0.3-0.2-0.6-0.3-0.9
			c1.7-0.3,3.3-0.5,5-0.8c-0.1-0.3-0.3-0.7-0.4-1c-2.8,0.4-5.6,0.9-8.5,1.2c-2.2,0.3-4.8,0.9-6.8,0.5c-8.8-1.8-17.7-0.7-26.5-0.8
			c-1.5,0-3.1,0.2-4.7,0.3c0,0.2,0,0.4,0,0.6c4.1,0.4,8.2,0.8,12.2,1.1c0,0.3-0.1,0.6-0.1,0.9c-13.9,0-27.7,0-41.6,0
			c0-0.3,0-0.6,0-0.9c8.2-0.3,16.3-0.6,24.1-0.8c-3.9-1-7.8-2-11.7-3c-0.6-0.1-1.3-0.1-2-0.1c-13.4-0.3-26.8-0.6-40.2-1
			c-3.2-0.1-6.3-0.4-9.5-0.5c1.8-1,3.7-1.7,5.6-1.7c6.9-0.1,13.7,0.1,20.6,0.2c9.3,0.1,18.7,0.5,28,0.4c11.8-0.2,23.7-1,35.5-1.5
			c8.2-0.3,16.5-0.4,24.7-0.4c1.9,0,3.9,0.5,5.8,0.6c2.7,0.2,5.4,0.2,8.1,0.3c0-0.4,0.1-0.9,0.1-1.3c-4.2-0.3-8.6-1.2-12.7-0.9
			c-8.8,0.7-17.1,1.2-26.2-0.5c-7.9-1.4-16.8-0.8-25.2-0.9c-7.5-0.1-15.1,0.1-22.6,0.1c-1.9,0-3.8,0-5.7,0c0,0.4,0,0.8,0,1.2
			c4.8,0.1,9.6,0.3,14.4,0.4c0,0.3-0.1,0.7-0.1,1c-49.2,0-98.3,0-147.5,0c6.4,0.6,12.9,0.7,19.4,1C56.9,66.9,58.6,67.4,60.4,67.7
			L60.4,67.7z M100.3,153.4c53.7,1.8,107.1,4.8,160.8,2.7c-2.7,3.8-9.2-0.5-13.4,2.8c13-0.4,25-0.8,37-1.1c0-0.1,0-0.3,0-0.4
			c-2.7-0.2-5.3-0.4-8-0.5c0-0.2,0.1-0.4,0.1-0.7c7,0,13.9,0,20.9,0c-24.3-4.3-49.2-1.2-73.6-3.8c4.3-0.3,8.7-0.5,13-0.8
			c0-0.3,0-0.6,0-0.9c-11.6-0.4-23.2-0.9-34.9-1.3c-7.4-0.3-14.7,2.7-22.3,0.3c-2.1-0.7-4.9-0.8-7.4-0.8c-9.3-0.1-18.6,0-27.9,0
			c0,0.3,0,0.7-0.1,1c6.3,0,12.7,0,19,0c0,0.4,0,0.8,0,1.1C142.6,151.8,121.4,152.6,100.3,153.4z M-4.7,142.5c0-0.1,0-0.3,0-0.4
			c-5.9-0.5-11.8-1.3-17.7-1.4c-18.8-0.4-37.6-0.6-56.3-0.6c-4.8,0-9.5,1.4-15,2.2c1.5,0.6,2.1,0.9,2.8,1.2
			c-1.9,0.1-3.5,0.2-5.1,0.3c0,0.4,0,0.7-0.1,1.1c14.9,0.7,29.8,1.4,44.7,2.1c0,0.1,0,0.3-0.1,0.4c-2.2,0.1-4.4,0.3-6.5,0.4
			c3.9,0.3,7.6-0.1,11.4-0.4c5.6-0.4,11.2-1.1,16.8-1.1c7.9,0.1,15.8,0.9,23.7,1.2c4.2,0.1,8.5-0.5,12.7-0.6c22.3-0.1,44.7,0,67-0.1
			c2.6,0,5.2-0.4,7.7-0.7c-0.1-0.4-0.1-0.8-0.2-1.2c-15.9,0-31.9-0.1-47.8,0c-8.6,0-17.2,0.7-25.7,0.3c-5.5-0.2-10.9-1.7-17-2.7
			C-7.5,142.6-6.1,142.5-4.7,142.5z M-44.9,115.1c-16.1,0.4-32,0.8-47.9,1.3c0,0.5,0,1.1,0,1.6c30,0.3,59.9,1.9,89.9,0.5
			c-0.9,0.3-1.8,0.6-2.7,0.9c0.1,0.2,0.1,0.5,0.2,0.7c10.3,0,20.5,0,29.9,0c-10.1-0.6-10.1-0.6-12.9-3c5.8,0,11.6,0,17.4,0
			c0-0.3,0-0.6,0-0.8c-12.6-0.4-25.3-1.2-37.9-1.1c-12.7,0.1-25.4,1-38.1,1.6c-0.1-0.3-0.1-0.5-0.2-0.8
			C-46.5,115.7-45.8,115.4-44.9,115.1z M193.3,109.6c-1.6-0.3-2.1-0.5-2.5-0.5c-15.6-0.2-31.3-0.4-46.9-0.6
			c-14.4-0.2-28.7-0.2-43.1-0.7c-9.1-0.3-17.9-0.1-26.3,2.6c33.3,1.8,66.7,1.4,100,1.2c0-0.3,0-0.6,0.1-0.9c-2-0.2-4.1-0.3-6.1-0.5
			c0-0.2,0-0.4,0-0.7C176.4,109.6,184.3,109.6,193.3,109.6z M13.4,160.7c0,0.3,0,0.6,0,0.9c37.7,0.4,75.4,0.7,113.1,1.1
			c0-0.4,0.1-0.8,0.1-1.2c-4.6-0.4-9.1-0.9-13.7-1c-19.4-0.5-38.9-0.9-58.3-1.5C40.8,158.7,26.9,158.1,13.4,160.7z M184.7,93.4
			c-5-0.3-10.5-0.6-16-0.8c-10.8-0.4-21.5-0.7-32.3-1.1c-0.8,0-1.6,0.1-2.4,0.2c-3.9,0.5-7.7,1.3-11.6,1.4
			c-7.4,0.2-14.8-0.1-22.2-0.2c-1.6,0-3.2,0.2-4.8,0.3c0.1,0.1,0.1,0.3,0.2,0.4c3.6,0.2,7.1,0.5,10.7,0.7c0,0.3,0,0.7,0,1
			c-2.3,0.1-4.7,0.3-7,0.4C127.9,96,156.8,97.5,184.7,93.4z M-199.9,75.8c16.8,3.5,33.4,1.2,49.9,1.7c-0.8,0.2-1.6,0.3-2.4,0.5
			c0-0.2,0-0.5,0.1-0.7c34.8,0,69.5,0,104.3,0c0-0.5,0-1,0-1.5C-98.5,75.8-148.9,75.8-199.9,75.8z M49.1,151.8
			c-0.1-0.5-0.1-0.9-0.2-1.4c-11,0-21.9,0-32.9,0c-10.9,0-21.8,0-32.7,0c-10.7,0-21.4,0-32.1,0c0,0.3,0,0.6,0,0.9
			c6.2,0,12.3-0.1,18.5,0c23.6,0.5,47.2,1.1,70.8,1.5C43.5,152.8,46.3,152.1,49.1,151.8z M299,93.1c-31.5,0-63,0-94.6,0
			C236,94.8,267.6,95.1,299,93.1z M33.7,109.5c-21-0.8-42.8-2.7-64.7-0.9c0,0.3,0,0.6,0,0.9C-9.2,109.5,12.6,109.5,33.7,109.5z
			 M247.4,138.8c-31.9,0-63.7,0-95.6,0c0,0.4,0,0.7,0,1.1C183.7,139.6,215.6,141.2,247.4,138.8z M45.6,127c0,0.3,0,0.6,0.1,0.9
			c19.8,0,39.7,0,59.5,0c0-0.3,0-0.6,0-0.9C85.3,127,65.4,127,45.6,127z M-136.1,130.3c0,0.4-0.1,0.9-0.1,1.3
			c15.8,0.7,31.6-0.4,47.5-0.4c-7.8-1-15.7-2-23.5-3c-0.1,0.3-0.2,0.7-0.3,1c0.5,0.3,1.1,0.6,2.1,1.1
			C-119.4,130.3-127.8,130.3-136.1,130.3z M147.9,132.3c-26.8,0-53.7,0-80.5,0c0,0.3,0,0.5,0,0.8
			C94.3,132.7,121.2,133.9,147.9,132.3z M-95.5,192.3c0-0.3,0.1-0.6,0.1-0.9c-17.4,0.1-34.8-1.6-52.2,0.1c0,0.3,0,0.5,0,0.8
			C-130.3,192.3-112.9,192.3-95.5,192.3z M13,93.4c0,0.2,0,0.4,0,0.7c5.6,0.2,11.3,0.6,16.9,0.5c9.9-0.2,19.7-0.7,29.6-1
			c1.7,0,3.6,0.3,5.2,0.8c1.7,0.5,3.2,1.3,4.7,2c0.1-0.2,0.2-0.5,0.4-0.7c-0.7-0.9-1.3-1.9-2.3-3.3C49.9,92.7,31.4,93,13,93.4z
			 M-15.1,161.4c0,0.2-0.1,0.5-0.1,0.7c-11.3,0-22.6,0-33.9,0c15.9,1,31.7,1.5,47.6-0.6c-1.9-1.1-3.8-1.7-5.9-2
			c-0.3,0-1.1,1.4-1.5,1.9c-3.7-0.3-7.3-0.7-10.8-1c0,0.1,0,0.2-0.1,0.3C-18.2,161-16.6,161.2-15.1,161.4z M84.2,149.2
			c-15.7,0-31.3,0-48.1,0C41.9,150.8,80.1,151.2,84.2,149.2z M120.7,85.5c0-0.3,0-0.5,0-0.8c-17.3,0-34.6,0-51.9,0
			c0,0.3,0,0.5,0,0.8C86,85.5,103.3,85.5,120.7,85.5z M103,79.1c0-0.2,0-0.5,0-0.7c-5.3,0-10.6,0.1-15.9,0
			c-5.2-0.1-10.4-0.4-15.6-0.6c-5-0.1-10.1,0-15.1,0c0,0.4,0,0.9,0,1.3C72,79.1,87.5,79.1,103,79.1z M-35.2,138.9
			c0.1-0.2,0.2-0.5,0.2-0.7c-13.5,0-27,0-40.6,0c0,0.2,0,0.5,0,0.7C-62.1,138.9-48.6,138.9-35.2,138.9z M6.5,185
			c0,0.4-0.1,0.8-0.1,1.3c7.6,0,15.2,0,22.1,0c-0.2-0.1-1.2-0.4-2.9-1.1c2.9-0.2,4.9-0.3,6.9-0.4c0-0.2,0-0.4-0.1-0.5
			C23.7,184.4,15.1,184.7,6.5,185z M-0.4,126.9c0,0.3,0,0.6,0,0.8c14.1,0,28.2,0,42.3,0c0-0.3,0-0.6,0-0.8
			C27.8,126.9,13.7,126.9-0.4,126.9z M234.7,80.8c0-0.2,0-0.4,0-0.7c-11.6,0-23.2,0-34.8,0c0,0.2,0,0.4,0,0.7
			C211.5,80.8,223.1,80.8,234.7,80.8z M9.5,135c0,0.2,0.1,0.4,0.1,0.5c15,0,30.1,0,45.1,0c0-0.2,0-0.4,0-0.5
			C39.6,135,24.6,135,9.5,135z M226.6,119.9c0,0.3,0,0.5,0,0.8c11.7,0,23.5,0,35.2,0c0-0.3,0-0.5,0-0.8
			C250,119.9,238.3,119.9,226.6,119.9z M129,147.4c-3.1-2.7-18.5-2.5-21.8,0C114.4,147.4,121.3,147.4,129,147.4z M49.3,142.2
			c0-0.3,0-0.6,0-1c-11.6,0-23.2,0-34.8,0c0,0.3,0,0.6,0,1C26,142.2,37.6,142.2,49.3,142.2z M-4.3,128.7c-5-0.8-9.9-1.7-14.9-2.4
			c-1.6-0.2-3.3,0-4.9,0c-0.3,0-0.6,0.3-1.2,0.5c1.6,0.2,2.9,0.4,4.3,0.6c0,0.1-0.1,0.2-0.1,0.3c-2.8,0.1-5.5,0.2-8.3,0.3
			c0,0.2,0.1,0.4,0.1,0.6C-21,128.7-12.6,128.7-4.3,128.7z M-53.6,162.6c0-0.2-0.1-0.4-0.1-0.5c-9.4,0-18.9,0-28.3,0
			c0,0.2,0.1,0.4,0.1,0.5C-72.5,162.6-63.1,162.6-53.6,162.6z M-198.9,130.3c0,0.3,0,0.5,0.1,0.8c8.1,0,16.2,0,24.2,0
			c0-0.3,0-0.5,0-0.8C-182.7,130.3-190.8,130.3-198.9,130.3z M-133.7,140.4c0,0.3,0,0.5,0,0.8c6.9,0,13.8,0,20.7,0
			c0-0.3,0-0.5,0-0.8C-119.9,140.4-126.8,140.4-133.7,140.4z M-147.3,68.3c0-0.2,0-0.4-0.1-0.6c-8.4,0-16.7,0-25.1,0
			c0,0.2,0,0.4,0,0.6C-164,68.3-155.7,68.3-147.3,68.3z M189.7,146c0-0.1,0-0.3,0-0.4c-7,0-14,0-21,0c0,0.1,0,0.3,0,0.4
			C175.7,146,182.7,146,189.7,146z M-4.6,124.1c0,0.2-0.1,0.4-0.1,0.6c10.7,0,21.4,0,32.1,0c0-0.2,0-0.4,0-0.6
			C16.7,124.1,6,124.1-4.6,124.1z M-47.8,87.8c0-0.3,0-0.5,0-0.8c-7.7,0-15.4,0-23.1,0c0,0.3,0,0.5,0,0.8
			C-63.3,87.8-55.5,87.8-47.8,87.8z M345.5,121.3c0,0.1,0,0.3,0,0.4c8.7,0,17.5,0,26.2,0c0-0.1,0-0.3,0-0.4
			C363,121.3,354.3,121.3,345.5,121.3z M52.9,109.2c0,0.3-0.1,0.6-0.1,0.9c5.4,0.3,10.7,0.5,16.1,0.8c0-0.2,0.1-0.5,0.1-0.7
			C63.7,109.9,58.3,109.5,52.9,109.2z M-50.8,168.6c0,0.2,0,0.4,0,0.5c5,0,10,0,15.1,0c0-0.2,0-0.4,0-0.5
			C-40.8,168.6-45.8,168.6-50.8,168.6z M294.2,174.9c0,0.2-0.1,0.4-0.1,0.6c4.2,0,8.4,0,12.6,0c0-0.2,0-0.4,0-0.6
			C302.5,174.9,298.4,174.9,294.2,174.9z M52.7,84.9c0,0.2,0,0.4,0,0.6c3.4,0,6.8,0,10.2,0c0-0.4,0-0.7-0.1-1.1
			C59.5,84.6,56.1,84.8,52.7,84.9z M-158.9,188.7c0,0.2,0.1,0.4,0.1,0.5c6.4,0,12.8,0,19.1,0c0-0.2,0-0.4,0-0.5
			C-146.1,188.7-152.5,188.7-158.9,188.7z M-190.6,122.1c0,0.3,0.1,0.6,0.1,0.9c4.8-0.2,9.7-0.3,14.5-0.5c0-0.3-0.1-0.6-0.1-0.9
			C-180.9,121.8-185.8,121.9-190.6,122.1z M130.9,78.8c0-0.2-0.1-0.3-0.1-0.5c-6.5,0-13,0-19.5,0c0,0.2,0,0.3,0,0.5
			C117.8,78.8,124.3,78.8,130.9,78.8z M-85.1,150.5c0,0.2,0,0.4,0,0.6c4.4,0,8.8,0,13.2,0c0-0.2,0-0.4,0-0.6
			C-76.3,150.5-80.7,150.5-85.1,150.5z M199.3,95.7c0-0.1,0-0.3,0-0.4c-5.6,0-11.3,0-16.9,0c0,0.1,0,0.3,0,0.4
			C188,95.7,193.6,95.7,199.3,95.7z M237.8,174.7c0,0.3,0.1,0.6,0.1,0.9c4.2-0.2,8.4-0.4,12.6-0.5c0-0.3-0.1-0.7-0.1-1
			C246.1,174.3,242,174.5,237.8,174.7z M150,85.9c0.2-0.1,0.3-0.3,0.5-0.4c-6.5,0-12.9,0-19.4,0c0,0.1,0,0.3,0,0.4
			C137.4,85.9,143.7,85.9,150,85.9z M-16.4,186.5c0-0.4-0.1-0.9-0.1-1.3c-4.4,0.2-8.7,0.4-13.1,0.6c0,0.1,0,0.2,0.1,0.3
			C-25.1,186.2-20.7,186.4-16.4,186.5z"/>
		<path class="st2" d="M36.6,258.1c-81.5,0-163,0-244.6,0c0-1.9,0-3.8,0-6c2.8-0.1,5.1-0.4,7.4-0.4c6.7,0.1,13.4,0.4,20.1,0.6
			c4.1,0.1,8.3,0,12.4,0c3,0,7.1-0.8,8.7,0.1c5.3,3.1,11.3,1,16.8,1.5c3,0.3,6,0.2,9.1,0.2c17.4-0.1,34.8-0.3,52.3-0.4
			c0.9,0,1.8-0.2,3.9-0.4c-6.1-0.7-10.9-1.3-15.8-1.8c-7.7-0.8-15.4-1.6-23.2-0.1c-1.5,0.3-3.4,0.1-5,0c-7.7-0.4-15.3-1.1-23-1.2
			c-14.7-0.3-29.5-0.4-44.2-0.5c-5.9-0.1-11.8,0-17.6,0c0-0.2,0-0.4,0-0.6c11.6-0.7,23.2-1.4,34.8-2.1c-2.9-0.6-5.9-1.1-8.8-0.8
			c-6.2,0.6-12.5-1-18.7,1.1c-2,0.7-7.9,1.9-8.4-1c-1-5.3-0.3-10.7-0.3-16.3c2.3,0,3.8,0,5.4,0c0-0.2,0.1-0.3,0.1-0.5
			c-1.4-0.2-2.8-0.4-4.3-0.6c0-0.2,0-0.4,0.1-0.6c20.3,0,40.7,0,61,0c0-0.4,0-0.7,0.1-1.1c-20.8-0.4-41.6-0.8-62.5-1.2
			c0-0.5,0-0.9,0-1.4c8.5-0.7,17-1.4,25.5-2c0.1,0.3,0.2,0.6,0.2,0.9c-1,0.2-2,0.5-3,0.7c6,0.2,12-0.1,17.9-0.2
			c18.8-0.3,37.6-0.5,56.4-0.6c3.1,0,7.2-0.1,9.1,1.1c3,1.8,5.3,1.7,8.9,0.9c-2.4-0.7-4.3-1.2-6.1-1.7c0.3-0.6,0.6-1.1,0.9-1.7
			c7.1,1,14.2,2.1,20.9,3c0.1,0.1-0.3-0.4-0.6-0.9c2.2-0.2,4.1-0.3,6.9-0.5c-2.4-0.6-3.8-0.9-5.1-1.3c0-0.3,0-0.6,0-1
			c6.6-0.6,13.1-1.1,19.7-1.7c0,0.2,0.1,0.5,0.1,0.7c-1.3,0.2-2.6,0.3-3.9,0.5c20,2.3,40.2,0.8,60.3,1.9c20.6,1.1,41.4,0.2,62.1,0.2
			c0-0.5,0-1,0-1.5c-11.1,0-22.2,0-33.3,0c0.1-0.5,0.1-1,0.2-1.6c6.1,0.4,12.2,0.8,19,1.2c-1.7-0.6-2.6-0.9-4.5-1.5
			c4.4-0.5,7.7-1.3,11-1.2c6.5,0.1,13.1,0.7,19.6,1.2c6,0.5,11.9,1.5,17.9,1.6c10,0.1,19.9-0.4,29.9-0.7c6.7-0.1,13.4-0.2,20.2-0.3
			c6.2,0,12.4,0,18.7,0c0-0.2,0-0.4,0.1-0.5c-2.2-0.2-4.4-0.4-6.6-0.6c0.1-0.2,0.2-0.4,0.2-0.7c5.9,0.2,11.7,0.3,17.6,0.5
			c0,0.1,0,0.2,0,0.3c-2.1,0.1-4.3,0.3-6.1,0.4c37.6,2.3,74.8-2.4,112.3-3.9c-15.5,0-31,0-47.4,0c1.8,0.7,2.7,1,3.5,1.4
			c-9,0.5-17.7,0.8-26.4,0.5c-7.5-0.3-15.2,0.3-22.5-1.8c-3-0.8-7-0.3-10.5-0.2c-0.9,0-1.7,0.8-2.2,1.1c-6.4-0.3-12.9-0.5-19.3-0.8
			c0-0.3,0-0.6,0-0.9c2.6-0.1,5.2-0.2,7.8-0.3c0,0.1,0,0.1,0,0.2c-18.1,0-36.1,0-54.2,0c0-0.3,0-0.6,0-0.9c2.9-0.3,5.8-0.6,8.8-0.9
			c-0.1-0.2-0.1-0.5-0.2-0.7c-7.5-0.2-15-0.4-22.4-0.7c0-0.2-0.1-0.5-0.1-0.7c5.7-0.4,11.4-0.8,17.2-1.2c0-0.2-0.1-0.4-0.1-0.7
			c-19.4,0-38.7,0-58.1,0c0,0.2-0.1,0.4-0.1,0.6c1.2,0.4,2.3,0.8,3.5,1.1c-0.1,0.2-0.1,0.4-0.2,0.6c-4.1,0-8.2,0-12.2,0
			c0,0.4,0,0.7,0,1.1c16.5,1.3,33.3-0.6,49.8,0.7c-12.3,0.8-24.6,1.7-36.9,2.1c-12.2,0.4-24.5,0.6-36.7,0.4
			c-8.2-0.1-16.2-1.4-24.5,0.1c-3,0.5-6.4,0.1-9.6,0.1c0-0.3,0-0.5,0-0.8c1.2-0.2,2.4-0.3,3.6-0.5c0-0.3-0.1-0.6-0.1-1
			c-7.6,0-15.2,0-23.4,0c2.7,0.3,4.8,0.6,6.9,0.8c-3.7,0.9-7.1,1.3-10.6,1.4c-15,0.5-30,0.9-44.9,1.2c-1.6,0-3.3-0.5-4.8-0.9
			c-1.6-0.4-3.1-0.8-5.3-1.4c14-2.4,28.3,1.2,41.6-2.4c-10.1,0-20.1-0.4-29.9,0.1c-7.3,0.4-15.5-1.6-21.8,2.6
			c-0.2,0.1-0.6,0.1-1,0.1c-3.9,0.2-7.9,0.5-11.8,0.5c-9.4,0-18.7-0.2-28.1-0.4c-12.4-0.3-24.8-0.7-37.2-1
			c-4.1-0.1-8.3,0.2-12.5,0.5c-1.2,0.1-2.1,1.2-3.3,1.3c-1,0.1-2.3-0.4-3.9-0.7c1.5-0.7,2.3-1.1,3.1-1.5c-0.1-0.2-0.3-0.5-0.4-0.7
			c-2.8,0.3-5.6,0.6-9,1c-0.2-1.5-0.4-3.2-0.6-5c4.8,0,8.8,0,12.8,0c22,0.1,44.1,0.3,66.1,0.2c3.9,0,7.8-1.1,11.6-1.6l0,0
			c16.2-0.4,32.4-0.7,48.6-1.1c0-0.3,0-0.6,0-0.9c-10.3,0-20.7,0-31,0c0-0.5,0-0.9,0-1.4c5.1,0.1,10.2,0.2,15.3,0.2
			c15.3,0.1,30.5,0.3,45.8,0.3c7,0,15,1,20.9-0.7c6.5-1.9,12.3-1.6,18.6-1.4c-2.5,0.2-5,0.4-7.6,0.6c0,0.4,0.1,0.8,0.1,1.1
			c5.4,0,10.8,0,16.3,0c8.6,0,17.3,0.7,25.6-0.1c17-1.7,33.8-0.5,50.7-0.1c10.7,0.3,21.6,1.8,31.8-2.4c-6.8,0-13.6,0-20.4,0
			c0-0.4,0-0.7,0-1.1c7.5,0,15,0,22.5,0c14.7,0,29.5,0.2,44.2,0.1c9.9-0.1,19.7-0.6,29.6-0.8c3.3-0.1,6.5,0.3,9.8,0.5l0,0
			c-2.6,0.5-5.2,1.5-7.8,1.5c-6.2,0.2-12.4-0.3-18.6-0.1c-14.6,0.3-29.2,0.7-43.8,1.1c-2.8,0.1-5.7,0.4-8.5,0.6
			c-2.6,0.1-5.2,0.2-7.8,0.3c0,0.3,0.1,0.6,0.1,0.8c8.6,0.4,17,0.5,25.7-0.1c11.8-0.9,23.8-0.9,35.7-0.9c9.9,0,19.8,0.6,29.6,0.7
			c7.7,0.1,15.4,0,23.4,0c-0.4-0.3-0.7-0.7-1.1-1c16.3,0.3,32.5,0.7,48.8,1c0,0.2,0.1,0.3,0.1,0.5c-1.6,0.5-3.2,1-4,1.3
			c8.1,0.3,16.7,0.6,25.3,0.9c0,0.3,0.1,0.6,0.1,0.9c-2.4,0.1-4.8,0.3-7.2,0.4c1.5,0.7,2.8,0.6,4.1,0.5c5.5-0.2,10.9-0.6,16.4-0.5
			c9.7,0.2,19.4,0.8,29.1,1c12,0.2,24.1,0.2,36.1,0.2c4.6,0,9.1,0,13.7,0c0,0.5,0.1,1,0.1,1.5c-12.3,0.7-24.5,1.7-36.8,2
			c-10.4,0.3-20.8-0.4-31.2-0.3c-4.4,0-8.8,0.9-13.2,1.5c-5.3,0.7-10.5,1.6-15.9,2.2c-4.6,0.5-9.2,0.8-15.2,1.3
			c22.4,0,43.3,0,63.5,0c5.9,2.2,11.9-0.1,17.5,0.3c6.2,0.4,12.5,0.1,18.8,0.1c-0.4,0.7-1,0.8-1.5,1c-0.1,0-0.1,0.2-0.1,0.4
			c3,0.3,6,0.6,9,0.9c-8.3-0.4-16.7,2.8-24.8-0.4c-0.4-0.1-1-0.1-1.5-0.1c-4.8,0.1-9.5,0.3-14.3,0.3c-12.2-0.2-24.3-0.7-36.5-0.9
			c-9.2-0.1-18.5,0-27.7,0c0,0.5,0,0.9,0,1.4c15.4,0,30.8,0,46.2,0c0,0.4,0,0.9,0,1.3c-20.3,0-40.7,0-61,0c22,3.8,44.3,1,66.4,1.5
			c0,0.4,0,0.8,0,1.1c-32.2,0.6-64.4,1.2-96.6,1.8c2.1,0.7,4.3,0.7,6.4,0.7c7.1-0.1,14.1-0.5,21.2-0.4c8.2,0.2,16.4-0.3,24.8,1.2
			c9,1.6,18.8,1.4,28.2,1.8c1,0,2-0.9,3.1-1.1c1.7-0.3,3.4-0.5,5.2-0.7c0.1,0,0.4,0.2,0.5,0.4c-1,0.2-2,0.5-3,0.7
			c0,0.2,0.1,0.4,0.1,0.6c9.3,0,18.6,0,27.9,0c0-0.1,0-0.2,0.1-0.3c-6.2-0.3-12.3-0.7-18.5-1c6.8-0.7,13.6-0.8,20.4-0.7
			c14.6,0.2,29.1,0.6,43.7,0.9c0,0.9,0,1.7,0,2.6c-8.1,0.4-16.3,0.7-24.4,1.2c-1,0.1-1.9,0.9-2.8,1.4c-6.9-2.2-14.2-2.4-21.7-1.8
			c-3.5,0.3-6.9,0.9-10.3,1c-11.3,0.4-22.6,0.6-33.9,0.9c0,0.2,0,0.3,0,0.5c1.1,0.3,2.3,0.5,3.9,0.9c-5.8,0.3-10.9,0.9-16,0.9
			c-5.3,0-10.5-1-15.8-1c-22.2,0.1-44.3,0.6-66.5,0.7c-13.6,0.1-27.1-0.1-40.7,0c-5.8,0-11.7,0.7-17.5,0.6
			c-12.2-0.1-24.4-0.4-36.5-0.7c-8.7-0.2-17.5-0.8-26.2-0.4c-7.3,0.3-14.4,0.5-21.8-0.1c-4.6-0.4-9.4,0.6-14.1,0.9
			c0.1,0.5,0.1,1.1,0.2,1.6c24.5,0.2,48.9,0.5,73.4,0.7c0,0.3,0,0.5,0,0.8c-2.9,0.1-5.9,0.3-8.8,0.4c0.1,0.3,0.1,0.6,0.2,1
			c6-0.4,12-0.8,18.1-1.1c0.9-0.1,1.9,0,2.8,0.2c2.8,0.5,5.7,1.4,8.5,1.4c10.5,0,21.1-0.4,31.6-0.6c4.5-0.1,8.9-0.4,13.4-0.5
			c0-0.2,0-0.3,0-0.5c-2.2-0.1-4.5-0.1-6.7-0.2c0-0.3,0-0.6,0-1c33.6,5.1,67.2-0.7,100.8,0.8c-1-0.3-1.9-0.7-4.1-1.4
			c8.3-0.2,15.2-0.5,22-0.6c15.9-0.1,31.9-0.1,47.8-0.2c5.2,0,10.4-0.1,15.6-0.4c3.5-0.2,6.9-0.7,10.4-1.1c-0.1-0.4-0.1-0.7-0.2-1.1
			c-1.5,0-3.1,0.1-4.6,0c-1.1-0.1-2.1-0.4-3.2-0.7c2.1-0.2,4.3-0.5,6.4-0.5c7-0.1,14,0,21-0.1c0,0.6,0,1.3,0,1.9
			c-4.5,0.3-9.1,0.6-13.6,0.9c0,0.3,0,0.7,0.1,1c4.5,0,9,0,13.6,0c0,4.7,0,9.4,0,14.1c-4-0.1-8-0.4-12-0.2
			c-4.4,0.2-8.8,1.3-13.2,1.4c-9,0.2-18,0.2-27,0c-2.1,0-4.5-0.7-6.3-1.5c-3.1-1.3-12.7-1.3-16.2,0.8c3.8,0.1,7,0.2,10.1,0.3
			c-2.5,0.5-5,0.6-7.5,0.7c-1.6,0-3.4,0.2-4.7-0.2c-3.4-1.1-6.5-3.3-10-3.6c-6.5-0.6-13.2-0.2-19.8-0.2c0,0.2,0,0.4,0,0.6
			c5.3,0,10.5,0,15.8,0c0,0.3,0,0.5,0,0.8c-6.5-0.2-13.5,0.5-19.2-0.9c-6.3-1.6-12.3-1.7-18.7-1.7c-12.1,0-24.2,0-36.4,0
			c0-0.5-0.1-1.3-0.2-2.8c-18.2,3.7-36.5,2.3-54.7,2.5c2.7,0.2,5.5,0.3,8.2,0.5c0,0.4-0.1,0.8-0.1,1.2c-11.1,0-22.1,0-34,0
			c3-0.4,5.3-0.8,7.5-1.1c-11.2-0.1-22.2-0.7-33.2-1.1c-9.5-0.3-19.1-0.6-28.6-0.6c-8.9-0.1-17.8-0.2-26.6,0.4
			c-3.7,0.3-7,0.4-10.5-0.3c-0.7-0.2-1.7,0-2.5,0c-19.6,0.3-39.2,0.5-58.8,0.8c-9,0.1-18,0.5-27,0.7c-0.5,0-0.9,0.4-1.4,0.6
			c0.1,0.3,0.2,0.7,0.2,1c14.6-0.5,29.2-1.1,43.9-1.6c1.6-0.1,3.3-0.1,5,0.1c6.9,0.6,13.6,2.3,20.8,0.9c1.4-0.3,3-0.2,4.5-0.2
			c20.3,0.4,40.7,0.9,61,1.3c8.4,0.2,16.7,0.2,25.1,0.3c2.9,0,5.8,0,8.7,0c0,0.5,0,1-0.1,1.5c-43.5,1-87-0.2-130.6-0.8
			c0,0.4,0,0.8,0,1.2c4.5,0,9.1,0,13.6,0c0,0.1,0,0.2-0.1,0.2c-5.1,0.6-10.2,1.3-15.6,2C17.8,255.7,27.2,256.9,36.6,258.1z
			 M100.9,220.8c1.7,0.5,3.3,1.4,5,1.4c6.2,0.3,12.4,0.4,18.6,0.4c13.7,0,27.4,0.1,41.1-0.1c13.2-0.2,26.5-0.7,39.7-0.9
			c10-0.2,19.9,0,29.9,0c0-0.4,0-0.8,0-1.3c-8.5-0.2-16.9-0.4-25.4-0.6c-6-0.1-12.1,0-18.1-0.1c-6.7-0.1-13.4-0.7-20-0.6
			c-9.5,0.2-19,1.1-28.5,1.2c-10.4,0.1-20.7-0.7-31.1-0.8C108.4,219.4,104.7,220.3,100.9,220.8c-6.3-0.7-12.5-2-18.9-2.1
			c-10.4-0.2-20.8,0.2-31.1,0.4c-0.6,0-1.2,0.2-1.8,0.4c0,0.2,0.1,0.4,0.1,0.7C66.5,220.3,83.7,220.5,100.9,220.8z M-42.7,228.4
			c0,0.1-0.1,0.1-0.1,0.2c-26,0-51.9,0-77.9,0c19.3,2.5,88.5,1.9,102.5,0c-11.8-0.7-22.4-1.3-32.9-1.9c-0.1,0.4-0.1,0.7-0.2,1.1
			C-48.5,228-45.6,228.2-42.7,228.4z M-6.6,204c-0.1-0.9-0.1-1.2-0.1-1.2c-28.6,0.4-57.3-2.1-85.9,0c0,0.4,0,0.8,0,1.2
			C-63.9,204-35.3,204-6.6,204z M-37.2,220.9c8.2,0.7,16.7,3,23.8,1.8c8.3-1.4,16-0.2,23.9-0.7c7.9-0.5,15.9-0.1,23.9-0.1
			c0-0.4,0-0.8-0.1-1.2C10.5,219.4-13.3,219.4-37.2,220.9z M331,242.1c0,0.4,0,0.7-0.1,1.1c22.1,0,44.2,0,66.2,0c0-0.4,0-0.7,0-1.1
			C375.1,242.1,353.1,242.1,331,242.1z M-169,234.5c0,0.3,0,0.7,0,1c2.1,0,4.2,0,6.3,0c15.1,0.1,30.1,0.3,45.2,0.3
			c3.8,0,7.7-0.4,11.5-0.6c0-0.2-0.1-0.5-0.1-0.7C-127.1,234.5-148,234.5-169,234.5z M-98,221.6c0,0.3,0,0.6,0,0.9
			c18.3,0,36.6,0,54.9,0c0-0.3,0-0.6,0-0.9C-61.4,221.6-79.7,221.6-98,221.6z M-10.5,229.5c0,0.3,0,0.6,0,0.9c18.8,0,37.6,0,56.5,0
			c0-0.3,0-0.6,0-0.9C27.1,229.5,8.3,229.5-10.5,229.5z M126,201.6c5.6,0.9,10.1,1.8,14.8,2.3c5,0.5,10,0.5,15,0.6
			c4.7,0.1,9.3,0,14,0c0-0.4,0-0.7,0-1.1c-5.8-0.2-11.7-0.2-17.5-0.6c-3-0.2-5.9-1.1-8.9-1.2C138,201.4,132.4,201.6,126,201.6z
			 M-9.3,226.2c0,0.3,0,0.5,0,0.8c14.7,0,29.3,0,44,0c0-0.3,0-0.5,0-0.8C20,226.2,5.4,226.2-9.3,226.2z M294.9,226c0-0.3,0-0.7,0-1
			c-15.3,0.4-30.6,0.8-46,1.2c7.7,0.7,15.4,0.8,23.1,0.7C279.7,226.6,287.3,226.2,294.9,226z M259.4,203.1c0-0.4,0.1-0.7,0.1-1.1
			c-1.6,0-3.1,0-4.7,0c-3.5,0-7.1,0.3-10.5,0c-3.5-0.3-6.9-1-9.7-1.5c-0.8,1.5-1.1,2.1-1.3,2.6C241.8,203.1,250.6,203.1,259.4,203.1
			z M228.9,209.7c0-0.3,0-0.5,0-0.8c-10.7,0-21.4,0-32,0c0,0.3,0,0.5,0,0.8C207.6,209.7,218.2,209.7,228.9,209.7z M308.7,209.5
			c0-0.3,0-0.5,0-0.8c-2.2-0.1-4.4-0.2-6.7-0.3c-0.1-0.2-0.1-0.5-0.2-0.7c2.7-0.5,5.5-0.9,8.4-1.4c-12.9-0.3-14.7,0.2-14.3,3.6
			C300.2,209.8,304.5,209.7,308.7,209.5z M-36.6,219.8c0-0.3,0-0.5,0-0.8c-9.9,0-19.7,0-29.6,0c0,0.3,0,0.5,0,0.8
			C-56.3,219.8-46.5,219.8-36.6,219.8z M-65.6,245c8.8,0,16.9,0,25.1,0c-2.8-0.5-5.8-0.3-8.3-0.9c-1.8-0.4-2.8-1.9-5.4-1.3
			C-57.7,243.5-61.2,244.1-65.6,245z M301.1,225.5c0,0.2,0,0.4,0,0.6c5.8,0,11.7,0,17.5,0c0-0.2,0-0.4,0-0.6
			C312.8,225.5,306.9,225.5,301.1,225.5z M260.7,240.1c-0.1-0.2-0.1-0.3-0.2-0.5c-7.8,0-15.6,0-23.4,0c0,0.2,0,0.3,0,0.5
			C245,240.1,252.8,240.1,260.7,240.1z"/>
		<path class="st2" d="M197.7,250.5c7.6,0.4,15.2,1.2,22.8,1.2c12.1,0,24.1-0.6,36.2-0.9c0.3,0,0.7-0.2,0.9-0.2
			c12.5,2.4,25.1-0.6,37.9,0.7c12.6,1.3,25.8,0.3,38.7,0.2c10.5-0.1,21.1-0.5,31.6-0.6c3.7,0,7.5,0.6,11.3,0.7
			c7,0.3,14.1,0.5,21.1,0.7c0.9,2.2-1.3,1.9-3.5,1.9c-58.1,0-116.2,0-174.3,0c-8.5-0.2-17-0.4-25.5-0.5c-2.3,0-4.5,0.4-6.8,0.5
			c-2,0-4,0-6.1,0c-2.7-0.6-5.3-1.3-8-1.7c-1.7-0.3-3.5,0-5.3-0.8c6.7,0,13.4,0.1,20.1-0.1c3-0.1,6-0.8,9-1.2
			C197.8,250.5,197.7,250.5,197.7,250.5z"/>
		<path class="st2" d="M398.4,195.2c-2.7-0.2-5.3-0.4-8-0.5c-3.4-0.1-6.7-0.2-10.1-0.3c-5.5-0.1-11-0.1-16.5-0.1
			c-1.9,0-4.1,1.3-5.3-0.7c-0.1-0.2-0.9-0.2-1.4-0.2c-10.6,0-21.1,0.2-31.7,0.1c-6.9-0.1-13.9-0.7-20.8-1.1
			c17.8-1.2,35.5-2.4,53.4-1.3c13.3,0.9,26.9,0.6,40.3,0.9C398.4,193,398.4,194.1,398.4,195.2z"/>
		<path class="st2" d="M398.4,130.3c-31.1,0-62.2,0-93.3,0c0-0.4,0-0.8,0-1.2c7.5,0,15.1,0,22.6,0c10.2,0,20.7,0.9,30.6-0.3
			c6.8-0.8,12.8,0.4,19.2,0.2c7-0.2,14-0.5,21-0.7C398.4,129.1,398.4,129.7,398.4,130.3z"/>
		<path class="st2" d="M398.4,114.9c-7.2,0.2-14.4,0.4-21.6,0.4c-4.5,0-9-0.4-13.6-1.4c11.7-0.1,23.4-0.2,35.2-0.3
			C398.4,114.1,398.4,114.5,398.4,114.9z"/>
		<path class="st2" d="M398.4,203.5c-10-0.3-20-0.6-30-0.9c0-0.1,0-0.2,0-0.3c10-0.2,20-0.5,30-0.7
			C398.4,202.2,398.4,202.9,398.4,203.5z"/>
		<path class="st2" d="M87.1,254.2c11.2-0.6,22.4-1.2,33.5-1.8c0,0.3,0.1,0.5,0.1,0.8c-0.8,0.3-1.5,0.7-2.3,1
			C108,254.2,97.6,254.2,87.1,254.2z"/>
		<path class="st2" d="M203.7,197.2c0.6,0,1.2,0,1.8,0c0-0.4,0-0.7,0-1.1c-8.4-0.1-16.8-0.4-25.2-0.3c-8,0.1-16,0.6-24,0.3
			c4.5-0.4,8.9-0.8,13.4-1.2c0-0.1,0-0.2,0-0.2c-8-0.2-16-0.5-24-0.7c17.1-3.4,34.4,0,51.5-1.4c-3.1,0-6.2,0-9.3,0
			c0-0.4,0-0.7,0-1.1c15.2,0,30.4,0,45.7,0c-1,0.2-2,0.5-3.1,0.7c0,0.2,0,0.4,0,0.6c11.8,0.6,23.5,1.3,35.3,1.9c0,0.1,0,0.2,0.1,0.3
			c-4,0-8-0.2-11.9,0c-3.8,0.2-7.5,0.8-11.2,1.3c-1.3,0.1-2.6,0.4-3.9,0.4c-4.1,0.2-8.2,0.4-12.4,0.5c-1.6,0-3.3-0.1-4.9-0.1
			c-3.9,0-7.8,0-11.7,0C207.7,197.3,205.7,197.3,203.7,197.2C203.7,197.2,203.7,197.2,203.7,197.2z"/>
		<path class="st2" d="M-21.5,195.9c1.2,0,2.7-0.1,3.4-0.1c-6.1,0-12.9,0.2-19.7-0.1c-6.7-0.3-13.4-1.1-20.8-1.8
			c14.6-2.2,28.8-1.7,43.1,0c0-0.3,0-0.6,0.1-0.8c-1.2-0.2-2.3-0.4-3.4-0.6c-0.1-1.3,26-0.7,35.1,1.3c-2.9,0.3-5.8,0.7-8.7,1
			c0,0.1,0,0.3,0,0.4c5.4-0.2,10.8-0.3,16.2-0.5c0.1,0.3,0.1,0.6,0.2,0.9c-2.6,0.3-5.3,0.7-7.9,0.7c-5.3,0-10.7-0.2-16.1-0.2
			c-1.4,0-4.5-0.7-2.6,1.6c-2.9,0.1-6,0.6-8.8,0.3C-14.9,197.6-18.2,196.6-21.5,195.9z"/>
		<path class="st2" d="M137.7,191.7c-15.6,1.4-31.3,1-47,0.2c0-0.3,0-0.7,0-1c15.7,0,31.3,0,47,0
			C137.7,191.1,137.7,191.4,137.7,191.7z"/>
		<path class="st2" d="M79.3,198.2c-14.2,0-28.4,0-42.6,0c0-0.3,0-0.7,0-1c14.2,0.6,28.4-3,42.6,0.2C79.3,197.7,79.3,198,79.3,198.2
			z"/>
		<path class="st2" d="M293.2,200.7c6.8-1.3,50.1-0.5,53.3,1c-4.8-0.2-9.4-1.3-13-0.5C319.8,204.1,306.6,200.3,293.2,200.7z"/>
		<path class="st2" d="M-207.1,196.1c11.9,0.3,24-1.4,35.7,0.9C-183.3,196.8-195.4,198.5-207.1,196.1z"/>
		<path class="st2" d="M-117.2,204.5c-12.9,0.1-25.8,0.1-38.6,0.2c-2.6,0-5.3,0-7.9,0c0-0.3,0-0.6,0-0.9c4.9,0,9.9,0,14.8,0
			c0.8,0,1.8,0.3,2.5,0.1C-136.6,200.8-127,204-117.2,204.5C-117.2,204.5-117.2,204.5-117.2,204.5z"/>
		<path class="st2" d="M289.9,192.7c-14.7,0-29.5,0-44.2,0c0-0.3,0-0.6,0-0.8c14.7,0,29.5,0,44.2,0
			C289.9,192.1,289.9,192.4,289.9,192.7z"/>
		<path class="st2" d="M-146.3,64.7c-0.6-0.5-1.4-1.2-2.9-2.5c6.4,1.1,13.1-1.6,18.4,2.5C-136.1,64.7-141.1,64.7-146.3,64.7z"/>
		<path class="st2" d="M175.2,190.4c-11,0-22,0-33,0c0-0.1,0-0.1,0-0.2c11-0.3,22-0.6,33-0.9C175.1,189.6,175.1,190,175.2,190.4z"/>
		<path class="st2" d="M-195.3,179.1c9.5,0,19,0,28.5,0c0,0.3,0,0.5,0,0.8c-9.5,0-19,0-28.5,0C-195.3,179.6-195.3,179.4-195.3,179.1
			z"/>
		<path class="st2" d="M-178.9,217.2c8,0,15.9,0,23.9,0c0,0.2,0,0.4,0,0.6c-8,0-15.9,0-23.9,0C-178.9,217.6-178.9,217.4-178.9,217.2
			z"/>
		<path class="st2" d="M-92.3,176.8c6.3,0,12.7,0,19,0c0,0.2,0,0.4,0,0.6c-6.5,0-12.9,0-19.4,0C-92.6,177.2-92.5,177-92.3,176.8z"/>
		<path class="st2" d="M269.1,188.8c6.8,0,13.5,0,20.3,0c0,0.2,0,0.4,0,0.6c-6.8,0-13.5,0-20.3,0C269.1,189.3,269.1,189,269.1,188.8
			z"/>
		<path class="st2" d="M-169.9,213.8c-6.1-0.2-12.3-0.4-18.4-0.5c0-0.3,0.1-0.6,0.1-0.9c6.2,0.2,12.3,0.4,18.5,0.6
			C-169.8,213.3-169.9,213.5-169.9,213.8z"/>
		<path class="st2" d="M-175.9,62.2c5,0,10,0,15,0c0,0.2,0,0.3,0,0.5c-5,0.2-10,0.4-15,0.6C-175.9,62.9-175.9,62.5-175.9,62.2z"/>
		<path class="st2" d="M-46.5,62.8c6.1,0.3,12.2,0.7,17.8,0.9c-5.6,0-11.8,0-17.9,0C-46.6,63.4-46.5,63.1-46.5,62.8z"/>
		<path class="st2" d="M-194.2,200.3c5.5,0,11,0,16.4,0c0,0.5,0,1,0,1.5c-5.5-0.3-11.1-0.6-16.6-0.9
			C-194.4,200.6-194.3,200.5-194.2,200.3z"/>
		<path class="st2" d="M-121.3,178.1c-3,0.3-5.9,0.6-8.9,1s-4-0.3-3.4-2.4c2-0.1,4.1-0.1,6.8-0.2c-0.7,0.6-1.1,0.8-1.8,1.4
			C-126,178-123.7,178.1-121.3,178.1C-121.4,178.1-121.3,178.1-121.3,178.1z"/>
		<path class="st2" d="M246.4,197.1c5.1,0.3,10.2,0.5,15.3,0.8c0,0.1,0,0.1,0,0.2c-5.2,0-10.3,0-15.5,0
			C246.3,197.8,246.4,197.4,246.4,197.1z"/>
		<path class="st2" d="M270,198.5c5.8-0.2,11.5-0.4,17.2-0.7c0,0.2,0,0.4,0,0.7C281.5,198.5,275.8,198.5,270,198.5z"/>
		<path class="st2" d="M107.3,213.1c-6-0.2-12-0.4-17.9-0.7c0-0.1,0-0.2,0-0.2c6,0,12,0,18,0C107.4,212.5,107.4,212.8,107.3,213.1z"
			/>
		<path class="st2" d="M-45.7,213.7c4.2,0.3,8.4,0.5,12.6,0.8c0,0.1,0,0.2-0.1,0.3c-4.2,0-8.4,0-12.7,0
			C-45.8,214.4-45.8,214.1-45.7,213.7z"/>
		<path class="st2" d="M123.8,212.4c3.4,0.3,6.8,0.5,10.2,0.8c-0.1,0.4-0.1,0.7-0.2,1.1c-3.3-0.4-6.7-0.7-10-1.1
			C123.8,213,123.8,212.7,123.8,212.4z"/>
		<path class="st2" d="M218,164.2c-11.6-0.6-23.3-1.1-34.9-1.7c0-0.3,0-0.6,0-0.9c8.9,0,17.7,0,27.4,0c-1.4,0.5-2.3,0.8-3.8,1.3
			c4.2,0.1,7.8,0.3,11.4,0.4C218.1,163.6,218.1,163.9,218,164.2z"/>
		<path class="st2" d="M374.3,166.3c-12.2,3.9-23.8,0.3-34.7,2.2c0-0.3-0.1-0.6-0.1-0.9C350.5,167.2,361.6,166.8,374.3,166.3z"/>
		<path class="st2" d="M364.2,161.6c-9.3-0.4-18.6-0.7-27.9-1.1c0-0.1,0-0.2,0-0.3c9.3,0,18.5,0,27.8,0
			C364.2,160.7,364.2,161.2,364.2,161.6z"/>
		<path class="st2" d="M229.3,164.4c2,0,6.8-0.9,8.4,0.2c3.9,2.6,8.5,1.1,12.6,2.2c-4.3,0-8.6,0.3-12.8-0.1
			C234.4,166.4,231.5,165,229.3,164.4z"/>
		<path class="st2" d="M300.7,105.5c3.4,0,6.9,0.3,10.2,0.1c6.5-0.5,12.8-0.3,19,0.9c0,0.3,0,0.6,0,0.9c-12.7,0-25.3,0-38,0
			c-0.1-0.1-0.2-0.2-0.3-0.3c3.1-0.6,6.1-1.1,9.2-1.7L300.7,105.5z"/>
		<path class="st2" d="M-18.6,100.9c-0.8-0.3-1.6-0.7-2.4-1.1c12.7-0.5,25.2-1.1,37.8-1.4c1.4,0,2.8,1.1,3.9,2.2c-2.9,0-5.7,0-8.9,0
			c0.6-0.3,1.1-0.6,1-0.6c-10.3,0.3-20.9,0.5-31.6,0.8C-18.8,100.8-18.6,100.9-18.6,100.9z"/>
		<path class="st2" d="M197.3,102.2c7.3-0.3,14.6-0.6,21.5-0.8c-2.2,1.5-4,1.6-10.2,1.4c-3.7-0.1-7.4,0.4-11.1,0.6
			C197.5,102.9,197.4,102.6,197.3,102.2z"/>
		<path class="st2" d="M300.9,105.4c-3.8-0.4-7.6-0.8-11.4-1.3c0-0.2,0-0.3,0.1-0.5c4.9,0,9.7,0,16.1,0c-2.5,0.9-3.7,1.3-4.9,1.8
			C300.7,105.5,300.9,105.4,300.9,105.4z"/>
		<path class="st2" d="M88,117.5c-6.7,0-13.3,0-20,0c0-0.1,0-0.3,0-0.4c6.7,0,13.5,0,20.2,0C88.2,117.2,88.1,117.4,88,117.5z"/>
		<path class="st2" d="M359.5,119.4c-3.1-0.3-6.2-0.6-9.3-0.8c0.1-0.3,0.1-0.6,0.2-1c3.1,0.2,6.2,0.3,9.3,0.5
			C359.6,118.6,359.6,119,359.5,119.4z"/>
		<path class="st2" d="M347.8,105.3c4.2,0.1,8.3,0.3,12.5,0.4c0,0.3-0.1,0.6-0.1,1c-4.2-0.2-8.3-0.4-12.5-0.5
			C347.7,105.8,347.7,105.5,347.8,105.3z"/>
		<path class="st2" d="M205,249.4c-1.4-2,1.2-1.6,2.6-1.6c6.7-0.3,13.4-0.4,20.1-0.6c9.7-0.4,19.4-0.8,29-1.3c1,0,2.2-0.2,3,0.1
			c7.5,2.9,15.6,1.5,23.5,1.7c5.4,0.1,10.8,0.4,16.2,0.6c0,0.4,0,0.7-0.1,1.1c-18.9,0-37.7,0-56.6,0c-0.1-0.1-0.1-0.2-0.2-0.3
			c2.5-0.2,5.1-0.5,7.6-0.7c0-0.3-0.1-0.5-0.1-0.8C235.1,248.2,220,248.8,205,249.4L205,249.4z"/>
		<path class="st2" d="M65.3,250c17.6,0,35.2,0,53,0C114.7,252.4,73.7,252.9,65.3,250z"/>
		<path class="st2" d="M204.9,249.4c-2.4,0.4-4.8,0.7-7.2,1.1c0,0,0.1,0,0.1,0c-2.4-0.4-4.8-0.8-7.1-1.2c0-0.3,0.1-0.6,0.1-0.9
			C195.5,248.7,200.2,249.1,204.9,249.4C205,249.4,204.9,249.4,204.9,249.4z"/>
		<path class="st2" d="M265.9,129c-5.6,0-11.2,0-16.8,0c0-0.2,0-0.4,0-0.6c5.6,0,11.1,0,16.7,0C265.8,128.6,265.8,128.8,265.9,129z"
			/>
		<path class="st2" d="M283.5,128.7c4.1,0.3,8.2,0.5,12.3,0.8c0,0.2,0,0.5,0,0.7c-4.1-0.2-8.3-0.4-12.4-0.6
			C283.5,129.3,283.5,129,283.5,128.7z"/>
		<path class="st2" d="M324.9,68.4c0.7-0.1,1.5-0.2,2.2-0.4c0-0.2-0.1-0.4-0.1-0.5c-7.1,0-14.2,0-21.3,0c5-1.4,9.8-2,15.3-1.8
			c11.7,0.3,23.4-0.3,35.2-0.6c0.6,0,1.2,0,3,0.1c-8,2.5-15.1,3.2-22.7,2.1c-0.9-0.1-2.3,1.3-3.5,1.3
			C330.3,68.8,327.6,68.5,324.9,68.4C324.9,68.4,324.9,68.4,324.9,68.4z"/>
		<path class="st2" d="M297.9,65.2c1.6-0.1,3.1-0.3,4.7-0.4c0-0.1,0-0.3,0-0.4c-1.7-0.1-3.3-0.2-5-0.3c0-0.1,0-0.2,0-0.3
			c2.9,0.1,5.7,0.2,8.6,0.3c0,0.4,0.1,0.7,0.1,1.1c-2.7,0.4-5.4,0.7-8.1,1.1C298.2,65.8,298,65.5,297.9,65.2z"/>
		<path class="st2" d="M60.3,67.7c7.5-0.4,15-0.8,22.5-1.2c0,0.2,0.1,0.4,0.1,0.6c-1.9,0.2-3.7,0.4-5.6,0.7c0,0.2,0,0.5,0,0.7
			c16.4,0,32.8,0,50,0c-1.2,0.9-1.7,1.4-2.6,2.1c1.7,0.2,3.1,0.4,4.4,0.6c0,0.2,0,0.4-0.1,0.6c-3.4,0-7.3,0.7-10.1-0.1
			c-9.1-2.5-18.6-0.6-27.8-1.5c-7.3-0.7-15,0.4-22.1-2.1c-2.3-0.8-5.7-0.3-8.6-0.3C60.4,67.7,60.3,67.7,60.3,67.7z"/>
		<path class="st2" d="M143.7,72.4c3.6,0.2,7.2,0.5,10.8,0.7c-0.1,0.5-0.2,0.9-0.3,1.4c-3.6-0.4-7.1-0.8-10.7-1.2
			C143.5,73.1,143.6,72.7,143.7,72.4z"/>
		<path class="st2" d="M136.2,73.5c-4.4,0-8.7,0-13.1,0c0-0.2,0-0.4,0-0.6c4.4,0,8.7,0,13.1,0C136.2,73.1,136.2,73.3,136.2,73.5z"/>
		<path class="st2" d="M93.6,72.2c4.3-0.3,8.7-0.5,13-0.8c0,0.4,0.1,0.9,0.1,1.3C102.4,73.9,97.9,71.8,93.6,72.2z"/>
		<path class="st2" d="M-57.7,142c5.6,0.4,11.2,0.9,16.8,1.3c0,0.2,0,0.4-0.1,0.6c-5.6-0.2-11.3-0.5-16.9-0.7
			C-57.8,142.8-57.7,142.4-57.7,142z"/>
		<path class="st2" d="M321.9,231.7c8.9,0,17.9,0,26.8,0c0,0.2,0,0.3,0,0.5c-8.9,0-17.9,0-26.8,0
			C321.9,232.1,321.9,231.9,321.9,231.7z"/>
		<path class="st2" d="M220.1,235.9c-4.5,0-9,0-13.5,0c0-0.1,0-0.3,0-0.4c4.5,0,9,0,13.5,0C220.1,235.6,220.1,235.8,220.1,235.9z"/>
	</g>
</g>
<path class="st3" d="M121.3,139.1c0.1,3.9-19.4,11.7-44.4,11.8c-37.2,0.1-44.4-7.8-44.4-11.8c0-3.9,19.9-7.1,44.4-7.1
	S121.2,135.2,121.3,139.1z"/>
<g>
	<path class="st4" d="M235.2,165.1c-0.7-2.9,2-6.1,6-7c4-1,7.8,0.6,8.6,3.5"/>
	<path class="st4" d="M249.7,161.5c0.2,3.1-2.2,6.3-6.4,7.2c-4.2,0.9-7.8-1.5-8.5-4.4"/>
	
		<ellipse transform="matrix(0.9709 -0.2394 0.2394 0.9709 -31.8633 62.7222)" class="st5" cx="242.2" cy="162.5" rx="7.7" ry="5.3"/>
	<g>
		<path class="st6" d="M243.8,161.8c0,0,0-0.3,0.2-0.6c0.2-0.3,0.4-0.7,0.7-1.1c0.2-0.4,0.5-0.7,0.6-1c0.2-0.3,0.3-0.6,0.3-0.6
			s0.2,0.2,0.3,0.6c0,0.2,0,0.5,0,0.7c-0.1,0.3-0.2,0.5-0.3,0.7c-0.3,0.4-0.7,0.8-1.1,0.9C244.1,161.7,243.8,161.8,243.8,161.8z"/>
	</g>
	<g>
		<path class="st6" d="M239,162.7c0,0,0-0.2,0.1-0.5c0.1-0.3,0.3-0.6,0.4-0.8c0.2-0.2,0.3-0.4,0.5-0.6c0.2-0.2,0.3-0.4,0.3-0.4
			s0.2,0.1,0.3,0.5c0.1,0.3,0,0.8-0.2,1.1c-0.2,0.3-0.6,0.5-0.8,0.6C239.2,162.7,239,162.7,239,162.7z"/>
	</g>
	<g>
		<path class="st6" d="M242.9,162.1c0,0,0.2-0.1,0.5-0.1c0.3,0,0.7,0,1,0.2c0.4,0.2,0.7,0.5,0.8,0.9c0.1,0.3,0,0.6,0,0.6
			s-0.2-0.1-0.4-0.2c-0.2-0.1-0.5-0.2-0.7-0.3c-0.3-0.1-0.5-0.3-0.8-0.5C243,162.3,242.9,162.1,242.9,162.1z"/>
	</g>
	<g>
		<path class="st6" d="M242.7,165c0,0-0.3-0.1-0.6-0.3c-0.3-0.2-0.6-0.5-1-0.9c-0.3-0.3-0.6-0.6-0.8-0.8c-0.3-0.2-0.5-0.4-0.5-0.4
			s0.3-0.2,0.7-0.2c0.2,0,0.5,0.1,0.7,0.2c0.2,0.1,0.5,0.3,0.7,0.5c0.4,0.4,0.6,0.9,0.7,1.2C242.7,164.7,242.7,165,242.7,165z"/>
	</g>
	<path class="st6" d="M235.9,163.8c0,0,6.6-3.3,12.5-2.7"/>
</g>
<g>
	<path class="st4" d="M243.4,175.4c-0.6-2.9,2.3-5.9,6.3-6.7s7.8,1,8.4,3.9"/>
	<path class="st4" d="M258.1,172.6c0.1,3.1-2.5,6.2-6.8,6.9c-4.3,0.7-7.7-1.9-8.2-4.9"/>
	
		<ellipse transform="matrix(0.9822 -0.1881 0.1881 0.9822 -28.1028 50.2189)" class="st5" cx="250.6" cy="173.2" rx="7.7" ry="5.3"/>
	<g>
		<path class="st6" d="M252.1,172.5c0,0,0.1-0.3,0.2-0.6c0.2-0.3,0.5-0.7,0.7-1.1c0.3-0.3,0.5-0.6,0.7-0.9c0.2-0.3,0.3-0.5,0.3-0.5
			s0.2,0.2,0.2,0.7c0,0.2,0,0.5-0.1,0.7c-0.1,0.3-0.2,0.5-0.4,0.7c-0.3,0.4-0.8,0.7-1.1,0.9C252.4,172.5,252.1,172.5,252.1,172.5z"
			/>
	</g>
	<g>
		<path class="st6" d="M247.3,173.2c0,0,0-0.2,0.1-0.5c0.1-0.3,0.3-0.6,0.5-0.8c0.2-0.2,0.4-0.4,0.5-0.6c0.2-0.2,0.3-0.4,0.3-0.4
			s0.2,0.2,0.3,0.5c0.1,0.3-0.1,0.8-0.3,1.1c-0.3,0.3-0.6,0.5-0.9,0.6C247.6,173.2,247.3,173.2,247.3,173.2z"/>
	</g>
	<g>
		<path class="st6" d="M251.3,172.8c0,0,0.2-0.1,0.5-0.1c0.3,0,0.7,0,1,0.2c0.4,0.2,0.6,0.6,0.7,0.9c0.1,0.3,0,0.6,0,0.6
			s-0.2-0.1-0.4-0.2c-0.2-0.1-0.5-0.2-0.7-0.4c-0.3-0.1-0.5-0.3-0.7-0.6C251.4,173,251.3,172.8,251.3,172.8z"/>
	</g>
	<g>
		<path class="st6" d="M251,175.7c0,0-0.3-0.1-0.6-0.4c-0.3-0.2-0.6-0.6-0.9-0.9c-0.3-0.3-0.5-0.6-0.8-0.9c-0.2-0.2-0.5-0.4-0.5-0.4
			s0.3-0.2,0.7-0.1c0.2,0,0.5,0.1,0.7,0.2c0.2,0.1,0.4,0.3,0.6,0.5c0.4,0.4,0.6,0.9,0.6,1.3C251,175.4,251,175.7,251,175.7z"/>
	</g>
	<path class="st6" d="M244.2,174.1c0,0,6.7-3,12.6-2"/>
</g>
<g>
	<path class="st4" d="M269.1,186.9c2.1-3.2,7.3-3.4,11.6-0.6c4.4,2.8,6.3,7.7,4.2,10.9"/>
	<path class="st4" d="M285,197.2c-2.7,2.9-7.7,3.5-12.2,0.3c-4.5-3.1-5.3-8.5-3.3-11.6"/>
	
		<ellipse transform="matrix(0.5438 -0.8392 0.8392 0.5438 -33.7448 320.1958)" class="st7" cx="277.6" cy="191.1" rx="6.6" ry="9.7"/>
	<g>
		<path class="st6" d="M279.7,191.9c0,0,0.3-0.2,0.8-0.3c0.5-0.1,1-0.2,1.6-0.3c0.6-0.1,1.1-0.2,1.5-0.3c0.2-0.1,0.4-0.1,0.5-0.2
			c0.1-0.1,0.2-0.1,0.2-0.1s0,0.1-0.1,0.2c0,0.1-0.2,0.3-0.3,0.5c-0.2,0.2-0.4,0.4-0.7,0.5c-0.3,0.2-0.6,0.2-0.9,0.3
			c-0.7,0.1-1.3,0-1.8-0.1C280,192.1,279.7,191.9,279.7,191.9z"/>
	</g>
	<g>
		<path class="st6" d="M274.6,188.3c0,0,0.2-0.2,0.6-0.3c0.3-0.1,0.8-0.2,1.1-0.3c0.4-0.1,0.7-0.1,1-0.2c0.3-0.1,0.6-0.1,0.6-0.1
			s0,0.3-0.2,0.6c-0.1,0.2-0.3,0.3-0.5,0.4c-0.2,0.1-0.5,0.2-0.7,0.2c-0.5,0.1-1,0-1.3-0.1C274.9,188.5,274.6,188.3,274.6,188.3z"/>
	</g>
	<g>
		<path class="st6" d="M278.6,191.4c0,0,0.2,0.1,0.5,0.4c0.3,0.2,0.5,0.6,0.7,1.1c0.1,0.2,0.1,0.5,0.1,0.7c0,0.2-0.1,0.5-0.2,0.6
			c-0.2,0.4-0.4,0.5-0.4,0.5s0-0.3-0.1-0.6c-0.1-0.3-0.2-0.6-0.3-1c-0.1-0.4-0.2-0.8-0.2-1.1C278.6,191.7,278.6,191.4,278.6,191.4z"
			/>
	</g>
	<g>
		<path class="st6" d="M275.8,193.8c0,0-0.1-0.3-0.1-0.8c0-0.5,0-1.1,0-1.6c0-0.6,0-1.1,0-1.5c0-0.2-0.1-0.4-0.1-0.5
			c0-0.1,0-0.2,0-0.2s0.1,0,0.2,0.1c0.1,0.1,0.3,0.2,0.5,0.4c0.2,0.2,0.3,0.5,0.4,0.8c0.1,0.3,0.1,0.7,0.1,1c0,0.7-0.2,1.3-0.5,1.7
			C276,193.5,275.8,193.8,275.8,193.8z"/>
	</g>
	<path class="st6" d="M271,186.4c0,0,8.7,3.2,13.3,9.2"/>
</g>
<g>
	<path class="st4" d="M248.1,227.4c2.1-3.2,7.3-3.4,11.6-0.6c4.4,2.8,6.3,7.7,4.2,10.9"/>
	<path class="st4" d="M264,237.7c-2.7,2.9-7.7,3.5-12.2,0.3c-4.5-3.1-5.3-8.5-3.3-11.6"/>
	
		<ellipse transform="matrix(0.5438 -0.8392 0.8392 0.5438 -77.3129 321.0482)" class="st7" cx="256.6" cy="231.6" rx="6.6" ry="9.7"/>
	<g>
		<path class="st6" d="M258.7,232.4c0,0,0.3-0.2,0.8-0.3c0.5-0.1,1-0.2,1.6-0.3c0.6-0.1,1.1-0.2,1.5-0.3c0.2-0.1,0.4-0.1,0.5-0.2
			c0.1-0.1,0.2-0.1,0.2-0.1s0,0.1-0.1,0.2c0,0.1-0.2,0.3-0.3,0.5c-0.2,0.2-0.4,0.4-0.7,0.5c-0.3,0.2-0.6,0.2-0.9,0.3
			c-0.7,0.1-1.3,0-1.8-0.1C259,232.6,258.7,232.4,258.7,232.4z"/>
	</g>
	<g>
		<path class="st6" d="M253.6,228.8c0,0,0.2-0.2,0.6-0.3c0.3-0.1,0.8-0.2,1.1-0.3c0.4-0.1,0.7-0.1,1-0.2c0.3-0.1,0.6-0.1,0.6-0.1
			s0,0.3-0.2,0.6c-0.1,0.2-0.3,0.3-0.5,0.4c-0.2,0.1-0.5,0.2-0.7,0.2c-0.5,0.1-1,0-1.3-0.1C253.9,229,253.6,228.8,253.6,228.8z"/>
	</g>
	<g>
		<path class="st6" d="M257.6,231.9c0,0,0.2,0.1,0.5,0.4c0.3,0.2,0.5,0.6,0.7,1.1c0.1,0.2,0.1,0.5,0.1,0.7c0,0.2-0.1,0.5-0.2,0.6
			c-0.2,0.4-0.4,0.5-0.4,0.5s0-0.3-0.1-0.6c-0.1-0.3-0.2-0.6-0.3-1c-0.1-0.4-0.2-0.8-0.2-1.1C257.6,232.2,257.6,231.9,257.6,231.9z"
			/>
	</g>
	<g>
		<path class="st6" d="M254.8,234.3c0,0-0.1-0.3-0.1-0.8c0-0.5,0-1.1,0-1.6c0-0.6,0-1.1,0-1.5c0-0.2-0.1-0.4-0.1-0.5
			c0-0.1,0-0.2,0-0.2s0.1,0,0.2,0.1c0.1,0.1,0.3,0.2,0.5,0.4c0.2,0.2,0.3,0.5,0.4,0.8c0.1,0.3,0.1,0.7,0.1,1c0,0.7-0.2,1.3-0.5,1.7
			C255,234,254.8,234.3,254.8,234.3z"/>
	</g>
	<path class="st6" d="M250,226.9c0,0,8.7,3.2,13.3,9.2"/>
</g>
<g>
	<path class="st4" d="M248.4,166.7c-0.6-2.9,2.3-5.9,6.3-6.7c4.1-0.8,7.8,1,8.4,3.9"/>
	<path class="st4" d="M263.1,163.9c0.1,3.1-2.5,6.2-6.8,6.9c-4.3,0.7-7.7-1.9-8.2-4.9"/>
	<ellipse transform="matrix(0.9822 -0.1881 0.1881 0.9822 -26.372 51.012)" class="st5" cx="255.6" cy="164.5" rx="7.7" ry="5.3"/>
	<g>
		<path class="st6" d="M257.2,163.8c0,0,0.1-0.3,0.2-0.6c0.2-0.3,0.5-0.7,0.7-1.1c0.3-0.3,0.5-0.6,0.7-0.9c0.2-0.3,0.3-0.5,0.3-0.5
			s0.2,0.2,0.2,0.7c0,0.2,0,0.5-0.1,0.7c-0.1,0.3-0.2,0.5-0.4,0.7c-0.3,0.4-0.8,0.7-1.1,0.9C257.5,163.8,257.2,163.8,257.2,163.8z"
			/>
	</g>
	<g>
		<path class="st6" d="M252.4,164.5c0,0,0-0.2,0.1-0.5c0.1-0.3,0.3-0.6,0.5-0.8c0.2-0.2,0.4-0.4,0.5-0.6c0.2-0.2,0.3-0.4,0.3-0.4
			s0.2,0.2,0.3,0.5c0.1,0.3-0.1,0.8-0.3,1.1c-0.3,0.3-0.6,0.5-0.9,0.6C252.6,164.5,252.4,164.5,252.4,164.5z"/>
	</g>
	<g>
		<path class="st6" d="M256.3,164.1c0,0,0.2-0.1,0.5-0.1c0.3,0,0.7,0,1,0.2c0.4,0.2,0.6,0.6,0.7,0.9c0.1,0.3,0,0.6,0,0.6
			s-0.2-0.1-0.4-0.2c-0.2-0.1-0.5-0.2-0.7-0.4c-0.3-0.1-0.5-0.3-0.7-0.6C256.4,164.3,256.3,164.1,256.3,164.1z"/>
	</g>
	<g>
		<path class="st6" d="M256,167c0,0-0.3-0.1-0.6-0.4c-0.3-0.2-0.6-0.6-0.9-0.9c-0.3-0.3-0.5-0.6-0.8-0.9c-0.2-0.2-0.5-0.4-0.5-0.4
			s0.3-0.2,0.7-0.1c0.2,0,0.5,0.1,0.7,0.2c0.2,0.1,0.4,0.3,0.6,0.5c0.4,0.4,0.6,0.9,0.6,1.3C256,166.7,256,167,256,167z"/>
	</g>
	<path class="st6" d="M249.2,165.4c0,0,6.7-3,12.6-2"/>
</g>
<g>
	<path class="st4" d="M234.4,178.9c-2.3-2-1.9-6.1,0.8-9.2c2.7-3.1,6.7-4,9-2.1"/>
	<path class="st4" d="M244.3,167.6c2,2.4,1.8,6.4-1.1,9.6c-3,3.2-7.2,3.2-9.5,1.3"/>
	
		<ellipse transform="matrix(0.6578 -0.7532 0.7532 0.6578 -48.3869 238.893)" class="st5" cx="238.7" cy="172.7" rx="7.7" ry="5.3"/>
	<g>
		<path class="st6" d="M239.6,171.2c0,0-0.1-0.3-0.2-0.6c-0.1-0.4-0.1-0.8-0.1-1.3c0-0.4,0-0.8,0-1.2c0-0.3-0.1-0.6-0.1-0.6
			s0.3,0.1,0.6,0.4c0.2,0.2,0.3,0.4,0.4,0.6c0.1,0.2,0.1,0.5,0.1,0.8c0,0.5-0.2,1-0.3,1.4C239.8,171,239.6,171.2,239.6,171.2z"/>
	</g>
	<g>
		<path class="st6" d="M236.2,174.7c0,0-0.1-0.2-0.2-0.5c-0.1-0.3-0.1-0.6-0.1-0.9c0-0.3,0-0.6,0-0.8c0-0.3,0-0.5,0-0.5
			s0.3,0,0.5,0.2c0.3,0.2,0.4,0.7,0.4,1.1c0,0.4-0.1,0.8-0.3,1C236.4,174.6,236.2,174.7,236.2,174.7z"/>
	</g>
	<g>
		<path class="st6" d="M239.1,172c0,0,0.1-0.2,0.3-0.4c0.2-0.2,0.5-0.4,0.9-0.5c0.4-0.1,0.9,0.1,1.1,0.3c0.3,0.2,0.3,0.5,0.3,0.5
			s-0.2,0-0.5,0.1c-0.2,0-0.5,0.1-0.8,0.2c-0.3,0-0.6,0.1-0.9,0C239.3,172.1,239.1,172,239.1,172z"/>
	</g>
	<g>
		<path class="st6" d="M240.6,174.4c0,0-0.3,0.1-0.7,0.1c-0.4,0-0.8-0.1-1.3-0.2c-0.4-0.1-0.8-0.2-1.1-0.2c-0.3,0-0.6,0-0.6,0
			s0.1-0.3,0.5-0.5c0.2-0.1,0.4-0.2,0.7-0.3c0.3,0,0.5,0,0.8,0c0.5,0.1,1,0.4,1.3,0.6C240.4,174.2,240.6,174.4,240.6,174.4z"/>
	</g>
	<path class="st6" d="M234.3,177.4c0,0,3.5-6.5,8.7-9.4"/>
</g>
<path class="st3" d="M214.3,118.9l11.2,57.2c0,0,17.6,14.5,40.1,1.2l11.6-58.4C277.3,118.9,248.3,131,214.3,118.9z"/>
<path class="st3" d="M278.3,117.6c0,2.9-9.9,9.3-33.2,9.3c-17.4,0-31.5-5.7-31.5-8.6c0-2.9,14.1-5.2,31.5-5.2
	S278.3,114.7,278.3,117.6z"/>
<path class="st3" d="M33.6,141.3l15.7,79.8c0,0,24.5,20.3,56,1.7l16-83.6C121.3,139.1,81,158.2,33.6,141.3z"/>
<g>
	<path class="st4" d="M59,203.3c-1-4.1,2.7-8.5,8.3-9.8c5.6-1.4,10.9,0.8,11.9,4.8"/>
	<path class="st4" d="M79.3,198.3c0.3,4.4-3.1,8.8-8.9,10.1c-5.9,1.2-10.8-2.1-11.8-6.2"/>
	
		<ellipse transform="matrix(0.9709 -0.2394 0.2394 0.9709 -45.7982 22.2957)" class="st8" cx="68.9" cy="199.6" rx="10.7" ry="7.3"/>
	<g>
		<path class="st6" d="M71,198.6c0,0,0.1-0.4,0.4-0.8c0.3-0.5,0.6-1,1-1.5c0.4-0.5,0.7-1,0.8-1.5c0.1-0.2,0.2-0.4,0.2-0.6
			c0-0.1,0.1-0.2,0.1-0.2s0,0.1,0.1,0.2c0.1,0.1,0.1,0.4,0.2,0.7c0,0.3,0,0.6-0.1,1c-0.1,0.3-0.3,0.7-0.5,1c-0.4,0.6-1,1-1.4,1.3
			C71.4,198.5,71,198.6,71,198.6z"/>
	</g>
	<g>
		<path class="st6" d="M64.3,199.9c0,0,0-0.3,0.2-0.6c0.2-0.4,0.4-0.7,0.7-1.1c0.2-0.4,0.5-0.7,0.6-1c0.2-0.3,0.3-0.6,0.3-0.6
			s0.2,0.2,0.3,0.6c0,0.2,0,0.5,0,0.7c-0.1,0.3-0.2,0.5-0.3,0.7c-0.3,0.4-0.7,0.8-1.1,0.9C64.6,199.9,64.3,199.9,64.3,199.9z"/>
	</g>
	<g>
		<path class="st6" d="M69.9,199.1c0,0,0.3-0.1,0.7-0.1c0.4,0,0.9,0.1,1.4,0.3c0.2,0.1,0.5,0.3,0.7,0.5c0.2,0.2,0.3,0.4,0.4,0.6
			c0.2,0.4,0.1,0.7,0.1,0.7s-0.2-0.2-0.5-0.4c-0.3-0.2-0.6-0.4-1-0.6c-0.4-0.2-0.8-0.4-1.1-0.7C70,199.3,69.9,199.1,69.9,199.1z"/>
	</g>
	<g>
		<path class="st6" d="M69.6,203.1c0,0-0.3-0.2-0.7-0.5c-0.4-0.3-0.8-0.8-1.3-1.3c-0.4-0.4-0.9-0.8-1.3-1.1
			c-0.2-0.1-0.4-0.2-0.5-0.3c-0.1-0.1-0.2-0.1-0.2-0.1s0.1,0,0.2-0.1c0.2,0,0.4-0.1,0.7,0c0.3,0,0.6,0.1,0.9,0.3
			c0.3,0.2,0.6,0.4,0.9,0.7c0.5,0.5,0.8,1.1,1,1.6C69.5,202.7,69.6,203.1,69.6,203.1z"/>
	</g>
	<path class="st6" d="M60,201.4c0,0,9.2-4.6,17.4-3.7"/>
</g>
<g>
	<path class="st4" d="M70.5,217.9c-0.8-4.1,3.2-8.3,8.8-9.4c5.7-1.1,10.9,1.4,11.7,5.5"/>
	<path class="st4" d="M91,214c0.1,4.4-3.5,8.7-9.5,9.6c-6,0.9-10.7-2.7-11.5-6.8"/>
	
		<ellipse transform="matrix(0.9822 -0.1881 0.1881 0.9822 -38.9612 18.9771)" class="st8" cx="80.5" cy="214.8" rx="10.7" ry="7.3"/>
	<g>
		<path class="st6" d="M82.7,213.9c0,0,0.1-0.4,0.4-0.8c0.3-0.4,0.7-1,1.1-1.4c0.4-0.5,0.7-1,0.9-1.4c0.1-0.2,0.2-0.4,0.2-0.6
			c0.1-0.1,0.1-0.2,0.1-0.2s0,0.1,0.1,0.2c0.1,0.2,0.1,0.4,0.1,0.7c0,0.3,0,0.6-0.2,1c-0.1,0.3-0.3,0.7-0.5,1c-0.5,0.6-1,1-1.5,1.3
			C83.1,213.8,82.7,213.9,82.7,213.9z"/>
	</g>
	<g>
		<path class="st6" d="M76,214.8c0,0,0.1-0.3,0.3-0.6c0.2-0.3,0.5-0.7,0.7-1.1c0.3-0.3,0.5-0.7,0.7-0.9c0.2-0.3,0.3-0.6,0.3-0.6
			s0.2,0.2,0.2,0.7c0,0.2,0,0.5-0.1,0.7c-0.1,0.3-0.2,0.5-0.4,0.7c-0.3,0.4-0.8,0.7-1.1,0.9C76.3,214.8,76,214.8,76,214.8z"/>
	</g>
	<g>
		<path class="st6" d="M81.5,214.2c0,0,0.3-0.1,0.7-0.1c0.4,0,0.9,0.1,1.4,0.4c0.2,0.1,0.5,0.3,0.6,0.5c0.2,0.2,0.3,0.4,0.4,0.6
			c0.1,0.4,0,0.7,0,0.7s-0.2-0.2-0.5-0.4c-0.3-0.2-0.6-0.4-1-0.6c-0.4-0.2-0.8-0.5-1.1-0.7C81.7,214.5,81.5,214.2,81.5,214.2z"/>
	</g>
	<g>
		<path class="st6" d="M81.1,218.3c0,0-0.3-0.2-0.7-0.6c-0.4-0.4-0.8-0.9-1.2-1.3c-0.4-0.5-0.8-0.9-1.2-1.2
			c-0.2-0.1-0.4-0.3-0.5-0.3c-0.1-0.1-0.2-0.1-0.2-0.1s0.1,0,0.2-0.1c0.2,0,0.4,0,0.7,0c0.3,0,0.6,0.2,0.9,0.3
			c0.3,0.2,0.6,0.4,0.8,0.7c0.5,0.6,0.8,1.2,0.9,1.7C81,217.9,81.1,218.3,81.1,218.3z"/>
	</g>
	<path class="st6" d="M71.6,216.1c0,0,9.4-4.1,17.6-2.8"/>
</g>
<g>
	<path class="st4" d="M82.6,202.2c1.9-3.7,7.6-4.6,12.7-2c5.1,2.6,7.8,7.7,5.9,11.5"/>
	<path class="st4" d="M101.2,211.6c-2.6,3.5-8.1,4.7-13.3,1.8c-5.3-2.9-6.8-8.7-5-12.4"/>
	
		<ellipse transform="matrix(0.4516 -0.8922 0.8922 0.4516 -132.944 195.3455)" class="st8" cx="92.4" cy="205.8" rx="7.3" ry="10.7"/>
	<g>
		<path class="st6" d="M94.8,206.5c0,0,0.3-0.2,0.8-0.4c0.5-0.2,1.1-0.3,1.7-0.5c0.6-0.2,1.2-0.3,1.6-0.6c0.2-0.1,0.4-0.2,0.5-0.3
			c0.1-0.1,0.2-0.1,0.2-0.1s0,0.1-0.1,0.2c0,0.2-0.1,0.4-0.3,0.6c-0.2,0.2-0.4,0.5-0.7,0.7c-0.3,0.2-0.6,0.3-1,0.4
			c-0.7,0.2-1.4,0.2-1.9,0.1C95.1,206.6,94.8,206.5,94.8,206.5z"/>
	</g>
	<g>
		<path class="st6" d="M88.8,203.1c0,0,0.2-0.2,0.6-0.3c0.4-0.2,0.8-0.3,1.2-0.4c0.4-0.1,0.8-0.2,1.1-0.3c0.3-0.1,0.6-0.2,0.6-0.2
			s0,0.3-0.2,0.7c-0.1,0.2-0.3,0.4-0.5,0.5c-0.2,0.2-0.5,0.3-0.7,0.3c-0.5,0.1-1,0.1-1.4,0C89.1,203.2,88.8,203.1,88.8,203.1z"/>
	</g>
	<g>
		<path class="st6" d="M93.6,206c0,0,0.3,0.1,0.6,0.4c0.3,0.2,0.6,0.6,0.9,1.1c0.1,0.3,0.2,0.5,0.2,0.8c0,0.3,0,0.5-0.1,0.7
			c-0.2,0.4-0.4,0.6-0.4,0.6s-0.1-0.3-0.2-0.6c-0.1-0.3-0.3-0.7-0.4-1.1c-0.2-0.4-0.3-0.8-0.4-1.2C93.6,206.3,93.6,206,93.6,206z"/>
	</g>
	<g>
		<path class="st6" d="M90.7,208.9c0,0-0.1-0.4-0.2-0.9c-0.1-0.5-0.1-1.2-0.1-1.8c0-0.6-0.1-1.2-0.2-1.7c-0.1-0.2-0.1-0.4-0.2-0.6
			c-0.1-0.1-0.1-0.2-0.1-0.2s0.1,0,0.2,0.1c0.1,0.1,0.3,0.2,0.5,0.4c0.2,0.2,0.4,0.5,0.5,0.8c0.1,0.3,0.2,0.7,0.2,1.1
			c0,0.7-0.1,1.4-0.3,1.9C90.9,208.6,90.7,208.9,90.7,208.9z"/>
	</g>
	<path class="st6" d="M84.6,201.4c0,0,10,2.5,15.7,8.5"/>
</g>
<g>
	<path class="st4" d="M204.5,220.4c2.3-3.1,7.6-3,11.8,0.2s5.8,8.3,3.5,11.3"/>
	<path class="st4" d="M219.8,232c-2.9,2.8-8.1,2.9-12.4-0.6c-4.3-3.5-4.8-9-2.5-12"/>
	
		<ellipse transform="matrix(0.6032 -0.7976 0.7976 0.6032 -95.2711 259.1051)" class="st8" cx="212.8" cy="225.3" rx="6.7" ry="9.8"/>
	<g>
		<path class="st6" d="M214.8,226.3c0,0,0.3-0.1,0.8-0.2c0.5-0.1,1.1-0.1,1.6-0.2c0.6,0,1.1-0.1,1.5-0.2c0.2-0.1,0.4-0.1,0.5-0.2
			c0.1,0,0.2-0.1,0.2-0.1s0,0.1-0.1,0.2c-0.1,0.1-0.2,0.3-0.4,0.5c-0.2,0.2-0.4,0.4-0.8,0.5c-0.3,0.1-0.6,0.2-1,0.2
			c-0.7,0-1.3-0.1-1.8-0.3C215.1,226.4,214.8,226.3,214.8,226.3z"/>
	</g>
	<g>
		<path class="st6" d="M209.9,222.2c0,0,0.2-0.1,0.6-0.2c0.3-0.1,0.8-0.2,1.2-0.2c0.4,0,0.8,0,1.1-0.1c0.3,0,0.6-0.1,0.6-0.1
			s0,0.3-0.3,0.6c-0.1,0.2-0.3,0.3-0.5,0.4c-0.2,0.1-0.5,0.2-0.7,0.2c-0.5,0-1-0.1-1.3-0.2C210.2,222.4,209.9,222.2,209.9,222.2z"/>
	</g>
	<g>
		<path class="st6" d="M213.8,225.7c0,0,0.2,0.1,0.5,0.4c0.2,0.3,0.5,0.7,0.6,1.2c0,0.2,0.1,0.5,0,0.8c0,0.2-0.1,0.5-0.2,0.6
			c-0.2,0.3-0.5,0.4-0.5,0.4s0-0.3-0.1-0.6c0-0.3-0.1-0.7-0.2-1c-0.1-0.4-0.2-0.8-0.2-1.2C213.7,225.9,213.8,225.7,213.8,225.7z"/>
	</g>
	<g>
		<path class="st6" d="M210.7,227.8c0,0-0.1-0.3-0.1-0.8c0-0.5,0.1-1.1,0.1-1.6c0.1-0.6,0.1-1.1,0.1-1.5c0-0.2,0-0.4-0.1-0.6
			c0-0.1,0-0.2,0-0.2s0.1,0,0.2,0.1c0.1,0.1,0.3,0.2,0.4,0.5c0.2,0.2,0.3,0.5,0.3,0.8c0.1,0.3,0.1,0.7,0,1c-0.1,0.7-0.3,1.3-0.6,1.7
			C211,227.6,210.7,227.8,210.7,227.8z"/>
	</g>
	<path class="st6" d="M206.4,220c0,0,8.6,3.9,12.8,10.3"/>
</g>
<g>
	<path class="st4" d="M254.6,224.1c-1.3-3.6,1.7-8,6.7-9.8c5-1.8,10.1-0.3,11.4,3.3"/>
	<path class="st4" d="M272.7,217.7c0.7,4-2,8.4-7.3,10c-5.3,1.7-10.1-0.9-11.4-4.6"/>
	
		<ellipse transform="matrix(0.9426 -0.3339 0.3339 0.9426 -58.2938 100.5142)" class="st8" cx="263.3" cy="219.8" rx="9.8" ry="6.7"/>
	<g>
		<path class="st6" d="M265.2,218.7c0,0,0.1-0.3,0.3-0.8c0.2-0.4,0.5-1,0.8-1.5c0.3-0.5,0.5-1,0.6-1.4c0.1-0.2,0.1-0.4,0.2-0.5
			c0-0.1,0.1-0.2,0.1-0.2s0.1,0.1,0.1,0.2c0.1,0.1,0.2,0.3,0.2,0.6c0.1,0.3,0.1,0.6,0,0.9c-0.1,0.3-0.2,0.6-0.3,0.9
			c-0.3,0.6-0.8,1-1.2,1.3C265.5,218.6,265.2,218.7,265.2,218.7z"/>
	</g>
	<g>
		<path class="st6" d="M259.1,220.5c0,0,0-0.3,0.1-0.6c0.1-0.3,0.3-0.7,0.5-1.1c0.2-0.3,0.4-0.7,0.5-0.9c0.1-0.3,0.2-0.5,0.2-0.5
			s0.2,0.2,0.3,0.6c0.1,0.2,0.1,0.4,0,0.7c0,0.2-0.1,0.5-0.2,0.7c-0.3,0.4-0.6,0.8-0.9,0.9C259.4,220.4,259.1,220.5,259.1,220.5z"/>
	</g>
	<g>
		<path class="st6" d="M264.1,219.2c0,0,0.3-0.1,0.6-0.2c0.4-0.1,0.8,0,1.3,0.1c0.2,0.1,0.5,0.2,0.6,0.4c0.2,0.2,0.3,0.4,0.4,0.5
			c0.2,0.4,0.1,0.7,0.1,0.7s-0.3-0.1-0.5-0.3c-0.3-0.1-0.6-0.3-1-0.4c-0.4-0.1-0.8-0.3-1.1-0.5C264.3,219.4,264.1,219.2,264.1,219.2
			z"/>
	</g>
	<g>
		<path class="st6" d="M264.2,222.9c0,0-0.3-0.1-0.7-0.4c-0.4-0.3-0.9-0.7-1.3-1c-0.4-0.4-0.9-0.7-1.2-0.9c-0.2-0.1-0.4-0.2-0.5-0.3
			c-0.1-0.1-0.2-0.1-0.2-0.1s0.1,0,0.2-0.1c0.1-0.1,0.4-0.1,0.6-0.1c0.3,0,0.6,0.1,0.9,0.2c0.3,0.1,0.6,0.3,0.9,0.5
			c0.5,0.4,0.9,1,1.1,1.4C264.2,222.6,264.2,222.9,264.2,222.9z"/>
	</g>
	<path class="st6" d="M255.3,222.3c0,0,8-5.1,15.6-5"/>
</g>
<g>
	<path class="st4" d="M58,222.4c-3.1-2.7-2.6-8.5,1.2-12.8c3.8-4.3,9.4-5.6,12.6-2.9"/>
	<path class="st4" d="M71.8,206.6c2.8,3.4,2.6,9-1.5,13.4c-4.1,4.4-10.1,4.5-13.2,1.7"/>
	
		<ellipse transform="matrix(0.6578 -0.7532 0.7532 0.6578 -139.0638 121.3297)" class="st8" cx="64" cy="213.7" rx="10.7" ry="7.3"/>
	<g>
		<path class="st6" d="M65.2,211.6c0,0-0.1-0.4-0.2-0.9c0-0.5,0-1.2,0-1.8c0-0.6,0-1.2-0.1-1.7c-0.1-0.2-0.1-0.4-0.2-0.6
			c0-0.1-0.1-0.2-0.1-0.2s0.1,0,0.2,0.1c0.1,0.1,0.3,0.2,0.5,0.4c0.2,0.2,0.3,0.5,0.5,0.8c0.1,0.3,0.2,0.7,0.2,1.1
			c0,0.7-0.2,1.4-0.4,1.9C65.4,211.3,65.2,211.6,65.2,211.6z"/>
	</g>
	<g>
		<path class="st6" d="M60.5,216.6c0,0-0.1-0.3-0.2-0.6c-0.1-0.4-0.1-0.9-0.1-1.3c0-0.4,0-0.8,0-1.2c0-0.3-0.1-0.6-0.1-0.6
			s0.3,0.1,0.6,0.4c0.2,0.2,0.3,0.4,0.4,0.6c0.1,0.3,0.1,0.5,0.1,0.8c0,0.5-0.2,1-0.3,1.4C60.7,216.3,60.5,216.6,60.5,216.6z"/>
	</g>
	<g>
		<path class="st6" d="M64.5,212.7c0,0,0.2-0.2,0.5-0.5c0.3-0.2,0.8-0.5,1.3-0.6c0.3,0,0.6,0,0.8,0c0.3,0.1,0.5,0.2,0.7,0.3
			c0.4,0.2,0.5,0.5,0.5,0.5s-0.3,0-0.6,0c-0.3,0-0.7,0.1-1.2,0.1c-0.4,0.1-0.9,0.1-1.3,0.1C64.8,212.8,64.5,212.7,64.5,212.7z"/>
	</g>
	<g>
		<path class="st6" d="M66.6,216.1c0,0-0.4,0-0.9,0c-0.5-0.1-1.2-0.2-1.8-0.3c-0.6-0.1-1.2-0.2-1.7-0.2c-0.2,0-0.5,0-0.6,0
			c-0.2,0-0.2,0-0.2,0s0.1-0.1,0.2-0.2c0.1-0.1,0.3-0.3,0.5-0.4c0.2-0.1,0.6-0.2,0.9-0.3c0.4,0,0.7,0,1.1,0c0.7,0.1,1.3,0.5,1.8,0.7
			C66.3,215.9,66.6,216.1,66.6,216.1z"/>
	</g>
	<path class="st6" d="M57.8,220.3c0,0,4.9-9,12.1-13.1"/>
</g>
<g>
	<path class="st4" d="M154.9,183.8c-0.9-3.5,2.4-7.4,7.2-8.6c4.9-1.2,9.5,0.7,10.4,4.2"/>
	<path class="st4" d="M172.6,179.4c0.3,3.8-2.7,7.7-7.8,8.8c-5.1,1.1-9.4-1.8-10.3-5.4"/>
	
		<ellipse transform="matrix(0.9709 -0.2394 0.2394 0.9709 -38.4868 44.4043)" class="st9" cx="163.5" cy="180.6" rx="9.3" ry="6.4"/>
	<g>
		<path class="st6" d="M165.4,179.7c0,0,0.1-0.3,0.3-0.7c0.2-0.4,0.5-0.9,0.8-1.3c0.3-0.4,0.6-0.9,0.7-1.2c0.1-0.2,0.2-0.4,0.2-0.5
			c0-0.1,0.1-0.2,0.1-0.2s0,0.1,0.1,0.2c0.1,0.1,0.1,0.3,0.2,0.6c0,0.3,0,0.5-0.1,0.9c-0.1,0.3-0.2,0.6-0.4,0.9
			c-0.4,0.5-0.9,0.9-1.3,1.1C165.7,179.6,165.4,179.7,165.4,179.7z"/>
	</g>
	<g>
		<path class="st6" d="M159.6,180.9c0,0,0-0.3,0.2-0.6c0.1-0.3,0.3-0.7,0.6-1c0.2-0.3,0.4-0.6,0.6-0.8c0.2-0.3,0.3-0.5,0.3-0.5
			s0.2,0.2,0.3,0.6c0,0.2,0,0.4,0,0.7c-0.1,0.2-0.2,0.5-0.3,0.7c-0.3,0.4-0.7,0.7-1,0.8C159.8,180.8,159.6,180.9,159.6,180.9z"/>
	</g>
	<g>
		<path class="st6" d="M164.4,180.1c0,0,0.3-0.1,0.6-0.1c0.3,0,0.8,0,1.2,0.2c0.2,0.1,0.4,0.3,0.6,0.4c0.2,0.2,0.3,0.4,0.3,0.6
			c0.1,0.4,0,0.6,0,0.6s-0.2-0.1-0.5-0.3c-0.3-0.1-0.6-0.3-0.9-0.4c-0.3-0.2-0.7-0.4-1-0.6C164.5,180.3,164.4,180.1,164.4,180.1z"/>
	</g>
	<g>
		<path class="st6" d="M164.2,183.6c0,0-0.3-0.1-0.7-0.4c-0.4-0.3-0.8-0.7-1.1-1.1c-0.4-0.4-0.7-0.7-1.1-1c-0.2-0.1-0.3-0.2-0.4-0.3
			c-0.1-0.1-0.2-0.1-0.2-0.1s0.1,0,0.2-0.1c0.1,0,0.3-0.1,0.6-0.1c0.3,0,0.5,0.1,0.8,0.2c0.3,0.1,0.5,0.4,0.8,0.6
			c0.4,0.5,0.7,1,0.9,1.4C164.1,183.3,164.2,183.6,164.2,183.6z"/>
	</g>
	<path class="st6" d="M155.8,182.2c0,0,8-4,15.2-3.3"/>
</g>
<g>
	<path class="st4" d="M164.9,196.3c-0.7-3.6,2.8-7.2,7.7-8.2c4.9-0.9,9.5,1.2,10.2,4.8"/>
	<path class="st4" d="M182.8,192.9c0.1,3.8-3.1,7.5-8.2,8.4c-5.2,0.8-9.3-2.3-10-5.9"/>
	
		<ellipse transform="matrix(0.9822 -0.1881 0.1881 0.9822 -33.3139 36.1188)" class="st9" cx="173.7" cy="193.6" rx="9.3" ry="6.4"/>
	<g>
		<path class="st6" d="M175.6,192.8c0,0,0.1-0.3,0.3-0.7c0.2-0.4,0.6-0.8,0.9-1.3c0.3-0.4,0.6-0.8,0.8-1.2c0.1-0.2,0.2-0.3,0.2-0.5
			c0.1-0.1,0.1-0.2,0.1-0.2s0,0.1,0.1,0.2c0.1,0.1,0.1,0.3,0.1,0.6c0,0.3,0,0.5-0.1,0.8c-0.1,0.3-0.3,0.6-0.5,0.8
			c-0.4,0.5-0.9,0.9-1.3,1.1C175.9,192.7,175.6,192.8,175.6,192.8z"/>
	</g>
	<g>
		<path class="st6" d="M169.7,193.6c0,0,0-0.3,0.2-0.6c0.1-0.3,0.4-0.6,0.6-0.9c0.2-0.3,0.4-0.5,0.6-0.8c0.2-0.3,0.3-0.5,0.3-0.5
			s0.2,0.2,0.3,0.6c0,0.2,0,0.4-0.1,0.7c-0.1,0.2-0.2,0.4-0.3,0.6c-0.3,0.4-0.7,0.6-1,0.8C170,193.6,169.7,193.6,169.7,193.6z"/>
	</g>
	<g>
		<path class="st6" d="M174.5,193.1c0,0,0.3-0.1,0.6-0.1c0.3,0,0.8,0.1,1.2,0.3c0.2,0.1,0.4,0.3,0.6,0.5c0.1,0.2,0.3,0.4,0.3,0.6
			c0.1,0.4,0,0.6,0,0.6s-0.2-0.1-0.5-0.3c-0.3-0.2-0.6-0.3-0.9-0.5c-0.3-0.2-0.7-0.4-0.9-0.6C174.7,193.4,174.5,193.1,174.5,193.1z"
			/>
	</g>
	<g>
		<path class="st6" d="M174.1,196.6c0,0-0.3-0.2-0.6-0.5c-0.3-0.3-0.7-0.7-1.1-1.1c-0.3-0.4-0.7-0.8-1-1c-0.2-0.1-0.3-0.2-0.4-0.3
			c-0.1-0.1-0.2-0.1-0.2-0.1s0.1,0,0.2-0.1c0.1,0,0.4-0.1,0.6,0c0.3,0,0.5,0.1,0.8,0.3c0.3,0.2,0.5,0.4,0.7,0.6
			c0.4,0.5,0.7,1.1,0.8,1.5C174.1,196.3,174.1,196.6,174.1,196.6z"/>
	</g>
	<path class="st6" d="M165.9,194.8c0,0,8.2-3.6,15.3-2.4"/>
</g>
<g>
	<path class="st4" d="M171.1,185.7c-0.7-3.6,2.8-7.2,7.7-8.2c4.9-0.9,9.5,1.2,10.2,4.8"/>
	<path class="st4" d="M188.9,182.3c0.1,3.8-3.1,7.5-8.2,8.4c-5.2,0.8-9.3-2.3-10-5.9"/>
	<ellipse transform="matrix(0.9822 -0.1881 0.1881 0.9822 -31.2096 37.0831)" class="st9" cx="179.8" cy="183" rx="9.3" ry="6.4"/>
	<g>
		<path class="st6" d="M181.7,182.2c0,0,0.1-0.3,0.3-0.7c0.2-0.4,0.6-0.8,0.9-1.3c0.3-0.4,0.6-0.8,0.8-1.2c0.1-0.2,0.2-0.3,0.2-0.5
			c0.1-0.1,0.1-0.2,0.1-0.2s0,0.1,0.1,0.2c0.1,0.1,0.1,0.3,0.1,0.6c0,0.3,0,0.5-0.1,0.8c-0.1,0.3-0.3,0.6-0.5,0.8
			c-0.4,0.5-0.9,0.9-1.3,1.1C182.1,182.1,181.7,182.2,181.7,182.2z"/>
	</g>
	<g>
		<path class="st6" d="M175.8,183c0,0,0-0.3,0.2-0.6c0.1-0.3,0.4-0.6,0.6-0.9c0.2-0.3,0.4-0.5,0.6-0.8c0.2-0.3,0.3-0.5,0.3-0.5
			s0.2,0.2,0.3,0.6c0,0.2,0,0.4-0.1,0.7c-0.1,0.2-0.2,0.4-0.3,0.6c-0.3,0.4-0.7,0.6-1,0.8C176.1,183,175.8,183,175.8,183z"/>
	</g>
	<g>
		<path class="st6" d="M180.7,182.5c0,0,0.3-0.1,0.6-0.1c0.3,0,0.8,0.1,1.2,0.3c0.2,0.1,0.4,0.3,0.6,0.5c0.1,0.2,0.3,0.4,0.3,0.6
			c0.1,0.4,0,0.6,0,0.6s-0.2-0.1-0.5-0.3c-0.3-0.2-0.6-0.3-0.9-0.5c-0.3-0.2-0.7-0.4-0.9-0.6C180.8,182.8,180.7,182.5,180.7,182.5z"
			/>
	</g>
	<g>
		<path class="st6" d="M180.3,186c0,0-0.3-0.2-0.6-0.5c-0.3-0.3-0.7-0.7-1.1-1.1c-0.3-0.4-0.7-0.8-1-1c-0.2-0.1-0.3-0.2-0.4-0.3
			C177,183,177,183,177,183s0.1,0,0.2-0.1c0.1,0,0.4-0.1,0.6,0c0.3,0,0.5,0.1,0.8,0.3c0.3,0.2,0.5,0.4,0.7,0.6
			c0.4,0.5,0.7,1.1,0.8,1.5C180.3,185.7,180.3,186,180.3,186z"/>
	</g>
	<path class="st6" d="M172,184.1c0,0,8.2-3.6,15.3-2.4"/>
</g>
<g>
	<path class="st4" d="M182.6,223.7c0.6-3.6,5.1-5.9,10-5.1s8.5,4.4,7.9,7.9"/>
	<path class="st4" d="M200.6,226.5c-1.2,3.6-5.5,6-10.6,5c-5.2-1-8-5.4-7.4-9"/>
	
		<ellipse transform="matrix(0.1593 -0.9872 0.9872 0.1593 -60.0061 377.7081)" class="st9" cx="191.8" cy="224.1" rx="6.4" ry="9.3"/>
	<g>
		<path class="st6" d="M193.9,224c0,0,0.2-0.3,0.6-0.6c0.4-0.3,0.8-0.6,1.3-0.9c0.5-0.3,0.9-0.6,1.2-0.8c0.2-0.1,0.3-0.3,0.4-0.4
			c0.1-0.1,0.2-0.2,0.2-0.2s0,0.1,0,0.2c0,0.1,0,0.4-0.1,0.6c-0.1,0.2-0.2,0.5-0.4,0.8c-0.2,0.2-0.5,0.5-0.7,0.6
			c-0.5,0.3-1.1,0.5-1.6,0.6C194.2,224,193.9,224,193.9,224z"/>
	</g>
	<g>
		<path class="st6" d="M188,222.8c0,0,0.1-0.2,0.4-0.5c0.2-0.2,0.6-0.5,0.9-0.7c0.3-0.2,0.6-0.4,0.9-0.5c0.3-0.2,0.5-0.3,0.5-0.3
			s0.1,0.3,0,0.6c0,0.2-0.1,0.4-0.3,0.6c-0.1,0.2-0.3,0.4-0.5,0.5c-0.4,0.3-0.9,0.4-1.2,0.4C188.3,222.8,188,222.8,188,222.8z"/>
	</g>
	<g>
		<path class="st6" d="M192.8,224c0,0,0.3,0,0.6,0.1c0.3,0.1,0.7,0.3,1,0.7c0.1,0.2,0.3,0.4,0.4,0.6c0.1,0.2,0.1,0.5,0.1,0.6
			c0,0.4-0.2,0.6-0.2,0.6s-0.1-0.2-0.3-0.5c-0.2-0.2-0.4-0.5-0.7-0.8c-0.2-0.3-0.5-0.6-0.6-0.9C192.8,224.2,192.8,224,192.8,224z"/>
	</g>
	<g>
		<path class="st6" d="M191.2,227.1c0,0-0.2-0.3-0.4-0.7c-0.2-0.4-0.4-0.9-0.6-1.4c-0.2-0.5-0.4-1-0.6-1.3c-0.1-0.2-0.2-0.3-0.3-0.4
			c-0.1-0.1-0.1-0.2-0.1-0.2s0.1,0,0.2,0c0.1,0,0.3,0.1,0.6,0.2c0.2,0.1,0.5,0.3,0.7,0.5c0.2,0.2,0.4,0.5,0.5,0.8
			c0.2,0.6,0.3,1.2,0.2,1.7C191.3,226.8,191.2,227.1,191.2,227.1z"/>
	</g>
	<path class="st6" d="M184.1,222.5c0,0,8.9-0.6,15.3,2.9"/>
</g>
<g>
	<path class="st4" d="M264.6,228.2c0.6-3.6,5.1-5.9,10-5.1s8.5,4.4,7.9,7.9"/>
	<path class="st4" d="M282.6,231c-1.2,3.6-5.5,6-10.6,5c-5.2-1-8-5.4-7.4-9"/>
	<ellipse transform="matrix(0.1593 -0.9872 0.9872 0.1593 4.4893 462.4443)" class="st9" cx="273.8" cy="228.6" rx="6.4" ry="9.3"/>
	<g>
		<path class="st6" d="M275.9,228.5c0,0,0.2-0.3,0.6-0.6c0.4-0.3,0.8-0.6,1.3-0.9c0.5-0.3,0.9-0.6,1.2-0.8c0.2-0.1,0.3-0.3,0.4-0.4
			c0.1-0.1,0.2-0.2,0.2-0.2s0,0.1,0,0.2c0,0.1,0,0.4-0.1,0.6c-0.1,0.2-0.2,0.5-0.4,0.8c-0.2,0.2-0.5,0.5-0.7,0.6
			c-0.5,0.3-1.1,0.5-1.6,0.6C276.2,228.5,275.9,228.5,275.9,228.5z"/>
	</g>
	<g>
		<path class="st6" d="M270,227.3c0,0,0.1-0.2,0.4-0.5c0.2-0.2,0.6-0.5,0.9-0.7c0.3-0.2,0.6-0.4,0.9-0.5c0.3-0.2,0.5-0.3,0.5-0.3
			s0.1,0.3,0,0.6c0,0.2-0.1,0.4-0.3,0.6c-0.1,0.2-0.3,0.4-0.5,0.5c-0.4,0.3-0.9,0.4-1.2,0.4C270.3,227.3,270,227.3,270,227.3z"/>
	</g>
	<g>
		<path class="st6" d="M274.8,228.5c0,0,0.3,0,0.6,0.1c0.3,0.1,0.7,0.3,1,0.7c0.1,0.2,0.3,0.4,0.4,0.6c0.1,0.2,0.1,0.5,0.1,0.6
			c0,0.4-0.2,0.6-0.2,0.6s-0.1-0.2-0.3-0.5c-0.2-0.2-0.4-0.5-0.7-0.8c-0.2-0.3-0.5-0.6-0.6-0.9C274.8,228.7,274.8,228.5,274.8,228.5
			z"/>
	</g>
	<g>
		<path class="st6" d="M273.2,231.6c0,0-0.2-0.3-0.4-0.7c-0.2-0.4-0.4-0.9-0.6-1.4c-0.2-0.5-0.4-1-0.6-1.3c-0.1-0.2-0.2-0.3-0.3-0.4
			c-0.1-0.1-0.1-0.2-0.1-0.2s0.1,0,0.2,0c0.1,0,0.3,0.1,0.6,0.2c0.2,0.1,0.5,0.3,0.7,0.5c0.2,0.2,0.4,0.5,0.5,0.8
			c0.2,0.6,0.3,1.2,0.2,1.7C273.3,231.3,273.2,231.6,273.2,231.6z"/>
	</g>
	<path class="st6" d="M266.1,227c0,0,8.9-0.6,15.3,2.9"/>
</g>
<g>
	<path class="st4" d="M154.1,200.5c-2.7-2.4-2.3-7.4,1-11.2c3.3-3.8,8.2-4.9,10.9-2.5"/>
	<path class="st4" d="M166,186.8c2.4,3,2.2,7.8-1.3,11.7c-3.6,3.8-8.8,3.9-11.5,1.5"/>
	<ellipse transform="matrix(0.6578 -0.7532 0.7532 0.6578 -90.8639 185.9985)" class="st9" cx="159.3" cy="193" rx="9.3" ry="6.4"/>
	<g>
		<path class="st6" d="M160.3,191.2c0,0-0.1-0.3-0.2-0.8c-0.1-0.5-0.1-1-0.1-1.6c0-0.5,0-1-0.1-1.4c0-0.2-0.1-0.4-0.1-0.5
			c0-0.1-0.1-0.2-0.1-0.2s0.1,0,0.2,0.1c0.1,0.1,0.3,0.2,0.5,0.4c0.2,0.2,0.3,0.4,0.4,0.7c0.1,0.3,0.1,0.6,0.2,0.9
			c0,0.6-0.2,1.2-0.4,1.7C160.5,190.9,160.3,191.2,160.3,191.2z"/>
	</g>
	<g>
		<path class="st6" d="M156.2,195.5c0,0-0.1-0.2-0.2-0.6c-0.1-0.3-0.1-0.7-0.1-1.1c0-0.4,0-0.7,0-1c0-0.3,0-0.6,0-0.6s0.3,0,0.6,0.3
			c0.1,0.1,0.3,0.3,0.4,0.5c0.1,0.2,0.1,0.5,0.1,0.7c0,0.5-0.2,0.9-0.3,1.2C156.4,195.3,156.2,195.5,156.2,195.5z"/>
	</g>
	<g>
		<path class="st6" d="M159.7,192.1c0,0,0.2-0.2,0.4-0.4c0.3-0.2,0.7-0.4,1.1-0.5c0.2,0,0.5,0,0.7,0c0.2,0.1,0.4,0.1,0.6,0.3
			c0.3,0.2,0.4,0.5,0.4,0.5s-0.2,0-0.6,0c-0.3,0-0.6,0.1-1,0.2c-0.4,0.1-0.8,0.1-1.1,0.1C159.9,192.2,159.7,192.1,159.7,192.1z"/>
	</g>
	<g>
		<path class="st6" d="M161.5,195.1c0,0-0.3,0.1-0.8,0c-0.5,0-1-0.1-1.5-0.2c-0.5-0.1-1-0.2-1.4-0.2c-0.2,0-0.4,0-0.5,0
			c-0.1,0-0.2,0-0.2,0s0-0.1,0.1-0.2c0.1-0.1,0.2-0.3,0.5-0.4c0.2-0.1,0.5-0.2,0.8-0.3c0.3,0,0.6,0,1,0c0.6,0.1,1.2,0.4,1.6,0.7
			C161.3,194.9,161.5,195.1,161.5,195.1z"/>
	</g>
	<path class="st6" d="M153.9,198.7c0,0,4.2-7.9,10.6-11.4"/>
</g>
<path class="st3" d="M128.7,128.6l13.7,69.6c0,0,21.4,17.7,48.8,1.5l14.1-71C205.3,128.6,170,143.3,128.7,128.6z"/>
<path class="st3" d="M206.8,126.9c0,3.6-7.7,10.5-40.4,10.2c-33-0.3-38.9-7.1-38.9-10.6c0-3.6,17.4-6.5,38.9-6.5
	S206.8,123.3,206.8,126.9z"/>
</svg>
