<?xml version="1.0" encoding="utf-8"?>
<!-- Generator: Adobe Illustrator 20.0.0, SVG Export Plug-In . SVG Version: 6.00 Build 0)  -->
<svg version="1.1" id="Layer_1" xmlns="http://www.w3.org/2000/svg" xmlns:xlink="http://www.w3.org/1999/xlink" x="0px" y="0px"
	 viewBox="0 0 300 250" style="enable-background:new 0 0 300 250;" xml:space="preserve">
<style type="text/css">
	.st0{fill:#3A261E;}
	.st1{clip-path:url(#SVGID_2_);}
	.st2{fill:#49332A;}
	.st3{fill:#302019;}
	.st4{clip-path:url(#SVGID_2_);fill:none;stroke:#604433;stroke-miterlimit:10;}
	.st5{fill:none;stroke:#000000;stroke-width:5;stroke-miterlimit:10;}
	.st6{fill:#FFFFFF;}
</style>
<rect x="-0.1" class="st0" width="300" height="250"/>
<g>
	<defs>
		<rect id="SVGID_1_" x="0.3" y="157" width="301.2" height="92.4"/>
	</defs>
	<clipPath id="SVGID_2_">
		<use xlink:href="#SVGID_1_"  style="overflow:visible;"/>
	</clipPath>
	<g class="st1">
		<path class="st2" d="M301.3,185.6c0,0.6,0,1.2,0,1.9c-12.5,0-25,0-36.6,0c-0.2,0,0.5,0,1.1-0.1c0,0,0-0.1,0,0.2
			c-4.7,0-9.5,0-14.3,0c-2,0-4.1-0.4-6.1-0.4c-7,0-13.9,0-20.9,0.1c-6.4,0.1-12.8,0.2-19.1,0.4c-4.6,0.1-9.1,0.4-13.7,0.3
			c-5.5-0.1-10.9-0.6-16.4-0.7c-6.5-0.1-13,0.3-19.5,0.3c-15.8,0.1-31.5,0-47.3,0c0,0.1-0.1,0.3-0.1,0.4c7.3,0.4,15.4-0.7,22,1.5
			c-8.9,0-17.8,0-26.6,0c0,0.1,0,0.3,0,0.4c1.4,0,2.9,0.1,4.3,0.1c0,0.1,0,0.2,0,0.3c-3.4,0-6.9,0-10.3,0c0,0.1,0,0.3,0,0.4
			c2.1,0,4.3,0.1,6.4,0.1c8.7,0.1,17.5,0.1,26.2,0.1c11.7,0,23.5-0.1,35.2-0.2c2.4,0,4.7-0.2,7-0.2c8.2,0,16.3,0.2,24.5,0.1
			c8.2,0,16.3-0.2,24.5-0.2c14,0,28,0,42,0c2.9,0,5.8,0,8.7,0c3.5,0,7-0.1,10.6-0.1c6.1,0,12.2,0,18.4,0c0,1.1,0,2.3,0,3.4
			c-3.4,0.4-6.8,1-10.2,1c-6.9,0-13.9-0.3-20.8-0.4c-2.2-0.1-4.5-0.3-6.6-0.2c-7.8,0.3-15.4,1-23.2,1.1c-9.2,0.2-18.4,0-27.5-0.1
			c-4.8,0-9.5-0.3-14.2-0.4c0-0.1,0-0.2,0-0.3c0.7-0.1,1.4-0.2,2.6-0.4c-8.8,0-17,0-25.3,0c-0.2,0.1-0.3,0.2-0.5,0.3
			c0.6,0,1.3,0.1,1.9,0.1c-0.2,0.1-0.3,0.2-0.5,0.3c-10.2-0.2-20.4-0.4-30.6-0.7c0,0.2-0.1,0.4-0.1,0.6c4,0.2,8,0.3,12,0.5
			c3.9,0.2,7.8,0.3,11.8,0.5c0.8,0,1.6,0,2.4,0c3-0.1,6-0.3,8.9-0.3c2.9,0,5.8,0.3,8.7,0.3c8.4,0,16.8-0.2,25.2-0.3
			c0,0.1,0,0.2,0,0.2c-3,0.1-6,0.3-9.1,0.4c0,0.1,0.1,0.1,0.1,0.2c21.8,0,43.6,0,65.4,0c0,0.1,0,0.3,0,0.4c-4.7,0-9.4,0-14.2,0
			c0,0.1,0,0.1,0.1,0.2c7.2,0,14.5,0,21.7,0c0-0.1,0.1-0.3,0.1-0.4c-0.8-0.1-1.7-0.3-3.4-0.5c2.4-0.1,3.7-0.2,5.1-0.2
			c6.8,0.1,13.6,0.1,20.3,0.2c0,0.1,0,0.2,0,0.3c-6.3,0-12.7,0-19,0c0,0.2,0,0.5,0.1,0.7c6.3-0.1,12.6-0.3,18.9-0.4
			c0,0.2,0,0.4,0,0.6c-5.4,0.3-10.8,0.6-16.2,0.9c-1.6,0.1-3.3,0.1-4.9,0.1c0,0.1,0,0.2,0,0.3c7,0,14,0,21.1,0c0,0.2,0,0.4,0,0.6
			c-9,0-18,0-27,0c0-0.1-0.1-0.2-0.1-0.3c0.7-0.1,1.5-0.3,2.7-0.5c-12.4-0.2-24.3-0.4-36.2-0.5c0,0.1,0,0.2,0,0.4c2,0.1,4,0.2,6,0.2
			c0,0.1,0,0.1,0,0.2c-6.3-0.2-12.5-0.3-18.8-0.5c0,0.1,0,0.3,0,0.4c6.5,0.2,13,0.5,19.5,0.5c6.3,0,12.7-0.2,19.1-0.4
			c0,0.2,0.1,0.4,0.1,0.6c-3,0-6.1,0.1-9.1,0.1c-7.7,0-15.7,0.3-23.2-0.1c-7.3-0.4-14.8,1-21.9-0.5c-1.6-0.3-4-0.1-6-0.2
			c-11.6-0.8-22.8,0.3-34.1,1.1c17.9,0.2,35.8,0.5,53.8,0.7c0-0.1,0-0.2,0.1-0.2c-0.9-0.1-1.7-0.1-2.6-0.2c3.3-0.1,6.5,0.3,9.6,0.3
			c14.7,0.1,29.5,0.1,44.2,0.1c2.6,0,2.8,0.1,3.2,1.1c-19.7,0-39.4,0-59.1,0c0.4,0.3,0.9,0.5,1.3,0.4c7.6-0.2,15,0.6,22.4,1
			c0.3,0,0.7,0.1,2.1,0.5c-2.8,0.2-4.5,0.3-6.3,0.5c-6.6,0.6-13.2-0.8-20.2,0.2c-4.6,0.6-10.2,0.2-15.3,0.2
			c-5.7,0-11.4-0.1-17.1-0.1c-0.8,0-1.6,0.4-3,0.9c-1.3,0-3.6,0-6.4,0c1.9-0.1,3.1-0.2,4.4-0.3c0-0.1-0.1-0.3-0.1-0.4
			c-11.5-0.2-23,1.3-34.6,0.3c0.5-0.3,0.8-0.6,0.9-0.7c-22.8,0.2-45.5,0.3-68.1,0.5c7.5,0.6,15.2,0,22.5,1.2c-2,0-4.1-0.1-6.1-0.1
			c0.2,0.2,0.3,0.3,0.5,0.5c-0.7,0.2-1.4,0.5-1.8,0.6c6.7,0,13.8,0,20.8,0c7.3,0,14.5,0,21.8,0c0,0.1,0,0.1,0,0.2
			c-0.5-0.1-1.1-0.1-1.6-0.2c0-0.1,0-0.2,0.1-0.2c4.4,0.1,8.8,0.2,13.2,0.4c0,0.2,0,0.4,0,0.6c-32.6,0.5-65.3,0.2-97.9,0.7
			c0,0.2,0,0.3,0.1,0.5c1.3,0,2.5,0,3.8,0c0,0.1,0,0.3,0,0.4c-8.4,0.4-16.7-0.7-25.1-0.5c0.9,0.1,1.8,0.1,2.8,0.2
			c0,0.1-0.1,0.2-0.1,0.3c-8.6,0-17.2,0-25.8,0c0-0.2,0-0.3,0-0.5c4.9,0,9.9,0,14.8,0c0-0.2,0-0.3,0-0.5c-12.9,0-25.9,0-38.8,0
			c0,0,0,0,0,0.1c3.9,0,7.7,0,11.6,0c-12.7,1.6-25.4,0.5-37.9-0.1c5,0.6,9.8,1.4,14.8,1.5c11.9,0.3,23.9,0.4,35.9,0.4
			c19,0,38.1-0.1,57.1-0.1c5.4,0,10.9,0.2,16.3,0.1c9.3-0.1,18.5-0.5,27.8-0.6c12.9-0.2,25.7-0.3,38.6-0.4
			c9.9-0.1,19.8-0.2,29.6,0.1c6.9,0.2,14-0.4,20.6,0.8c0.7,0.1,1.8-0.1,3.4-0.3c-1.3-0.2-1.7-0.3-2.2-0.4c0.1-0.1,0.2-0.2,0.3-0.3
			c2.1,0.2,4.1,0.4,6.8,0.6c3.9-0.1,8.8-0.3,13.7-0.5c0,0.2,0.1,0.4,0.1,0.5c-3-0.1-6-0.2-9-0.3c4.7,0.6,9.5,0.9,14.3,1.1
			c4.8,0.2,9.7,0.2,14.6,0.2c4.6,0,9.3,0,13.9,0c0,0.2,0,0.3,0,0.5c-8.2,0-16.4,0-24.7,0c0,0.2,0,0.4,0,0.6c10,0,20-0.1,29.9,0
			c5.9,0.1,11.2-1,17.6-0.3c5.7,0.6,12.3,0.1,18.5,0.1c0,0.2,0,0.3,0,0.5c-11.1,0-22.1,0-33.2,0c0,0.1,0,0.3,0,0.4
			c1.1,0,2.2,0.1,4,0.1c-59.1-0.3-117.4-0.5-175.8-0.8c0-0.1,0-0.3,0-0.4c2-0.1,3.9-0.2,5.9-0.3c0-0.1,0-0.3-0.1-0.4
			c-25.6,0.3-51.2,0.7-76.8,1c0,0.1,0,0.2,0,0.4c10.8,0,21.6,0,32.4,0c0,0.1,0,0.3,0,0.4c-7.1,0.2-14.3,0.4-21.4,0.6
			c0,0.1,0.1,0.2,0.1,0.3c8.7,0.2,17.4,0.4,26,0.6c0,0.1,0,0.2,0,0.3c-8.2,0-16.4,0-24.6,0c-8.2,0-16.4,0-24.6,0c0,0.2,0,0.4,0,0.7
			c2.7,0,5.3,0,8,0c17.8-0.2,35.5,0.7,53.3,0.6c9-0.1,18.1-0.2,27.1-0.1c9.4,0.1,18.8,0.4,28.1,0.6c4.2,0.1,8.4-0.1,12.7-0.1
			c0.5,0,1.3-0.1,1.6,0c4.9,1.6,8.8-0.5,13.3-0.2c0-0.2,0-0.4,0-0.7c-8.9,0-17.7,0-26.6,0c0-0.2,0-0.3,0-0.5
			c2.6-0.2,5.1-0.5,7.7-0.6c15.6-0.2,31.1-0.3,46.7-0.4c3.3,0,6.7,0.2,10,0.3c4.7,0.2,9.3,0.8,14-0.1c1-0.2,2.5-0.1,3.7,0
			c1.3,0.1,2.5,0.4,3.7,0.4c1.7,0,3.4-0.3,5.1-0.3c9.1,0,18.2,0.1,27.3,0.1c13,0,26.1-0.2,39.1-0.3c0.3,0,0.6-0.1,1.1-0.2
			c-1.3-0.2-2.2-0.4-4-0.7c7.7,0,14.6,0,21.4,0c0,1.7,0,3.5,0,5.2c-2.9,0-5.8-0.1-8.7-0.1c-9.6-0.1-19.1-0.3-28.7-0.3
			c-7.2,0-14.3,0.2-21.5,0.1c-10.8-0.1-21.6-0.5-32.3-0.3c-11.4,0.2-22.8-0.5-34.1,0.5c-4.7,0.4-9.9,0.1-14.9,0.1
			c-21.3,0-42.5,0-63.8,0c-11.3,0-22.5-0.1-33.8-0.1c-14.6,0-29.2,0-43.8,0.2c-12.5,0.1-25-0.7-37.4,0.5c-1.3,0.1-2.8,0-4.1,0
			c0-0.1,0-0.3,0-0.4c1.6-0.1,3.2-0.1,4.8-0.2c0-0.1-0.1-0.2-0.1-0.3c-26.4,0.4-52.8,0.7-79.1,1.1c0.9,0.2,2,0.4,4.1,0.8
			c-4.2,0-7.1,0-10.1,0c0,0.1,0,0.2,0,0.3c4.5,0.3,9.1,0.6,14.4,0.9c-1.7,0.2-2.7,0.4-3.7,0.5c5.5,0.1,11.1,0.2,16.6,0.3
			c0,0.1,0,0.2-0.1,0.3c-1.4,0.1-2.7,0.1-4.1,0.2c0,0.2,0,0.3,0,0.5c7.8,0.1,15.7,0.2,23.5,0.4c1.8,0,3.5,0.2,5.3,0.2
			c-2.9,0.2-5.4,0.2-8,0.2c-8.9,0.1-17.7,0.2-26.6,0.2c-11-0.1-21.9-0.4-32.9-0.5c-1,0-2.1,0.2-3.1,0.3c-1.2,0.1-2.3,0.3-3.5,0.4
			c-0.1,0-0.3,0-0.3-0.1c0.5-0.1,1-0.2,1.4-0.3c-0.1-0.1-0.2-0.3-0.3-0.4c-2.2,0.2-4.5,0.4-6.7,0.5c-1.6,0.1-3.2,0.3-4.7,0.2
			c-3.1-0.1-6.2-0.4-9.3-0.4c-5.1-0.1-10.1,0-15.2,0c8.8-0.5,17.7-0.8,26.5-0.9c8.6-0.1,17.1-0.7,25.9-0.7c-2.5-0.4-5-0.6-7.5-0.7
			c-1.9-0.1-4.9,0.1-5.5-0.3c-1.4-0.8-3-0.5-4.6-0.5c-11.3,0.1-22.5,0.1-33.8,0.2c-2.9,0-5.9,0-8.8,0c0,0.1,0.1,0.2,0.1,0.4
			c1.4,0.1,2.9,0.3,4.3,0.4c-0.1,0.2-0.2,0.3-0.3,0.5c-1.8-0.1-4.5,0-5.4-0.4c-2.3-1.1-5.2-0.9-8.2-0.9c-2.9,0-5.9-0.2-8.8-0.3
			c0-0.1,0-0.2,0-0.3c8.6-0.2,17.1-0.3,25.7-0.5c0-0.1,0-0.2-0.1-0.4c-10.9,0-21.8,0-32.7,0c0,0,0,0.1,0,0.1
			c0.7,0.1,1.5,0.1,2.2,0.2c0,0,0,0.1-0.1,0.1c-2.8,0-5.5,0-8.3,0c0.7-0.5,1.7-0.8,2.8-0.8c6.5-0.1,13-0.2,19.6-0.4
			c1.3,0,2.6-0.2,4-0.2c-0.1-0.2-0.1-0.3-0.2-0.5c-9,0-18,0-27.1,0c0-0.8,0-1.3,0-2.1c59.7-0.2,119.3-0.4,178.8-0.6
			c0-0.2,0-0.3,0-0.5c-5.9,0-11.8,0-17.8,0c-12.4,0-24.8,0.1-37.2,0.1c-13.1-0.1-26.1-0.3-39.2-0.4c-3.5,0-7-0.1-10.5-0.2
			c-1-0.1-1.9-0.6-2.8-0.9l0,0c12.3,0.2,24.7,0.5,37,0.5c14.3,0,28.6-0.1,42.9-0.3c8.4-0.1,16.8-0.5,25.2-0.6
			c9.7-0.1,19.5-0.1,29.2,0c1.6,0,3.1,0.5,4.9,0.8c1.8-0.3,4.1-0.8,7.6-1.4c-23.4,0-45.7,0-68,0c0,0,0,0.1,0,0.1
			c0.9,0.1,1.7,0.1,2.6,0.2c0,0.1,0,0.1,0,0.2c-8.6,0-17.2,0-26,0c0.7-0.2,1.2-0.4,2.4-0.8c-8.7,0-16.5,0-24.2,0
			c0-0.2,0-0.3-0.1-0.5c1.3-0.1,2.6-0.1,3.9-0.1c3.5,0,7,0.1,10.4-0.1c4.2-0.3,8-0.6,12.6-0.4c8.9,0.4,18,0.1,26.6,0.1
			c-7.8-0.1-16-0.3-24.2-0.4c0-0.1,0-0.2,0-0.4c10.6,0,21.3,0,31.9,0c0-0.2,0-0.4,0-0.6c-6,0.9-11.6-0.2-17.6-0.2
			c-17.4,0.1-34.7-0.1-52.1-0.1c-0.4,0-0.8,0.1-1.2,0.1c-2.6,0.2-5.2,0.4-7.8,0.5c-1.9,0.1-3.9,0.1-5.7,0.2c1.2,1.4,3.4,1.2,6,0.9
			c0.6-0.1,1.8,0.3,2.7,0.5c-0.9,0.3-1.5,0.3-2,0.3c-8.4,0-16.5-0.9-25.1-0.9c-13,0.1-26.2,0.4-39.3-0.1c-5.8-0.2-11.7,0-17.5-0.1
			c-2.2,0-4.4-0.4-6.6-0.6c2.2-0.4,4.5-1.1,6.6-1.1c13.7,0.4,27.5-0.9,41.3,0.1c4.7,0.4,9.9-0.2,14.9-0.2c12.4,0,24.8,0,37.1,0
			c0-0.2,0-0.5,0.1-0.7c-10.9-0.7-22,0-32.9-0.1c-11.1-0.1-22.2-0.1-33.3-0.1c-11.2,0-22.4,0-33.4,0c-1.1-2.2,3-1.7,5.2-1.7
			c14.2,0.2,28.3,0.6,42.5,0.7c15.2,0.2,30.3,0.2,45.5,0.3c3.9,0,7.8,0,12.5,0c-1.9-0.4-3.5-0.5-3.8-0.7c-1.2-1.2-3.8-1.3-6.5-1.3
			c-9.6,0-19.2-0.1-28.7,0c-9.3,0-18.6,0.2-27.9,0.2c-12,0-23.9-0.2-35.9-0.3c-1.1,0-2.1-0.4-3.2-0.6c1-0.2,2-0.6,2.9-0.6
			c11.2-0.1,22.5-0.1,33.7-0.2c2.7,0,5.5-0.2,8.2-0.2c-3.5-0.3-6.9-0.5-10.4-0.5c-10.1,0-20.3,0.1-30.4,0.3c-2.8,0-4.7-0.1-4.1-1.4
			c0.4-1-0.8-2.2,4.3-2c3.8,0.1,8,0.4,11.5-0.7c0.5-0.2,1.6-0.1,2.4-0.1c8.8,0.2,17.6,0.4,26.5,0.5c10.4,0.1,20.8,0,32.6,0
			c-1.4,0.3-1.9,0.4-2.3,0.5c2.7,0,5.2-0.3,7.8-0.5c1.1-0.1,2.4-0.1,3.4,0c1.8,0.3,3.3,0.8,5,1.1c0.3-0.2,0.7-0.3,1-0.5
			c-1-0.4-1.8-1-2.9-1.1c-2.8-0.2-5.8-0.3-8.7-0.3c-5,0-10.1,0-15.1,0c0,0,0,0,0-0.1c2.1,0,4.1-0.1,6.2-0.1c0-0.1,0-0.3,0-0.4
			c-20.2,0-40.4,0-60.5,0c0-0.1,0-0.2,0-0.3c5.3-0.2,10.7-0.4,16-0.6c0-0.1,0-0.2,0-0.4c-8.9,0-17.8,0-26.6,0c0-1,0-1.6,0-2.3
			c7,0,13.8,0,21.5,0c-2.4-0.3-3.9-0.5-5.3-0.7c0.1-0.1,0.1-0.2,0.2-0.2c2.4,0.1,4.7,0.1,7.1,0.2c0-0.2,0.1-0.4,0.1-0.5
			c-7.9-0.2-15.8-0.4-23.7-0.6c0-0.2,0-0.3,0-0.5c1.4,0,2.9-0.1,4.3-0.1c1.3-0.1,2.7-0.2,4-0.2c0-0.1-0.1-0.1-0.1-0.2
			c-2.7-0.1-5.4-0.2-8.2-0.2c0-2.7,0-5.2,0-7.9c2.4,0,4.5,0,6.6,0c11.8,0.3,23.5,0.7,35.3,0.9c13.1,0.2,26.1,0.2,39.2,0.2
			c5.1,0,5.1-0.1,8.2-1.5c-29.6-0.2-59.5-0.5-90.4-0.7c0.9-1.4,1.8-2.6,2.6-3.8c1.3,0.1,2.7,0.3,4,0.3c5.2,0.1,10.4,0.1,15.7,0.1
			c7.2,0,14.3,0,21.5,0c0-0.2,0-0.4,0-0.5c-6.7,0-13.3,0-20,0c-7,0-14.1,0-21.1,0.1c-0.6-0.5-1.7-1-1.8-1.5c-0.1-2.9,0-5.9,0-8.8
			c0-0.9-0.9-2.1,0.3-2.7c1.3-0.6,4.7-0.5,7.1-0.7c0.1,0,0.1-0.1,0.3-0.2c-2.5,0-4.9,0-7.5,0c0-0.7,0-1.3,0-2.3c12.3,0,24.6,0,37,0
			c0-0.2,0.1-0.5,0.1-0.7c-2.4-0.1-4.8-0.2-7.3-0.1c-8.8,0.1-17.5,0.1-26.3,0.3c-3,0-4-0.4-3.9-1.5c0.1-1,0.3-2,0.4-3.1
			c11.4,0.5,22.5,0.9,33.5,1.4c0,0,0,0.1,0,0.1c-6.9,0-13.7,0-20.6,0c0,0.2,0,0.4,0.1,0.6c9.7-0.3,19.4-0.6,29.1-0.8
			c1.2,0,2.9-0.1,3.6,0.1c4,1.4,8.6,1,13.2,0.8c2.2-0.1,4.5-0.1,6.7-0.1c0,0.1,0,0.2,0.1,0.3c-1.9,0.2-3.9,0.3-5.8,0.5
			c0,0.1,0,0.1,0.1,0.2c5.3,0.1,10.5,0.2,15.8,0.4c0-0.1,0.1-0.2,0.1-0.3c-1.4-0.3-2.8-0.5-4-0.8c6.7-0.2,13.3-0.5,19.9-0.5
			c7.2-0.1,14.4-0.1,21.6,0c4.3,0,8.5,0.4,12.8,0.4c8.9,0,17.7-0.1,26.6-0.1c11.9,0,23.9,0.2,35.8,0.3c3.2,0,6.4-0.2,9.6-0.3
			c0-0.1,0-0.3,0-0.4c-2.9-0.1-5.9-0.2-8.8-0.3c4.1-0.3,8.3-0.4,12.4-0.6c2.9-0.1,5.7-0.6,8.5-0.6c11.3,0,22.5,0.3,33.8,0.2
			c17.2-0.1,34.5-0.5,51.7-0.6c27.8-0.1,55.7,0,83.5,0c4.7,0,9.6-0.2,14.2,0.1c3.9,0.2,7.9,0.4,11.7,1.2c2.6,0.5,6.2,0.3,9.4,0.4
			c0,0.1,0,0.3,0,0.4c-12.1,0.3-24.2,0.6-36.2,0.9c0,0.1,0,0.3,0,0.4c11.3,0.1,22.7,0.4,34,0.4c9.4,0,18.8-0.3,28.2-0.5l0,0
			c6.9,0.9,13.7,1.8,21.3,1.5c6.8-0.2,13.5-0.7,20.6-0.5c6.2,0.2,12.7-0.4,19-0.6c0,4.8,0,9.7,0,14.5c-3.5-0.2-7.1-0.6-10.6-0.6
			c-13.9,0-27.7,0.1-41.6,0.1c-10.9,0-21.7,0-32.6,0.1c-2.5,0-5,0.5-7.5,0.8c0.1,0.2,0.2,0.4,0.3,0.6c11.2,0,22.5,0,33.7,0
			c11,0,22,0,32.8,0.7c-0.5,0.3-1,0.4-1.5,0.4c-8.9-0.4-17.7,0.5-26.6,0.1c-4.2-0.2-8.6,0.1-12.9,0c-5.4-0.2-10.8-0.6-16.3-0.8
			c-4.3-0.1-8.6,0.2-12.9,0.2c-4.8,0-9.6,0-14.4,0c0-0.2,0.1-0.5,0.1-0.7c4.4,0,8.9,0,13.3,0c-7.2-0.8-14.3-1.6-21.5-1.8
			c-7.2-0.2-14.5,0.4-21.8,0.5c-4,0.1-8-0.3-12-0.3c-11.7,0-23.3,0.2-35,0.3c-13,0.1-25.9,0.1-38.9,0.2c-16,0.1-31.9,0.2-47.9,0.2
			c-3.9,0-7.9,0-11.8,0c0-0.2-0.1-0.4-0.1-0.5c7.2-0.2,14.4-0.4,21.1-0.5c0.2,0-0.1-0.1-0.5-0.1c-7.9-0.4-15.9-0.7-23.8-1.1
			c-0.8,0-1.6,0.1-2.4,0.2c-1.2,0.1-2.3,0.3-3.5,0.3c-4.7,0-9.3-0.1-14-0.1c-12.5,0-25,0.1-37.5,0.1c-16.1,0-32.2-0.5-48.3,0.2
			c-0.8,0-1.6-0.1-2.4-0.1c-2.1-0.2-4.2-0.5-6.3-0.5c-6.5-0.1-13.1-0.1-19.6-0.1c-10.7-0.1-21.4-0.2-32.1-0.3
			c-1.9,0-3.8,0.7-5.8,0.7c-3.6,0.1-7.2,0-10.8,0c17.8,0.6,35.7-0.4,53.3,1c0,0.1,0,0.3,0,0.4c-10,0-20,0-30,0c0,0.2,0,0.4,0,0.6
			c23.1,0.4,46.2,0.6,69.4,0.1c-0.2,0.2-0.4,0.3-0.3,0.2c11.2,0,22.6,0,34.1,0l-0.1,0c6.2,0.1,12.5,0.3,18.7,0.3
			c9.5,0.1,18.9,0,27.6,0c-2.1-0.1-5.1-0.2-8.1-0.3c1.9-0.3,3.9-0.4,5.7-0.3c11.8,0.9,23.8,0.7,35.7,0.8c9.8,0.1,19.7,0.2,29.5,0.2
			c0,0.2,0,0.4,0,0.6c-8.4,0-16.9,0-25.3,0c0,0.2,0,0.4,0,0.7c5.6,0,11.3,0,16.9,0c3.6,0,7.3,0.3,10.8,0.1c13.4-0.6,26.8-0.4,40.3,0
			c8,0.2,16,0.4,24,0.6c-0.6-0.2-1.3-0.2-2-0.2c-0.7,0-1.3-0.1-2-0.2c0-0.1,0.1-0.2,0.1-0.3c13.7,0.4,27.3,0.8,41,1.2
			c0,0.2,0,0.4,0,0.5c-11.2,0-22.4,0-33.5,0c0,0.1,0,0.3,0,0.4c18,0,35.9,0.5,53.9-0.1c0-0.1,0-0.3,0-0.4c-4.3,0.1-8.6,0.2-12.9,0.3
			c0-0.1-0.1-0.3-0.1-0.4c7.2-0.8,14.7-0.7,22.2-1c-1.6-0.3-3.2-0.4-4.8-0.4c-1.5,0-3,0-4.4,0c0.1-0.2,0.2-0.4,0.3-0.6
			c6.4,0.5,12.7,1,19.1,1.6c0,0.1-0.1,0.3-0.1,0.4c-5.3,0.1-10.6,0.2-15.9,0.3c2.6,2.3,7.3,1.1,11.1,1.2c0.4,0,0.8,0,1.3,0
			c8.6,0.2,17.2,0.4,25.8,0.5c3,0,6.1-0.3,9.1-0.2c7.3,0.2,14.5,0.6,21.7,0.9c-12.4,0.3-24.9-0.3-37.2,0.5c2,0.1,4,0.2,5.9,0.3
			c-7.2,0.1-14.2-0.2-21.2-0.4c-3-0.1-6,0.4-9.1,0.4c-2.5,0-4.9-0.5-7.4-0.5c-2.9,0-5.7,0.5-8.6,0.5c-4.4,0-8.8-0.5-13.3-0.5
			c-12.9-0.1-25.8-0.1-38.7-0.1c-4,0-8,0-12,0c0,0.1,0,0.3,0,0.4c3.7,0,7.5,0,11.2,0c-6.7,0.3-13.4,0.3-20,0.2
			c-3.7-0.1-7.3-0.5-11-0.6c-4.7,0-9.4,0.2-14.1,0.3c-8.9,0.2-17.8,0.3-26.7,0.4c-0.4,0-0.9,0-1.2,0.1c-3.7,0.4-7.2,0.5-11.3,0.3
			c-9.5-0.4-19.1-0.3-28.7-0.4c-1.5,0-3-0.2-4.5-0.2c0-0.1,0.1-0.3,0.1-0.4c9.3,0,18.5,0,27.8,0c0-0.1,0-0.2,0-0.3
			c-15.5,0-30.9,0-46.4,0c0,0.1,0,0.2,0,0.3c3.7,0,7.5,0,11.4,0c-2.9,0.3-5.6,0.7-8.2,1c0.1,0.2,0.1,0.3,0.2,0.5
			c7.2,0,14.5,0,21.7,0c0,0.2,0,0.3,0.1,0.5c-3.3,0.1-6.6,0.2-9.8,0.4c0,0.2,0.1,0.3,0.1,0.5c2.4,0,4.9,0,7.3,0
			c19.3,0,38.5,0.2,57.8,0.1c14.4,0,28.9-0.3,43.3-0.5c10.7-0.1,21.4,0,32.1-0.1c7.4-0.1,14.8-0.3,22.2-0.4c9-0.1,18-0.2,27-0.3
			c0.9,0,1.7,0.1,2.6,0.1c0,0.1,0,0.2,0,0.2c-1.3,0.1-2.5,0.1-3,0.2c2.1,0.2,4.7,0.5,7.4,0.7c1.5,0.1,3.3,0.3,4.5,0.1
			c6-1,12.3-0.5,18.4-0.6c6.7,0,13.4,0.3,20,0.4c12.4,0.1,24.8,0,37.1,0c1.9,0,4.7-0.2,5.6,0.1C295.7,185.9,298.5,185.6,301.3,185.6
			z M227.2,194.7c4.2,0.2,8.4,0.4,12.7,0.6c0.1-0.2,0.2-0.5,0.3-0.7c-2.7-0.3-5.4-0.6-8.2-0.9c-0.1,0.1-0.2,0.2-0.3,0.3
			c0.7,0.1,1.5,0.2,2.2,0.4c0,0.1-0.1,0.1-0.1,0.2c-2.3,0-4.5,0-6.8,0c-0.4-0.2-0.8-0.7-1.2-0.7c-5.6,0.1-11.2,0.2-16.8,0.3
			c0,0.2,0,0.3,0,0.5c1.8,0,3.7,0,5.5,0C218.7,194.8,222.9,194.7,227.2,194.7z M-114.4,161.2c7.1,0.3,14.1,0.6,21.5,1
			c-1.3-1.8-4.9-1.4-7.6-1.4c-4.7,0.1-9.3,0.3-14,0.5c-0.9-0.1-1.8-0.3-2.7-0.3c-8.7,0.2-17.4,0.4-26,0.5c-2.9,0-5.7-0.4-8.6-0.5
			c-2.8-0.1-5.6,0-8.3,0c0,0.2,0,0.3,0,0.5c1.3,0.1,2.6,0.3,4,0.3c9.3,0,18.6,0.1,27.9,0C-123.7,161.7-119.1,161.4-114.4,161.2z
			 M-121.4,203.7c1.7,0.2,3.4,0.5,5,0.4c12.4-0.2,24.7-0.6,37-0.8c2.3,0,4.7,0.1,7,0.3c4.3,0.3,8.6,0.8,12.9,1.1
			c0.1-0.2,0.2-0.4,0.3-0.6c-3-0.1-6.5,0.1-8.9-0.4c-5.2-1.1-10.5-0.8-15.8-0.8c-9.1,0-18.3,0.1-27.4,0.3
			C-114.6,203.2-118,203.5-121.4,203.7c-5.7,0-11.4,0-17.1,0c0,0.1,0,0.3,0.1,0.4C-132.7,204-127,203.8-121.4,203.7z M21.6,159.5
			c-0.8,0-1.7,0-2.5,0.1c-10.3,0.6-20.5,1.3-31,1c-9.6-0.2-19.2-0.2-28.7-0.2c-3.9,0-7.8,0.1-11.6,0.2c-12.8,0.2-25.7,0.4-38.5,0.5
			c-0.2,0-0.5,0.2-0.9,0.4c27.3,0.5,54.3,1,81.3,1.4c0-0.1,0-0.2,0-0.2c-1-0.1-1.9-0.2-2.9-0.3c0-0.1,0.1-0.2,0.1-0.3
			c31.7,0.3,63.3,0.6,95,0.9c0,0.1,0,0.2,0,0.3c-1.5,0.1-3,0.3-4.4,0.4c0.1,0.2,0.2,0.4,0.3,0.6c4.3-0.2,8.6-0.6,13-0.7
			c4.5-0.1,9.1,0.1,13.7,0.1c4.7,0,9.4-0.2,14.1-0.1c4.3,0,8.6,0.3,12.9,0.4c0,0.1-0.1,0.2-0.1,0.3c-2.7-0.1-5.4-0.1-8.2-0.2
			c0.2,0.5,0.5,0.6,0.7,0.6c9.3-0.1,18.7,0.2,27.6-1.1c1.1-0.2,2.4-0.2,3.6-0.2c7.9-0.1,15.8-0.1,23.8-0.2c13.7-0.1,27.5,0.1,41.1-1
			c0.7-0.1,1.6,0.3,2.4,0.4c4,0.9,10.8,0.2,12.2-1.5c-9.3,0-18.4-0.1-27.6,0c-6.3,0.1-12.6,0.3-18.9,0.4c-2.4,0.1-4.7,0-7.1,0.2
			c-2.6,0.2-5.1,0.5-7.6,0.7c-0.1-0.1-0.2-0.3-0.3-0.4c1.4-0.1,2.7-0.3,4.1-0.4c-0.1-0.2-0.2-0.3-0.3-0.5c-2.3,0.2-4.7,0.4-7,0.6
			c-1.9,0.1-4,0.4-5.6,0.2c-7.3-0.9-14.6-0.3-21.9-0.4c-1.3,0-2.6,0.1-3.8,0.2c0,0.1,0,0.2,0,0.3c3.4,0.2,6.8,0.4,10.1,0.5
			c0,0.1-0.1,0.3-0.1,0.4c-11.5,0-22.9,0-34.4,0c0-0.1,0-0.3,0-0.4c6.7-0.1,13.5-0.3,19.9-0.4c-3.2-0.5-6.4-1-9.7-1.4
			c-0.5-0.1-1.1,0-1.6-0.1c-11.1-0.2-22.2-0.3-33.2-0.5c-2.6,0-5.2-0.2-7.9-0.3c1.5-0.5,3.1-0.8,4.6-0.8c5.7,0,11.3,0,17,0.1
			c7.7,0.1,15.5,0.3,23.2,0.2c9.8-0.1,19.6-0.5,29.4-0.7c6.8-0.1,13.6-0.2,20.4-0.2c1.6,0,3.2,0.2,4.8,0.3c2.2,0.1,4.5,0.1,6.7,0.1
			c0-0.2,0.1-0.4,0.1-0.6c-3.5-0.2-7.1-0.6-10.5-0.4c-7.3,0.3-14.2,0.6-21.6-0.2c-6.6-0.7-13.9-0.4-20.9-0.5c-6.2,0-12.5,0-18.7,0.1
			c-1.6,0-3.1,0-4.7,0c0,0.2,0,0.4,0,0.6c4,0.1,7.9,0.1,11.9,0.2c0,0.2-0.1,0.3-0.1,0.5c-40.7,0-81.4,0-122.1,0
			c5.3,0.3,10.7,0.4,16,0.5C18.8,159.1,20.1,159.4,21.6,159.5L21.6,159.5z M218,202.1c-10-1.1-20.1-1.3-30.4-1.2
			c-10.2,0.1-20.3-0.1-30.5-0.2c0-0.1,0-0.3,0-0.4c3.6-0.1,7.2-0.2,10.7-0.4c0-0.1,0-0.2,0-0.4c-2.2-0.1-4.5-0.2-6.8-0.3
			c-4.7-0.1-9.5,0-14.2-0.2c-6.1-0.3-12.1-0.7-17.8,0.6c-0.5,0.1-1.7,0-2.4-0.1c-11.5-1.7-23.5-0.7-35.3-1c0,0.2,0,0.3-0.1,0.5
			c5.2,0,10.4,0,15.6,0c0,0.2,0.1,0.3,0.1,0.5c-1.4,0.1-2.8,0.3-4.2,0.3c-3.2,0-6.4-0.1-9.6,0c-10.7,0.2-21.3,0.5-32,0.7
			c-2.2,0.1-4.5,0.1-6.7,0.2c44.3,0.9,88.5,2.3,133,1.3c-0.5,0.9-2.5,0.8-4.6,0.7c-1.8-0.1-3.6,0-5.4,0c0,0.2,0,0.4,0,0.7
			c9.9-0.2,19.9-0.4,29.8-0.5c0-0.1,0-0.1,0-0.2c-2.3-0.1-4.5-0.2-6.8-0.3c0-0.1,0.1-0.2,0.1-0.3C206.5,202.1,212.3,202.1,218,202.1
			z M-32.4,195.5c0-0.2,0.1-0.4,0.1-0.5c-11.7-0.1-23.5-0.2-35.2-0.4c-3.7,0-7.4,0-11.1-0.1c-8.9-0.3-17.7-0.4-26.2,0.8
			c-0.2,0-0.2,0.2-0.3,0.3c0.5,0.1,1.1,0.3,1.6,0.4c-1.4,0.1-2.9,0.1-4.3,0.2c0,0.2,0,0.3,0,0.5c12.3,0.3,24.6,0.7,36.9,1
			c0,0.1,0,0.1-0.1,0.2c-1.7,0.1-3.5,0.1-5.2,0.2c3.2,0.2,6.3,0,9.5-0.2c4.5-0.2,9-0.5,13.5-0.5c6.7,0.1,13.3,0.5,20,0.6
			c3.3,0.1,6.7-0.3,10.1-0.3c18.5,0,37,0,55.4,0c2.3,0,4.5-0.2,6.8-0.3c-0.4-0.3-0.8-0.4-1.2-0.4c-13.2-0.1-26.4-0.2-39.6-0.2
			c-8.2,0-16.4,0.1-24.6,0c-2.8,0-5.5-0.7-8.2-1c-0.3,0-0.7,0-1.9-0.1C-34.6,195.5-33.5,195.5-32.4,195.5z M-105.1,182.9
			c0,0.3-0.1,0.5-0.1,0.8c24.8,0.1,49.5,0.9,75.5,0c-1.8,0.4-2.5,0.5-3.3,0.7c0.1,0.1,0.1,0.2,0.2,0.3c8.5,0,17,0,26.5,0
			c-5-0.2-9.8,0.2-12.7-1.5c5.1,0,9.9,0,14.6,0c-21-1.4-42-0.6-63-0.5c0.6-0.1,1.1-0.2,1.8-0.4C-78.9,182.5-92,182.7-105.1,182.9z
			 M33.3,179.8c0,0.2,0,0.4,0,0.6c27.6,0,55.1,0,82.7,0c0,0,0.1-0.1,0.1-0.1c-1.7-0.1-3.4-0.2-5.1-0.3c0-0.1,0.1-0.2,0.1-0.3
			c6.4,0,12.9,0,19.3,0c0-0.1,0-0.3,0-0.4c-13.6,0-27.2,0-40.8,0c-4.8,0-9.7,0.1-14.5,0C61.2,178.8,47.1,178,33.3,179.8z
			 M-17.3,204.3c0,0.1,0,0.3,0,0.4c31.2,0.2,62.4,0.4,93.6,0.5c0-0.2,0.1-0.4,0.1-0.6c-3.7-0.2-7.3-0.5-11-0.5
			c-16.9-0.3-33.8-0.5-50.7-0.8C3.9,203.2-6.9,203-17.3,204.3z M53.7,173c23.8,0.1,47.6,0.8,70.9-1.2c-5.9-0.1-12.1-0.3-18.3-0.4
			c-3.1-0.1-6.2,0-9.4-0.1c-4.5-0.1-9.7-0.8-13.5-0.2c-6.5,1-12.8,0.5-19.2,0.6c-4.6,0-9.1,0-13.7,0c0,0.1,0,0.2,0,0.4
			c3,0.1,6,0.2,9,0.3c0,0.2,0,0.3,0,0.5C57.6,172.9,55.7,172.9,53.7,173z M-68.1,164.1c0-0.3-0.1-0.5-0.1-0.8
			c-41.7,0-83.4,0-125.7,0c14.1,1.6,27.8,0.6,41.4,0.8c-0.7,0.1-1.3,0.2-2,0.2c0-0.1,0.1-0.2,0.1-0.3
			C-125.6,164.1-96.9,164.1-68.1,164.1z M-68.7,199.3c0,0.1-0.1,0.3-0.1,0.4c1.2,0,2.4,0.1,3.6,0.1c9.8,0,19.7,0.1,29.5,0.1
			c13.7,0.1,27.4,0.4,41.2,0.5c2.2,0,4.5-0.3,6.8-0.5c-0.1-0.2-0.1-0.4-0.2-0.6C-14.9,199.3-41.8,199.3-68.7,199.3z M140.8,171.7
			c26.2,0.8,52.3,1,78.5,0C193.1,171.7,166.9,171.7,140.8,171.7z M-54,179.2c0,0.2,0,0.3,0.1,0.5c18.1,0,36.1,0,54.2,0
			C-17.8,179.3-35.9,178.3-54,179.2z M176.3,193.7c-26.4,0-52.7,0-79.1,0c0,0.2,0,0.3,0,0.5C123.6,194.1,150.1,194.9,176.3,193.7z
			 M9.4,188c0,0.2,0,0.3,0,0.5c16.4,0,32.9,0,49.3,0c0-0.2,0-0.3,0-0.5C42.2,188,25.8,188,9.4,188z M-140.9,189.6
			c-0.1,0.2-0.1,0.4-0.2,0.6c13,0.4,26.1-0.2,39.2-0.2c-6.7,0.1-12.7-1.8-20.3-1.1c1.1,0.3,1.4,0.4,2.3,0.7
			C-127.3,189.6-134.1,189.6-140.9,189.6z M94,190.5c-22.2,0-44.4,0-66.6,0c0,0.1,0,0.3,0,0.4C49.6,190.8,71.9,191.3,94,190.5z
			 M-150.5,218.9c0,0.2,0,0.4,0,0.5c14.4,0,28.8,0,43.2,0c0-0.2,0-0.4,0-0.5C-121.7,218.9-136.1,218.9-150.5,218.9z M-17.6,171.8
			c0,0.1,0,0.3,0,0.4c5.9,0,11.8,0,17.7,0c6.9-0.1,13.8-0.2,20.8-0.3c1.3,0,3.7,0.1,3.9,0.3c0.9,1.3,3,0.7,4.6,0.7
			c-0.6-0.4-1.1-0.8-2.1-1.6C13.1,171.5-2.2,171.7-17.6,171.8z M-40.8,204.6c-0.1,0-0.1,0.1-0.2,0.1c-4.7,0-9.4,0-14,0
			c-4.7,0-9.3,0-14,0c0,0.1,0,0.3,0.1,0.4c13.1,0.3,26.2,0.4,39.2-0.1c0.1-0.2,0.2-0.4,0.4-0.6c-1.7-0.2-3.4-0.5-5.2-0.7
			c-0.4,0.3-0.7,0.7-1,1c-3-0.2-6-0.3-9-0.5c0,0.1,0,0.1-0.1,0.2C-43.4,204.4-42.1,204.5-40.8,204.6z M41.4,199.3c0-0.2,0-0.4,0-0.5
			c-13,0-25.9,0-38.9,0c0,0.2,0,0.3,0,0.5C15.4,198.6,28.3,200.2,41.4,199.3z M71.4,168c0-0.1,0-0.2,0-0.3c-14.3,0-28.7,0-43,0
			c0,0.1,0,0.2,0,0.3C42.8,168,57.1,168,71.4,168z M18.4,164.6c0,0.1-0.1,0.2-0.1,0.4c12.9,0,25.7,0,38.6,0c0-0.1,0-0.2,0-0.4
			C44,164.6,31.2,164.6,18.4,164.6z M-90.8,193.4c0,0.1,0,0.3,0,0.4c11.1,0,22.3,0,33.4,0c0-0.1,0-0.3,0-0.4
			C-68.5,193.4-79.7,193.4-90.8,193.4z M-7.7,216c2.9-0.1,4.4-0.1,6-0.2c0-0.1,0-0.2-0.1-0.3c-7.1,0.1-14.2,0.3-21.3,0.4
			c0,0.2,0,0.4,0,0.6c6.3,0,12.6,0,18.1,0C-5,216.5-5.8,216.4-7.7,216z M6.3,188.5c0-0.2,0.1-0.3,0.1-0.5c-11.7,0-23.4,0-35,0
			c0,0.2,0,0.3,0,0.5C-17,188.5-5.4,188.5,6.3,188.5z M137,165.5c0,0.1,0,0.3,0,0.4c9.6,0,19.2,0,28.8,0c0-0.1,0-0.3,0-0.4
			C156.2,165.5,146.6,165.5,137,165.5z M-20.5,191.9c0,0.1,0,0.2,0.1,0.3c12.4,0,24.9,0,37.3,0c0-0.1,0-0.2,0-0.3
			C4.5,191.9-8,191.9-20.5,191.9z M188.2,185c0-0.1,0-0.3,0.1-0.4c-9.7,0-19.5,0-29.2,0c0,0.1,0,0.3,0,0.4
			C168.7,185,178.4,185,188.2,185z M78.4,197.8c-2.6-1.3-14.7-1.2-18.2,0C66.3,197.8,72,197.8,78.4,197.8z M-16.4,194.9
			c0,0.1,0,0.3,0,0.4c9.6,0,19.2,0,28.8,0c0-0.1,0-0.3,0-0.4C2.8,194.9-6.8,194.9-16.4,194.9z M-52.7,188.5c0,0.1,0,0.2,0,0.3
			c7,0,13.9,0,20.9,0c0,0,0-0.1-0.1-0.1c-5.7-0.4-11.4-0.8-17.1-1.1c-0.1,0.1-0.1,0.3-0.2,0.4c1.1,0.1,2.3,0.2,3.4,0.3
			c0,0.1,0,0.1-0.1,0.2C-48.1,188.4-50.4,188.5-52.7,188.5z M-72.8,205.1c-0.1-0.1-0.1-0.2-0.2-0.2c-7.8,0-15.6,0-23.3,0
			c0,0.1,0.1,0.2,0.1,0.2C-88.4,205.1-80.6,205.1-72.8,205.1z M-172.8,190c-6.7-0.3-13.4-1.1-20,0C-186.2,190-179.5,190-172.8,190z
			 M-138.9,194.5c0,0.1,0,0.3,0,0.4c5.7,0,11.3,0,17,0c0-0.1,0-0.3,0-0.4C-127.6,194.5-133.2,194.5-138.9,194.5z M-171.1,159.5
			c0,0.1,0,0.2,0,0.3c7,0,13.9,0,20.9,0c0-0.1,0-0.2,0-0.3C-157.1,159.5-164.1,159.5-171.1,159.5z M128.5,197.2c0-0.1,0-0.1,0-0.2
			c-5.8,0-11.6,0-17.3,0c0,0.1,0,0.1,0,0.2C117,197.2,122.7,197.2,128.5,197.2z M-5.8,186.9c0-0.1,0-0.2,0-0.3c-8.8,0-17.7,0-26.5,0
			c0,0.1,0,0.2,0,0.3C-23.5,186.9-14.7,186.9-5.8,186.9z M-87.1,168.8c0,0.1,0,0.2,0,0.3c6.4,0,12.8,0,19.1,0c0-0.1,0-0.2,0-0.3
			C-74.3,168.8-80.7,168.8-87.1,168.8z M257.6,185.2c0,0.1,0,0.2,0,0.2c7.2,0,14.5,0,21.7,0c0-0.1,0-0.2,0-0.2
			C272,185.2,264.8,185.2,257.6,185.2z M15.4,179.5c0,0.2,0,0.3-0.1,0.5c4.4,0.1,8.9,0.2,13.3,0.4c0-0.1,0-0.2,0-0.3
			C24.3,179.8,19.8,179.6,15.4,179.5z M215.1,211c0,0.1-0.1,0.2-0.1,0.3c3.5,0,6.9,0,10.4,0c0-0.1,0-0.2,0-0.3
			C221.9,211,218.5,211,215.1,211z M-70.4,208c0,0.1,0,0.2,0,0.2c4.1,0,8.3,0,12.4,0c0-0.1,0-0.2,0-0.2C-62.1,208-66.2,208-70.4,208
			z M-159.8,217.7c0,0.1-0.1,0.2-0.1,0.2c5.3,0,10.6,0,16,0c0-0.1,0-0.2,0-0.2C-149.2,217.7-154.5,217.7-159.8,217.7z M23.7,168.1
			c0-0.2,0-0.4-0.1-0.5c-2.8,0.1-5.6,0.2-8.4,0.2c0,0.1,0,0.2,0,0.3C18.1,168.1,20.9,168.1,23.7,168.1z M-174,185.9
			c0-0.1,0-0.3,0-0.4c-4,0.1-8,0.2-12,0.2c0,0.1,0,0.3,0.1,0.4C-182,186-178,185.9-174,185.9z M79.9,164.8c0-0.1,0-0.2,0-0.3
			c-5.4,0-10.8,0-16.2,0c0,0.1,0,0.2,0,0.3C69.1,164.8,74.5,164.8,79.9,164.8z M122.5,172.7c0,0.1,0,0.2,0,0.2c4.7,0,9.3,0,14,0
			c0-0.1,0-0.2,0-0.2C131.8,172.7,127.1,172.7,122.5,172.7z M-98.8,199.3c0,0.1,0,0.2,0,0.3c3.7,0,7.4,0,11,0c0-0.1,0-0.2,0-0.3
			C-91.5,199.3-95.1,199.3-98.8,199.3z M168.4,210.9c0,0.2,0,0.3,0.1,0.5c3.5-0.1,6.9-0.2,10.4-0.3c0-0.2-0.1-0.3-0.1-0.5
			C175.3,210.7,171.9,210.8,168.4,210.9z M96.1,168.2c0-0.1,0-0.2,0-0.2c-5.3,0-10.6,0-15.9,0c0,0.1,0,0.2,0,0.2
			C85.4,168.2,90.8,168.2,96.1,168.2z M-41.9,216c-3.7,0.1-7.3,0.2-11,0.3C-49.3,216.1-45.4,217.3-41.9,216z"/>
		<path class="st2" d="M301.3,237.5c0,0.3,0,0.6,0,0.9c-3.8,0.2-7.5,0.3-11.3,0.5c0,0.2,0,0.3,0,0.5c3.7,0,7.5,0,11.2,0
			c0,2.3,0,4.5,0,6.8c-3.3,0-6.7-0.2-9.9-0.1c-3.7,0.1-7.3,0.6-11,0.7c-7.4,0.1-14.9,0.1-22.3,0c-1.8,0-3.7-0.3-5.2-0.7
			c-2.6-0.6-10.5-0.6-13.4,0.4c3.2,0.1,5.8,0.1,8.4,0.2c-2.1,0.2-4.1,0.3-6.2,0.3c-1.3,0-2.8,0.1-3.9-0.1c-2.8-0.5-5.3-1.6-8.2-1.7
			c-5.4-0.3-10.9-0.1-16.4-0.1c0,0.1,0,0.2,0,0.3c4.4,0,8.7,0,13.1,0c0,0.1,0,0.2,0,0.4c-5.3-0.1-11.2,0.2-15.9-0.5
			c-5.2-0.8-10.2-0.8-15.5-0.8c-10,0-20,0-30.1,0c0-0.3-0.1-0.6-0.2-1.3c-15.1,1.8-30.2,1.1-45.3,1.2c2.3,0.1,4.5,0.2,6.8,0.2
			c0,0.2-0.1,0.4-0.1,0.6c-9.2,0-18.3,0-28.2,0c2.5-0.2,4.4-0.4,6.2-0.5c-9.2-0.1-18.3-0.3-27.5-0.5c-7.9-0.2-15.8-0.3-23.7-0.3
			c-7.3,0-14.7-0.1-22,0.2c-3.1,0.1-5.8,0.2-8.7-0.2c-0.6-0.1-1.4,0-2.1,0c-16.2,0.1-32.4,0.2-48.6,0.4c-7.4,0.1-14.9,0.2-22.3,0.4
			c-0.4,0-0.8,0.2-1.2,0.3c0.1,0.2,0.1,0.3,0.2,0.5c12.1-0.3,24.2-0.5,36.3-0.8c1.4,0,2.8,0,4.1,0c5.7,0.3,11.3,1.1,17.2,0.5
			c1.2-0.1,2.5-0.1,3.7-0.1c16.8,0.2,33.6,0.4,50.5,0.6c6.9,0.1,13.9,0.1,20.8,0.1c2.4,0,4.8,0,7.2,0c0,0.2,0,0.5,0,0.7
			c-36,0.5-72-0.1-108-0.4c0,0.2,0,0.4,0,0.6c3.8,0,7.5,0,11.3,0c0,0,0,0.1,0,0.1c-4.2,0.3-8.5,0.6-12.9,0.9
			c8.4,0.6,16.2,1.2,24,1.7c-67.5,0-134.9,0-202.4,0c0-0.9,0-1.8,0-2.9c2.3-0.1,4.3-0.2,6.2-0.2c5.5,0.1,11.1,0.2,16.6,0.3
			c3.4,0,6.9,0,10.3,0c2.5,0,5.9-0.4,7.2,0.1c4.4,1.5,9.3,0.5,13.9,0.7c2.4,0.1,5,0.1,7.5,0.1c14.4-0.1,28.8-0.1,43.2-0.2
			c0.8,0,1.5-0.1,3.2-0.2c-5-0.3-9.1-0.6-13.1-0.9c-6.4-0.4-12.8-0.8-19.2,0c-1.3,0.1-2.8,0-4.2,0c-6.3-0.2-12.7-0.5-19-0.6
			c-12.2-0.2-24.4-0.2-36.6-0.2c-4.9,0-9.7,0-14.6,0c0-0.1,0-0.2,0-0.3c9.6-0.3,19.2-0.7,28.8-1c-2.4-0.3-4.9-0.5-7.3-0.4
			c-5.1,0.3-10.3-0.5-15.5,0.5c-1.6,0.3-6.5,0.9-7-0.5c-0.9-2.6-0.2-5.2-0.2-7.9c1.9,0,3.2,0,4.5,0c0-0.1,0.1-0.2,0.1-0.2
			c-1.2-0.1-2.4-0.2-3.5-0.3c0-0.1,0-0.2,0.1-0.3c16.8,0,33.7,0,50.5,0c0-0.2,0-0.4,0.1-0.5c-17.2-0.2-34.5-0.4-51.7-0.6
			c0-0.2,0-0.4,0-0.7c7-0.3,14.1-0.7,21.1-1c0.1,0.1,0.1,0.3,0.2,0.4c-0.8,0.1-1.6,0.2-2.5,0.3c5,0.1,9.9-0.1,14.8-0.1
			c15.6-0.1,31.1-0.2,46.7-0.3c2.6,0,6,0,7.6,0.5c2.5,0.8,4.4,0.8,7.4,0.5c-2-0.3-3.5-0.6-5.1-0.8c0.3-0.3,0.5-0.5,0.8-0.8
			c5.9,0.5,11.8,1,17.3,1.5c0.1,0-0.2-0.2-0.5-0.4c1.8-0.1,3.4-0.1,5.7-0.2c-2-0.3-3.1-0.4-4.2-0.6c0-0.2,0-0.3,0-0.5
			c5.4-0.3,10.9-0.5,16.3-0.8c0,0.1,0.1,0.2,0.1,0.3c-1.1,0.1-2.2,0.1-3.3,0.2c16.6,1.1,33.3,0.4,49.9,0.9c17,0.5,34.3,0.1,51.4,0.1
			c0-0.2,0-0.5,0-0.7c-9.2,0-18.4,0-27.6,0c0.1-0.2,0.1-0.5,0.2-0.7c5.1,0.2,10.1,0.4,15.8,0.6c-1.4-0.3-2.2-0.4-3.8-0.7
			c3.6-0.3,6.4-0.6,9.1-0.6c5.4,0.1,10.8,0.3,16.2,0.6c5,0.2,9.9,0.7,14.8,0.8c8.2,0,16.5-0.2,24.7-0.3c5.6-0.1,11.1-0.1,16.7-0.1
			c5.1,0,10.3,0,15.4,0c0-0.1,0-0.2,0.1-0.3c-1.8-0.1-3.7-0.2-5.5-0.3c0.1-0.1,0.1-0.2,0.2-0.3c4.8,0.1,9.7,0.2,14.5,0.2
			c0,0,0,0.1,0,0.1c-1.8,0.1-3.5,0.1-4.8,0.2c30.9,1.2,61.6-1.2,92.6-1.9c-12.8,0-25.6,0-39.2,0c1.5,0.3,2.2,0.5,2.9,0.7
			c-7.4,0.3-14.7,0.4-21.9,0.2c-6.2-0.1-12.5,0.1-18.6-0.9c-2.5-0.4-5.8-0.1-8.7-0.1c-0.7,0-1.4,0.4-1.8,0.5
			c-5.3-0.1-10.7-0.2-16-0.4c0-0.2,0-0.3,0-0.5c2.1,0,4.3-0.1,6.4-0.1c0,0,0,0.1,0,0.1c-14.9,0-29.9,0-44.8,0c0-0.1,0-0.3,0-0.4
			c2.4-0.1,4.8-0.3,7.2-0.4c0-0.1-0.1-0.2-0.1-0.3c-6.2-0.1-12.4-0.2-18.6-0.3c0-0.1-0.1-0.2-0.1-0.3c4.7-0.2,9.5-0.4,14.2-0.6
			c0-0.1-0.1-0.2-0.1-0.3c-16,0-32,0-48.1,0c0,0.1-0.1,0.2-0.1,0.3c1,0.2,1.9,0.4,2.9,0.5c0,0.1-0.1,0.2-0.1,0.3
			c-3.4,0-6.8,0-10.1,0c0,0.2,0,0.4,0,0.5c13.7,0.6,27.5-0.3,41.2,0.4c-10.2,0.4-20.3,0.8-30.5,1C8.2,229-2,229.1-12.1,229
			c-6.7,0-13.4-0.7-20.2,0c-2.5,0.3-5.3,0-8,0c0-0.1,0-0.3,0-0.4c1-0.1,2-0.2,3-0.2c0-0.2,0-0.3-0.1-0.5c-6.3,0-12.6,0-19.4,0
			c2.2,0.2,4,0.3,5.7,0.4c-3,0.5-5.9,0.6-8.8,0.7c-12.4,0.2-24.8,0.4-37.2,0.6c-1.3,0-2.7-0.3-4-0.4c-1.3-0.2-2.5-0.4-4.4-0.7
			c11.6-1.1,23.4,0.6,34.4-1.1c-8.4,0-16.6-0.2-24.7,0.1c-6,0.2-12.9-0.8-18,1.3c-0.2,0.1-0.5,0.1-0.8,0.1c-3.2,0.1-6.5,0.3-9.7,0.2
			c-7.8,0-15.5-0.1-23.3-0.2c-10.2-0.1-20.5-0.3-30.7-0.5c-3.4,0-6.9,0.1-10.3,0.2c-1,0-1.7,0.6-2.7,0.6c-0.9,0.1-1.9-0.2-3.2-0.3
			c1.2-0.3,1.9-0.5,2.6-0.7c-0.1-0.1-0.2-0.2-0.3-0.4c-2.3,0.1-4.6,0.3-7.4,0.5c-0.1-0.7-0.3-1.5-0.5-2.4c4,0,7.3,0,10.6,0
			c18.2,0,36.5,0.1,54.7,0.1c3.2,0,6.4-0.5,9.6-0.8l0,0c13.4-0.2,26.8-0.3,40.2-0.5c0-0.1,0-0.3,0-0.4c-8.6,0-17.1,0-25.7,0
			c0-0.2,0-0.4,0-0.7c4.2,0,8.4,0.1,12.7,0.1c12.6,0.1,25.2,0.1,37.9,0.1c5.8,0,12.4,0.5,17.3-0.4c5.4-0.9,10.2-0.8,15.4-0.7
			c-2.1,0.1-4.2,0.2-6.3,0.3c0,0.2,0,0.4,0.1,0.6c4.5,0,9,0,13.5,0c7.1,0,14.3,0.3,21.2,0c14.1-0.8,28-0.3,42-0.1
			c8.9,0.1,17.8,0.9,26.3-1.2c-5.6,0-11.3,0-16.9,0c0-0.2,0-0.4,0-0.5c6.2,0,12.4,0,18.6,0c12.2,0,24.4,0.1,36.6,0
			c8.2,0,16.3-0.3,24.5-0.4c2.7,0,5.4,0.2,8.1,0.3l0,0c-2.1,0.3-4.3,0.7-6.4,0.7c-5.1,0.1-10.3-0.1-15.4-0.1
			c-12.1,0.1-24.2,0.3-36.2,0.5c-2.3,0-4.7,0.2-7,0.3c-2.1,0.1-4.3,0.1-6.4,0.1c0,0.1,0.1,0.3,0.1,0.4c7.1,0.2,14.1,0.3,21.3-0.1
			c9.7-0.4,19.7-0.4,29.5-0.4c8.2,0,16.3,0.3,24.5,0.3c6.4,0.1,12.7,0,19.4,0c-0.3-0.2-0.6-0.3-0.9-0.5c13.4,0.2,26.9,0.3,40.4,0.5
			c0,0.1,0,0.2,0.1,0.2c-1.3,0.2-2.7,0.5-3.3,0.6c6.7,0.1,13.8,0.3,21,0.4c0,0.1,0,0.3,0.1,0.4c-2,0.1-4,0.1-6,0.2
			c1.2,0.3,2.3,0.3,3.4,0.2c4.5-0.1,9-0.3,13.5-0.2c8,0.1,16,0.4,24.1,0.5c10,0.1,19.9,0.1,29.9,0.1c3.8,0,7.5,0,11.3,0
			c0,0.2,0.1,0.5,0.1,0.7c-10.2,0.3-20.3,0.8-30.5,1c-8.6,0.1-17.2-0.2-25.8-0.2c-3.6,0-7.3,0.5-10.9,0.7c-4.4,0.3-8.7,0.8-13.1,1.1
			c-3.8,0.3-7.6,0.4-12.6,0.6c18.5,0,35.8,0,52.5,0c4.9,1.1,9.8,0,14.5,0.2c5.1,0.2,10.4,0,15.6,0c-0.3,0.3-0.8,0.4-1.2,0.5
			c-0.1,0-0.1,0.1-0.1,0.2c2.5,0.1,5,0.3,8.3,0.5c-4.4,0.2-7.8,0.4-11.3,0.4c-3.4,0-6.7-0.4-10.1-0.6c-0.4,0-0.8,0-1.2,0
			c-3.9,0-7.9,0.2-11.8,0.1c-10.1-0.1-20.1-0.3-30.2-0.4c-7.6-0.1-15.3,0-23,0c0,0.2,0,0.4,0,0.7c12.7,0,25.5,0,38.2,0
			c0,0.2,0,0.4,0,0.6c-16.8,0-33.7,0-50.5,0c18.2,1.8,36.6,0.5,54.9,0.7c0,0.2,0,0.4,0,0.5c-26.6,0.3-53.3,0.6-79.9,0.9
			c1.8,0.3,3.5,0.3,5.3,0.3c5.8-0.1,11.7-0.3,17.5-0.2c6.8,0.1,13.6-0.2,20.5,0.6c7.4,0.8,15.5,0.7,23.4,0.9c0.8,0,1.6-0.4,2.6-0.5
			c1.4-0.2,2.9-0.2,4.3-0.3c0.1,0,0.3,0.1,0.5,0.2c-0.8,0.1-1.7,0.2-2.5,0.3c0,0.1,0.1,0.2,0.1,0.3c7.7,0,15.4,0,23,0
			c0-0.1,0-0.1,0.1-0.2c-5.1-0.2-10.2-0.3-15.3-0.5c5.7-0.3,11.3-0.4,16.9-0.3c12.1,0.1,24.1,0.3,36.2,0.4c0,0.4,0,0.8,0,1.2
			c-6.7,0.2-13.5,0.3-20.2,0.6c-0.8,0-1.6,0.5-2.3,0.7c-5.7-1-11.8-1.1-17.9-0.9c-2.9,0.1-5.7,0.4-8.5,0.5
			c-9.4,0.2-18.7,0.3-28.1,0.4c0,0.1,0,0.2,0,0.2c0.9,0.1,1.9,0.3,3.2,0.4c-4.8,0.2-9,0.4-13.3,0.4c-4.4,0-8.7-0.5-13.1-0.5
			c-18.3,0.1-36.7,0.3-55,0.4c-11.2,0.1-22.5-0.1-33.7,0c-4.8,0-9.7,0.3-14.5,0.3c-10.1,0-20.2-0.2-30.2-0.3
			c-7.2-0.1-14.5-0.4-21.6-0.2c-6,0.1-11.9,0.3-18,0c-3.8-0.2-7.8,0.3-11.7,0.4c0,0.3,0.1,0.5,0.1,0.8c20.2,0.1,40.5,0.2,60.7,0.4
			c0,0.1,0,0.2,0,0.4c-2.4,0.1-4.9,0.1-7.3,0.2c0,0.2,0.1,0.3,0.1,0.5c5-0.2,10-0.4,15-0.5c0.8,0,1.6,0,2.3,0.1
			c2.3,0.2,4.7,0.7,7,0.7c8.7,0,17.4-0.2,26.2-0.3c3.7-0.1,7.4-0.2,11.1-0.3c0-0.1,0-0.2,0-0.2c-1.9,0-3.7-0.1-5.6-0.1
			c0-0.2,0-0.3,0-0.5c27.8,2.4,55.6-0.3,83.4,0.4c-0.8-0.2-1.6-0.3-3.4-0.7c6.9-0.1,12.5-0.3,18.2-0.3c13.2-0.1,26.4-0.1,39.5-0.1
			c4.3,0,8.6-0.1,12.9-0.2c2.9-0.1,5.7-0.3,8.6-0.5c-0.1-0.2-0.1-0.3-0.2-0.5c-1.3,0-2.5,0-3.8,0c-0.9,0-1.7-0.2-2.6-0.3
			c1.8-0.1,3.5-0.2,5.3-0.3C289.7,237.5,295.5,237.5,301.3,237.5z M54.3,234.4c1.4,0.2,2.7,0.7,4.1,0.7c5.1,0.1,10.3,0.2,15.4,0.2
			c11.3,0,22.7,0.1,34,0c11-0.1,21.9-0.3,32.9-0.4c8.2-0.1,16.5,0,24.7,0c0-0.2,0-0.4,0-0.6c-7-0.1-14-0.2-21-0.3c-5,0-10,0-15-0.1
			c-5.5-0.1-11.1-0.3-16.6-0.3c-7.9,0.1-15.7,0.5-23.6,0.6c-8.6,0-17.1-0.3-25.7-0.4C60.5,233.7,57.4,234.2,54.3,234.4
			c-5.2-0.4-10.4-0.9-15.6-1c-8.6-0.1-17.2,0.1-25.8,0.2c-0.5,0-1,0.1-1.5,0.2c0,0.1,0.1,0.2,0.1,0.3
			C25.8,234.1,40,234.3,54.3,234.4z M-129,238c0,0.1,0,0.3,0,0.4c27.9,0.7,55.9,0.8,83.8-0.1c-8.7-0.4-17.3-1.4-26.2-0.5
			c2.3,0.1,4.6,0.2,6.8,0.3c0,0-0.1,0-0.1-0.1c-10.6,0-21.2,0-31.8,0C-107.4,238-118.2,238-129,238z M-105.8,225.7
			c0,0.2,0,0.3,0,0.5c23.8,0,47.6,0,71.3,0c0-0.2,0-0.3,0-0.5C-58.3,225.8-82.1,224.7-105.8,225.7z M-59.8,234.4
			c6.5,0.4,13.5,1.4,19.3,0.9c6.8-0.7,13.2-0.1,19.8-0.4c6.6-0.2,13.3,0,20,0c0-0.2,0-0.4,0-0.6C-20.5,233.7-40.2,233.7-59.8,234.4z
			 M299.5,245.2c0-0.2,0-0.4,0-0.5c-18.3,0-36.5,0-54.8,0c0,0.2,0,0.4,0,0.5C262.9,245.2,281.2,245.2,299.5,245.2z M-169,241
			c0,0.1-0.1,0.3-0.1,0.4c1.7,0,3.5,0.1,5.2,0.1c12.5,0.1,24.9,0.2,37.4,0.2c3.2,0,6.4-0.2,9.6-0.3c0-0.1-0.1-0.2-0.1-0.4
			C-134.3,241-151.7,241-169,241z M-110.3,234.8c0,0.2,0.1,0.3,0.1,0.5c15.1,0,30.2,0,45.3,0c0-0.2,0-0.3,0-0.5
			C-80,234.8-95.2,234.8-110.3,234.8z M8.8,239c0-0.1,0-0.3,0-0.4c-15.6,0-31.1,0-46.7,0c0,0.1,0,0.3,0,0.4
			C-22.4,239-6.8,239,8.8,239z M111.4,226.7c0-0.2,0.1-0.3,0.1-0.5c-6.8-0.4-13.6-0.8-20.4-1.2c-2.6-0.1-5.3,0-7.9,0
			c-2.4,0-4.9,0.1-7.3,0.2c0,0.1,0,0.2,0,0.3C87.7,226,99.5,226.4,111.4,226.7z M-36.9,237c0.1,0.2,0.1,0.3,0.2,0.5
			c12.1,0,24.2,0,37.1,0C-12.5,236.7-24.7,236.5-36.9,237z M185.5,225.8c0-0.2,0-0.3-0.1-0.5c-1.3,0-2.6,0-3.9,0
			c-2.9,0-5.9,0.1-8.7,0c-2.9-0.1-5.7-0.5-8.5-0.7c0.1,0.2,0.2,0.4,0.4,0.6c-0.3,0.3-0.6,0.6-0.8,0.7
			C171,225.8,178.3,225.8,185.5,225.8z M214.9,237c0-0.2,0-0.4,0-0.6c-12.7,0.2-25.5,0.4-38.2,0.6c0,0,0,0.1,0,0.1
			C189.5,237,202.2,237,214.9,237z M133.7,228.7c0,0.1,0,0.3,0,0.4c8.8,0,17.7,0,26.5,0c0-0.1,0-0.3,0-0.4
			C151.4,228.7,142.5,228.7,133.7,228.7z M215.3,229.2c4-0.1,7.5-0.2,11-0.3c0-0.1,0-0.2,0-0.3c-1.8,0-3.7-0.1-5.5-0.1
			c1-0.4,2-0.6,3.1-0.7c1.1-0.1,2.3-0.1,3.5-0.2C217.1,227.3,215.8,227.5,215.3,229.2z M-83.9,233.5c0,0.1-0.1,0.3-0.1,0.4
			c8.1,0,16.3,0,24.4,0c0-0.1,0-0.3,0-0.4C-67.6,233.5-75.7,233.5-83.9,233.5z M-62.6,246c0-0.1,0-0.1,0-0.2
			c-2.3-0.1-4.9,0.1-6.9-0.3c-1.5-0.3-2.5-0.9-4.5-0.6c-2.9,0.3-5.8,0.7-9.4,1.1C-76.2,246-69.4,246-62.6,246z M220,236.6
			c0,0.1,0,0.3-0.1,0.4c4.9,0,9.7,0,14.6,0c0-0.1,0-0.3,0-0.4C229.7,236.6,224.9,236.6,220,236.6z M167,243.4c0,0.1,0,0.2,0.1,0.3
			c6.5,0,13,0,19.5,0c0-0.1,0-0.2,0-0.3C180,243.4,173.5,243.4,167,243.4z"/>
		<path class="st2" d="M123.2,247.2c6.2,0.2,12.3,0.6,18.5,0.6c10.1,0,20.2-0.3,30.3-0.4c0.3,0,0.6-0.1,0.8-0.1
			c10.5,1.1,21.1-0.3,31.8,0.4c10.4,0.6,21.3,0.2,32,0.1c8.6-0.1,17.2-0.3,25.8-0.3c3.1,0,6.2,0.3,9.3,0.4
			c5.8,0.1,11.7,0.2,17.5,0.3c0.8,1.1-1.1,0.9-2.9,0.9c-48.1,0-96.2,0-144.2,0c-7-0.1-14.1-0.2-21.1-0.3c-1.9,0-3.8,0.2-5.6,0.3
			c-1.7,0-3.3,0-5,0c-2.2-0.3-4.4-0.6-6.7-0.8c-1.4-0.1-2.9,0-4.4-0.4c5.6,0,11.1,0.1,16.7,0c2.5,0,5-0.4,7.4-0.6L123.2,247.2z"/>
		<path class="st2" d="M289.2,220.6c-2.2-0.1-4.4-0.2-6.6-0.2c-2.8-0.1-5.6-0.1-8.4-0.1c-4.5,0-9.1-0.1-13.6,0
			c-1.6,0-3.4,0.6-4.4-0.3c-0.1-0.1-0.8-0.1-1.2-0.1c-8.7,0-17.5,0.1-26.2,0c-5.7-0.1-11.5-0.3-17.2-0.5c14.7-0.6,29.4-1.2,44.2-0.6
			c11,0.4,22.2,0.3,33.3,0.4C289.2,219.5,289.2,220.1,289.2,220.6z"/>
		<path class="st2" d="M289.2,189.4c-25.7,0-51.5,0-77.2,0c0-0.2,0-0.4,0-0.6c6.2,0,12.5,0,18.7,0c8.5,0,17.1,0.4,25.3-0.1
			c5.6-0.4,10.6,0.2,15.9,0.1c5.8-0.1,11.6-0.2,17.4-0.3C289.2,188.8,289.2,189.1,289.2,189.4z"/>
		<path class="st3" d="M289.2,182c-5.9,0.1-11.9,0.2-17.8,0.2c-3.7,0-7.5-0.2-11.3-0.7c9.7-0.1,19.4-0.1,29.1-0.2
			C289.2,181.6,289.2,181.8,289.2,182z"/>
		<path class="st3" d="M289.2,224.6c-8.3-0.1-16.5-0.3-24.8-0.4c0,0,0-0.1,0-0.1c8.3-0.1,16.6-0.2,24.8-0.3
			C289.2,224,289.2,224.3,289.2,224.6z"/>
		<path class="st2" d="M31.6,249c9.2-0.3,18.5-0.6,27.7-0.9c0,0.1,0.1,0.2,0.1,0.4c-0.6,0.2-1.3,0.3-1.9,0.5
			C48.9,249,40.3,249,31.6,249z"/>
		<path class="st2" d="M128.1,221.6c0.5,0,1,0,1.5,0c0-0.2,0-0.3,0-0.5c-7-0.1-13.9-0.2-20.9-0.2c-6.6,0-13.2,0.3-19.9,0.2
			c3.7-0.2,7.4-0.4,11.1-0.6c0,0,0-0.1,0-0.1c-6.6-0.1-13.2-0.2-19.9-0.4c14.2-1.6,28.5,0,42.6-0.7c-2.6,0-5.1,0-7.7,0
			c0-0.2,0-0.3,0-0.5c12.6,0,25.2,0,37.8,0c-0.8,0.1-1.7,0.2-2.5,0.4c0,0.1,0,0.2,0,0.3c9.7,0.3,19.5,0.6,29.2,0.9
			c0,0.1,0,0.1,0,0.2c-3.3,0-6.6-0.1-9.9,0c-3.1,0.1-6.2,0.4-9.3,0.6c-1.1,0.1-2.1,0.2-3.2,0.2c-3.4,0.1-6.8,0.2-10.2,0.2
			c-1.4,0-2.7-0.1-4.1-0.1c-3.2,0-6.4,0-9.6,0C131.4,221.6,129.8,221.6,128.1,221.6C128.1,221.6,128.1,221.6,128.1,221.6z"/>
		<path class="st2" d="M-88.4,220.2c11.6-1.3,23.3-1.1,35.1-0.3c0-0.1,0.1-0.3,0.1-0.4c-1-0.1-2-0.2-3-0.4c0.1-0.2,0.1-0.3,0.2-0.5
			c9.6,0.2,19.2,0.5,28.9,0.7c0.1,0.1,0.1,0.3,0.2,0.4c-2.5,0.2-5,0.4-7.5,0.5c0,0.1,0,0.1,0.1,0.2c4.5-0.1,9-0.2,13.5-0.3
			c0,0.2,0,0.4,0.1,0.5c-7.4,0-14.7,0-22.7,0c0.5,0.5,0.7,0.7,0.9,0.9c-5.7,1.3-10.4-1.1-15.9-0.7c1.3-0.1,2.6-0.2,4-0.2
			c0,0-0.1,0.1-0.1,0.1C-65.9,220.6-77.2,220.4-88.4,220.2z"/>
		<path class="st2" d="M228.4,159.6c0.6-0.1,1.2-0.1,1.8-0.2c0-0.1,0-0.2-0.1-0.3c-5.9,0-11.8,0-17.7,0c4.1-0.7,8.1-0.9,12.6-0.9
			c9.7,0.2,19.4-0.2,29.1-0.3c0.5,0,1,0,2.5,0c-6.6,1.2-12.5,1.5-18.8,1c-0.8-0.1-1.9,0.6-2.9,0.6
			C232.8,159.8,230.6,159.6,228.4,159.6C228.4,159.6,228.4,159.6,228.4,159.6z"/>
		<path class="st2" d="M73.4,218.9c-12.9,0.6-25.8,0.5-38.8,0.1c0-0.2,0-0.3,0-0.5c12.9,0,25.9,0,38.8,0
			C73.4,218.6,73.4,218.8,73.4,218.9z"/>
		<path class="st2" d="M-10,221.5c11.7,0.4,23.5-1.4,35.2,0.1c0,0.1,0,0.3,0,0.4c-11.7,0-23.5,0-35.2,0
			C-10.1,221.9-10,221.7-10,221.5z"/>
		<path class="st2" d="M245.7,223.6c-4.4,0-9.2-0.4-13.2,0.1c-10.4,1.2-20.2-0.9-30.4-0.2c0-0.2,0-0.4,0-0.6c5.5,0,11.1,0,16.6,0
			c6.6,0,13.3-0.1,19.9,0c2.4,0,4.8,0.2,7.3,0.4C245.8,223.4,245.8,223.5,245.7,223.6z"/>
		<path class="st2" d="M-211.7,221c9.3,0,18.5,0,27.8,0c0.6,0,1.2,0.4,2.8,0.9c-11-0.4-21,0.3-30.8-0.4
			C-211.8,221.2-211.8,221.1-211.7,221z"/>
		<path class="st2" d="M-137.5,225c-10.7,0-21.3,0.1-32,0.1c-2.2,0-4.4,0-6.5,0c0-0.1,0-0.3,0-0.4c4.1,0,8.2,0,12.2,0
			c0.7,0,1.5,0.2,2,0.1C-153.5,223.3-145.5,224.8-137.5,225C-137.5,225-137.5,225-137.5,225z"/>
		<path class="st2" d="M162.8,219c12.2,0,24.4,0,36.5,0c0,0.1,0,0.3,0,0.4c-12.2,0-24.4,0-36.5,0C162.8,219.2,162.8,219.1,162.8,219
			z"/>
		<path class="st2" d="M-161.5,157.8c-0.6-0.3-1.2-0.6-2.3-1.2c5.3,0.5,10.9-0.7,15,1.2C-153,157.8-157.1,157.8-161.5,157.8z"/>
		<path class="st2" d="M77.4,218.2c9-0.1,17.9-0.3,26.9-0.4c0,0.2,0,0.4,0.1,0.5c-9,0-18.1,0-27.1,0
			C77.3,218.2,77.3,218.2,77.4,218.2z"/>
		<path class="st2" d="M-178.4,213.2c-7.8,0-15.6,0-23.4,0C-194,212.6-186.2,212.3-178.4,213.2z"/>
		<path class="st2" d="M-168.7,231.4c-6.6,0-13.2,0-19.8,0c0-0.1,0-0.2,0-0.3c6.6,0,13.2,0,19.8,0
			C-168.7,231.2-168.7,231.3-168.7,231.4z"/>
		<path class="st2" d="M198.9,217.9c-5.6,0-11.1,0-16.7,0c0-0.1,0-0.2,0-0.3c5.6,0,11.3,0,16.9,0C199,217.7,199,217.8,198.9,217.9z"
			/>
		<path class="st2" d="M-101.1,212.1c-5.3,0-10.7,0-16,0c0-0.1,0-0.2,0-0.3c5.3,0,10.7,0,16,0C-101.1,211.9-101.1,212-101.1,212.1z"
			/>
		<path class="st2" d="M-196.2,228.8c5.1,0.1,10.2,0.2,15.4,0.3c0,0.1,0,0.1-0.1,0.2c-5.1,0-10.2,0-15.3,0
			C-196.2,229.1-196.2,229-196.2,228.8z"/>
		<path class="st2" d="M-173.7,156.8c-4,0.1-8.1,0.2-12.1,0.3c0-0.2-0.1-0.3-0.1-0.5c4.1,0,8.2,0,12.3,0
			C-173.6,156.7-173.7,156.7-173.7,156.8z"/>
		<path class="st2" d="M-187.5,223.8c-4.6-0.2-9.2-0.3-13.8-0.5c0-0.1,0-0.2,0-0.3c4.6,0,9.2,0,13.8,0
			C-187.5,223.3-187.5,223.5-187.5,223.8z"/>
		<path class="st2" d="M-79,156.9c5,0.2,10.1,0.3,15.1,0.5c0,0,0,0,0,0.1c-5,0-10.1,0-15.1,0C-79,157.2-79,157.1-79,156.9z"/>
		<path class="st2" d="M-140.9,212.4c-2.4,0.2-4.9,0.3-7.3,0.5c-2.4,0.2-3.4-0.1-2.8-1.2c1.7,0,3.4-0.1,5.7-0.1
			c-0.6,0.3-0.9,0.4-1.5,0.7C-144.7,212.3-142.8,212.3-140.9,212.4C-140.9,212.4-140.9,212.4-140.9,212.4z"/>
		<path class="st2" d="M210,157.6c-1.5,0-2.9-0.1-4.2-0.1c2.2,0,4.6,0,7,0c0.1,0.2,0.1,0.3,0.2,0.5c-2.3,0.2-4.5,0.3-6.8,0.5
			c-0.1-0.1-0.2-0.3-0.2-0.4c1.3-0.1,2.7-0.2,4-0.3C210,157.7,210,157.6,210,157.6z"/>
		<path class="st2" d="M183,222.2c4.6-0.1,9.3-0.2,13.9-0.3c0,0.1,0,0.2,0,0.3c-4.6,0.1-9.3,0.2-13.9,0.2
			C183,222.3,183,222.2,183,222.2z"/>
		<path class="st2" d="M163.3,221.5c4.2,0.1,8.4,0.2,12.6,0.3c0,0,0,0.1,0,0.1c-4.2,0-8.4,0-12.6,0
			C163.3,221.8,163.3,221.7,163.3,221.5z"/>
		<path class="st2" d="M-78.3,229.5c3.5,0.1,7,0.2,10.4,0.4c0,0,0,0.1-0.1,0.1c-3.5,0-7,0-10.5,0C-78.4,229.8-78.4,229.6-78.3,229.5
			z"/>
		<path class="st2" d="M48.3,229.2c-4.9-0.1-9.8-0.2-14.7-0.3c0,0,0-0.1,0-0.1c4.9,0,9.8,0,14.7,0C48.4,228.9,48.4,229.1,48.3,229.2
			z"/>
		<path class="st2" d="M70.2,229.8c-2.8-0.2-5.5-0.4-8.3-0.6c0-0.1,0.1-0.2,0.1-0.3c2.8,0.1,5.7,0.3,8.5,0.4
			C70.4,229.5,70.3,229.6,70.2,229.8z"/>
		<path class="st2" d="M134.2,204.4c-1.7,0.3-2.4,0.4-3.8,0.6c3.6,0.1,6.6,0.1,9.6,0.2c0,0.1-0.1,0.3-0.1,0.4
			c-9.6-0.3-19.3-0.6-28.9-0.8c0-0.1,0-0.3,0-0.4C118.4,204.4,125.7,204.4,134.2,204.4z"/>
		<path class="st3" d="M240.4,207.3c9.2-0.2,18.4-0.4,27.6-0.5c-8.8,1.7-18.3,0.2-27.4,0.9C240.5,207.6,240.5,207.4,240.4,207.3z"/>
		<path class="st3" d="M260.9,204.4c-7.8-0.2-15.6-0.4-23.3-0.6c0,0,0-0.1,0-0.1c7.8,0,15.6,0,23.4,0C261,204,261,204.2,260.9,204.4
			z"/>
		<path class="st2" d="M149.2,205.8c1.8,0,5.5-0.4,6.9,0.1c3.3,1.2,7.2,0.6,10.7,1.1c-3.6,0-7.2,0.2-10.7-0.1
			C153.4,206.7,151,206.1,149.2,205.8z"/>
		<path class="st2" d="M208.4,177.4c2.8,0,5.7,0.2,8.5,0c5.4-0.2,10.6-0.1,15.7,0.4c0,0.1,0,0.3,0,0.4c-10.5,0-21,0-31.4,0
			c-0.1,0-0.1-0.1-0.2-0.1c2.5-0.3,5.1-0.5,7.6-0.8L208.4,177.4z"/>
		<path class="st2" d="M-55.8,175.2c-0.7-0.2-1.3-0.3-2-0.5c10.5-0.2,20.9-0.5,31.3-0.7c1.1,0,2.3,0.5,3.3,1.1c-2.4,0-4.8,0-7.4,0
			c0.5-0.2,0.9-0.3,0.8-0.3c-8.5,0.1-17.3,0.3-26.1,0.4C-56,175.2-55.8,175.2-55.8,175.2z"/>
		<path class="st2" d="M141.2,175.8c-6.1,0.2-12.2,0.4-18.3,0.6c-0.1-0.1-0.1-0.2-0.2-0.3c3.1-0.2,6.1-0.6,9.2-0.6
			c3-0.1,6,0.1,9.1,0.2C141.1,175.7,141.2,175.8,141.2,175.8z"/>
		<path class="st2" d="M208.5,177.4c-3.1-0.2-6.3-0.4-9.4-0.6c0-0.1,0-0.1,0.1-0.2c4,0,8.1,0,13.3,0c-2,0.4-3,0.6-4,0.9
			C208.4,177.4,208.5,177.4,208.5,177.4z"/>
		<path class="st2" d="M32.5,183.2c-5.5,0-11,0-16.5,0c0-0.1,0-0.2,0-0.3c5.5,0,11,0,16.5,0C32.5,183.1,32.5,183.1,32.5,183.2z"/>
		<path class="st3" d="M257.7,178c-3.4-0.1-6.9-0.2-10.3-0.3c0-0.1,0-0.3,0.1-0.4c3.4,0.1,6.9,0.1,10.3,0.2
			C257.7,177.7,257.7,177.8,257.7,178z"/>
		<path class="st3" d="M256.9,184.2c-2.6-0.2-5.1-0.3-7.7-0.5c0.1-0.2,0.1-0.3,0.2-0.5c2.6,0.1,5.2,0.2,7.8,0.3
			C257.1,183.7,257,184,256.9,184.2z"/>
		<path class="st2" d="M129.2,246.7c-1.2-0.9,0.9-0.8,2.1-0.8c6.1-0.1,12.2-0.2,18.3-0.3c7.3-0.2,14.7-0.4,22-0.6
			c1,0,2.2-0.1,2.9,0.1c5.8,1.4,12.2,0.7,18.3,0.8c4.8,0.1,9.6,0,14.4,0c0,0.2,0,0.5,0,0.7c-15.6,0-31.1,0-46.7,0
			c0,0-0.1-0.1-0.1-0.1c2.1-0.1,4.2-0.2,6.3-0.3c0-0.1-0.1-0.3-0.1-0.4C154.1,246.1,141.6,246.4,129.2,246.7
			C129.2,246.7,129.2,246.7,129.2,246.7z"/>
		<path class="st2" d="M57.3,247.5c-14.6,0.6-29.3,0.3-43.9,0.1c0-0.2,0-0.4,0-0.6c14.6,0,29.3,0,43.9,0
			C57.3,247.1,57.3,247.3,57.3,247.5z"/>
		<path class="st2" d="M123.3,247.2c-2-0.2-4-0.4-6-0.6c0.1-0.1,0.1-0.3,0.2-0.4c3.9,0.2,7.8,0.4,11.7,0.5c0,0,0,0,0,0
			c-2,0.2-4,0.3-6,0.5C123.2,247.2,123.3,247.2,123.3,247.2z"/>
		<path class="st2" d="M194.2,188.6c3.3,0.1,6.7,0.3,10,0.4c0,0.1,0,0.2,0,0.3c-3.3-0.1-6.7-0.1-10-0.2
			C194.2,188.9,194.2,188.7,194.2,188.6z"/>
		<path class="st2" d="M179.6,188.7c-4.6,0-9.3,0-13.9,0c0-0.1,0-0.2,0-0.3c4.6,0,9.3,0,13.9,0C179.6,188.6,179.6,188.6,179.6,188.7
			z"/>
		<path class="st2" d="M9.4,159.2c6.2-0.2,12.4-0.4,18.6-0.6c0,0.1,0.1,0.2,0.1,0.3c-1.5,0.1-3.1,0.2-4.6,0.3c0,0.1,0,0.2,0,0.3
			c13.6,0,27.1,0,41.3,0c-1,0.4-1.4,0.7-2.1,1c1.4,0.1,2.5,0.2,3.6,0.3c0,0.1,0,0.2,0,0.3c-2.8,0-6,0.3-8.4-0.1
			c-7.6-1.2-15.4-0.3-23-0.7c-6.1-0.4-12.4,0.2-18.3-1C14.8,159,11.9,159.3,9.4,159.2C9.5,159.2,9.4,159.2,9.4,159.2z"/>
		<path class="st2" d="M61.4,161.7c3.6,0,7.2,0,10.8,0c0,0.1,0,0.2,0,0.3c-3.6,0-7.2,0-10.7,0C61.5,161.9,61.4,161.8,61.4,161.7z"/>
		<path class="st2" d="M78.4,161.5c3,0.1,6,0.2,8.9,0.4c-0.1,0.2-0.2,0.5-0.3,0.7c-2.9-0.2-5.9-0.4-8.8-0.6
			C78.3,161.8,78.3,161.7,78.4,161.5z"/>
		<path class="st2" d="M47.8,161.6c-3.5,0.8-7.2-0.6-10.8-0.2c3.6-0.1,7.1-0.3,10.7-0.4C47.7,161.2,47.8,161.4,47.8,161.6z"/>
		<path class="st2" d="M-74.3,195.9c-4.7-0.1-9.3-0.2-14-0.3c0-0.2,0.1-0.4,0.1-0.6c4.6,0.2,9.3,0.4,13.9,0.6
			C-74.3,195.7-74.3,195.8-74.3,195.9z"/>
		<path class="st2" d="M247.9,238.4c-7.3,0-14.7,0-22,0c0-0.1,0-0.2,0-0.2c7.4,0,14.7,0,22.1,0C248,238.2,247.9,238.3,247.9,238.4z"
			/>
		<path class="st2" d="M130.2,239.9c3.8,0,7.6,0,11.4,0c0,0.1,0,0.2,0,0.2c-3.8,0-7.6,0-11.4,0C130.2,240.1,130.2,240,130.2,239.9z"
			/>
	</g>
	<rect x="-0.7" y="157" class="st4" width="301" height="92.7"/>
	<rect x="-0.2" y="157.2" class="st4" width="301.5" height="93.6"/>
</g>
<path class="st5" d="M130.8,54.2"/>
<g>
	<path class="st6" d="M52.8,51.9c0-0.8,0-2.4,0.1-4.7c0.1-2.3,0.1-3.9,0.1-4.7c0-2,0-4.6-0.1-7.8s-0.1-5.8-0.1-7.8
		c0-1.8,0.3-2.7,1-2.7c1.1,0,2,0.2,2.8,0.7s1.4,1.2,1.8,2.1c0.4,0.9,0.6,1.9,0.6,3.1c0,2-0.8,4-2.4,6.2c0.9,0.9,1.6,1.7,2.1,2.5
		c0.5,0.8,0.9,1.6,1.1,2.5s0.3,1.9,0.3,3c0,1,0,1.8-0.1,2.4s-0.2,1.2-0.3,1.7s-0.4,1-0.7,1.4c-0.3,0.4-0.7,0.8-1.3,1.1
		c-0.5,0.4-1.2,0.7-1.9,1c-0.2,0-0.4,0.1-0.7,0.2c-0.3,0.1-0.5,0.2-0.7,0.2h-0.1C53.3,52.4,52.8,52.2,52.8,51.9z M54,36l0.1,0
		c0.5,0,1.1-0.2,1.6-0.7c0.5-0.5,0.9-1.1,1.2-1.8c0.3-0.7,0.6-1.5,0.7-2.2s0.3-1.5,0.3-2.2c0-0.6-0.1-1.1-0.4-1.7
		c-0.3-0.6-0.7-1-1.1-1.4c-0.5-0.4-1-0.5-1.5-0.5c-0.6,0-1,0.5-1,1.6c0,1.2,0,2.7,0.1,4.5C54,33.3,54,34.8,54,36z M54.2,50.9
		c0,0,0.1,0,0.1,0l0.1,0c0.8,0,1.6-0.3,2.3-0.8c0.7-0.5,1.3-1.2,1.7-2c0.4-0.8,0.6-1.8,0.6-2.7c0-4.4-1.1-7.1-3.2-8
		c-0.3,0-0.6,0.1-1,0.2c-0.4,0.1-0.7,0.2-0.9,0.2C54.2,41.3,54.2,45.7,54.2,50.9z"/>
	<path class="st6" d="M72.4,52.8l-0.5-0.2c-0.3-0.3-0.6-1.2-1-2.6c-0.3-1.4-0.7-3-1-4.7c-0.2-1.5-0.5-2.9-0.9-4.2
		c-0.3-1.2-0.6-1.9-0.9-1.9h-0.1c-0.5,0-0.8,0.2-0.8,0.5c0,1.3,0.1,4.1,0.3,8.2c0.1,2.2,0.2,3.5,0.3,3.9l-0.3,0.6h-0.5l-0.3-0.3
		c-0.4-10.8-0.6-18.6-0.6-23.5c0-0.3,0-0.5,0-0.7c0-0.2,0.1-0.3,0.2-0.5c0.1-0.2,0.3-0.3,0.5-0.3c1.2,0,2.3,0.3,3,0.9
		c0.8,0.6,1.2,1.5,1.2,2.7v2.7c0,0.5-0.1,1.1-0.4,1.9c-0.3,0.8-0.6,1.5-1,2.2c-0.3,0.6-0.5,0.9-0.5,0.9c0,0.1,0.5,2.1,1.4,5.9
		s1.5,5.9,1.5,6.1c0,0,0,0.1,0.1,0.1c0,0.1,0.1,0.2,0.3,0.5c0.2,0.4,0.3,0.7,0.3,0.9C72.8,52.6,72.7,52.8,72.4,52.8z M67.4,38.3
		L67.4,38.3c0.5,0.1,1-0.2,1.3-0.6c0.4-0.5,0.7-1.1,0.9-1.8c0.2-0.7,0.3-1.4,0.4-2c0.1-0.6,0.2-1.2,0.2-1.6c0-0.6,0-1-0.1-1.4
		S70,30,69.8,29.6c-0.2-0.4-0.4-0.7-0.8-1s-0.8-0.3-1.4-0.3c-0.1,0-0.2,0.1-0.3,0.3c-0.1,0.2-0.1,0.4-0.1,0.6c0,1.2,0,2.7,0.1,4.5
		C67.4,35.5,67.4,37,67.4,38.3z"/>
	<path class="st6" d="M82.4,52.9c-2.9,0-4.4-4.6-4.4-13.7v-1.3c0-6.9,0.9-10.4,2.7-10.4c0.1,0,0.3,0,0.5,0.1c0.5,0.2,1,0.3,1.5,0.4
		s0.8,0.1,0.8,0.1c0.5,0.1,1,0.6,1.4,1.4c0.5,0.9,0.9,2.1,1.2,3.5c0.3,1.4,0.4,3,0.4,4.5l-0.1,0.2l0,2.2l0,2.2c0,0.5,0,1.1,0,1.6
		c0,0.5,0,1.1-0.1,1.8c-0.1,0.8-0.2,1.5-0.3,2.1s-0.3,1.2-0.5,1.9c-0.2,0.7-0.5,1.2-0.8,1.7s-0.6,0.8-1.1,1.1
		C83.5,52.7,83,52.9,82.4,52.9z M79.3,42.1c0,1.1,0.1,2.4,0.3,4c0.1,1.1,0.3,2,0.5,2.8c0.2,0.8,0.5,1.4,0.8,2
		c0.4,0.6,0.8,0.9,1.3,0.9c0.5,0,0.9-0.2,1.3-0.5c0.4-0.4,0.7-0.9,0.9-1.5c0.5-1.4,0.7-2.8,0.9-4.2c0.1-1.3,0.1-2.5,0.1-3.6
		c0-0.9-0.1-2.4-0.2-4.4c-0.1-2-0.2-3.4-0.2-4.4l-0.1-0.3l0.1-0.2c0-0.7-0.1-1.4-0.4-2c-0.3-0.6-0.7-1.1-1.1-1.5
		c-0.5-0.4-1-0.6-1.6-0.6c-1.1,0-1.8,0.5-2,1.6c-0.1,0.5-0.2,1.1-0.2,1.6c0,0.1,0,0.4,0,0.9c0,0.4,0,0.9-0.1,1.5s-0.1,1-0.2,1.4
		c0,0.3,0,0.9-0.1,1.7c-0.1,0.9-0.1,1.5-0.1,1.7l0,1.5L79.3,42.1z"/>
	<path class="st6" d="M97,52.7c-0.4,0-0.8-0.1-1.3-0.4c-0.5-0.3-0.8-0.6-1.1-0.9c-0.3-0.4-0.6-1.7-0.8-3.8s-0.3-4.4-0.4-7.1l0-1.2
		c0-3.3-0.1-5.9-0.1-7.6c0-1.7-0.1-2.9-0.2-3.6l0.2-0.5c0.6,0.1,0.9,0.8,0.9,2.1l0.1,9.9c0,0.8,0.1,2.1,0.2,3.9s0.2,3.2,0.2,3.9
		c0,2.8,0.9,4.2,2.8,4.2c1.1,0,1.9-2.6,2.2-7.8l0.1-0.8c0.2-6.1,0.3-11.1,0.3-15.2l0-0.3l0-0.3c0-0.3,0.2-0.4,0.6-0.4
		c0.3,0,0.5,0.1,0.5,0.2c0.1,0.2,0.1,0.6,0.1,1.3c0,1.9-0.1,3.2-0.2,3.8c0,0.1,0,0.2,0,0.2c0,0.2,0,0.7-0.1,1.5
		c-0.1,0.8-0.1,1.2-0.1,1.5c0,0.1,0,0.3,0,0.4c0,0.1,0,0.2,0,0.4c0,0.5-0.1,1.3-0.1,2.5c0,2.4-0.1,4.5-0.2,6.1
		c-0.1,2.1-0.4,4-0.9,5.5c-0.3,0.8-0.6,1.4-1.1,1.8S97.6,52.7,97,52.7z"/>
	<path class="st6" d="M107.2,40.8c0-0.7,0.1-1.7,0.2-2.9l0.2-2.3l0-0.5c0.1-1.7,0.3-3,0.4-3.9c0.2-0.9,0.6-1.8,1.1-2.4
		s1.4-1.1,2.5-1.2c0.2,0,0.4,0,0.6,0c0.8,0,1.1,0.2,1.1,0.5c0,0.2-0.1,0.3-0.2,0.4c-0.2,0.1-0.3,0.2-0.5,0.2l-0.3,0l-0.4,0
		c-0.4,0-0.8,0.1-1.1,0.4c-0.3,0.3-0.6,0.7-0.8,1.2c-0.3,0.6-0.5,1.1-0.6,1.7c-0.2,0.6-0.3,1.2-0.4,1.9c-0.1,0.8-0.2,1.5-0.2,2.1
		s-0.1,1.2-0.1,2c0,1-0.1,2-0.1,2.9c0,1.2,0,2.1,0.1,2.7c0.2,0.3,0.3,0.7,0.3,1.2c0.1,0.5,0.1,1.3,0.2,2.4c0,0.9,0.2,1.6,0.3,2.2
		c0.2,0.6,0.5,1.1,0.9,1.5c0.5,0.4,1.2,0.6,2,0.6c0.3,0,0.6-0.1,0.9-0.3c0.3-0.2,0.5-0.5,0.6-0.9c0.2-0.4,0.3-0.8,0.4-1.2
		s0.2-0.8,0.2-1.4c0.1-1,0.1-1.9,0.1-2.8v-2.1c-0.3-0.3-0.7-0.4-1.3-0.4l-0.3,0c-0.1,0-0.2,0-0.4,0c-0.6,0-0.9-0.1-0.9-0.4
		c0-0.4,0.3-0.6,0.9-0.6c0.5,0,1.2,0,1.9,0.1c0.5,0.1,0.8,0.1,1.1,0.2c0.3,0.1,0.4,0.2,0.4,0.4c0,0.3-0.1,0.7-0.2,1.4
		c-0.1,0.6-0.2,1.1-0.2,1.4c0,0.8,0,1.7,0.1,2.9c0,1.1,0.1,2.1,0.1,2.9c-1.3,1.3-2.6,1.9-3.8,1.9c-1.1,0-2-0.1-2.5-0.4
		c-0.5-0.3-1-0.8-1.2-1.6c-0.3-0.8-0.5-2-0.7-3.8C107.4,44.3,107.2,42.3,107.2,40.8z"/>
	<path class="st6" d="M128.3,52.2c-0.1-5.2-0.2-8.6-0.2-10l-0.1-0.1l0.1-0.3c0-0.4,0-0.9-0.1-1.4l-0.6-0.1c-0.2,0.1-0.5,0.1-0.7,0.1
		c-0.2,0-0.6-0.1-1.2-0.2c-0.5-0.1-0.9-0.2-1.2-0.2l-0.4,0.1c0,0.5,0,1.3-0.1,2.3c0,1-0.1,1.8-0.1,2.3l0.1,0.2c0,0.7,0,1.7,0.1,3.1
		c0.1,1.4,0.1,2.4,0.1,3.1c0,0.3-0.1,0.5-0.2,0.7c-0.1,0.2-0.3,0.3-0.5,0.3c-0.5,0-0.8-0.7-0.8-2.2l0-3.4l0-3.4c0-2.3,0-3.5-0.1-3.6
		c0.1-0.2,0.2-1.1,0.2-2.5c0-1.1,0-2.5-0.1-4.4c-0.1-2.1-0.1-3.5-0.1-4.3c0-0.2,0.1-0.3,0.2-0.5c0.1-0.1,0.3-0.2,0.4-0.2
		c0.5,0,0.7,0.7,0.7,2.2c0,1.2,0,2.8-0.1,4.6c0,1.8-0.1,3.3-0.1,4.5c0,0.3,1,0.4,2.9,0.4h0.1c0.5,0,0.8-0.1,1-0.3s0.3-0.5,0.3-0.9
		c0-1.2-0.1-2.9-0.2-5.1c-0.2-2.4-0.3-4.1-0.3-5.1c0-0.1,0.1-0.3,0.2-0.4c0.1-0.1,0.3-0.2,0.4-0.2c0,0,0.1,0,0.3,0.1l0.3,0.1
		c0,2.1,0.1,5,0.2,8.7c0.2,3.7,0.2,6.6,0.2,8.7c0,2.9,0.1,5.3,0.2,7.4l-0.2,0.4C129.4,52.3,129,52.2,128.3,52.2z M127.1,38.8
		L127.1,38.8L127.1,38.8L127.1,38.8z"/>
	<path class="st6" d="M139.5,51.9l-0.4-0.3l0-1.4l0-1.3l0-0.7l0-0.7c0-0.3,0-0.6-0.1-0.9c0-2-0.1-5.1-0.4-9.3
		c-0.3-4.3-0.4-7.2-0.4-8.9c-1.6,0-2.6,0-3.1-0.1c-0.5-0.1-0.8-0.3-0.8-0.6c0.1-0.3,0.3-0.4,0.7-0.4c0.6,0,1.6,0.1,3.2,0.2
		c1.5,0.1,2.6,0.2,3.2,0.2l0.8,0l0.8,0c0.4,0,0.7,0.2,0.7,0.5c0,0.2-0.1,0.3-0.2,0.4c-0.2,0.1-0.4,0.1-0.6,0.1c-0.3,0-0.8,0-1.6-0.1
		c-0.7,0-1.3-0.1-1.6-0.1c-0.1,0-0.1,0-0.1,0.1c0,0.1,0,0.4,0,0.7c0,2.4,0.1,6.1,0.4,10.9c0.3,4.9,0.4,8.5,0.4,10.9
		c0,0.2-0.1,0.3-0.3,0.5C139.9,51.9,139.7,51.9,139.5,51.9z"/>
	<path class="st6" d="M164.9,51.9l-0.4-0.3l0-1.4l0-1.3l0-0.7l0-0.7c0-0.3,0-0.6-0.1-0.9c0-2-0.1-5.1-0.4-9.3
		c-0.3-4.3-0.4-7.2-0.4-8.9c-1.6,0-2.6,0-3.1-0.1c-0.5-0.1-0.8-0.3-0.8-0.6c0.1-0.3,0.3-0.4,0.7-0.4c0.6,0,1.6,0.1,3.2,0.2
		c1.5,0.1,2.6,0.2,3.2,0.2l0.8,0l0.8,0c0.4,0,0.7,0.2,0.7,0.5c0,0.2-0.1,0.3-0.2,0.4c-0.2,0.1-0.4,0.1-0.6,0.1c-0.3,0-0.8,0-1.6-0.1
		c-0.7,0-1.3-0.1-1.6-0.1c-0.1,0-0.1,0-0.1,0.1c0,0.1,0,0.4,0,0.7c0,2.4,0.1,6.1,0.4,10.9c0.3,4.9,0.4,8.5,0.4,10.9
		c0,0.2-0.1,0.3-0.3,0.5C165.3,51.9,165.1,51.9,164.9,51.9z"/>
	<path class="st6" d="M178.5,52.9c-2.9,0-4.4-4.6-4.4-13.7v-1.3c0-6.9,0.9-10.4,2.7-10.4c0.1,0,0.3,0,0.5,0.1c0.5,0.2,1,0.3,1.5,0.4
		s0.8,0.1,0.8,0.1c0.5,0.1,1,0.6,1.4,1.4c0.5,0.9,0.9,2.1,1.2,3.5c0.3,1.4,0.4,3,0.4,4.5l-0.1,0.2l0,2.2l0,2.2c0,0.5,0,1.1,0,1.6
		c0,0.5,0,1.1-0.1,1.8c-0.1,0.8-0.2,1.5-0.3,2.1s-0.3,1.2-0.5,1.9c-0.2,0.7-0.5,1.2-0.8,1.7s-0.6,0.8-1.1,1.1
		C179.5,52.7,179,52.9,178.5,52.9z M175.3,42.1c0,1.1,0.1,2.4,0.3,4c0.1,1.1,0.3,2,0.5,2.8c0.2,0.8,0.5,1.4,0.8,2
		c0.4,0.6,0.8,0.9,1.3,0.9c0.5,0,0.9-0.2,1.3-0.5c0.4-0.4,0.7-0.9,0.9-1.5c0.5-1.4,0.7-2.8,0.9-4.2c0.1-1.3,0.1-2.5,0.1-3.6
		c0-0.9-0.1-2.4-0.2-4.4c-0.1-2-0.2-3.4-0.2-4.4l-0.1-0.3l0.1-0.2c0-0.7-0.1-1.4-0.4-2c-0.3-0.6-0.7-1.1-1.1-1.5
		c-0.5-0.4-1-0.6-1.6-0.6c-1.1,0-1.8,0.5-2,1.6c-0.1,0.5-0.2,1.1-0.2,1.6c0,0.1,0,0.4,0,0.9c0,0.4,0,0.9-0.1,1.5s-0.1,1-0.2,1.4
		c0,0.3,0,0.9-0.1,1.7c-0.1,0.9-0.1,1.5-0.1,1.7l0,1.5L175.3,42.1z"/>
	<path class="st6" d="M205.1,52.3c0.2-0.6,0.4-2.8,0.4-6.5c0-0.8,0-1.8-0.1-3.1l-0.2-2.6l-0.2-0.5l0.1-0.5c-0.1-0.4-0.4-0.9-0.7-1.7
		c-0.3-0.8-0.6-1.6-0.9-2.5l-0.4-1.1c-0.1-0.3-0.3-0.9-0.6-1.8s-0.6-1.6-0.7-2.2c-0.2-0.6-0.3-1.1-0.3-1.4L202,28
		c0.2,0,0.6,0.8,1.1,2.4c0.3,1,0.7,2.3,1.2,3.8l0.3,0.9c0.5,1.5,0.8,2.3,1,2.4l0.1-0.7l-0.1-0.2c0.2-0.2,0.4-1.1,0.7-2.7
		c0.3-1.6,0.6-3.1,0.9-4.4c0.4-1.4,0.7-2.1,1-2.1c0.1,0,0.2,0,0.3,0.1c0.1,0.1,0.2,0.2,0.2,0.3c0,0.4-0.3,1.7-1,4l-0.1,0.4
		c-0.2,0.7-0.4,1.2-0.5,1.7c-0.1,0.5-0.3,1-0.4,1.7c-0.3,1.2-0.4,2.3-0.4,3.4c0.1,0.3,0.2,0.5,0.2,0.6c0,0.1,0,0.3-0.1,0.5
		c-0.1,0.2-0.1,0.4-0.1,0.6c0,0.3,0,0.9,0.1,1.7c0.1,0.8,0.1,1.4,0.1,1.7c0,1.1,0,2.1,0,2.9s0,1.9,0,3v0.2c0,1.7-0.3,2.5-0.8,2.5
		c-0.1,0-0.2,0-0.3-0.1C205.3,52.5,205.2,52.4,205.1,52.3z"/>
	<path class="st6" d="M219.2,52.9c-2.9,0-4.4-4.6-4.4-13.7v-1.3c0-6.9,0.9-10.4,2.7-10.4c0.1,0,0.3,0,0.5,0.1c0.5,0.2,1,0.3,1.5,0.4
		s0.8,0.1,0.8,0.1c0.5,0.1,1,0.6,1.4,1.4c0.5,0.9,0.9,2.1,1.2,3.5c0.3,1.4,0.4,3,0.4,4.5l-0.1,0.2l0,2.2l0,2.2c0,0.5,0,1.1,0,1.6
		c0,0.5,0,1.1-0.1,1.8c-0.1,0.8-0.2,1.5-0.3,2.1s-0.3,1.2-0.5,1.9c-0.2,0.7-0.5,1.2-0.8,1.7s-0.6,0.8-1.1,1.1
		C220.2,52.7,219.8,52.9,219.2,52.9z M216.1,42.1c0,1.1,0.1,2.4,0.3,4c0.1,1.1,0.3,2,0.5,2.8c0.2,0.8,0.5,1.4,0.8,2
		c0.4,0.6,0.8,0.9,1.3,0.9c0.5,0,0.9-0.2,1.3-0.5c0.4-0.4,0.7-0.9,0.9-1.5c0.5-1.4,0.7-2.8,0.9-4.2c0.1-1.3,0.1-2.5,0.1-3.6
		c0-0.9-0.1-2.4-0.2-4.4c-0.1-2-0.2-3.4-0.2-4.4l-0.1-0.3l0.1-0.2c0-0.7-0.1-1.4-0.4-2c-0.3-0.6-0.7-1.1-1.1-1.5
		c-0.5-0.4-1-0.6-1.6-0.6c-1.1,0-1.8,0.5-2,1.6c-0.1,0.5-0.2,1.1-0.2,1.6c0,0.1,0,0.4,0,0.9c0,0.4,0,0.9-0.1,1.5s-0.1,1-0.2,1.4
		c0,0.3,0,0.9-0.1,1.7c-0.1,0.9-0.1,1.5-0.1,1.7l0,1.5L216.1,42.1z"/>
	<path class="st6" d="M233.8,52.7c-0.4,0-0.8-0.1-1.3-0.4c-0.5-0.3-0.8-0.6-1.1-0.9c-0.3-0.4-0.6-1.7-0.8-3.8s-0.3-4.4-0.4-7.1
		l0-1.2c0-3.3-0.1-5.9-0.1-7.6c0-1.7-0.1-2.9-0.2-3.6l0.2-0.5c0.6,0.1,0.9,0.8,0.9,2.1l0.1,9.9c0,0.8,0.1,2.1,0.2,3.9
		s0.2,3.2,0.2,3.9c0,2.8,0.9,4.2,2.8,4.2c1.1,0,1.9-2.6,2.2-7.8l0.1-0.8c0.2-6.1,0.3-11.1,0.3-15.2l0-0.3l0-0.3
		c0-0.3,0.2-0.4,0.6-0.4c0.3,0,0.5,0.1,0.5,0.2c0.1,0.2,0.1,0.6,0.1,1.3c0,1.9-0.1,3.2-0.2,3.8c0,0.1,0,0.2,0,0.2
		c0,0.2,0,0.7-0.1,1.5c-0.1,0.8-0.1,1.2-0.1,1.5c0,0.1,0,0.3,0,0.4c0,0.1,0,0.2,0,0.4c0,0.5-0.1,1.3-0.1,2.5c0,2.4-0.1,4.5-0.2,6.1
		c-0.1,2.1-0.4,4-0.9,5.5c-0.3,0.8-0.6,1.4-1.1,1.8S234.4,52.7,233.8,52.7z"/>
</g>
</svg>
