<?xml version="1.0" encoding="utf-8"?>
<!-- Generator: Adobe Illustrator 20.0.0, SVG Export Plug-In . SVG Version: 6.00 Build 0)  -->
<svg version="1.1" id="Layer_1" xmlns="http://www.w3.org/2000/svg" xmlns:xlink="http://www.w3.org/1999/xlink" x="0px" y="0px"
	 viewBox="0 0 300 249" style="enable-background:new 0 0 300 249;" xml:space="preserve">
<style type="text/css">
	.st0{fill:#4F311B;stroke:#7C5226;stroke-width:0.25;stroke-miterlimit:10;}
</style>
<path class="st0" d="M104.2,26.5c-26.8-13.7-64.1-1.3-73.4,28.2c-1.6,4.7-3.1,10.9-3.1,15.5c1.6,4.7,0,10.9,3.1,15.5
	c4.7,9.3,6.2,18.6,15.5,24.8c14,9.3,31,14,46.5,9.3c9.3-3.1,18.6-7.8,23.3-15.5c9.3-12.4,15.5-23.3,12.4-38.8
	c-3.1-10.9-6.2-21.7-14-29.5c-12.4-10.9-26.4-15.5-43.4-14c-6.2,0-10.9,3.1-17.1,6.2C35.4,39.2,26.1,61,30.8,81.1
	c6.2,23.3,26.4,40.3,51.2,38.8c7.8,0,15.5-3.1,23.3-7.8C117.7,104.4,123.9,92,127,78c3.1-24.8-12.4-45-34.1-52.8
	c-10.9-3.1-23.3-1.6-34.1,3.1C32.3,40.8,23,76.5,41.7,99.8c3.1,3.1,6.2,6.2,9.3,9.3c24.8,17.1,55.9,9.3,69.8-17.1
	c14-27.9-4.7-62.1-35.7-66.7c-7.8-1.6-15.5,1.6-21.7,3.1C54.1,33,46.3,39.2,40.1,47c-15.5,24.8-4.7,57.4,23.3,66.7
	c9.3,1.6,17.1,3.1,26.4,1.6c9.3-3.1,18.6-9.3,24.8-17.1c12.4-17.1,10.9-41.9-4.7-57.4c3.1-3.1,1.6,1.6,1.6,1.6
	c-20.2-26.4-62.1-14-71.4,14c-3.1,7.8-6.2,15.5-1.6,23.3C32.3,61,41.7,42.3,57.2,33c-1.6,3.1-6.2,1.6-6.2,6.2
	c17.1-17.1,48.1-14,63.6,6.2c3.1,3.1,4.7,7.8,6.2,10.9c-3.1,0-3.1-1.6-3.1-3.1c7.8,20.2,1.6,45-17.1,55.9c4.7,0,7.8-3.1,9.3-7.8
	c-17.1,18.6-55.9,17.1-68.3-6.2c1.6,3.1,1.6,4.7,4.7,6.2c-18.6-20.2-15.5-52.8,7.8-66.7c7.8-4.7,17.1-9.3,26.4-7.8
	s18.6,3.1,26.4,7.8c15.5,10.9,20.2,29.5,17.1,48.1c-3.1,12.4-10.9,21.7-20.2,27.9c-10.9,4.7-20.2,9.3-32.6,6.2
	c-7.8-1.6-15.5-4.7-21.7-9.3c-4.7-4.7-9.3-9.3-12.4-15.5c-1.6-4.7-3.1-10.9-4.7-15.5c-1.6-6.2,0-12.4,1.6-18.6
	C37,47,46.3,39.2,54.1,31.5L52.5,33c26.4-18.6,65.2-4.7,72.9,26.4c0,4.7,3.1,9.3,1.6,15.5c-3.1,20.2-15.5,35.7-34.1,41.9
	c-4.7,1.6-10.9,1.6-15.5,1.6c-17.1,1.6-34.1-10.9-41.9-26.4c-6.2-14-7.8-29.5,0-43.4c7.8-10.9,17.1-21.7,31-24.8
	c15.5-4.7,32.6,0,45,10.9c10.9,9.3,17.1,23.3,17.1,37.2c0,7.8-3.1,15.5-6.2,23.3c-4.7,9.3-12.4,15.5-20.2,20.2
	c-6.2,3.1-12.4,4.7-18.6,6.2c-9.3,0-18.6-1.6-26.4-4.7c-6.2-3.1-12.4-7.8-17.1-14c-10.9-14-14-31-9.3-48.1
	C40.1,29.9,68,14.4,94.4,22.2c6.2,3.1,12.4,6.2,18.6,10.9c9.3,9.3,14,20.2,17.1,32.6c1.6,9.3,0,17.1-3.1,24.8
	c-10.9,24.8-40.3,40.3-66.7,29.5c-6.2-3.1-12.4-7.8-18.6-12.4c-9.3-7.8-10.9-17.1-14-27.9c-7.8-35.7,24.8-68.3,60.5-60.5
	c10.9,3.1,20.2,6.2,27.9,14c7.8,6.2,9.3,15.5,14,24.8c3.1,6.2,1.6,14,1.6,20.2c-3.1,32.6-35.7,52.8-68.3,45
	c-12.4-3.1-20.2-10.9-27.9-20.2c-6.2-9.3-9.3-18.6-10.9-29.5c0-12.4,3.1-21.7,9.3-32.6c6.2-7.8,12.4-14,21.7-18.6
	c31-15.5,72.9,4.7,77.6,40.3c1.6,10.9,0,20.2-3.1,29.5c-3.1,7.8-9.3,14-14,20.2c-4.7,4.7-10.9,7.8-17.1,10.9
	c-12.4,4.7-24.8,4.7-37.2,1.6c-34.1-10.9-51.2-52.8-29.5-83.8c20.2-27.9,59-35.7,83.8-12.4c4.7,6.2,9.3,12.4,14,18.6
	c6.2,10.9,6.2,23.3,4.7,35.7c-1.6,6.2-4.7,12.4-7.8,18.6c-3.1,6.2-7.8,9.3-12.4,14c-6.2,4.7-12.4,7.8-18.6,10.9
	c-37.2,12.4-80.7-21.7-74.5-62.1c3.1-14,10.9-26.4,20.2-37.2c9.3-7.8,20.2-12.4,31-14c18.6-1.6,35.7,6.2,49.7,18.6
	c1.6,3.1,4.7,6.2,6.2,9.3v-1.6c14,29.5,7.8,71.4-24.8,85.3c-9.3,3.1-20.2,6.2-31,6.2c-9.3-1.6-20.2-4.7-27.9-10.9
	c-9.3-9.3-18.6-18.6-21.7-31c-3.1-9.3-4.7-18.6-3.1-27.9c3.1-10.9,7.8-20.2,14-27.9c-3.1,1.6-3.1,3.1-4.7,6.2
	c1.6-3.1,3.1-6.2,6.2-7.8c-1.6,1.6-3.1,3.1-4.7,6.2c15.5-23.3,46.5-31,71.4-21.7c12.4,4.7,23.3,14,29.5,26.4c0-3.1-3.1-4.7-4.7-6.2
	c18.6,24.8,14,62.1-9.3,82.2c1.6-1.6,3.1-3.1,3.1-4.7l-1.6,1.6c1.6-1.6,3.1-3.1,4.7-3.1c-6.2,1.6-9.3,9.3-15.5,10.9
	c3.1-1.6,4.7-3.1,7.8-4.7C89.8,137,51,133.9,30.8,109.1c6.2,4.7,12.4,10.9,20.2,15.5c-23.3-12.4-34.1-40.3-32.6-65.2
	c-1.6,12.4,1.6,23.3,4.7,35.7c-1.6-9.3-6.2-18.6-4.7-29.5c0,1.6,0,4.7,0,6.2c0-37.2,34.1-63.6,69.8-62.1c-1.6,0-4.7,0-6.2,0h1.6
	c-10.9,0-20.2,7.8-31,7.8c10.9-7.8,23.3-6.2,35.7-6.2h-1.6C102.2,16,116.1,20.6,127,33c-7.8-14-26.4-14-38.8-21.7
	c9.3,1.6,17.1,4.7,24.8,9.3c-3.1,0-6.2-3.1-9.3-4.7c14,6.2,26.4,17.1,31,32.6c0-1.6,0-4.7-1.6-6.2c12.4,24.8,6.2,55.9-12.4,74.5
	c15.5-15.5,21.7-38.8,17.1-60.5v1.6c0-3.1,0-4.7-1.6-7.8c3.1,3.1,0,9.3,3.1,12.4c-4.7-15.5-9.3-32.6-24.8-40.3h1.6
	c-23.3-14-52.8-15.5-74.5,1.6c4.7,0,6.2-7.8,10.9-6.2c-6.2,0-9.3,7.8-15.5,9.3c0,0,4.7-6.2,0-1.6C9.1,57.9,15.3,107.5,52.5,126.1
	c10.9,4.7,21.7,6.2,34.1,4.7c7.8-1.6,14-4.7,21.7-7.8c9.3-4.7,17.1-14,23.3-24.8c3.1-6.2,4.7-12.4,6.2-18.6c0,1.6,0,3.1-1.6,3.1
	c1.6-6.2,1.6-14,1.6-20.2c0,1.6,0,1.6,0,3.1c-1.6-20.2-15.5-35.7-31-46.5h1.6c-35.7-18.6-82.2,3.1-86.9,45c0,6.2,0,10.9,0,17.1
	c1.6,7.8,3.1,15.5,7.8,21.7s9.3,12.4,15.5,15.5c9.3,4.7,17.1,9.3,26.4,10.9c9.3,1.6,18.6,0,26.4-3.1c9.3-3.1,18.6-9.3,24.8-17.1
	c4.7-7.8,10.9-14,12.4-23.3c1.6-14,1.6-29.5-6.2-41.9c-10.9-18.6-31-32.6-54.3-29.5C41.7,19.1,16.8,47,23,81.1
	c1.6,7.8,4.7,14,7.8,20.2c4.7,7.8,12.4,14,20.2,18.6c-1.6,0-3.1,0-3.1-1.6c17.1,7.8,40.3,12.4,57.4,1.6c-1.6,1.6-1.6,3.1-4.7,3.1
	c29.5-12.4,41.9-51.2,26.4-77.6c3.1,1.6,3.1,6.2,4.7,9.3c-7.8-21.7-31-38.8-54.3-37.2h1.6c-6.2,0-12.4-1.6-17.1,3.1
	c1.6-1.6,3.1-1.6,4.7-1.6c-6.2,1.6-14,3.1-18.6,7.8c3.1-1.6,6.2-4.7,9.3-6.2c-18.6,10.9-34.1,31-31,54.3v-1.6
	c-1.6,10.9,6.2,20.2,9.3,29.5c-3.1-1.6,1.6-7.8-4.7-7.8c4.7,3.1,1.6,9.3,7.8,10.9c-4.7-3.1-4.7-9.3-7.8-12.4
	c12.4,34.1,65.2,40.3,86.9,12.4l-1.6,1.6c9.3-4.7,10.9-14,14-23.3c-3.1,1.6-3.1,4.7-3.1,7.8c1.6-3.1,3.1-4.7,3.1-7.8
	c-1.6,4.7-6.2,7.8-4.7,14c1.6-3.1,3.1-7.8,4.7-10.9c0,1.6,0,3.1-1.6,3.1c12.4-27.9-6.2-62.1-35.7-69.8c-6.2,0-10.9-3.1-17.1-1.6
	c-7.8,1.6-14,4.7-20.2,6.2l1.6-1.6c-6.2,1.6-9.3,6.2-14,9.3c4.7,0,6.2-7.8,10.9-6.2c-3.1,0-6.2,3.1-9.3,4.7
	c3.1-3.1,6.2-4.7,10.9-6.2c-26.4,9.3-37.2,46.5-23.3,71.4c6.2,7.8,14,15.5,23.3,20.2c7.8,3.1,17.1,6.2,24.8,4.7
	c3.1,0,9.3,1.6,12.4-1.6c-1.6,1.6-4.7,1.6-6.2,1.6c4.7-1.6,10.9-1.6,15.5-4.7v1.6c1.6-1.6,1.6-3.1,4.7-3.1c-1.6,1.6-4.7,1.6-6.2,3.1
	c32.6-15.5,40.3-65.2,10.8-86.5C109,29.7,106.5,27.9,104.2,26.5z"/>
</svg>
