<?xml version="1.0" encoding="utf-8"?>
<!-- Generator: Adobe Illustrator 20.0.0, SVG Export Plug-In . SVG Version: 6.00 Build 0)  -->
<svg version="1.1" id="Layer_1" xmlns="http://www.w3.org/2000/svg" xmlns:xlink="http://www.w3.org/1999/xlink" x="0px" y="0px"
	 viewBox="0 0 300 250" style="enable-background:new 0 0 300 250;" xml:space="preserve">
<style type="text/css">
	.st0{fill:#3A261E;stroke:#7D4C30;stroke-width:5;stroke-miterlimit:10;}
	.st1{fill:#563819;}
	.st2{fill:#6D481D;}
	.st3{fill:#A56D3E;}
	.st4{fill:none;stroke:#7D4C30;stroke-width:6;stroke-miterlimit:10;}
	.st5{fill:none;stroke:#663D29;stroke-width:4;stroke-miterlimit:10;}
	.st6{fill:#7D4C30;stroke:#7D4C30;stroke-width:4;stroke-miterlimit:10;}
	.st7{fill:#7D4C30;stroke:#7D4C30;stroke-width:6;stroke-miterlimit:10;}
	.st8{fill:#663D29;}
</style>
<g>
	
		<ellipse transform="matrix(0.8494 -0.5278 0.5278 0.8494 -45.0247 99.134)" class="st0" cx="151.2" cy="128.5" rx="90.1" ry="90.1"/>
	<g>
		<path class="st1" d="M170,162.6c-3.1-2.5-2.7-8,0.8-12.3c3.5-4.2,8.8-5.6,11.9-3.1"/>
		<path class="st1" d="M182.6,147.3c2.7,3.2,2.7,8.5-1.1,12.8c-3.8,4.3-9.5,4.5-12.6,2"/>
		<ellipse transform="matrix(0.6369 -0.771 0.771 0.6369 -55.2293 191.2577)" class="st2" cx="175.4" cy="154.3" rx="10.2" ry="7"/>
		<g>
			<path class="st3" d="M176.5,152.2c0,0-0.1-0.3-0.2-0.8c-0.1-0.5-0.1-1.1-0.1-1.7c0-0.6-0.1-1.1-0.2-1.6c-0.1-0.2-0.1-0.4-0.2-0.6
				c0-0.1-0.1-0.2-0.1-0.2s0.1,0,0.2,0.1c0.1,0.1,0.3,0.2,0.5,0.4c0.2,0.2,0.3,0.5,0.5,0.8c0.1,0.3,0.2,0.7,0.2,1
				c0,0.7-0.1,1.4-0.3,1.8C176.7,151.9,176.5,152.2,176.5,152.2z"/>
		</g>
		<g>
			<path class="st3" d="M172.1,157.1c0,0-0.1-0.3-0.2-0.6c-0.1-0.4-0.1-0.8-0.1-1.2c0-0.4,0-0.8-0.1-1.1c0-0.3-0.1-0.6-0.1-0.6
				s0.3,0,0.6,0.3c0.2,0.1,0.3,0.3,0.4,0.6c0.1,0.2,0.1,0.5,0.2,0.8c0,0.5-0.1,1-0.3,1.3C172.3,156.8,172.1,157.1,172.1,157.1z"/>
		</g>
		<g>
			<path class="st3" d="M175.8,153.2c0,0,0.2-0.2,0.5-0.5c0.3-0.2,0.7-0.5,1.2-0.6c0.3,0,0.5-0.1,0.8,0c0.3,0,0.5,0.1,0.7,0.3
				c0.3,0.2,0.4,0.5,0.4,0.5s-0.3,0-0.6,0c-0.3,0-0.7,0.1-1.1,0.2c-0.4,0.1-0.9,0.1-1.2,0.1C176.1,153.3,175.8,153.2,175.8,153.2z"
				/>
		</g>
		<g>
			<path class="st3" d="M178,156.5c0,0-0.4,0.1-0.9,0c-0.5,0-1.1-0.1-1.7-0.2c-0.6-0.1-1.1-0.2-1.6-0.1c-0.2,0-0.4,0-0.6,0
				c-0.1,0-0.2,0-0.2,0s0-0.1,0.1-0.2c0.1-0.1,0.3-0.3,0.5-0.4c0.2-0.2,0.5-0.3,0.9-0.3c0.3-0.1,0.7,0,1,0c0.7,0.1,1.3,0.4,1.7,0.7
				C177.7,156.2,178,156.5,178,156.5z"/>
		</g>
		<path class="st3" d="M169.7,160.7c0,0,4.4-8.7,11.2-12.8"/>
	</g>
	<g>
		<path class="st1" d="M190.1,155.8c-3.1-2.5-2.7-8,0.8-12.3c3.5-4.2,8.8-5.6,11.9-3.1"/>
		<path class="st1" d="M202.8,140.5c2.7,3.2,2.7,8.5-1.1,12.8c-3.8,4.3-9.5,4.5-12.6,2"/>
		<ellipse transform="matrix(0.6369 -0.771 0.771 0.6369 -42.6778 204.3131)" class="st2" cx="195.6" cy="147.5" rx="10.2" ry="7"/>
		<g>
			<path class="st3" d="M196.6,145.4c0,0-0.1-0.3-0.2-0.8c-0.1-0.5-0.1-1.1-0.1-1.7c0-0.6-0.1-1.1-0.2-1.6c-0.1-0.2-0.1-0.4-0.2-0.6
				c0-0.1-0.1-0.2-0.1-0.2s0.1,0,0.2,0.1c0.1,0.1,0.3,0.2,0.5,0.4c0.2,0.2,0.3,0.5,0.5,0.8c0.1,0.3,0.2,0.7,0.2,1
				c0,0.7-0.1,1.4-0.3,1.8C196.8,145.1,196.6,145.4,196.6,145.4z"/>
		</g>
		<g>
			<path class="st3" d="M192.3,150.3c0,0-0.1-0.3-0.2-0.6c-0.1-0.4-0.1-0.8-0.1-1.2c0-0.4,0-0.8-0.1-1.1c0-0.3-0.1-0.6-0.1-0.6
				s0.3,0,0.6,0.3c0.2,0.1,0.3,0.3,0.4,0.6c0.1,0.2,0.1,0.5,0.2,0.8c0,0.5-0.1,1-0.3,1.3C192.4,150,192.3,150.3,192.3,150.3z"/>
		</g>
		<g>
			<path class="st3" d="M196,146.5c0,0,0.2-0.2,0.5-0.5c0.3-0.2,0.7-0.5,1.2-0.6c0.3,0,0.5-0.1,0.8,0c0.3,0,0.5,0.1,0.7,0.3
				c0.3,0.2,0.4,0.5,0.4,0.5s-0.3,0-0.6,0c-0.3,0-0.7,0.1-1.1,0.2c-0.4,0.1-0.9,0.1-1.2,0.1C196.3,146.5,196,146.5,196,146.5z"/>
		</g>
		<g>
			<path class="st3" d="M198.1,149.7c0,0-0.4,0.1-0.9,0c-0.5,0-1.1-0.1-1.7-0.2c-0.6-0.1-1.1-0.2-1.6-0.1c-0.2,0-0.4,0-0.6,0
				c-0.1,0-0.2,0-0.2,0s0-0.1,0.1-0.2c0.1-0.1,0.3-0.3,0.5-0.4c0.2-0.2,0.5-0.3,0.9-0.3c0.3-0.1,0.7,0,1,0c0.7,0.1,1.3,0.4,1.7,0.7
				C197.8,149.4,198.1,149.7,198.1,149.7z"/>
		</g>
		<path class="st3" d="M189.8,153.9c0,0,4.4-8.7,11.2-12.8"/>
	</g>
	<g>
		<path class="st1" d="M171.1,185.8c-3.9-0.8-6.1-5.8-5-11.2c1.1-5.4,5.2-9.1,9.1-8.3"/>
		<path class="st1" d="M175.2,166.3c3.9,1.5,6.3,6.3,5,11.8c-1.4,5.6-6.3,8.5-10.2,7.6"/>
		<ellipse transform="matrix(0.203 -0.9792 0.9792 0.203 -35.0406 308.5973)" class="st2" cx="172" cy="175.8" rx="10.2" ry="7"/>
		<g>
			<path class="st3" d="M172,173.5c0,0-0.3-0.2-0.5-0.7c-0.3-0.4-0.6-1-0.9-1.5c-0.3-0.5-0.6-1-0.9-1.3c-0.1-0.2-0.3-0.3-0.4-0.4
				c-0.1-0.1-0.2-0.2-0.2-0.2s0.1,0,0.2,0c0.2,0,0.4,0,0.6,0.1c0.3,0.1,0.5,0.3,0.8,0.5c0.3,0.2,0.5,0.5,0.7,0.8
				c0.3,0.6,0.5,1.3,0.6,1.8C172.1,173.2,172,173.5,172,173.5z"/>
		</g>
		<g>
			<path class="st3" d="M170.4,179.8c0,0-0.2-0.2-0.5-0.4c-0.2-0.3-0.5-0.7-0.7-1c-0.2-0.4-0.4-0.7-0.6-1c-0.2-0.3-0.4-0.5-0.4-0.5
				s0.3-0.1,0.7,0c0.2,0,0.4,0.2,0.6,0.3c0.2,0.2,0.4,0.4,0.5,0.6c0.3,0.5,0.4,0.9,0.4,1.3C170.5,179.6,170.4,179.8,170.4,179.8z"/>
		</g>
		<g>
			<path class="st3" d="M171.9,174.7c0,0,0-0.3,0.2-0.6c0.1-0.3,0.4-0.8,0.8-1.1c0.2-0.1,0.4-0.3,0.7-0.4c0.2-0.1,0.5-0.1,0.7-0.1
				c0.4,0,0.6,0.2,0.6,0.2s-0.3,0.1-0.5,0.3c-0.3,0.2-0.6,0.4-0.9,0.7c-0.3,0.2-0.7,0.5-1,0.7C172.2,174.7,171.9,174.7,171.9,174.7z
				"/>
		</g>
		<g>
			<path class="st3" d="M175.3,176.6c0,0-0.3,0.2-0.7,0.4c-0.5,0.2-1.1,0.4-1.6,0.6c-0.6,0.2-1.1,0.4-1.5,0.6
				c-0.2,0.1-0.4,0.2-0.5,0.3c-0.1,0.1-0.2,0.1-0.2,0.1s0-0.1,0-0.2c0-0.2,0.1-0.4,0.2-0.6c0.1-0.2,0.4-0.5,0.6-0.7
				c0.3-0.2,0.6-0.4,0.9-0.5c0.7-0.2,1.3-0.2,1.8-0.2C175,176.5,175.3,176.6,175.3,176.6z"/>
		</g>
		<path class="st3" d="M169.9,184.2c0,0-0.2-9.8,4-16.5"/>
	</g>
	<g>
		<path class="st1" d="M188.1,174c-4-0.4-6.7-5.2-6.1-10.6c0.6-5.5,4.2-9.6,8.2-9.1"/>
		<path class="st1" d="M190.2,154.2c4,1.1,6.9,5.6,6.1,11.3c-0.8,5.7-5.4,9-9.3,8.6"/>
		<ellipse transform="matrix(0.1035 -0.9946 0.9946 0.1035 5.4735 334.0611)" class="st2" cx="188" cy="164" rx="10.2" ry="7"/>
		<g>
			<path class="st3" d="M187.8,161.7c0,0-0.3-0.2-0.6-0.6c-0.3-0.4-0.7-0.9-1-1.4c-0.3-0.5-0.7-0.9-1-1.2c-0.2-0.2-0.3-0.3-0.4-0.4
				c-0.1-0.1-0.2-0.2-0.2-0.2s0.1,0,0.2,0c0.2,0,0.4,0,0.6,0.1c0.3,0.1,0.6,0.2,0.8,0.4c0.3,0.2,0.5,0.5,0.7,0.7
				c0.4,0.6,0.6,1.2,0.7,1.7C187.8,161.4,187.8,161.7,187.8,161.7z"/>
		</g>
		<g>
			<path class="st3" d="M186.8,168.1c0,0-0.3-0.1-0.5-0.4c-0.3-0.3-0.5-0.6-0.8-0.9c-0.2-0.3-0.5-0.6-0.7-0.9
				c-0.2-0.2-0.4-0.5-0.4-0.5s0.3-0.1,0.7-0.1c0.2,0,0.4,0.1,0.6,0.3c0.2,0.1,0.4,0.3,0.6,0.5c0.3,0.4,0.4,0.9,0.5,1.3
				C186.9,167.9,186.8,168.1,186.8,168.1z"/>
		</g>
		<g>
			<path class="st3" d="M187.8,162.9c0,0,0-0.3,0.1-0.6c0.1-0.4,0.3-0.8,0.7-1.2c0.2-0.2,0.4-0.3,0.7-0.4c0.2-0.1,0.5-0.2,0.7-0.1
				c0.4,0,0.7,0.2,0.7,0.2s-0.2,0.2-0.5,0.4c-0.3,0.2-0.5,0.5-0.8,0.8c-0.3,0.3-0.6,0.6-0.9,0.8
				C188.1,162.8,187.8,162.9,187.8,162.9z"/>
		</g>
		<g>
			<path class="st3" d="M191.4,164.5c0,0-0.3,0.2-0.7,0.5c-0.4,0.2-1,0.5-1.5,0.7c-0.5,0.2-1,0.5-1.4,0.8c-0.2,0.1-0.3,0.3-0.5,0.4
				c-0.1,0.1-0.2,0.2-0.2,0.2s0-0.1,0-0.2c0-0.2,0.1-0.4,0.2-0.6c0.1-0.3,0.3-0.5,0.6-0.7c0.2-0.2,0.6-0.4,0.9-0.6
				c0.6-0.3,1.3-0.4,1.8-0.4C191,164.4,191.4,164.5,191.4,164.5z"/>
		</g>
		<path class="st3" d="M186.8,172.5c0,0-1.2-9.7,2.3-16.8"/>
	</g>
	<g>
		<path class="st1" d="M179.8,189.7c-3.1-2.5-2.7-8,0.8-12.3c3.5-4.2,8.8-5.6,11.9-3.1"/>
		<path class="st1" d="M192.4,174.4c2.7,3.2,2.7,8.5-1.1,12.8c-3.8,4.3-9.5,4.5-12.6,2"/>
		<ellipse transform="matrix(0.6369 -0.771 0.771 0.6369 -72.5206 208.6443)" class="st2" cx="185.2" cy="181.3" rx="10.2" ry="7"/>
		<g>
			<path class="st3" d="M186.3,179.3c0,0-0.1-0.3-0.2-0.8c-0.1-0.5-0.1-1.1-0.1-1.7c0-0.6-0.1-1.1-0.2-1.6c-0.1-0.2-0.1-0.4-0.2-0.6
				c0-0.1-0.1-0.2-0.1-0.2s0.1,0,0.2,0.1c0.1,0.1,0.3,0.2,0.5,0.4c0.2,0.2,0.3,0.5,0.5,0.8c0.1,0.3,0.2,0.7,0.2,1
				c0,0.7-0.1,1.4-0.3,1.8C186.5,179,186.3,179.3,186.3,179.3z"/>
		</g>
		<g>
			<path class="st3" d="M181.9,184.1c0,0-0.1-0.3-0.2-0.6c-0.1-0.4-0.1-0.8-0.1-1.2c0-0.4,0-0.8-0.1-1.1c0-0.3-0.1-0.6-0.1-0.6
				s0.3,0,0.6,0.3c0.2,0.1,0.3,0.3,0.4,0.6c0.1,0.2,0.1,0.5,0.2,0.8c0,0.5-0.1,1-0.3,1.3C182.1,183.9,181.9,184.1,181.9,184.1z"/>
		</g>
		<g>
			<path class="st3" d="M185.7,180.3c0,0,0.2-0.2,0.5-0.5c0.3-0.2,0.7-0.5,1.2-0.6c0.3,0,0.5-0.1,0.8,0c0.3,0,0.5,0.1,0.7,0.3
				c0.3,0.2,0.4,0.5,0.4,0.5s-0.3,0-0.6,0c-0.3,0-0.7,0.1-1.1,0.2c-0.4,0.1-0.9,0.1-1.2,0.1C185.9,180.4,185.7,180.3,185.7,180.3z"
				/>
		</g>
		<g>
			<path class="st3" d="M187.8,183.5c0,0-0.4,0.1-0.9,0c-0.5,0-1.1-0.1-1.7-0.2c-0.6-0.1-1.1-0.2-1.6-0.1c-0.2,0-0.4,0-0.6,0
				c-0.1,0-0.2,0-0.2,0s0-0.1,0.1-0.2c0.1-0.1,0.3-0.3,0.5-0.4c0.2-0.2,0.5-0.3,0.9-0.3c0.3-0.1,0.7,0,1,0c0.7,0.1,1.3,0.4,1.7,0.7
				C187.5,183.3,187.8,183.5,187.8,183.5z"/>
		</g>
		<path class="st3" d="M179.5,187.7c0,0,4.4-8.7,11.2-12.8"/>
	</g>
	<g>
		<path class="st1" d="M198.8,169.5c-3.1-2.5-2.7-8,0.8-12.3c3.5-4.2,8.8-5.6,11.9-3.1"/>
		<path class="st1" d="M211.5,154.2c2.7,3.2,2.7,8.5-1.1,12.8c-3.8,4.3-9.5,4.5-12.6,2"/>
		<ellipse transform="matrix(0.6369 -0.771 0.771 0.6369 -50.0261 216.0039)" class="st2" cx="204.3" cy="161.1" rx="10.2" ry="7"/>
		<g>
			<path class="st3" d="M205.4,159.1c0,0-0.1-0.3-0.2-0.8c-0.1-0.5-0.1-1.1-0.1-1.7c0-0.6-0.1-1.1-0.2-1.6c-0.1-0.2-0.1-0.4-0.2-0.6
				c0-0.1-0.1-0.2-0.1-0.2s0.1,0,0.2,0.1c0.1,0.1,0.3,0.2,0.5,0.4c0.2,0.2,0.3,0.5,0.5,0.8c0.1,0.3,0.2,0.7,0.2,1
				c0,0.7-0.1,1.4-0.3,1.8C205.6,158.8,205.4,159.1,205.4,159.1z"/>
		</g>
		<g>
			<path class="st3" d="M201,163.9c0,0-0.1-0.3-0.2-0.6c-0.1-0.4-0.1-0.8-0.1-1.2c0-0.4,0-0.8-0.1-1.1c0-0.3-0.1-0.6-0.1-0.6
				s0.3,0,0.6,0.3c0.2,0.1,0.3,0.3,0.4,0.6c0.1,0.2,0.1,0.5,0.2,0.8c0,0.5-0.1,1-0.3,1.3C201.2,163.7,201,163.9,201,163.9z"/>
		</g>
		<g>
			<path class="st3" d="M204.7,160.1c0,0,0.2-0.2,0.5-0.5c0.3-0.2,0.7-0.5,1.2-0.6c0.3,0,0.5-0.1,0.8,0c0.3,0,0.5,0.1,0.7,0.3
				c0.3,0.2,0.4,0.5,0.4,0.5s-0.3,0-0.6,0c-0.3,0-0.7,0.1-1.1,0.2c-0.4,0.1-0.9,0.1-1.2,0.1C205,160.2,204.7,160.1,204.7,160.1z"/>
		</g>
		<g>
			<path class="st3" d="M206.8,163.3c0,0-0.4,0.1-0.9,0c-0.5,0-1.1-0.1-1.7-0.2c-0.6-0.1-1.1-0.2-1.6-0.1c-0.2,0-0.4,0-0.6,0
				c-0.1,0-0.2,0-0.2,0s0-0.1,0.1-0.2c0.1-0.1,0.3-0.3,0.5-0.4c0.2-0.2,0.5-0.3,0.9-0.3c0.3-0.1,0.7,0,1,0c0.7,0.1,1.3,0.4,1.7,0.7
				C206.6,163.1,206.8,163.3,206.8,163.3z"/>
		</g>
		<path class="st3" d="M198.5,167.5c0,0,4.4-8.7,11.2-12.8"/>
	</g>
	<g>
		<path class="st1" d="M206.3,150.1c-1.6-3.6,1.1-8.4,6.1-10.7c5-2.3,10.4-1.2,12,2.4"/>
		<path class="st1" d="M224.4,141.9c1.1,4-1.3,8.8-6.6,11c-5.3,2.2-10.5-0.1-12.2-3.7"/>
		
			<ellipse transform="matrix(0.9104 -0.4137 0.4137 0.9104 -40.7097 101.8831)" class="st2" cx="214.9" cy="144.9" rx="10.2" ry="7"/>
		<g>
			<path class="st3" d="M216.8,143.6c0,0,0-0.4,0.2-0.8c0.2-0.5,0.4-1,0.7-1.6c0.2-0.5,0.4-1.1,0.5-1.5c0-0.2,0.1-0.4,0.1-0.6
				c0-0.1,0-0.2,0-0.2s0.1,0.1,0.2,0.2c0.1,0.1,0.2,0.3,0.3,0.6c0.1,0.3,0.1,0.6,0.1,0.9c0,0.3-0.1,0.7-0.3,1
				c-0.3,0.6-0.7,1.2-1.1,1.5C217.1,143.4,216.8,143.6,216.8,143.6z"/>
		</g>
		<g>
			<path class="st3" d="M210.7,146c0,0,0-0.3,0.1-0.6c0.1-0.4,0.3-0.8,0.4-1.2c0.2-0.4,0.3-0.7,0.4-1c0.1-0.3,0.2-0.6,0.2-0.6
				s0.2,0.2,0.4,0.6c0.1,0.2,0.1,0.4,0.1,0.7c0,0.3-0.1,0.5-0.2,0.8c-0.2,0.5-0.6,0.8-0.9,1.1C211,145.9,210.7,146,210.7,146z"/>
		</g>
		<g>
			<path class="st3" d="M215.7,144.2c0,0,0.3-0.1,0.6-0.2c0.4-0.1,0.9-0.1,1.4,0c0.2,0.1,0.5,0.2,0.7,0.3c0.2,0.2,0.4,0.3,0.5,0.5
				c0.2,0.4,0.2,0.7,0.2,0.7s-0.3-0.1-0.6-0.2c-0.3-0.1-0.7-0.2-1.1-0.3c-0.4-0.1-0.8-0.3-1.2-0.4
				C215.9,144.4,215.7,144.2,215.7,144.2z"/>
		</g>
		<g>
			<path class="st3" d="M216.2,148.1c0,0-0.3-0.1-0.8-0.4c-0.4-0.2-0.9-0.6-1.4-1c-0.5-0.3-1-0.6-1.4-0.8c-0.2-0.1-0.4-0.2-0.5-0.2
				c-0.1,0-0.2-0.1-0.2-0.1s0.1,0,0.2-0.1c0.1-0.1,0.4-0.1,0.6-0.2c0.3,0,0.6,0,0.9,0.1c0.3,0.1,0.6,0.3,0.9,0.5
				c0.6,0.4,1,0.9,1.2,1.4C216.1,147.7,216.2,148.1,216.2,148.1z"/>
		</g>
		<path class="st3" d="M206.9,148.2c0,0,7.8-5.9,15.7-6.5"/>
	</g>
	<g>
		<path class="st1" d="M223.2,168.4c-4,0.3-7.5-3.8-8-9.3c-0.5-5.5,2.4-10.2,6.3-10.5"/>
		<path class="st1" d="M221.6,148.6c4.2,0.3,7.8,4.2,8.1,9.9c0.3,5.7-3.6,9.9-7.6,10.2"/>
		
			<ellipse transform="matrix(0.9965 -8.330268e-02 8.330268e-02 0.9965 -12.4425 18.9857)" class="st2" cx="221.3" cy="158.6" rx="7" ry="10.2"/>
		<g>
			<path class="st3" d="M220.7,156.4c0,0-0.3-0.2-0.7-0.5c-0.4-0.3-0.8-0.7-1.3-1.2c-0.4-0.4-0.8-0.8-1.2-1
				c-0.2-0.1-0.4-0.2-0.5-0.3c-0.1-0.1-0.2-0.1-0.2-0.1s0.1,0,0.2-0.1c0.1,0,0.4-0.1,0.6-0.1c0.3,0,0.6,0.1,0.9,0.2
				c0.3,0.1,0.6,0.4,0.9,0.6c0.5,0.5,0.8,1.1,1,1.5C220.6,156,220.7,156.4,220.7,156.4z"/>
		</g>
		<g>
			<path class="st3" d="M220.9,162.9c0,0-0.3-0.1-0.6-0.3c-0.3-0.2-0.6-0.5-0.9-0.8c-0.3-0.3-0.6-0.5-0.8-0.8
				c-0.3-0.2-0.5-0.4-0.5-0.4s0.2-0.2,0.7-0.2c0.2,0,0.5,0,0.7,0.1c0.2,0.1,0.5,0.3,0.6,0.4c0.4,0.4,0.6,0.8,0.7,1.2
				C220.9,162.6,220.9,162.9,220.9,162.9z"/>
		</g>
		<g>
			<path class="st3" d="M220.9,157.6c0,0,0-0.3,0-0.6c0-0.4,0.2-0.8,0.5-1.3c0.2-0.2,0.3-0.4,0.6-0.5c0.2-0.1,0.4-0.2,0.6-0.3
				c0.4-0.1,0.7,0.1,0.7,0.1s-0.2,0.2-0.4,0.5c-0.2,0.2-0.4,0.6-0.7,0.9c-0.2,0.3-0.5,0.7-0.8,0.9
				C221.1,157.4,220.9,157.6,220.9,157.6z"/>
		</g>
		<g>
			<path class="st3" d="M224.7,158.4c0,0-0.2,0.3-0.6,0.6c-0.4,0.3-0.9,0.7-1.4,1c-0.5,0.3-0.9,0.7-1.2,1c-0.2,0.2-0.3,0.3-0.4,0.4
				c-0.1,0.1-0.2,0.2-0.2,0.2s0-0.1,0-0.2c0-0.2,0-0.4,0.1-0.6c0.1-0.3,0.2-0.6,0.4-0.8c0.2-0.3,0.5-0.5,0.7-0.7
				c0.6-0.4,1.2-0.6,1.7-0.7C224.3,158.4,224.7,158.4,224.7,158.4z"/>
		</g>
		<path class="st3" d="M221.7,167.2c0,0-3-9.3-0.9-17"/>
	</g>
	<g>
		<path class="st1" d="M209.4,182.1c-3.1-2.5-2.7-8,0.8-12.3c3.5-4.2,8.8-5.6,11.9-3.1"/>
		<path class="st1" d="M222,166.8c2.7,3.2,2.7,8.5-1.1,12.8c-3.8,4.3-9.5,4.5-12.6,2"/>
		<ellipse transform="matrix(0.6369 -0.771 0.771 0.6369 -55.9259 228.7157)" class="st2" cx="214.8" cy="173.7" rx="10.2" ry="7"/>
		<g>
			<path class="st3" d="M215.9,171.7c0,0-0.1-0.3-0.2-0.8c-0.1-0.5-0.1-1.1-0.1-1.7c0-0.6-0.1-1.1-0.2-1.6c-0.1-0.2-0.1-0.4-0.2-0.6
				c0-0.1-0.1-0.2-0.1-0.2s0.1,0,0.2,0.1c0.1,0.1,0.3,0.2,0.5,0.4c0.2,0.2,0.3,0.5,0.5,0.8c0.1,0.3,0.2,0.7,0.2,1
				c0,0.7-0.1,1.4-0.3,1.8C216.1,171.4,215.9,171.7,215.9,171.7z"/>
		</g>
		<g>
			<path class="st3" d="M211.5,176.5c0,0-0.1-0.3-0.2-0.6c-0.1-0.4-0.1-0.8-0.1-1.2c0-0.4,0-0.8-0.1-1.1c0-0.3-0.1-0.6-0.1-0.6
				s0.3,0,0.6,0.3c0.2,0.1,0.3,0.3,0.4,0.6c0.1,0.2,0.1,0.5,0.2,0.8c0,0.5-0.1,1-0.3,1.3C211.7,176.3,211.5,176.5,211.5,176.5z"/>
		</g>
		<g>
			<path class="st3" d="M215.3,172.7c0,0,0.2-0.2,0.5-0.5c0.3-0.2,0.7-0.5,1.2-0.6c0.3,0,0.5-0.1,0.8,0c0.3,0,0.5,0.1,0.7,0.3
				c0.3,0.2,0.4,0.5,0.4,0.5s-0.3,0-0.6,0c-0.3,0-0.7,0.1-1.1,0.2c-0.4,0.1-0.9,0.1-1.2,0.1C215.5,172.8,215.3,172.7,215.3,172.7z"
				/>
		</g>
		<g>
			<path class="st3" d="M217.4,176c0,0-0.4,0.1-0.9,0c-0.5,0-1.1-0.1-1.7-0.2c-0.6-0.1-1.1-0.2-1.6-0.1c-0.2,0-0.4,0-0.6,0
				c-0.1,0-0.2,0-0.2,0s0-0.1,0.1-0.2c0.1-0.1,0.3-0.3,0.5-0.4c0.2-0.2,0.5-0.3,0.9-0.3c0.3-0.1,0.7,0,1,0c0.7,0.1,1.3,0.4,1.7,0.7
				C217.1,175.7,217.4,176,217.4,176z"/>
		</g>
		<path class="st3" d="M209.1,180.1c0,0,4.4-8.7,11.2-12.8"/>
	</g>
	<g>
		<path class="st1" d="M191.8,179.6c-0.4-4,3.7-7.6,9.2-8.1c5.5-0.5,10.2,2.2,10.6,6.2"/>
		<path class="st1" d="M211.5,177.7c-0.3,4.2-4.1,7.9-9.8,8.3c-5.7,0.4-9.9-3.5-10.3-7.4"/>
		
			<ellipse transform="matrix(0.9951 -9.879231e-02 9.879231e-02 0.9951 -16.5535 20.7787)" class="st2" cx="201.5" cy="177.5" rx="10.2" ry="7"/>
		<g>
			<path class="st3" d="M203.7,176.9c0,0,0.2-0.3,0.5-0.7c0.3-0.4,0.7-0.8,1.1-1.3c0.4-0.4,0.8-0.9,1-1.2c0.1-0.2,0.2-0.4,0.3-0.5
				c0.1-0.1,0.1-0.2,0.1-0.2s0,0.1,0.1,0.2c0,0.1,0.1,0.4,0.1,0.6c0,0.3-0.1,0.6-0.2,0.9c-0.1,0.3-0.4,0.6-0.6,0.9
				c-0.5,0.5-1.1,0.9-1.5,1.1C204.1,176.8,203.7,176.9,203.7,176.9z"/>
		</g>
		<g>
			<path class="st3" d="M197.2,177.2c0,0,0.1-0.3,0.3-0.6c0.2-0.3,0.5-0.7,0.8-1c0.3-0.3,0.5-0.6,0.7-0.8c0.2-0.3,0.4-0.5,0.4-0.5
				s0.2,0.2,0.2,0.7c0,0.2,0,0.5-0.1,0.7c-0.1,0.2-0.3,0.5-0.4,0.7c-0.4,0.4-0.8,0.6-1.1,0.7C197.5,177.2,197.2,177.2,197.2,177.2z"
				/>
		</g>
		<g>
			<path class="st3" d="M202.5,177.1c0,0,0.3-0.1,0.6,0c0.4,0,0.8,0.2,1.3,0.5c0.2,0.2,0.4,0.3,0.6,0.6c0.1,0.2,0.2,0.4,0.3,0.6
				c0.1,0.4,0,0.7,0,0.7s-0.2-0.2-0.5-0.4c-0.3-0.2-0.6-0.4-0.9-0.7c-0.3-0.2-0.7-0.5-1-0.8C202.7,177.4,202.5,177.1,202.5,177.1z"
				/>
		</g>
		<g>
			<path class="st3" d="M201.8,180.9c0,0-0.3-0.2-0.6-0.6c-0.3-0.4-0.7-0.9-1-1.4c-0.3-0.5-0.7-0.9-1-1.2c-0.2-0.2-0.3-0.3-0.4-0.4
				c-0.1-0.1-0.2-0.2-0.2-0.2s0.1,0,0.2,0c0.2,0,0.4,0,0.6,0.1c0.3,0.1,0.6,0.2,0.8,0.4c0.3,0.2,0.5,0.5,0.7,0.7
				c0.4,0.6,0.6,1.2,0.7,1.7C201.8,180.5,201.8,180.9,201.8,180.9z"/>
		</g>
		<path class="st3" d="M192.9,178c0,0,9.3-3.1,17-1.2"/>
	</g>
	<g>
		<path class="st1" d="M190.8,202.5c-3.9-0.9-6-6-4.7-11.3c1.3-5.3,5.4-8.9,9.3-8"/>
		<path class="st1" d="M195.3,183.2c3.9,1.6,6.2,6.4,4.7,12c-1.5,5.5-6.5,8.3-10.4,7.4"/>
		<ellipse transform="matrix(0.228 -0.9736 0.9736 0.228 -39.3562 335.5461)" class="st2" cx="191.9" cy="192.6" rx="10.2" ry="7"/>
		<g>
			<path class="st3" d="M192,190.3c0,0-0.3-0.2-0.5-0.7c-0.3-0.4-0.6-1-0.8-1.5c-0.3-0.5-0.6-1-0.9-1.3c-0.1-0.2-0.3-0.3-0.4-0.4
				c-0.1-0.1-0.2-0.2-0.2-0.2s0.1,0,0.2,0c0.2,0,0.4,0,0.6,0.1c0.3,0.1,0.5,0.3,0.8,0.5c0.2,0.2,0.5,0.5,0.6,0.8
				c0.3,0.6,0.5,1.3,0.5,1.8C192,190,192,190.3,192,190.3z"/>
		</g>
		<g>
			<path class="st3" d="M190.2,196.6c0,0-0.2-0.2-0.5-0.5c-0.2-0.3-0.5-0.7-0.7-1c-0.2-0.4-0.4-0.7-0.5-1c-0.2-0.3-0.3-0.5-0.3-0.5
				s0.3-0.1,0.7,0c0.2,0.1,0.4,0.2,0.6,0.4c0.2,0.2,0.3,0.4,0.5,0.6c0.2,0.5,0.3,1,0.3,1.3C190.3,196.3,190.2,196.6,190.2,196.6z"/>
		</g>
		<g>
			<path class="st3" d="M191.9,191.5c0,0,0-0.3,0.2-0.6c0.2-0.3,0.4-0.7,0.9-1.1c0.2-0.1,0.5-0.3,0.7-0.3c0.2-0.1,0.5-0.1,0.7-0.1
				c0.4,0.1,0.6,0.3,0.6,0.3s-0.3,0.1-0.5,0.3c-0.3,0.2-0.6,0.4-0.9,0.6c-0.3,0.2-0.7,0.5-1,0.7
				C192.1,191.4,191.9,191.5,191.9,191.5z"/>
		</g>
		<g>
			<path class="st3" d="M195.2,193.5c0,0-0.3,0.2-0.8,0.4c-0.5,0.2-1.1,0.4-1.6,0.5c-0.6,0.2-1.1,0.4-1.5,0.6
				c-0.2,0.1-0.4,0.2-0.5,0.3c-0.1,0.1-0.2,0.1-0.2,0.1s0-0.1,0-0.2c0-0.2,0.1-0.4,0.3-0.6c0.1-0.2,0.4-0.5,0.6-0.7
				c0.3-0.2,0.6-0.3,0.9-0.5c0.7-0.2,1.3-0.2,1.8-0.2C194.9,193.4,195.2,193.5,195.2,193.5z"/>
		</g>
		<path class="st3" d="M189.6,200.9c0,0,0.1-9.8,4.4-16.4"/>
	</g>
	<g>
		<path class="st1" d="M168.3,208.2c-3.1-2.5-2.7-8,0.8-12.3c3.5-4.2,8.8-5.6,11.9-3.1"/>
		<path class="st1" d="M181,192.9c2.7,3.2,2.7,8.5-1.1,12.8c-3.8,4.3-9.5,4.5-12.6,2"/>
		<ellipse transform="matrix(0.6369 -0.771 0.771 0.6369 -90.9552 206.5344)" class="st2" cx="173.8" cy="199.8" rx="10.2" ry="7"/>
		<g>
			<path class="st3" d="M174.8,197.8c0,0-0.1-0.3-0.2-0.8c-0.1-0.5-0.1-1.1-0.1-1.7c0-0.6-0.1-1.1-0.2-1.6c-0.1-0.2-0.1-0.4-0.2-0.6
				c0-0.1-0.1-0.2-0.1-0.2s0.1,0,0.2,0.1c0.1,0.1,0.3,0.2,0.5,0.4c0.2,0.2,0.3,0.5,0.5,0.8c0.1,0.3,0.2,0.7,0.2,1
				c0,0.7-0.1,1.4-0.3,1.8C175.1,197.5,174.8,197.8,174.8,197.8z"/>
		</g>
		<g>
			<path class="st3" d="M170.5,202.6c0,0-0.1-0.3-0.2-0.6c-0.1-0.4-0.1-0.8-0.1-1.2c0-0.4,0-0.8-0.1-1.1c0-0.3-0.1-0.6-0.1-0.6
				s0.3,0,0.6,0.3c0.2,0.1,0.3,0.3,0.4,0.6c0.1,0.2,0.1,0.5,0.2,0.8c0,0.5-0.1,1-0.3,1.3C170.7,202.4,170.5,202.6,170.5,202.6z"/>
		</g>
		<g>
			<path class="st3" d="M174.2,198.8c0,0,0.2-0.2,0.5-0.5c0.3-0.2,0.7-0.5,1.2-0.6c0.3,0,0.5-0.1,0.8,0c0.3,0,0.5,0.1,0.7,0.3
				c0.3,0.2,0.4,0.5,0.4,0.5s-0.3,0-0.6,0c-0.3,0-0.7,0.1-1.1,0.2c-0.4,0.1-0.9,0.1-1.2,0.1C174.5,198.9,174.2,198.8,174.2,198.8z"
				/>
		</g>
		<g>
			<path class="st3" d="M176.3,202.1c0,0-0.4,0.1-0.9,0c-0.5,0-1.1-0.1-1.7-0.2c-0.6-0.1-1.1-0.2-1.6-0.1c-0.2,0-0.4,0-0.6,0
				c-0.1,0-0.2,0-0.2,0s0-0.1,0.1-0.2c0.1-0.1,0.3-0.3,0.5-0.4c0.2-0.2,0.5-0.3,0.9-0.3c0.3-0.1,0.7,0,1,0c0.7,0.1,1.3,0.4,1.7,0.7
				C176.1,201.8,176.3,202.1,176.3,202.1z"/>
		</g>
		<path class="st3" d="M168,206.2c0,0,4.4-8.7,11.2-12.8"/>
	</g>
	<g>
		<path class="st1" d="M184.4,64.5c1.1-3.8,6.3-5.6,11.6-4.1s8.6,5.9,7.5,9.7"/>
		<path class="st1" d="M203.5,70.1c-1.8,3.8-6.8,5.8-12.2,4c-5.5-1.8-7.9-7-6.8-10.8"/>
		<ellipse transform="matrix(0.2841 -0.9588 0.9588 0.2841 75.5913 233.6622)" class="st2" cx="194.3" cy="66.2" rx="7" ry="10.2"/>
		<g>
			<path class="st3" d="M196.5,66.4c0,0,0.3-0.2,0.7-0.5c0.4-0.3,1-0.5,1.5-0.8c0.5-0.2,1-0.5,1.4-0.8c0.2-0.1,0.3-0.3,0.4-0.4
				c0.1-0.1,0.2-0.2,0.2-0.2s0,0.1,0,0.2c0,0.2-0.1,0.4-0.2,0.6c-0.1,0.3-0.3,0.5-0.5,0.7c-0.2,0.2-0.6,0.4-0.9,0.6
				c-0.6,0.3-1.3,0.4-1.8,0.4C196.9,66.5,196.5,66.4,196.5,66.4z"/>
		</g>
		<g>
			<path class="st3" d="M190.4,64.3c0,0,0.2-0.2,0.5-0.4c0.3-0.2,0.7-0.4,1.1-0.6c0.4-0.2,0.7-0.3,1-0.5c0.3-0.2,0.5-0.3,0.5-0.3
				s0.1,0.3-0.1,0.7c-0.1,0.2-0.2,0.4-0.4,0.6c-0.2,0.2-0.4,0.3-0.6,0.4c-0.5,0.2-1,0.3-1.3,0.2C190.7,64.4,190.4,64.3,190.4,64.3z"
				/>
		</g>
		<g>
			<path class="st3" d="M195.4,66.2c0,0,0.3,0.1,0.6,0.2c0.3,0.2,0.7,0.5,1,0.9c0.1,0.2,0.3,0.5,0.3,0.7c0.1,0.3,0.1,0.5,0,0.7
				c-0.1,0.4-0.3,0.6-0.3,0.6s-0.1-0.3-0.3-0.5c-0.2-0.3-0.4-0.6-0.6-0.9c-0.2-0.3-0.5-0.7-0.6-1.1
				C195.4,66.5,195.4,66.2,195.4,66.2z"/>
		</g>
		<g>
			<path class="st3" d="M193.2,69.4c0,0-0.2-0.3-0.3-0.8c-0.2-0.5-0.3-1.1-0.5-1.7c-0.1-0.6-0.3-1.1-0.5-1.5
				c-0.1-0.2-0.2-0.4-0.3-0.5c-0.1-0.1-0.1-0.2-0.1-0.2s0.1,0,0.2,0.1c0.2,0,0.4,0.1,0.6,0.3c0.2,0.2,0.4,0.4,0.6,0.7
				c0.2,0.3,0.3,0.6,0.4,1c0.2,0.7,0.1,1.4,0.1,1.8C193.3,69.1,193.2,69.4,193.2,69.4z"/>
		</g>
		<path class="st3" d="M186.1,63.4c0,0,9.8,0.6,16.1,5.3"/>
	</g>
	<g>
		<path class="st1" d="M198.6,80.3c1.1-3.8,6.3-5.6,11.6-4.1s8.6,5.9,7.5,9.7"/>
		<path class="st1" d="M217.6,86c-1.8,3.8-6.8,5.8-12.2,4c-5.5-1.8-7.9-7-6.8-10.8"/>
		<ellipse transform="matrix(0.2841 -0.9588 0.9588 0.2841 70.5015 258.5762)" class="st2" cx="208.4" cy="82.1" rx="7" ry="10.2"/>
		<g>
			<path class="st3" d="M210.7,82.3c0,0,0.3-0.2,0.7-0.5c0.4-0.3,1-0.5,1.5-0.8c0.5-0.2,1-0.5,1.4-0.8c0.2-0.1,0.3-0.3,0.4-0.4
				c0.1-0.1,0.2-0.2,0.2-0.2s0,0.1,0,0.2c0,0.2-0.1,0.4-0.2,0.6c-0.1,0.3-0.3,0.5-0.5,0.7c-0.2,0.2-0.6,0.4-0.9,0.6
				c-0.6,0.3-1.3,0.4-1.8,0.4C211,82.3,210.7,82.3,210.7,82.3z"/>
		</g>
		<g>
			<path class="st3" d="M204.5,80.1c0,0,0.2-0.2,0.5-0.4c0.3-0.2,0.7-0.4,1.1-0.6c0.4-0.2,0.7-0.3,1-0.5c0.3-0.2,0.5-0.3,0.5-0.3
				s0.1,0.3-0.1,0.7c-0.1,0.2-0.2,0.4-0.4,0.6c-0.2,0.2-0.4,0.3-0.6,0.4c-0.5,0.2-1,0.3-1.3,0.2C204.8,80.2,204.5,80.1,204.5,80.1z"
				/>
		</g>
		<g>
			<path class="st3" d="M209.5,82.1c0,0,0.3,0.1,0.6,0.2c0.3,0.2,0.7,0.5,1,0.9c0.1,0.2,0.3,0.5,0.3,0.7c0.1,0.3,0.1,0.5,0,0.7
				c-0.1,0.4-0.3,0.6-0.3,0.6s-0.1-0.3-0.3-0.5c-0.2-0.3-0.4-0.6-0.6-0.9c-0.2-0.3-0.5-0.7-0.6-1.1
				C209.5,82.4,209.5,82.1,209.5,82.1z"/>
		</g>
		<g>
			<path class="st3" d="M207.3,85.3c0,0-0.2-0.3-0.3-0.8c-0.2-0.5-0.3-1.1-0.5-1.7c-0.1-0.6-0.3-1.1-0.5-1.5
				c-0.1-0.2-0.2-0.4-0.3-0.5c-0.1-0.1-0.1-0.2-0.1-0.2s0.1,0,0.2,0.1c0.2,0,0.4,0.1,0.6,0.3c0.2,0.2,0.4,0.4,0.6,0.7
				c0.2,0.3,0.3,0.6,0.4,1c0.2,0.7,0.1,1.4,0.1,1.8C207.5,84.9,207.3,85.3,207.3,85.3z"/>
		</g>
		<path class="st3" d="M200.3,79.3c0,0,9.8,0.6,16.1,5.3"/>
	</g>
	<g>
		<path class="st1" d="M163.6,74.6c-0.8-3.9,2.9-7.9,8.3-9c5.4-1.1,10.4,1.2,11.2,5.1"/>
		<path class="st1" d="M183.1,70.7c0.1,4.2-3.3,8.3-8.9,9.2c-5.7,0.9-10.2-2.5-11-6.4"/>
		<ellipse transform="matrix(0.9805 -0.1967 0.1967 0.9805 -10.6916 35.4442)" class="st2" cx="173.1" cy="71.5" rx="10.2" ry="7"/>
		<g>
			<path class="st3" d="M175.2,70.7c0,0,0.1-0.3,0.4-0.8c0.3-0.4,0.6-0.9,1-1.4c0.4-0.5,0.7-0.9,0.9-1.3c0.1-0.2,0.2-0.4,0.2-0.5
				c0.1-0.1,0.1-0.2,0.1-0.2s0,0.1,0.1,0.2c0.1,0.1,0.1,0.4,0.1,0.6c0,0.3,0,0.6-0.1,0.9c-0.1,0.3-0.3,0.6-0.5,0.9
				c-0.4,0.6-1,1-1.4,1.2C175.6,70.6,175.2,70.7,175.2,70.7z"/>
		</g>
		<g>
			<path class="st3" d="M168.8,71.6c0,0,0.1-0.3,0.2-0.6c0.2-0.3,0.4-0.7,0.7-1c0.3-0.3,0.5-0.6,0.7-0.9c0.2-0.3,0.3-0.5,0.3-0.5
				s0.2,0.2,0.3,0.6c0,0.2,0,0.5-0.1,0.7c-0.1,0.2-0.2,0.5-0.4,0.7c-0.3,0.4-0.7,0.7-1.1,0.8C169.1,71.6,168.8,71.6,168.8,71.6z"/>
		</g>
		<g>
			<path class="st3" d="M174.1,71c0,0,0.3-0.1,0.6-0.1c0.4,0,0.9,0.1,1.3,0.3c0.2,0.1,0.4,0.3,0.6,0.5c0.2,0.2,0.3,0.4,0.3,0.6
				c0.1,0.4,0,0.7,0,0.7s-0.2-0.2-0.5-0.4c-0.3-0.2-0.6-0.4-1-0.6c-0.4-0.2-0.7-0.4-1-0.7C174.2,71.3,174.1,71,174.1,71z"/>
		</g>
		<g>
			<path class="st3" d="M173.7,74.9c0,0-0.3-0.2-0.7-0.5c-0.4-0.3-0.8-0.8-1.2-1.3c-0.4-0.4-0.8-0.8-1.1-1.1
				c-0.2-0.1-0.3-0.3-0.5-0.3c-0.1-0.1-0.2-0.1-0.2-0.1s0.1,0,0.2-0.1c0.2,0,0.4-0.1,0.6,0c0.3,0,0.6,0.1,0.9,0.3
				c0.3,0.2,0.6,0.4,0.8,0.7c0.5,0.5,0.8,1.1,0.9,1.6C173.6,74.5,173.7,74.9,173.7,74.9z"/>
		</g>
		<path class="st3" d="M164.6,72.9c0,0,8.9-4,16.8-2.8"/>
	</g>
	<g>
		<path class="st1" d="M181.1,85.6c-1.2-3.8,2.1-8.2,7.4-9.8s10.5,0.2,11.6,4"/>
		<path class="st1" d="M200.1,79.8c0.6,4.1-2.4,8.6-8,10.1c-5.5,1.5-10.4-1.4-11.6-5.2"/>
		<ellipse transform="matrix(0.9557 -0.2943 0.2943 0.9557 -15.6019 59.6009)" class="st2" cx="190.3" cy="81.6" rx="10.2" ry="7"/>
		<g>
			<path class="st3" d="M192.3,80.5c0,0,0.1-0.4,0.3-0.8c0.2-0.4,0.6-1,0.9-1.5c0.3-0.5,0.6-1,0.7-1.4c0.1-0.2,0.1-0.4,0.2-0.5
				c0-0.1,0.1-0.2,0.1-0.2s0.1,0.1,0.1,0.2c0.1,0.1,0.2,0.3,0.2,0.6c0.1,0.3,0,0.6,0,0.9c-0.1,0.3-0.2,0.7-0.4,1
				c-0.4,0.6-0.9,1.1-1.3,1.3C192.6,80.4,192.3,80.5,192.3,80.5z"/>
		</g>
		<g>
			<path class="st3" d="M186,82.2c0,0,0-0.3,0.2-0.6c0.1-0.3,0.4-0.7,0.6-1.1c0.2-0.4,0.4-0.7,0.6-1c0.1-0.3,0.3-0.6,0.3-0.6
				s0.2,0.2,0.3,0.6c0.1,0.2,0.1,0.5,0,0.7c0,0.3-0.2,0.5-0.3,0.7c-0.3,0.4-0.7,0.8-1,0.9C186.2,82.1,186,82.2,186,82.2z"/>
		</g>
		<g>
			<path class="st3" d="M191.2,81c0,0,0.3-0.1,0.6-0.1c0.4,0,0.9,0,1.3,0.2c0.2,0.1,0.5,0.2,0.7,0.4c0.2,0.2,0.3,0.4,0.4,0.6
				c0.2,0.4,0.1,0.7,0.1,0.7s-0.2-0.2-0.5-0.3c-0.3-0.2-0.6-0.3-1-0.5c-0.4-0.2-0.8-0.4-1.1-0.6C191.3,81.3,191.2,81,191.2,81z"/>
		</g>
		<g>
			<path class="st3" d="M191.1,84.9c0,0-0.3-0.1-0.7-0.5c-0.4-0.3-0.9-0.7-1.3-1.1c-0.4-0.4-0.9-0.8-1.3-1c-0.2-0.1-0.4-0.2-0.5-0.3
				c-0.1-0.1-0.2-0.1-0.2-0.1s0.1,0,0.2-0.1c0.1-0.1,0.4-0.1,0.6-0.1c0.3,0,0.6,0.1,0.9,0.2c0.3,0.1,0.6,0.4,0.9,0.6
				c0.5,0.5,0.9,1.1,1.1,1.5C191.1,84.6,191.1,84.9,191.1,84.9z"/>
		</g>
		<path class="st3" d="M181.9,83.8c0,0,8.5-4.9,16.4-4.5"/>
	</g>
	<g>
		<path class="st1" d="M163.4,84.1c1.1-3.8,6.3-5.6,11.6-4.1s8.6,5.9,7.5,9.7"/>
		<path class="st1" d="M182.4,89.7c-1.8,3.8-6.8,5.8-12.2,4c-5.5-1.8-7.9-7-6.8-10.8"/>
		<ellipse transform="matrix(0.2841 -0.9588 0.9588 0.2841 41.7121 227.5288)" class="st2" cx="173.2" cy="85.8" rx="7" ry="10.2"/>
		<g>
			<path class="st3" d="M175.5,86c0,0,0.3-0.2,0.7-0.5c0.4-0.3,1-0.5,1.5-0.8c0.5-0.2,1-0.5,1.4-0.8c0.2-0.1,0.3-0.3,0.4-0.4
				c0.1-0.1,0.2-0.2,0.2-0.2s0,0.1,0,0.2c0,0.2-0.1,0.4-0.2,0.6c-0.1,0.3-0.3,0.5-0.5,0.7c-0.2,0.2-0.6,0.4-0.9,0.6
				c-0.6,0.3-1.3,0.4-1.8,0.4C175.9,86.1,175.5,86,175.5,86z"/>
		</g>
		<g>
			<path class="st3" d="M169.4,83.9c0,0,0.2-0.2,0.5-0.4c0.3-0.2,0.7-0.4,1.1-0.6c0.4-0.2,0.7-0.3,1-0.5c0.3-0.2,0.5-0.3,0.5-0.3
				s0.1,0.3-0.1,0.7c-0.1,0.2-0.2,0.4-0.4,0.6c-0.2,0.2-0.4,0.3-0.6,0.4c-0.5,0.2-1,0.3-1.3,0.2C169.6,84,169.4,83.9,169.4,83.9z"/>
		</g>
		<g>
			<path class="st3" d="M174.3,85.8c0,0,0.3,0.1,0.6,0.2c0.3,0.2,0.7,0.5,1,0.9c0.1,0.2,0.3,0.5,0.3,0.7c0.1,0.3,0.1,0.5,0,0.7
				c-0.1,0.4-0.3,0.6-0.3,0.6s-0.1-0.3-0.3-0.5c-0.2-0.3-0.4-0.6-0.6-0.9c-0.2-0.3-0.5-0.7-0.6-1.1
				C174.3,86.1,174.3,85.8,174.3,85.8z"/>
		</g>
		<g>
			<path class="st3" d="M172.2,89c0,0-0.2-0.3-0.3-0.8c-0.2-0.5-0.3-1.1-0.5-1.7c-0.1-0.6-0.3-1.1-0.5-1.5c-0.1-0.2-0.2-0.4-0.3-0.5
				c-0.1-0.1-0.1-0.2-0.1-0.2s0.1,0,0.2,0.1c0.2,0,0.4,0.1,0.6,0.3c0.2,0.2,0.4,0.4,0.6,0.7c0.2,0.3,0.3,0.6,0.4,1
				c0.2,0.7,0.1,1.4,0.1,1.8C172.3,88.7,172.2,89,172.2,89z"/>
		</g>
		<path class="st3" d="M165.1,83c0,0,9.8,0.6,16.1,5.3"/>
	</g>
	<g>
		<path class="st1" d="M189.4,93.7c1.1-3.8,6.3-5.6,11.6-4.1c5.3,1.6,8.6,5.9,7.5,9.7"/>
		<path class="st1" d="M208.5,99.4c-1.8,3.8-6.8,5.8-12.2,4c-5.5-1.8-7.9-7-6.8-10.8"/>
		<ellipse transform="matrix(0.2841 -0.9588 0.9588 0.2841 51.1306 259.3981)" class="st2" cx="199.3" cy="95.5" rx="7" ry="10.2"/>
		<g>
			<path class="st3" d="M201.5,95.7c0,0,0.3-0.2,0.7-0.5c0.4-0.3,1-0.5,1.5-0.8c0.5-0.2,1-0.5,1.4-0.8c0.2-0.1,0.3-0.3,0.4-0.4
				c0.1-0.1,0.2-0.2,0.2-0.2s0,0.1,0,0.2c0,0.2-0.1,0.4-0.2,0.6c-0.1,0.3-0.3,0.5-0.5,0.7c-0.2,0.2-0.6,0.4-0.9,0.6
				c-0.6,0.3-1.3,0.4-1.8,0.4C201.9,95.7,201.5,95.7,201.5,95.7z"/>
		</g>
		<g>
			<path class="st3" d="M195.4,93.5c0,0,0.2-0.2,0.5-0.4c0.3-0.2,0.7-0.4,1.1-0.6c0.4-0.2,0.7-0.3,1-0.5c0.3-0.2,0.5-0.3,0.5-0.3
				s0.1,0.3-0.1,0.7c-0.1,0.2-0.2,0.4-0.4,0.6c-0.2,0.2-0.4,0.3-0.6,0.4c-0.5,0.2-1,0.3-1.3,0.2C195.7,93.6,195.4,93.5,195.4,93.5z"
				/>
		</g>
		<g>
			<path class="st3" d="M200.4,95.5c0,0,0.3,0.1,0.6,0.2c0.3,0.2,0.7,0.5,1,0.9c0.1,0.2,0.3,0.5,0.3,0.7c0.1,0.3,0.1,0.5,0,0.7
				c-0.1,0.4-0.3,0.6-0.3,0.6s-0.1-0.3-0.3-0.5c-0.2-0.3-0.4-0.6-0.6-0.9c-0.2-0.3-0.5-0.7-0.6-1.1
				C200.4,95.7,200.4,95.5,200.4,95.5z"/>
		</g>
		<g>
			<path class="st3" d="M198.2,98.7c0,0-0.2-0.3-0.3-0.8c-0.2-0.5-0.3-1.1-0.5-1.7c-0.1-0.6-0.3-1.1-0.5-1.5
				c-0.1-0.2-0.2-0.4-0.3-0.5c-0.1-0.1-0.1-0.2-0.1-0.2s0.1,0,0.2,0.1c0.2,0,0.4,0.1,0.6,0.3c0.2,0.2,0.4,0.4,0.6,0.7
				c0.2,0.3,0.3,0.6,0.4,1c0.2,0.7,0.1,1.4,0.1,1.8C198.3,98.3,198.2,98.7,198.2,98.7z"/>
		</g>
		<path class="st3" d="M191.1,92.7c0,0,9.8,0.6,16.1,5.3"/>
	</g>
	<g>
		<path class="st1" d="M210.2,93c2.7-2.9,8.1-2.3,12.2,1.4c4,3.7,5.2,9.1,2.5,12"/>
		<path class="st1" d="M224.9,106.4c-3.3,2.6-8.6,2.2-12.7-1.8c-4.1-4-4.1-9.7-1.4-12.6"/>
		<ellipse transform="matrix(0.6757 -0.7372 0.7372 0.6757 -2.1135 192.9898)" class="st2" cx="218.3" cy="98.9" rx="7" ry="10.2"/>
		<g>
			<path class="st3" d="M220.3,100.1c0,0,0.3-0.1,0.8-0.1c0.5,0,1.1,0,1.7,0c0.6,0,1.1,0,1.6-0.1c0.2,0,0.4-0.1,0.6-0.1
				c0.1,0,0.2-0.1,0.2-0.1s0,0.1-0.1,0.2c-0.1,0.1-0.2,0.3-0.4,0.5c-0.2,0.2-0.5,0.3-0.8,0.4c-0.3,0.1-0.7,0.1-1,0.1
				c-0.7,0-1.3-0.2-1.8-0.4C220.5,100.3,220.3,100.1,220.3,100.1z"/>
		</g>
		<g>
			<path class="st3" d="M215.7,95.5c0,0,0.3-0.1,0.6-0.2c0.4-0.1,0.8-0.1,1.2-0.1c0.4,0,0.8,0,1.1,0c0.3,0,0.6-0.1,0.6-0.1
				s-0.1,0.3-0.4,0.6c-0.1,0.2-0.4,0.3-0.6,0.4c-0.2,0.1-0.5,0.1-0.8,0.1c-0.5,0-1-0.2-1.3-0.4C215.9,95.7,215.7,95.5,215.7,95.5z"
				/>
		</g>
		<g>
			<path class="st3" d="M219.3,99.4c0,0,0.2,0.2,0.4,0.5c0.2,0.3,0.4,0.7,0.5,1.3c0,0.3,0,0.5,0,0.8c-0.1,0.3-0.2,0.5-0.3,0.6
				c-0.3,0.3-0.5,0.4-0.5,0.4s0-0.3,0-0.6c0-0.3-0.1-0.7-0.1-1.1c0-0.4-0.1-0.9-0.1-1.2C219.2,99.6,219.3,99.4,219.3,99.4z"/>
		</g>
		<g>
			<path class="st3" d="M215.9,101.3c0,0,0-0.4,0-0.9c0.1-0.5,0.2-1.1,0.3-1.7c0.1-0.6,0.2-1.1,0.2-1.6c0-0.2,0-0.4,0-0.6
				c0-0.1,0-0.2,0-0.2s0.1,0,0.2,0.2c0.1,0.1,0.3,0.3,0.4,0.5c0.1,0.2,0.2,0.6,0.3,0.9c0,0.3,0,0.7-0.1,1c-0.2,0.7-0.5,1.3-0.8,1.7
				C216.2,101.1,215.9,101.3,215.9,101.3z"/>
		</g>
		<path class="st3" d="M212.2,92.8c0,0,8.5,4.9,12.2,11.9"/>
	</g>
	<g>
		<path class="st1" d="M200,115.8c-1.9-3.5,0.6-8.4,5.4-11c4.9-2.6,10.3-1.8,12.2,1.7"/>
		<path class="st1" d="M217.6,106.5c1.3,4-0.8,8.9-5.9,11.4c-5.2,2.5-10.5,0.5-12.4-3"/>
		
			<ellipse transform="matrix(0.8843 -0.4669 0.4669 0.8843 -27.3259 109.9629)" class="st2" cx="208.2" cy="110.1" rx="10.2" ry="7"/>
		<g>
			<path class="st3" d="M210,108.7c0,0,0-0.4,0.2-0.8c0.1-0.5,0.4-1.1,0.6-1.6c0.2-0.6,0.4-1.1,0.4-1.5c0-0.2,0.1-0.4,0.1-0.6
				c0-0.1,0-0.2,0-0.2s0.1,0.1,0.2,0.2c0.1,0.1,0.2,0.3,0.3,0.6c0.1,0.3,0.1,0.6,0.1,0.9c0,0.3-0.1,0.7-0.2,1
				c-0.3,0.7-0.7,1.2-1,1.5C210.3,108.5,210,108.7,210,108.7z"/>
		</g>
		<g>
			<path class="st3" d="M204.1,111.4c0,0,0-0.3,0-0.6c0.1-0.4,0.2-0.8,0.3-1.2c0.1-0.4,0.3-0.7,0.4-1c0.1-0.3,0.1-0.6,0.1-0.6
				s0.3,0.1,0.4,0.5c0.1,0.2,0.1,0.4,0.1,0.7c0,0.3-0.1,0.5-0.1,0.8c-0.2,0.5-0.5,0.9-0.8,1.1C204.4,111.3,204.1,111.4,204.1,111.4z
				"/>
		</g>
		<g>
			<path class="st3" d="M209,109.4c0,0,0.2-0.2,0.6-0.3c0.4-0.1,0.9-0.2,1.4,0c0.3,0.1,0.5,0.2,0.7,0.3c0.2,0.1,0.4,0.3,0.5,0.5
				c0.2,0.4,0.2,0.6,0.2,0.6s-0.3-0.1-0.6-0.2c-0.3-0.1-0.7-0.2-1.1-0.3c-0.4-0.1-0.8-0.2-1.2-0.4C209.2,109.5,209,109.4,209,109.4z
				"/>
		</g>
		<g>
			<path class="st3" d="M209.7,113.2c0,0-0.4-0.1-0.8-0.3c-0.4-0.2-1-0.6-1.5-0.9c-0.5-0.3-1-0.6-1.4-0.7c-0.2-0.1-0.4-0.1-0.5-0.2
				c-0.1,0-0.2-0.1-0.2-0.1s0.1-0.1,0.2-0.1c0.1-0.1,0.3-0.2,0.6-0.2c0.3-0.1,0.6,0,0.9,0c0.3,0.1,0.7,0.2,1,0.4
				c0.6,0.4,1,0.9,1.3,1.3C209.6,112.8,209.7,113.2,209.7,113.2z"/>
		</g>
		<path class="st3" d="M200.5,113.8c0,0,7.4-6.4,15.3-7.5"/>
	</g>
	<g>
		<path class="st1" d="M181.9,108.4c1.1-3.8,6.3-5.6,11.6-4.1c5.3,1.6,8.6,5.9,7.5,9.7"/>
		<path class="st1" d="M201,114c-1.8,3.8-6.8,5.8-12.2,4c-5.5-1.8-7.9-7-6.8-10.8"/>
		<ellipse transform="matrix(0.2841 -0.9588 0.9588 0.2841 31.7338 262.708)" class="st2" cx="191.8" cy="110.1" rx="7" ry="10.2"/>
		<g>
			<path class="st3" d="M194.1,110.3c0,0,0.3-0.2,0.7-0.5c0.4-0.3,1-0.5,1.5-0.8c0.5-0.2,1-0.5,1.4-0.8c0.2-0.1,0.3-0.3,0.4-0.4
				c0.1-0.1,0.2-0.2,0.2-0.2s0,0.1,0,0.2c0,0.2-0.1,0.4-0.2,0.6c-0.1,0.3-0.3,0.5-0.5,0.7c-0.2,0.2-0.6,0.4-0.9,0.6
				c-0.6,0.3-1.3,0.4-1.8,0.4C194.4,110.4,194.1,110.3,194.1,110.3z"/>
		</g>
		<g>
			<path class="st3" d="M187.9,108.2c0,0,0.2-0.2,0.5-0.4c0.3-0.2,0.7-0.4,1.1-0.6c0.4-0.2,0.7-0.3,1-0.5c0.3-0.2,0.5-0.3,0.5-0.3
				s0.1,0.3-0.1,0.7c-0.1,0.2-0.2,0.4-0.4,0.6c-0.2,0.2-0.4,0.3-0.6,0.4c-0.5,0.2-1,0.3-1.3,0.2
				C188.2,108.3,187.9,108.2,187.9,108.2z"/>
		</g>
		<g>
			<path class="st3" d="M192.9,110.1c0,0,0.3,0.1,0.6,0.2c0.3,0.2,0.7,0.5,1,0.9c0.1,0.2,0.3,0.5,0.3,0.7c0.1,0.3,0.1,0.5,0,0.7
				c-0.1,0.4-0.3,0.6-0.3,0.6s-0.1-0.3-0.3-0.5c-0.2-0.3-0.4-0.6-0.6-0.9c-0.2-0.3-0.5-0.7-0.6-1.1
				C192.9,110.4,192.9,110.1,192.9,110.1z"/>
		</g>
		<g>
			<path class="st3" d="M190.7,113.3c0,0-0.2-0.3-0.3-0.8c-0.2-0.5-0.3-1.1-0.5-1.7c-0.1-0.6-0.3-1.1-0.5-1.5
				c-0.1-0.2-0.2-0.4-0.3-0.5c-0.1-0.1-0.1-0.2-0.1-0.2s0.1,0,0.2,0.1c0.2,0,0.4,0.1,0.6,0.3c0.2,0.2,0.4,0.4,0.6,0.7
				c0.2,0.3,0.3,0.6,0.4,1c0.2,0.7,0.1,1.4,0.1,1.8C190.9,113,190.7,113.3,190.7,113.3z"/>
		</g>
		<path class="st3" d="M183.6,107.3c0,0,9.8,0.6,16.1,5.3"/>
	</g>
	<g>
		<path class="st1" d="M177.3,91.2c3.5-1.9,8.5,0.4,11.1,5.3s2,10.3-1.5,12.2"/>
		<path class="st1" d="M186.9,108.6c-3.9,1.4-8.9-0.7-11.5-5.8c-2.6-5.1-0.7-10.5,2.8-12.4"/>
		
			<ellipse transform="matrix(0.8769 -0.4806 0.4806 0.8769 -25.2232 100.2084)" class="st2" cx="183.1" cy="99.4" rx="7" ry="10.2"/>
		<g>
			<path class="st3" d="M184.6,101.1c0,0,0.4,0,0.8,0.1c0.5,0.1,1.1,0.3,1.6,0.5c0.6,0.2,1.1,0.4,1.5,0.4c0.2,0,0.4,0.1,0.6,0.1
				c0.1,0,0.2,0,0.2,0s-0.1,0.1-0.2,0.2c-0.1,0.1-0.3,0.2-0.6,0.3c-0.3,0.1-0.6,0.1-0.9,0.1c-0.3,0-0.7-0.1-1-0.2
				c-0.7-0.2-1.2-0.6-1.6-1C184.8,101.4,184.6,101.1,184.6,101.1z"/>
		</g>
		<g>
			<path class="st3" d="M181.7,95.3c0,0,0.3,0,0.6,0c0.4,0.1,0.8,0.2,1.2,0.3c0.4,0.1,0.7,0.3,1.1,0.4c0.3,0.1,0.6,0.1,0.6,0.1
				s-0.1,0.3-0.5,0.4c-0.2,0.1-0.4,0.1-0.7,0.1c-0.3,0-0.5-0.1-0.8-0.1c-0.5-0.2-0.9-0.5-1.1-0.8C181.8,95.5,181.7,95.3,181.7,95.3z
				"/>
		</g>
		<g>
			<path class="st3" d="M183.9,100.1c0,0,0.2,0.2,0.3,0.6c0.1,0.4,0.2,0.8,0.1,1.4c-0.1,0.3-0.1,0.5-0.3,0.7
				c-0.1,0.2-0.3,0.4-0.5,0.5c-0.3,0.2-0.6,0.2-0.6,0.2s0.1-0.3,0.2-0.6c0.1-0.3,0.2-0.7,0.2-1.1c0.1-0.4,0.2-0.8,0.3-1.2
				C183.7,100.4,183.9,100.1,183.9,100.1z"/>
		</g>
		<g>
			<path class="st3" d="M180.1,100.9c0,0,0.1-0.4,0.3-0.8c0.2-0.4,0.5-1,0.8-1.5c0.3-0.5,0.6-1,0.7-1.4c0.1-0.2,0.1-0.4,0.2-0.5
				c0-0.1,0.1-0.2,0.1-0.2s0.1,0.1,0.1,0.2c0.1,0.1,0.2,0.3,0.2,0.6c0.1,0.3,0,0.6,0,0.9c-0.1,0.3-0.2,0.7-0.4,1
				c-0.4,0.6-0.9,1.1-1.3,1.3C180.4,100.7,180.1,100.9,180.1,100.9z"/>
		</g>
		<path class="st3" d="M179.3,91.6c0,0,6.5,7.3,7.7,15.2"/>
	</g>
	<g>
		<path class="st1" d="M154.8,100.7c-0.7-3.9,3.2-7.9,8.6-8.8c5.4-0.9,10.3,1.5,11,5.4"/>
		<path class="st1" d="M174.4,97.3c0,4.2-3.5,8.2-9.2,9c-5.7,0.8-10.2-2.7-10.8-6.6"/>
		<ellipse transform="matrix(0.9852 -0.1714 0.1714 0.9852 -14.348 29.6391)" class="st2" cx="164.4" cy="97.9" rx="10.2" ry="7"/>
		<g>
			<path class="st3" d="M166.6,97.1c0,0,0.1-0.3,0.4-0.8c0.3-0.4,0.7-0.9,1-1.4c0.4-0.5,0.7-0.9,0.9-1.3c0.1-0.2,0.2-0.4,0.2-0.5
				c0.1-0.1,0.1-0.2,0.1-0.2s0,0.1,0.1,0.2c0.1,0.1,0.1,0.4,0.1,0.6c0,0.3,0,0.6-0.2,0.9c-0.1,0.3-0.3,0.6-0.5,0.9
				c-0.4,0.5-1,0.9-1.4,1.2C166.9,97,166.6,97.1,166.6,97.1z"/>
		</g>
		<g>
			<path class="st3" d="M160.1,97.9c0,0,0.1-0.3,0.2-0.6c0.2-0.3,0.4-0.7,0.7-1c0.3-0.3,0.5-0.6,0.7-0.9c0.2-0.3,0.3-0.5,0.3-0.5
				s0.2,0.2,0.2,0.6c0,0.2,0,0.5-0.1,0.7c-0.1,0.2-0.2,0.5-0.4,0.7c-0.3,0.4-0.7,0.7-1.1,0.8C160.4,97.8,160.1,97.9,160.1,97.9z"/>
		</g>
		<g>
			<path class="st3" d="M165.4,97.4c0,0,0.3-0.1,0.6-0.1c0.4,0,0.9,0.1,1.3,0.4c0.2,0.1,0.4,0.3,0.6,0.5c0.2,0.2,0.3,0.4,0.3,0.6
				c0.1,0.4,0,0.7,0,0.7s-0.2-0.2-0.5-0.4c-0.3-0.2-0.6-0.4-0.9-0.6c-0.4-0.2-0.7-0.5-1-0.7C165.6,97.6,165.4,97.4,165.4,97.4z"/>
		</g>
		<g>
			<path class="st3" d="M164.9,101.2c0,0-0.3-0.2-0.7-0.5c-0.4-0.3-0.8-0.8-1.1-1.3c-0.4-0.5-0.8-0.9-1.1-1.1
				c-0.2-0.1-0.3-0.3-0.5-0.3c-0.1-0.1-0.2-0.1-0.2-0.1s0.1,0,0.2-0.1c0.2,0,0.4,0,0.6,0c0.3,0,0.6,0.2,0.9,0.3
				c0.3,0.2,0.6,0.4,0.8,0.7c0.4,0.5,0.7,1.2,0.9,1.6C164.9,100.9,164.9,101.2,164.9,101.2z"/>
		</g>
		<path class="st3" d="M155.9,99c0,0,9-3.8,16.8-2.4"/>
	</g>
	<g>
		<path class="st1" d="M141.8,80.8c1.1-3.8,6.3-5.6,11.6-4.1c5.3,1.6,8.6,5.9,7.5,9.7"/>
		<path class="st1" d="M160.9,86.4c-1.8,3.8-6.8,5.8-12.2,4c-5.5-1.8-7.9-7-6.8-10.8"/>
		<ellipse transform="matrix(0.2841 -0.9588 0.9588 0.2841 29.4603 204.5364)" class="st2" cx="151.7" cy="82.5" rx="7" ry="10.2"/>
		<g>
			<path class="st3" d="M154,82.7c0,0,0.3-0.2,0.7-0.5c0.4-0.3,1-0.5,1.5-0.8c0.5-0.2,1-0.5,1.4-0.8c0.2-0.1,0.3-0.3,0.4-0.4
				c0.1-0.1,0.2-0.2,0.2-0.2s0,0.1,0,0.2c0,0.2-0.1,0.4-0.2,0.6c-0.1,0.3-0.3,0.5-0.5,0.7c-0.2,0.2-0.6,0.4-0.9,0.6
				c-0.6,0.3-1.3,0.4-1.8,0.4C154.3,82.8,154,82.7,154,82.7z"/>
		</g>
		<g>
			<path class="st3" d="M147.8,80.6c0,0,0.2-0.2,0.5-0.4c0.3-0.2,0.7-0.4,1.1-0.6c0.4-0.2,0.7-0.3,1-0.5c0.3-0.2,0.5-0.3,0.5-0.3
				s0.1,0.3-0.1,0.7c-0.1,0.2-0.2,0.4-0.4,0.6c-0.2,0.2-0.4,0.3-0.6,0.4c-0.5,0.2-1,0.3-1.3,0.2C148.1,80.7,147.8,80.6,147.8,80.6z"
				/>
		</g>
		<g>
			<path class="st3" d="M152.8,82.5c0,0,0.3,0.1,0.6,0.2c0.3,0.2,0.7,0.5,1,0.9c0.1,0.2,0.3,0.5,0.3,0.7c0.1,0.3,0.1,0.5,0,0.7
				c-0.1,0.4-0.3,0.6-0.3,0.6s-0.1-0.3-0.3-0.5c-0.2-0.3-0.4-0.6-0.6-0.9c-0.2-0.3-0.5-0.7-0.6-1.1
				C152.8,82.8,152.8,82.5,152.8,82.5z"/>
		</g>
		<g>
			<path class="st3" d="M150.6,85.7c0,0-0.2-0.3-0.3-0.8c-0.2-0.5-0.3-1.1-0.5-1.7c-0.1-0.6-0.3-1.1-0.5-1.5
				c-0.1-0.2-0.2-0.4-0.3-0.5c-0.1-0.1-0.1-0.2-0.1-0.2s0.1,0,0.2,0.1c0.2,0,0.4,0.1,0.6,0.3c0.2,0.2,0.4,0.4,0.6,0.7
				c0.2,0.3,0.3,0.6,0.4,1c0.2,0.7,0.1,1.4,0.1,1.8C150.8,85.4,150.6,85.7,150.6,85.7z"/>
		</g>
		<path class="st3" d="M143.6,79.8c0,0,9.8,0.6,16.1,5.3"/>
	</g>
	<g>
		<path class="st1" d="M82.9,165.8c-4-0.2-7-4.8-6.7-10.3s3.7-9.8,7.7-9.6"/>
		<path class="st1" d="M83.9,145.9c4.1,0.9,7.2,5.2,6.7,10.9c-0.5,5.7-4.9,9.3-8.9,9.1"/>
		
			<ellipse transform="matrix(5.070763e-02 -0.9987 0.9987 5.070763e-02 -77.4434 230.0585)" class="st2" cx="82.3" cy="155.8" rx="10.2" ry="7"/>
		<g>
			<path class="st3" d="M82,153.5c0,0-0.3-0.2-0.6-0.6c-0.3-0.4-0.7-0.9-1.1-1.3c-0.4-0.5-0.7-0.9-1.1-1.2c-0.2-0.1-0.3-0.3-0.5-0.4
				c-0.1-0.1-0.2-0.1-0.2-0.1s0.1,0,0.2,0c0.2,0,0.4,0,0.6,0c0.3,0,0.6,0.2,0.9,0.4c0.3,0.2,0.5,0.4,0.8,0.7
				c0.4,0.6,0.7,1.2,0.8,1.7C81.9,153.1,82,153.5,82,153.5z"/>
		</g>
		<g>
			<path class="st3" d="M81.3,160c0,0-0.3-0.1-0.5-0.4c-0.3-0.2-0.6-0.6-0.8-0.9c-0.3-0.3-0.5-0.6-0.7-0.9c-0.2-0.2-0.4-0.4-0.4-0.4
				s0.3-0.1,0.7-0.1c0.2,0,0.4,0.1,0.7,0.2c0.2,0.1,0.4,0.3,0.6,0.5c0.3,0.4,0.5,0.9,0.6,1.2C81.3,159.7,81.3,160,81.3,160z"/>
		</g>
		<g>
			<path class="st3" d="M82,154.7c0,0,0-0.3,0.1-0.6c0.1-0.4,0.3-0.8,0.7-1.2c0.2-0.2,0.4-0.4,0.6-0.5c0.2-0.1,0.5-0.2,0.7-0.2
				c0.4,0,0.7,0.1,0.7,0.1s-0.2,0.2-0.5,0.4c-0.2,0.2-0.5,0.5-0.8,0.8c-0.3,0.3-0.6,0.6-0.9,0.8C82.3,154.6,82,154.7,82,154.7z"/>
		</g>
		<g>
			<path class="st3" d="M85.7,156c0,0-0.3,0.3-0.7,0.5c-0.4,0.3-1,0.6-1.5,0.8c-0.5,0.3-1,0.6-1.4,0.8c-0.2,0.1-0.3,0.3-0.4,0.4
				c-0.1,0.1-0.2,0.2-0.2,0.2s0-0.1,0-0.2c0-0.2,0-0.4,0.1-0.6c0.1-0.3,0.3-0.5,0.5-0.8c0.2-0.2,0.5-0.4,0.8-0.6
				c0.6-0.3,1.3-0.5,1.8-0.5C85.3,156,85.7,156,85.7,156z"/>
		</g>
		<path class="st3" d="M81.5,164.3c0,0-1.7-9.6,1.4-16.9"/>
	</g>
	<g>
		<path class="st1" d="M92,139.8c-4-0.2-7-4.8-6.7-10.3c0.3-5.5,3.7-9.8,7.7-9.6"/>
		<path class="st1" d="M93,119.9c4.1,0.9,7.2,5.2,6.7,10.9c-0.5,5.7-4.9,9.3-8.9,9.1"/>
		
			<ellipse transform="matrix(5.070763e-02 -0.9987 0.9987 5.070763e-02 -42.8322 214.5003)" class="st2" cx="91.4" cy="129.8" rx="10.2" ry="7"/>
		<g>
			<path class="st3" d="M91.1,127.5c0,0-0.3-0.2-0.6-0.6c-0.3-0.4-0.7-0.9-1.1-1.3c-0.4-0.5-0.7-0.9-1.1-1.2
				c-0.2-0.1-0.3-0.3-0.5-0.4c-0.1-0.1-0.2-0.1-0.2-0.1s0.1,0,0.2,0c0.2,0,0.4,0,0.6,0c0.3,0,0.6,0.2,0.9,0.4
				c0.3,0.2,0.5,0.4,0.8,0.7c0.4,0.6,0.7,1.2,0.8,1.7C91.1,127.2,91.1,127.5,91.1,127.5z"/>
		</g>
		<g>
			<path class="st3" d="M90.4,134c0,0-0.3-0.1-0.5-0.4c-0.3-0.2-0.6-0.6-0.8-0.9c-0.3-0.3-0.5-0.6-0.7-0.9c-0.2-0.2-0.4-0.4-0.4-0.4
				s0.3-0.1,0.7-0.1c0.2,0,0.4,0.1,0.7,0.2c0.2,0.1,0.4,0.3,0.6,0.5c0.3,0.4,0.5,0.9,0.6,1.2C90.5,133.7,90.4,134,90.4,134z"/>
		</g>
		<g>
			<path class="st3" d="M91.2,128.7c0,0,0-0.3,0.1-0.6c0.1-0.4,0.3-0.8,0.7-1.2c0.2-0.2,0.4-0.4,0.6-0.5c0.2-0.1,0.5-0.2,0.7-0.2
				c0.4,0,0.7,0.1,0.7,0.1s-0.2,0.2-0.5,0.4c-0.2,0.2-0.5,0.5-0.8,0.8c-0.3,0.3-0.6,0.6-0.9,0.8C91.4,128.6,91.2,128.7,91.2,128.7z"
				/>
		</g>
		<g>
			<path class="st3" d="M94.8,130.1c0,0-0.3,0.3-0.7,0.5c-0.4,0.3-1,0.6-1.5,0.8c-0.5,0.3-1,0.6-1.4,0.8c-0.2,0.1-0.3,0.3-0.4,0.4
				c-0.1,0.1-0.2,0.2-0.2,0.2s0-0.1,0-0.2c0-0.2,0-0.4,0.1-0.6c0.1-0.3,0.3-0.5,0.5-0.8c0.2-0.2,0.5-0.4,0.8-0.6
				c0.6-0.3,1.3-0.5,1.8-0.5C94.4,130,94.8,130.1,94.8,130.1z"/>
		</g>
		<path class="st3" d="M90.6,138.4c0,0-1.7-9.6,1.4-16.9"/>
	</g>
	<g>
		<path class="st1" d="M96,182.3c-3.6,1.7-8.4-1-10.7-6c-2.3-5-1.3-10.4,2.3-12.1"/>
		<path class="st1" d="M87.6,164.2c4-1.1,8.8,1.2,11.1,6.5c2.2,5.3,0,10.5-3.6,12.2"/>
		<ellipse transform="matrix(0.9067 -0.4217 0.4217 0.9067 -64.7878 54.4861)" class="st2" cx="90.8" cy="173.7" rx="7" ry="10.2"/>
		<g>
			<path class="st3" d="M89.4,171.9c0,0-0.4,0-0.8-0.2c-0.5-0.2-1-0.4-1.6-0.6c-0.5-0.2-1.1-0.4-1.5-0.5c-0.2,0-0.4-0.1-0.6-0.1
				c-0.1,0-0.2,0-0.2,0s0.1-0.1,0.2-0.2c0.1-0.1,0.3-0.2,0.6-0.3c0.3-0.1,0.6-0.1,0.9-0.1c0.3,0,0.7,0.1,1,0.3
				c0.6,0.3,1.2,0.7,1.5,1.1C89.2,171.6,89.4,171.9,89.4,171.9z"/>
		</g>
		<g>
			<path class="st3" d="M91.9,177.9c0,0-0.3,0-0.6-0.1c-0.4-0.1-0.8-0.2-1.2-0.4c-0.4-0.2-0.7-0.3-1-0.4c-0.3-0.1-0.6-0.2-0.6-0.2
				s0.2-0.2,0.6-0.4c0.2-0.1,0.4-0.1,0.7-0.1c0.3,0,0.5,0.1,0.8,0.2c0.5,0.2,0.8,0.5,1.1,0.8C91.8,177.6,91.9,177.9,91.9,177.9z"/>
		</g>
		<g>
			<path class="st3" d="M90.1,172.9c0,0-0.1-0.2-0.2-0.6c-0.1-0.4-0.1-0.9,0-1.4c0.1-0.2,0.2-0.5,0.3-0.7c0.2-0.2,0.3-0.4,0.5-0.5
				c0.4-0.2,0.7-0.2,0.7-0.2s-0.1,0.3-0.2,0.6c-0.1,0.3-0.2,0.7-0.3,1.1c-0.1,0.4-0.3,0.8-0.4,1.2C90.2,172.7,90.1,172.9,90.1,172.9
				z"/>
		</g>
		<g>
			<path class="st3" d="M93.9,172.4c0,0-0.1,0.3-0.4,0.8c-0.2,0.4-0.6,0.9-0.9,1.4c-0.3,0.5-0.6,1-0.8,1.4c-0.1,0.2-0.2,0.4-0.2,0.5
				c0,0.1-0.1,0.2-0.1,0.2s0-0.1-0.1-0.2c-0.1-0.1-0.1-0.4-0.2-0.6c0-0.3,0-0.6,0.1-0.9c0.1-0.3,0.3-0.6,0.5-0.9
				c0.4-0.6,0.9-1,1.4-1.3C93.6,172.5,93.9,172.4,93.9,172.4z"/>
		</g>
		<path class="st3" d="M94.1,181.7c0,0-6-7.7-6.7-15.6"/>
	</g>
	<g>
		<path class="st1" d="M101.3,155.5c-3.4,2-8.5-0.1-11.3-4.9c-2.8-4.7-2.3-10.2,1.1-12.2"/>
		<path class="st1" d="M91.2,138.4c3.9-1.5,8.9,0.3,11.7,5.4c2.8,5,1.1,10.5-2.3,12.5"/>
		<ellipse transform="matrix(0.8597 -0.5107 0.5107 0.8597 -61.9831 69.346)" class="st2" cx="95.3" cy="147.5" rx="7" ry="10.2"/>
		<g>
			<path class="st3" d="M93.7,145.8c0,0-0.4,0-0.8-0.1c-0.5-0.1-1.1-0.3-1.6-0.5c-0.6-0.2-1.1-0.3-1.5-0.4c-0.2,0-0.4,0-0.6,0
				c-0.1,0-0.2,0-0.2,0s0.1-0.1,0.2-0.2c0.1-0.1,0.3-0.2,0.6-0.3c0.3-0.1,0.6-0.2,0.9-0.2c0.3,0,0.7,0.1,1,0.2
				c0.7,0.2,1.2,0.6,1.6,0.9C93.5,145.5,93.7,145.8,93.7,145.8z"/>
		</g>
		<g>
			<path class="st3" d="M96.8,151.6c0,0-0.3,0-0.6,0c-0.4,0-0.8-0.2-1.2-0.3c-0.4-0.1-0.7-0.2-1.1-0.3c-0.3-0.1-0.6-0.1-0.6-0.1
				s0.1-0.3,0.5-0.4c0.2-0.1,0.4-0.2,0.7-0.2c0.3,0,0.5,0,0.8,0.1c0.5,0.2,0.9,0.5,1.1,0.7C96.6,151.3,96.8,151.6,96.8,151.6z"/>
		</g>
		<g>
			<path class="st3" d="M94.5,146.8c0,0-0.2-0.2-0.3-0.6c-0.1-0.4-0.2-0.8-0.1-1.4c0.1-0.3,0.1-0.5,0.3-0.7c0.1-0.2,0.3-0.4,0.5-0.5
				c0.3-0.3,0.6-0.2,0.6-0.2s-0.1,0.3-0.2,0.6c-0.1,0.3-0.1,0.7-0.2,1.1c-0.1,0.4-0.2,0.8-0.3,1.2C94.6,146.6,94.5,146.8,94.5,146.8
				z"/>
		</g>
		<g>
			<path class="st3" d="M98.2,145.9c0,0-0.1,0.4-0.3,0.8c-0.2,0.5-0.5,1-0.8,1.5c-0.3,0.5-0.5,1-0.7,1.4c-0.1,0.2-0.1,0.4-0.2,0.6
				c0,0.1-0.1,0.2-0.1,0.2s-0.1-0.1-0.1-0.2c-0.1-0.1-0.2-0.3-0.2-0.6c-0.1-0.3-0.1-0.6,0-0.9c0.1-0.3,0.2-0.7,0.4-1
				c0.3-0.6,0.8-1.1,1.2-1.4C97.9,146,98.2,145.9,98.2,145.9z"/>
		</g>
		<path class="st3" d="M99.3,155.1c0,0-6.7-7.1-8.2-14.9"/>
	</g>
	<g>
		<path class="st1" d="M104,173.1c-4-0.2-7-4.8-6.7-10.3s3.7-9.8,7.7-9.6"/>
		<path class="st1" d="M105,153.2c4.1,0.9,7.2,5.2,6.7,10.9c-0.5,5.7-4.9,9.3-8.9,9.1"/>
		
			<ellipse transform="matrix(5.070763e-02 -0.9987 0.9987 5.070763e-02 -64.7877 258.0341)" class="st2" cx="103.3" cy="163.1" rx="10.2" ry="7"/>
		<g>
			<path class="st3" d="M103,160.8c0,0-0.3-0.2-0.6-0.6c-0.3-0.4-0.7-0.9-1.1-1.3c-0.4-0.5-0.7-0.9-1.1-1.2
				c-0.2-0.1-0.3-0.3-0.5-0.4c-0.1-0.1-0.2-0.1-0.2-0.1s0.1,0,0.2,0c0.2,0,0.4,0,0.6,0c0.3,0,0.6,0.2,0.9,0.4
				c0.3,0.2,0.5,0.4,0.8,0.7c0.4,0.6,0.7,1.2,0.8,1.7C103,160.5,103,160.8,103,160.8z"/>
		</g>
		<g>
			<path class="st3" d="M102.4,167.3c0,0-0.3-0.1-0.5-0.4c-0.3-0.2-0.6-0.6-0.8-0.9c-0.3-0.3-0.5-0.6-0.7-0.9
				c-0.2-0.2-0.4-0.4-0.4-0.4s0.3-0.1,0.7-0.1c0.2,0,0.4,0.1,0.7,0.2c0.2,0.1,0.4,0.3,0.6,0.5c0.3,0.4,0.5,0.9,0.6,1.2
				C102.4,167,102.4,167.3,102.4,167.3z"/>
		</g>
		<g>
			<path class="st3" d="M103.1,162c0,0,0-0.3,0.1-0.6c0.1-0.4,0.3-0.8,0.7-1.2c0.2-0.2,0.4-0.4,0.6-0.5c0.2-0.1,0.5-0.2,0.7-0.2
				c0.4,0,0.7,0.1,0.7,0.1s-0.2,0.2-0.5,0.4c-0.2,0.2-0.5,0.5-0.8,0.8c-0.3,0.3-0.6,0.6-0.9,0.8C103.3,161.9,103.1,162,103.1,162z"
				/>
		</g>
		<g>
			<path class="st3" d="M106.7,163.4c0,0-0.3,0.3-0.7,0.5c-0.4,0.3-1,0.6-1.5,0.8c-0.5,0.3-1,0.6-1.4,0.8c-0.2,0.1-0.3,0.3-0.4,0.4
				c-0.1,0.1-0.2,0.2-0.2,0.2s0-0.1,0-0.2c0-0.2,0-0.4,0.1-0.6c0.1-0.3,0.3-0.5,0.5-0.8c0.2-0.2,0.5-0.4,0.8-0.6
				c0.6-0.3,1.3-0.5,1.8-0.5C106.3,163.3,106.7,163.4,106.7,163.4z"/>
		</g>
		<path class="st3" d="M102.5,171.7c0,0-1.7-9.6,1.4-16.9"/>
	</g>
	<g>
		<path class="st1" d="M107.2,145.5c-4-0.2-7-4.8-6.7-10.3c0.3-5.5,3.7-9.8,7.7-9.6"/>
		<path class="st1" d="M108.2,125.6c4.1,0.9,7.2,5.2,6.7,10.9c-0.5,5.7-4.9,9.3-8.9,9.1"/>
		
			<ellipse transform="matrix(5.070763e-02 -0.9987 0.9987 5.070763e-02 -34.1706 235.0779)" class="st2" cx="106.6" cy="135.5" rx="10.2" ry="7"/>
		<g>
			<path class="st3" d="M106.2,133.3c0,0-0.3-0.2-0.6-0.6c-0.3-0.4-0.7-0.9-1.1-1.3c-0.4-0.5-0.7-0.9-1.1-1.2
				c-0.2-0.1-0.3-0.3-0.5-0.4c-0.1-0.1-0.2-0.1-0.2-0.1s0.1,0,0.2,0c0.2,0,0.4,0,0.6,0c0.3,0,0.6,0.2,0.9,0.4
				c0.3,0.2,0.5,0.4,0.8,0.7c0.4,0.6,0.7,1.2,0.8,1.7C106.2,132.9,106.2,133.3,106.2,133.3z"/>
		</g>
		<g>
			<path class="st3" d="M105.6,139.7c0,0-0.3-0.1-0.5-0.4c-0.3-0.2-0.6-0.6-0.8-0.9c-0.3-0.3-0.5-0.6-0.7-0.9
				c-0.2-0.2-0.4-0.4-0.4-0.4s0.3-0.1,0.7-0.1c0.2,0,0.4,0.1,0.7,0.2c0.2,0.1,0.4,0.3,0.6,0.5c0.3,0.4,0.5,0.9,0.6,1.2
				C105.6,139.4,105.6,139.7,105.6,139.7z"/>
		</g>
		<g>
			<path class="st3" d="M106.3,134.5c0,0,0-0.3,0.1-0.6c0.1-0.4,0.3-0.8,0.7-1.2c0.2-0.2,0.4-0.4,0.6-0.5c0.2-0.1,0.5-0.2,0.7-0.2
				c0.4,0,0.7,0.1,0.7,0.1s-0.2,0.2-0.5,0.4c-0.2,0.2-0.5,0.5-0.8,0.8c-0.3,0.3-0.6,0.6-0.9,0.8
				C106.6,134.4,106.3,134.5,106.3,134.5z"/>
		</g>
		<g>
			<path class="st3" d="M109.9,135.8c0,0-0.3,0.3-0.7,0.5c-0.4,0.3-1,0.6-1.5,0.8c-0.5,0.3-1,0.6-1.4,0.8c-0.2,0.1-0.3,0.3-0.4,0.4
				c-0.1,0.1-0.2,0.2-0.2,0.2s0-0.1,0-0.2c0-0.2,0-0.4,0.1-0.6c0.1-0.3,0.3-0.5,0.5-0.8c0.2-0.2,0.5-0.4,0.8-0.6
				c0.6-0.3,1.3-0.5,1.8-0.5C109.6,135.7,109.9,135.8,109.9,135.8z"/>
		</g>
		<path class="st3" d="M105.8,144.1c0,0-1.7-9.6,1.4-16.9"/>
	</g>
	<g>
		<path class="st1" d="M101.6,125.5c-3.5-1.9-4.2-7.4-1.5-12.2c2.7-4.8,7.6-7.1,11.1-5.2"/>
		<path class="st1" d="M111.2,108c3.3,2.6,4.2,7.8,1.3,12.8c-2.9,4.9-8.5,6.2-12,4.3"/>
		
			<ellipse transform="matrix(0.4835 -0.8754 0.8754 0.4835 -47.2626 152.3248)" class="st2" cx="105.4" cy="116.2" rx="10.2" ry="7"/>
		<g>
			<path class="st3" d="M106.1,114c0,0-0.2-0.3-0.3-0.8c-0.2-0.5-0.3-1.1-0.4-1.7c-0.1-0.6-0.3-1.1-0.5-1.5
				c-0.1-0.2-0.2-0.4-0.3-0.5c-0.1-0.1-0.1-0.2-0.1-0.2s0.1,0,0.2,0.1c0.2,0,0.4,0.1,0.6,0.3c0.2,0.2,0.4,0.4,0.6,0.7
				c0.2,0.3,0.3,0.6,0.4,1c0.1,0.7,0.1,1.4,0,1.8C106.3,113.7,106.1,114,106.1,114z"/>
		</g>
		<g>
			<path class="st3" d="M102.7,119.6c0,0-0.2-0.2-0.3-0.6c-0.1-0.3-0.3-0.8-0.4-1.2c-0.1-0.4-0.2-0.8-0.3-1.1
				c-0.1-0.3-0.2-0.6-0.2-0.6s0.3,0,0.6,0.2c0.2,0.1,0.3,0.3,0.5,0.5c0.1,0.2,0.2,0.5,0.3,0.7c0.1,0.5,0.1,1,0,1.4
				C102.9,119.3,102.7,119.6,102.7,119.6z"/>
		</g>
		<g>
			<path class="st3" d="M105.7,115.1c0,0,0.1-0.3,0.4-0.5c0.2-0.3,0.6-0.6,1.1-0.8c0.2-0.1,0.5-0.1,0.8-0.1c0.3,0,0.5,0,0.7,0.1
				c0.4,0.2,0.5,0.4,0.5,0.4s-0.3,0.1-0.6,0.1c-0.3,0.1-0.7,0.2-1,0.4c-0.4,0.1-0.8,0.3-1.2,0.3C106,115.2,105.7,115.1,105.7,115.1z
				"/>
		</g>
		<g>
			<path class="st3" d="M108.3,117.9c0,0-0.3,0.1-0.8,0.2c-0.5,0.1-1.1,0.1-1.7,0.1c-0.6,0-1.1,0.1-1.6,0.2c-0.2,0-0.4,0.1-0.6,0.1
				c-0.1,0-0.2,0.1-0.2,0.1s0-0.1,0.1-0.2c0.1-0.1,0.2-0.3,0.4-0.5c0.2-0.2,0.5-0.3,0.8-0.5c0.3-0.1,0.7-0.2,1-0.2
				c0.7,0,1.4,0.2,1.8,0.3C108,117.7,108.3,117.9,108.3,117.9z"/>
		</g>
		<path class="st3" d="M101,123.6c0,0,2.7-9.4,8.7-14.6"/>
	</g>
	<g>
		<path class="st1" d="M125.2,135.4c-3,2.6-8.3,1.4-12-2.7c-3.6-4.1-4.2-9.6-1.2-12.2"/>
		<path class="st1" d="M112.1,120.5c3.5-2.2,8.8-1.3,12.5,3.1c3.7,4.4,3,10.1,0,12.7"/>
		
			<ellipse transform="matrix(0.7498 -0.6617 0.6617 0.7498 -55.6874 110.1666)" class="st2" cx="117.8" cy="128.7" rx="7" ry="10.2"/>
		<g>
			<path class="st3" d="M116,127.3c0,0-0.4,0.1-0.9,0c-0.5,0-1.1-0.1-1.7-0.2c-0.6-0.1-1.1-0.1-1.6-0.1c-0.2,0-0.4,0-0.6,0.1
				c-0.1,0-0.2,0-0.2,0s0-0.1,0.1-0.2c0.1-0.1,0.3-0.3,0.5-0.4c0.2-0.2,0.5-0.3,0.9-0.3c0.3-0.1,0.7-0.1,1,0
				c0.7,0.1,1.3,0.4,1.7,0.6C115.7,127.1,116,127.3,116,127.3z"/>
		</g>
		<g>
			<path class="st3" d="M120.1,132.4c0,0-0.3,0.1-0.6,0.1c-0.4,0-0.8,0-1.2-0.1c-0.4-0.1-0.8-0.1-1.1-0.1c-0.3,0-0.6,0-0.6,0
				s0.1-0.3,0.4-0.5c0.2-0.1,0.4-0.2,0.6-0.3c0.3-0.1,0.5-0.1,0.8,0c0.5,0.1,1,0.3,1.3,0.5C119.9,132.2,120.1,132.4,120.1,132.4z"/>
		</g>
		<g>
			<path class="st3" d="M116.9,128.1c0,0-0.2-0.2-0.4-0.5c-0.2-0.3-0.4-0.8-0.4-1.3c0-0.3,0-0.5,0.1-0.8c0.1-0.2,0.2-0.5,0.4-0.6
				c0.3-0.3,0.6-0.4,0.6-0.4s0,0.3-0.1,0.6c0,0.3,0,0.7,0,1.1c0,0.4,0,0.9-0.1,1.2C117,127.9,116.9,128.1,116.9,128.1z"/>
		</g>
		<g>
			<path class="st3" d="M120.4,126.6c0,0,0,0.4-0.1,0.8c-0.1,0.5-0.3,1.1-0.5,1.6c-0.2,0.6-0.3,1.1-0.4,1.5c0,0.2,0,0.4,0,0.6
				c0,0.1,0,0.2,0,0.2s-0.1-0.1-0.2-0.2c-0.1-0.1-0.2-0.3-0.3-0.6c-0.1-0.3-0.2-0.6-0.2-0.9c0-0.3,0.1-0.7,0.2-1
				c0.2-0.7,0.6-1.2,0.9-1.6C120.1,126.8,120.4,126.6,120.4,126.6z"/>
		</g>
		<path class="st3" d="M123.2,135.4c0,0-7.9-5.7-10.8-13.1"/>
	</g>
	<g>
		<path class="st1" d="M127,159.3c-4-0.2-7-4.8-6.7-10.3c0.3-5.5,3.7-9.8,7.7-9.6"/>
		<path class="st1" d="M128,139.4c4.1,0.9,7.2,5.2,6.7,10.9c-0.5,5.7-4.9,9.3-8.9,9.1"/>
		
			<ellipse transform="matrix(5.070763e-02 -0.9987 0.9987 5.070763e-02 -29.0892 267.9341)" class="st2" cx="126.4" cy="149.3" rx="10.2" ry="7"/>
		<g>
			<path class="st3" d="M126.1,147c0,0-0.3-0.2-0.6-0.6c-0.3-0.4-0.7-0.9-1.1-1.3c-0.4-0.5-0.7-0.9-1.1-1.2
				c-0.2-0.1-0.3-0.3-0.5-0.4c-0.1-0.1-0.2-0.1-0.2-0.1s0.1,0,0.2,0c0.2,0,0.4,0,0.6,0c0.3,0,0.6,0.2,0.9,0.4
				c0.3,0.2,0.5,0.4,0.8,0.7c0.4,0.6,0.7,1.2,0.8,1.7C126,146.6,126.1,147,126.1,147z"/>
		</g>
		<g>
			<path class="st3" d="M125.4,153.5c0,0-0.3-0.1-0.5-0.4c-0.3-0.2-0.6-0.6-0.8-0.9c-0.3-0.3-0.5-0.6-0.7-0.9
				c-0.2-0.2-0.4-0.4-0.4-0.4s0.3-0.1,0.7-0.1c0.2,0,0.4,0.1,0.7,0.2c0.2,0.1,0.4,0.3,0.6,0.5c0.3,0.4,0.5,0.9,0.6,1.2
				C125.4,153.2,125.4,153.5,125.4,153.5z"/>
		</g>
		<g>
			<path class="st3" d="M126.1,148.2c0,0,0-0.3,0.1-0.6c0.1-0.4,0.3-0.8,0.7-1.2c0.2-0.2,0.4-0.4,0.6-0.5c0.2-0.1,0.5-0.2,0.7-0.2
				c0.4,0,0.7,0.1,0.7,0.1s-0.2,0.2-0.5,0.4c-0.2,0.2-0.5,0.5-0.8,0.8c-0.3,0.3-0.6,0.6-0.9,0.8
				C126.4,148.1,126.1,148.2,126.1,148.2z"/>
		</g>
		<g>
			<path class="st3" d="M129.8,149.6c0,0-0.3,0.3-0.7,0.5c-0.4,0.3-1,0.6-1.5,0.8c-0.5,0.3-1,0.6-1.4,0.8c-0.2,0.1-0.3,0.3-0.4,0.4
				c-0.1,0.1-0.2,0.2-0.2,0.2s0-0.1,0-0.2c0-0.2,0-0.4,0.1-0.6c0.1-0.3,0.3-0.5,0.5-0.8c0.2-0.2,0.5-0.4,0.8-0.6
				c0.6-0.3,1.3-0.5,1.8-0.5C129.4,149.5,129.8,149.6,129.8,149.6z"/>
		</g>
		<path class="st3" d="M125.6,157.8c0,0-1.7-9.6,1.4-16.9"/>
	</g>
	<g>
		<path class="st1" d="M107.6,157.9c-2.7-2.9-1.6-8.3,2.5-12c4.1-3.7,9.5-4.3,12.2-1.4"/>
		<path class="st1" d="M122.3,144.5c2.3,3.5,1.5,8.8-2.9,12.5c-4.4,3.7-10,3.2-12.7,0.2"/>
		
			<ellipse transform="matrix(0.7394 -0.6733 0.6733 0.7394 -71.4667 116.0538)" class="st2" cx="114.2" cy="150.3" rx="10.2" ry="7"/>
		<g>
			<path class="st3" d="M115.5,148.5c0,0-0.1-0.4-0.1-0.9c0-0.5,0.1-1.1,0.1-1.7c0.1-0.6,0.1-1.1,0.1-1.6c0-0.2,0-0.4-0.1-0.6
				c0-0.1,0-0.2,0-0.2s0.1,0,0.2,0.1c0.1,0.1,0.3,0.2,0.4,0.5c0.2,0.2,0.3,0.5,0.4,0.9c0.1,0.3,0.1,0.7,0,1
				c-0.1,0.7-0.3,1.3-0.6,1.8C115.8,148.2,115.5,148.5,115.5,148.5z"/>
		</g>
		<g>
			<path class="st3" d="M110.5,152.6c0,0-0.1-0.3-0.1-0.6c0-0.4,0-0.8,0-1.2c0-0.4,0.1-0.8,0.1-1.1c0-0.3,0-0.6,0-0.6
				s0.3,0.1,0.5,0.4c0.1,0.2,0.2,0.4,0.3,0.6c0.1,0.2,0.1,0.5,0.1,0.8c-0.1,0.5-0.3,1-0.5,1.3C110.7,152.5,110.5,152.6,110.5,152.6z
				"/>
		</g>
		<g>
			<path class="st3" d="M114.7,149.4c0,0,0.2-0.2,0.5-0.4c0.3-0.2,0.8-0.4,1.3-0.4c0.3,0,0.5,0,0.8,0.1c0.2,0.1,0.5,0.2,0.6,0.4
				c0.3,0.3,0.4,0.6,0.4,0.6s-0.3,0-0.6-0.1c-0.3,0-0.7,0-1.1,0c-0.4,0-0.9,0-1.2,0C115,149.5,114.7,149.4,114.7,149.4z"/>
		</g>
		<g>
			<path class="st3" d="M116.4,152.9c0,0-0.4,0-0.8-0.1c-0.5-0.1-1.1-0.3-1.6-0.5c-0.6-0.2-1.1-0.3-1.6-0.4c-0.2,0-0.4,0-0.6,0
				c-0.1,0-0.2,0-0.2,0s0.1-0.1,0.2-0.2c0.1-0.1,0.3-0.2,0.5-0.3c0.2-0.1,0.6-0.2,0.9-0.2c0.3,0,0.7,0.1,1,0.2
				c0.7,0.2,1.2,0.6,1.6,0.9C116.1,152.6,116.4,152.9,116.4,152.9z"/>
		</g>
		<path class="st3" d="M107.6,155.9c0,0,5.6-8,12.9-11.1"/>
	</g>
	<g>
		<path class="st1" d="M122.1,177.5c-3.6,1.6-8.4-1.2-10.6-6.3c-2.2-5-1-10.4,2.6-12"/>
		<path class="st1" d="M114.2,159.2c4.1-1,8.8,1.5,10.9,6.8c2.1,5.3-0.3,10.5-3.9,12.1"/>
		
			<ellipse transform="matrix(0.9173 -0.3983 0.3983 0.9173 -57.5422 60.6146)" class="st2" cx="117.1" cy="168.8" rx="7" ry="10.2"/>
		<g>
			<path class="st3" d="M115.8,166.9c0,0-0.4,0-0.8-0.2c-0.5-0.2-1-0.4-1.6-0.7c-0.5-0.3-1-0.5-1.5-0.6c-0.2-0.1-0.4-0.1-0.6-0.1
				c-0.1,0-0.2,0-0.2,0s0.1-0.1,0.2-0.2c0.1-0.1,0.3-0.2,0.6-0.3c0.3-0.1,0.6-0.1,0.9-0.1c0.3,0,0.7,0.2,1,0.3
				c0.6,0.3,1.1,0.7,1.5,1.1C115.6,166.6,115.8,166.9,115.8,166.9z"/>
		</g>
		<g>
			<path class="st3" d="M118.1,173c0,0-0.3,0-0.6-0.1c-0.4-0.1-0.8-0.3-1.1-0.4c-0.4-0.2-0.7-0.3-1-0.5c-0.3-0.1-0.6-0.2-0.6-0.2
				s0.2-0.2,0.6-0.4c0.2-0.1,0.4-0.1,0.7-0.1c0.3,0,0.5,0.1,0.8,0.2c0.5,0.2,0.8,0.6,1,0.9C118,172.7,118.1,173,118.1,173z"/>
		</g>
		<g>
			<path class="st3" d="M116.4,168c0,0-0.1-0.3-0.2-0.6c-0.1-0.4-0.1-0.9,0.1-1.4c0.1-0.2,0.2-0.5,0.4-0.7c0.2-0.2,0.3-0.4,0.5-0.5
				c0.4-0.2,0.7-0.2,0.7-0.2s-0.1,0.3-0.2,0.6c-0.1,0.3-0.2,0.7-0.3,1.1c-0.1,0.4-0.3,0.8-0.4,1.1C116.6,167.8,116.4,168,116.4,168z
				"/>
		</g>
		<g>
			<path class="st3" d="M120.3,167.6c0,0-0.1,0.3-0.4,0.8c-0.3,0.4-0.6,0.9-1,1.4c-0.4,0.5-0.7,0.9-0.8,1.4
				c-0.1,0.2-0.2,0.4-0.2,0.5c-0.1,0.1-0.1,0.2-0.1,0.2s0-0.1-0.1-0.2c-0.1-0.1-0.1-0.4-0.1-0.6c0-0.3,0-0.6,0.1-0.9
				c0.1-0.3,0.3-0.6,0.5-0.9c0.4-0.6,1-1,1.4-1.2C119.9,167.7,120.3,167.6,120.3,167.6z"/>
		</g>
		<path class="st3" d="M120.2,176.8c0,0-5.8-7.9-6.3-15.8"/>
	</g>
	<g>
		<path class="st1" d="M105.8,194.8c-4-0.2-7-4.8-6.7-10.3c0.3-5.5,3.7-9.8,7.7-9.6"/>
		<path class="st1" d="M106.8,174.9c4.1,0.9,7.2,5.2,6.7,10.9c-0.5,5.7-4.9,9.3-8.9,9.1"/>
		
			<ellipse transform="matrix(5.070763e-02 -0.9987 0.9987 5.070763e-02 -84.6867 280.4857)" class="st2" cx="105.2" cy="184.8" rx="10.2" ry="7"/>
		<g>
			<path class="st3" d="M104.9,182.5c0,0-0.3-0.2-0.6-0.6c-0.3-0.4-0.7-0.9-1.1-1.3c-0.4-0.5-0.7-0.9-1.1-1.2
				c-0.2-0.1-0.3-0.3-0.5-0.4c-0.1-0.1-0.2-0.1-0.2-0.1s0.1,0,0.2,0c0.2,0,0.4,0,0.6,0c0.3,0,0.6,0.2,0.9,0.4
				c0.3,0.2,0.5,0.4,0.8,0.7c0.4,0.6,0.7,1.2,0.8,1.7C104.8,182.2,104.9,182.5,104.9,182.5z"/>
		</g>
		<g>
			<path class="st3" d="M104.2,189c0,0-0.3-0.1-0.5-0.4c-0.3-0.2-0.6-0.6-0.8-0.9c-0.3-0.3-0.5-0.6-0.7-0.9
				c-0.2-0.2-0.4-0.4-0.4-0.4s0.3-0.1,0.7-0.1c0.2,0,0.4,0.1,0.7,0.2c0.2,0.1,0.4,0.3,0.6,0.5c0.3,0.4,0.5,0.9,0.6,1.2
				C104.3,188.7,104.2,189,104.2,189z"/>
		</g>
		<g>
			<path class="st3" d="M104.9,183.7c0,0,0-0.3,0.1-0.6c0.1-0.4,0.3-0.8,0.7-1.2c0.2-0.2,0.4-0.4,0.6-0.5c0.2-0.1,0.5-0.2,0.7-0.2
				c0.4,0,0.7,0.1,0.7,0.1s-0.2,0.2-0.5,0.4c-0.2,0.2-0.5,0.5-0.8,0.8c-0.3,0.3-0.6,0.6-0.9,0.8
				C105.2,183.6,104.9,183.7,104.9,183.7z"/>
		</g>
		<g>
			<path class="st3" d="M108.6,185.1c0,0-0.3,0.3-0.7,0.5c-0.4,0.3-1,0.6-1.5,0.8c-0.5,0.3-1,0.6-1.4,0.8c-0.2,0.1-0.3,0.3-0.4,0.4
				c-0.1,0.1-0.2,0.2-0.2,0.2s0-0.1,0-0.2c0-0.2,0-0.4,0.1-0.6c0.1-0.3,0.3-0.5,0.5-0.8c0.2-0.2,0.5-0.4,0.8-0.6
				c0.6-0.3,1.3-0.5,1.8-0.5C108.2,185,108.6,185.1,108.6,185.1z"/>
		</g>
		<path class="st3" d="M104.4,193.4c0,0-1.7-9.6,1.4-16.9"/>
	</g>
	
		<ellipse transform="matrix(0.8494 -0.5278 0.5278 0.8494 -44.7351 98.8148)" class="st4" cx="150.8" cy="127.8" rx="16.7" ry="16.7"/>
	
		<ellipse transform="matrix(0.8494 -0.5278 0.5278 0.8494 -44.7665 98.8495)" class="st5" cx="150.8" cy="127.9" rx="13.7" ry="13.7"/>
	<polygon class="st6" points="99.6,55.9 141,112.1 108.5,50.4 	"/>
	<polygon class="st7" points="122.4,211.7 143.6,145 112.7,207.7 	"/>
	<polygon class="st7" points="240.1,118.5 166.8,128.2 240.7,128.9 	"/>
	<g>
		<path class="st8" d="M110,48.9c0,0,0.7,0.9,1.7,2.5c1.1,1.6,2.6,3.9,4.3,6.8c0.9,1.4,1.8,2.9,2.8,4.6c1,1.6,2,3.4,3,5.2
			c2,3.6,4.1,7.5,6.2,11.4c1,2,2,3.9,3,5.9c1,1.9,1.9,3.9,2.8,5.7c0.9,1.9,1.7,3.7,2.5,5.4c0.8,1.7,1.5,3.4,2.2,4.9
			c1.3,3,2.3,5.6,3,7.5c0.7,1.8,1,2.9,1,2.9s-0.7-0.9-1.8-2.5c-1.1-1.6-2.6-3.9-4.4-6.8c-0.9-1.4-1.8-2.9-2.8-4.6
			c-1-1.6-2-3.4-3-5.2c-1-1.8-2.1-3.7-3.1-5.6c-1-1.9-2.1-3.9-3.1-5.8c-2-3.9-4-7.9-5.8-11.6c-0.9-1.9-1.7-3.7-2.5-5.4
			c-0.8-1.7-1.5-3.4-2.2-4.9c-1.3-3-2.3-5.6-3-7.5C110.4,50,110,48.9,110,48.9z"/>
	</g>
	<g>
		<path class="st8" d="M168.4,130.8c0,0,1.1-0.2,3-0.4c1.9-0.2,4.7-0.5,8-0.7c1.7-0.1,3.5-0.2,5.4-0.3c1.9-0.1,3.9-0.2,6-0.2
			c4.1-0.1,8.6-0.1,13-0.1c2.2,0,4.4,0.1,6.6,0.1c2.2,0.1,4.3,0.1,6.4,0.2c2.1,0.1,4.1,0.2,6,0.3c1.9,0.1,3.7,0.3,5.3,0.4
			c3.3,0.3,6.1,0.6,8,0.8c1.9,0.2,3,0.4,3,0.4s-1.1,0.2-3,0.4c-1.9,0.2-4.7,0.5-8,0.7c-1.7,0.1-3.5,0.2-5.4,0.3
			c-1.9,0.1-3.9,0.2-6,0.2c-2.1,0-4.2,0.1-6.4,0.1c-2.2,0-4.4,0-6.6,0c-4.4-0.1-8.8-0.2-13-0.4c-2.1-0.1-4.1-0.2-6-0.3
			c-1.9-0.1-3.7-0.3-5.3-0.4c-3.3-0.3-6.1-0.6-8-0.8C169.5,131,168.4,130.8,168.4,130.8z"/>
	</g>
	<g>
		<path class="st8" d="M146.3,146.5c0,0-0.2,1.1-0.6,2.9c-0.4,1.9-1,4.5-1.7,7.6c-0.4,1.6-0.8,3.3-1.3,5c-0.5,1.8-1,3.7-1.6,5.6
			c-1.1,3.9-2.4,8-3.8,12c-0.7,2-1.4,4.1-2.1,6.1c-0.7,2-1.4,3.9-2.1,5.8c-0.7,1.9-1.4,3.7-2.1,5.4c-0.7,1.7-1.3,3.3-2,4.8
			c-1.2,3-2.4,5.4-3.2,7.1c-0.8,1.7-1.3,2.7-1.3,2.7s0.2-1.1,0.6-2.9c0.4-1.9,1-4.5,1.7-7.6c0.4-1.6,0.8-3.3,1.3-5
			c0.5-1.8,1-3.7,1.6-5.6c0.6-1.9,1.2-3.9,1.8-5.9c0.6-2,1.3-4.1,2-6.1c1.4-4.1,2.8-8.1,4.2-11.9c0.7-1.9,1.4-3.7,2.1-5.4
			c0.7-1.7,1.3-3.3,2-4.8c1.2-3,2.4-5.4,3.2-7.1C145.8,147.4,146.3,146.5,146.3,146.5z"/>
	</g>
</g>
</svg>
